<?xml version="1.0" encoding="UTF-8"?> <svg xmlns="http://www.w3.org/2000/svg" width="91" height="92" viewBox="0 0 91 92" fill="none"> <path d="M45.4701 0.560936C70.4449 0.560936 90.6911 20.8095 90.6911 45.7873C90.6911 70.7651 70.4449 91.0137 45.4701 91.0137C20.4952 91.0137 0.249023 70.7651 0.249023 45.7873C0.249023 20.8095 20.4952 0.560936 45.4701 0.560936Z" fill="white"></path> <path d="M23.2278 42.9833C23.7318 43.0673 24.5958 43.1033 25.3038 43.1033C27.7638 43.1033 28.7838 42.1073 28.7838 40.2833C28.7838 38.4233 27.7638 37.8233 25.7958 37.8233C25.3878 37.8233 24.8838 37.8473 24.3078 37.9073L24.3078 35.5673L28.2558 35.5673L28.2558 34.6073L23.2278 34.6073L23.2278 42.9833ZM24.3078 42.0593L24.3078 38.8673C24.7398 38.8073 25.1598 38.7833 25.5198 38.7833C27.1998 38.7833 27.6558 39.1673 27.6558 40.3313C27.6558 41.5553 27.1158 42.1313 25.3758 42.1313C24.9558 42.1313 24.6198 42.1073 24.3078 42.0593ZM30.7467 43.0073L31.6347 43.0073L34.1067 39.4793C34.4667 38.9993 34.8387 38.3873 35.0427 38.0153L35.0787 38.0273C35.0427 38.4713 35.0067 39.5153 35.0067 40.4393L35.0067 43.0073L36.0027 43.0073L36.0027 36.6473L35.1267 36.6473L32.7147 40.1393C32.3667 40.6193 32.0187 41.0993 31.7187 41.6153L31.6707 41.5913C31.7067 41.2793 31.7427 40.4873 31.7427 39.7433L31.7427 36.6473L30.7467 36.6473L30.7467 43.0073ZM37.8733 42.7553C38.3533 42.9953 39.2293 43.1393 39.8053 43.1393C41.7853 43.1393 42.5533 42.5033 42.5533 41.0633C42.5533 40.1993 42.0253 39.7433 41.2453 39.6953C42.0373 39.4673 42.2533 38.9633 42.2533 38.0753C42.2533 37.1153 41.7013 36.5273 40.1293 36.5273C38.9773 36.5273 38.4373 36.7193 37.9933 36.9113L37.9933 38.0753C38.4853 37.6913 39.0133 37.4153 39.9493 37.4153C40.9693 37.4153 41.2453 37.7153 41.2453 38.3633C41.2453 39.0593 40.8613 39.4073 39.9493 39.4073L38.9893 39.4073L38.9893 40.1993L39.8173 40.1993C41.1493 40.1993 41.5573 40.4153 41.5573 41.1233C41.5573 41.9273 41.0653 42.2393 40.0933 42.2393C39.0733 42.2393 38.2933 41.8673 37.8733 41.5313L37.8733 42.7553ZM44.4225 43.0073L45.4185 43.0073L45.4185 40.2593L48.5865 40.2593L48.5865 43.0073L49.5825 43.0073L49.5825 36.6473L48.5865 36.6473L48.5865 39.3113L45.4185 39.3113L45.4185 36.6473L44.4225 36.6473L44.4225 43.0073ZM56.9994 40.1873L56.9994 39.5393C56.9994 37.7393 56.2914 36.5273 54.3234 36.5273C52.4634 36.5273 51.4554 37.6553 51.4554 39.7313C51.4554 42.1793 52.5114 43.1393 54.5634 43.1393C55.5114 43.1393 56.2194 42.8033 56.5314 42.5753L56.5314 41.5433C56.0634 41.9153 55.3914 42.2393 54.5874 42.2393C53.1954 42.2393 52.4634 41.5553 52.4634 40.1873L56.9994 40.1873ZM54.3114 37.4273C55.4874 37.4273 56.0034 38.0273 56.0034 39.3233L52.4634 39.3233C52.4634 38.0273 53.1474 37.4273 54.3114 37.4273ZM63.1557 36.8513C62.7837 36.6593 62.3277 36.5273 61.5477 36.5273C59.4837 36.5273 58.4397 37.5353 58.4397 39.7073C58.4397 42.2633 59.5917 43.1393 61.5117 43.1393C62.3637 43.1393 63.0237 42.9713 63.3597 42.7073L63.3597 41.6273C62.9397 41.9753 62.3037 42.1793 61.6557 42.1793C60.2637 42.1793 59.4717 41.5793 59.4717 39.7913C59.4717 38.0153 60.2517 37.4753 61.4157 37.4753C62.1237 37.4753 62.7717 37.7033 63.1557 37.9793L63.1557 36.8513ZM65.2127 39.9713L68.4167 39.9713L68.4167 38.9633L65.2127 38.9633L65.2127 39.9713ZM13.403 57.0073L14.399 57.0073L14.399 51.5833L17.471 51.5833L17.471 57.0073L18.467 57.0073L18.467 50.6473L13.403 50.6473L13.403 57.0073ZM20.3538 53.8033C20.3538 55.9033 21.4218 57.1393 23.3178 57.1393C24.9738 57.1393 26.2938 56.2273 26.2938 53.8393C26.2938 51.5353 25.1778 50.5273 23.4498 50.5273C21.6258 50.5273 20.3538 51.6073 20.3538 53.8033ZM21.3498 53.8033C21.3498 52.2433 22.0578 51.4153 23.3178 51.4153C24.5898 51.4153 25.2978 52.1953 25.2978 53.8033L25.2978 53.8393C25.2978 55.5193 24.5898 56.2393 23.4018 56.2393C22.0698 56.2393 21.3498 55.3513 21.3498 53.8393L21.3498 53.8033ZM27.1394 58.5673L28.0754 58.5673L28.0754 57.0073L32.7914 57.0073L32.7914 58.5673L33.7274 58.5673L33.7274 56.0593L32.7674 56.0593L32.7674 50.6473L28.5314 50.6473L28.5314 51.3313C28.5314 53.5753 28.2674 55.1713 27.8594 56.0593L27.1394 56.0593L27.1394 58.5673ZM31.7714 56.0593L28.8434 56.0593C29.2754 55.0273 29.4314 53.5633 29.4674 52.0273L29.4794 51.5833L31.7714 51.5833L31.7714 56.0593ZM34.7097 58.5673L35.6457 58.5673L35.6457 57.0073L40.3617 57.0073L40.3617 58.5673L41.2977 58.5673L41.2977 56.0593L40.3377 56.0593L40.3377 50.6473L36.1017 50.6473L36.1017 51.3313C36.1017 53.5753 35.8377 55.1713 35.4297 56.0593L34.7097 56.0593L34.7097 58.5673ZM39.3417 56.0593L36.4137 56.0593C36.8457 55.0273 37.0017 53.5633 37.0377 52.0273L37.0497 51.5833L39.3417 51.5833L39.3417 56.0593ZM47.9408 54.1873L47.9408 53.5393C47.9408 51.7393 47.2328 50.5273 45.2648 50.5273C43.4048 50.5273 42.3968 51.6553 42.3968 53.7313C42.3968 56.1793 43.4528 57.1393 45.5048 57.1393C46.4528 57.1393 47.1608 56.8033 47.4728 56.5753L47.4728 55.5433C47.0048 55.9153 46.3328 56.2393 45.5288 56.2393C44.1368 56.2393 43.4048 55.5553 43.4048 54.1873L47.9408 54.1873ZM45.2528 51.4273C46.4288 51.4273 46.9448 52.0273 46.9448 53.3233L43.4048 53.3233C43.4048 52.0273 44.0888 51.4273 45.2528 51.4273ZM49.8011 59.1673L50.7971 59.1673L50.7971 56.1553C51.1091 56.6833 51.7451 57.1393 52.8251 57.1393C54.5531 57.1393 55.4531 56.1673 55.4531 53.6953C55.4531 51.4393 54.6371 50.5273 52.9931 50.5273C51.8291 50.5273 51.1091 50.9353 50.7731 51.7633L50.7131 50.6473L49.8011 50.6473L49.8011 59.1673ZM50.7971 54.4513L50.7971 53.1793C50.7971 52.1833 51.3731 51.4273 52.6331 51.4273C53.8211 51.4273 54.4571 52.0153 54.4571 53.7553C54.4571 55.5673 53.9531 56.2393 52.6211 56.2393C51.4571 56.2393 50.7971 55.5433 50.7971 54.4513ZM57.5091 57.0073L59.2971 54.1273L60.2571 54.1273L60.2571 57.0073L61.2531 57.0073L61.2531 54.1273L62.2611 54.1273L63.9891 57.0073L65.1651 57.0073L63.1011 53.6713L64.9731 50.6473L63.9051 50.6473L62.2611 53.3473L61.2531 53.3473L61.2531 50.6473L60.2571 50.6473L60.2571 53.3473L59.2611 53.3473L57.6771 50.6473L56.5371 50.6473L58.4331 53.7193L56.3571 57.0073L57.5091 57.0073ZM71.0324 57.0073L72.2444 57.0073L69.5684 53.6713L71.9924 50.6473L70.8524 50.6473L68.7284 53.3473L67.6724 53.3473L67.6724 50.6473L66.6764 50.6473L66.6764 57.0073L67.6724 57.0073L67.6724 54.1273L68.7164 54.1273L71.0324 57.0073ZM77.2494 57.0073L78.1614 57.0073L78.1614 52.6873C78.1614 51.0433 77.4054 50.5273 75.7254 50.5273C75.1134 50.5273 74.2134 50.6833 73.6854 50.9713L73.6854 52.1233C74.1174 51.7633 74.8974 51.4393 75.6174 51.4393C76.6854 51.4393 77.1654 51.6793 77.1654 52.6993L77.1654 53.2993L75.7374 53.2993C73.9134 53.2993 73.2054 53.8393 73.2054 55.2433C73.2054 56.4673 73.9974 57.1393 75.2694 57.1393C76.1814 57.1393 76.8654 56.6713 77.1894 56.0953L77.2494 57.0073ZM74.2254 55.0873C74.2254 54.3193 74.5614 54.0313 75.7734 54.0313L77.1654 54.0313L77.1654 54.5713C77.1654 55.4953 76.6374 56.1793 75.4614 56.1793C74.5854 56.1793 74.2254 55.7713 74.2254 55.0873Z" fill="#737688"></path> </svg> 