<?xml version="1.0" encoding="UTF-8"?> <svg xmlns="http://www.w3.org/2000/svg" width="335" height="145" viewBox="0 0 335 145" fill="none"> <rect width="335" height="145" rx="14" fill="#FFE9A5"></rect> <path d="M20.902 31.278C20.902 36.272 24.202 39.242 29.152 39.242C34.168 39.242 37.402 35.964 37.402 31.322C37.402 26.35 34.102 23.38 29.152 23.358C24.136 23.358 20.902 26.636 20.902 31.278ZM23.806 31.3C23.806 28.088 25.83 25.91 29.13 25.888C32.65 25.91 34.498 28.286 34.498 31.3C34.498 34.534 32.452 36.712 29.174 36.712C25.654 36.69 23.806 34.314 23.806 31.3ZM47.2152 39H49.7892V28H39.8452V39H42.4192V30.266H47.2152V39ZM60.0357 39H62.5877V28H54.1837L54.0957 30.398C53.9417 36.14 53.1717 36.448 52.2257 36.448C52.0497 36.448 51.8517 36.426 51.6537 36.36V39.022C51.8737 39.088 52.3137 39.132 52.7317 39.132C54.4477 39.132 56.1197 38.516 56.4057 31.652L56.4717 30.266H60.0357V39ZM65.9979 31.982C66.7459 30.816 67.9119 30.024 69.9359 30.024C71.4099 30.024 72.1579 30.508 72.1579 32.07V32.554H69.6719C66.9659 32.554 65.1399 33.258 65.1399 35.766C65.1399 37.922 66.4599 39.176 68.6819 39.176C70.4419 39.176 71.7839 38.296 72.3119 37.02V39H74.7319V31.74C74.7319 28.88 73.1479 27.78 69.9359 27.78C68.0439 27.78 66.7239 28.22 65.9979 28.77V31.982ZM69.4959 36.866C68.3519 36.866 67.7359 36.338 67.7359 35.502C67.7359 34.512 68.4619 34.226 69.9799 34.226H72.1579V35.128C72.0479 35.876 71.2339 36.866 69.4959 36.866ZM80.2087 39H82.7607V30.266H86.3247V28H76.6887V30.266H80.2087V39ZM88.4649 38.846H88.7949V39H90.9069L91.0169 38.846L96.1869 31.454V39H98.7389V28.176H98.3869V28H96.2969L91.0169 35.458V28H88.4649V38.846ZM104.379 39H106.931V30.266H110.495V28H100.859V30.266H104.379V39ZM121.699 37.9V35.26C121.105 36.228 119.763 36.998 117.739 36.998C115.737 36.998 114.615 36.074 114.417 34.248H122.579V33.192C122.579 29.738 120.665 27.78 117.475 27.758C114.153 27.758 111.865 29.804 111.865 33.456C111.865 37.24 114.021 39.242 117.651 39.22C119.653 39.242 121.171 38.516 121.699 37.9ZM117.409 30.002C118.971 30.002 119.939 30.926 120.005 32.422H114.461C114.725 30.838 115.759 30.002 117.409 30.002ZM21.562 62H24.136V57.446H25.896L29.35 62H32.474L28.008 56.192L31.858 51H28.998L25.918 55.29H24.136V51H21.562V62ZM34.3452 62H39.8232C42.7052 62 44.0912 60.856 44.0912 58.744C44.0912 56.874 43.0572 56.236 41.6492 56.06C42.8372 55.774 43.5412 54.872 43.5412 53.552C43.5412 51.902 42.5072 51 39.8892 51H34.3452V62ZM36.9192 59.866V57.292H39.7352C40.9232 57.292 41.5392 57.6 41.5392 58.568C41.5392 59.448 40.9452 59.866 39.5812 59.866H36.9192ZM36.9192 55.444V53.156L39.2952 53.134C40.3952 53.134 40.9672 53.376 40.9672 54.19C40.9672 55.114 40.2852 55.444 39.2732 55.444H36.9192ZM46.4629 61.846H46.7929V62H48.9049L49.0149 61.846L54.1849 54.454V62H56.7369V51.176H56.3849V51H54.2949L49.0149 58.458V51H46.4629V61.846ZM62.3766 62H64.9286V53.266H68.4926V51H58.8566V53.266H62.3766V62ZM70.6815 54.982C71.4295 53.816 72.5955 53.024 74.6195 53.024C76.0935 53.024 76.8415 53.508 76.8415 55.07V55.554H74.3555C71.6495 55.554 69.8235 56.258 69.8235 58.766C69.8235 60.922 71.1435 62.176 73.3655 62.176C75.1255 62.176 76.4675 61.296 76.9955 60.02V62H79.4155V54.74C79.4155 51.88 77.8315 50.78 74.6195 50.78C72.7275 50.78 71.4075 51.22 70.6815 51.77V54.982ZM74.1795 59.866C73.0355 59.866 72.4195 59.338 72.4195 58.502C72.4195 57.512 73.1455 57.226 74.6635 57.226H76.8415V58.128C76.7315 58.876 75.9175 59.866 74.1795 59.866ZM89.9303 62H92.5043V51H89.9303V55.29H84.9583V51H82.3843V62H84.9583V57.556H89.9303V62ZM95.6186 62H104.749V64.86H107.081V59.668H105.431V51H102.857V59.668H98.1926V51H95.6186V62ZM109.111 61.846H109.441V62H111.553L111.663 61.846L116.833 54.454V62H119.385V51.176H119.033V51H116.943L111.663 58.458V51H109.111V61.846ZM122.517 62H125.091V57.556H126.741C127.115 60.702 129.139 62.286 132.131 62.286C135.563 62.264 137.873 60.394 137.873 56.588C137.873 52.738 135.629 50.802 132.219 50.802C129.293 50.802 127.203 52.298 126.763 55.29H125.091V51H122.517V62ZM132.197 60.042C130.349 60.042 129.227 58.986 129.227 56.566V56.5C129.227 54.168 130.283 53.046 132.175 53.046C134.089 53.068 135.233 54.124 135.233 56.522V56.588C135.233 58.92 134.155 60.042 132.197 60.042ZM21.012 83.878C21.562 84.494 23.234 85.22 25.17 85.22C28.14 85.22 30.142 84.01 30.142 81.7C30.142 80.226 29.328 79.478 27.854 79.192C28.954 78.73 29.68 78.026 29.68 76.64C29.68 74.902 28.382 73.78 25.324 73.78H25.236C23.542 73.78 22.046 74.22 21.21 74.77V77.982C22.068 76.816 23.388 76.024 25.236 76.024C26.578 76.046 27.062 76.486 27.062 77.234C27.062 78.158 26.27 78.532 25.082 78.532H23.52V80.402H25.412C26.908 80.402 27.546 80.754 27.546 81.612C27.546 82.536 26.622 82.976 25.17 82.976C23.102 82.976 21.65 82.206 21.012 81.238V83.878ZM32.783 77.982C33.531 76.816 34.697 76.024 36.721 76.024C38.195 76.024 38.943 76.508 38.943 78.07V78.554H36.457C33.751 78.554 31.925 79.258 31.925 81.766C31.925 83.922 33.245 85.176 35.467 85.176C37.227 85.176 38.569 84.296 39.097 83.02V85H41.517V77.74C41.517 74.88 39.933 73.78 36.721 73.78C34.829 73.78 33.509 74.22 32.783 74.77V77.982ZM36.281 82.866C35.137 82.866 34.521 82.338 34.521 81.502C34.521 80.512 35.247 80.226 36.765 80.226H38.943V81.128C38.833 81.876 38.019 82.866 36.281 82.866ZM56.8887 85H59.4627V74H54.7767C51.3667 74 49.8267 75.232 49.8267 77.982C49.8267 79.412 50.5307 80.49 51.8287 81.018L49.2767 85H52.1147L54.3367 81.37H56.8887V85ZM54.8427 76.266H56.8887V79.39H54.3587C53.0167 79.39 52.4227 78.884 52.4007 77.982C52.4007 76.706 53.1267 76.266 54.8427 76.266ZM70.1432 85H72.7172V74H70.1432V78.29H65.1712V74H62.5972V85H65.1712V80.556H70.1432V85ZM75.8315 85H81.3095C84.1915 85 85.5775 83.856 85.5775 81.744C85.5775 79.874 84.5435 79.236 83.1355 79.06C84.3235 78.774 85.0275 77.872 85.0275 76.552C85.0275 74.902 83.9935 74 81.3755 74H75.8315V85ZM78.4055 82.866V80.292H81.2215C82.4095 80.292 83.0255 80.6 83.0255 81.568C83.0255 82.448 82.4315 82.866 81.0675 82.866H78.4055ZM78.4055 78.444V76.156L80.7815 76.134C81.8815 76.134 82.4535 76.376 82.4535 77.19C82.4535 78.114 81.7715 78.444 80.7595 78.444H78.4055ZM88.1912 77.982C88.9392 76.816 90.1052 76.024 92.1292 76.024C93.6032 76.024 94.3512 76.508 94.3512 78.07V78.554H91.8652C89.1592 78.554 87.3332 79.258 87.3332 81.766C87.3332 83.922 88.6532 85.176 90.8752 85.176C92.6352 85.176 93.9772 84.296 94.5052 83.02V85H96.9252V77.74C96.9252 74.88 95.3412 73.78 92.1292 73.78C90.2372 73.78 88.9172 74.22 88.1912 74.77V77.982ZM91.6892 82.866C90.5452 82.866 89.9292 82.338 89.9292 81.502C89.9292 80.512 90.6552 80.226 92.1732 80.226H94.3512V81.128C94.2412 81.876 93.4272 82.866 91.6892 82.866ZM99.894 89.246H102.468V83.328C103.018 84.362 104.228 85.242 105.988 85.242C109.002 85.242 110.96 83.592 110.96 79.258C110.96 75.408 109.002 73.78 106.208 73.78C103.876 73.78 102.71 75.056 102.314 76.288V74H99.894V89.246ZM102.468 79.038C102.512 77.19 103.436 76.068 105.46 76.068C107.22 76.068 108.386 76.948 108.386 79.368C108.386 81.964 107.484 82.976 105.416 82.976C103.612 82.976 102.468 81.854 102.468 79.874V79.038ZM122.694 80.996C122.694 78.114 121.022 77.256 118.03 77.256H115.896V74H113.322V85H117.744C121.176 85 122.672 83.79 122.694 80.996ZM120.12 80.974C120.12 82.294 119.438 82.734 117.678 82.734H115.896V79.522H117.832C119.504 79.522 120.076 79.83 120.12 80.974Z" fill="#9A7A15"></path> <path d="M20.594 112.02H27.056L22.52 123H24.212L28.874 111.444V110.4H20.594V112.02ZM43.7247 113.658V111.498C43.2387 111.012 42.1227 110.238 40.2327 110.256C37.1007 110.328 35.3187 112.434 35.3187 117.078C35.3187 120.966 37.1907 123.144 40.1607 123.144C42.4107 123.144 44.5527 121.722 44.5527 118.788C44.5527 116.664 42.9687 115.008 40.5747 115.008C38.7747 115.008 37.3167 116.052 36.8487 117.6C36.8307 117.294 36.8127 116.97 36.8127 116.646C36.8127 113.604 37.9647 111.948 40.1427 111.822C41.8167 111.75 42.9147 112.524 43.7247 113.658ZM40.3407 116.466C41.9427 116.466 43.0047 117.312 43.0047 118.986C43.0047 120.588 41.7807 121.56 40.2687 121.56C38.4147 121.56 37.4967 120.39 37.0827 118.95C37.2447 117.6 38.5587 116.466 40.3407 116.466ZM50.9268 110.256C48.3708 110.274 46.2828 111.912 46.2828 116.718C46.2828 121.092 48.1548 123.162 50.9808 123.18C53.5368 123.18 55.6428 121.542 55.6428 116.718C55.6428 112.344 53.7528 110.256 50.9268 110.256ZM47.8668 116.718C47.8668 112.758 49.1448 111.768 50.9448 111.768C52.6008 111.804 54.0588 112.956 54.0588 116.718C54.0588 120.678 52.7808 121.668 50.9808 121.668C49.3068 121.65 47.8668 120.498 47.8668 116.718ZM62.0889 110.256C59.5329 110.274 57.4449 111.912 57.4449 116.718C57.4449 121.092 59.3169 123.162 62.1429 123.18C64.6989 123.18 66.8049 121.542 66.8049 116.718C66.8049 112.344 64.9149 110.256 62.0889 110.256ZM59.0289 116.718C59.0289 112.758 60.3069 111.768 62.1069 111.768C63.7629 111.804 65.2209 112.956 65.2209 116.718C65.2209 120.678 63.9429 121.668 62.1429 121.668C60.4689 121.65 59.0289 120.498 59.0289 116.718ZM68.373 124.89L69.255 125.952C70.353 125.736 71.865 124.566 71.865 122.64C71.865 121.938 71.721 121.38 71.343 121.092C71.163 120.948 70.893 120.858 70.533 120.858C69.633 120.858 69.363 121.38 69.363 122.028C69.363 122.658 69.633 123.18 70.533 123.18H70.569C70.479 123.954 69.687 124.746 68.373 124.89ZM75.199 119.742V121.902C75.685 122.388 76.801 123.162 78.691 123.144C81.823 123.072 83.605 120.966 83.605 116.322C83.605 112.434 81.733 110.256 78.763 110.256C76.513 110.256 74.371 111.678 74.371 114.612C74.371 116.736 75.955 118.392 78.349 118.392C80.131 118.392 81.589 117.348 82.057 115.8C82.093 116.124 82.111 116.448 82.111 116.754C82.111 119.796 80.959 121.452 78.781 121.578C77.107 121.65 76.009 120.876 75.199 119.742ZM78.583 116.934C76.981 116.934 75.919 116.088 75.919 114.414C75.919 112.812 77.143 111.84 78.655 111.84C80.509 111.84 81.427 113.01 81.823 114.468C81.661 115.818 80.365 116.934 78.583 116.934ZM86.0011 119.742V121.902C86.4691 122.388 87.5491 123.144 89.3491 123.144H89.3851C92.1031 123.144 93.7771 121.614 93.7771 118.896C93.7771 116.52 92.2471 115.098 89.5471 115.098C88.8811 115.098 88.1251 115.206 87.8551 115.296L88.1791 111.84H93.4531V110.4H86.9191L86.3251 117.006C86.8471 116.79 87.6751 116.502 89.1871 116.502C90.9691 116.502 92.1931 117.24 92.1931 118.95C92.1931 120.516 91.3471 121.578 89.4391 121.632C87.8371 121.668 86.7751 120.876 86.0011 119.742ZM99.9931 117.24V118.68H101.613V119.922H99.9931V121.362H101.613V123H103.233V121.362H107.553V119.922H103.233V118.68H104.655C108.093 118.68 109.983 117.258 109.983 114.486C109.983 111.66 108.183 110.4 104.655 110.4H101.613V117.24H99.9931ZM104.547 111.84C107.139 111.84 108.291 112.488 108.291 114.378C108.291 116.484 106.995 117.24 104.601 117.24H103.233V111.84H104.547Z" fill="#947B2D"></path> <rect x="255" y="20" width="60" height="60" rx="12" fill="white"></rect> <path fill-rule="evenodd" clip-rule="evenodd" d="M273 38.5H297C299.209 38.5 301 40.2909 301 42.5L269 42.5C269 40.2909 270.791 38.5 273 38.5ZM269 48.5V56.5C269 58.7091 270.791 60.5 273 60.5H297C299.209 60.5 301 58.7091 301 56.5V48.5H269ZM265 42.5C265 38.0817 268.582 34.5 273 34.5H297C301.418 34.5 305 38.0817 305 42.5V56.5C305 60.9183 301.418 64.5 297 64.5H273C268.582 64.5 265 60.9183 265 56.5V42.5ZM291 53.7C291 53.0373 291.537 52.5 292.2 52.5H295.8C296.463 52.5 297 53.0373 297 53.7V55.3C297 55.9627 296.463 56.5 295.8 56.5H292.2C291.537 56.5 291 55.9627 291 55.3V53.7Z" fill="#AD9344"></path> </svg> 