<?xml version="1.0" encoding="UTF-8"?> <svg xmlns="http://www.w3.org/2000/svg" width="32" height="32" viewBox="0 0 32 32" fill="none"> <path d="M13.382 0C9.67191 0 6.64825 3.02366 6.64825 6.73375C6.64825 9.3704 8.1721 11.6621 10.3892 12.7661V16.32L10.3191 16.1563C10.3121 16.1365 10.3043 16.117 10.2957 16.0979C9.62895 14.8609 8.88997 14.1664 8.05112 13.9351C7.21226 13.7038 6.44745 13.9921 5.90006 14.3092C5.88815 14.3167 5.87646 14.3245 5.86499 14.3326C5.26037 14.7358 4.70627 15.2574 4.49719 16.0043C4.28812 16.7513 4.42694 17.5763 4.82453 18.5996C4.82829 18.6075 4.83219 18.6153 4.83622 18.623L5.95851 21.2417C5.96227 21.2496 5.96617 21.2574 5.9702 21.2651C8.10021 25.7502 10.1466 28.8573 12.061 31.1553C12.131 31.2392 12.2186 31.3068 12.3176 31.3532C12.4165 31.3997 12.5245 31.4239 12.6338 31.4241H22.7344C22.895 31.4225 23.0507 31.3692 23.1787 31.2722C25.3053 29.6968 26.8195 26.0255 27.3873 22.5393C27.6711 20.7962 27.7019 19.099 27.282 17.6995C26.8622 16.2999 25.8412 15.1428 24.3126 14.9639C24.2854 14.9624 24.2581 14.9624 24.2308 14.9639C23.9657 14.9639 23.6306 14.9758 23.2839 15.0457C23.2654 15.0495 23.244 15.0537 23.2254 15.0574C23.0336 14.5997 22.7756 14.2069 22.4422 13.9702C21.8829 13.5732 21.3134 13.4599 20.8522 13.4675C20.4148 13.4748 20.0028 13.6181 19.6481 13.865C19.4884 13.6237 19.3188 13.3851 19.1104 13.2337C18.5558 12.8308 17.9656 12.7193 17.4971 12.7193C17.1094 12.7193 16.7342 12.8151 16.3748 12.9648C16.3747 12.8999 16.3749 12.8321 16.3748 12.7661C18.5919 11.6621 20.1157 9.3704 20.1157 6.73375C20.1157 3.02366 17.0921 0 13.382 0ZM13.382 1.49639C16.2834 1.49639 18.6194 3.83237 18.6194 6.73375C18.6194 8.51777 17.7308 10.0919 16.3748 11.0359C16.3741 9.48469 16.3729 7.81032 16.3748 6.73375C16.3777 5.07562 15.0302 3.74097 13.382 3.74097C11.7338 3.74097 10.3892 5.07717 10.3892 6.73375V11.0359C9.03317 10.0919 8.14464 8.51777 8.14464 6.73375C8.14464 3.83237 10.4806 1.49639 13.382 1.49639ZM13.382 5.23736C14.2642 5.23736 14.88 5.83387 14.8784 6.72206C14.875 8.68515 14.8682 12.7478 14.8784 14.5898C14.8786 14.76 14.9368 14.925 15.0435 15.0576C15.1501 15.1903 15.2988 15.2826 15.465 15.3194C15.6311 15.3562 15.8049 15.3352 15.9575 15.2599C16.1102 15.1847 16.2326 15.0596 16.3046 14.9054C16.4701 14.5615 17.0925 14.2157 17.4971 14.2157C17.6786 14.2157 18.0157 14.2795 18.2336 14.4378C18.4515 14.5961 18.6194 14.7931 18.6194 15.338C18.6223 15.5049 18.6809 15.666 18.7859 15.7957C18.8909 15.9255 19.0362 16.0164 19.1988 16.054C19.3614 16.0916 19.5319 16.0738 19.6833 16.0034C19.8346 15.9329 19.958 15.814 20.0339 15.6653C20.3382 15.0566 20.5011 14.9702 20.8756 14.9639C20.9793 14.9639 21.3426 15.0195 21.5771 15.186C21.8115 15.3524 21.9862 15.5555 21.9862 16.0862C21.9894 16.2296 22.0337 16.3692 22.1139 16.4882C22.1942 16.6071 22.3069 16.7005 22.4388 16.7572C22.5706 16.8139 22.716 16.8315 22.8575 16.8078C22.9991 16.7842 23.1308 16.7204 23.2371 16.6239C23.2191 16.6408 23.3679 16.5606 23.5761 16.5187C23.7733 16.4791 24.0137 16.462 24.1957 16.4603C25.0802 16.5852 25.5367 17.1072 25.8441 18.132C26.1588 19.1811 26.1744 20.6966 25.9142 22.2938C25.4092 25.3947 23.8144 28.7658 22.4188 29.9278H13.0196C11.2495 27.7622 9.34942 24.8767 7.33799 20.6455C7.33399 20.6369 7.3303 20.6303 7.3263 20.6221L6.22739 18.0502C6.22336 18.0397 6.21965 18.0369 6.2157 18.0268C5.88679 17.1702 5.85737 16.6796 5.93513 16.4018C6.01287 16.1241 6.21781 15.9078 6.68332 15.5952C6.68907 15.5914 6.68918 15.5872 6.69501 15.5835C7.05919 15.38 7.36351 15.293 7.65364 15.373C7.95541 15.4562 8.41983 15.7767 8.97467 16.7993C8.97811 16.8057 8.98291 16.8046 8.98636 16.811L10.4477 20.1311C10.5151 20.2915 10.6363 20.4234 10.7904 20.504C10.9446 20.5847 11.122 20.6092 11.2922 20.5732C11.4624 20.5372 11.6148 20.4431 11.7231 20.3069C11.8314 20.1707 11.8889 20.0011 11.8856 19.8271V6.73375C11.8856 5.84401 12.4998 5.23736 13.382 5.23736Z" fill="#A0A0B1"></path> </svg> 