<?xml version="1.0" encoding="UTF-8"?> <svg xmlns="http://www.w3.org/2000/svg" width="40" height="40" viewBox="0 0 40 40" fill="none"> <circle cx="20" cy="20" r="20" fill="#6BEAC7"></circle> <path d="M20 9.6875C18.1878 9.6875 16.7187 11.1566 16.7187 12.9687C16.7187 14.7809 18.1878 16.25 20 16.25C21.8122 16.25 23.2813 14.7809 23.2813 12.9688C23.2813 11.1566 21.8122 9.6875 20 9.6875Z" stroke="white" stroke-width="2" stroke-linecap="round" stroke-linejoin="round"></path> <path d="M12.9688 23.7502C11.1566 23.7502 9.6875 25.2193 9.6875 27.0315C9.6875 28.8437 11.1566 30.3127 12.9688 30.3127C14.7809 30.3127 16.25 28.8437 16.25 27.0315C16.25 25.2193 14.7809 23.7502 12.9688 23.7502Z" stroke="white" stroke-width="2" stroke-linecap="round" stroke-linejoin="round"></path> <path d="M27.0313 23.7504C25.2191 23.7504 23.75 25.2194 23.75 27.0316C23.75 28.8438 25.2191 30.3129 27.0312 30.3129C28.8434 30.3129 30.3125 28.8438 30.3125 27.0316C30.3125 25.2194 28.8434 23.7504 27.0313 23.7504Z" stroke="white" stroke-width="2" stroke-linecap="round" stroke-linejoin="round"></path> <path d="M27.0312 23.7504L27.0313 22.8126C27.0313 22.4433 26.9585 22.0776 26.8172 21.7363C26.6758 21.3951 26.4686 21.085 26.2075 20.8239C25.9463 20.5627 25.6362 20.3555 25.295 20.2142C24.9538 20.0729 24.588 20.0001 24.2187 20.0001L15.7812 20.0003C15.0353 20.0003 14.3199 20.2966 13.7925 20.8241C13.2651 21.3515 12.9687 22.0669 12.9687 22.8128L12.9687 23.7504" stroke="white" stroke-width="2" stroke-linecap="round" stroke-linejoin="round"></path> <path d="M19.9997 20L20 16.25" stroke="white" stroke-width="2" stroke-linecap="round" stroke-linejoin="round"></path> </svg> 