<?xml version="1.0" encoding="UTF-8"?> <svg xmlns="http://www.w3.org/2000/svg" width="176" height="176" viewBox="0 0 176 176" fill="none"> <path d="M93.8104 11.8074C51.9595 8.60003 15.4328 39.9309 12.2258 81.7867C9.01884 123.643 40.346 160.174 82.1969 163.381C124.048 166.588 160.575 135.258 163.782 93.4016C166.989 51.5457 135.661 15.0148 93.8104 11.8074Z" fill="white"></path> <path d="M42.1411 82.5879L44.3911 82.5879L44.3911 69.9879L33.1771 69.9879L33.1771 82.5879L35.4271 82.5879L35.4271 72.0579L42.1411 72.0579L42.1411 82.5879ZM47.3015 86.0619L49.4075 86.0619L49.4075 81.2199C49.8575 82.0659 50.8475 82.7859 52.2875 82.7859C54.7535 82.7859 56.3555 81.4359 56.3555 77.8899C56.3555 74.7399 54.7535 73.4079 52.4675 73.4079C50.5595 73.4079 49.6055 74.4519 49.2815 75.4599L49.2815 73.5879L47.3015 73.5879L47.3015 86.0619ZM49.4075 77.7099C49.4435 76.1979 50.1995 75.2799 51.8555 75.2799C53.2955 75.2799 54.2495 75.9999 54.2495 77.9799C54.2495 80.1039 53.5115 80.9319 51.8195 80.9319C50.3435 80.9319 49.4075 80.0139 49.4075 78.3939L49.4075 77.7099ZM58.3058 82.4619L58.5758 82.4619L58.5758 82.5879L60.3038 82.5879L60.3938 82.4619L64.6238 76.4139L64.6238 82.5879L66.7118 82.5879L66.7118 73.7319L66.4238 73.7319L66.4238 73.5879L64.7138 73.5879L60.3938 79.6899L60.3938 73.5879L58.3058 73.5879L58.3058 82.4619ZM75.1061 82.5879L77.1941 82.5879L77.1941 73.5879L70.3181 73.5879L70.2461 75.5499C70.1201 80.2479 69.4901 80.4999 68.7161 80.4999C68.5721 80.4999 68.4101 80.4819 68.2481 80.4279L68.2481 82.6059C68.4281 82.6599 68.7881 82.6959 69.1301 82.6959C70.5341 82.6959 71.9021 82.1919 72.1361 76.5759L72.1901 75.4419L75.1061 75.4419L75.1061 82.5879ZM83.7822 82.7859C86.5722 82.7679 88.4622 81.2379 88.4622 78.1239C88.4622 74.9919 86.6442 73.4079 83.8542 73.3899C81.0462 73.3899 79.1562 74.9379 79.1562 78.0519C79.1562 81.2019 80.9742 82.7859 83.7822 82.7859ZM81.2982 78.0519C81.2982 76.1619 82.1802 75.2439 83.7822 75.2259C85.3662 75.2259 86.3202 76.0899 86.3202 78.0699L86.3202 78.1239C86.3202 80.0319 85.4202 80.9499 83.8182 80.9499C82.2342 80.9499 81.2982 80.0859 81.2982 78.1059L81.2982 78.0519ZM94.7482 82.5879L96.8362 82.5879L96.8362 78.8619L98.0782 78.8619L100.076 82.5879L102.47 82.5879L99.8062 77.8539L102.182 73.5879L99.9502 73.5879L98.0422 77.0979L96.8362 77.0979L96.8362 73.5879L94.7482 73.5879L94.7482 77.0979L93.5062 77.0979L91.7062 73.5879L89.3662 73.5879L91.7782 77.9259L89.1142 82.5879L91.4722 82.5879L93.5242 78.8619L94.7482 78.8619L94.7482 82.5879ZM111.179 81.6879L111.179 79.5279C110.693 80.3199 109.595 80.9499 107.939 80.9499C106.301 80.9499 105.383 80.1939 105.221 78.6999L111.899 78.6999L111.899 77.8359C111.899 75.0099 110.333 73.4079 107.723 73.3899C105.005 73.3899 103.133 75.0639 103.133 78.0519C103.133 81.1479 104.897 82.7859 107.867 82.7679C109.505 82.7859 110.747 82.1919 111.179 81.6879ZM107.669 75.2259C108.947 75.2259 109.739 75.9819 109.793 77.2059L105.257 77.2059C105.473 75.9099 106.319 75.2259 107.669 75.2259ZM120.009 82.5879L122.115 82.5879L122.115 73.5879L120.009 73.5879L120.009 77.0979L115.941 77.0979L115.941 73.5879L113.835 73.5879L113.835 82.5879L115.941 82.5879L115.941 78.9519L120.009 78.9519L120.009 82.5879ZM124.681 82.4619L124.951 82.4619L124.951 82.5879L126.679 82.5879L126.769 82.4619L130.999 76.4139L130.999 82.5879L133.087 82.5879L133.087 73.7319L132.799 73.7319L132.799 73.5879L131.089 73.5879L126.769 79.6899L126.769 73.5879L124.681 73.5879L124.681 82.4619ZM143.083 81.6879L143.083 79.5279C142.597 80.3199 141.499 80.9499 139.843 80.9499C138.205 80.9499 137.287 80.1939 137.125 78.6999L143.803 78.6999L143.803 77.8359C143.803 75.0099 142.237 73.4079 139.627 73.3899C136.909 73.3899 135.037 75.0639 135.037 78.0519C135.037 81.1479 136.801 82.7859 139.771 82.7679C141.409 82.7859 142.651 82.1919 143.083 81.6879ZM139.573 75.2259C140.851 75.2259 141.643 75.9819 141.697 77.2059L137.161 77.2059C137.377 75.9099 138.223 75.2259 139.573 75.2259ZM63.2864 91.9879L52.6124 91.9879L52.6124 94.0579L56.7884 94.0579L56.7884 104.588L59.0384 104.588L59.0384 94.0579L63.2864 94.0579L63.2864 91.9879ZM70.9337 103.688L70.9337 101.528C70.4477 102.32 69.3497 102.95 67.6937 102.95C66.0557 102.95 65.1377 102.194 64.9757 100.7L71.6537 100.7L71.6537 99.8359C71.6537 97.0099 70.0877 95.4079 67.4777 95.3899C64.7597 95.3899 62.8877 97.0639 62.8877 100.052C62.8877 103.148 64.6517 104.786 67.6217 104.768C69.2597 104.786 70.5017 104.192 70.9337 103.688ZM67.4237 97.2259C68.7017 97.2259 69.4937 97.9819 69.5477 99.2059L65.0117 99.2059C65.2277 97.9099 66.0737 97.2259 67.4237 97.2259ZM72.3158 104.588L74.6918 104.588L76.8338 101.186L78.9758 104.588L81.4417 104.588L78.3458 99.8539L81.2257 95.5879L78.8498 95.5879L76.9238 98.6299L74.9978 95.5879L72.5318 95.5879L75.3758 99.9799L72.3158 104.588ZM89.0975 104.588L91.2035 104.588L91.2035 95.5879L89.0975 95.5879L89.0975 99.0979L85.0295 99.0979L85.0295 95.5879L82.9235 95.5879L82.9235 104.588L85.0295 104.588L85.0295 100.952L89.0975 100.952L89.0975 104.588ZM93.7696 104.462L94.0396 104.462L94.0396 104.588L95.7676 104.588L95.8576 104.462L100.088 98.4139L100.088 104.588L102.176 104.588L102.176 95.7319L101.888 95.7319L101.888 95.5879L100.178 95.5879L95.8576 101.69L95.8576 95.5879L93.7696 95.5879L93.7696 104.462ZM104.738 104.588L106.844 104.588L106.844 100.862L108.284 100.862L111.11 104.588L113.666 104.588L110.012 99.8359L113.162 95.5879L110.822 95.5879L108.302 99.0979L106.844 99.0979L106.844 95.5879L104.738 95.5879L104.738 104.588ZM115.343 98.8459C115.955 97.8919 116.909 97.2439 118.565 97.2439C119.771 97.2439 120.383 97.6399 120.383 98.9179L120.383 99.3139L118.349 99.3139C116.135 99.3139 114.641 99.8899 114.641 101.942C114.641 103.706 115.721 104.732 117.539 104.732C118.979 104.732 120.077 104.012 120.509 102.968L120.509 104.588L122.489 104.588L122.489 98.6479C122.489 96.3079 121.193 95.4079 118.565 95.4079C117.017 95.4079 115.937 95.7679 115.343 96.2179L115.343 98.8459ZM118.205 102.842C117.269 102.842 116.765 102.41 116.765 101.726C116.765 100.916 117.359 100.682 118.601 100.682L120.383 100.682L120.383 101.42C120.293 102.032 119.627 102.842 118.205 102.842Z" fill="url(#paint0_linear)"></path> <defs> <linearGradient id="paint0_linear" x1="26" y1="115.979" x2="53.4976" y2="19.3234" gradientUnits="userSpaceOnUse"> <stop stop-color="#515DAD"></stop> <stop offset="0.133039" stop-color="#536CBB"></stop> <stop offset="0.432377" stop-color="#568DDC"></stop> <stop offset="0.555249" stop-color="#5AB0FF"></stop> <stop offset="0.720383" stop-color="#60C5EB"></stop> <stop offset="0.805609" stop-color="#68DFD1"></stop> <stop offset="1" stop-color="#6BEAC7"></stop> </linearGradient> </defs> </svg> 