<?xml version="1.0" encoding="UTF-8"?> <svg xmlns="http://www.w3.org/2000/svg" width="208" height="209" viewBox="0 0 208 209" fill="none"> <path d="M104 208.049C161.438 208.049 208 161.481 208 104.037C208 46.5923 161.438 0.0244141 104 0.0244141C46.5624 0.0244141 0 46.5923 0 104.037C0 161.481 46.5624 208.049 104 208.049Z" fill="white"></path> <path d="M56.1172 105.878C55.3792 107.156 53.8312 108.164 51.6352 108.164C48.7372 108.11 47.2432 106.184 47.2432 103.736C47.2432 101.09 48.9352 99.3076 51.6892 99.3076C53.5792 99.3076 55.1092 100.388 55.8652 101.504V98.3716C55.1272 97.8496 53.6692 97.2376 51.6892 97.2376C47.5132 97.2376 44.8132 99.9196 44.8132 103.718C44.8132 107.786 47.5492 110.216 51.6532 110.234C53.8312 110.234 55.4872 109.406 56.1172 108.65V105.878ZM66.2338 110.036H68.9338L65.7118 105.554C67.2778 104.87 68.0878 103.592 68.0878 101.702C68.0878 98.8576 66.3958 97.4356 62.4178 97.4356H58.4398V110.036H60.6898V106.112H62.4178C62.8138 106.112 63.1738 106.094 63.5338 106.058L66.2338 110.036ZM62.6158 99.5056C64.8118 99.5056 65.7478 100.1 65.7478 101.648C65.7478 103.358 64.6678 104.042 62.5798 104.042H60.6898V99.5056H62.6158ZM82.6876 110.036H84.9376V97.4356H82.2736L78.1336 104.294L73.9576 97.4356H71.1136V110.036H73.3636V100.658L77.5036 107.264H78.6376L82.6876 100.568V110.036ZM88.0011 105.698H92.8251V103.754H88.0011V105.698ZM102.703 109.136V106.976C102.253 107.768 101.263 108.398 99.7687 108.398C98.0767 108.398 97.0687 107.534 97.0687 105.68V105.41C97.0687 103.592 98.0047 102.674 99.7327 102.674C101.047 102.692 102.001 103.34 102.613 104.294V101.666C102.019 101.216 100.939 100.856 99.7327 100.838C96.8707 100.856 94.9267 102.404 94.9267 105.5C94.9267 108.65 96.8347 110.234 99.7147 110.234C101.173 110.234 102.307 109.64 102.703 109.136ZM104.645 109.91H104.915V110.036H106.643L106.733 109.91L110.963 103.862V110.036H113.051V101.18H112.763V101.036H111.053L106.733 107.138V101.036H104.645V109.91ZM122.777 109.136V106.976C122.327 107.768 121.337 108.398 119.843 108.398C118.151 108.398 117.143 107.534 117.143 105.68V105.41C117.143 103.592 118.079 102.674 119.807 102.674C121.121 102.692 122.075 103.34 122.687 104.294V101.666C122.093 101.216 121.013 100.856 119.807 100.838C116.945 100.856 115.001 102.404 115.001 105.5C115.001 108.65 116.909 110.234 119.789 110.234C121.247 110.234 122.381 109.64 122.777 109.136ZM126.946 110.036H129.034V102.89H131.95V101.036H124.066V102.89H126.946V110.036ZM141.117 109.136V106.976C140.631 107.768 139.533 108.398 137.877 108.398C136.239 108.398 135.321 107.642 135.159 106.148H141.837V105.284C141.837 102.458 140.271 100.856 137.661 100.838C134.943 100.838 133.071 102.512 133.071 105.5C133.071 108.596 134.835 110.234 137.805 110.216C139.443 110.234 140.685 109.64 141.117 109.136ZM137.607 102.674C138.885 102.674 139.677 103.43 139.731 104.654H135.195C135.411 103.358 136.257 102.674 137.607 102.674ZM151.747 110.036H153.853V101.036H151.729L148.885 105.248L145.951 101.036H143.773V110.036H145.879V103.97L148.489 107.804H149.155L151.747 103.988V110.036ZM156.628 104.294C157.24 103.34 158.194 102.692 159.85 102.692C161.056 102.692 161.668 103.088 161.668 104.366V104.762H159.634C157.42 104.762 155.926 105.338 155.926 107.39C155.926 109.154 157.006 110.18 158.824 110.18C160.264 110.18 161.362 109.46 161.794 108.416V110.036H163.774V104.096C163.774 101.756 162.478 100.856 159.85 100.856C158.302 100.856 157.222 101.216 156.628 101.666V104.294ZM159.49 108.29C158.554 108.29 158.05 107.858 158.05 107.174C158.05 106.364 158.644 106.13 159.886 106.13H161.668V106.868C161.578 107.48 160.912 108.29 159.49 108.29Z" fill="url(#paint0_linear)"></path> <defs> <linearGradient id="paint0_linear" x1="44" y1="118.231" x2="51.4566" y2="67.079" gradientUnits="userSpaceOnUse"> <stop stop-color="#515DAD"></stop> <stop offset="0.133039" stop-color="#536CBB"></stop> <stop offset="0.432377" stop-color="#568DDC"></stop> <stop offset="0.555249" stop-color="#5AB0FF"></stop> <stop offset="0.720383" stop-color="#60C5EB"></stop> <stop offset="0.805609" stop-color="#68DFD1"></stop> <stop offset="1" stop-color="#6BEAC7"></stop> </linearGradient> </defs> </svg> 