<?xml version="1.0" encoding="UTF-8"?> <svg xmlns="http://www.w3.org/2000/svg" width="472" height="614" viewBox="0 0 472 614" fill="none"> <path d="M0 8.00001C0 3.58173 3.58172 0 8 0H464C468.418 0 472 3.58172 472 8V606C472 610.418 468.418 614 464 614H8.00001C3.58173 614 0 610.418 0 606V8.00001Z" fill="white"></path> <path d="M25.656 35.624C26.64 34.136 28.68 32.672 31.224 32.72C33 32.768 34.392 33.392 34.392 34.952C34.392 36.2 33.648 37.232 31.488 37.232H28.968V39.704H31.512C34.128 39.704 35.232 40.4 35.232 41.888C35.232 43.592 33.6 44.456 31.56 44.48C28.464 44.504 26.28 43.16 25.248 41.456V45.152C26.136 46.16 28.464 47.264 31.512 47.24C36.024 47.216 38.352 44.984 38.352 42.08C38.352 39.872 37.104 38.528 34.512 38.144C36.456 37.448 37.488 36.152 37.488 34.184C37.488 31.232 34.992 29.984 31.224 29.96C28.56 29.96 26.616 30.752 25.656 31.448V35.624ZM41.6014 39.344C42.4174 38.072 43.6894 37.208 45.8974 37.208C47.5054 37.208 48.3214 37.736 48.3214 39.44V39.968H45.6094C42.6574 39.968 40.6654 40.736 40.6654 43.472C40.6654 45.824 42.1054 47.192 44.5294 47.192C46.4494 47.192 47.9134 46.232 48.4894 44.84V47H51.1294V39.08C51.1294 35.96 49.4014 34.76 45.8974 34.76C43.8334 34.76 42.3934 35.24 41.6014 35.84V39.344ZM45.4174 44.672C44.1694 44.672 43.4974 44.096 43.4974 43.184C43.4974 42.104 44.2894 41.792 45.9454 41.792H48.3214V42.776C48.2014 43.592 47.3134 44.672 45.4174 44.672ZM61.6641 47H64.4721V35H59.3601C55.6401 35 53.9601 36.344 53.9601 39.344C53.9601 40.904 54.7281 42.08 56.1441 42.656L53.3601 47H56.4561L58.8801 43.04H61.6641V47ZM59.4321 37.472H61.6641V40.88H58.9041C57.4401 40.88 56.7921 40.328 56.7681 39.344C56.7681 37.952 57.5601 37.472 59.4321 37.472ZM67.8915 47H73.8675C77.0115 47 78.5235 45.752 78.5235 43.448C78.5235 41.408 77.3955 40.712 75.8595 40.52C77.1555 40.208 77.9235 39.224 77.9235 37.784C77.9235 35.984 76.7955 35 73.9395 35H67.8915V47ZM70.6995 44.672V41.864H73.7715C75.0675 41.864 75.7395 42.2 75.7395 43.256C75.7395 44.216 75.0915 44.672 73.6035 44.672H70.6995ZM70.6995 39.848V37.352L73.2915 37.328C74.4915 37.328 75.1155 37.592 75.1155 38.48C75.1155 39.488 74.3715 39.848 73.2675 39.848H70.6995ZM81.0868 47H83.8948V42.032H85.8148L89.5828 47H92.9908L88.1188 40.664L92.3188 35H89.1988L85.8388 39.68H83.8948V35H81.0868V47ZM95.2264 39.344C96.0424 38.072 97.3144 37.208 99.5224 37.208C101.13 37.208 101.946 37.736 101.946 39.44V39.968H99.2344C96.2824 39.968 94.2904 40.736 94.2904 43.472C94.2904 45.824 95.7304 47.192 98.1544 47.192C100.074 47.192 101.538 46.232 102.114 44.84V47H104.754V39.08C104.754 35.96 103.026 34.76 99.5224 34.76C97.4584 34.76 96.0184 35.24 95.2264 35.84V39.344ZM99.0424 44.672C97.7944 44.672 97.1224 44.096 97.1224 43.184C97.1224 42.104 97.9144 41.792 99.5704 41.792H101.946V42.776C101.826 43.592 100.938 44.672 99.0424 44.672ZM126.779 47H130.139V30.2H127.139V42.368L118.043 30.2H114.707V47H117.707V34.832L126.779 47ZM131.555 34.472C131.555 37.088 133.067 38.432 135.563 38.432C138.155 38.432 139.859 37.088 139.859 34.472C139.859 31.76 138.227 30.56 135.899 30.56C133.235 30.56 131.555 31.88 131.555 34.472ZM139.307 39.56H132.251V42.056H139.307V39.56ZM133.859 34.472C133.859 33.392 134.435 32.72 135.731 32.72C137.027 32.72 137.579 33.392 137.579 34.472C137.579 35.648 136.931 36.248 135.779 36.248C134.555 36.248 133.859 35.6 133.859 34.472ZM155.681 30.008C152.177 30.032 149.273 32.384 149.273 38.624C149.273 44.456 151.769 47.216 155.753 47.24C159.257 47.24 162.185 44.888 162.185 38.624C162.185 32.792 159.665 30.008 155.681 30.008ZM152.153 38.624C152.153 34.328 153.401 32.816 155.705 32.816C157.913 32.864 159.305 34.352 159.305 38.624C159.305 42.92 158.057 44.432 155.753 44.432C153.521 44.408 152.153 42.92 152.153 38.624ZM170.564 30.008C167.06 30.032 164.156 32.384 164.156 38.624C164.156 44.456 166.652 47.216 170.636 47.24C174.14 47.24 177.068 44.888 177.068 38.624C177.068 32.792 174.548 30.008 170.564 30.008ZM167.036 38.624C167.036 34.328 168.284 32.816 170.588 32.816C172.796 32.864 174.188 34.352 174.188 38.624C174.188 42.92 172.94 44.432 170.636 44.432C168.404 44.408 167.036 42.92 167.036 38.624ZM185.447 30.008C181.943 30.032 179.039 32.384 179.039 38.624C179.039 44.456 181.535 47.216 185.519 47.24C189.023 47.24 191.951 44.888 191.951 38.624C191.951 32.792 189.431 30.008 185.447 30.008ZM181.919 38.624C181.919 34.328 183.167 32.816 185.471 32.816C187.679 32.864 189.071 34.352 189.071 38.624C189.071 42.92 187.823 44.432 185.519 44.432C183.287 44.408 181.919 42.92 181.919 38.624ZM194.21 47H205.538V44.24H198.602C203.57 40.232 205.25 38 205.25 34.928C205.25 31.904 203.354 30.008 199.754 29.984C197.354 29.984 195.578 30.92 194.762 31.808V35.36C195.938 33.872 197.402 32.888 199.37 32.912C201.218 32.912 202.25 33.872 202.25 35.504C202.25 37.472 201.098 39.056 194.21 44.984V47ZM208.752 31.808V35.36C209.928 33.872 211.392 32.888 213.456 32.864C215.376 32.864 216.288 33.56 216.288 35.048C216.288 36.704 215.064 37.352 212.976 37.352H211.344V39.608H213.48C216.048 39.608 217.008 40.472 217.008 41.96C217.008 43.472 215.76 44.336 213.72 44.336C211.392 44.36 209.76 43.328 208.632 41.816V45.536C209.304 46.184 211.056 47.168 213.696 47.192C217.68 47.168 219.84 45.128 219.84 42.272C219.84 40.016 218.688 38.624 216.432 38.216C218.04 37.544 219.12 36.248 219.12 34.208C219.12 31.52 217.272 30.008 213.864 29.984C211.344 30.032 209.568 30.92 208.752 31.808ZM222.599 41.816V45.536C223.223 46.184 224.831 47.192 227.255 47.192H227.327C230.879 47.192 233.398 45.152 233.398 41.456C233.398 38.36 231.479 36.272 227.783 36.272C227.087 36.272 226.247 36.368 225.839 36.464L226.103 32.96H232.751V30.2H223.727L223.031 39.44C223.823 39.128 224.975 38.792 226.751 38.792C229.031 38.792 230.423 39.632 230.423 41.504C230.423 43.064 229.535 44.264 227.279 44.336C225.143 44.384 223.631 43.328 222.599 41.816Z" fill="#190B25"></path> <path d="M441.214 38L447.367 30.6664C447.47 30.5445 447.383 30.3594 447.224 30.3594H445.353C445.243 30.3594 445.138 30.4086 445.065 30.493L439.991 36.5422L434.917 30.493C434.846 30.4086 434.741 30.3594 434.628 30.3594H432.758C432.599 30.3594 432.512 30.5445 432.615 30.6664L438.767 38L432.615 45.3336C432.592 45.3608 432.577 45.394 432.572 45.4293C432.568 45.4647 432.573 45.5006 432.588 45.533C432.603 45.5653 432.627 45.5926 432.657 45.6117C432.687 45.6308 432.722 45.6408 432.758 45.6406H434.628C434.738 45.6406 434.844 45.5914 434.917 45.507L439.991 39.4578L445.065 45.507C445.135 45.5914 445.241 45.6406 445.353 45.6406H447.224C447.383 45.6406 447.47 45.4555 447.367 45.3336L441.214 38Z" fill="#8C8C8C"></path> <path d="M0 70H452V71H0V70Z" fill="#F0F0F0"></path> <path d="M33.856 109H35.296V97.8H33.856V102.6H27.04V97.8H25.6V109H27.04V103.88H33.856V109ZM41.5146 100.84C39.2586 100.84 37.5626 102.2 37.5626 104.968C37.5626 107.768 39.0186 109.16 41.5466 109.16C43.1146 109.16 44.0906 108.68 44.4906 108.184V106.632C44.0586 107.4 43.0826 108.008 41.5466 108.008C39.9786 108.008 39.0506 107.208 38.9226 105.48H45.0506V104.616C45.0506 102.248 43.7226 100.84 41.5146 100.84ZM41.5146 101.992C42.7786 101.992 43.7226 102.792 43.7226 104.328V104.344H38.9386C39.1146 102.792 40.0106 101.992 41.5146 101.992ZM51.155 111.88H52.483V107.768C52.931 108.52 53.875 109.176 55.219 109.176C57.507 109.176 58.867 107.976 58.867 104.824C58.867 102.024 57.507 100.84 55.379 100.84C53.763 100.84 52.819 101.608 52.419 102.536V101H51.155V111.88ZM52.483 104.568C52.515 102.968 53.363 102.04 55.027 102.04C56.531 102.04 57.523 102.76 57.523 104.904C57.523 107.128 56.771 107.976 55.011 107.976C53.507 107.976 52.483 107 52.483 105.336V104.568ZM60.9393 103.496C61.4833 102.6 62.4113 101.992 63.6593 101.992C64.8113 101.992 65.6113 102.376 65.6113 103.736V104.376H63.7073C61.5793 104.376 60.3313 104.888 60.3313 106.648C60.3313 108.28 61.3873 109.128 62.9713 109.128C64.2352 109.128 65.2593 108.52 65.6753 107.64V109H66.9393V103.72C66.9393 101.528 65.7073 100.84 63.6593 100.84C62.4273 100.84 61.4673 101.208 60.9393 101.608V103.496ZM63.3073 107.896C62.2353 107.896 61.6913 107.352 61.6913 106.568C61.6913 105.656 62.3153 105.432 63.7552 105.432H65.6113V106.296C65.5313 106.84 64.9393 107.896 63.3073 107.896ZM76.0938 96.664C75.4378 97 73.5178 97.096 72.6858 97.208C69.9018 97.592 68.8618 99.432 68.8618 103.848C68.8618 107.544 70.1578 109.16 72.8938 109.16C75.4218 109.16 76.8298 107.72 76.8298 104.888C76.8298 101.992 75.3578 101 73.2618 101C71.9018 101 70.7498 101.592 70.0138 102.728C70.2378 100.152 70.7818 98.664 73.6938 98.44C75.0058 98.344 75.7738 98.28 76.0938 98.104V96.664ZM70.2378 104.792C70.2378 103.144 71.2778 102.216 72.9098 102.216C74.4618 102.216 75.4218 103 75.4218 105.048C75.4218 107.112 74.3178 107.896 72.8298 107.896C71.1178 107.896 70.2378 106.68 70.2378 104.792ZM78.172 104.968C78.172 107.768 79.612 109.144 82.14 109.16C84.396 109.16 86.092 107.8 86.092 105.032C86.092 102.248 84.636 100.856 82.124 100.84C79.868 100.84 78.172 102.2 78.172 104.968ZM79.516 104.968C79.516 103 80.444 101.992 82.124 101.992C83.804 102.008 84.748 102.952 84.748 104.984V105.032C84.748 107 83.82 108.008 82.14 108.008C80.444 108.008 79.516 107.064 79.516 105.016V104.968ZM89.8376 109H91.1656V102.184H93.8216V101H87.1656V102.184H89.8376V109ZM95.6268 103.496C96.1708 102.6 97.0988 101.992 98.3468 101.992C99.4988 101.992 100.299 102.376 100.299 103.736V104.376H98.3948C96.2668 104.376 95.0188 104.888 95.0188 106.648C95.0188 108.28 96.0748 109.128 97.6588 109.128C98.9227 109.128 99.9468 108.52 100.363 107.64V109H101.627V103.72C101.627 101.528 100.395 100.84 98.3468 100.84C97.1148 100.84 96.1548 101.208 95.6268 101.608V103.496ZM97.9948 107.896C96.9228 107.896 96.3788 107.352 96.3788 106.568C96.3788 105.656 97.0028 105.432 98.4427 105.432H100.299V106.296C100.219 106.84 99.6268 107.896 97.9948 107.896ZM107.405 100.84C105.149 100.84 103.453 102.2 103.453 104.968C103.453 107.768 104.909 109.16 107.437 109.16C109.005 109.16 109.981 108.68 110.381 108.184V106.632C109.949 107.4 108.973 108.008 107.437 108.008C105.869 108.008 104.941 107.208 104.813 105.48H110.941V104.616C110.941 102.248 109.613 100.84 107.405 100.84ZM107.405 101.992C108.669 101.992 109.613 102.792 109.613 104.328V104.344H104.829C105.005 102.792 105.901 101.992 107.405 101.992ZM114.681 109H116.009V102.184H118.665V101H112.009V102.184H114.681V109ZM130.483 108.184V106.632C130.083 107.4 129.203 108.008 127.875 108.008C126.179 108.008 125.235 107.064 125.235 105.016V104.968C125.235 103 126.163 101.992 127.843 101.992C128.931 101.992 129.859 102.6 130.403 103.496V101.608C129.875 101.208 128.915 100.84 127.843 100.84C125.587 100.84 123.891 102.2 123.891 104.968C123.891 107.768 125.347 109.16 127.875 109.16C129.235 109.16 130.115 108.68 130.483 108.184ZM132.483 109H135.987C138.163 109 139.171 108.216 139.171 106.632C139.171 105.224 138.419 104.808 137.395 104.68C138.259 104.472 138.771 103.816 138.771 102.808C138.771 101.656 138.083 101 136.051 101H132.483V109ZM133.811 107.848V105.432H136.211C137.219 105.432 137.843 105.688 137.843 106.648C137.843 107.448 137.283 107.848 135.971 107.848H133.811ZM133.811 104.296V102.168L135.891 102.152C136.899 102.152 137.427 102.328 137.427 103.112C137.427 103.992 136.771 104.296 135.779 104.296H133.811ZM144.515 100.84C142.259 100.84 140.563 102.2 140.563 104.968C140.563 107.768 142.019 109.16 144.547 109.16C146.115 109.16 147.091 108.68 147.491 108.184V106.632C147.059 107.4 146.083 108.008 144.547 108.008C142.979 108.008 142.051 107.208 141.923 105.48H148.051V104.616C148.051 102.248 146.723 100.84 144.515 100.84ZM144.515 101.992C145.779 101.992 146.723 102.792 146.723 104.328V104.344H141.939C142.115 102.792 143.011 101.992 144.515 101.992ZM151.791 109H153.119V102.184H155.775V101H149.119V102.184H151.791V109ZM167.592 108.184V106.632C167.192 107.4 166.312 108.008 164.984 108.008C163.288 108.008 162.344 107.064 162.344 105.016V104.968C162.344 103 163.272 101.992 164.952 101.992C166.04 101.992 166.968 102.6 167.512 103.496V101.608C166.984 101.208 166.024 100.84 164.952 100.84C162.696 100.84 161 102.2 161 104.968C161 107.768 162.456 109.16 164.984 109.16C166.344 109.16 167.224 108.68 167.592 108.184ZM175.941 109H177.269V97.688H176.309L173.429 99.544V101L175.941 99.416V109ZM192 109H193.328V101H191.968L189.04 105.24L186.064 101H184.624V109H185.952V102.952L188.688 106.952H189.28L192 102.952V109ZM196.017 103.496C196.561 102.6 197.489 101.992 198.737 101.992C199.889 101.992 200.689 102.376 200.689 103.736V104.376H198.785C196.657 104.376 195.409 104.888 195.409 106.648C195.409 108.28 196.465 109.128 198.049 109.128C199.313 109.128 200.337 108.52 200.753 107.64V109H202.017V103.72C202.017 101.528 200.785 100.84 198.737 100.84C197.505 100.84 196.545 101.208 196.017 101.608V103.496ZM198.385 107.896C197.313 107.896 196.769 107.352 196.769 106.568C196.769 105.656 197.393 105.432 198.833 105.432H200.689V106.296C200.609 106.84 200.017 107.896 198.385 107.896ZM204.452 111.88H205.78V107.768C206.228 108.52 207.172 109.176 208.516 109.176C210.804 109.176 212.164 107.976 212.164 104.824C212.164 102.024 210.804 100.84 208.676 100.84C207.06 100.84 206.116 101.608 205.716 102.536V101H204.452V111.88ZM205.78 104.568C205.812 102.968 206.66 102.04 208.324 102.04C209.828 102.04 210.82 102.76 210.82 104.904C210.82 107.128 210.068 107.976 208.308 107.976C206.804 107.976 205.78 107 205.78 105.336V104.568ZM215.9 109H217.228V102.184H219.884V101H213.228V102.184H215.9V109ZM221.689 103.496C222.233 102.6 223.161 101.992 224.409 101.992C225.561 101.992 226.361 102.376 226.361 103.736V104.376H224.457C222.329 104.376 221.081 104.888 221.081 106.648C221.081 108.28 222.137 109.128 223.721 109.128C224.985 109.128 226.009 108.52 226.425 107.64V109H227.689V103.72C227.689 101.528 226.457 100.84 224.409 100.84C223.177 100.84 222.217 101.208 221.689 101.608V103.496ZM224.057 107.896C222.985 107.896 222.441 107.352 222.441 106.568C222.441 105.656 223.065 105.432 224.505 105.432H226.361V106.296C226.281 106.84 225.689 107.896 224.057 107.896ZM229.436 110.68L230.22 111.624C231.196 111.432 232.54 110.392 232.54 108.68C232.54 108.056 232.412 107.56 232.076 107.304C231.916 107.176 231.676 107.096 231.356 107.096C230.556 107.096 230.316 107.56 230.316 108.136C230.316 108.696 230.556 109.16 231.356 109.16H231.388C231.308 109.848 230.604 110.552 229.436 110.68ZM239.468 109H240.796V105.48H242.236L245.116 109H246.796L243.34 104.776L246.267 101H244.748L242.236 104.344H240.796V101H239.468V109ZM247.547 104.968C247.547 107.768 248.987 109.144 251.515 109.16C253.771 109.16 255.467 107.8 255.467 105.032C255.467 102.248 254.011 100.856 251.499 100.84C249.243 100.84 247.547 102.2 247.547 104.968ZM248.891 104.968C248.891 103 249.819 101.992 251.499 101.992C253.179 102.008 254.123 102.952 254.123 104.984V105.032C254.123 107 253.195 108.008 251.515 108.008C249.819 108.008 248.891 107.064 248.891 105.016V104.968ZM257.421 109H258.749V102.184H262.765V101H257.421V109ZM263.318 107.736V111.08H264.582V109H270.838V111.08H272.102V107.736H270.806V101H265.174V101.912C265.174 104.92 264.822 106.552 264.278 107.736H263.318ZM266.422 102.84L266.438 102.184H269.478V107.736H265.59C266.166 106.376 266.374 104.888 266.422 102.84ZM273.892 103.496C274.436 102.6 275.364 101.992 276.612 101.992C277.764 101.992 278.564 102.376 278.564 103.736V104.376H276.66C274.532 104.376 273.284 104.888 273.284 106.648C273.284 108.28 274.34 109.128 275.924 109.128C277.188 109.128 278.212 108.52 278.628 107.64V109H279.892V103.72C279.892 101.528 278.66 100.84 276.612 100.84C275.38 100.84 274.42 101.208 273.892 101.608V103.496ZM276.26 107.896C275.188 107.896 274.644 107.352 274.644 106.568C274.644 105.656 275.268 105.432 276.708 105.432H278.564V106.296C278.484 106.84 277.892 107.896 276.26 107.896ZM291.907 109H293.235V101H286.483V109H287.811V102.184H291.907V109ZM295.188 104.968C295.188 107.768 296.628 109.144 299.156 109.16C301.412 109.16 303.108 107.8 303.108 105.032C303.108 102.248 301.652 100.856 299.14 100.84C296.884 100.84 295.188 102.2 295.188 104.968ZM296.532 104.968C296.532 103 297.46 101.992 299.14 101.992C300.82 102.008 301.764 102.952 301.764 104.984V105.032C301.764 107 300.836 108.008 299.156 108.008C297.46 108.008 296.532 107.064 296.532 105.016V104.968ZM309.925 109H311.253V101H309.925V104.92C309.381 105.16 308.645 105.304 307.941 105.304C306.629 105.304 305.989 104.712 305.989 103.576V101H304.661V103.72C304.661 105.64 305.813 106.504 307.845 106.504C308.549 106.504 309.365 106.36 309.925 106.056V109ZM314.995 109L315.139 108.808L319.491 103V109H320.819V101H319.651L315.139 106.952V101H313.811V109H314.995ZM328.926 109H330.254V101H328.926V104.344H324.702V101H323.374V109H324.702V105.544H328.926V109ZM333.995 109L334.139 108.808L338.491 103V109H339.819V101H338.651L334.139 106.952V101H332.811V109H333.995ZM344.166 109H345.494V102.184H348.15V101H341.494V102.184H344.166V109ZM353.171 100.84C350.915 100.84 349.219 102.2 349.219 104.968C349.219 107.768 350.675 109.16 353.203 109.16C354.771 109.16 355.747 108.68 356.147 108.184V106.632C355.715 107.4 354.739 108.008 353.203 108.008C351.635 108.008 350.707 107.208 350.579 105.48H356.707V104.616C356.707 102.248 355.379 100.84 353.171 100.84ZM353.171 101.992C354.435 101.992 355.379 102.792 355.379 104.328V104.344H350.595C350.771 102.792 351.667 101.992 353.171 101.992ZM358.335 98.872V100.52C359.119 99.592 360.031 98.968 361.407 98.968C362.703 98.968 363.535 99.528 363.535 100.68C363.535 103.08 360.239 102.632 360.239 105.32H361.519C361.519 103.576 364.879 103.704 364.879 100.68C364.879 98.632 363.599 97.768 361.647 97.688C359.967 97.64 358.879 98.28 358.335 98.872ZM359.855 108.136C359.855 108.696 360.095 109.16 360.895 109.16C361.711 109.16 361.951 108.696 361.951 108.136C361.951 107.56 361.711 107.096 360.895 107.096C360.095 107.096 359.855 107.56 359.855 108.136Z" fill="#190B25"></path> <path d="M27.456 169.152H29.232L33.296 174H35.856L30.896 168.128L35.168 162.8H32.736L29.136 167.504H27.456V162.8H25.456V174H27.456V169.152ZM42.695 174H44.551V166H38.439L38.375 167.744C38.263 171.92 37.703 172.144 37.015 172.144C36.887 172.144 36.743 172.128 36.599 172.08V174.016C36.759 174.064 37.079 174.096 37.383 174.096C38.631 174.096 39.847 173.648 40.055 168.656L40.103 167.648H42.695V174ZM47.0311 168.896C47.5751 168.048 48.4231 167.472 49.8951 167.472C50.9671 167.472 51.5111 167.824 51.5111 168.96V169.312H49.7031C47.7351 169.312 46.4071 169.824 46.4071 171.648C46.4071 173.216 47.3671 174.128 48.9831 174.128C50.2631 174.128 51.2391 173.488 51.6231 172.56V174H53.3831V168.72C53.3831 166.64 52.2311 165.84 49.8951 165.84C48.5191 165.84 47.5591 166.16 47.0311 166.56V168.896ZM49.5751 172.448C48.7431 172.448 48.2951 172.064 48.2951 171.456C48.2951 170.736 48.8231 170.528 49.9271 170.528H51.5111V171.184C51.4311 171.728 50.8391 172.448 49.5751 172.448ZM61.9103 173.2V171.28C61.5103 171.984 60.6303 172.544 59.3023 172.544C57.7983 172.544 56.9023 171.776 56.9023 170.128V169.888C56.9023 168.272 57.7343 167.456 59.2703 167.456C60.4383 167.472 61.2863 168.048 61.8303 168.896V166.56C61.3023 166.16 60.3423 165.84 59.2703 165.824C56.7263 165.84 54.9983 167.216 54.9983 169.968C54.9983 172.768 56.6943 174.176 59.2543 174.176C60.5503 174.176 61.5583 173.648 61.9103 173.2ZM69.7853 173.2V171.28C69.3853 171.984 68.5053 172.544 67.1773 172.544C65.6733 172.544 64.7773 171.776 64.7773 170.128V169.888C64.7773 168.272 65.6093 167.456 67.1453 167.456C68.3133 167.472 69.1613 168.048 69.7053 168.896V166.56C69.1773 166.16 68.2173 165.84 67.1453 165.824C64.6013 165.84 62.8733 167.216 62.8733 169.968C62.8733 172.768 64.5693 174.176 67.1293 174.176C68.4253 174.176 69.4333 173.648 69.7853 173.2ZM71.5114 173.888H71.7514V174H73.2874L73.3674 173.888L77.1274 168.512V174H78.9834V166.128H78.7274V166H77.2074L73.3674 171.424V166H71.5114V173.888ZM84.973 162V166H84.621C82.349 166 80.717 167.264 80.717 170C80.717 172.912 82.381 174 84.669 174H84.973V177.088H86.845V174H87.197C89.469 174 91.101 172.736 91.101 170C91.101 167.088 89.437 166 87.149 166H86.845V162H84.973ZM82.573 169.92C82.573 168.288 83.389 167.648 84.701 167.648H84.973V172.352H84.685C83.421 172.352 82.573 171.824 82.573 169.92ZM87.133 167.648C88.381 167.648 89.229 168.176 89.229 170.08C89.229 171.712 88.413 172.352 87.101 172.352H86.845V167.648H87.133ZM92.8395 173.888H93.0795V174H94.6155L94.6955 173.888L98.4555 168.512V174H100.312V166.128H100.056V166H98.5355L94.6955 171.424V166H92.8395V173.888ZM102.589 174H104.461V170.688H105.741L108.253 174H110.525L107.277 169.776L110.077 166H107.997L105.757 169.12H104.461V166H102.589V174ZM112.016 168.896C112.56 168.048 113.408 167.472 114.88 167.472C115.952 167.472 116.496 167.824 116.496 168.96V169.312H114.688C112.72 169.312 111.392 169.824 111.392 171.648C111.392 173.216 112.352 174.128 113.968 174.128C115.248 174.128 116.224 173.488 116.608 172.56V174H118.368V168.72C118.368 166.64 117.216 165.84 114.88 165.84C113.504 165.84 112.544 166.16 112.016 166.56V168.896ZM114.56 172.448C113.728 172.448 113.28 172.064 113.28 171.456C113.28 170.736 113.808 170.528 114.911 170.528H116.496V171.184C116.416 171.728 115.824 172.448 114.56 172.448ZM122.351 174H124.207V167.648H126.799V166H119.791V167.648H122.351V174ZM131.907 174.176C134.387 174.16 136.067 172.8 136.067 170.032C136.067 167.248 134.451 165.84 131.971 165.824C129.475 165.824 127.795 167.2 127.795 169.968C127.795 172.768 129.411 174.176 131.907 174.176ZM129.699 169.968C129.699 168.288 130.483 167.472 131.907 167.456C133.315 167.456 134.163 168.224 134.163 169.984V170.032C134.163 171.728 133.363 172.544 131.939 172.544C130.531 172.544 129.699 171.776 129.699 170.016V169.968ZM137.792 177.088H139.664V172.784C140.064 173.536 140.944 174.176 142.224 174.176C144.416 174.176 145.84 172.976 145.84 169.824C145.84 167.024 144.416 165.84 142.384 165.84C140.688 165.84 139.84 166.768 139.552 167.664V166H137.792V177.088ZM139.664 169.664C139.696 168.32 140.368 167.504 141.84 167.504C143.12 167.504 143.968 168.144 143.968 169.904C143.968 171.792 143.312 172.528 141.808 172.528C140.496 172.528 139.664 171.712 139.664 170.272V169.664Z" fill="#190B25"></path> <path d="M28.718 198.2H26.898L27.43 200.454L25.456 199.236L24.896 200.972L27.206 201.168L25.442 202.666L26.912 203.744L27.808 201.602L28.704 203.744L30.174 202.666L28.41 201.154L30.72 200.972L30.16 199.236L28.186 200.44L28.718 198.2Z" fill="#FF4D4F"></path> <path d="M42.1292 208H43.3892V198.2H42.0032L38.2932 204.15L34.5552 198.2H33.0152V208H34.2752V200.16L37.9852 205.9H38.5032L42.1292 200.09V208ZM48.8409 200.86C46.8669 200.86 45.3829 202.05 45.3829 204.472C45.3829 206.922 46.6569 208.14 48.8689 208.14C50.2409 208.14 51.0949 207.72 51.4449 207.286V205.928C51.0669 206.6 50.2129 207.132 48.8689 207.132C47.4969 207.132 46.6849 206.432 46.5729 204.92H51.9349V204.164C51.9349 202.092 50.7729 200.86 48.8409 200.86ZM48.8409 201.868C49.9469 201.868 50.7729 202.568 50.7729 203.912V203.926H46.5869C46.7409 202.568 47.5249 201.868 48.8409 201.868ZM58.8755 207.286V205.928C58.5255 206.6 57.7555 207.132 56.5935 207.132C55.1095 207.132 54.2835 206.306 54.2835 204.514V204.472C54.2835 202.75 55.0955 201.868 56.5655 201.868C57.5175 201.868 58.3295 202.4 58.8055 203.184V201.532C58.3435 201.182 57.5035 200.86 56.5655 200.86C54.5915 200.86 53.1075 202.05 53.1075 204.472C53.1075 206.922 54.3815 208.14 56.5935 208.14C57.7835 208.14 58.5535 207.72 58.8755 207.286ZM62.3989 208H63.5609V202.036H65.8849V201H60.0609V202.036H62.3989V208ZM66.8204 204.472C66.8204 206.922 68.0804 208.126 70.2924 208.14C72.2664 208.14 73.7504 206.95 73.7504 204.528C73.7504 202.092 72.4764 200.874 70.2784 200.86C68.3044 200.86 66.8204 202.05 66.8204 204.472ZM67.9964 204.472C67.9964 202.75 68.8084 201.868 70.2784 201.868C71.7484 201.882 72.5744 202.708 72.5744 204.486V204.528C72.5744 206.25 71.7624 207.132 70.2924 207.132C68.8084 207.132 67.9964 206.306 67.9964 204.514V204.472ZM80.1326 208L80.2586 207.832L84.0666 202.75V208H85.2286V201H84.2066L80.2586 206.208V201H79.0966V208H80.1326ZM92.3218 208H93.4838V201H92.3218V203.926H88.6258V201H87.4638V208H88.6258V204.976H92.3218V208ZM95.7216 208H101.588V209.82H102.694V206.894H101.588V201H100.426V206.894H96.8836V201H95.7216V208ZM105.179 208L105.305 207.832L109.113 202.75V208H110.275V201H109.253L105.305 206.208V201H104.143V208H105.179ZM111.601 206.894V209.82H112.707V208H118.181V209.82H119.287V206.894H118.153V201H113.225V201.798C113.225 204.43 112.917 205.858 112.441 206.894H111.601ZM114.317 202.61L114.331 202.036H116.991V206.894H113.589C114.093 205.704 114.275 204.402 114.317 202.61ZM123.667 200.86C121.693 200.86 120.209 202.05 120.209 204.472C120.209 206.922 121.483 208.14 123.695 208.14C125.067 208.14 125.921 207.72 126.271 207.286V205.928C125.893 206.6 125.039 207.132 123.695 207.132C122.323 207.132 121.511 206.432 121.399 204.92H126.761V204.164C126.761 202.092 125.599 200.86 123.667 200.86ZM123.667 201.868C124.773 201.868 125.599 202.568 125.599 203.912V203.926H121.413C121.567 202.568 122.351 201.868 123.667 201.868ZM133.324 208H134.486V201H133.324V203.926H129.628V201H128.466V208H129.628V204.976H133.324V208ZM138.292 208H139.454V202.036H141.778V201H135.954V202.036H138.292V208ZM143.357 203.184C143.833 202.4 144.645 201.868 145.737 201.868C146.745 201.868 147.445 202.204 147.445 203.394V203.954H145.779C143.917 203.954 142.825 204.402 142.825 205.942C142.825 207.37 143.749 208.112 145.135 208.112C146.241 208.112 147.137 207.58 147.501 206.81V208H148.607V203.38C148.607 201.462 147.529 200.86 145.737 200.86C144.659 200.86 143.819 201.182 143.357 201.532V203.184ZM145.429 207.034C144.491 207.034 144.015 206.558 144.015 205.872C144.015 205.074 144.561 204.878 145.821 204.878H147.445V205.634C147.375 206.11 146.857 207.034 145.429 207.034Z" fill="#8C8C8C"></path> <rect x="24.5" y="222.5" width="199" height="39" rx="3.5" fill="#F0F0F0"></rect> <path d="M45.84 248H47.28V236.8H37.6V248H39.04V238.08H45.84V248ZM49.547 243.968C49.547 246.768 50.987 248.144 53.515 248.16C55.771 248.16 57.467 246.8 57.467 244.032C57.467 241.248 56.011 239.856 53.499 239.84C51.243 239.84 49.547 241.2 49.547 243.968ZM50.891 243.968C50.891 242 51.819 240.992 53.499 240.992C55.179 241.008 56.123 241.952 56.123 243.984V244.032C56.123 246 55.195 247.008 53.515 247.008C51.819 247.008 50.891 246.064 50.891 244.016V243.968ZM58.2244 246.736V250.08H59.4884V248H65.7444V250.08H67.0084V246.736H65.7124V240H60.0804V240.912C60.0804 243.92 59.7284 245.552 59.1844 246.736H58.2244ZM61.3284 241.84L61.3444 241.184H64.3844V246.736H60.4964C61.0724 245.376 61.2804 243.888 61.3284 241.84ZM69.7144 248H72.6744C75.1864 248 76.1784 247.248 76.1944 245.184C76.1944 243.088 75.0584 242.576 72.8824 242.576H71.0424V240H67.6344V241.184H69.7144V248ZM72.6584 246.816H71.0424V243.76H72.7384C74.3544 243.76 74.8504 243.984 74.8664 245.184C74.8504 246.496 74.1784 246.816 72.6584 246.816ZM81.4521 239.84C79.1961 239.84 77.5001 241.2 77.5001 243.968C77.5001 246.768 78.9561 248.16 81.4841 248.16C83.0521 248.16 84.0281 247.68 84.4281 247.184V245.632C83.9961 246.4 83.0201 247.008 81.4841 247.008C79.9161 247.008 78.9881 246.208 78.8601 244.48H84.9881V243.616C84.9881 241.248 83.6601 239.84 81.4521 239.84ZM81.4521 240.992C82.7161 240.992 83.6601 241.792 83.6601 243.328V243.344H78.8761C79.0521 241.792 79.9481 240.992 81.4521 240.992ZM86.3 247.184C86.716 247.68 87.74 248.16 89.228 248.16C91.004 248.16 92.46 247.376 92.46 245.568C92.46 244.512 91.884 243.952 90.828 243.744C91.612 243.376 92.06 242.928 92.06 241.92C92.06 240.656 91.372 239.84 89.34 239.84H89.308C88.076 239.84 86.988 240.208 86.38 240.608V242.496C87.004 241.6 88.06 240.992 89.308 240.992C90.332 241.024 90.716 241.408 90.716 242.16C90.716 243.056 89.996 243.44 88.988 243.44H88.028V244.496H89.228C90.476 244.496 91.132 244.8 91.132 245.648C91.132 246.544 90.332 246.992 89.228 247.008C87.772 247.008 86.748 246.4 86.3 245.632V247.184ZM93.4275 246.736V250.08H94.6915V248H100.948V250.08H102.212V246.736H100.916V240H95.2835V240.912C95.2835 243.92 94.9315 245.552 94.3875 246.736H93.4275ZM96.5315 241.84L96.5475 241.184H99.5875V246.736H95.6995C96.2755 245.376 96.4835 243.888 96.5315 241.84Z" fill="#190B25"></path> <path fill-rule="evenodd" clip-rule="evenodd" d="M202.441 240.131C202.363 240.053 202.363 239.927 202.441 239.848L203.15 239.141C203.228 239.063 203.354 239.063 203.432 239.141L206.3 242.005L209.167 239.141C209.245 239.063 209.372 239.063 209.45 239.141L210.158 239.848C210.236 239.927 210.236 240.053 210.158 240.131L206.441 243.844C206.363 243.922 206.237 243.922 206.158 243.844L202.441 240.131Z" fill="#190B25"></path> <rect x="24.5" y="222.5" width="199" height="39" rx="3.5" stroke="#BFBFBF"></rect> <path d="M252.718 198.2H250.898L251.43 200.454L249.456 199.236L248.896 200.972L251.206 201.168L249.442 202.666L250.912 203.744L251.808 201.602L252.704 203.744L254.174 202.666L252.41 201.154L254.72 200.972L254.16 199.236L252.186 200.44L252.718 198.2Z" fill="#FF4D4F"></path> <path d="M264.043 198.2H255.741V199.32H259.269V208H260.529V199.32H264.043V198.2ZM265.359 208L265.485 207.832L269.293 202.75V208H270.455V201H269.433L265.485 206.208V201H264.323V208H265.359ZM277.436 208H278.598V201H272.69V208H273.852V202.036H277.436V208ZM284.475 210.52H285.637V206.922C286.029 207.58 286.855 208.154 288.031 208.154C290.033 208.154 291.223 207.104 291.223 204.346C291.223 201.896 290.033 200.86 288.171 200.86C286.757 200.86 285.931 201.532 285.581 202.344V201H284.475V210.52ZM285.637 204.122C285.665 202.722 286.407 201.91 287.863 201.91C289.179 201.91 290.047 202.54 290.047 204.416C290.047 206.362 289.389 207.104 287.849 207.104C286.533 207.104 285.637 206.25 285.637 204.794V204.122ZM293.037 203.184C293.513 202.4 294.325 201.868 295.417 201.868C296.425 201.868 297.125 202.204 297.125 203.394V203.954H295.459C293.597 203.954 292.505 204.402 292.505 205.942C292.505 207.37 293.429 208.112 294.815 208.112C295.921 208.112 296.817 207.58 297.181 206.81V208H298.287V203.38C298.287 201.462 297.209 200.86 295.417 200.86C294.339 200.86 293.499 201.182 293.037 201.532V203.184ZM295.109 207.034C294.171 207.034 293.695 206.558 293.695 205.872C293.695 205.074 294.241 204.878 295.501 204.878H297.125V205.634C297.055 206.11 296.537 207.034 295.109 207.034ZM306.297 197.206C305.723 197.5 304.043 197.584 303.315 197.682C300.879 198.018 299.969 199.628 299.969 203.492C299.969 206.726 301.103 208.14 303.497 208.14C305.709 208.14 306.941 206.88 306.941 204.402C306.941 201.868 305.653 201 303.819 201C302.629 201 301.621 201.518 300.977 202.512C301.173 200.258 301.649 198.956 304.197 198.76C305.345 198.676 306.017 198.62 306.297 198.466V197.206ZM301.173 204.318C301.173 202.876 302.083 202.064 303.511 202.064C304.869 202.064 305.709 202.75 305.709 204.542C305.709 206.348 304.743 207.034 303.441 207.034C301.943 207.034 301.173 205.97 301.173 204.318ZM308.115 204.472C308.115 206.922 309.375 208.126 311.587 208.14C313.561 208.14 315.045 206.95 315.045 204.528C315.045 202.092 313.771 200.874 311.573 200.86C309.599 200.86 308.115 202.05 308.115 204.472ZM309.291 204.472C309.291 202.75 310.103 201.868 311.573 201.868C313.043 201.882 313.869 202.708 313.869 204.486V204.528C313.869 206.25 313.057 207.132 311.587 207.132C310.103 207.132 309.291 206.306 309.291 204.514V204.472ZM318.323 208H319.485V202.036H321.809V201H315.985V202.036H318.323V208Z" fill="#8C8C8C"></path> <rect x="248.5" y="222.5" width="199" height="39" rx="3.5" fill="#F0F0F0"></rect> <path d="M260.976 240.032C261.632 238.976 263.104 237.92 264.88 237.92C267.44 237.936 268.912 239.456 269.2 241.6H263.152V242.88H269.232C269.056 245.296 267.456 246.848 264.976 246.88C262.896 246.88 261.456 245.808 260.816 244.624V246.704C261.392 247.376 262.896 248.16 264.896 248.16C268.544 248.16 270.752 245.728 270.752 242.416C270.752 238.848 268.496 236.64 264.88 236.64C262.96 236.656 261.536 237.28 260.976 237.776V240.032ZM278.027 248H279.355V240H273.723L273.691 241.104C273.531 246.416 272.907 246.64 272.091 246.64C271.979 246.64 271.835 246.624 271.691 246.592V248.016C271.851 248.064 272.075 248.096 272.331 248.096C273.499 248.096 274.699 247.76 274.907 241.792L274.923 241.184H278.027V248ZM285.265 239.84C283.009 239.84 281.313 241.2 281.313 243.968C281.313 246.768 282.769 248.16 285.297 248.16C286.865 248.16 287.841 247.68 288.241 247.184V245.632C287.809 246.4 286.833 247.008 285.297 247.008C283.729 247.008 282.801 246.208 282.673 244.48H288.801V243.616C288.801 241.248 287.473 239.84 285.265 239.84ZM285.265 240.992C286.529 240.992 287.473 241.792 287.473 243.328V243.344H282.689C282.865 241.792 283.761 240.992 285.265 240.992ZM290.749 248H292.077V244.48H293.517L296.397 248H298.077L294.621 243.776L297.549 240H296.029L293.517 243.344H292.077V240H290.749V248ZM301.619 248H302.947V241.184H305.603V240H298.947V241.184H301.619V248ZM307.28 250.88H308.608V246.768C309.056 247.52 310 248.176 311.344 248.176C313.632 248.176 314.992 246.976 314.992 243.824C314.992 241.024 313.632 239.84 311.504 239.84C309.888 239.84 308.944 240.608 308.544 241.536V240H307.28V250.88ZM308.608 243.568C308.64 241.968 309.488 241.04 311.152 241.04C312.656 241.04 313.648 241.76 313.648 243.904C313.648 246.128 312.896 246.976 311.136 246.976C309.632 246.976 308.608 246 308.608 244.336V243.568ZM318.12 248L318.264 247.808L322.616 242V248H323.944V240H322.776L318.264 245.952V240H316.936V248H318.12ZM326.499 248H327.827V244.48H329.267L332.147 248H333.827L330.371 243.776L333.299 240H331.779L329.267 243.344H327.827V240H326.499V248ZM335.549 242.496C336.093 241.6 337.021 240.992 338.269 240.992C339.421 240.992 340.221 241.376 340.221 242.736V243.376H338.317C336.189 243.376 334.941 243.888 334.941 245.648C334.941 247.28 335.997 248.128 337.581 248.128C338.845 248.128 339.869 247.52 340.285 246.64V248H341.549V242.72C341.549 240.528 340.317 239.84 338.269 239.84C337.037 239.84 336.077 240.208 335.549 240.608V242.496ZM337.917 246.896C336.845 246.896 336.301 246.352 336.301 245.568C336.301 244.656 336.925 244.432 338.365 244.432H340.221V245.296C340.141 245.84 339.549 246.896 337.917 246.896Z" fill="#190B25"></path> <path fill-rule="evenodd" clip-rule="evenodd" d="M426.441 240.131C426.363 240.053 426.363 239.927 426.441 239.848L427.15 239.141C427.228 239.063 427.354 239.063 427.432 239.141L430.3 242.005L433.167 239.141C433.245 239.063 433.372 239.063 433.45 239.141L434.158 239.848C434.236 239.927 434.236 240.053 434.158 240.131L430.441 243.844C430.363 243.922 430.237 243.922 430.158 243.844L426.441 240.131Z" fill="#190B25"></path> <rect x="248.5" y="222.5" width="199" height="39" rx="3.5" stroke="#BFBFBF"></rect> <path d="M28.718 328.2H26.898L27.43 330.454L25.456 329.236L24.896 330.972L27.206 331.168L25.442 332.666L26.912 333.744L27.808 331.602L28.704 333.744L30.174 332.666L28.41 331.154L30.72 330.972L30.16 329.236L28.186 330.44L28.718 328.2Z" fill="#FF4D4F"></path> <path d="M34.2752 328.2H33.0152V338H34.3312L40.5052 329.936V338H41.7652V328.2H40.4492L34.2752 336.208V328.2ZM49.524 337.286V335.928C49.174 336.6 48.404 337.132 47.242 337.132C45.758 337.132 44.932 336.306 44.932 334.514V334.472C44.932 332.75 45.744 331.868 47.214 331.868C48.166 331.868 48.978 332.4 49.454 333.184V331.532C48.992 331.182 48.152 330.86 47.214 330.86C45.24 330.86 43.756 332.05 43.756 334.472C43.756 336.922 45.03 338.14 47.242 338.14C48.432 338.14 49.202 337.72 49.524 337.286ZM56.0203 338H57.1823V331H51.2743V338H52.4363V332.036H56.0203V338ZM58.8907 334.472C58.8907 336.922 60.1507 338.126 62.3627 338.14C64.3367 338.14 65.8207 336.95 65.8207 334.528C65.8207 332.092 64.5467 330.874 62.3487 330.86C60.3747 330.86 58.8907 332.05 58.8907 334.472ZM60.0667 334.472C60.0667 332.75 60.8787 331.868 62.3487 331.868C63.8187 331.882 64.6447 332.708 64.6447 334.486V334.528C64.6447 336.25 63.8327 337.132 62.3627 337.132C60.8787 337.132 60.0667 336.306 60.0667 334.514V334.472ZM72.0942 338H73.2562V331H68.3282L68.3002 331.966C68.1602 336.614 67.6142 336.81 66.9002 336.81C66.8022 336.81 66.6762 336.796 66.5502 336.768V338.014C66.6902 338.056 66.8862 338.084 67.1102 338.084C68.1322 338.084 69.1822 337.79 69.3642 332.568L69.3782 332.036H72.0942V338ZM80.3589 338H81.5209V331H80.3589V333.926H76.6629V331H75.5009V338H76.6629V334.976H80.3589V338ZM84.7947 338L84.9207 337.832L88.7287 332.75V338H89.8907V331H88.8687L84.9207 336.208V331H83.7587V338H84.7947ZM93.6939 338H94.8559V332.036H97.1799V331H91.3559V332.036H93.6939V338ZM101.573 330.86C99.5993 330.86 98.1153 332.05 98.1153 334.472C98.1153 336.922 99.3893 338.14 101.601 338.14C102.973 338.14 103.827 337.72 104.177 337.286V335.928C103.799 336.6 102.945 337.132 101.601 337.132C100.229 337.132 99.4173 336.432 99.3053 334.92H104.667V334.164C104.667 332.092 103.505 330.86 101.573 330.86ZM101.573 331.868C102.679 331.868 103.505 332.568 103.505 333.912V333.926H99.3193C99.4733 332.568 100.257 331.868 101.573 331.868ZM110.799 338H111.961V331H107.033L107.005 331.966C106.865 336.614 106.319 336.81 105.605 336.81C105.507 336.81 105.381 336.796 105.255 336.768V338.014C105.395 338.056 105.591 338.084 105.815 338.084C106.837 338.084 107.887 337.79 108.069 332.568L108.083 332.036H110.799V338ZM119.876 335.536C119.876 333.702 118.882 333.254 116.978 333.254H115.368V331H114.206V338H116.796C118.994 338 119.862 337.342 119.876 335.536ZM118.714 335.522C118.714 336.684 118.126 336.964 116.782 336.964H115.368V334.29H116.852C118.252 334.29 118.686 334.486 118.714 335.522Z" fill="#8C8C8C"></path> <rect x="24.5" y="352.5" width="199" height="39" rx="3.5" fill="#F0F0F0"></rect> <path d="M39.04 366.8H37.6V378H39.104L46.16 368.784V378H47.6V366.8H46.096L39.04 375.952V366.8ZM50.4831 378H53.9871C56.1631 378 57.1711 377.216 57.1711 375.632C57.1711 374.224 56.4191 373.808 55.3951 373.68C56.2591 373.472 56.7711 372.816 56.7711 371.808C56.7711 370.656 56.0831 370 54.0511 370H50.4831V378ZM51.8111 376.848V374.432H54.2111C55.2191 374.432 55.8431 374.688 55.8431 375.648C55.8431 376.448 55.2831 376.848 53.9711 376.848H51.8111ZM51.8111 373.296V371.168L53.8911 371.152C54.8991 371.152 55.4271 371.328 55.4271 372.112C55.4271 372.992 54.7711 373.296 53.7791 373.296H51.8111ZM59.2986 372.496C59.8426 371.6 60.7706 370.992 62.0186 370.992C63.1706 370.992 63.9706 371.376 63.9706 372.736V373.376H62.0666C59.9386 373.376 58.6906 373.888 58.6906 375.648C58.6906 377.28 59.7466 378.128 61.3306 378.128C62.5946 378.128 63.6186 377.52 64.0346 376.64V378H65.2986V372.72C65.2986 370.528 64.0666 369.84 62.0186 369.84C60.7866 369.84 59.8266 370.208 59.2986 370.608V372.496ZM61.6666 376.896C60.5946 376.896 60.0506 376.352 60.0506 375.568C60.0506 374.656 60.6746 374.432 62.1146 374.432H63.9706V375.296C63.8906 375.84 63.2986 376.896 61.6666 376.896ZM73.2851 378H74.6131V370H73.2851V373.344H69.0611V370H67.7331V378H69.0611V374.544H73.2851V378ZM76.5626 373.968C76.5626 376.768 78.0026 378.144 80.5306 378.16C82.7866 378.16 84.4826 376.8 84.4826 374.032C84.4826 371.248 83.0266 369.856 80.5146 369.84C78.2586 369.84 76.5626 371.2 76.5626 373.968ZM77.9066 373.968C77.9066 372 78.8346 370.992 80.5146 370.992C82.1946 371.008 83.1386 371.952 83.1386 373.984V374.032C83.1386 376 82.2106 377.008 80.5306 377.008C78.8346 377.008 77.9066 376.064 77.9066 374.016V373.968ZM86.4363 378H89.9403C92.1163 378 93.1243 377.216 93.1243 375.632C93.1243 374.224 92.3723 373.808 91.3483 373.68C92.2123 373.472 92.7243 372.816 92.7243 371.808C92.7243 370.656 92.0363 370 90.0043 370H86.4363V378ZM87.7643 376.848V374.432H90.1643C91.1723 374.432 91.7963 374.688 91.7963 375.648C91.7963 376.448 91.2363 376.848 89.9243 376.848H87.7643ZM87.7643 373.296V371.168L89.8443 371.152C90.8523 371.152 91.3803 371.328 91.3803 372.112C91.3803 372.992 90.7243 373.296 89.7323 373.296H87.7643ZM102.704 366.8L98.08 378H99.584L100.784 375.008H106.272L107.52 378H109.088L104.416 366.8H102.704ZM103.504 368.288L105.744 373.728H101.312L103.504 368.288ZM110.94 377.136C110.94 377.696 111.18 378.16 111.98 378.16C112.796 378.16 113.036 377.696 113.036 377.136C113.036 376.56 112.796 376.096 111.98 376.096C111.18 376.096 110.94 376.56 110.94 377.136ZM123.329 366.8L118.705 378H120.209L121.409 375.008H126.897L128.145 378H129.713L125.041 366.8H123.329ZM124.129 368.288L126.369 373.728H121.937L124.129 368.288ZM131.565 377.136C131.565 377.696 131.805 378.16 132.605 378.16C133.421 378.16 133.661 377.696 133.661 377.136C133.661 376.56 133.421 376.096 132.605 376.096C131.805 376.096 131.565 376.56 131.565 377.136Z" fill="#190B25"></path> <path fill-rule="evenodd" clip-rule="evenodd" d="M202.441 370.131C202.363 370.053 202.363 369.927 202.441 369.848L203.15 369.141C203.228 369.063 203.354 369.063 203.432 369.141L206.3 372.005L209.167 369.141C209.245 369.063 209.372 369.063 209.45 369.141L210.158 369.848C210.236 369.927 210.236 370.053 210.158 370.131L206.441 373.844C206.363 373.922 206.237 373.922 206.158 373.844L202.441 370.131Z" fill="#190B25"></path> <rect x="24.5" y="352.5" width="199" height="39" rx="3.5" stroke="#BFBFBF"></rect> <path d="M252.718 328.2H250.898L251.43 330.454L249.456 329.236L248.896 330.972L251.206 331.168L249.442 332.666L250.912 333.744L251.808 331.602L252.704 333.744L254.174 332.666L252.41 331.154L254.72 330.972L254.16 329.236L252.186 330.44L252.718 328.2Z" fill="#FF4D4F"></path> <path d="M256.315 333.086C256.315 336.208 258.275 338.126 261.439 338.14C264.631 338.14 266.563 336.012 266.563 333.114C266.563 330.006 264.589 328.074 261.439 328.06C258.247 328.06 256.315 330.188 256.315 333.086ZM257.631 333.1C257.631 330.762 259.073 329.194 261.425 329.18C263.917 329.194 265.247 330.888 265.247 333.1C265.247 335.452 263.791 337.02 261.453 337.02C258.961 337.006 257.631 335.312 257.631 333.1ZM269.938 338H271.1V332.036H273.424V331H267.6V332.036H269.938V338ZM274.891 338H277.957C279.861 338 280.743 337.314 280.743 335.928C280.743 334.696 280.085 334.332 279.189 334.22C279.945 334.038 280.393 333.464 280.393 332.582C280.393 331.574 279.791 331 278.013 331H274.891V338ZM276.053 336.992V334.878H278.153C279.035 334.878 279.581 335.102 279.581 335.942C279.581 336.642 279.091 336.992 277.943 336.992H276.053ZM276.053 333.884V332.022L277.873 332.008C278.755 332.008 279.217 332.162 279.217 332.848C279.217 333.618 278.643 333.884 277.775 333.884H276.053ZM285.419 330.86C283.445 330.86 281.961 332.05 281.961 334.472C281.961 336.922 283.235 338.14 285.447 338.14C286.819 338.14 287.673 337.72 288.023 337.286V335.928C287.645 336.6 286.791 337.132 285.447 337.132C284.075 337.132 283.263 336.432 283.151 334.92H288.513V334.164C288.513 332.092 287.351 330.86 285.419 330.86ZM285.419 331.868C286.525 331.868 287.351 332.568 287.351 333.912V333.926H283.165C283.319 332.568 284.103 331.868 285.419 331.868ZM291.786 338H292.948V332.036H295.272V331H289.448V332.036H291.786V338ZM301.975 337.286V335.928C301.625 336.6 300.855 337.132 299.693 337.132C298.209 337.132 297.383 336.306 297.383 334.514V334.472C297.383 332.75 298.195 331.868 299.665 331.868C300.617 331.868 301.429 332.4 301.905 333.184V331.532C301.443 331.182 300.603 330.86 299.665 330.86C297.691 330.86 296.207 332.05 296.207 334.472C296.207 336.922 297.481 338.14 299.693 338.14C300.883 338.14 301.653 337.72 301.975 337.286ZM305.499 338H306.661V332.036H308.985V331H303.161V332.036H305.499V338ZM310.452 338H313.518C315.422 338 316.304 337.314 316.304 335.928C316.304 334.696 315.646 334.332 314.75 334.22C315.506 334.038 315.954 333.464 315.954 332.582C315.954 331.574 315.352 331 313.574 331H310.452V338ZM311.614 336.992V334.878H313.714C314.596 334.878 315.142 335.102 315.142 335.942C315.142 336.642 314.652 336.992 313.504 336.992H311.614ZM311.614 333.884V332.022L313.434 332.008C314.316 332.008 314.778 332.162 314.778 332.848C314.778 333.618 314.204 333.884 313.336 333.884H311.614ZM320.98 330.86C319.006 330.86 317.522 332.05 317.522 334.472C317.522 336.922 318.796 338.14 321.008 338.14C322.38 338.14 323.234 337.72 323.584 337.286V335.928C323.206 336.6 322.352 337.132 321.008 337.132C319.636 337.132 318.824 336.432 318.712 334.92H324.074V334.164C324.074 332.092 322.912 330.86 320.98 330.86ZM320.98 331.868C322.086 331.868 322.912 332.568 322.912 333.912V333.926H318.726C318.88 332.568 319.664 331.868 320.98 331.868ZM330.636 338H331.798V331H330.636V333.926H326.94V331H325.778V338H326.94V334.976H330.636V338ZM338.894 338H340.056V331H338.894V333.926H335.198V331H334.036V338H335.198V334.976H338.894V338ZM342.294 338H344.688C346.9 338 347.768 337.342 347.768 335.522C347.754 333.702 346.76 333.254 344.87 333.254H343.456V331H342.294V338ZM348.734 338H349.896V331H348.734V338ZM346.606 335.522C346.606 336.684 346.018 336.964 344.674 336.964H343.456V334.29H344.744C346.144 334.29 346.578 334.486 346.606 335.522ZM353.174 338L353.3 337.832L357.108 332.75V338H358.27V331H357.248L353.3 336.208V331H352.138V338H353.174ZM356.282 327.514C356.282 328.382 355.848 328.592 355.232 328.592C354.462 328.592 354.098 328.2 354.098 327.514H352.978C352.978 328.914 354 329.502 355.26 329.502C356.338 329.502 357.388 328.914 357.388 327.514H356.282Z" fill="#8C8C8C"></path> <rect x="248.5" y="352.5" width="199" height="39" rx="3.5" fill="#F0F0F0"></rect> <path d="M264.704 366.8L260.08 378H261.584L262.784 375.008H268.272L269.52 378H271.088L266.416 366.8H264.704ZM265.504 368.288L267.744 373.728H263.312L265.504 368.288ZM278.324 378H279.652V370H274.02L273.988 371.104C273.828 376.416 273.204 376.64 272.388 376.64C272.276 376.64 272.132 376.624 271.988 376.592V378.016C272.148 378.064 272.372 378.096 272.628 378.096C273.796 378.096 274.996 377.76 275.204 371.792L275.22 371.184H278.324V378ZM285.562 369.84C283.306 369.84 281.61 371.2 281.61 373.968C281.61 376.768 283.066 378.16 285.594 378.16C287.162 378.16 288.138 377.68 288.538 377.184V375.632C288.106 376.4 287.13 377.008 285.594 377.008C284.026 377.008 283.098 376.208 282.97 374.48H289.098V373.616C289.098 371.248 287.77 369.84 285.562 369.84ZM285.562 370.992C286.826 370.992 287.77 371.792 287.77 373.328V373.344H282.986C283.162 371.792 284.058 370.992 285.562 370.992ZM291.046 378H292.374V374.48H293.814L296.694 378H298.374L294.918 373.776L297.846 370H296.326L293.814 373.344H292.374V370H291.046V378ZM305.717 377.184V375.632C305.317 376.4 304.437 377.008 303.109 377.008C301.413 377.008 300.469 376.064 300.469 374.016V373.968C300.469 372 301.397 370.992 303.077 370.992C304.165 370.992 305.093 371.6 305.637 372.496V370.608C305.109 370.208 304.149 369.84 303.077 369.84C300.821 369.84 299.125 371.2 299.125 373.968C299.125 376.768 300.581 378.16 303.109 378.16C304.469 378.16 305.349 377.68 305.717 377.184ZM307.846 372.496C308.39 371.6 309.318 370.992 310.566 370.992C311.718 370.992 312.518 371.376 312.518 372.736V373.376H310.614C308.486 373.376 307.238 373.888 307.238 375.648C307.238 377.28 308.294 378.128 309.878 378.128C311.141 378.128 312.166 377.52 312.582 376.64V378H313.846V372.72C313.846 370.528 312.614 369.84 310.566 369.84C309.334 369.84 308.374 370.208 307.846 370.608V372.496ZM310.214 376.896C309.142 376.896 308.598 376.352 308.598 375.568C308.598 374.656 309.222 374.432 310.661 374.432H312.518V375.296C312.438 375.84 311.846 376.896 310.214 376.896ZM321.832 378H323.16V370H321.832V373.344H317.608V370H316.28V378H317.608V374.544H321.832V378ZM324.678 376.736V380.08H325.942V378H332.198V380.08H333.462V376.736H332.166V370H326.534V370.912C326.534 373.92 326.182 375.552 325.638 376.736H324.678ZM327.782 371.84L327.798 371.184H330.838V376.736H326.95C327.526 375.376 327.734 373.888 327.782 371.84ZM335.28 380.88H336.608V376.768C337.056 377.52 338 378.176 339.344 378.176C341.632 378.176 342.992 376.976 342.992 373.824C342.992 371.024 341.632 369.84 339.504 369.84C337.888 369.84 336.944 370.608 336.544 371.536V370H335.28V380.88ZM336.608 373.568C336.64 371.968 337.488 371.04 339.152 371.04C340.656 371.04 341.648 371.76 341.648 373.904C341.648 376.128 340.896 376.976 339.136 376.976C337.632 376.976 336.608 376 336.608 374.336V373.568ZM344.328 373.968C344.328 376.768 345.768 378.144 348.296 378.16C350.552 378.16 352.248 376.8 352.248 374.032C352.248 371.248 350.792 369.856 348.28 369.84C346.024 369.84 344.328 371.2 344.328 373.968ZM345.672 373.968C345.672 372 346.6 370.992 348.28 370.992C349.96 371.008 350.904 371.952 350.904 373.984V374.032C350.904 376 349.976 377.008 348.296 377.008C346.6 377.008 345.672 376.064 345.672 374.016V373.968ZM354.202 378H357.706C359.882 378 360.89 377.216 360.89 375.632C360.89 374.224 360.138 373.808 359.114 373.68C359.978 373.472 360.49 372.816 360.49 371.808C360.49 370.656 359.802 370 357.77 370H354.202V378ZM355.53 376.848V374.432H357.93C358.938 374.432 359.562 374.688 359.562 375.648C359.562 376.448 359.002 376.848 357.69 376.848H355.53ZM355.53 373.296V371.168L357.61 371.152C358.618 371.152 359.146 371.328 359.146 372.112C359.146 372.992 358.49 373.296 357.498 373.296H355.53ZM376.438 374.624C375.814 375.808 374.374 376.88 372.326 376.88C369.542 376.816 368.07 374.896 368.07 372.4C368.07 369.712 369.734 367.92 372.422 367.92C374.102 367.92 375.51 368.976 376.134 370.032V367.776C375.606 367.28 374.262 366.64 372.422 366.64C368.774 366.64 366.566 369.072 366.566 372.384C366.566 375.936 368.806 378.144 372.39 378.16C374.374 378.16 375.878 377.376 376.438 376.704V374.624ZM378.518 377.136C378.518 377.696 378.758 378.16 379.558 378.16C380.374 378.16 380.614 377.696 380.614 377.136C380.614 376.56 380.374 376.096 379.558 376.096C378.758 376.096 378.518 376.56 378.518 377.136ZM387.791 378C390.543 378 392.191 377.056 392.191 374.736C392.191 373.28 391.551 372.352 390.063 372.16C391.263 371.776 391.855 370.88 391.855 369.52C391.855 367.616 390.495 366.8 388.287 366.8H383.647V378H387.791ZM385.087 376.72V372.896H388.047C389.615 372.896 390.735 373.312 390.735 374.752C390.735 376.128 389.759 376.72 387.999 376.72H385.087ZM385.087 371.744V368.08H387.967C389.663 368.08 390.415 368.656 390.415 369.792C390.415 371.056 389.295 371.744 387.919 371.744H385.087ZM394.674 377.136C394.674 377.696 394.914 378.16 395.714 378.16C396.53 378.16 396.77 377.696 396.77 377.136C396.77 376.56 396.53 376.096 395.714 376.096C394.914 376.096 394.674 376.56 394.674 377.136Z" fill="#190B25"></path> <path fill-rule="evenodd" clip-rule="evenodd" d="M426.441 370.131C426.363 370.053 426.363 369.927 426.441 369.848L427.15 369.141C427.228 369.063 427.354 369.063 427.432 369.141L430.3 372.005L433.167 369.141C433.245 369.063 433.372 369.063 433.45 369.141L434.158 369.848C434.236 369.927 434.236 370.053 434.158 370.131L430.441 373.844C430.363 373.922 430.237 373.922 430.158 373.844L426.441 370.131Z" fill="#190B25"></path> <rect x="248.5" y="352.5" width="199" height="39" rx="3.5" stroke="#BFBFBF"></rect> <path d="M33.584 304H35.584V292.8H33.584V297.312H27.456V292.8H25.456V304H27.456V299.152H33.584V304ZM38.3749 298.896C38.9189 298.048 39.7669 297.472 41.2389 297.472C42.3109 297.472 42.8549 297.824 42.8549 298.96V299.312H41.0469C39.0789 299.312 37.7509 299.824 37.7509 301.648C37.7509 303.216 38.7109 304.128 40.3269 304.128C41.6069 304.128 42.5829 303.488 42.9669 302.56V304H44.7269V298.72C44.7269 296.64 43.5749 295.84 41.2389 295.84C39.8629 295.84 38.9029 296.16 38.3749 296.56V298.896ZM40.9189 302.448C40.0869 302.448 39.6389 302.064 39.6389 301.456C39.6389 300.736 40.1669 300.528 41.2709 300.528H42.8549V301.184C42.7749 301.728 42.1829 302.448 40.9189 302.448ZM46.486 303.184C46.886 303.632 48.102 304.16 49.51 304.16C51.67 304.16 53.126 303.28 53.126 301.6C53.126 300.528 52.534 299.984 51.462 299.776C52.262 299.44 52.79 298.928 52.79 297.92C52.79 296.656 51.846 295.84 49.622 295.84H49.558C48.326 295.84 47.238 296.16 46.63 296.56V298.896C47.254 298.048 48.214 297.472 49.558 297.472C50.534 297.488 50.886 297.808 50.886 298.352C50.886 299.024 50.31 299.296 49.446 299.296H48.31V300.656H49.686C50.774 300.656 51.238 300.912 51.238 301.536C51.238 302.208 50.566 302.528 49.51 302.528C48.006 302.528 46.95 301.968 46.486 301.264V303.184ZM60.3428 304H62.2148V296H60.3428V299.12H56.7268V296H54.8548V304H56.7268V300.768H60.3428V304ZM64.6718 298.896C65.2158 298.048 66.0638 297.472 67.5358 297.472C68.6078 297.472 69.1518 297.824 69.1518 298.96V299.312H67.3438C65.3758 299.312 64.0478 299.824 64.0478 301.648C64.0478 303.216 65.0078 304.128 66.6238 304.128C67.9038 304.128 68.8798 303.488 69.2638 302.56V304H71.0238V298.72C71.0238 296.64 69.8718 295.84 67.5358 295.84C66.1598 295.84 65.1998 296.16 64.6718 296.56V298.896ZM67.2158 302.448C66.3838 302.448 65.9358 302.064 65.9358 301.456C65.9358 300.736 66.4638 300.528 67.5677 300.528H69.1518V301.184C69.0718 301.728 68.4798 302.448 67.2158 302.448ZM78.0309 304H79.9029V296H78.0309V299.616C77.5509 299.856 76.9429 299.984 76.3029 299.984C75.3109 299.984 74.7669 299.536 74.7669 298.576V296H72.8949V298.864C72.8949 300.784 74.0469 301.648 75.9669 301.648C76.7029 301.648 77.4709 301.504 78.0309 301.184V304ZM88.7753 303.2V301.28C88.3433 301.984 87.3673 302.544 85.8953 302.544C84.4393 302.544 83.6233 301.872 83.4793 300.544H89.4153V299.776C89.4153 297.264 88.0233 295.84 85.7033 295.824C83.2873 295.824 81.6233 297.312 81.6233 299.968C81.6233 302.72 83.1913 304.176 85.8313 304.16C87.2873 304.176 88.3913 303.648 88.7753 303.2ZM85.6553 297.456C86.7913 297.456 87.4953 298.128 87.5433 299.216H83.5113C83.7033 298.064 84.4553 297.456 85.6553 297.456ZM96.624 304H98.496V296H96.624V299.12H93.008V296H91.136V304H93.008V300.768H96.624V304ZM100.777 303.888H101.017V304H102.553L102.633 303.888L106.393 298.512V304H108.249V296.128H107.993V296H106.473L102.633 301.424V296H100.777V303.888ZM117.135 303.2V301.28C116.703 301.984 115.727 302.544 114.255 302.544C112.799 302.544 111.983 301.872 111.839 300.544H117.775V299.776C117.775 297.264 116.383 295.84 114.063 295.824C111.647 295.824 109.983 297.312 109.983 299.968C109.983 302.72 111.551 304.176 114.191 304.16C115.647 304.176 116.751 303.648 117.135 303.2ZM114.015 297.456C115.151 297.456 115.855 298.128 115.903 299.216H111.871C112.063 298.064 112.815 297.456 114.015 297.456ZM123.252 303.184C123.652 303.632 124.868 304.16 126.276 304.16C128.436 304.16 129.892 303.28 129.892 301.6C129.892 300.528 129.3 299.984 128.228 299.776C129.028 299.44 129.556 298.928 129.556 297.92C129.556 296.656 128.612 295.84 126.388 295.84H126.324C125.092 295.84 124.004 296.16 123.396 296.56V298.896C124.02 298.048 124.98 297.472 126.324 297.472C127.3 297.488 127.652 297.808 127.652 298.352C127.652 299.024 127.076 299.296 126.212 299.296H125.076V300.656H126.452C127.54 300.656 128.004 300.912 128.004 301.536C128.004 302.208 127.332 302.528 126.276 302.528C124.772 302.528 123.716 301.968 123.252 301.264V303.184ZM131.812 298.896C132.356 298.048 133.204 297.472 134.676 297.472C135.748 297.472 136.292 297.824 136.292 298.96V299.312H134.484C132.516 299.312 131.188 299.824 131.188 301.648C131.188 303.216 132.148 304.128 133.764 304.128C135.044 304.128 136.02 303.488 136.404 302.56V304H138.164V298.72C138.164 296.64 137.012 295.84 134.676 295.84C133.3 295.84 132.34 296.16 131.812 296.56V298.896ZM134.356 302.448C133.524 302.448 133.076 302.064 133.076 301.456C133.076 300.736 133.604 300.528 134.708 300.528H136.292V301.184C136.212 301.728 135.62 302.448 134.356 302.448ZM145.188 304H147.06V296H143.652C141.172 296 140.052 296.896 140.052 298.896C140.052 299.936 140.564 300.72 141.508 301.104L139.652 304H141.716L143.332 301.36H145.188V304ZM143.7 297.648H145.188V299.92H143.348C142.372 299.92 141.94 299.552 141.924 298.896C141.924 297.968 142.452 297.648 143.7 297.648ZM149.339 304H153.323C155.419 304 156.427 303.168 156.427 301.632C156.427 300.272 155.675 299.808 154.651 299.68C155.515 299.472 156.027 298.816 156.027 297.856C156.027 296.656 155.275 296 153.371 296H149.339V304ZM151.211 302.448V300.576H153.259C154.123 300.576 154.571 300.8 154.571 301.504C154.571 302.144 154.139 302.448 153.147 302.448H151.211ZM151.211 299.232V297.568L152.939 297.552C153.739 297.552 154.155 297.728 154.155 298.32C154.155 298.992 153.659 299.232 152.923 299.232H151.211ZM158.136 304H160.008V300.688H161.288L163.8 304H166.072L162.824 299.776L165.624 296H163.544L161.304 299.12H160.008V296H158.136V304ZM167.449 303.888H167.689V304H169.225L169.305 303.888L173.065 298.512V304H174.921V296.128H174.665V296H173.145L169.305 301.424V296H167.449V303.888Z" fill="#190B25"></path> <path d="M0 135H452V136H0V135Z" fill="#F0F0F0"></path> </svg> 