<?xml version="1.0" encoding="UTF-8"?> <svg xmlns="http://www.w3.org/2000/svg" width="335" height="122" viewBox="0 0 335 122" fill="none"> <rect width="335" height="122" rx="14" fill="#DFE6F3"></rect> <path d="M34.718 33.918C33.816 35.48 31.924 36.712 29.24 36.712C25.698 36.646 23.872 34.292 23.872 31.3C23.872 28.066 25.94 25.888 29.306 25.888C31.616 25.888 33.486 27.208 34.41 28.572V24.744C33.508 24.106 31.726 23.358 29.306 23.358C24.202 23.358 20.902 26.636 20.902 31.278C20.902 36.25 24.246 39.22 29.262 39.242C31.924 39.242 33.948 38.23 34.718 37.306V33.918ZM36.0351 36.668V41.86H38.3671V39H46.0891V41.86H48.4211V36.668H46.7491V28H38.3011V29.254C38.3011 32.906 37.9271 35.084 37.3111 36.668H36.0351ZM40.6991 30.53V30.266H44.1751V36.668H39.7971C40.4131 34.952 40.6331 33.06 40.6991 30.53ZM50.744 31.982C51.492 30.816 52.658 30.024 54.682 30.024C56.156 30.024 56.904 30.508 56.904 32.07V32.554H54.418C51.712 32.554 49.886 33.258 49.886 35.766C49.886 37.922 51.206 39.176 53.428 39.176C55.188 39.176 56.53 38.296 57.058 37.02V39H59.478V31.74C59.478 28.88 57.894 27.78 54.682 27.78C52.79 27.78 51.47 28.22 50.744 28.77V31.982ZM54.242 36.866C53.098 36.866 52.482 36.338 52.482 35.502C52.482 34.512 53.208 34.226 54.726 34.226H56.904V35.128C56.794 35.876 55.98 36.866 54.242 36.866ZM62.4688 38.846H62.7988V39H64.9108L65.0208 38.846L70.1908 31.454V39H72.7428V28.176H72.3908V28H70.3008L65.0208 35.458V28H62.4688V38.846ZM69.0908 22.522C69.0908 23.622 68.5628 24.018 67.6828 24.018C66.6048 24.018 66.1428 23.446 66.1428 22.522H63.7668C63.7668 25.008 65.5488 25.932 67.7268 25.932C69.6188 25.932 71.4668 25.008 71.4668 22.522H69.0908ZM78.3825 39H80.9345V30.266H84.4985V28H74.8625V30.266H78.3825V39ZM95.7027 37.9V35.26C95.1087 36.228 93.7667 36.998 91.7427 36.998C89.7407 36.998 88.6187 36.074 88.4207 34.248H96.5827V33.192C96.5827 29.738 94.6687 27.78 91.4787 27.758C88.1567 27.758 85.8687 29.804 85.8687 33.456C85.8687 37.24 88.0247 39.242 91.6547 39.22C93.6567 39.242 95.1747 38.516 95.7027 37.9ZM91.4127 30.002C92.9747 30.002 93.9427 30.926 94.0087 32.422H88.4647C88.7287 30.838 89.7627 30.002 91.4127 30.002ZM112.034 39H114.608V28H104.664V39H107.238V30.266H112.034V39ZM122.632 39.242C126.042 39.22 128.352 37.35 128.352 33.544C128.352 29.716 126.13 27.78 122.72 27.758C119.288 27.758 116.978 29.65 116.978 33.456C116.978 37.306 119.2 39.242 122.632 39.242ZM119.596 33.456C119.596 31.146 120.674 30.024 122.632 30.002C124.568 30.002 125.734 31.058 125.734 33.478V33.544C125.734 35.876 124.634 36.998 122.676 36.998C120.74 36.998 119.596 35.942 119.596 33.522V33.456ZM130.724 39H133.298V34.446H135.058L138.512 39H141.636L137.17 33.192L141.02 28H138.16L135.08 32.29H133.298V28H130.724V39ZM143.685 31.982C144.433 30.816 145.599 30.024 147.623 30.024C149.097 30.024 149.845 30.508 149.845 32.07V32.554H147.359C144.653 32.554 142.827 33.258 142.827 35.766C142.827 37.922 144.147 39.176 146.369 39.176C148.129 39.176 149.471 38.296 149.999 37.02V39H152.419V31.74C152.419 28.88 150.835 27.78 147.623 27.78C145.731 27.78 144.411 28.22 143.685 28.77V31.982ZM147.183 36.866C146.039 36.866 145.423 36.338 145.423 35.502C145.423 34.512 146.149 34.226 147.667 34.226H149.845V35.128C149.735 35.876 148.921 36.866 147.183 36.866ZM154.838 37.878C155.388 38.494 157.06 39.22 158.996 39.22C161.966 39.22 163.968 38.01 163.968 35.7C163.968 34.226 163.154 33.478 161.68 33.192C162.78 32.73 163.506 32.026 163.506 30.64C163.506 28.902 162.208 27.78 159.15 27.78H159.062C157.368 27.78 155.872 28.22 155.036 28.77V31.982C155.894 30.816 157.214 30.024 159.062 30.024C160.404 30.046 160.888 30.486 160.888 31.234C160.888 32.158 160.096 32.532 158.908 32.532H157.346V34.402H159.238C160.734 34.402 161.372 34.754 161.372 35.612C161.372 36.536 160.448 36.976 158.996 36.976C156.928 36.976 155.476 36.206 154.838 35.238V37.878ZM166.609 31.982C167.357 30.816 168.523 30.024 170.547 30.024C172.021 30.024 172.769 30.508 172.769 32.07V32.554H170.283C167.577 32.554 165.751 33.258 165.751 35.766C165.751 37.922 167.071 39.176 169.293 39.176C171.053 39.176 172.395 38.296 172.923 37.02V39H175.343V31.74C175.343 28.88 173.759 27.78 170.547 27.78C168.655 27.78 167.335 28.22 166.609 28.77V31.982ZM170.107 36.866C168.963 36.866 168.347 36.338 168.347 35.502C168.347 34.512 169.073 34.226 170.591 34.226H172.769V35.128C172.659 35.876 171.845 36.866 170.107 36.866ZM185.858 39H188.432V28H185.858V32.29H180.886V28H178.312V39H180.886V34.556H185.858V39ZM191.568 38.846H191.898V39H194.01L194.12 38.846L199.29 31.454V39H201.842V28.176H201.49V28H199.4L194.12 35.458V28H191.568V38.846ZM211.662 39H214.236V28H209.55C206.14 28 204.6 29.232 204.6 31.982C204.6 33.412 205.304 34.49 206.602 35.018L204.05 39H206.888L209.11 35.37H211.662V39ZM209.616 30.266H211.662V33.39H209.132C207.79 33.39 207.196 32.884 207.174 31.982C207.174 30.706 207.9 30.266 209.616 30.266ZM30.318 60.9V58.26C29.768 59.228 28.558 59.998 26.732 59.998C24.664 59.998 23.432 58.942 23.432 56.676V56.346C23.432 54.124 24.576 53.002 26.688 53.002C28.294 53.024 29.46 53.816 30.208 54.982V51.77C29.482 51.22 28.162 50.78 26.688 50.758C23.19 50.78 20.814 52.672 20.814 56.456C20.814 60.306 23.146 62.242 26.666 62.242C28.448 62.242 29.834 61.516 30.318 60.9ZM39.3354 62H41.9094V51H39.3354V55.972C38.6754 56.302 37.8394 56.478 36.9594 56.478C35.5954 56.478 34.8474 55.862 34.8474 54.542V51H32.2734V54.938C32.2734 57.578 33.8574 58.766 36.4974 58.766C37.5094 58.766 38.5654 58.568 39.3354 58.128V62ZM50.5229 46.93C50.5229 47.81 51.1389 48.382 52.0629 48.382C52.9649 48.382 53.5589 47.81 53.5589 46.93C53.5589 46.072 52.9649 45.5 52.0629 45.5C51.1389 45.5 50.5229 46.072 50.5229 46.93ZM45.8369 46.93C45.8369 47.81 46.4529 48.382 47.3769 48.382C48.2789 48.382 48.8729 47.81 48.8729 46.93C48.8729 46.072 48.2789 45.5 47.3769 45.5C46.4529 45.5 45.8369 46.072 45.8369 46.93ZM54.1089 60.9V58.26C53.5149 59.228 52.1729 59.998 50.1489 59.998C48.1469 59.998 47.0249 59.074 46.8269 57.248H54.9889V56.192C54.9889 52.738 53.0749 50.78 49.8849 50.758C46.5629 50.758 44.2749 52.804 44.2749 56.456C44.2749 60.24 46.4309 62.242 50.0609 62.22C52.0629 62.242 53.5809 61.516 54.1089 60.9ZM49.8189 53.002C51.3809 53.002 52.3489 53.926 52.4149 55.422H46.8709C47.1349 53.838 48.1689 53.002 49.8189 53.002ZM59.863 62H62.415V53.266H65.979V51H56.343V53.266H59.863V62ZM74.7632 62H77.3372V51H74.7632V55.972C74.1032 56.302 73.2672 56.478 72.3872 56.478C71.0232 56.478 70.2752 55.862 70.2752 54.542V51H67.7012V54.938C67.7012 57.578 69.2852 58.766 71.9252 58.766C72.9372 58.766 73.9932 58.568 74.7632 58.128V62ZM80.4727 61.846H80.8027V62H82.9147L83.0247 61.846L88.1947 54.454V62H90.7467V51.176H90.3947V51H88.3047L83.0247 58.458V51H80.4727V61.846ZM93.8784 62H96.4524V57.446H98.2124L101.666 62H104.79L100.324 56.192L104.174 51H101.314L98.2344 55.29H96.4524V51H93.8784V62ZM111.138 62.242C114.548 62.22 116.858 60.35 116.858 56.544C116.858 52.716 114.636 50.78 111.226 50.758C107.794 50.758 105.484 52.65 105.484 56.456C105.484 60.306 107.706 62.242 111.138 62.242ZM108.102 56.456C108.102 54.146 109.18 53.024 111.138 53.002C113.074 53.002 114.24 54.058 114.24 56.478V56.544C114.24 58.876 113.14 59.998 111.182 59.998C109.246 59.998 108.102 58.942 108.102 56.522V56.456ZM119.23 62H124.708C127.59 62 128.976 60.856 128.976 58.744C128.976 56.874 127.942 56.236 126.534 56.06C127.722 55.774 128.426 54.872 128.426 53.552C128.426 51.902 127.392 51 124.774 51H119.23V62ZM121.804 59.866V57.292H124.62C125.808 57.292 126.424 57.6 126.424 58.568C126.424 59.448 125.83 59.866 124.466 59.866H121.804ZM121.804 55.444V53.156L124.18 53.134C125.28 53.134 125.852 53.376 125.852 54.19C125.852 55.114 125.17 55.444 124.158 55.444H121.804Z" fill="#596E95"></path> <path d="M28.172 99.082V97.336C27.722 98.2 26.732 98.884 25.238 98.884C23.33 98.884 22.268 97.822 22.268 95.518V95.464C22.268 93.25 23.312 92.116 25.202 92.116C26.426 92.116 27.47 92.8 28.082 93.808V91.684C27.488 91.234 26.408 90.82 25.202 90.82C22.664 90.82 20.756 92.35 20.756 95.464C20.756 98.614 22.394 100.18 25.238 100.18C26.768 100.18 27.758 99.64 28.172 99.082ZM34.4322 100H42.7662V98.56H36.7722L37.2222 98.2C41.2182 95.014 42.4782 93.358 42.4782 90.946C42.4782 88.624 41.0382 87.292 38.5722 87.256C36.6822 87.238 35.4582 87.94 34.8462 88.606V90.46C35.7282 89.416 36.7542 88.75 38.3022 88.768C39.9942 88.768 40.8942 89.686 40.8942 91.162C40.8942 93.232 39.5982 94.546 34.4322 98.992V100ZM45.0265 96.742V98.902C45.4945 99.388 46.5745 100.144 48.3745 100.144H48.4105C51.1285 100.144 52.8025 98.614 52.8025 95.896C52.8025 93.52 51.2725 92.098 48.5725 92.098C47.9065 92.098 47.1505 92.206 46.8805 92.296L47.2045 88.84H52.4785V87.4H45.9445L45.3505 94.006C45.8725 93.79 46.7005 93.502 48.2125 93.502C49.9945 93.502 51.2185 94.24 51.2185 95.95C51.2185 97.516 50.3725 98.578 48.4645 98.632C46.8625 98.668 45.8005 97.876 45.0265 96.742ZM59.2345 95.464C59.2345 98.614 60.8545 100.162 63.6985 100.18C66.2365 100.18 68.1445 98.65 68.1445 95.536C68.1445 92.404 66.5065 90.838 63.6805 90.82C61.1425 90.82 59.2345 92.35 59.2345 95.464ZM60.7465 95.464C60.7465 93.25 61.7905 92.116 63.6805 92.116C65.5705 92.134 66.6325 93.196 66.6325 95.482V95.536C66.6325 97.75 65.5885 98.884 63.6985 98.884C61.7905 98.884 60.7465 97.822 60.7465 95.518V95.464ZM70.3423 100H71.8363V96.04H73.4563L76.6963 100H78.5863L74.6983 95.248L77.9923 91H76.2823L73.4563 94.762H71.8363V91H70.3423V100ZM82.5712 100H84.0652V92.332H87.0532V91H79.5652V92.332H82.5712V100ZM94.466 100H95.96V91H92.594C89.75 91 88.634 91.846 88.634 94.168C88.634 95.464 89.354 96.274 90.524 96.598L87.95 100H89.678L92.126 96.76H94.466V100ZM92.612 92.332H94.466V95.59H92.072C90.704 95.59 90.146 95.014 90.128 94.168C90.128 92.692 90.884 92.332 92.612 92.332ZM106.396 86.122C105.658 86.5 103.498 86.608 102.562 86.734C99.4305 87.166 98.2605 89.236 98.2605 94.204C98.2605 98.362 99.7185 100.18 102.796 100.18C105.64 100.18 107.224 98.56 107.224 95.374C107.224 92.116 105.568 91 103.21 91C101.68 91 100.384 91.666 99.5565 92.944C99.8085 90.046 100.42 88.372 103.696 88.12C105.172 88.012 106.036 87.94 106.396 87.742V86.122ZM99.8085 95.266C99.8085 93.412 100.978 92.368 102.814 92.368C104.56 92.368 105.64 93.25 105.64 95.554C105.64 97.876 104.398 98.758 102.724 98.758C100.798 98.758 99.8085 97.39 99.8085 95.266ZM109.419 103.24H110.913V98.614C111.417 99.46 112.479 100.198 113.991 100.198C116.565 100.198 118.095 98.848 118.095 95.302C118.095 92.152 116.565 90.82 114.171 90.82C112.353 90.82 111.291 91.684 110.841 92.728V91H109.419V103.24ZM110.913 95.014C110.949 93.214 111.903 92.17 113.775 92.17C115.467 92.17 116.583 92.98 116.583 95.392C116.583 97.894 115.737 98.848 113.757 98.848C112.065 98.848 110.913 97.75 110.913 95.878V95.014ZM125.808 100H127.302V91H123.936C121.092 91 119.976 91.846 119.976 94.168C119.976 95.464 120.696 96.274 121.866 96.598L119.292 100H121.02L123.468 96.76H125.808V100ZM123.954 92.332H125.808V95.59H123.414C122.046 95.59 121.488 95.014 121.47 94.168C121.47 92.692 122.226 92.332 123.954 92.332Z" fill="#4E6082"></path> <rect x="255" y="20" width="60" height="60" rx="12" fill="white"></rect> <path fill-rule="evenodd" clip-rule="evenodd" d="M300.556 50C300.556 58.5911 293.591 65.5556 285 65.5556C276.409 65.5556 269.444 58.5911 269.444 50C269.444 41.4089 276.409 34.4444 285 34.4444C293.591 34.4444 300.556 41.4089 300.556 50ZM305 50C305 61.0457 296.046 70 285 70C273.954 70 265 61.0457 265 50C265 38.9543 273.954 30 285 30C296.046 30 305 38.9543 305 50ZM273.889 46.6667C273.889 44.8257 275.381 43.3333 277.222 43.3333H292.778C294.619 43.3333 296.111 44.8257 296.111 46.6667C296.111 48.5076 294.619 50 292.778 50H277.222C275.381 50 273.889 48.5076 273.889 46.6667ZM273.889 54.4444C273.889 53.2171 274.884 52.2222 276.111 52.2222C277.338 52.2222 278.333 53.2171 278.333 54.4444C278.333 55.6717 277.338 56.6667 276.111 56.6667C274.884 56.6667 273.889 55.6717 273.889 54.4444ZM282.778 52.2222C281.55 52.2222 280.556 53.2171 280.556 54.4444C280.556 55.6717 281.55 56.6667 282.778 56.6667C284.005 56.6667 285 55.6717 285 54.4444C285 53.2171 284.005 52.2222 282.778 52.2222Z" fill="#59709A"></path> </svg> 