<?xml version="1.0" encoding="UTF-8"?> <svg xmlns="http://www.w3.org/2000/svg" width="95" height="96" viewBox="0 0 95 96" fill="none"> <path d="M95 47.5056C95 21.269 73.7335 2.70036e-05 47.5 2.82538e-05C21.2665 2.95041e-05 -3.51357e-06 21.269 -2.26348e-06 47.5056C-1.01339e-06 73.7423 21.2665 95.0112 47.5 95.0112C73.7335 95.0112 95 73.7422 95 47.5056Z" fill="white"></path> <path d="M21.5431 40.8039C21.5431 43.9719 23.1991 45.1239 25.4191 45.1239C27.8431 45.1239 29.3191 43.9239 29.3191 40.8039C29.3191 37.8639 28.1071 36.4839 25.5631 36.4839C22.8511 36.4839 21.5431 37.8639 21.5431 40.8039ZM22.6711 40.8399C22.6711 38.5719 23.5471 37.4559 25.4191 37.4559C27.1591 37.4559 28.1911 38.2719 28.1911 40.8399C28.1911 43.3239 27.1711 44.1519 25.4791 44.1519C23.8231 44.1519 22.6711 43.3239 22.6711 40.8399ZM36.3642 35.7519C35.8722 36.0039 34.4322 36.0759 33.8082 36.1599C31.7202 36.4479 30.9402 37.8279 30.9402 41.1399C30.9402 43.9119 31.9242 45.1239 33.9642 45.1239C35.8602 45.1239 36.9162 44.1159 36.9162 41.6799C36.9162 39.3759 35.9202 38.7279 34.3482 38.7279C33.4002 38.7279 32.5002 39.1239 31.9482 39.9399L31.9122 39.9279C32.0802 37.9959 32.4642 37.2999 34.2042 37.1919C35.5362 37.1079 36.1242 37.0479 36.3642 36.9159V35.7519ZM33.9882 44.1759C32.7042 44.1759 31.9722 43.4679 31.9722 41.5719C31.9722 40.3359 32.8122 39.6399 34.0362 39.6399C35.2002 39.6399 35.8602 40.1079 35.8602 41.7999C35.8602 43.4679 35.2482 44.1759 33.9882 44.1759ZM39.4247 45.0039C39.8687 45.0519 40.6127 45.0879 41.3807 45.0879C43.5527 45.0879 44.2967 44.3199 44.2967 42.7839C44.2967 41.1999 43.4447 40.6959 41.6087 40.6959C41.1407 40.6959 40.7807 40.7079 40.4207 40.7439V38.6439H37.8527V39.5799H39.4247V45.0039ZM40.4207 44.1399V41.5719C40.7207 41.5359 40.9727 41.5119 41.2247 41.5119C42.9407 41.5119 43.3007 41.8719 43.3007 42.8199C43.3007 43.8279 42.8927 44.1879 41.5607 44.1879C40.9847 44.1879 40.7447 44.1879 40.4207 44.1399ZM51.1312 42.1839V41.5359C51.1312 39.7359 50.4232 38.5239 48.4552 38.5239C46.5952 38.5239 45.5872 39.6519 45.5872 41.7279C45.5872 44.1759 46.6432 45.1359 48.6952 45.1359C49.6432 45.1359 50.3512 44.7999 50.6632 44.5719V43.5399C50.1952 43.9119 49.5232 44.2359 48.7192 44.2359C47.3272 44.2359 46.5952 43.5519 46.5952 42.1839H51.1312ZM48.4432 39.4239C49.6192 39.4239 50.1352 40.0239 50.1352 41.3199H46.5952C46.5952 40.0239 47.2792 39.4239 48.4432 39.4239ZM57.3596 45.0039H58.5716L55.8956 41.6679L58.3196 38.6439H57.1796L55.0556 41.3439H53.9996V38.6439H53.0036V45.0039H53.9996V42.1239H55.0436L57.3596 45.0039ZM61.2097 45.0039H62.2057V39.5799H64.2577V38.6439H59.1457V39.5799H61.2097V45.0039ZM66.6207 40.7439V38.6439H65.6247V45.0039C66.1767 45.0639 66.7527 45.0879 67.3047 45.0879C69.5487 45.0879 70.2447 44.0559 70.2447 42.7839C70.2447 41.3559 69.5247 40.6959 67.4967 40.6959C67.1967 40.6959 66.9327 40.7079 66.6207 40.7439ZM66.6207 44.1519V41.5719C66.8727 41.5359 67.0527 41.5119 67.3047 41.5119C68.9607 41.5119 69.2487 42.0639 69.2487 42.8199C69.2487 43.6359 68.8407 44.1879 67.4127 44.1879C67.0527 44.1879 66.9087 44.1759 66.6207 44.1519ZM71.1447 45.0039H72.1407V38.6439H71.1447V45.0039ZM13.2523 60.2999C13.0603 60.2999 12.8683 60.2519 12.7003 60.1559V61.1519C12.8323 61.2239 13.0123 61.2479 13.2643 61.2479C13.8763 61.2479 14.5123 61.1519 15.3523 58.7879L17.5483 52.6439H16.4803L14.8603 57.7199L12.9163 52.6439H11.7643L14.3443 59.0279C13.9603 60.1559 13.7083 60.2999 13.2523 60.2999ZM18.943 59.0039H19.939V53.5799H23.011V59.0039H24.007V52.6439H18.943V59.0039ZM26.3138 61.1639H27.3098V58.1519C27.6218 58.6799 28.2578 59.1359 29.3378 59.1359C31.0658 59.1359 31.9658 58.1639 31.9658 55.6919C31.9658 53.4359 31.1498 52.5239 29.5058 52.5239C28.3418 52.5239 27.6218 52.9319 27.2858 53.7599L27.2258 52.6439H26.3138V61.1639ZM27.3098 56.4479V55.1759C27.3098 54.1799 27.8858 53.4239 29.1458 53.4239C30.3338 53.4239 30.9698 54.0119 30.9698 55.7519C30.9698 57.5639 30.4658 58.2359 29.1338 58.2359C27.9698 58.2359 27.3098 57.5399 27.3098 56.4479ZM37.4495 59.0039H38.3615V54.6839C38.3615 53.0399 37.6055 52.5239 35.9255 52.5239C35.3135 52.5239 34.4135 52.6799 33.8855 52.9679V54.1199C34.3175 53.7599 35.0975 53.4359 35.8175 53.4359C36.8855 53.4359 37.3655 53.6759 37.3655 54.6959V55.2959H35.9375C34.1135 55.2959 33.4055 55.8359 33.4055 57.2399C33.4055 58.4639 34.1975 59.1359 35.4695 59.1359C36.3815 59.1359 37.0655 58.6679 37.3895 58.0919L37.4495 59.0039ZM34.4255 57.0839C34.4255 56.3159 34.7615 56.0279 35.9735 56.0279H37.3655V56.5679C37.3655 57.4919 36.8375 58.1759 35.6615 58.1759C34.7855 58.1759 34.4255 57.7679 34.4255 57.0839ZM40.5993 59.0159C41.0673 59.0519 42.0153 59.0999 42.8553 59.0999C44.9793 59.0999 45.6153 58.2959 45.6153 57.1079C45.6153 56.0519 45.1473 55.6919 44.0793 55.5959C44.9793 55.3439 45.3153 54.8759 45.3153 54.0599C45.3153 53.1479 44.7993 52.5599 42.7593 52.5599C41.7753 52.5599 41.0553 52.6079 40.5993 52.6319V59.0159ZM41.5953 58.1759V56.1599H43.0713C44.1513 56.1599 44.6193 56.3999 44.6193 57.1199C44.6193 57.9599 44.1993 58.2359 42.8913 58.2359C42.4353 58.2359 42.0033 58.2119 41.5953 58.1759ZM41.5953 55.3079V53.4359C41.8713 53.4239 42.2193 53.4239 42.8313 53.4239C43.9113 53.4239 44.3073 53.6279 44.3073 54.3479C44.3073 55.0079 43.8153 55.3079 43.0713 55.3079H41.5953ZM46.6979 59.0759C46.8779 59.1359 46.9859 59.1359 47.1779 59.1359C48.1259 59.1359 48.9659 58.4999 49.1099 53.9879L49.1219 53.6039H51.4499V59.0039H52.4459V52.6439H48.2219L48.1979 53.4719C48.0779 57.7559 47.5139 57.9359 47.0099 57.9359C46.8899 57.9359 46.8059 57.9239 46.6979 57.8879V59.0759ZM59.8792 56.1839V55.5359C59.8792 53.7359 59.1712 52.5239 57.2032 52.5239C55.3432 52.5239 54.3352 53.6519 54.3352 55.7279C54.3352 58.1759 55.3912 59.1359 57.4432 59.1359C58.3912 59.1359 59.0992 58.7999 59.4112 58.5719V57.5399C58.9432 57.9119 58.2712 58.2359 57.4672 58.2359C56.0752 58.2359 55.3432 57.5519 55.3432 56.1839H59.8792ZM57.1912 53.4239C58.3672 53.4239 58.8832 54.0239 58.8832 55.3199H55.3432C55.3432 54.0239 56.0272 53.4239 57.1912 53.4239ZM61.7516 59.0039H62.7476V56.2559H65.9156V59.0039H66.9116V52.6439H65.9156V55.3079H62.7476V52.6439H61.7516V59.0039ZM69.2165 59.0039H70.1045L72.5765 55.4759C72.9365 54.9959 73.3085 54.3839 73.5125 54.0119L73.5485 54.0239C73.5125 54.4679 73.4765 55.5119 73.4765 56.4359V59.0039H74.4725V52.6439H73.5965L71.1845 56.1359C70.8365 56.6159 70.4885 57.0959 70.1885 57.6119L70.1405 57.5879C70.1765 57.2759 70.2125 56.4839 70.2125 55.7399V52.6439H69.2165V59.0039ZM76.1031 59.0039H77.2551L78.8871 56.7239H80.4471V59.0039H81.4431V52.6679C80.9871 52.6079 80.1351 52.5839 79.4391 52.5839C77.2551 52.5839 76.5711 53.3159 76.5711 54.6719C76.5711 55.6079 76.8471 56.3879 77.8671 56.5559L76.1031 59.0039ZM80.4471 55.9439H79.1151C77.9991 55.9439 77.5671 55.6559 77.5671 54.6959C77.5671 53.7719 77.9031 53.4599 79.3551 53.4599C79.8951 53.4599 80.1471 53.4719 80.4471 53.5079V55.9439Z" fill="#A0A0B1"></path> </svg> 