<?xml version="1.0" encoding="UTF-8"?> <svg xmlns="http://www.w3.org/2000/svg" width="150" height="44" viewBox="0 0 150 44" fill="none"> <rect width="150" height="44" rx="4" fill="#4CD174"></rect> <path d="M26.134 28H29.014V15.4H17.494V28H20.374V18.1H26.134V28ZM35.9924 18.784C32.9144 18.802 31.0424 20.386 31.0424 23.482C31.0424 26.632 33.0584 28.216 35.8304 28.216C38.8904 28.198 40.7804 26.632 40.7804 23.518C40.7804 20.368 38.7644 18.784 35.9924 18.784ZM33.8324 23.464C33.8324 21.844 34.5884 21.16 35.9024 21.16C37.1264 21.178 37.9904 21.862 37.9904 23.482V23.536C37.9904 25.156 37.2344 25.84 35.9204 25.84C34.6784 25.84 33.8324 25.156 33.8324 23.518V23.464ZM41.4419 25.624V30.34H43.8359V28H49.4519V30.34H51.8279V25.624H50.5319V19H43.0439V20.026C43.0439 22.672 42.7919 24.364 42.3959 25.624H41.4419ZM45.5639 21.376H47.8319V25.624H44.9699C45.3479 24.418 45.5099 23.068 45.5639 21.376ZM54.7641 28H57.4641V21.376H60.3261V19H52.0281V21.376H54.7641V28ZM61.9055 28H66.8915C69.1775 28 70.3115 27.01 70.3115 25.336C70.3115 23.86 69.4655 23.284 68.3135 23.14C69.2855 22.906 69.8615 22.168 69.8615 21.142C69.8615 19.738 68.9615 19 66.9455 19H61.9055V28ZM64.6055 25.786V24.292H66.5135C67.3235 24.292 67.6115 24.544 67.6115 25.03C67.6115 25.552 67.3055 25.786 66.5495 25.786H64.6055ZM64.6055 22.564V21.232L66.1535 21.214C66.8195 21.214 67.1435 21.412 67.1435 21.844C67.1435 22.366 66.8015 22.564 66.2435 22.564H64.6055ZM79.7006 27.136V24.526C79.1966 25.264 78.1166 25.84 76.5506 25.84C75.0566 25.84 74.2646 25.246 74.0666 24.202H80.5106V23.446C80.5106 20.404 78.8906 18.784 76.1186 18.784C73.2206 18.802 71.3846 20.638 71.3846 23.464C71.3846 26.506 73.3106 28.216 76.4066 28.198C77.8826 28.216 79.3046 27.568 79.7006 27.136ZM76.0286 21.16C77.1266 21.16 77.6486 21.736 77.7566 22.456H74.1206C74.3726 21.628 75.0386 21.16 76.0286 21.16ZM82.2082 31.708H84.9082V26.722C85.3402 27.55 86.2042 28.198 87.5542 28.198C89.9122 28.198 91.6042 26.848 91.6042 23.302C91.6042 20.152 89.9122 18.838 87.7342 18.838C85.8982 18.838 85.0342 19.864 84.7462 20.818V19H82.2082V31.708ZM84.9082 23.14C84.9622 21.934 85.5202 21.214 86.9422 21.214C88.1122 21.214 88.8862 21.826 88.8862 23.392C88.8862 25.156 88.2742 25.822 86.8522 25.822C85.6102 25.822 84.9082 25.12 84.9082 23.716V23.14ZM92.2602 25.624V30.34H94.6542V28H100.27V30.34H102.646V25.624H101.35V19H93.8622V20.026C93.8622 22.672 93.6102 24.364 93.2142 25.624H92.2602ZM96.3822 21.376H98.6502V25.624H95.7882C96.1662 24.418 96.3282 23.068 96.3822 21.376ZM104.057 27.964H104.633V28H106.757L110.321 22.528V28H113.039V19.036H112.445V19H110.339L106.775 24.418V19H104.057V27.964ZM117.342 28H120.042V21.376H122.904V19H114.606V21.376H117.342V28ZM124.484 28H128.39C131.162 28 132.512 26.83 132.512 24.616C132.494 22.276 131.054 21.43 128.624 21.43H127.184V19H124.484V28ZM128.3 25.624H127.184V23.788H128.462C129.416 23.788 129.776 24.058 129.794 24.634C129.776 25.282 129.398 25.624 128.3 25.624Z" fill="white"></path> </svg> 