<?xml version="1.0" encoding="UTF-8"?> <svg xmlns="http://www.w3.org/2000/svg" width="122" height="123" viewBox="0 0 122 123" fill="none"> <path d="M61 122.027C94.6894 122.027 122 94.7127 122 61.0194C122 27.326 94.6894 0.012207 61 0.012207C27.3106 0.012207 0 27.326 0 61.0194C0 94.7127 27.3106 122.027 61 122.027Z" fill="white"></path> <path d="M12.792 66.9866C13.464 67.0986 14.616 67.1466 15.56 67.1466C18.84 67.1466 20.2 65.8186 20.2 63.3866C20.2 60.9066 18.84 60.1066 16.216 60.1066C15.672 60.1066 15 60.1386 14.232 60.2186V57.0986H19.496V55.8186H12.792V66.9866ZM14.232 65.7546V61.4986C14.808 61.4186 15.368 61.3866 15.848 61.3866C18.088 61.3866 18.696 61.8986 18.696 63.4506C18.696 65.0826 17.976 65.8506 15.656 65.8506C15.096 65.8506 14.648 65.8186 14.232 65.7546ZM27.6333 67.0186H28.8493V61.2586C28.8493 59.0666 27.8413 58.3786 25.6013 58.3786C24.7853 58.3786 23.5853 58.5866 22.8813 58.9706V60.5066C23.4573 60.0266 24.4973 59.5946 25.4573 59.5946C26.8813 59.5946 27.5213 59.9146 27.5213 61.2746V62.0746H25.6173C23.1853 62.0746 22.2413 62.7946 22.2413 64.6666C22.2413 66.2986 23.2973 67.1946 24.9933 67.1946C26.2093 67.1946 27.1213 66.5706 27.5533 65.8026L27.6333 67.0186ZM23.6013 64.4586C23.6013 63.4346 24.0493 63.0506 25.6653 63.0506H27.5213V63.7706C27.5213 65.0026 26.8173 65.9146 25.2493 65.9146C24.0813 65.9146 23.6013 65.3706 23.6013 64.4586ZM31.2569 66.6826C31.8969 67.0026 33.0649 67.1946 33.8329 67.1946C36.4729 67.1946 37.4969 66.3466 37.4969 64.4266C37.4969 63.2746 36.7929 62.6666 35.7529 62.6026C36.8089 62.2986 37.0969 61.6266 37.0969 60.4426C37.0969 59.1626 36.3609 58.3786 34.2649 58.3786C32.7289 58.3786 32.0089 58.6346 31.4169 58.8906V60.4426C32.0729 59.9306 32.7769 59.5626 34.0249 59.5626C35.3849 59.5626 35.7529 59.9626 35.7529 60.8266C35.7529 61.7546 35.2409 62.2186 34.0249 62.2186H32.7449V63.2746H33.8489C35.6249 63.2746 36.1689 63.5626 36.1689 64.5066C36.1689 65.5786 35.5129 65.9946 34.2169 65.9946C32.8569 65.9946 31.8169 65.4986 31.2569 65.0506V66.6826ZM44.8051 67.0186H46.0211V61.2586C46.0211 59.0666 45.0131 58.3786 42.7731 58.3786C41.9571 58.3786 40.7571 58.5866 40.0531 58.9706V60.5066C40.6291 60.0266 41.6691 59.5946 42.6291 59.5946C44.0531 59.5946 44.6931 59.9146 44.6931 61.2746V62.0746H42.7891C40.3571 62.0746 39.4131 62.7946 39.4131 64.6666C39.4131 66.2986 40.4691 67.1946 42.1651 67.1946C43.3811 67.1946 44.2931 66.5706 44.7251 65.8026L44.8051 67.0186ZM40.7731 64.4586C40.7731 63.4346 41.2211 63.0506 42.8371 63.0506H44.6931V63.7706C44.6931 65.0026 43.9891 65.9146 42.4211 65.9146C41.2531 65.9146 40.7731 65.3706 40.7731 64.4586ZM52.5856 69.0986H53.8336V67.0186H60.1216V69.0986H61.3696V65.7546H60.0896V58.5386H54.4416V59.4506C54.4416 62.4426 54.0896 64.5706 53.5456 65.7546H52.5856V69.0986ZM58.7616 65.7546H54.8576C55.4336 64.3786 55.6416 62.4266 55.6896 60.3786L55.7056 59.7866H58.7616V65.7546ZM68.227 67.0186H69.443V61.2586C69.443 59.0666 68.435 58.3786 66.195 58.3786C65.379 58.3786 64.179 58.5866 63.475 58.9706V60.5066C64.051 60.0266 65.091 59.5946 66.051 59.5946C67.475 59.5946 68.115 59.9146 68.115 61.2746V62.0746H66.211C63.779 62.0746 62.835 62.7946 62.835 64.6666C62.835 66.2986 63.891 67.1946 65.587 67.1946C66.803 67.1946 67.715 66.5706 68.147 65.8026L68.227 67.0186ZM64.195 64.4586C64.195 63.4346 64.643 63.0506 66.259 63.0506H68.115V63.7706C68.115 65.0026 67.411 65.9146 65.843 65.9146C64.675 65.9146 64.195 65.3706 64.195 64.4586ZM72.4266 67.0186H73.7546V63.3546H77.9786V67.0186H79.3066V58.5386H77.9786V62.0906H73.7546V58.5386H72.4266V67.0186ZM82.3798 67.0186H83.7078V63.3546H87.9318V67.0186H89.2598V58.5386H87.9318V62.0906H83.7078V58.5386H82.3798V67.0186ZM93.6609 61.3386V58.5386H92.3329V67.0186C93.0689 67.0986 93.8369 67.1306 94.5729 67.1306C97.5649 67.1306 98.4929 65.7546 98.4929 64.0586C98.4929 62.1546 97.5329 61.2746 94.8289 61.2746C94.4289 61.2746 94.0769 61.2906 93.6609 61.3386ZM93.6609 65.8826V62.4426C93.9969 62.3946 94.2369 62.3626 94.5729 62.3626C96.7809 62.3626 97.1649 63.0986 97.1649 64.1066C97.1649 65.1946 96.6209 65.9306 94.7169 65.9306C94.2369 65.9306 94.0449 65.9146 93.6609 65.8826ZM99.6929 67.0186H101.021V58.5386H99.6929V67.0186ZM102.963 67.0186H104.515L106.739 63.5786L108.963 67.0186H110.595L107.587 62.5706L110.403 58.5386H108.851L106.819 61.6586L104.787 58.5386H103.155L105.939 62.6826L102.963 67.0186Z" fill="#737688"></path> </svg> 