<?xml version="1.0" encoding="UTF-8"?> <svg xmlns="http://www.w3.org/2000/svg" width="335" height="56" viewBox="0 0 335 56" fill="none"> <rect width="335" height="56" rx="8" fill="#4CD174"></rect> <path d="M125.05 27.7273C125.05 22.919 122.011 20.2557 118.104 20.2557C114.184 20.2557 111.165 22.919 111.165 27.7273C111.165 32.5142 114.184 35.1989 118.104 35.1989C122.011 35.1989 125.05 32.5355 125.05 27.7273ZM121.457 27.7273C121.457 30.5753 120.207 32.1165 118.104 32.1165C116.009 32.1165 114.752 30.5753 114.752 27.7273C114.752 24.8793 116.009 23.3381 118.104 23.3381C120.207 23.3381 121.457 24.8793 121.457 27.7273ZM126.923 26.7472H130.368V35H133.663V26.7472H137.15V24.0909H126.923V26.7472ZM139.179 35H142.425V26.7472H145.742V35H149.03V24.0909H139.179V35ZM151.604 39.0909H155.077V33.2315H155.148C155.588 34.2401 156.568 35.1562 158.216 35.1562C160.631 35.1562 162.577 33.267 162.577 29.5526C162.577 25.7031 160.517 23.9489 158.237 23.9489C156.511 23.9489 155.567 24.9574 155.148 25.9588H155.041V24.0909H151.604V39.0909ZM155.006 29.5455C155.006 27.7628 155.744 26.6619 157.016 26.6619C158.301 26.6619 159.011 27.7912 159.011 29.5455C159.011 31.3068 158.301 32.4503 157.016 32.4503C155.744 32.4503 155.006 31.3139 155.006 29.5455ZM167.846 35.1847C169.366 35.1847 170.417 34.5952 171.014 33.4801H171.099V35H174.366V27.5852C174.366 25.277 172.313 23.9489 169.536 23.9489C166.603 23.9489 164.941 25.4261 164.664 27.4148L167.867 27.5284C168.017 26.8324 168.592 26.4062 169.508 26.4062C170.36 26.4062 170.9 26.8182 170.9 27.5497V27.5852C170.9 28.2528 170.176 28.3949 168.315 28.5582C166.106 28.7429 164.259 29.5597 164.259 31.9744C164.259 34.1335 165.758 35.1847 167.846 35.1847ZM168.919 32.9119C168.116 32.9119 167.548 32.5284 167.548 31.804C167.548 31.1009 168.102 30.6747 169.089 30.5256C169.735 30.4332 170.531 30.2912 170.921 30.0852V31.1222C170.921 32.1875 170.026 32.9119 168.919 32.9119ZM176.864 35H182.304C185.202 35 186.785 33.9347 186.785 32.0028C186.785 30.6605 185.706 29.4531 183.49 29.3324C185.166 29.0483 186.118 28.1889 186.118 27.0597C186.118 25.1207 184.385 24.0909 181.572 24.0909H176.864V35ZM180.095 32.4858V30.4332H182.304C183.035 30.4332 183.49 30.8381 183.49 31.4986C183.49 32.1165 183.035 32.4858 182.304 32.4858H180.095ZM180.095 28.5511V26.669H181.572C182.375 26.669 182.872 27.0241 182.872 27.5994C182.872 28.196 182.418 28.5511 181.665 28.5511H180.095ZM192.167 30.5043V24.0909H188.878V35H192.223L195.703 28.5653V35H198.992V24.0909H195.654L192.167 30.5043ZM200.632 26.7472H204.076V35H207.372V26.7472H210.859V24.0909H200.632V26.7472ZM216.176 27.2443V24.0909H212.888V35H218.236C221.233 35 223.037 33.5014 223.051 31.1577C223.037 28.7571 221.233 27.2443 218.236 27.2443H216.176ZM216.176 29.9006H218.236C219.145 29.9006 219.791 30.419 219.805 31.1506C219.791 31.8537 219.145 32.3438 218.236 32.3438H216.176V29.9006Z" fill="white"></path> </svg> 