<?xml version="1.0" encoding="UTF-8"?> <svg xmlns="http://www.w3.org/2000/svg" width="44" height="44" viewBox="0 0 44 44" fill="none"> <path d="M24 11H7.5V19.25H24V11Z" stroke="#515DAD" stroke-width="2" stroke-linecap="round" stroke-linejoin="round"></path> <path d="M29.5 37.1265L29.5 6.87646C29.5 6.11707 28.8844 5.50146 28.125 5.50146L3.375 5.50146C2.61561 5.50146 2 6.11707 2 6.87646L2 37.1265C2 37.8859 2.61561 38.5015 3.375 38.5015H28.125C28.8844 38.5015 29.5 37.8859 29.5 37.1265Z" stroke="#515DAD" stroke-width="2" stroke-linecap="round" stroke-linejoin="round"></path> <path d="M8.875 27.5C10.0141 27.5 10.9375 26.5766 10.9375 25.4375C10.9375 24.2984 10.0141 23.375 8.875 23.375C7.73591 23.375 6.8125 24.2984 6.8125 25.4375C6.8125 26.5766 7.73591 27.5 8.875 27.5Z" fill="#515DAD"></path> <path d="M8.875 34.375C10.0141 34.375 10.9375 33.4516 10.9375 32.3125C10.9375 31.1734 10.0141 30.25 8.875 30.25C7.73591 30.25 6.8125 31.1734 6.8125 32.3125C6.8125 33.4516 7.73591 34.375 8.875 34.375Z" fill="#515DAD"></path> <path d="M15.75 27.5C16.8891 27.5 17.8125 26.5766 17.8125 25.4375C17.8125 24.2984 16.8891 23.375 15.75 23.375C14.6109 23.375 13.6875 24.2984 13.6875 25.4375C13.6875 26.5766 14.6109 27.5 15.75 27.5Z" fill="#515DAD"></path> <path d="M15.75 34.375C16.8891 34.375 17.8125 33.4516 17.8125 32.3125C17.8125 31.1734 16.8891 30.25 15.75 30.25C14.6109 30.25 13.6875 31.1734 13.6875 32.3125C13.6875 33.4516 14.6109 34.375 15.75 34.375Z" fill="#515DAD"></path> <path d="M22.625 27.5C23.7641 27.5 24.6875 26.5766 24.6875 25.4375C24.6875 24.2984 23.7641 23.375 22.625 23.375C21.4859 23.375 20.5625 24.2984 20.5625 25.4375C20.5625 26.5766 21.4859 27.5 22.625 27.5Z" fill="#515DAD"></path> <path d="M22.625 34.375C23.7641 34.375 24.6875 33.4516 24.6875 32.3125C24.6875 31.1734 23.7641 30.25 22.625 30.25C21.4859 30.25 20.5625 31.1734 20.5625 32.3125C20.5625 33.4516 21.4859 34.375 22.625 34.375Z" fill="#515DAD"></path> </svg> 