<?xml version="1.0" encoding="UTF-8"?> <svg xmlns="http://www.w3.org/2000/svg" width="383" height="412" viewBox="0 0 383 412" fill="none"> <g clip-path="url(#clip0)"> <rect width="383" height="412" fill="white"></rect> <path d="M26.07 52.78C27.3 50.92 29.85 49.09 33.03 49.15C35.25 49.21 36.99 49.99 36.99 51.94C36.99 53.5 36.06 54.79 33.36 54.79H30.21V57.88H33.39C36.66 57.88 38.04 58.75 38.04 60.61C38.04 62.74 36 63.82 33.45 63.85C29.58 63.88 26.85 62.2 25.56 60.07V64.69C26.67 65.95 29.58 67.33 33.39 67.3C39.03 67.27 41.94 64.48 41.94 60.85C41.94 58.09 40.38 56.41 37.14 55.93C39.57 55.06 40.86 53.44 40.86 50.98C40.86 47.29 37.74 45.73 33.03 45.7C29.7 45.7 27.27 46.69 26.07 47.56V52.78ZM46.3757 57.43C47.3957 55.84 48.9857 54.76 51.7457 54.76C53.7557 54.76 54.7757 55.42 54.7757 57.55V58.21H51.3857C47.6957 58.21 45.2057 59.17 45.2057 62.59C45.2057 65.53 47.0057 67.24 50.0357 67.24C52.4357 67.24 54.2657 66.04 54.9857 64.3V67H58.2857V57.1C58.2857 53.2 56.1257 51.7 51.7457 51.7C49.1657 51.7 47.3657 52.3 46.3757 53.05V57.43ZM51.1457 64.09C49.5857 64.09 48.7457 63.37 48.7457 62.23C48.7457 60.88 49.7357 60.49 51.8057 60.49H54.7757V61.72C54.6257 62.74 53.5157 64.09 51.1457 64.09ZM71.8281 67H75.3381V52H68.9481C64.2981 52 62.1981 53.68 62.1981 57.43C62.1981 59.38 63.1581 60.85 64.9281 61.57L61.4481 67H65.3181L68.3481 62.05H71.8281V67ZM69.0381 55.09H71.8281V59.35H68.3781C66.5481 59.35 65.7381 58.66 65.7081 57.43C65.7081 55.69 66.6981 55.09 69.0381 55.09ZM79.9864 67H87.4564C91.3864 67 93.2764 65.44 93.2764 62.56C93.2764 60.01 91.8664 59.14 89.9464 58.9C91.5664 58.51 92.5264 57.28 92.5264 55.48C92.5264 53.23 91.1164 52 87.5464 52H79.9864V67ZM83.4964 64.09V60.58H87.3364C88.9564 60.58 89.7964 61 89.7964 62.32C89.7964 63.52 88.9864 64.09 87.1264 64.09H83.4964ZM83.4964 58.06V54.94L86.7364 54.91C88.2364 54.91 89.0164 55.24 89.0164 56.35C89.0164 57.61 88.0864 58.06 86.7064 58.06H83.4964ZM96.8545 67H100.365V60.79H102.765L107.475 67H111.735L105.645 59.08L110.895 52H106.995L102.795 57.85H100.365V52H96.8545V67ZM114.903 57.43C115.923 55.84 117.513 54.76 120.273 54.76C122.283 54.76 123.303 55.42 123.303 57.55V58.21H119.913C116.223 58.21 113.733 59.17 113.733 62.59C113.733 65.53 115.533 67.24 118.563 67.24C120.963 67.24 122.793 66.04 123.513 64.3V67H126.813V57.1C126.813 53.2 124.653 51.7 120.273 51.7C117.693 51.7 115.893 52.3 114.903 53.05V57.43ZM119.673 64.09C118.113 64.09 117.273 63.37 117.273 62.23C117.273 60.88 118.263 60.49 120.333 60.49H123.303V61.72C123.153 62.74 122.043 64.09 119.673 64.09Z" fill="#190B25"></path> <path d="M26.2017 130H28.4034V121.868H38.098V130H40.2997V111.818H38.098V119.915H28.4034V111.818H26.2017V130ZM50.5148 130.284C53.2847 130.284 55.3088 128.899 55.948 126.839L53.9239 126.271C53.3912 127.692 52.1572 128.402 50.5148 128.402C48.0556 128.402 46.36 126.813 46.2623 123.892H56.1611V123.004C56.1611 117.926 53.1426 116.186 50.3017 116.186C46.6086 116.186 44.1583 119.098 44.1583 123.288C44.1583 127.479 46.573 130.284 50.5148 130.284ZM46.2623 122.081C46.4044 119.959 47.9047 118.068 50.3017 118.068C52.5745 118.068 54.0304 119.773 54.0304 122.081H46.2623ZM67.1275 135.114H69.2227V127.905H69.4002C69.8619 128.651 70.7497 130.284 73.3775 130.284C76.7866 130.284 79.1659 127.55 79.1659 123.217C79.1659 118.92 76.7866 116.186 73.342 116.186C70.6786 116.186 69.8619 117.82 69.4002 118.53H69.1517V116.364H67.1275V135.114ZM69.1872 123.182C69.1872 120.128 70.5366 118.068 73.0934 118.068C75.7568 118.068 77.0707 120.305 77.0707 123.182C77.0707 126.094 75.7213 128.402 73.0934 128.402C70.5721 128.402 69.1872 126.271 69.1872 123.182ZM86.7487 130.32C89.1279 130.32 90.3708 129.041 90.797 128.153H90.9035V130H92.9987V121.016C92.9987 116.683 89.6961 116.186 87.956 116.186C85.8964 116.186 83.5526 116.896 82.4873 119.382L84.4759 120.092C84.9376 119.098 86.0296 118.033 88.0271 118.033C89.9536 118.033 90.9035 119.054 90.9035 120.803V120.874C90.9035 121.886 89.8737 121.797 87.3879 122.116C84.8577 122.445 82.0967 123.004 82.0967 126.129C82.0967 128.793 84.1563 130.32 86.7487 130.32ZM87.0683 128.438C85.3992 128.438 84.1918 127.692 84.1918 126.236C84.1918 124.638 85.6478 124.141 87.2813 123.928C88.1691 123.821 90.5484 123.572 90.9035 123.146V125.064C90.9035 126.768 89.5541 128.438 87.0683 128.438ZM107.318 111.25C106.652 111.809 105.657 111.809 104.264 111.8C103.811 111.8 103.314 111.8 102.772 111.818C98.6173 111.925 96.5576 115.085 96.5576 121.158V122.614C96.5576 127.656 99.0079 130.284 102.666 130.284C106.314 130.284 108.738 127.638 108.738 123.359C108.738 119.062 106.279 116.79 103.092 116.79C101.218 116.79 99.4695 117.571 98.5462 119.276H98.3687C98.6528 115.76 99.9667 113.878 102.808 113.771C105.329 113.665 107.14 113.736 108.383 112.528L107.318 111.25ZM102.666 128.402C100.18 128.402 98.6528 126.413 98.6528 123.359C98.6972 120.376 100.198 118.672 102.63 118.672C105.125 118.672 106.643 120.376 106.643 123.359C106.643 126.431 105.134 128.402 102.666 128.402ZM117.857 130.284C121.55 130.284 124.036 127.479 124.036 123.253C124.036 118.991 121.55 116.186 117.857 116.186C114.163 116.186 111.678 118.991 111.678 123.253C111.678 127.479 114.163 130.284 117.857 130.284ZM117.857 128.402C115.051 128.402 113.773 125.987 113.773 123.253C113.773 120.518 115.051 118.068 117.857 118.068C120.662 118.068 121.94 120.518 121.94 123.253C121.94 125.987 120.662 128.402 117.857 128.402ZM125.826 118.317H130.336V130H132.431V118.317H136.905V116.364H125.826V118.317ZM143.64 130.32C146.019 130.32 147.262 129.041 147.688 128.153H147.795V130H149.89V121.016C149.89 116.683 146.588 116.186 144.848 116.186C142.788 116.186 140.444 116.896 139.379 119.382L141.367 120.092C141.829 119.098 142.921 118.033 144.919 118.033C146.845 118.033 147.795 119.054 147.795 120.803V120.874C147.795 121.886 146.765 121.797 144.279 122.116C141.749 122.445 138.988 123.004 138.988 126.129C138.988 128.793 141.048 130.32 143.64 130.32ZM143.96 128.438C142.291 128.438 141.083 127.692 141.083 126.236C141.083 124.638 142.539 124.141 144.173 123.928C145.061 123.821 147.44 123.572 147.795 123.146V125.064C147.795 126.768 146.446 128.438 143.96 128.438ZM159.806 130.284C162.576 130.284 164.6 128.899 165.239 126.839L163.215 126.271C162.682 127.692 161.448 128.402 159.806 128.402C157.346 128.402 155.651 126.813 155.553 123.892H165.452V123.004C165.452 117.926 162.433 116.186 159.593 116.186C155.899 116.186 153.449 119.098 153.449 123.288C153.449 127.479 155.864 130.284 159.806 130.284ZM155.553 122.081C155.695 119.959 157.196 118.068 159.593 118.068C161.865 118.068 163.321 119.773 163.321 122.081H155.553ZM167.744 118.317H172.254V130H174.349V118.317H178.823V116.364H167.744V118.317ZM195.198 130.284C198.217 130.284 200.205 128.438 200.561 126.023H198.465C198.075 127.514 196.832 128.402 195.198 128.402C192.713 128.402 191.115 126.342 191.115 123.182C191.115 120.092 192.748 118.068 195.198 118.068C197.045 118.068 198.146 119.205 198.465 120.447H200.561C200.205 117.891 198.039 116.186 195.163 116.186C191.47 116.186 189.019 119.098 189.019 123.253C189.019 127.337 191.363 130.284 195.198 130.284ZM203.997 130H210.425C213.195 130 214.864 128.438 214.864 126.342C214.864 124.203 213.239 123.049 211.739 122.827C213.275 122.507 214.367 121.646 214.367 119.986C214.367 117.811 212.502 116.364 209.573 116.364H203.997V130ZM205.986 128.082V123.892H210.425C211.863 123.892 212.733 124.753 212.733 126.165C212.733 127.354 211.863 128.082 210.425 128.082H205.986ZM205.986 122.081V118.281H209.573C211.251 118.281 212.272 118.983 212.272 120.128C212.272 121.344 211.251 122.081 209.573 122.081H205.986ZM224.127 130.284C226.897 130.284 228.921 128.899 229.56 126.839L227.536 126.271C227.003 127.692 225.769 128.402 224.127 128.402C221.668 128.402 219.972 126.813 219.874 123.892H229.773V123.004C229.773 117.926 226.755 116.186 223.914 116.186C220.221 116.186 217.77 119.098 217.77 123.288C217.77 127.479 220.185 130.284 224.127 130.284ZM219.874 122.081C220.016 119.959 221.517 118.068 223.914 118.068C226.186 118.068 227.642 119.773 227.642 122.081H219.874ZM232.065 118.317H236.575V130H238.67V118.317H243.144V116.364H232.065V118.317ZM31.4574 162.284C34.4759 162.284 36.4645 160.438 36.8196 158.023H34.7244C34.3338 159.514 33.0909 160.402 31.4574 160.402C28.9716 160.402 27.3736 158.342 27.3736 155.182C27.3736 152.092 29.0071 150.068 31.4574 150.068C33.304 150.068 34.4048 151.205 34.7244 152.447H36.8196C36.4645 149.891 34.2983 148.186 31.4219 148.186C27.7287 148.186 25.2784 151.098 25.2784 155.253C25.2784 159.337 27.6222 162.284 31.4574 162.284ZM54.0182 143.818H51.8165L47.2711 146.837V149.074L51.71 146.126H51.8165V162H54.0182V143.818ZM74.5194 159.159L69.8319 148.364H67.062V162H69.1572V151.373L73.6672 162H75.3717L79.8817 151.569V162H81.9768V148.364H79.278L74.5194 159.159ZM90.1988 162.32C92.5781 162.32 93.821 161.041 94.2471 160.153H94.3537V162H96.4488V153.016C96.4488 148.683 93.1463 148.186 91.4062 148.186C89.3466 148.186 87.0028 148.896 85.9375 151.382L87.9261 152.092C88.3878 151.098 89.4797 150.033 91.4772 150.033C93.4037 150.033 94.3537 151.054 94.3537 152.803V152.874C94.3537 153.886 93.3238 153.797 90.838 154.116C88.3079 154.445 85.5468 155.004 85.5468 158.129C85.5468 160.793 87.6065 162.32 90.1988 162.32ZM90.5184 160.438C88.8494 160.438 87.642 159.692 87.642 158.236C87.642 156.638 89.098 156.141 90.7315 155.928C91.6193 155.821 93.9986 155.572 94.3537 155.146V157.064C94.3537 158.768 93.0042 160.438 90.5184 160.438ZM100.647 167.114H102.742V159.905H102.92C103.381 160.651 104.269 162.284 106.897 162.284C110.306 162.284 112.685 159.55 112.685 155.217C112.685 150.92 110.306 148.186 106.861 148.186C104.198 148.186 103.381 149.82 102.92 150.53H102.671V148.364H100.647V167.114ZM102.707 155.182C102.707 152.128 104.056 150.068 106.613 150.068C109.276 150.068 110.59 152.305 110.59 155.182C110.59 158.094 109.241 160.402 106.613 160.402C104.092 160.402 102.707 158.271 102.707 155.182ZM114.473 150.317H118.983V162H121.078V150.317H125.553V148.364H114.473V150.317ZM132.288 162.32C134.667 162.32 135.91 161.041 136.336 160.153H136.442V162H138.538V153.016C138.538 148.683 135.235 148.186 133.495 148.186C131.435 148.186 129.092 148.896 128.026 151.382L130.015 152.092C130.477 151.098 131.569 150.033 133.566 150.033C135.493 150.033 136.442 151.054 136.442 152.803V152.874C136.442 153.886 135.413 153.797 132.927 154.116C130.397 154.445 127.636 155.004 127.636 158.129C127.636 160.793 129.695 162.32 132.288 162.32ZM132.607 160.438C130.938 160.438 129.731 159.692 129.731 158.236C129.731 156.638 131.187 156.141 132.82 155.928C133.708 155.821 136.087 155.572 136.442 155.146V157.064C136.442 158.768 135.093 160.438 132.607 160.438ZM145.861 159.514H143.588L143.481 160.509C143.224 162.914 142.718 165.311 142.487 166.439H144.085C144.511 165.232 145.417 162.497 145.719 160.473L145.861 159.514ZM157.522 162H159.617V156.247H161.499L165.974 162H168.672L163.097 154.933L168.601 148.364H165.903L161.002 154.294H159.617V148.364H157.522V162ZM176.302 162.284C179.995 162.284 182.481 159.479 182.481 155.253C182.481 150.991 179.995 148.186 176.302 148.186C172.609 148.186 170.123 150.991 170.123 155.253C170.123 159.479 172.609 162.284 176.302 162.284ZM176.302 160.402C173.496 160.402 172.218 157.987 172.218 155.253C172.218 152.518 173.496 150.068 176.302 150.068C179.107 150.068 180.386 152.518 180.386 155.253C180.386 157.987 179.107 160.402 176.302 160.402ZM194.469 148.364H186.053V162H188.148V150.317H194.469V148.364ZM195.298 165.906H197.393V162H207.479V165.906H209.574V160.047H207.479V148.364H198.814L198.352 153.761C198.024 157.579 197.535 158.893 196.435 160.047H195.298V165.906ZM198.814 160.047C199.773 158.786 200.119 156.611 200.412 153.761L200.767 150.317H205.383V160.047H198.814ZM216.742 162.32C219.121 162.32 220.364 161.041 220.79 160.153H220.896V162H222.992V153.016C222.992 148.683 219.689 148.186 217.949 148.186C215.889 148.186 213.546 148.896 212.48 151.382L214.469 152.092C214.93 151.098 216.022 150.033 218.02 150.033C219.946 150.033 220.896 151.054 220.896 152.803V152.874C220.896 153.886 219.867 153.797 217.381 154.116C214.851 154.445 212.09 155.004 212.09 158.129C212.09 160.793 214.149 162.32 216.742 162.32ZM217.061 160.438C215.392 160.438 214.185 159.692 214.185 158.236C214.185 156.638 215.641 156.141 217.274 155.928C218.162 155.821 220.541 155.572 220.896 155.146V157.064C220.896 158.768 219.547 160.438 217.061 160.438ZM234.595 162H236.69V150.317H243.224V162H245.319V148.364H234.595V162ZM255.059 162.284C258.753 162.284 261.238 159.479 261.238 155.253C261.238 150.991 258.753 148.186 255.059 148.186C251.366 148.186 248.881 150.991 248.881 155.253C248.881 159.479 251.366 162.284 255.059 162.284ZM255.059 160.402C252.254 160.402 250.976 157.987 250.976 155.253C250.976 152.518 252.254 150.068 255.059 150.068C257.865 150.068 259.143 152.518 259.143 155.253C259.143 157.987 257.865 160.402 255.059 160.402ZM275.322 148.364H273.227V155.279C272.215 155.572 271.176 155.75 269.924 155.75C268.22 155.75 266.906 154.791 266.906 152.696V148.328H264.811V152.696C264.811 156.034 266.835 157.703 269.924 157.703C271.212 157.703 272.241 157.534 273.227 157.241V162H275.322V148.364ZM281.635 158.911V148.364H279.54V162H281.99L288.525 151.453V162H290.62V148.364H288.205L281.635 158.911ZM296.926 148.364H294.831V162H296.926V156.176H303.46V162H305.556V148.364H303.46V154.223H296.926V148.364Z" fill="#190B25"></path> <path d="M312.81 137.959H311.034V167.859H312.81V137.959Z" fill="#2F72F5"></path> <path d="M34.7734 218V206.727H25.0156V218H27.375V208.672H32.4141V218H34.7734ZM36.9756 220.734H39.2568V216.57H39.3037C39.7568 217.562 40.6943 218.172 41.8974 218.172C43.9912 218.172 45.2802 216.531 45.2802 213.812V213.805C45.2802 211.078 43.9912 209.453 41.8662 209.453C40.6709 209.453 39.7646 210.07 39.3037 211.086H39.2568V209.625H36.9756V220.734ZM41.1084 216.281C40.0068 216.281 39.2412 215.328 39.2412 213.82V213.812C39.2412 212.297 40.0068 211.344 41.1084 211.344C42.2412 211.344 42.9599 212.273 42.9599 213.805V213.812C42.9599 215.336 42.249 216.281 41.1084 216.281ZM46.9746 218H49.2089L52.5058 212.703H52.5917V218H54.8339V209.625H52.5996L49.2949 214.852H49.2167V209.625H46.9746V218ZM59.4033 214.484L62.0204 218H64.7626L61.3798 213.508L64.5673 209.625H61.9736L59.4033 212.914H59.1298V209.625H56.8486V218H59.1298V214.484H59.4033ZM66.1288 220.734H68.4101V216.57H68.4569C68.9101 217.562 69.8476 218.172 71.0507 218.172C73.1444 218.172 74.4335 216.531 74.4335 213.812V213.805C74.4335 211.078 73.1444 209.453 71.0194 209.453C69.8241 209.453 68.9179 210.07 68.4569 211.086H68.4101V209.625H66.1288V220.734ZM70.2616 216.281C69.1601 216.281 68.3944 215.328 68.3944 213.82V213.812C68.3944 212.297 69.1601 211.344 70.2616 211.344C71.3944 211.344 72.1132 212.273 72.1132 213.805V213.812C72.1132 215.336 71.4022 216.281 70.2616 216.281ZM79.9247 218.172C82.3075 218.172 83.4637 216.758 83.7294 215.523L83.745 215.438H81.6512L81.6356 215.484C81.4794 215.953 80.9091 216.469 79.9716 216.469C78.8075 216.469 78.0809 215.688 78.0497 214.352H83.8153V213.648C83.8153 211.117 82.2841 209.453 79.8309 209.453C77.37 209.453 75.7997 211.156 75.7997 213.82V213.828C75.7997 216.508 77.3544 218.172 79.9247 218.172ZM79.87 211.156C80.8075 211.156 81.4872 211.758 81.6278 212.914H78.0809C78.2294 211.781 78.9247 211.156 79.87 211.156ZM85.5018 218H87.7831V211.344H90.9081V218H93.1893V209.625H85.5018V218ZM98.2977 214.117L98.4696 211.352H100.774V218H103.056V209.625H96.5086L96.2586 213.93C96.1727 215.43 95.8993 216.109 95.0868 216.109C94.8758 216.109 94.7196 216.086 94.6258 216.062V217.977C94.7586 218.016 95.0555 218.078 95.4774 218.078C97.5321 218.078 98.1493 216.539 98.2977 214.117ZM107.148 208.516C107.781 208.516 108.265 208.023 108.265 207.422C108.265 206.82 107.781 206.328 107.148 206.328C106.515 206.328 106.023 206.82 106.023 207.422C106.023 208.023 106.515 208.516 107.148 208.516ZM110.523 208.516C111.156 208.516 111.648 208.023 111.648 207.422C111.648 206.82 111.156 206.328 110.523 206.328C109.89 206.328 109.398 206.82 109.398 207.422C109.398 208.023 109.89 208.516 110.523 208.516ZM108.875 218.172C111.258 218.172 112.414 216.758 112.679 215.523L112.695 215.438H110.601L110.586 215.484C110.429 215.953 109.859 216.469 108.922 216.469C107.758 216.469 107.031 215.688 107 214.352H112.765V213.648C112.765 211.117 111.234 209.453 108.781 209.453C106.32 209.453 104.75 211.156 104.75 213.82V213.828C104.75 216.508 106.304 218.172 108.875 218.172ZM108.82 211.156C109.758 211.156 110.437 211.758 110.578 212.914H107.031C107.179 211.781 107.875 211.156 108.82 211.156ZM119.936 218H122.218V209.625H119.936V212.844H116.733V209.625H114.452V218H116.733V214.57H119.936V218ZM129.717 218H131.998V209.625H129.717V212.844H126.513V209.625H124.232V218H126.513V214.57H129.717V218ZM134.012 218H137.919C139.895 218 141.161 216.844 141.161 215.031V215.016C141.161 213.203 139.895 212.047 137.919 212.047H136.294V209.625H134.012V218ZM142.051 218H144.333V209.625H142.051V218ZM137.505 213.766C138.325 213.766 138.841 214.25 138.841 215.016V215.031C138.841 215.789 138.325 216.281 137.505 216.281H136.294V213.766H137.505ZM150.136 218.172C152.519 218.172 153.675 216.758 153.941 215.523L153.957 215.438H151.863L151.847 215.484C151.691 215.953 151.121 216.469 150.183 216.469C149.019 216.469 148.293 215.688 148.261 214.352H154.027V213.648C154.027 211.117 152.496 209.453 150.043 209.453C147.582 209.453 146.011 211.156 146.011 213.82V213.828C146.011 216.508 147.566 218.172 150.136 218.172ZM150.082 211.156C151.019 211.156 151.699 211.758 151.84 212.914H148.293C148.441 211.781 149.136 211.156 150.082 211.156ZM163.486 220.734H165.713V218.117C168.455 218.062 170.244 216.422 170.244 213.82V213.805C170.244 211.164 168.478 209.562 165.713 209.5V206.969H163.486V209.5C160.736 209.562 158.947 211.195 158.947 213.797V213.812C158.947 216.453 160.713 218.055 163.486 218.117V220.734ZM163.509 216.398C162.127 216.352 161.259 215.414 161.259 213.82V213.805C161.259 212.219 162.142 211.266 163.509 211.227V216.398ZM165.689 216.398V211.227C167.064 211.266 167.939 212.203 167.939 213.805V213.82C167.939 215.398 167.056 216.359 165.689 216.398ZM174.423 218.133C175.516 218.133 176.407 217.609 176.891 216.75H176.938V218H179.219V212.258C179.219 210.57 177.813 209.453 175.657 209.453C173.438 209.453 172.11 210.562 171.985 212.109L171.977 212.203H174.063L174.079 212.133C174.196 211.594 174.704 211.195 175.555 211.195C176.454 211.195 176.938 211.656 176.938 212.398V212.914L174.868 213.039C172.782 213.172 171.602 214.062 171.602 215.586V215.602C171.602 217.078 172.743 218.133 174.423 218.133ZM173.86 215.484V215.469C173.86 214.875 174.329 214.5 175.212 214.445L176.938 214.336V214.938C176.938 215.812 176.18 216.469 175.157 216.469C174.376 216.469 173.86 216.102 173.86 215.484ZM185.171 208.758C187 208.758 188.148 207.773 188.148 206.219V206.141H186.429V206.211C186.429 206.867 185.961 207.422 185.179 207.422C184.382 207.422 183.921 206.867 183.921 206.211V206.141H182.211V206.219C182.211 207.773 183.351 208.758 185.171 208.758ZM181.195 218H183.429L186.726 212.703H186.812V218H189.054V209.625H186.82L183.515 214.852H183.437V209.625H181.195V218ZM194.163 214.117L194.335 211.352H196.639V218H198.921V209.625H192.374L192.124 213.93C192.038 215.43 191.764 216.109 190.952 216.109C190.741 216.109 190.585 216.086 190.491 216.062V217.977C190.624 218.016 190.921 218.078 191.342 218.078C193.397 218.078 194.014 216.539 194.163 214.117ZM200.943 218H204.849C206.826 218 208.091 216.844 208.091 215.031V215.016C208.091 213.203 206.826 212.047 204.849 212.047H203.224V209.625H200.943V218ZM208.982 218H211.263V209.625H208.982V218ZM204.435 213.766C205.255 213.766 205.771 214.25 205.771 215.016V215.031C205.771 215.789 205.255 216.281 204.435 216.281H203.224V213.766H204.435Z" fill="#190B25"></path> <rect width="375" height="47.5" transform="translate(4 244)" fill="white"></rect> <path d="M59.9951 273.232C61.8203 273.232 62.9004 272.125 62.9004 270.259V263.136H61.6699V270.245C61.6699 271.448 61.082 272.098 59.9883 272.098C59.0107 272.098 58.5254 271.476 58.4502 270.73L58.4434 270.662H57.2129L57.2197 270.758C57.3223 272.173 58.2861 273.232 59.9951 273.232ZM67.5283 273.232C69.3535 273.232 70.4336 272.125 70.4336 270.259V263.136H69.2031V270.245C69.2031 271.448 68.6152 272.098 67.5215 272.098C66.5439 272.098 66.0586 271.476 65.9834 270.73L65.9766 270.662H64.7461L64.7529 270.758C64.8555 272.173 65.8193 273.232 67.5283 273.232ZM72.6963 269.582H77.29V268.475H72.6963V269.582ZM82.6973 273.232C84.8779 273.232 86.1904 271.243 86.1904 268.071V268.058C86.1904 264.886 84.8779 262.903 82.6973 262.903C80.5166 262.903 79.2178 264.886 79.2178 268.058V268.071C79.2178 271.243 80.5166 273.232 82.6973 273.232ZM82.6973 272.159C81.2822 272.159 80.4551 270.587 80.4551 268.071V268.058C80.4551 265.542 81.2822 263.983 82.6973 263.983C84.1123 263.983 84.9531 265.542 84.9531 268.058V268.071C84.9531 270.587 84.1123 272.159 82.6973 272.159ZM91.5156 273.232C93.6963 273.232 95.0088 271.243 95.0088 268.071V268.058C95.0088 264.886 93.6963 262.903 91.5156 262.903C89.335 262.903 88.0361 264.886 88.0361 268.058V268.071C88.0361 271.243 89.335 273.232 91.5156 273.232ZM91.5156 272.159C90.1006 272.159 89.2734 270.587 89.2734 268.071V268.058C89.2734 265.542 90.1006 263.983 91.5156 263.983C92.9307 263.983 93.7715 265.542 93.7715 268.058V268.071C93.7715 270.587 92.9307 272.159 91.5156 272.159ZM100.334 273.232C102.515 273.232 103.827 271.243 103.827 268.071V268.058C103.827 264.886 102.515 262.903 100.334 262.903C98.1533 262.903 96.8545 264.886 96.8545 268.058V268.071C96.8545 271.243 98.1533 273.232 100.334 273.232ZM100.334 272.159C98.9189 272.159 98.0918 270.587 98.0918 268.071V268.058C98.0918 265.542 98.9189 263.983 100.334 263.983C101.749 263.983 102.59 265.542 102.59 268.058V268.071C102.59 270.587 101.749 272.159 100.334 272.159ZM105.851 273H112.235V271.893H107.56V271.783L109.802 269.466C111.586 267.627 112.071 266.807 112.071 265.679V265.665C112.071 264.072 110.752 262.903 109.029 262.903C107.143 262.903 105.789 264.161 105.782 265.911L105.796 265.918L106.972 265.925L106.979 265.911C106.979 264.749 107.765 263.977 108.947 263.977C110.109 263.977 110.813 264.756 110.813 265.795V265.809C110.813 266.67 110.444 267.183 109.187 268.543L105.851 272.152V273ZM117.656 273.164C119.632 273.164 121.081 271.947 121.081 270.3V270.286C121.081 268.885 120.104 267.989 118.668 267.866V267.839C119.898 267.579 120.76 266.745 120.76 265.528V265.515C120.76 264.018 119.522 262.972 117.643 262.972C115.797 262.972 114.525 264.045 114.368 265.651L114.361 265.72H115.544L115.551 265.651C115.653 264.653 116.48 264.038 117.643 264.038C118.846 264.038 119.522 264.633 119.522 265.665V265.679C119.522 266.663 118.702 267.388 117.526 267.388H116.344V268.427H117.581C118.962 268.427 119.83 269.104 119.83 270.313V270.327C119.83 271.373 118.948 272.098 117.656 272.098C116.344 272.098 115.448 271.428 115.353 270.457L115.346 270.389H114.163L114.17 270.471C114.3 272.029 115.619 273.164 117.656 273.164ZM122.981 269.582H127.575V268.475H122.981V269.582ZM132.716 273.13C134.814 273.13 136.113 271.681 136.113 269.322V269.309C136.113 266.943 134.814 265.501 132.716 265.501C130.617 265.501 129.318 266.943 129.318 269.309V269.322C129.318 271.681 130.617 273.13 132.716 273.13ZM132.716 272.077C131.321 272.077 130.535 271.059 130.535 269.322V269.309C130.535 267.565 131.321 266.554 132.716 266.554C134.11 266.554 134.896 267.565 134.896 269.309V269.322C134.896 271.059 134.11 272.077 132.716 272.077ZM137.959 273H139.148V268.639C139.148 267.347 139.894 266.554 141.069 266.554C142.245 266.554 142.792 267.189 142.792 268.516V273H143.981V268.229C143.981 266.479 143.059 265.501 141.404 265.501C140.317 265.501 139.627 265.959 139.258 266.738H139.148V265.631H137.959V273ZM146.032 269.582H150.626V268.475H146.032V269.582ZM152.738 273H153.928V268.434C153.928 267.395 154.659 266.554 155.623 266.554C156.553 266.554 157.154 267.121 157.154 267.996V273H158.344V268.263C158.344 267.326 159.021 266.554 160.046 266.554C161.085 266.554 161.584 267.094 161.584 268.181V273H162.773V267.907C162.773 266.362 161.933 265.501 160.429 265.501C159.41 265.501 158.569 266.014 158.173 266.793H158.063C157.722 266.027 157.024 265.501 156.026 265.501C155.062 265.501 154.365 265.959 154.037 266.752H153.928V265.631H152.738V273ZM166.943 273.13C167.935 273.13 168.707 272.699 169.172 271.913H169.281V273H170.471V267.955C170.471 266.424 169.466 265.501 167.668 265.501C166.096 265.501 164.975 266.28 164.783 267.436L164.776 267.477H165.966L165.973 267.456C166.164 266.882 166.745 266.554 167.627 266.554C168.728 266.554 169.281 267.046 169.281 267.955V268.625L167.169 268.755C165.453 268.857 164.482 269.616 164.482 270.929V270.942C164.482 272.282 165.542 273.13 166.943 273.13ZM165.699 270.915V270.901C165.699 270.17 166.191 269.773 167.312 269.705L169.281 269.582V270.252C169.281 271.305 168.399 272.098 167.189 272.098C166.335 272.098 165.699 271.66 165.699 270.915Z" fill="#190B25"></path> <path d="M173.615 273.068C174.107 273.068 174.504 272.665 174.504 272.18C174.504 271.688 174.107 271.291 173.615 271.291C173.13 271.291 172.727 271.688 172.727 272.18C172.727 272.665 173.13 273.068 173.615 273.068ZM176.801 275.461H177.99V271.838H178.1C178.503 272.624 179.385 273.13 180.396 273.13C182.27 273.13 183.486 271.633 183.486 269.322V269.309C183.486 267.012 182.263 265.501 180.396 265.501C179.371 265.501 178.551 265.986 178.1 266.807H177.99V265.631H176.801V275.461ZM180.123 272.077C178.783 272.077 177.963 271.024 177.963 269.322V269.309C177.963 267.606 178.783 266.554 180.123 266.554C181.47 266.554 182.27 267.593 182.27 269.309V269.322C182.27 271.038 181.47 272.077 180.123 272.077ZM185.346 273H186.535V268.639C186.535 267.347 187.28 266.554 188.456 266.554C189.632 266.554 190.179 267.189 190.179 268.516V273H191.368V268.229C191.368 266.479 190.445 265.501 188.791 265.501C187.704 265.501 187.014 265.959 186.645 266.738H186.535V265.631H185.346V273ZM196.557 275.598C198.566 275.598 199.838 274.545 199.838 272.897V265.631H198.648V266.848H198.566C198.115 266.014 197.309 265.501 196.27 265.501C194.342 265.501 193.152 266.998 193.152 269.062V269.076C193.152 271.141 194.335 272.617 196.242 272.617C197.254 272.617 198.088 272.159 198.553 271.346H198.662V272.836C198.662 273.923 197.876 274.545 196.557 274.545C195.497 274.545 194.841 274.148 194.711 273.588L194.704 273.581H193.474L193.46 273.588C193.645 274.798 194.779 275.598 196.557 275.598ZM196.502 271.564C195.135 271.564 194.369 270.539 194.369 269.076V269.062C194.369 267.6 195.135 266.554 196.502 266.554C197.862 266.554 198.689 267.6 198.689 269.062V269.076C198.689 270.539 197.869 271.564 196.502 271.564Z" fill="#ADADAD"></path> <rect width="24.2887" height="24" transform="translate(24 256)" fill="white"></rect> <rect x="29.0479" y="261" width="14.1924" height="14" rx="3" stroke="#190B25" stroke-width="2"></rect> <path d="M39.1929 268C39.1929 269.646 37.8395 271 36.1448 271C34.4501 271 33.0967 269.646 33.0967 268C33.0967 266.354 34.4501 265 36.1448 265C37.8395 265 39.1929 266.354 39.1929 268Z" stroke="#190B25" stroke-width="2"></path> <rect x="24" y="290" width="335" height="0.5" fill="#D6D6D6"></rect> </g> <defs> <clipPath id="clip0"> <rect width="383" height="412" fill="white"></rect> </clipPath> </defs> </svg> 