<?xml version="1.0" encoding="UTF-8"?> <svg xmlns="http://www.w3.org/2000/svg" width="281" height="243" viewBox="0 0 281 243" fill="none"> <path d="M136.923 127.785C136.935 127.796 136.941 127.819 136.941 127.851C136.941 127.893 136.927 127.939 136.899 127.988C136.875 128.035 136.842 128.07 136.802 128.093L136.179 128.457C136.131 128.485 136.095 128.497 136.07 128.492C136.046 128.483 136.022 128.467 135.998 128.443L134.958 127.125L134.383 127.46V129.336C134.383 129.383 134.369 129.431 134.341 129.48C134.317 129.527 134.283 129.563 134.238 129.589L133.688 129.91C133.648 129.933 133.613 129.937 133.585 129.921C133.557 129.905 133.543 129.873 133.543 129.826V125.269C133.543 125.218 133.555 125.169 133.579 125.122C133.607 125.073 133.644 125.036 133.688 125.01L134.238 124.689C134.283 124.663 134.317 124.659 134.341 124.678C134.369 124.694 134.383 124.728 134.383 124.779V126.585L134.915 126.282L135.895 123.848C135.935 123.741 136.008 123.657 136.113 123.595L136.711 123.246C136.752 123.223 136.782 123.219 136.802 123.235C136.826 123.249 136.838 123.277 136.838 123.319C136.838 123.338 136.83 123.371 136.814 123.417L135.671 126.219L136.923 127.785ZM137.334 127.783C137.301 127.802 137.271 127.806 137.243 127.794C137.219 127.78 137.207 127.752 137.207 127.71L137.219 127.64L138.676 122.275C138.704 122.142 138.775 122.043 138.887 121.977L139.547 121.592C139.651 121.531 139.722 121.548 139.758 121.644L141.215 125.309C141.219 125.32 141.221 125.34 141.221 125.368C141.221 125.41 141.209 125.452 141.185 125.494C141.161 125.537 141.133 125.567 141.1 125.586L140.574 125.893C140.522 125.923 140.482 125.933 140.454 125.921C140.425 125.91 140.407 125.89 140.399 125.862L140.115 125.174L138.319 126.221L138.035 127.241C138.003 127.349 137.944 127.427 137.86 127.476L137.334 127.783ZM139.903 124.492L139.214 122.731L138.531 125.293L139.903 124.492ZM141.931 125.101C141.891 125.125 141.856 125.128 141.828 125.112C141.8 125.096 141.786 125.065 141.786 125.018V120.461C141.786 120.41 141.798 120.361 141.822 120.314C141.85 120.265 141.887 120.227 141.931 120.201L143.551 119.256C144.035 118.974 144.416 118.885 144.694 118.988C144.972 119.088 145.111 119.391 145.111 119.9C145.111 120.409 144.972 120.875 144.694 121.298C144.42 121.715 144.039 122.066 143.551 122.35L142.651 122.876V124.514C142.651 124.56 142.636 124.608 142.608 124.657C142.584 124.704 142.55 124.74 142.505 124.766L141.931 125.101ZM143.521 121.591C143.755 121.454 143.934 121.287 144.059 121.088C144.184 120.884 144.247 120.656 144.247 120.404C144.247 120.162 144.186 120.008 144.065 119.943C143.945 119.874 143.763 119.91 143.521 120.051L142.638 120.566V122.106L143.521 121.591ZM146.848 122.233C146.808 122.257 146.773 122.26 146.745 122.244C146.717 122.228 146.703 122.196 146.703 122.15V118.279L145.584 118.931C145.544 118.955 145.51 118.958 145.481 118.942C145.453 118.926 145.439 118.895 145.439 118.848V118.33C145.439 118.279 145.451 118.23 145.475 118.183C145.504 118.134 145.54 118.096 145.584 118.07L148.668 116.272C148.712 116.246 148.748 116.241 148.777 116.257C148.805 116.273 148.819 116.307 148.819 116.358V116.876C148.819 116.923 148.805 116.971 148.777 117.02C148.748 117.069 148.712 117.107 148.668 117.133L147.555 117.781V121.652C147.555 121.699 147.541 121.747 147.513 121.796C147.485 121.845 147.448 121.883 147.404 121.909L146.848 122.233ZM149.173 120.877C149.14 120.896 149.11 120.9 149.082 120.888C149.058 120.874 149.046 120.846 149.046 120.804L149.058 120.734L150.515 115.369C150.543 115.236 150.614 115.136 150.726 115.071L151.386 114.686C151.49 114.625 151.561 114.642 151.597 114.738L153.054 118.403C153.058 118.414 153.06 118.434 153.06 118.462C153.06 118.504 153.048 118.546 153.024 118.588C153 118.63 152.972 118.661 152.939 118.68L152.413 118.987C152.361 119.017 152.321 119.027 152.293 119.015C152.264 119.004 152.246 118.984 152.238 118.956L151.954 118.268L150.158 119.315L149.874 120.335C149.842 120.442 149.783 120.521 149.699 120.57L149.173 120.877ZM151.742 117.586L151.053 115.825L150.37 118.387L151.742 117.586ZM155.152 117.389C155.111 117.413 155.077 117.416 155.049 117.4C155.021 117.384 155.007 117.353 155.007 117.306V112.749C155.007 112.698 155.019 112.648 155.043 112.602C155.071 112.553 155.107 112.515 155.152 112.489L157.921 110.874C157.965 110.848 158 110.844 158.024 110.863C158.052 110.879 158.066 110.913 158.066 110.964V111.454C158.066 111.501 158.052 111.549 158.024 111.598C158 111.645 157.965 111.681 157.921 111.707L155.847 112.917V114.037L156.869 113.441C157.324 113.175 157.681 113.097 157.939 113.208C158.197 113.319 158.326 113.599 158.326 114.047C158.326 114.313 158.27 114.593 158.157 114.887C158.048 115.175 157.883 115.453 157.661 115.722C157.443 115.985 157.179 116.206 156.869 116.388L155.152 117.389ZM156.784 115.695C156.99 115.575 157.153 115.407 157.274 115.192C157.399 114.97 157.461 114.752 157.461 114.537C157.461 114.322 157.403 114.184 157.286 114.121C157.169 114.059 157.002 114.091 156.784 114.218L155.847 114.765V116.242L156.784 115.695ZM158.667 115.338C158.635 115.357 158.605 115.361 158.577 115.349C158.552 115.335 158.54 115.308 158.54 115.266L158.552 115.195L160.01 109.83C160.038 109.697 160.108 109.598 160.221 109.532L160.88 109.148C160.985 109.086 161.056 109.104 161.092 109.199L162.549 112.864C162.553 112.876 162.555 112.896 162.555 112.924C162.555 112.966 162.543 113.008 162.519 113.05C162.495 113.092 162.467 113.122 162.434 113.141L161.908 113.448C161.856 113.478 161.816 113.488 161.787 113.476C161.759 113.465 161.741 113.445 161.733 113.417L161.449 112.729L159.653 113.777L159.369 114.796C159.337 114.904 159.278 114.982 159.193 115.032L158.667 115.338ZM161.237 112.047L160.548 110.287L159.865 112.848L161.237 112.047ZM163.265 112.657C163.225 112.68 163.19 112.684 163.162 112.668C163.134 112.651 163.12 112.62 163.12 112.573V108.016C163.12 107.965 163.132 107.916 163.156 107.869C163.184 107.82 163.22 107.782 163.265 107.757L163.815 107.436C163.859 107.41 163.894 107.406 163.918 107.425C163.946 107.441 163.96 107.475 163.96 107.526V109.332L165.744 108.291V106.485C165.744 106.434 165.756 106.385 165.78 106.338C165.808 106.289 165.845 106.252 165.889 106.226L166.433 105.908C166.478 105.883 166.514 105.878 166.542 105.894C166.57 105.91 166.584 105.944 166.584 105.995V110.552C166.584 110.604 166.57 110.654 166.542 110.703C166.514 110.747 166.478 110.783 166.433 110.808L165.889 111.126C165.849 111.149 165.814 111.153 165.786 111.137C165.758 111.121 165.744 111.089 165.744 111.042V109.166L163.96 110.207V112.083C163.96 112.13 163.946 112.178 163.918 112.227C163.894 112.273 163.859 112.31 163.815 112.336L163.265 112.657ZM170.905 107.962C170.917 107.974 170.923 107.996 170.923 108.028C170.923 108.07 170.909 108.116 170.88 108.165C170.856 108.212 170.824 108.247 170.784 108.271L170.161 108.634C170.113 108.662 170.076 108.674 170.052 108.669C170.028 108.66 170.004 108.644 169.98 108.621L168.94 107.302L168.365 107.637V109.513C168.365 109.56 168.351 109.608 168.323 109.657C168.299 109.704 168.264 109.74 168.22 109.766L167.67 110.087C167.629 110.111 167.595 110.114 167.567 110.098C167.539 110.082 167.525 110.05 167.525 110.004V105.447C167.525 105.395 167.537 105.346 167.561 105.3C167.589 105.25 167.625 105.213 167.67 105.187L168.22 104.866C168.264 104.84 168.299 104.837 168.323 104.855C168.351 104.871 168.365 104.905 168.365 104.956V106.762L168.897 106.459L169.877 104.026C169.917 103.918 169.99 103.834 170.094 103.773L170.693 103.423C170.733 103.4 170.764 103.396 170.784 103.413C170.808 103.426 170.82 103.454 170.82 103.496C170.82 103.515 170.812 103.548 170.796 103.595L169.653 106.396L170.905 107.962ZM171.315 107.96C171.283 107.979 171.253 107.983 171.225 107.971C171.2 107.957 171.188 107.93 171.188 107.888L171.2 107.817L172.658 102.452C172.686 102.319 172.756 102.22 172.869 102.154L173.528 101.77C173.633 101.708 173.704 101.726 173.74 101.821L175.197 105.486C175.201 105.498 175.203 105.518 175.203 105.546C175.203 105.588 175.191 105.63 175.167 105.672C175.143 105.714 175.114 105.744 175.082 105.763L174.556 106.07C174.504 106.1 174.463 106.11 174.435 106.098C174.407 106.087 174.389 106.067 174.381 106.039L174.097 105.351L172.301 106.399L172.017 107.418C171.984 107.526 171.926 107.604 171.841 107.654L171.315 107.96ZM173.885 104.669L173.196 102.909L172.513 105.47L173.885 104.669Z" fill="white"></path> <path d="M66.2128 90.9512C66.1264 91.0016 66.0487 91.0119 65.9796 90.9822C65.9191 90.9375 65.8889 90.8651 65.8889 90.7651V81.0151C65.8889 80.9051 65.9191 80.7975 65.9796 80.6922C66.0487 80.5819 66.1264 80.5016 66.2128 80.4512L72.2636 76.9215C72.3586 76.8661 72.4363 76.8558 72.4968 76.8905C72.5573 76.9252 72.5875 76.9976 72.5875 77.1076V78.5176C72.5875 78.6176 72.5573 78.7252 72.4968 78.8405C72.4363 78.9458 72.3586 79.0261 72.2636 79.0815L68.1304 81.4926V83.5176L71.9785 81.2728C72.0736 81.2174 72.1513 81.212 72.2118 81.2568C72.2722 81.2915 72.3025 81.3639 72.3025 81.4739V82.7789C72.3025 82.8789 72.2722 82.9865 72.2118 83.1018C72.1513 83.207 72.0736 83.2874 71.9785 83.3428L68.1304 85.5876V87.6726L72.3672 85.2011C72.4623 85.1457 72.54 85.1353 72.6005 85.17C72.6609 85.2048 72.6912 85.2771 72.6912 85.3871V86.7971C72.6912 86.8971 72.6609 87.0048 72.6005 87.12C72.54 87.2253 72.4623 87.3057 72.3672 87.3611L66.2128 90.9512ZM74.4879 86.124C74.4015 86.1744 74.3238 86.1848 74.2547 86.1551C74.1942 86.1104 74.164 86.038 74.164 85.938V76.188C74.164 76.078 74.1942 75.9704 74.2547 75.8651C74.3238 75.7548 74.4015 75.6744 74.4879 75.624L80.0722 72.3665C80.1672 72.3111 80.245 72.3007 80.3054 72.3355C80.3659 72.3702 80.3961 72.4425 80.3961 72.5526V74.0525C80.3961 74.1626 80.3659 74.2752 80.3054 74.3905C80.245 74.4957 80.1672 74.5761 80.0722 74.6315L76.4962 76.7175V84.5775C76.4962 84.6875 76.4616 84.7977 76.3925 84.908C76.332 85.0133 76.2543 85.0936 76.1593 85.149L74.4879 86.124ZM81.8013 81.8579C81.7149 81.9082 81.6372 81.9186 81.5681 81.8889C81.5076 81.8442 81.4774 81.7718 81.4774 81.6718V71.9218C81.4774 71.8118 81.5076 71.7042 81.5681 71.5989C81.6372 71.4886 81.7149 71.4082 81.8013 71.3579L85.4292 69.2416C86.5348 68.5966 87.4029 68.3852 88.0335 68.6074C88.6727 68.8245 88.9923 69.4981 88.9923 70.6281C88.9923 71.7481 88.677 72.777 88.0464 73.7149C87.4159 74.6427 86.5435 75.4316 85.4292 76.0816L83.8873 76.981V80.266C83.8873 80.376 83.8528 80.4862 83.7837 80.5965C83.7232 80.7017 83.6455 80.7821 83.5505 80.8375L81.8013 81.8579ZM85.3644 74.0494C85.7445 73.8277 86.0425 73.5438 86.2584 73.1979C86.4744 72.8419 86.5823 72.4439 86.5823 72.0039C86.5823 71.5939 86.4787 71.3294 86.2714 71.2103C86.0727 71.0762 85.7704 71.1276 85.3644 71.3644L83.8485 72.2487V74.9337L85.3644 74.0494ZM90.5572 76.7502C90.4622 76.8057 90.3844 76.816 90.324 76.7813C90.2635 76.7466 90.2333 76.6742 90.2333 76.5642V66.8142C90.2333 66.7042 90.2635 66.5966 90.324 66.4913C90.3931 66.381 90.4708 66.3006 90.5572 66.2502L92.2286 65.2752C92.3236 65.2198 92.4014 65.2095 92.4618 65.2442C92.5309 65.2739 92.5655 65.3437 92.5655 65.4537V69.0687L95.7528 67.2094V63.5944C95.7528 63.4844 95.783 63.3768 95.8435 63.2715C95.904 63.1663 95.9817 63.0859 96.0767 63.0305L97.7481 62.0555C97.8432 62.0001 97.9209 61.9897 97.9814 62.0245C98.0418 62.0592 98.0721 62.1316 98.0721 62.2416V71.9916C98.0721 72.1016 98.0418 72.2092 97.9814 72.3145C97.9209 72.4197 97.8432 72.5001 97.7481 72.5555L96.0767 73.5305C95.9817 73.5859 95.904 73.5963 95.8435 73.5615C95.783 73.5268 95.7528 73.4545 95.7528 73.3445V69.6094L92.5655 71.4687V75.2037C92.5655 75.3137 92.5309 75.4239 92.4618 75.5342C92.4014 75.6395 92.3236 75.7198 92.2286 75.7752L90.5572 76.7502Z" fill="white"></path> <path d="M147.64 241.433C211.352 241.433 263 211.613 263 174.829C263 138.044 211.352 108.224 147.64 108.224C83.9287 108.224 32.2803 138.044 32.2803 174.829C32.2803 211.613 83.9287 241.433 147.64 241.433Z" fill="#E7E9F8"></path> <path d="M168.353 230.05L224.949 197.38C226.188 196.665 226.188 195.503 224.949 194.788L117.798 132.918C117.102 132.565 116.333 132.381 115.552 132.381C114.772 132.381 114.003 132.565 113.307 132.918L56.7108 165.587C55.4714 166.303 55.4714 167.464 56.7108 168.18L163.862 230.05C164.558 230.403 165.327 230.587 166.107 230.587C166.887 230.587 167.657 230.403 168.353 230.05Z" fill="#E7E9F8"></path> <path d="M221.516 186.268C222.325 186.891 222.237 187.777 221.262 188.343L167.865 219.182C167.263 219.486 166.598 219.645 165.923 219.645C165.249 219.645 164.583 219.486 163.981 219.182L61.8655 160.236C60.8751 159.666 60.7973 158.769 61.6374 158.162C61.135 158.541 60.7213 159.025 60.4248 159.581C60.1284 160.136 59.9565 160.749 59.9209 161.377V163.944C59.9579 164.619 60.1533 165.276 60.4911 165.861C60.8289 166.447 61.2997 166.945 61.8655 167.315L163.945 226.239C164.547 226.546 165.214 226.706 165.89 226.706C166.566 226.706 167.232 226.546 167.834 226.239L221.246 195.405C221.812 195.037 222.283 194.54 222.621 193.955C222.959 193.371 223.154 192.714 223.191 192.04V189.447C223.154 188.829 222.986 188.225 222.697 187.677C222.408 187.129 222.005 186.648 221.516 186.268V186.268Z" fill="#353747"></path> <path d="M221.277 186.097L119.167 127.152C118.565 126.847 117.899 126.689 117.225 126.689C116.55 126.689 115.885 126.847 115.283 127.152L61.8705 157.996C60.7971 158.613 60.7971 159.619 61.8705 160.236L163.955 219.181C164.557 219.486 165.222 219.644 165.897 219.644C166.572 219.644 167.237 219.486 167.839 219.181L221.251 188.337C222.314 187.72 222.314 186.714 221.277 186.097ZM207.426 181.331C208.344 181.85 208.344 182.721 207.426 183.25L158.858 211.299C158.341 211.56 157.77 211.696 157.19 211.696C156.611 211.696 156.04 211.56 155.523 211.299L76.0169 165.386C75.0991 164.867 75.0991 163.991 76.0169 163.462L124.591 135.418C125.509 134.899 126.468 134.578 127.386 135.107L207.426 181.331Z" fill="#737688"></path> <path d="M61.6374 158.126C61.135 158.505 60.7213 158.989 60.4248 159.544C60.1284 160.099 59.9565 160.712 59.9209 161.341V163.908C59.9583 164.583 60.1538 165.239 60.4916 165.825C60.8294 166.41 61.3 166.908 61.8655 167.278L163.945 226.239C164.545 226.556 165.216 226.716 165.895 226.706V219.643C165.218 219.656 164.549 219.497 163.95 219.182L61.8655 160.236C60.8751 159.681 60.7973 158.769 61.6374 158.126Z" fill="#353747"></path> <path d="M93.7106 145.602C94.4314 145.187 94.4314 144.513 93.7106 144.098C93.3085 143.895 92.8645 143.79 92.4142 143.79C91.9638 143.79 91.5198 143.895 91.1178 144.098C90.3969 144.513 90.3969 145.187 91.1178 145.602C91.5198 145.805 91.9638 145.911 92.4142 145.911C92.8645 145.911 93.3085 145.805 93.7106 145.602V145.602Z" fill="#353747"></path> <path d="M192.569 202.007C194.265 201.032 194.265 199.445 192.569 198.47C191.62 197.985 190.569 197.732 189.502 197.732C188.436 197.732 187.385 197.985 186.435 198.47C184.739 199.445 184.739 201.032 186.435 202.007C187.385 202.492 188.436 202.745 189.502 202.745C190.569 202.745 191.62 202.492 192.569 202.007V202.007Z" stroke="#E7E9F8" stroke-miterlimit="10"></path> <path d="M92.4087 150.591L102.469 144.788C103.065 144.441 103.096 143.896 102.536 143.57C102.21 143.414 101.851 143.336 101.49 143.343C101.128 143.349 100.773 143.439 100.452 143.606L90.3915 149.409C89.7951 149.756 89.764 150.301 90.3241 150.627C90.6507 150.783 91.0089 150.861 91.3707 150.854C91.7324 150.848 92.0877 150.758 92.4087 150.591V150.591Z" fill="#353747"></path> <path d="M127.386 135.127C126.468 134.609 125.509 134.904 124.591 135.438L76.017 163.482C75.0991 164.001 75.0991 164.872 76.017 165.406L155.503 211.294C156.02 211.555 156.591 211.69 157.17 211.69C157.749 211.69 158.32 211.555 158.837 211.294L207.406 183.245C208.329 182.726 208.329 181.855 207.406 181.326L127.386 135.127Z" fill="#6BEAC7"></path> <path opacity="0.85" d="M127.386 135.127C126.468 134.609 125.509 134.904 124.591 135.438L76.017 163.482C75.0991 164.001 75.0991 164.872 76.017 165.406L155.503 211.294C156.02 211.555 156.591 211.69 157.17 211.69C157.749 211.69 158.32 211.555 158.837 211.294L207.406 183.245C208.329 182.726 208.329 181.855 207.406 181.326L127.386 135.127Z" fill="white"></path> <path d="M81.6124 166.003L81.0938 165.702C81.07 165.693 81.0495 165.677 81.035 165.656C81.0205 165.635 81.0127 165.611 81.0127 165.585C81.0127 165.56 81.0205 165.535 81.035 165.514C81.0495 165.493 81.07 165.477 81.0938 165.469L81.1509 165.437C81.2131 165.404 81.2826 165.387 81.3531 165.387C81.4237 165.387 81.4931 165.404 81.5554 165.437L82.0739 165.733C82.1828 165.8 82.1828 165.904 82.0739 165.966L82.0169 166.003C81.9539 166.033 81.8847 166.049 81.8146 166.049C81.7446 166.049 81.6754 166.033 81.6124 166.003V166.003Z" fill="#353747"></path> <path d="M82.5354 165.468L81.6383 164.95C81.5294 164.888 81.5294 164.784 81.6383 164.716L81.6954 164.685C81.7584 164.655 81.8275 164.639 81.8976 164.639C81.9677 164.639 82.0368 164.655 82.0998 164.685L82.997 165.204C83.1059 165.266 83.1059 165.37 82.997 165.437L82.9399 165.468C82.8769 165.499 82.8078 165.515 82.7377 165.515C82.6676 165.515 82.5984 165.499 82.5354 165.468V165.468Z" fill="#353747"></path> <path d="M83.4586 164.934L82.1881 164.203C82.074 164.136 82.074 164.032 82.1881 163.97L82.2451 163.933C82.3081 163.903 82.3773 163.887 82.4474 163.887C82.5175 163.887 82.5866 163.903 82.6496 163.933L83.9201 164.67C83.9439 164.679 83.9645 164.695 83.979 164.715C83.9935 164.736 84.0013 164.761 84.0013 164.786C84.0013 164.812 83.9935 164.837 83.979 164.857C83.9645 164.878 83.9439 164.894 83.9201 164.903L83.8631 164.934C83.8008 164.967 83.7314 164.985 83.6608 164.985C83.5903 164.985 83.5208 164.967 83.4586 164.934V164.934Z" fill="#353747"></path> <path d="M84.3763 164.405L82.1827 163.135C82.0686 163.073 82.0686 162.969 82.1827 162.902L82.2398 162.871C82.3024 162.839 82.3717 162.822 82.442 162.822C82.5123 162.822 82.5816 162.839 82.6443 162.871L84.8326 164.136C84.9467 164.203 84.9467 164.307 84.8326 164.369L84.7807 164.405C84.7177 164.436 84.6486 164.452 84.5785 164.452C84.5084 164.452 84.4393 164.436 84.3763 164.405V164.405Z" fill="#353747"></path> <path d="M87.026 163.047C86.991 163.051 86.9558 163.042 86.9274 163.021L86.6059 162.834L85.5688 163.431C85.5466 163.446 85.5204 163.454 85.4936 163.454C85.4668 163.454 85.4406 163.446 85.4184 163.431L85.2991 163.363L85.2473 163.327V163.275L85.1954 161.974C85.192 161.955 85.192 161.935 85.1954 161.916C85.2125 161.897 85.2338 161.881 85.2576 161.87L85.3977 161.787C85.4343 161.765 85.4749 161.751 85.5169 161.745C85.5553 161.746 85.5929 161.757 85.6258 161.776L86.7511 162.425L86.9793 162.295C87.0134 162.272 87.0525 162.258 87.0934 162.254C87.1303 162.253 87.1663 162.264 87.1971 162.285L87.2749 162.331C87.3112 162.331 87.3267 162.368 87.3215 162.388C87.3163 162.409 87.3215 162.425 87.2541 162.451L87.026 162.585L87.3475 162.772C87.3838 162.772 87.3993 162.808 87.3941 162.829C87.389 162.85 87.3682 162.871 87.3215 162.897L87.1452 162.995C87.1117 163.024 87.0701 163.042 87.026 163.047V163.047ZM86.3985 162.637L85.5947 162.176L85.6466 163.073L86.3985 162.637Z" fill="#353747"></path> <path d="M88.0585 162.228C87.6955 162.245 87.3352 162.157 87.0214 161.973C86.6999 161.787 86.5547 161.585 86.5806 161.367C86.6065 161.149 86.8087 160.936 87.1769 160.724C87.3222 160.638 87.4749 160.565 87.6333 160.506C87.7724 160.452 87.9166 160.412 88.0637 160.387C88.0854 160.378 88.1094 160.378 88.1311 160.387C88.1333 160.395 88.1333 160.404 88.1311 160.413L88.1778 160.547C88.1829 160.553 88.1857 160.561 88.1857 160.568C88.1857 160.576 88.1829 160.583 88.1778 160.589H88.1207C87.8974 160.633 87.6833 160.716 87.4881 160.833C87.2392 160.973 87.1043 161.123 87.0836 161.273C87.0628 161.424 87.1769 161.574 87.4258 161.714C87.6534 161.853 87.9163 161.924 88.1829 161.916C88.4467 161.907 88.7037 161.83 88.9297 161.693C89.0106 161.646 89.0885 161.594 89.163 161.538C89.2222 161.496 89.2746 161.445 89.3186 161.388L88.8 161.087L88.3696 161.336C88.3329 161.357 88.2924 161.371 88.2504 161.377C88.2137 161.376 88.178 161.365 88.1466 161.346L88.074 161.305C88.0395 161.284 88.0239 161.263 88.0274 161.242C88.0274 161.242 88.0533 161.206 88.0948 161.18L88.7845 160.781C88.8253 160.756 88.8716 160.742 88.9193 160.739C88.9617 160.74 89.0031 160.752 89.0386 160.776L89.7853 161.206C89.8063 161.214 89.8244 161.229 89.8372 161.247C89.8372 161.247 89.8372 161.273 89.8372 161.294C89.6742 161.538 89.4485 161.733 89.1838 161.859C88.8447 162.073 88.4582 162.199 88.0585 162.228V162.228Z" fill="#353747"></path> <path d="M102.412 152.152L103.63 152.857C103.682 152.883 103.739 152.896 103.796 152.896C103.854 152.896 103.911 152.883 103.962 152.857L105.191 152.152C105.279 152.095 105.279 152.012 105.191 151.96L103.967 151.255C103.917 151.226 103.86 151.212 103.802 151.212C103.744 151.212 103.686 151.226 103.636 151.255L102.412 151.96C102.318 152.012 102.318 152.095 102.412 152.152Z" fill="#353747"></path> <path d="M103.257 151.192C103.096 151.114 102.918 151.075 102.738 151.078C102.559 151.074 102.381 151.113 102.22 151.192C101.981 151.332 101.981 151.545 102.22 151.68L102.64 151.924L102.946 151.861L102.526 151.623C102.489 151.609 102.456 151.583 102.434 151.55C102.411 151.518 102.399 151.479 102.399 151.439C102.399 151.399 102.411 151.36 102.434 151.327C102.456 151.294 102.489 151.269 102.526 151.255C102.593 151.218 102.668 151.199 102.744 151.198C102.819 151.195 102.893 151.215 102.956 151.255L103.376 151.498L103.687 151.436L103.257 151.192Z" fill="#353747"></path> <path d="M125.509 138.327C125.303 138.32 125.1 138.366 124.918 138.462L121.806 140.251C121.537 140.401 121.537 140.645 121.806 140.8L122.937 141.449C123.119 141.544 123.322 141.59 123.528 141.583C123.624 141.583 123.719 141.574 123.813 141.558C123.919 141.54 124.021 141.503 124.114 141.449L127.225 139.665C127.49 139.509 127.49 139.265 127.225 139.115L126.095 138.462C125.915 138.366 125.713 138.32 125.509 138.327ZM123.538 141.438C123.449 141.437 123.362 141.414 123.284 141.371L122.159 140.717C122.116 140.702 122.078 140.674 122.052 140.636C122.025 140.598 122.011 140.553 122.011 140.507C122.011 140.461 122.025 140.417 122.052 140.379C122.078 140.341 122.116 140.313 122.159 140.297L125.27 138.514C125.32 138.483 125.374 138.462 125.431 138.451H125.524C125.612 138.454 125.698 138.479 125.773 138.524L126.899 139.172C126.942 139.188 126.979 139.216 127.006 139.254C127.032 139.291 127.047 139.336 127.047 139.382C127.047 139.428 127.032 139.473 127.006 139.511C126.979 139.548 126.942 139.577 126.899 139.592L123.787 141.381C123.712 141.426 123.626 141.451 123.538 141.454V141.438Z" fill="#353747"></path> <path d="M123.627 141.236L123.585 141.21L122.548 140.624C122.516 140.613 122.489 140.591 122.47 140.563C122.45 140.536 122.44 140.503 122.44 140.469C122.44 140.435 122.45 140.402 122.47 140.374C122.489 140.346 122.516 140.325 122.548 140.313L125.338 138.706C125.355 138.694 125.375 138.685 125.395 138.68L125.437 138.706L126.474 139.292C126.504 139.304 126.53 139.326 126.548 139.353C126.566 139.38 126.575 139.412 126.575 139.445C126.575 139.477 126.566 139.509 126.548 139.536C126.53 139.564 126.504 139.585 126.474 139.598L123.684 141.21L123.627 141.236Z" fill="#353747"></path> <path d="M126.256 138.379C126.363 138.353 126.474 138.351 126.582 138.371C126.69 138.392 126.793 138.435 126.883 138.498L127.091 138.622C127.324 138.752 127.422 138.918 127.314 138.991L127.111 139.115L126.074 138.498L126.256 138.379Z" fill="#353747"></path> <path d="M108.536 168.85C109.299 168.818 110.044 168.612 110.714 168.248C111.979 167.517 112.306 166.521 110.299 165.272C110.232 165.649 110.078 166.006 109.849 166.313C109.621 166.621 109.324 166.872 108.982 167.045C107.26 168.041 105.3 168.295 103.719 167.387C102.137 166.48 102.682 165.132 104.414 164.136C105.528 163.5 106.79 163.168 108.073 163.173C109.356 163.177 110.615 163.518 111.725 164.162C114.655 165.853 113.997 167.642 111.922 168.829C110.837 169.437 109.628 169.792 108.386 169.866L108.536 168.85ZM109.267 164.732C107.748 164.074 106.457 164.167 105.477 164.732C104.652 165.204 104.486 165.894 105.399 166.418C105.856 166.665 106.372 166.783 106.891 166.758C107.41 166.733 107.913 166.567 108.344 166.278C108.635 166.142 108.879 165.922 109.043 165.647C109.208 165.371 109.286 165.053 109.267 164.732V164.732Z" fill="#353747"></path> <path d="M112.898 161.47C113.207 161.283 113.557 161.172 113.917 161.146C114.278 161.121 114.64 161.182 114.972 161.325C115.491 161.636 115.392 162.155 114.728 162.533C114.414 162.725 114.059 162.839 113.691 162.865C113.324 162.892 112.956 162.829 112.618 162.684C112.084 162.378 112.219 161.854 112.898 161.47ZM116.948 163.809C117.257 163.622 117.607 163.511 117.968 163.487C118.329 163.463 118.69 163.525 119.022 163.669C119.541 163.975 119.442 164.494 118.778 164.877C118.464 165.068 118.108 165.181 117.741 165.207C117.374 165.234 117.006 165.172 116.668 165.028C116.139 164.722 116.268 164.193 116.932 163.83L116.948 163.809Z" fill="#353747"></path> <path d="M117.632 160.983C115.086 159.51 115.086 157.98 117.17 156.772C119.255 155.564 121.92 155.574 124.461 157.042C127.002 158.509 127.054 160.086 124.98 161.294C122.906 162.502 120.183 162.455 117.632 160.983ZM122.719 158.042C120.588 156.813 119.219 156.824 118.239 157.389C117.258 157.954 117.238 158.748 119.369 159.982C121.5 161.216 122.963 161.237 123.927 160.682C124.892 160.127 124.855 159.277 122.719 158.042Z" fill="#353747"></path> <path d="M125.742 156.3C123.191 154.827 123.191 153.298 125.276 152.094C127.36 150.891 130.031 150.897 132.567 152.359C135.102 153.821 135.191 155.408 133.085 156.611C130.98 157.814 128.289 157.773 125.742 156.3ZM130.829 153.365C128.693 152.131 127.324 152.141 126.344 152.706C125.364 153.272 125.343 154.065 127.48 155.299C129.616 156.533 131.073 156.549 132.033 155.994C132.992 155.439 132.961 154.594 130.829 153.365Z" fill="#353747"></path> <path d="M112.669 180.232L153.47 156.679C153.952 156.435 154.485 156.308 155.025 156.308C155.566 156.308 156.099 156.435 156.581 156.679L167.009 162.7C167.87 163.218 167.87 164.001 167.009 164.499L126.224 188.052C125.742 188.296 125.209 188.423 124.669 188.423C124.128 188.423 123.595 188.296 123.113 188.052L112.669 182.032C111.808 181.534 111.808 180.73 112.669 180.232Z" fill="#6BEAC7"></path> <path d="M117.046 181.031L124.347 185.242C124.555 185.349 124.785 185.405 125.019 185.405C125.253 185.405 125.483 185.349 125.69 185.242L136.451 179.019C136.824 178.801 136.824 178.454 136.451 178.241L129.149 174.025C128.941 173.92 128.711 173.865 128.478 173.865C128.244 173.865 128.014 173.92 127.806 174.025L117.046 180.248C116.962 180.274 116.889 180.325 116.837 180.396C116.785 180.466 116.757 180.552 116.757 180.639C116.757 180.727 116.785 180.812 116.837 180.883C116.889 180.953 116.962 181.005 117.046 181.031V181.031Z" fill="white"></path> <path d="M128.06 179.003L136.715 178.661L128.091 178.531L128.439 173.88L127.023 179.62L116.761 180.637L125.141 180.242L124.933 185.402L125.576 180.222L127.977 180.108L128.06 179.003Z" fill="#6BEAC7"></path> <path d="M132.603 171.826L143.145 165.764C143.408 165.631 143.699 165.562 143.993 165.562C144.288 165.562 144.578 165.631 144.841 165.764C145.303 166.028 145.287 166.464 144.805 166.744L134.262 172.806C133.999 172.939 133.709 173.008 133.414 173.008C133.12 173.008 132.829 172.939 132.567 172.806C132.11 172.542 132.131 172.127 132.603 171.826Z" fill="white"></path> <path d="M135.854 173.683L157.219 161.336C157.482 161.203 157.773 161.133 158.067 161.133C158.362 161.133 158.652 161.203 158.915 161.336C159.377 161.6 159.361 162.041 158.879 162.316L137.514 174.663C137.25 174.795 136.959 174.865 136.663 174.865C136.368 174.865 136.077 174.795 135.813 174.663C135.357 174.414 135.372 173.978 135.854 173.683Z" fill="white"></path> <path d="M139.095 175.57L160.465 163.223C160.728 163.09 161.018 163.021 161.313 163.021C161.608 163.021 161.898 163.09 162.161 163.223C162.617 163.487 162.602 163.928 162.125 164.203L140.754 176.55C140.492 176.683 140.201 176.752 139.907 176.752C139.612 176.752 139.322 176.683 139.059 176.55C138.597 176.275 138.618 175.85 139.095 175.57Z" fill="white"></path> <path d="M107.997 95.1402L177.163 55.2107L179.932 56.8079C180.309 57.0563 180.623 57.3897 180.848 57.7815C181.074 58.1733 181.204 58.6124 181.228 59.0636V110.085C181.204 110.536 181.074 110.976 180.849 111.368C180.624 111.759 180.31 112.093 179.932 112.341L113.364 150.767C112.961 150.967 112.517 151.071 112.067 151.071C111.617 151.071 111.174 150.967 110.771 150.767L109.309 149.921C108.931 149.673 108.616 149.34 108.39 148.948C108.164 148.556 108.033 148.117 108.007 147.666L107.997 95.1402Z" fill="#6BEAC7"></path> <path opacity="0.05" d="M107.997 95.1402L177.163 55.2107L179.932 56.8079C180.309 57.0563 180.623 57.3897 180.848 57.7815C181.074 58.1733 181.204 58.6124 181.228 59.0636V110.085C181.204 110.536 181.074 110.976 180.849 111.368C180.624 111.759 180.31 112.093 179.932 112.341L113.364 150.767C112.961 150.967 112.517 151.071 112.067 151.071C111.617 151.071 111.174 150.967 110.771 150.767L109.309 149.921C108.931 149.673 108.616 149.34 108.39 148.948C108.164 148.556 108.033 148.117 108.007 147.666L107.997 95.1402Z" fill="#353747"></path> <path d="M176.779 50.7198L177.064 50.5642L175.991 49.942C175.898 49.8896 175.801 49.8445 175.7 49.8071L145.261 38.5283C144.843 38.3884 144.392 38.3848 143.973 38.5181C143.553 38.6514 143.187 38.9147 142.927 39.2699L108.873 88.9951C108.344 89.8525 108.043 90.8305 107.997 91.8368V95.14L109.034 95.752L177.147 55.2054V51.9021C177.137 51.4813 177.01 51.0717 176.779 50.7198V50.7198Z" fill="#6BEAC7"></path> <path opacity="0.1" d="M144.332 39.5135C144.197 39.6196 144.078 39.7455 143.98 39.8869L109.926 89.6121C109.646 90.0519 109.433 90.5307 109.293 91.0329L108.256 90.421C108.333 90.1652 108.424 89.9141 108.531 89.6691C108.577 89.5654 108.624 89.4669 108.676 89.3683V89.3217C108.73 89.2176 108.79 89.1171 108.857 89.0209L142.922 39.275C142.973 39.2013 143.03 39.1319 143.093 39.0676L143.275 38.9016L144.332 39.5135Z" fill="#353747"></path> <path opacity="0.35" d="M177.049 50.5642C176.957 50.5083 176.86 50.4614 176.758 50.4242L146.313 39.1403C145.979 39.0289 145.621 39.0048 145.275 39.0701C144.928 39.1355 144.604 39.2881 144.333 39.5136L143.295 38.9017C143.569 38.6783 143.894 38.5271 144.241 38.4619C144.588 38.3966 144.946 38.4195 145.282 38.5284L175.721 49.8071C175.821 49.8443 175.916 49.8912 176.006 49.9471L177.049 50.5642Z" fill="white"></path> <path d="M108.691 89.2961C108.747 89.1927 108.807 89.0923 108.873 88.9954C108.807 89.0923 108.747 89.1927 108.691 89.2961Z" fill="#6BEAC7"></path> <path d="M143.099 39.0676C143.154 39.0069 143.215 38.9514 143.28 38.9016C143.214 38.9501 143.153 39.0057 143.099 39.0676V39.0676Z" fill="#6BEAC7"></path> <path d="M108.23 90.4212C108.307 90.1637 108.399 89.9108 108.505 89.6641C108.399 89.9108 108.307 90.1637 108.23 90.4212V90.4212Z" fill="#6BEAC7"></path> <path d="M108.521 89.6435C108.568 89.5398 108.62 89.4412 108.666 89.3479C108.62 89.4412 108.568 89.5398 108.521 89.6435Z" fill="#6BEAC7"></path> <path opacity="0.2" d="M108.666 89.3479C108.666 89.3479 108.666 89.3116 108.666 89.2961C108.666 89.2805 108.676 89.3324 108.666 89.3479Z" fill="#353747"></path> <path opacity="0.2" d="M142.927 39.2699C142.977 39.1967 143.034 39.1289 143.098 39.0676C143.033 39.1274 142.975 39.1954 142.927 39.2699V39.2699Z" fill="#353747"></path> <path d="M143.98 39.8921L109.931 89.6225C109.398 90.4763 109.094 91.4534 109.049 92.459V95.7623L178.215 55.8328V52.514C178.19 52.0669 178.04 51.6359 177.782 51.2694C177.525 50.903 177.17 50.6156 176.758 50.4397L146.319 39.161C145.901 39.0227 145.451 39.0189 145.032 39.1501C144.612 39.2813 144.244 39.5408 143.98 39.8921V39.8921Z" fill="#6BEAC7"></path> <path d="M116.579 143.818L114.359 142.537C114.176 142.397 114.032 142.212 113.941 142.001C113.851 141.789 113.816 141.558 113.841 141.329V72.1728C113.87 71.4707 114.085 70.789 114.463 70.197L116.719 71.4934C116.337 72.0877 116.122 72.7737 116.097 73.4795V142.609C116.069 142.835 116.099 143.064 116.183 143.275C116.267 143.486 116.403 143.673 116.579 143.818V143.818Z" fill="#E7E9F8"></path> <path d="M117.964 70.1764L173.523 38.1084C174.56 37.4965 175.426 37.9891 175.426 39.2077V108.343C175.391 109.004 175.201 109.648 174.87 110.222C174.539 110.796 174.078 111.284 173.523 111.646L117.964 143.709C116.927 144.316 116.061 143.823 116.061 142.604V73.4797C116.096 72.8184 116.287 72.1748 116.618 71.601C116.949 71.0271 117.41 70.5391 117.964 70.1764V70.1764Z" fill="#FAFAFA"></path> <path d="M172.615 36.6716L174.793 37.9369C174.582 37.8583 174.355 37.8337 174.132 37.8654C173.909 37.8971 173.698 37.9841 173.518 38.1184L117.964 70.1813C117.431 70.5026 116.988 70.954 116.678 71.4932L114.422 70.1968C114.735 69.6584 115.175 69.2045 115.703 68.8745L171.262 36.7805C171.455 36.6385 171.683 36.5522 171.922 36.5312C172.16 36.5101 172.4 36.5551 172.615 36.6613V36.6716Z" fill="white"></path> <path d="M122.299 73.7958L168.498 47.1208C169.12 46.763 169.623 47.0171 169.623 47.6912C169.595 48.0681 169.479 48.4331 169.283 48.7565C169.088 49.0799 168.819 49.3528 168.498 49.5529L122.299 76.2279C121.677 76.5857 121.174 76.3316 121.174 75.6626C121.201 75.2848 121.317 74.9189 121.513 74.5945C121.708 74.2701 121.978 73.9964 122.299 73.7958Z" fill="#E7E9F8"></path> <path d="M122.299 78.6447L168.498 51.9697C169.12 51.6119 169.623 51.866 169.623 52.5401C169.595 52.917 169.479 53.2819 169.283 53.6054C169.088 53.9288 168.819 54.2016 168.498 54.4018L122.299 81.0767C121.677 81.4345 121.174 81.1804 121.174 80.5115C121.201 80.1337 121.317 79.7677 121.513 79.4433C121.708 79.119 121.978 78.8453 122.299 78.6447V78.6447Z" fill="#E7E9F8"></path> <path d="M122.299 83.493L168.498 56.818C169.12 56.4602 169.623 56.7143 169.623 57.3832C169.596 57.761 169.48 58.127 169.284 58.4514C169.089 58.7758 168.819 59.0494 168.498 59.2501L122.299 85.925C121.677 86.2828 121.174 86.0287 121.174 85.3598C121.201 84.982 121.317 84.616 121.513 84.2916C121.708 83.9672 121.978 83.6936 122.299 83.493V83.493Z" fill="#E7E9F8"></path> <path d="M122.299 88.3418L168.498 61.672C169.12 61.3142 169.623 61.5683 169.623 62.2372C169.596 62.615 169.48 62.981 169.284 63.3054C169.089 63.6298 168.819 63.9034 168.498 64.1041L122.299 90.779C121.677 91.1368 121.174 90.8827 121.174 90.2086C121.201 89.8308 121.317 89.4649 121.513 89.1405C121.708 88.8161 121.978 88.5424 122.299 88.3418V88.3418Z" fill="#E7E9F8"></path> <path d="M122.299 93.1902L168.498 66.5153C169.12 66.1574 169.623 66.4115 169.623 67.0805C169.596 67.4583 169.48 67.8243 169.284 68.1486C169.089 68.473 168.819 68.7467 168.498 68.9473L122.299 95.6223C121.677 95.9801 121.174 95.726 121.174 95.0519C121.202 94.675 121.319 94.3101 121.514 93.9866C121.71 93.6632 121.979 93.3904 122.299 93.1902Z" fill="#E7E9F8"></path> <path d="M122.299 98.0389L168.498 71.3639C169.12 71.0061 169.623 71.2602 169.623 71.9291C169.596 72.3069 169.48 72.6729 169.284 72.9973C169.089 73.3217 168.819 73.5953 168.498 73.796L122.299 100.471C121.677 100.829 121.174 100.575 121.174 99.9005C121.202 99.5236 121.319 99.1587 121.514 98.8353C121.71 98.5118 121.979 98.239 122.299 98.0389Z" fill="#E7E9F8"></path> <path d="M122.299 102.887L168.498 76.1918C169.12 75.834 169.623 76.0881 169.623 76.757C169.596 77.1348 169.48 77.5008 169.284 77.8252C169.089 78.1496 168.819 78.4232 168.498 78.6238L122.299 105.299C121.677 105.657 121.174 105.403 121.174 104.728C121.205 104.355 121.323 103.994 121.519 103.675C121.714 103.355 121.981 103.086 122.299 102.887V102.887Z" fill="#E7E9F8"></path> <path d="M122.299 107.736L168.498 81.061C169.12 80.698 169.623 80.9573 169.623 81.6262C169.596 82.004 169.48 82.37 169.284 82.6944C169.089 83.0188 168.819 83.2924 168.498 83.4931L122.299 110.168C121.677 110.526 121.174 110.272 121.174 109.598C121.202 109.221 121.319 108.856 121.514 108.532C121.71 108.209 121.979 107.936 122.299 107.736Z" fill="#E7E9F8"></path> <path d="M179.476 110.76C179.455 110.796 179.431 110.831 179.403 110.863L150.581 98.0806C149.487 97.5965 148.255 97.524 147.111 97.8766C145.968 98.2292 144.99 98.983 144.358 99.9993L113.545 149.439L112.405 150.098C112.277 150.187 112.13 150.242 111.976 150.259C111.822 150.276 111.666 150.255 111.523 150.196L143.212 99.3459C143.846 98.3312 144.823 97.5783 145.966 97.225C147.108 96.8718 148.34 96.9417 149.435 97.422L179.476 110.76Z" fill="#6BEAC7"></path> <path opacity="0.4" d="M141.512 104.495L141.584 104.433L113.535 149.444L112.394 150.103C112.267 150.19 112.119 150.245 111.966 150.262C111.812 150.279 111.656 150.258 111.513 150.201L140.381 103.831L141.512 104.495Z" fill="white"></path> <path opacity="0.4" d="M179.476 110.764C179.455 110.801 179.431 110.836 179.403 110.868L150.576 98.0802C149.482 97.5961 148.249 97.5236 147.106 97.8762C145.962 98.2288 144.985 98.9826 144.353 99.9989L143.212 99.3352C143.848 98.3232 144.826 97.5735 145.969 97.2232C147.111 96.8728 148.342 96.9451 149.435 97.4268L179.476 110.764Z" fill="white"></path> <path d="M181.208 58.7317C181.145 58.3584 180.948 58.2546 180.689 58.4309C180.561 58.5266 180.449 58.6421 180.357 58.7732L180.212 58.9754L151.789 98.573L147.542 104.49C147.269 104.835 146.907 105.098 146.495 105.253C146.083 105.407 145.636 105.446 145.204 105.366L141.537 104.495L113.535 97.8367C113.347 97.7983 113.153 97.7983 112.965 97.8367C112.891 97.8514 112.82 97.874 112.752 97.9041L113.525 97.4581L140.49 103.873L144.167 104.713C144.599 104.794 145.046 104.756 145.458 104.601C145.871 104.447 146.233 104.182 146.505 103.836L150.752 97.9248L179.336 58.125C179.423 58.0067 179.532 57.9063 179.657 57.8294L177.199 56.4137L178.236 55.8174L179.948 56.8027C180.276 57.0239 180.556 57.3085 180.773 57.6398C180.989 57.9711 181.137 58.3424 181.208 58.7317V58.7317Z" fill="#6BEAC7"></path> <path opacity="0.4" d="M151.789 98.5729L147.542 104.49C147.269 104.835 146.906 105.098 146.494 105.253C146.082 105.407 145.636 105.446 145.203 105.366L141.537 104.495L141.61 104.433L141.786 104.153L144.187 104.723C144.62 104.804 145.066 104.766 145.479 104.611C145.891 104.457 146.253 104.192 146.526 103.847L150.731 97.9973L151.789 98.5729Z" fill="white"></path> <path opacity="0.1" d="M179.927 56.8027L178.216 55.8174L177.178 56.4137L179.652 57.8398C179.527 57.9171 179.418 58.0174 179.331 58.1354L150.752 97.9352L150.711 97.9922L151.748 98.5678L180.207 58.9754L180.352 58.7732C180.444 58.6421 180.556 58.5266 180.684 58.4309C180.938 58.2546 181.135 58.3584 181.203 58.7317C181.13 58.3411 180.98 57.9691 180.76 57.6377C180.541 57.3064 180.258 57.0224 179.927 56.8027V56.8027Z" fill="#353747"></path> <path d="M114.095 98.6664L107.997 95.1401V147.666C108.023 148.117 108.154 148.556 108.38 148.948C108.606 149.34 108.92 149.673 109.298 149.921L110.761 150.767C111.163 150.967 111.607 151.071 112.057 151.071C112.507 151.071 112.951 150.967 113.353 150.767L114.085 150.341L114.095 98.6664Z" fill="#6BEAC7"></path> <path opacity="0.15" d="M114.095 98.6664L107.997 95.1401V147.666C108.023 148.117 108.154 148.556 108.38 148.948C108.606 149.34 108.92 149.673 109.298 149.921L110.761 150.767C111.163 150.967 111.607 151.071 112.057 151.071C112.507 151.071 112.951 150.967 113.353 150.767L114.085 150.341L114.095 98.6664Z" fill="#353747"></path> <path d="M180.212 58.9756V109.442C180.199 109.91 180.059 110.365 179.808 110.759C179.617 111.094 179.357 111.384 179.045 111.61L178.999 111.641L178.911 111.698L112.348 150.124C112.268 150.173 112.182 150.213 112.093 150.243C112.088 150.165 112.088 150.087 112.093 150.01V99.0088C112.082 98.8261 112.115 98.6433 112.19 98.4761C112.264 98.309 112.379 98.1625 112.522 98.0493C112.666 97.936 112.835 97.8594 113.015 97.826C113.196 97.7926 113.381 97.8035 113.556 97.8576L141.558 104.516L145.225 105.387C145.657 105.467 146.104 105.428 146.516 105.274C146.928 105.119 147.29 104.856 147.563 104.511L151.79 98.5732L180.212 58.9756Z" fill="#353747"></path> <path d="M181.234 59.0791V110.101C181.217 110.568 181.078 111.022 180.829 111.418C180.636 111.752 180.377 112.043 180.067 112.273L180.015 112.299C179.989 112.32 179.961 112.339 179.932 112.356L113.369 150.761C113.242 150.852 113.094 150.909 112.939 150.927C112.784 150.945 112.627 150.924 112.482 150.865C112.372 150.801 112.279 150.71 112.211 150.602C112.143 150.494 112.103 150.37 112.093 150.243C112.088 150.165 112.088 150.087 112.093 150.009V99.0086C112.082 98.8259 112.115 98.6431 112.19 98.476C112.264 98.3088 112.379 98.1623 112.522 98.0491C112.666 97.9359 112.835 97.8592 113.015 97.8259C113.196 97.7925 113.381 97.8033 113.556 97.8574L141.558 104.516L145.225 105.387C145.657 105.467 146.104 105.428 146.516 105.274C146.928 105.119 147.29 104.855 147.563 104.511L151.79 98.573L180.233 58.9754L180.378 58.7732C180.829 58.1042 181.234 58.2287 181.234 59.0791Z" fill="#6BEAC7"></path> <path d="M179.933 112.335L180.016 112.278L180.067 112.252C180.377 112.022 180.636 111.731 180.83 111.397C181.072 111.008 181.209 110.563 181.229 110.106L151.79 98.5728L171.495 117.205L179.933 112.335Z" fill="#6BEAC7"></path> <path opacity="0.2" d="M179.933 112.335L180.016 112.278L180.067 112.252C180.377 112.022 180.636 111.731 180.83 111.397C181.072 111.008 181.209 110.563 181.229 110.106L151.79 98.5728L171.495 117.205L179.933 112.335Z" fill="#353747"></path> <path d="M112.068 150.015C112.049 150.181 112.077 150.349 112.148 150.5C112.22 150.652 112.332 150.78 112.472 150.871C112.617 150.929 112.774 150.95 112.929 150.932C113.084 150.914 113.232 150.857 113.359 150.767L136.274 137.538L141.507 104.5L112.068 149.164V150.015Z" fill="#6BEAC7"></path> <path opacity="0.15" d="M144.338 99.9939L112.467 150.865C112.326 150.774 112.214 150.646 112.143 150.495C112.071 150.344 112.043 150.176 112.062 150.009V149.164L140.184 104.194L140.402 103.847L143.197 99.3665L144.338 99.9939Z" fill="#353747"></path> <path d="M180.829 111.397C180.636 111.731 180.377 112.022 180.067 112.253L180.015 112.279L113.369 150.761C113.242 150.852 113.094 150.909 112.939 150.927C112.784 150.945 112.627 150.924 112.482 150.865L144.353 99.9783C144.993 98.9575 145.978 98.2012 147.13 97.8478C148.281 97.4945 149.521 97.5679 150.623 98.0544L180.829 111.397Z" fill="#6BEAC7"></path> <path d="M180.83 111.402C180.639 111.737 180.379 112.027 180.067 112.253L180.021 112.284L113.364 150.767C113.236 150.855 113.088 150.911 112.933 150.928C112.779 150.945 112.622 150.924 112.478 150.865L113.364 149.455L178.864 111.631L178.916 111.6C179.192 111.397 179.426 111.144 179.606 110.853L180.83 111.402Z" fill="#6BEAC7"></path> <path opacity="0.15" d="M108.23 90.4214L109.267 91.0333C109.12 91.4933 109.038 91.9715 109.023 92.4542V95.7522L107.986 95.1403V91.8371C108.001 91.3562 108.084 90.8797 108.23 90.4214V90.4214Z" fill="#353747"></path> <path d="M114.494 97.6709L113.519 97.4376L112.747 97.8835L111.678 97.2664L109.049 95.7522L110.071 95.1455L114.494 97.6709Z" fill="#6BEAC7"></path> <path opacity="0.1" d="M114.494 97.6704L110.076 95.1501L109.039 95.7569L111.668 97.2711L112.736 97.8882C112.798 97.8573 112.865 97.8364 112.933 97.8259C113.122 97.7875 113.316 97.7875 113.504 97.8259L115.656 98.3445L140.184 104.194L140.402 103.846L114.494 97.6704Z" fill="#353747"></path> <path d="M193.535 99.7035L188.614 96.8514L188.573 96.8255C186.426 95.612 183.475 95.7884 180.213 97.6811C173.648 101.472 168.323 110.692 168.323 118.273C168.323 122.059 169.655 124.719 171.797 125.964L176.283 128.556L177.32 126.799C178.518 126.533 179.669 126.085 180.732 125.471C187.297 121.68 192.623 112.46 192.623 104.879C192.622 103.855 192.496 102.834 192.249 101.84L193.535 99.7035Z" fill="#5AB0FF"></path> <path opacity="0.15" d="M168.758 114.286C168.468 115.597 168.316 116.935 168.307 118.279C168.307 122.064 169.639 124.724 171.781 125.969L176.267 128.562L177.304 126.804C178.502 126.538 179.653 126.091 180.716 125.476C181.878 124.796 182.964 123.995 183.957 123.086L168.758 114.286Z" fill="#353747"></path> <path d="M184.88 100.383C178.315 104.174 172.989 113.394 172.989 120.975C172.989 128.557 178.315 131.632 184.88 127.841C191.445 124.05 196.771 114.83 196.771 107.249C196.771 99.6674 191.45 96.5923 184.88 100.383Z" fill="#80C2FF"></path> <path d="M189.578 110.936V108.022C189.578 104.698 187.555 103.168 185.066 104.609C182.572 106.051 180.55 109.909 180.55 113.233V115.826C180.495 117.625 179.971 119.379 179.03 120.913C178.799 121.32 178.672 121.778 178.662 122.246V122.246C178.662 123.081 179.181 123.47 179.798 123.107L190.34 117.019C190.686 116.77 190.969 116.444 191.166 116.067C191.363 115.69 191.469 115.271 191.476 114.846V114.846C191.492 114.683 191.47 114.519 191.413 114.366C191.355 114.213 191.263 114.076 191.144 113.964V113.964C190.19 113.56 189.578 112.492 189.578 110.936Z" fill="white"></path> <path d="M187.229 119.751C187.229 121.348 186.259 123.2 185.067 123.9C183.874 124.6 182.899 123.858 182.899 122.266L187.229 119.751Z" fill="white"></path> </svg> 