<?xml version="1.0" encoding="UTF-8"?> <svg xmlns="http://www.w3.org/2000/svg" width="40" height="40" viewBox="0 0 40 40" fill="none"> <circle cx="20" cy="20" r="20" fill="#6BEAC7"></circle> <path d="M20 20C24.936 20 28.9375 17.8174 28.9375 15.125C28.9375 12.4326 24.936 10.25 20 10.25C15.064 10.25 11.0625 12.4326 11.0625 15.125C11.0625 17.8174 15.064 20 20 20Z" stroke="white" stroke-width="2" stroke-linecap="round" stroke-linejoin="round"></path> <path d="M11.0625 15.125V20C11.0625 22.6924 15.064 24.875 20 24.875C24.936 24.875 28.9375 22.6924 28.9375 20V15.125" stroke="white" stroke-width="2" stroke-linecap="round" stroke-linejoin="round"></path> <path d="M11.0625 20V24.875C11.0625 27.5674 15.064 29.75 20 29.75C24.936 29.75 28.9375 27.5674 28.9375 24.875V20" stroke="white" stroke-width="2" stroke-linecap="round" stroke-linejoin="round"></path> </svg> 