<?xml version="1.0" encoding="UTF-8"?> <svg xmlns="http://www.w3.org/2000/svg" width="100" height="101" viewBox="0 0 100 101" fill="none"> <path d="M50 100.039C77.6142 100.039 100 77.6502 100 50.0327C100 22.4152 77.6142 0.0268555 50 0.0268555C22.3858 0.0268555 0 22.4152 0 50.0327C0 77.6502 22.3858 100.039 50 100.039Z" fill="white"></path> <path d="M25.4006 54.0317H26.4806V46.5917H30.9806V54.0317H32.0606V45.6317H25.4006V54.0317ZM33.7682 54.1037C33.9482 54.1637 34.0562 54.1637 34.2482 54.1637C35.1962 54.1637 36.0362 53.5277 36.1802 49.0157L36.1922 48.6317H38.5202V54.0317H39.5162V47.6717H35.2922L35.2682 48.4997C35.1482 52.7837 34.5842 52.9637 34.0802 52.9637C33.9602 52.9637 33.8762 52.9517 33.7682 52.9157V54.1037ZM45.4495 54.0317H46.3615V49.7117C46.3615 48.0677 45.6055 47.5517 43.9255 47.5517C43.3135 47.5517 42.4135 47.7077 41.8855 47.9957V49.1477C42.3175 48.7877 43.0975 48.4637 43.8175 48.4637C44.8855 48.4637 45.3655 48.7037 45.3655 49.7237V50.3237H43.9375C42.1135 50.3237 41.4055 50.8637 41.4055 52.2677C41.4055 53.4917 42.1975 54.1637 43.4695 54.1637C44.3815 54.1637 45.0655 53.6957 45.3895 53.1197L45.4495 54.0317ZM42.4255 52.1117C42.4255 51.3437 42.7615 51.0557 43.9735 51.0557H45.3655V51.5957C45.3655 52.5197 44.8375 53.2037 43.6615 53.2037C42.7855 53.2037 42.4255 52.7957 42.4255 52.1117ZM49.7273 54.0317H50.7233V48.6077H52.7753V47.6717H47.6633V48.6077H49.7273V54.0317ZM59.2542 51.2117V50.5637C59.2542 48.7637 58.5462 47.5517 56.5782 47.5517C54.7182 47.5517 53.7102 48.6797 53.7102 50.7557C53.7102 53.2037 54.7662 54.1637 56.8182 54.1637C57.7662 54.1637 58.4742 53.8277 58.7862 53.5997V52.5677C58.3182 52.9397 57.6462 53.2637 56.8422 53.2637C55.4502 53.2637 54.7182 52.5797 54.7182 51.2117H59.2542ZM56.5662 48.4517C57.7422 48.4517 58.2582 49.0517 58.2582 50.3477H54.7182C54.7182 49.0517 55.4022 48.4517 56.5662 48.4517ZM61.3694 54.0317L63.1574 51.1517H64.1174V54.0317H65.1134V51.1517H66.1214L67.8494 54.0317H69.0254L66.9614 50.6957L68.8334 47.6717H67.7654L66.1214 50.3717H65.1134V47.6717H64.1174V50.3717H63.1214L61.5374 47.6717H60.3974L62.2934 50.7437L60.2174 54.0317H61.3694ZM70.5368 54.0317H71.4248L73.8968 50.5037C74.2568 50.0237 74.6288 49.4117 74.8328 49.0397L74.8688 49.0517C74.8328 49.4957 74.7968 50.5397 74.7968 51.4637V54.0317H75.7928V47.6717H74.9168L72.5048 51.1637C72.1568 51.6437 71.8088 52.1237 71.5088 52.6397L71.4608 52.6157C71.4968 52.3037 71.5328 51.5117 71.5328 50.7677V47.6717H70.5368V54.0317Z" fill="#737688"></path> </svg> 