<?xml version="1.0" encoding="UTF-8"?> <svg xmlns="http://www.w3.org/2000/svg" width="60" height="61" viewBox="0 0 60 61" fill="none"> <path d="M30 60.0537C46.5685 60.0537 60 46.6207 60 30.0502C60 13.4797 46.5685 0.0466309 30 0.0466309C13.4315 0.0466309 0 13.4797 0 30.0502C0 46.6207 13.4315 60.0537 30 60.0537Z" fill="white"></path> <path d="M20.724 34.0493H21.804V25.6493H20.724V29.7173C20.244 30.0413 19.536 30.1853 18.78 30.1853C17.724 30.1853 17.04 29.8253 17.04 28.6613V25.6493H15.96V29.1653C15.96 30.4253 16.932 31.1333 18.564 31.1333C19.548 31.1333 20.292 30.8933 20.724 30.6053V34.0493ZM27.9085 34.0493H28.8205V29.7293C28.8205 28.0853 28.0645 27.5693 26.3845 27.5693C25.7725 27.5693 24.8725 27.7253 24.3445 28.0133V29.1653C24.7765 28.8053 25.5565 28.4813 26.2765 28.4813C27.3445 28.4813 27.8245 28.7213 27.8245 29.7413V30.3413H26.3965C24.5725 30.3413 23.8645 30.8813 23.8645 32.2853C23.8645 33.5093 24.6565 34.1813 25.9285 34.1813C26.8405 34.1813 27.5245 33.7133 27.8485 33.1373L27.9085 34.0493ZM24.8845 32.1293C24.8845 31.3613 25.2205 31.0733 26.4325 31.0733H27.8245V31.6133C27.8245 32.5373 27.2965 33.2213 26.1205 33.2213C25.2445 33.2213 24.8845 32.8133 24.8845 32.1293ZM32.1863 34.0493H33.1823V28.6253H35.2343V27.6893H30.1223V28.6253H32.1863V34.0493ZM37.5972 29.7893V27.6893H36.6012V34.0493C37.1532 34.1093 37.7292 34.1333 38.2812 34.1333C40.5252 34.1333 41.2212 33.1013 41.2212 31.8293C41.2212 30.4013 40.5012 29.7413 38.4732 29.7413C38.1732 29.7413 37.9092 29.7533 37.5972 29.7893ZM37.5972 33.1973V30.6173C37.8492 30.5813 38.0292 30.5573 38.2812 30.5573C39.9372 30.5573 40.2252 31.1093 40.2252 31.8653C40.2252 32.6813 39.8172 33.2333 38.3892 33.2333C38.0292 33.2333 37.8852 33.2213 37.5972 33.1973ZM42.1212 34.0493H43.1172V27.6893H42.1212V34.0493Z" fill="#737688"></path> </svg> 