<?xml version="1.0" encoding="UTF-8"?> <svg xmlns="http://www.w3.org/2000/svg" width="210" height="182" viewBox="0 0 210 182" fill="none"> <path d="M104.105 181.673C147.629 181.673 182.912 163.23 182.912 140.48C182.912 117.729 147.629 99.2861 104.105 99.2861C60.5817 99.2861 25.2988 117.729 25.2988 140.48C25.2988 163.23 60.5817 181.673 104.105 181.673Z" fill="#E7E9F8"></path> <path d="M105.061 149.99C103.215 149.99 101.34 149.911 99.4891 149.758C84.8972 148.535 71.8688 142.642 65.4815 134.371L65.2236 134.043L71.1328 129.469L71.3864 129.797C77.2623 137.399 90.8105 142.505 105.099 142.505C106.434 142.505 107.777 142.459 109.087 142.368C117.973 141.748 125.658 139.074 130.266 135.02L126.107 130.504L140.849 129.672L139.552 145.088L135.335 140.513C129.447 145.774 120.335 149.076 109.619 149.824C108.114 149.936 106.579 149.99 105.061 149.99Z" fill="#E7E9F8"></path> <path d="M87.6748 111.271V105.308L95.422 100.834V106.797L87.6748 111.271Z" fill="#E7E9F8"></path> <path d="M87.675 105.308L77.9941 99.7151V105.678L87.675 111.271V105.308Z" fill="#A0A0B1"></path> <path d="M87.6749 105.309L95.6508 100.701L85.7371 94.9749L77.7612 99.5824L87.6749 105.309Z" fill="white"></path> <path d="M87.6748 105.308V106.797L95.6507 102.194V100.701L87.6748 105.308Z" fill="#E7E9F8"></path> <path d="M87.6748 106.797L95.422 102.327V102.655L87.6748 107.126V106.797Z" fill="#DDDDEE"></path> <path d="M77.7612 99.5825L87.6749 105.309V106.797L77.7612 101.075V99.5825Z" fill="#A0A0B1"></path> <path d="M87.675 106.798L77.9941 101.209V101.537L87.675 107.126V106.798Z" fill="#A0A0B1"></path> <path d="M90.2243 106.215L92.8732 104.685C92.9855 104.622 93.077 104.685 93.077 104.805V106.369C93.0733 106.44 93.053 106.51 93.0176 106.572C92.9822 106.634 92.9327 106.687 92.8732 106.727L90.2243 108.257C90.112 108.323 90.0205 108.257 90.0205 108.136V106.56C90.026 106.491 90.0473 106.424 90.0826 106.364C90.1179 106.304 90.1663 106.253 90.2243 106.215Z" fill="#F5F6FF"></path> <path d="M90.3946 106.39L92.7025 105.059C92.7773 105.017 92.8397 105.059 92.8397 105.138V106.311C92.8367 106.359 92.8228 106.405 92.799 106.447C92.7752 106.489 92.7422 106.525 92.7025 106.552L90.3946 107.882C90.3197 107.928 90.2573 107.882 90.2573 107.803V106.631C90.2603 106.583 90.2743 106.536 90.298 106.494C90.3218 106.453 90.3548 106.417 90.3946 106.39Z" fill="white"></path> <path d="M87.6748 104.56V98.5968L95.422 94.1223V100.086L87.6748 104.56Z" fill="#E7E9F8"></path> <path d="M87.675 98.5965L77.9941 93.0034V98.9666L87.675 104.56V98.5965Z" fill="#A0A0B1"></path> <path d="M87.6764 98.5969L95.6523 93.9894L85.7386 88.2632L77.7627 92.8707L87.6764 98.5969Z" fill="#E7E9F8"></path> <path d="M87.6748 98.597V100.086L95.6507 95.4824V93.9895L87.6748 98.597Z" fill="#E7E9F8"></path> <path d="M87.6748 100.086L95.422 95.6152V95.9396L87.6748 100.414V100.086Z" fill="#DDDDEE"></path> <path d="M77.7612 92.8708L87.6749 98.597V100.086L77.7612 94.3637V92.8708Z" fill="#A0A0B1"></path> <path d="M87.675 100.085L77.9941 94.4963V94.8249L87.675 100.414V100.085Z" fill="#A0A0B1"></path> <path d="M90.2243 99.491L92.8732 97.9607C92.9855 97.8941 93.077 97.9607 93.077 98.0813V99.6448C93.0733 99.7162 93.053 99.7858 93.0176 99.8479C92.9822 99.91 92.9327 99.9629 92.8732 100.002L90.2243 101.529C90.112 101.595 90.0205 101.529 90.0205 101.412V99.8486C90.0235 99.7771 90.0436 99.7073 90.079 99.6451C90.1145 99.5829 90.1643 99.53 90.2243 99.491V99.491Z" fill="#F5F6FF"></path> <path d="M90.3946 99.6777L92.7025 98.3471C92.7773 98.3013 92.8397 98.3471 92.8397 98.4261V99.5987C92.837 99.6462 92.8232 99.6924 92.7993 99.7336C92.7755 99.7748 92.7423 99.8098 92.7025 99.8358L90.3946 101.154C90.3197 101.196 90.2573 101.154 90.2573 101.075V99.9065C90.2616 99.8605 90.2761 99.8161 90.2999 99.7765C90.3236 99.7369 90.356 99.7031 90.3946 99.6777V99.6777Z" fill="white"></path> <path d="M95.0064 100.327L87.6751 104.56L78.4101 99.2039L78.1855 99.3411L87.6751 104.801L95.231 100.46L95.0064 100.327Z" fill="#A0A0B1"></path> <path opacity="0.5" d="M95.0064 100.327L87.6751 104.56L78.4101 99.2039L78.1855 99.3411L87.6751 104.801L95.231 100.46L95.0064 100.327Z" fill="#DDDDEE"></path> <path d="M121.325 111.272V105.309L113.578 100.834V106.798L121.325 111.272Z" fill="#E7E9F8"></path> <path d="M121.325 105.309L131.006 99.7156V105.679L121.325 111.272V105.309Z" fill="#A0A0B1"></path> <path d="M121.325 105.309L113.349 100.702L123.263 94.9753L131.239 99.5829L121.325 105.309Z" fill="white"></path> <path d="M121.325 105.309V106.798L113.349 102.194V100.701L121.325 105.309Z" fill="#E7E9F8"></path> <path d="M121.325 106.798L113.578 102.327V102.656L121.325 107.126V106.798Z" fill="#DDDDEE"></path> <path d="M131.239 99.583L121.325 105.309V106.798L131.239 101.076V99.583Z" fill="#A0A0B1"></path> <path d="M121.325 106.798L131.01 101.209L131.006 101.538L121.325 107.127V106.798Z" fill="#A0A0B1"></path> <path d="M118.776 106.216L116.144 104.686C116.031 104.623 115.94 104.686 115.94 104.806V106.37C115.944 106.441 115.964 106.511 115.999 106.573C116.035 106.635 116.084 106.688 116.144 106.727L118.793 108.258C118.905 108.324 118.996 108.258 118.996 108.137V106.561C118.989 106.49 118.965 106.422 118.927 106.363C118.889 106.303 118.837 106.252 118.776 106.216Z" fill="#F5F6FF"></path> <path d="M118.605 106.39L116.297 105.059C116.223 105.018 116.16 105.059 116.16 105.138V106.311C116.163 106.359 116.177 106.406 116.201 106.448C116.225 106.489 116.258 106.525 116.297 106.552L118.605 107.883C118.68 107.929 118.743 107.883 118.743 107.804V106.631C118.74 106.583 118.726 106.537 118.702 106.495C118.678 106.453 118.645 106.417 118.605 106.39Z" fill="white"></path> <path d="M121.325 104.56V98.5973L113.578 94.1228V100.086L121.325 104.56Z" fill="#E7E9F8"></path> <path d="M121.325 98.597L131.006 93.0039V98.9671L121.325 104.56V98.597Z" fill="#A0A0B1"></path> <path d="M121.325 98.5969L113.349 93.9894L123.263 88.2632L131.239 92.8707L121.325 98.5969Z" fill="#E7E9F8"></path> <path d="M121.325 98.5973V100.086L113.349 95.4826V93.9897L121.325 98.5973Z" fill="#E7E9F8"></path> <path d="M121.325 100.086L113.578 95.6157V95.9401L121.325 100.415V100.086Z" fill="#DDDDEE"></path> <path d="M131.239 92.8713L121.325 98.5975V100.086L131.239 94.3642V92.8713Z" fill="#A0A0B1"></path> <path d="M121.325 100.086L131.01 94.4968L131.006 94.8253L121.325 100.414V100.086Z" fill="#A0A0B1"></path> <path d="M118.776 99.4919L116.144 97.9741C116.031 97.9076 115.94 97.9741 115.94 98.0947V99.6583C115.944 99.7296 115.964 99.7992 115.999 99.8613C116.035 99.9234 116.084 99.9763 116.144 100.016L118.793 101.542C118.905 101.609 118.996 101.542 118.996 101.426V99.862C118.994 99.7868 118.972 99.7135 118.933 99.6488C118.895 99.5842 118.841 99.5302 118.776 99.4919V99.4919Z" fill="#F5F6FF"></path> <path d="M118.605 99.6782L116.297 98.3475C116.223 98.3018 116.16 98.3475 116.16 98.4265V99.5992C116.163 99.6467 116.177 99.6929 116.201 99.7341C116.224 99.7753 116.258 99.8103 116.297 99.8363L118.605 101.171C118.68 101.213 118.743 101.171 118.743 101.092V99.907C118.738 99.861 118.724 99.8165 118.7 99.777C118.676 99.7374 118.644 99.7036 118.605 99.6782V99.6782Z" fill="white"></path> <path d="M113.994 100.327L121.325 104.56L130.59 99.2043L130.815 99.3416L121.325 104.802L113.77 100.46L113.994 100.327Z" fill="#A0A0B1"></path> <path opacity="0.5" d="M113.994 100.327L121.325 104.56L130.59 99.2043L130.815 99.3416L121.325 104.802L113.77 100.46L113.994 100.327Z" fill="#DDDDEE"></path> <path d="M27.2285 135.424L36.4894 130.08V110.223L27.2285 115.567V135.424Z" fill="#353747"></path> <path d="M27.228 115.567L14 107.932V127.788L27.228 135.423V115.567Z" fill="#353747"></path> <path d="M14.0005 107.932L27.2285 115.567L36.4893 110.224L23.2613 102.585L14.0005 107.932Z" fill="#737688"></path> <path d="M26.1513 125.639L15.5681 119.53V126.882L15.3228 127.023L25.906 133.132L26.1513 132.991V125.639Z" fill="#353747"></path> <path d="M25.906 125.78L15.3228 119.667V127.023L25.906 133.132V125.78Z" fill="#737688"></path> <path d="M21.7474 124.628L19.9593 123.609C19.7264 123.472 19.5435 123.534 19.5435 123.746C19.5591 123.875 19.6049 123.999 19.6771 124.107C19.7493 124.216 19.846 124.306 19.9593 124.37L21.7599 125.409C21.9928 125.547 22.1757 125.484 22.1757 125.272C22.1619 125.138 22.1157 125.009 22.0411 124.897C21.9665 124.785 21.8657 124.692 21.7474 124.628V124.628Z" fill="#353747"></path> <path d="M26.1513 116.76L15.5681 110.652V118.004L15.3228 118.145L25.906 124.254L26.1513 124.112V116.76Z" fill="#353747"></path> <path d="M25.906 116.901L15.3228 110.793V118.145L25.906 124.254V116.901Z" fill="#737688"></path> <path d="M21.7472 115.754L19.9466 114.715C19.7137 114.577 19.5308 114.64 19.5308 114.852C19.5464 114.981 19.5922 115.105 19.6644 115.213C19.7366 115.321 19.8333 115.411 19.9466 115.476L21.7472 116.515C21.9801 116.652 22.1631 116.59 22.1631 116.378C22.1474 116.249 22.1016 116.125 22.0294 116.017C21.9572 115.908 21.8605 115.818 21.7472 115.754V115.754Z" fill="#353747"></path> <path d="M181.772 135.424L172.511 130.08V110.223L181.772 115.567V135.424Z" fill="#6BEAC7"></path> <g opacity="0.2"> <path opacity="0.2" d="M181.772 135.424L172.511 130.08V110.224L181.772 115.567V135.424Z" fill="black"></path> </g> <path d="M181.772 115.567L195 107.932V127.788L181.772 135.423V115.567Z" fill="#6BEAC7"></path> <path d="M195 107.932L181.772 115.567L172.511 110.223L185.739 102.584L195 107.932Z" fill="#6BEAC7"></path> <g opacity="0.4"> <path opacity="0.4" d="M195 107.932L181.772 115.567L172.511 110.223L185.739 102.584L195 107.932Z" fill="white"></path> </g> <path d="M182.853 125.639L193.432 119.53V126.882L193.674 127.023L183.094 133.132L182.849 132.991L182.853 125.639Z" fill="#6BEAC7"></path> <g opacity="0.1"> <path opacity="0.1" d="M182.853 125.639L193.432 119.53V126.882L193.674 127.023L183.094 133.132L182.849 132.991L182.853 125.639Z" fill="black"></path> </g> <path d="M183.094 125.78L193.677 119.667L193.673 127.023L183.094 133.132V125.78Z" fill="#6BEAC7"></path> <g opacity="0.4"> <path opacity="0.4" d="M183.094 125.78L193.677 119.667L193.673 127.023L183.094 133.132V125.78Z" fill="white"></path> </g> <path d="M187.253 124.628L189.041 123.609C189.274 123.472 189.457 123.534 189.457 123.746C189.441 123.875 189.395 123.999 189.323 124.107C189.251 124.216 189.154 124.306 189.041 124.37L187.24 125.409C187.007 125.547 186.824 125.484 186.824 125.272C186.838 125.138 186.884 125.009 186.959 124.897C187.033 124.785 187.134 124.692 187.253 124.628Z" fill="#6BEAC7"></path> <g opacity="0.1"> <path opacity="0.1" d="M187.253 124.628L189.041 123.609C189.274 123.472 189.457 123.534 189.457 123.746C189.441 123.875 189.395 123.999 189.323 124.107C189.251 124.216 189.154 124.306 189.041 124.37L187.24 125.409C187.007 125.547 186.824 125.484 186.824 125.272C186.838 125.138 186.884 125.009 186.959 124.897C187.033 124.785 187.134 124.692 187.253 124.628Z" fill="black"></path> </g> <path d="M182.853 116.76L193.432 110.652V118.004L193.674 118.145L183.094 124.254L182.849 124.112L182.853 116.76Z" fill="#6BEAC7"></path> <g opacity="0.1"> <path opacity="0.1" d="M182.853 116.76L193.432 110.652V118.004L193.674 118.145L183.094 124.254L182.849 124.112L182.853 116.76Z" fill="black"></path> </g> <path d="M183.094 116.901L193.677 110.793L193.673 118.145L183.094 124.254V116.901Z" fill="#6BEAC7"></path> <g opacity="0.4"> <path opacity="0.4" d="M183.094 116.901L193.677 110.793L193.673 118.145L183.094 124.254V116.901Z" fill="white"></path> </g> <path d="M187.253 115.754L189.053 114.715C189.286 114.577 189.469 114.64 189.469 114.852C189.454 114.981 189.408 115.105 189.336 115.213C189.263 115.321 189.167 115.411 189.053 115.476L187.253 116.515C187.02 116.652 186.837 116.59 186.837 116.378C186.853 116.249 186.898 116.125 186.971 116.017C187.043 115.908 187.139 115.818 187.253 115.754Z" fill="#6BEAC7"></path> <g opacity="0.1"> <path opacity="0.1" d="M187.253 115.754L189.053 114.715C189.286 114.577 189.469 114.64 189.469 114.852C189.454 114.981 189.408 115.105 189.336 115.213C189.263 115.321 189.167 115.411 189.053 115.476L187.253 116.515C187.02 116.652 186.837 116.59 186.837 116.378C186.853 116.249 186.898 116.125 186.971 116.017C187.043 115.908 187.139 115.818 187.253 115.754Z" fill="black"></path> </g> <path d="M127.197 109.787L170.486 134.783L173.119 136.301L173.239 136.364C173.31 136.399 173.384 136.428 173.46 136.451C173.548 136.486 173.64 136.511 173.734 136.526C173.794 136.541 173.855 136.552 173.917 136.559C173.929 136.564 173.942 136.564 173.954 136.559C174.032 136.563 174.11 136.563 174.187 136.559C174.426 136.568 174.664 136.517 174.878 136.409C175.389 136.027 175.741 135.468 175.863 134.842L183.157 96.9417C183.174 96.8596 183.182 96.776 183.182 96.6922C183.188 96.6244 183.188 96.5562 183.182 96.4884V96.4884C183.167 96.384 183.144 96.281 183.111 96.1807C183.073 96.0788 183.03 95.9789 182.982 95.8813L182.874 95.7025C182.828 95.6386 182.778 95.5776 182.725 95.5195C182.678 95.4692 182.628 95.4219 182.575 95.3781C182.519 95.3342 182.461 95.2939 182.4 95.2575L136.466 68.7558C136.427 68.7325 136.387 68.7117 136.346 68.6934L136.217 68.6352C136.197 68.6258 136.176 68.6188 136.154 68.6144C136.099 68.6064 136.043 68.6064 135.988 68.6144C135.686 68.6786 135.402 68.8093 135.156 68.997L134.137 69.5958C134.059 69.6273 133.989 69.6772 133.934 69.7414C133.848 69.8292 133.784 69.936 133.747 70.0532C133.728 70.1044 133.714 70.1573 133.705 70.2113L126.407 108.107C126.364 108.433 126.415 108.765 126.555 109.063C126.695 109.361 126.918 109.612 127.197 109.787V109.787Z" fill="#6BEAC7"></path> <path d="M127.197 109.787L170.486 134.783L173.119 136.301L173.239 136.364C173.31 136.399 173.384 136.428 173.46 136.451C173.548 136.486 173.64 136.511 173.734 136.526C173.794 136.541 173.855 136.552 173.917 136.559C173.929 136.564 173.942 136.564 173.954 136.559C174.032 136.563 174.11 136.563 174.187 136.559C174.426 136.568 174.664 136.517 174.878 136.409C175.389 136.027 175.741 135.468 175.863 134.842L183.157 96.9417C183.174 96.8596 183.182 96.776 183.182 96.6922C183.188 96.6244 183.188 96.5562 183.182 96.4884V96.4884C183.167 96.384 183.144 96.281 183.111 96.1807C183.073 96.0788 183.03 95.9789 182.982 95.8813L182.874 95.7025C182.828 95.6386 182.778 95.5776 182.725 95.5195C182.678 95.4692 182.628 95.4219 182.575 95.3781C182.519 95.3342 182.461 95.2939 182.4 95.2575L136.466 68.7558C136.427 68.7325 136.387 68.7117 136.346 68.6934L136.217 68.6352C136.197 68.6258 136.176 68.6188 136.154 68.6144C136.099 68.6064 136.043 68.6064 135.988 68.6144C135.686 68.6786 135.402 68.8093 135.156 68.997L134.137 69.5958C134.059 69.6273 133.989 69.6772 133.934 69.7414C133.848 69.8292 133.784 69.936 133.747 70.0532C133.728 70.1044 133.714 70.1573 133.705 70.2113L126.407 108.107C126.364 108.433 126.415 108.765 126.555 109.063C126.695 109.361 126.918 109.612 127.197 109.787V109.787Z" fill="#6BEAC7"></path> <path d="M173.239 136.363C173.491 136.492 173.768 136.565 174.051 136.576C174.334 136.586 174.616 136.535 174.877 136.426C175.389 136.044 175.74 135.485 175.863 134.858L183.157 96.9581C183.214 96.5905 183.147 96.2142 182.965 95.8894L181.431 96.7793C181.612 97.1043 181.681 97.48 181.626 97.848L174.32 135.752C174.309 135.874 174.269 135.992 174.203 136.094C174.137 136.197 174.047 136.283 173.941 136.343C173.834 136.403 173.714 136.436 173.592 136.44C173.47 136.444 173.349 136.417 173.239 136.363V136.363Z" fill="#353747"></path> <path d="M135.173 68.9804L134.154 69.5792C134.277 69.5251 134.413 69.5028 134.547 69.5144C134.681 69.526 134.811 69.5712 134.923 69.6457L180.841 96.164C181.086 96.3138 181.286 96.5281 181.419 96.7837L182.966 95.8938L182.857 95.7149C182.811 95.6511 182.761 95.59 182.708 95.532C182.612 95.4301 182.503 95.342 182.383 95.27L136.466 68.7558C136.386 68.709 136.303 68.6687 136.216 68.6352C136.197 68.6258 136.176 68.6188 136.154 68.6144C136.099 68.6064 136.043 68.6064 135.988 68.6144C135.693 68.6759 135.415 68.8008 135.173 68.9804Z" fill="#353747"></path> <path opacity="0.5" d="M135.173 68.9804L134.154 69.5792C134.277 69.5251 134.413 69.5028 134.547 69.5144C134.681 69.526 134.811 69.5712 134.923 69.6457L180.841 96.164C181.086 96.3138 181.286 96.5281 181.419 96.7837L182.966 95.8938L182.857 95.7149C182.811 95.6511 182.761 95.59 182.708 95.532C182.612 95.4301 182.503 95.342 182.383 95.27L136.466 68.7558C136.386 68.709 136.303 68.6687 136.216 68.6352C136.197 68.6258 136.176 68.6188 136.154 68.6144C136.099 68.6064 136.043 68.6064 135.988 68.6144C135.693 68.6759 135.415 68.8008 135.173 68.9804Z" fill="#737688"></path> <path d="M174.32 135.748L181.614 97.8524C181.661 97.5258 181.613 97.1927 181.476 96.8926C181.338 96.5926 181.118 96.3383 180.84 96.1599L134.923 69.6499C134.814 69.5706 134.686 69.5216 134.552 69.508C134.418 69.4944 134.283 69.5167 134.16 69.5725C134.037 69.6284 133.932 69.7158 133.854 69.8258C133.776 69.9358 133.729 70.0645 133.717 70.1988L126.423 108.099C126.376 108.425 126.424 108.758 126.562 109.059C126.699 109.359 126.919 109.613 127.197 109.791L173.114 136.301C173.224 136.379 173.352 136.427 173.486 136.44C173.62 136.453 173.755 136.43 173.877 136.374C173.999 136.318 174.105 136.23 174.182 136.12C174.26 136.011 174.308 135.882 174.32 135.748V135.748Z" fill="#6BEAC7"></path> <path d="M174.32 135.748L181.614 97.8524C181.661 97.5258 181.613 97.1927 181.476 96.8926C181.338 96.5926 181.118 96.3383 180.84 96.1599L134.923 69.6499C134.814 69.5706 134.686 69.5216 134.552 69.508C134.418 69.4944 134.283 69.5167 134.16 69.5725C134.037 69.6284 133.932 69.7158 133.854 69.8258C133.776 69.9358 133.729 70.0645 133.717 70.1988L126.423 108.099C126.376 108.425 126.424 108.758 126.562 109.059C126.699 109.359 126.919 109.613 127.197 109.791L173.114 136.301C173.224 136.379 173.352 136.427 173.486 136.44C173.62 136.453 173.755 136.43 173.877 136.374C173.999 136.318 174.105 136.23 174.182 136.12C174.26 136.011 174.308 135.882 174.32 135.748V135.748Z" fill="#353747"></path> <path opacity="0.5" d="M174.32 135.748L181.614 97.8524C181.661 97.5258 181.613 97.1927 181.476 96.8926C181.338 96.5926 181.118 96.3383 180.84 96.1599L134.923 69.6499C134.814 69.5706 134.686 69.5216 134.552 69.508C134.418 69.4944 134.283 69.5167 134.16 69.5725C134.037 69.6284 133.932 69.7158 133.854 69.8258C133.776 69.9358 133.729 70.0645 133.717 70.1988L126.423 108.099C126.376 108.425 126.424 108.758 126.562 109.059C126.699 109.359 126.919 109.613 127.197 109.791L173.114 136.301C173.224 136.379 173.352 136.427 173.486 136.44C173.62 136.453 173.755 136.43 173.877 136.374C173.999 136.318 174.105 136.23 174.182 136.12C174.26 136.011 174.308 135.882 174.32 135.748V135.748Z" fill="#353747"></path> <path d="M139.51 108.256L170.652 126.237L172.544 127.331L172.632 127.377C172.683 127.401 172.736 127.422 172.79 127.439C172.855 127.463 172.921 127.482 172.989 127.493C173.032 127.504 173.075 127.511 173.118 127.514C173.123 127.516 173.128 127.517 173.133 127.517C173.138 127.517 173.143 127.516 173.147 127.514C173.203 127.518 173.258 127.518 173.314 127.514C173.487 127.519 173.659 127.481 173.813 127.402C174.18 127.126 174.432 126.725 174.52 126.275L179.768 99.0287C179.774 98.9692 179.774 98.9093 179.768 98.8499C179.772 98.8 179.772 98.75 179.768 98.7002C179.759 98.6237 179.743 98.5484 179.718 98.4756C179.692 98.4031 179.661 98.3323 179.626 98.2635C179.601 98.2219 179.576 98.1762 179.547 98.1346C179.516 98.088 179.48 98.0448 179.439 98.0057C179.408 97.9659 179.372 97.9309 179.331 97.9017C179.293 97.8699 179.253 97.8408 179.21 97.8144L146.18 78.7397L146.084 78.6981L145.989 78.6565C145.975 78.6541 145.961 78.6541 145.947 78.6565C145.907 78.6506 145.867 78.6506 145.827 78.6565C145.613 78.705 145.413 78.8001 145.24 78.9351L144.508 79.351C144.451 79.3741 144.4 79.4096 144.359 79.4549C144.298 79.5186 144.252 79.5955 144.226 79.6795C144.213 79.7161 144.203 79.7536 144.196 79.7918L138.948 107.059C138.92 107.291 138.958 107.526 139.057 107.738C139.157 107.95 139.313 108.129 139.51 108.256V108.256Z" fill="#6BEAC7"></path> <path d="M139.51 108.256L170.652 126.237L172.544 127.331L172.632 127.377C172.683 127.401 172.736 127.422 172.79 127.439C172.855 127.463 172.921 127.482 172.989 127.493C173.032 127.504 173.075 127.511 173.118 127.514C173.123 127.516 173.128 127.517 173.133 127.517C173.138 127.517 173.143 127.516 173.147 127.514C173.203 127.518 173.258 127.518 173.314 127.514C173.487 127.519 173.659 127.481 173.813 127.402C174.18 127.126 174.432 126.725 174.52 126.275L179.768 99.0287C179.774 98.9692 179.774 98.9093 179.768 98.8499C179.772 98.8 179.772 98.75 179.768 98.7002C179.759 98.6237 179.743 98.5484 179.718 98.4756C179.692 98.4031 179.661 98.3323 179.626 98.2635C179.601 98.2219 179.576 98.1762 179.547 98.1346C179.516 98.088 179.48 98.0448 179.439 98.0057C179.408 97.9659 179.372 97.9309 179.331 97.9017C179.293 97.8699 179.253 97.8408 179.21 97.8144L146.18 78.7397L146.084 78.6981L145.989 78.6565C145.975 78.6541 145.961 78.6541 145.947 78.6565C145.907 78.6506 145.867 78.6506 145.827 78.6565C145.613 78.705 145.413 78.8001 145.24 78.9351L144.508 79.351C144.451 79.3741 144.4 79.4096 144.359 79.4549C144.298 79.5186 144.252 79.5955 144.226 79.6795C144.213 79.7161 144.203 79.7536 144.196 79.7918L138.948 107.059C138.92 107.291 138.958 107.526 139.057 107.738C139.157 107.95 139.313 108.129 139.51 108.256V108.256Z" fill="#6BEAC7"></path> <path d="M172.632 127.377C172.814 127.47 173.014 127.521 173.218 127.528C173.422 127.535 173.625 127.498 173.813 127.419C174.18 127.144 174.432 126.742 174.52 126.292L179.768 99.0293C179.806 98.7648 179.757 98.4951 179.63 98.26L178.52 98.9004C178.651 99.134 178.701 99.4047 178.662 99.6697L173.409 126.937C173.402 127.024 173.374 127.109 173.326 127.183C173.279 127.258 173.214 127.319 173.137 127.363C173.061 127.406 172.974 127.43 172.886 127.433C172.798 127.435 172.711 127.416 172.632 127.377V127.377Z" fill="#E7E9F8"></path> <path d="M145.253 78.9021L144.521 79.3179C144.609 79.2784 144.706 79.2621 144.802 79.2709C144.898 79.2796 144.99 79.313 145.07 79.3678L178.105 98.4551C178.283 98.5603 178.427 98.7148 178.52 98.9L179.635 98.2596C179.61 98.218 179.585 98.1723 179.556 98.1307C179.524 98.0841 179.488 98.0409 179.448 98.0018C179.381 97.9269 179.304 97.8625 179.219 97.8105L146.18 78.7399C146.121 78.7067 146.06 78.6775 145.997 78.6526C145.983 78.6502 145.969 78.6502 145.956 78.6526C145.916 78.6467 145.875 78.6467 145.835 78.6526C145.625 78.6929 145.427 78.778 145.253 78.9021V78.9021Z" fill="white"></path> <path d="M173.409 126.936L178.657 99.6692C178.689 99.4348 178.653 99.1962 178.555 98.9812C178.456 98.7662 178.298 98.5837 178.1 98.455L145.069 79.3802C144.989 79.3226 144.895 79.2876 144.797 79.2788C144.699 79.27 144.6 79.2878 144.511 79.3304C144.423 79.3729 144.347 79.4386 144.292 79.5205C144.237 79.6025 144.206 79.6977 144.2 79.7961L138.956 107.063C138.924 107.297 138.959 107.535 139.057 107.75C139.155 107.965 139.312 108.148 139.51 108.277L172.544 127.352C172.624 127.408 172.718 127.443 172.815 127.451C172.913 127.459 173.011 127.441 173.099 127.399C173.187 127.356 173.263 127.291 173.317 127.21C173.372 127.128 173.403 127.034 173.409 126.936V126.936Z" fill="#F5F6FF"></path> <path d="M148.995 100.239C149.12 100.154 149.222 100.041 149.294 99.9084C149.367 99.7761 149.407 99.6287 149.411 99.478V49.897C149.403 49.7411 149.358 49.5893 149.28 49.4541C149.202 49.3189 149.093 49.2042 148.962 49.1194L117.807 31.1383C117.678 31.0527 117.527 31.0049 117.372 31.0004C117.217 30.9958 117.064 31.0346 116.93 31.1125C116.796 31.1903 116.687 31.304 116.614 31.4409C116.541 31.5777 116.508 31.7322 116.518 31.8868V81.4678C116.526 81.6238 116.571 81.7756 116.649 81.9108C116.727 82.046 116.836 82.1607 116.967 82.2455L148.101 100.227C148.238 100.301 148.391 100.34 148.547 100.343C148.702 100.345 148.856 100.309 148.995 100.239Z" fill="#E7E7EE"></path> <path d="M116.521 31.8074C116.563 31.5787 116.746 31.4997 116.971 31.6286L148.109 49.5889C148.242 49.6712 148.351 49.7875 148.425 49.9257L149.257 49.4392C149.179 49.3012 149.069 49.1841 148.936 49.0982L117.806 31.1421C117.671 31.0734 117.522 31.0376 117.37 31.0376C117.218 31.0376 117.068 31.0734 116.933 31.1421C116.824 31.22 116.731 31.319 116.66 31.4333C116.59 31.5475 116.542 31.6747 116.521 31.8074Z" fill="white"></path> <path d="M148.164 100.255C148.291 100.314 148.429 100.344 148.569 100.344C148.709 100.344 148.847 100.314 148.974 100.255C149.099 100.17 149.201 100.057 149.274 99.9244C149.346 99.7921 149.386 99.6447 149.39 99.494V49.8964C149.385 49.7409 149.341 49.5894 149.261 49.4556L148.43 49.9421C148.512 50.0748 148.558 50.2268 148.563 50.3829V99.9639C148.579 100.226 148.384 100.351 148.164 100.255Z" fill="#E7E9F8"></path> <path d="M148.106 100.226L116.975 82.245C116.844 82.1602 116.735 82.0455 116.657 81.9103C116.579 81.7751 116.534 81.6233 116.526 81.4674V31.8864C116.526 31.5994 116.726 31.4705 116.975 31.6285L148.106 49.5888C148.237 49.6736 148.346 49.7883 148.424 49.9235C148.502 50.0587 148.547 50.2105 148.555 50.3665V99.9641C148.555 100.251 148.355 100.367 148.106 100.226Z" fill="#FAFAFA"></path> <g opacity="0.3"> <path opacity="0.3" d="M146.283 72.1902C146.283 72.5728 145.938 72.6851 145.518 72.4397L119.557 57.4693C119.351 57.3522 119.175 57.1892 119.043 56.9931C118.91 56.7969 118.824 56.5729 118.792 56.3383C118.792 55.9557 119.137 55.8434 119.557 56.0887L145.518 71.0591C145.724 71.1763 145.9 71.3392 146.033 71.5354C146.165 71.7315 146.251 71.9556 146.283 72.1902Z" fill="#737688"></path> <path opacity="0.3" d="M146.283 76.3317C146.283 76.7101 145.938 76.8224 145.518 76.5812L119.557 61.6108C119.351 61.4944 119.174 61.3316 119.041 61.1354C118.909 60.9391 118.823 60.7146 118.792 60.4797C118.792 60.0971 119.137 59.989 119.557 60.2302L145.518 75.2214C145.722 75.3357 145.897 75.4952 146.03 75.6877C146.162 75.8802 146.249 76.1005 146.283 76.3317V76.3317Z" fill="#737688"></path> <path opacity="0.3" d="M146.283 80.4695C146.283 80.8521 145.938 80.9644 145.518 80.719L119.557 65.7486C119.351 65.6315 119.175 65.4685 119.043 65.2724C118.91 65.0762 118.824 64.8522 118.792 64.6176C118.792 64.235 119.137 64.1227 119.557 64.368L145.518 79.3384C145.724 79.4556 145.9 79.6185 146.033 79.8147C146.165 80.0108 146.251 80.2349 146.283 80.4695Z" fill="#737688"></path> <path opacity="0.3" d="M146.283 84.6114C146.283 84.994 145.938 85.1021 145.518 84.8609L119.557 69.8906C119.351 69.7741 119.174 69.6114 119.041 69.4151C118.909 69.2188 118.823 68.9944 118.792 68.7595C118.792 68.381 119.137 68.2688 119.557 68.51L145.518 83.5011C145.722 83.6155 145.897 83.775 146.03 83.9674C146.162 84.1599 146.249 84.3802 146.283 84.6114V84.6114Z" fill="#737688"></path> <path opacity="0.3" d="M146.283 59.7695C146.283 60.1521 145.938 60.2644 145.518 60.0191L119.557 45.0487C119.351 44.9315 119.175 44.7686 119.043 44.5724C118.91 44.3763 118.824 44.1522 118.792 43.9176C118.792 43.535 119.137 43.4227 119.557 43.6681L145.518 58.6385C145.724 58.7556 145.9 58.9186 146.033 59.1147C146.165 59.3109 146.251 59.5349 146.283 59.7695Z" fill="#737688"></path> <path opacity="0.3" d="M146.283 63.9111C146.283 64.2937 145.938 64.4018 145.518 64.1606L119.557 49.1902C119.351 49.0738 119.174 48.9111 119.041 48.7148C118.909 48.5185 118.823 48.294 118.792 48.0591C118.792 47.6807 119.137 47.5684 119.557 47.8138L145.518 62.7842C145.724 62.9007 145.9 63.0629 146.032 63.2583C146.165 63.4538 146.251 63.6771 146.283 63.9111V63.9111Z" fill="#737688"></path> <path opacity="0.3" d="M146.283 55.636C146.283 56.0186 145.938 56.1309 145.518 55.8855L119.557 40.9151C119.351 40.798 119.175 40.635 119.043 40.4389C118.91 40.2427 118.824 40.0187 118.792 39.7841C118.792 39.4015 119.137 39.2892 119.557 39.5345L145.518 54.5049C145.724 54.6221 145.9 54.785 146.033 54.9812C146.165 55.1773 146.251 55.4014 146.283 55.636Z" fill="#737688"></path> <path opacity="0.3" d="M146.283 68.0525C146.283 68.4309 145.938 68.5432 145.518 68.2979L119.557 53.3275C119.351 53.2106 119.175 53.0477 119.042 52.8515C118.909 52.6553 118.824 52.4311 118.792 52.1964C118.792 51.8138 119.137 51.7016 119.557 51.9469L145.518 66.9173C145.725 67.0349 145.901 67.1985 146.034 67.3954C146.166 67.5923 146.252 67.8172 146.283 68.0525Z" fill="#737688"></path> <path opacity="0.3" d="M146.283 88.7532C146.283 89.1316 145.938 89.2439 145.518 88.9986L119.557 74.0282C119.351 73.911 119.175 73.7481 119.043 73.5519C118.91 73.3558 118.824 73.1317 118.792 72.8971C118.792 72.5145 119.137 72.4022 119.557 72.6476L145.518 87.618C145.725 87.7355 145.901 87.8992 146.034 88.0961C146.166 88.293 146.252 88.5179 146.283 88.7532Z" fill="#737688"></path> <path opacity="0.3" d="M146.283 92.8908C146.283 93.2734 145.938 93.3857 145.518 93.1403L119.557 78.17C119.351 78.0536 119.174 77.8908 119.041 77.6945C118.909 77.4982 118.823 77.2738 118.792 77.0389C118.792 76.6605 119.137 76.5482 119.557 76.7935L145.518 91.7639C145.724 91.8804 145.9 92.0427 146.032 92.2381C146.165 92.4335 146.251 92.6569 146.283 92.8908V92.8908Z" fill="#737688"></path> </g> <path d="M125.342 73.7295C125.33 73.6062 125.35 73.4819 125.399 73.3684C125.449 73.2549 125.526 73.1559 125.625 73.0808C125.647 73.0635 125.671 73.0482 125.696 73.035L127.184 72.1701C127.301 72.1171 127.429 72.0961 127.556 72.1093C127.683 72.1224 127.805 72.1693 127.908 72.2449L157.67 89.4068L158.539 85.9095C158.601 85.6741 158.749 85.4707 158.955 85.3398V85.3398L160.502 84.4374C160.646 84.3557 160.809 84.3149 160.975 84.3193C161.141 84.3237 161.302 84.3731 161.441 84.4624L174.104 91.7688C174.404 91.964 174.654 92.2273 174.833 92.5373C175.012 92.8473 175.116 93.1952 175.135 93.5527V135.782C175.147 135.904 175.128 136.028 175.079 136.142C175.031 136.255 174.954 136.354 174.857 136.43V136.43L173.264 137.358C173.149 137.403 173.024 137.419 172.901 137.404C172.779 137.388 172.662 137.342 172.561 137.27L126.353 110.586C126.052 110.39 125.803 110.127 125.623 109.817C125.444 109.507 125.341 109.159 125.321 108.802L125.342 73.7295Z" fill="#6BEAC7"></path> <path d="M158.976 85.3225C159.119 85.2464 159.281 85.2101 159.443 85.2175C159.605 85.2248 159.763 85.2754 159.899 85.364L172.574 92.6704C172.876 92.8626 173.126 93.1269 173.301 93.4397L174.844 92.5415C174.672 92.2265 174.421 91.9615 174.116 91.7722L161.471 84.4658C161.33 84.3766 161.168 84.3272 161.002 84.3228C160.836 84.3184 160.672 84.3592 160.527 84.4409L158.976 85.3225Z" fill="#737688"></path> <path d="M125.708 73.0345C125.821 72.9989 125.94 72.9894 126.058 73.0067C126.175 73.0239 126.287 73.0676 126.385 73.1343L156.164 90.3419C156.285 90.4223 156.423 90.4721 156.568 90.4873C156.712 90.5024 156.858 90.4823 156.993 90.4288C157.128 90.3753 157.247 90.2898 157.342 90.1798C157.437 90.0698 157.503 89.9385 157.536 89.7972L157.673 89.4229L127.916 72.2569C127.778 72.1713 127.62 72.1239 127.458 72.1196C127.365 72.1189 127.274 72.1418 127.192 72.1862L125.708 73.0345Z" fill="#737688"></path> <path d="M125.342 73.7336L125.321 108.802C125.341 109.159 125.444 109.507 125.623 109.817C125.803 110.127 126.052 110.39 126.353 110.586L172.698 137.333C172.791 137.386 172.896 137.414 173.002 137.414C173.109 137.414 173.214 137.386 173.306 137.332C173.399 137.279 173.475 137.202 173.529 137.109C173.582 137.016 173.609 136.911 173.609 136.805V94.4551C173.598 94.0981 173.495 93.7501 173.31 93.4446C173.134 93.1319 172.884 92.8676 172.582 92.6753L159.915 85.3523C159.779 85.2648 159.621 85.215 159.459 85.2077C159.297 85.2004 159.136 85.2359 158.992 85.3107H158.963C158.757 85.441 158.609 85.6446 158.547 85.8804L157.678 89.3735L157.541 89.7519C157.508 89.8933 157.441 90.0246 157.347 90.1346C157.252 90.2446 157.132 90.33 156.997 90.3835C156.862 90.4371 156.717 90.4572 156.572 90.442C156.428 90.4269 156.289 90.377 156.169 90.2967L126.373 73.139C126.276 73.0714 126.165 73.0273 126.048 73.01C125.931 72.9927 125.812 73.0026 125.7 73.0392L125.658 73.0641H125.633C125.531 73.1407 125.45 73.2428 125.399 73.3602C125.348 73.4776 125.328 73.6063 125.342 73.7336Z" fill="#353747"></path> <path d="M146.941 107.437C147.059 107.383 147.193 107.376 147.315 107.42C147.437 107.464 147.537 107.553 147.594 107.67L148.975 110.581V105.403C148.968 105.336 148.976 105.267 148.998 105.202C149.02 105.138 149.055 105.078 149.101 105.028C149.147 104.977 149.203 104.937 149.265 104.909C149.327 104.882 149.395 104.868 149.463 104.868C149.531 104.868 149.599 104.882 149.661 104.909C149.724 104.937 149.78 104.977 149.826 105.028C149.872 105.078 149.907 105.138 149.928 105.202C149.95 105.267 149.958 105.336 149.952 105.403V111.641L151.44 110.211C151.485 110.165 151.539 110.128 151.598 110.103C151.658 110.078 151.721 110.065 151.786 110.065C151.85 110.065 151.914 110.078 151.973 110.103C152.032 110.128 152.086 110.165 152.131 110.211C152.222 110.303 152.273 110.427 152.273 110.556C152.273 110.685 152.222 110.809 152.131 110.901L149.819 113.126C149.764 113.178 149.698 113.217 149.626 113.239C149.554 113.262 149.477 113.267 149.403 113.255C149.327 113.241 149.255 113.208 149.194 113.16C149.134 113.113 149.085 113.051 149.054 112.98L146.737 108.086C146.681 107.972 146.671 107.841 146.709 107.72C146.747 107.599 146.83 107.498 146.941 107.437V107.437Z" fill="#6BEAC7"></path> <path d="M152.788 108.548C152.724 108.548 152.66 108.536 152.601 108.512C152.541 108.487 152.487 108.452 152.441 108.406C152.396 108.361 152.359 108.307 152.335 108.248C152.31 108.189 152.297 108.125 152.297 108.061V105.117L146.629 101.844V104.227C146.629 104.356 146.578 104.48 146.487 104.571C146.396 104.662 146.272 104.713 146.143 104.713C146.014 104.713 145.89 104.662 145.799 104.571C145.708 104.48 145.656 104.356 145.656 104.227V101C145.657 100.916 145.679 100.833 145.721 100.76C145.764 100.687 145.824 100.626 145.897 100.584C145.972 100.54 146.056 100.517 146.143 100.518C146.229 100.517 146.314 100.54 146.388 100.584L153.042 104.418C153.115 104.46 153.177 104.521 153.22 104.594C153.263 104.666 153.286 104.749 153.287 104.834V108.057C153.288 108.122 153.275 108.187 153.25 108.247C153.225 108.308 153.188 108.362 153.142 108.408C153.095 108.454 153.04 108.49 152.979 108.514C152.918 108.538 152.853 108.549 152.788 108.548V108.548Z" fill="#6BEAC7"></path> <path d="M173.231 137.369C173.246 137.373 173.262 137.373 173.277 137.369L174.869 136.446C174.966 136.368 175.042 136.267 175.091 136.153C175.14 136.038 175.159 135.913 175.148 135.789V93.5562C175.136 93.1974 175.032 92.8478 174.844 92.5415L173.302 93.4397C173.489 93.7461 173.593 94.0956 173.605 94.4544V136.812C173.606 136.932 173.57 137.049 173.503 137.148C173.437 137.248 173.342 137.325 173.231 137.369V137.369Z" fill="#353747"></path> <path d="M81.8031 109.787L38.5138 134.783L35.8857 136.301L35.7651 136.363C35.6942 136.399 35.6204 136.428 35.5447 136.451C35.4563 136.486 35.3642 136.511 35.2702 136.526C35.2101 136.541 35.149 136.552 35.0873 136.559C35.0752 136.563 35.0619 136.563 35.0498 136.559C34.9723 136.563 34.8945 136.563 34.817 136.559C34.5779 136.568 34.3404 136.517 34.1267 136.409C33.615 136.027 33.2638 135.468 33.1411 134.841L25.8431 96.9581C25.8264 96.8759 25.818 96.7923 25.8181 96.7085C25.8119 96.6408 25.8119 96.5726 25.8181 96.5048V96.5048C25.8328 96.4004 25.8565 96.2974 25.8888 96.1971C25.9267 96.0952 25.9698 95.9952 26.0177 95.8977L26.1258 95.7188C26.1722 95.655 26.2222 95.5939 26.2755 95.5359C26.3223 95.4856 26.3723 95.4383 26.4252 95.3945C26.4808 95.3505 26.5391 95.3103 26.5999 95.2739L72.5173 68.7639C72.5562 68.7406 72.5965 68.7198 72.6379 68.7015L72.7668 68.6433C72.7867 68.6339 72.8077 68.6269 72.8292 68.6225C72.8844 68.6145 72.9404 68.6145 72.9956 68.6225C73.2978 68.6866 73.5819 68.8173 73.8272 69.005L74.8461 69.6039C74.9247 69.6353 74.9945 69.6853 75.0498 69.7494C75.1358 69.8372 75.2 69.9441 75.237 70.0613C75.256 70.1125 75.2699 70.1654 75.2785 70.2193L82.5766 108.115C82.6197 108.438 82.5699 108.767 82.4329 109.063C82.2959 109.359 82.0775 109.61 81.8031 109.787V109.787Z" fill="#6BEAC7"></path> <path d="M81.8031 109.787L38.5138 134.783L35.8857 136.301L35.7651 136.363C35.6942 136.399 35.6204 136.428 35.5447 136.451C35.4563 136.486 35.3642 136.511 35.2702 136.526C35.2101 136.541 35.149 136.552 35.0873 136.559C35.0752 136.563 35.0619 136.563 35.0498 136.559C34.9723 136.563 34.8945 136.563 34.817 136.559C34.5779 136.568 34.3404 136.517 34.1267 136.409C33.615 136.027 33.2638 135.468 33.1411 134.841L25.8431 96.9581C25.8264 96.8759 25.818 96.7923 25.8181 96.7085C25.8119 96.6408 25.8119 96.5726 25.8181 96.5048V96.5048C25.8328 96.4004 25.8565 96.2974 25.8888 96.1971C25.9267 96.0952 25.9698 95.9952 26.0177 95.8977L26.1258 95.7188C26.1722 95.655 26.2222 95.5939 26.2755 95.5359C26.3223 95.4856 26.3723 95.4383 26.4252 95.3945C26.4808 95.3505 26.5391 95.3103 26.5999 95.2739L72.5173 68.7639C72.5562 68.7406 72.5965 68.7198 72.6379 68.7015L72.7668 68.6433C72.7867 68.6339 72.8077 68.6269 72.8292 68.6225C72.8844 68.6145 72.9404 68.6145 72.9956 68.6225C73.2978 68.6866 73.5819 68.8173 73.8272 69.005L74.8461 69.6039C74.9247 69.6353 74.9945 69.6853 75.0498 69.7494C75.1358 69.8372 75.2 69.9441 75.237 70.0613C75.256 70.1125 75.2699 70.1654 75.2785 70.2193L82.5766 108.115C82.6197 108.438 82.5699 108.767 82.4329 109.063C82.2959 109.359 82.0775 109.61 81.8031 109.787V109.787Z" fill="#6BEAC7"></path> <path opacity="0.2" d="M35.7611 136.364C35.509 136.493 35.2318 136.565 34.9488 136.576C34.6658 136.587 34.3839 136.536 34.1227 136.426C33.6111 136.044 33.2598 135.485 33.1372 134.859L25.8433 96.9586C25.7857 96.591 25.8531 96.2147 26.0346 95.8899L27.569 96.7798C27.3879 97.1048 27.3192 97.4805 27.3736 97.8485L34.6799 135.753C34.6904 135.875 34.7305 135.992 34.7966 136.095C34.8627 136.198 34.9529 136.283 35.0594 136.343C35.1659 136.404 35.2854 136.437 35.4077 136.44C35.53 136.444 35.6513 136.418 35.7611 136.364V136.364Z" fill="black"></path> <path opacity="0.1" d="M73.8273 68.9804L74.8462 69.5792C74.7226 69.5251 74.5874 69.5028 74.453 69.5144C74.3186 69.526 74.1893 69.5712 74.0769 69.6457L28.1594 96.1641C27.9096 96.3109 27.7053 96.5238 27.5689 96.7795L26.022 95.8896L26.1301 95.7108C26.1764 95.647 26.2264 95.5859 26.2798 95.5278C26.3753 95.426 26.4845 95.3378 26.6042 95.2658L72.5216 68.7558C72.6014 68.709 72.6848 68.6687 72.7711 68.6352C72.791 68.6258 72.8119 68.6188 72.8335 68.6144C72.8886 68.6064 72.9447 68.6064 72.9998 68.6144C73.2992 68.6742 73.5817 68.7991 73.8273 68.9804V68.9804Z" fill="white"></path> <path d="M34.6799 135.748L27.386 97.8519C27.3401 97.526 27.3885 97.1937 27.5256 96.8945C27.6627 96.5953 27.8826 96.3416 28.1595 96.1636L74.0769 69.6535C74.1859 69.5742 74.3139 69.5253 74.448 69.5117C74.5821 69.4981 74.7174 69.5204 74.84 69.5762C74.9627 69.632 75.0683 69.7194 75.1461 69.8295C75.2239 69.9395 75.2711 70.0682 75.2829 70.2025L82.5768 108.102C82.6235 108.429 82.5755 108.762 82.4384 109.062C82.3013 109.362 82.0808 109.617 81.8033 109.795L35.8858 136.301C35.7763 136.379 35.648 136.427 35.5141 136.439C35.3801 136.452 35.2452 136.429 35.1229 136.373C35.0006 136.317 34.8952 136.23 34.8174 136.12C34.7397 136.01 34.6922 135.882 34.6799 135.748V135.748Z" fill="#6BEAC7"></path> <path opacity="0.15" d="M34.6799 135.748L27.386 97.8519C27.3401 97.526 27.3885 97.1937 27.5256 96.8945C27.6627 96.5953 27.8826 96.3416 28.1595 96.1636L74.0769 69.6535C74.1859 69.5742 74.3139 69.5253 74.448 69.5117C74.5821 69.4981 74.7174 69.5204 74.84 69.5762C74.9627 69.632 75.0683 69.7194 75.1461 69.8295C75.2239 69.9395 75.2711 70.0682 75.2829 70.2025L82.5768 108.102C82.6235 108.429 82.5755 108.762 82.4384 109.062C82.3013 109.362 82.0808 109.617 81.8033 109.795L35.8858 136.301C35.7763 136.379 35.648 136.427 35.5141 136.439C35.3801 136.452 35.2452 136.429 35.1229 136.373C35.0006 136.317 34.8952 136.23 34.8174 136.12C34.7397 136.01 34.6922 135.882 34.6799 135.748V135.748Z" fill="black"></path> <path d="M69.4904 108.256L38.3479 126.237L36.4558 127.352L36.3685 127.398C36.3173 127.422 36.2645 127.443 36.2105 127.46C36.1458 127.484 36.079 127.502 36.0109 127.514C35.9687 127.525 35.9255 127.532 35.882 127.535C35.8774 127.537 35.8724 127.538 35.8674 127.538C35.8624 127.538 35.8575 127.537 35.8529 127.535C35.7975 127.539 35.7419 127.539 35.6865 127.535C35.5134 127.54 35.3417 127.501 35.1875 127.422C34.8206 127.147 34.5688 126.746 34.4806 126.296L29.2326 99.0287C29.2265 98.9692 29.2265 98.9093 29.2326 98.8499C29.2285 98.8 29.2285 98.75 29.2326 98.7002C29.2408 98.6237 29.2576 98.5484 29.2825 98.4756C29.3087 98.4031 29.3393 98.3323 29.374 98.2635C29.399 98.2219 29.4239 98.1762 29.453 98.1346C29.4845 98.088 29.5207 98.0448 29.5612 98.0057C29.5919 97.9659 29.6283 97.9309 29.6693 97.9017C29.7075 97.8699 29.7477 97.8408 29.7899 97.8144L62.8245 78.7438L62.916 78.6981L63.0116 78.6565C63.0254 78.6541 63.0394 78.6541 63.0532 78.6565C63.0932 78.6506 63.1338 78.6506 63.1738 78.6565C63.3874 78.705 63.5876 78.8001 63.7601 78.9351L64.492 79.351C64.549 79.3741 64.6001 79.4096 64.6417 79.4549C64.7026 79.5186 64.7481 79.5955 64.7748 79.6795C64.7874 79.7161 64.7971 79.7536 64.8039 79.7918L70.0518 107.059C70.0799 107.291 70.0422 107.526 69.9429 107.738C69.8437 107.95 69.6869 108.129 69.4904 108.256Z" fill="#6BEAC7"></path> <path d="M69.4904 108.256L38.3479 126.237L36.4558 127.352L36.3685 127.398C36.3173 127.422 36.2645 127.443 36.2105 127.46C36.1458 127.484 36.079 127.502 36.0109 127.514C35.9687 127.525 35.9255 127.532 35.882 127.535C35.8774 127.537 35.8724 127.538 35.8674 127.538C35.8624 127.538 35.8575 127.537 35.8529 127.535C35.7975 127.539 35.7419 127.539 35.6865 127.535C35.5134 127.54 35.3417 127.501 35.1875 127.422C34.8206 127.147 34.5688 126.746 34.4806 126.296L29.2326 99.0287C29.2265 98.9692 29.2265 98.9093 29.2326 98.8499C29.2285 98.8 29.2285 98.75 29.2326 98.7002C29.2408 98.6237 29.2576 98.5484 29.2825 98.4756C29.3087 98.4031 29.3393 98.3323 29.374 98.2635C29.399 98.2219 29.4239 98.1762 29.453 98.1346C29.4845 98.088 29.5207 98.0448 29.5612 98.0057C29.5919 97.9659 29.6283 97.9309 29.6693 97.9017C29.7075 97.8699 29.7477 97.8408 29.7899 97.8144L62.8245 78.7438L62.916 78.6981L63.0116 78.6565C63.0254 78.6541 63.0394 78.6541 63.0532 78.6565C63.0932 78.6506 63.1338 78.6506 63.1738 78.6565C63.3874 78.705 63.5876 78.8001 63.7601 78.9351L64.492 79.351C64.549 79.3741 64.6001 79.4096 64.6417 79.4549C64.7026 79.5186 64.7481 79.5955 64.7748 79.6795C64.7874 79.7161 64.7971 79.7536 64.8039 79.7918L70.0518 107.059C70.0799 107.291 70.0422 107.526 69.9429 107.738C69.8437 107.95 69.6869 108.129 69.4904 108.256Z" fill="#6BEAC7"></path> <path d="M36.3687 127.377C36.1866 127.469 35.9867 127.521 35.7827 127.528C35.5788 127.535 35.3757 127.498 35.1877 127.419C34.8208 127.143 34.5689 126.742 34.4807 126.292L29.2328 99.0291C29.195 98.7646 29.2431 98.4949 29.37 98.2598L30.4803 98.9002C30.349 99.1338 30.2993 99.4045 30.3389 99.6695L35.591 126.936C35.5982 127.024 35.6268 127.109 35.6742 127.183C35.7217 127.257 35.7866 127.319 35.8632 127.362C35.9399 127.406 36.026 127.43 36.1141 127.433C36.2022 127.435 36.2896 127.416 36.3687 127.377V127.377Z" fill="#E7E9F8"></path> <path d="M63.7474 78.9021L64.4793 79.318C64.3912 79.2784 64.2944 79.2622 64.1983 79.2709C64.1021 79.2797 64.0099 79.3131 63.9304 79.3679L30.8958 98.4551C30.7172 98.5603 30.5729 98.7148 30.4799 98.9L29.3696 98.243C29.3946 98.2014 29.4195 98.1557 29.4486 98.1141C29.4801 98.0675 29.5163 98.0243 29.5568 97.9852C29.623 97.9103 29.7001 97.8458 29.7855 97.7939L62.8201 78.7233C62.879 78.69 62.9401 78.6609 63.0031 78.636C63.0168 78.6336 63.0309 78.6336 63.0446 78.636C63.0846 78.6301 63.1252 78.6301 63.1652 78.636C63.3763 78.6813 63.575 78.7721 63.7474 78.9021V78.9021Z" fill="white"></path> <path d="M35.5907 126.936L30.3427 99.6692C30.3105 99.4353 30.3454 99.1969 30.4433 98.982C30.5412 98.767 30.6981 98.5843 30.8958 98.455L63.9262 79.3802C64.0062 79.3226 64.1002 79.2876 64.1984 79.2788C64.2965 79.27 64.3952 79.2878 64.4841 79.3304C64.5731 79.3729 64.6489 79.4386 64.7036 79.5205C64.7584 79.6025 64.7901 79.6977 64.7954 79.7961L70.0391 107.063C70.0714 107.297 70.0365 107.535 69.9386 107.75C69.8407 107.965 69.6838 108.148 69.4861 108.277L36.4556 127.352C36.3757 127.408 36.2821 127.443 36.1845 127.451C36.087 127.459 35.989 127.441 35.9008 127.399C35.8126 127.356 35.7373 127.291 35.6827 127.21C35.6282 127.128 35.5964 127.034 35.5907 126.936V126.936Z" fill="#F5F6FF"></path> <path d="M60.0042 100.239C59.8799 100.154 59.7774 100.041 59.7051 99.9084C59.6328 99.7761 59.5928 99.6287 59.5884 99.478V49.897C59.5963 49.7411 59.6411 49.5893 59.7192 49.4541C59.7973 49.3189 59.9064 49.2042 60.0375 49.1194L91.1925 31.1383C91.3217 31.0527 91.4723 31.0049 91.6272 31.0004C91.7822 30.9958 91.9353 31.0346 92.0694 31.1125C92.2034 31.1903 92.313 31.304 92.3859 31.4409C92.4587 31.5777 92.4919 31.7322 92.4816 31.8868V81.4678C92.4737 81.6238 92.4288 81.7756 92.3508 81.9108C92.2727 82.046 92.1636 82.1607 92.0325 82.2455L60.8983 100.227C60.7613 100.301 60.6085 100.34 60.4528 100.343C60.2971 100.345 60.1432 100.309 60.0042 100.239V100.239Z" fill="#E7E7EE"></path> <path d="M92.4789 31.8081C92.4373 31.5794 92.2543 31.5004 92.0339 31.6293L60.8914 49.5896C60.7581 49.672 60.649 49.7882 60.5753 49.9264L59.7437 49.4399C59.8211 49.3019 59.931 49.1849 60.0639 49.0989L91.1939 31.1428C91.3292 31.0741 91.4788 31.0383 91.6305 31.0383C91.7823 31.0383 91.9319 31.0741 92.0672 31.1428C92.1766 31.2208 92.2693 31.3198 92.34 31.434C92.4107 31.5482 92.4579 31.6754 92.4789 31.8081V31.8081Z" fill="white"></path> <path d="M60.8359 100.255C60.706 100.317 60.5639 100.349 60.4201 100.349C60.2762 100.349 60.1342 100.317 60.0042 100.255C59.8799 100.17 59.7774 100.057 59.7051 99.9244C59.6328 99.7921 59.5928 99.6447 59.5884 99.494V49.8964C59.5937 49.7409 59.638 49.5894 59.7173 49.4556L60.549 49.9421C60.4667 50.0748 60.4208 50.2268 60.4159 50.3829V99.9639C60.4409 100.226 60.6155 100.351 60.8359 100.255Z" fill="#E7E9F8"></path> <path d="M60.8944 100.226L92.0245 82.245C92.1556 82.1602 92.2647 82.0455 92.3427 81.9103C92.4208 81.7751 92.4657 81.6233 92.4736 81.4674V31.8864C92.4736 31.5994 92.274 31.4705 92.0245 31.6285L60.8944 49.5888C60.7633 49.6736 60.6542 49.7883 60.5762 49.9235C60.4981 50.0587 60.4532 50.2105 60.4453 50.3665V99.9641C60.4453 100.251 60.6449 100.367 60.8944 100.226Z" fill="#FAFAFA"></path> <g opacity="0.3"> <path opacity="0.3" d="M62.7158 72.1902C62.7158 72.5728 63.061 72.6851 63.481 72.4397L89.4421 57.4693C89.6479 57.3522 89.8239 57.1892 89.9566 56.9931C90.0893 56.7969 90.1751 56.5729 90.2072 56.3383C90.2072 55.9557 89.8621 55.8434 89.4421 56.0887L63.481 71.0591C63.2752 71.1763 63.0991 71.3392 62.9664 71.5354C62.8337 71.7315 62.748 71.9556 62.7158 72.1902V72.1902Z" fill="#737688"></path> <path opacity="0.3" d="M62.7158 76.3317C62.7158 76.7101 63.061 76.8224 63.481 76.5812L89.4421 61.6108C89.6485 61.4944 89.825 61.3316 89.9578 61.1354C90.0906 60.9391 90.176 60.7146 90.2072 60.4797C90.2072 60.0971 89.8621 59.989 89.4421 60.2302L63.481 75.2214C63.2771 75.3357 63.1021 75.4952 62.9695 75.6877C62.8369 75.8802 62.7501 76.1005 62.7158 76.3317Z" fill="#737688"></path> <path opacity="0.3" d="M62.7158 80.4695C62.7158 80.8521 63.061 80.9644 63.481 80.719L89.4421 65.7486C89.6479 65.6315 89.8239 65.4685 89.9566 65.2724C90.0893 65.0762 90.1751 64.8522 90.2072 64.6176C90.2072 64.235 89.8621 64.1227 89.4421 64.368L63.481 79.3384C63.2752 79.4556 63.0991 79.6185 62.9664 79.8147C62.8337 80.0108 62.748 80.2349 62.7158 80.4695V80.4695Z" fill="#737688"></path> <path opacity="0.3" d="M62.7158 84.6114C62.7158 84.994 63.061 85.1021 63.481 84.8609L89.4421 69.8906C89.6485 69.7741 89.825 69.6114 89.9578 69.4151C90.0906 69.2188 90.176 68.9944 90.2072 68.7595C90.2072 68.381 89.8621 68.2688 89.4421 68.51L63.481 83.4803C63.2746 83.5967 63.098 83.7595 62.9652 83.9558C62.8325 84.1521 62.7471 84.3765 62.7158 84.6114Z" fill="#737688"></path> <path opacity="0.3" d="M62.7158 59.7695C62.7158 60.1521 63.061 60.2644 63.481 60.0191L89.4421 45.0487C89.6479 44.9315 89.8239 44.7686 89.9566 44.5724C90.0893 44.3763 90.1751 44.1522 90.2072 43.9176C90.2072 43.535 89.8621 43.4227 89.4421 43.6681L63.481 58.6385C63.2752 58.7556 63.0991 58.9186 62.9664 59.1147C62.8337 59.3109 62.748 59.5349 62.7158 59.7695V59.7695Z" fill="#737688"></path> <path opacity="0.3" d="M62.7158 63.9111C62.7158 64.2937 63.061 64.4018 63.481 64.1606L89.4421 49.1902C89.6485 49.0738 89.825 48.9111 89.9578 48.7148C90.0906 48.5185 90.176 48.294 90.2072 48.0591C90.2072 47.6807 89.8621 47.5684 89.4421 47.8138L63.481 62.7842C63.2755 62.9007 63.0996 63.0629 62.9669 63.2583C62.8342 63.4538 62.7483 63.6771 62.7158 63.9111V63.9111Z" fill="#737688"></path> <path opacity="0.3" d="M62.7168 55.636C62.7168 56.0186 63.0619 56.1309 63.4819 55.8855L89.4431 40.9151C89.6489 40.798 89.8249 40.635 89.9576 40.4389C90.0903 40.2427 90.176 40.0187 90.2082 39.7841C90.2082 39.4015 89.8631 39.2892 89.4431 39.5345L63.4819 54.5049C63.2762 54.6221 63.1001 54.785 62.9674 54.9812C62.8347 55.1773 62.749 55.4014 62.7168 55.636V55.636Z" fill="#737688"></path> <path opacity="0.3" d="M62.7158 68.0525C62.7158 68.4309 63.061 68.5432 63.481 68.2979L89.4421 53.3275C89.6481 53.2106 89.8243 53.0477 89.957 52.8515C90.0897 52.6553 90.1754 52.4311 90.2072 52.1964C90.2072 51.8138 89.8621 51.7016 89.4421 51.9469L63.481 66.9173C63.2747 67.0349 63.0983 67.1985 62.9656 67.3954C62.8329 67.5923 62.7474 67.8172 62.7158 68.0525Z" fill="#737688"></path> <path opacity="0.3" d="M62.7158 88.7532C62.7158 89.1316 63.061 89.2439 63.481 88.9986L89.4421 74.0282C89.6479 73.911 89.8239 73.7481 89.9566 73.5519C90.0893 73.3558 90.1751 73.1317 90.2072 72.8971C90.2072 72.5145 89.8621 72.4022 89.4421 72.6476L63.481 87.618C63.2747 87.7355 63.0983 87.8992 62.9656 88.0961C62.8329 88.293 62.7474 88.5179 62.7158 88.7532Z" fill="#737688"></path> <path opacity="0.3" d="M62.7158 92.8908C62.7158 93.2734 63.061 93.3857 63.481 93.1403L89.4421 78.17C89.6485 78.0536 89.825 77.8908 89.9578 77.6945C90.0906 77.4982 90.176 77.2738 90.2072 77.0389C90.2072 76.6605 89.8621 76.5482 89.4421 76.7935L63.481 91.7639C63.2755 91.8804 63.0996 92.0427 62.9669 92.2381C62.8342 92.4335 62.7483 92.6569 62.7158 92.8908V92.8908Z" fill="#737688"></path> </g> <path d="M83.6587 73.7295C83.6706 73.6062 83.6509 73.4819 83.6014 73.3684C83.552 73.2549 83.4743 73.1559 83.3759 73.0808C83.3537 73.0635 83.3301 73.0482 83.3052 73.035L81.8165 72.1701C81.7001 72.1171 81.5717 72.0961 81.4445 72.1093C81.3174 72.1224 81.196 72.1693 81.0929 72.2449L51.331 89.4068L50.4411 85.9054C50.379 85.67 50.2305 85.4666 50.0253 85.3357V85.3357L48.4783 84.4333C48.3342 84.3516 48.1705 84.3107 48.0049 84.3151C47.8393 84.3195 47.6781 84.369 47.5385 84.4582L34.8844 91.7729C34.5842 91.9681 34.3344 92.2314 34.1551 92.5414C33.9759 92.8514 33.8725 93.1993 33.8531 93.5569V135.782C33.8411 135.904 33.8603 136.028 33.909 136.142C33.9577 136.255 34.0343 136.354 34.1317 136.43V136.43L35.7244 137.358C35.8395 137.403 35.9641 137.419 36.0869 137.404C36.2097 137.388 36.3267 137.342 36.4272 137.27L82.6482 110.586C82.9484 110.39 83.1982 110.127 83.3774 109.817C83.5566 109.507 83.6601 109.159 83.6795 108.802L83.6587 73.7295Z" fill="#6BEAC7"></path> <path opacity="0.4" d="M50.0248 85.3225C49.8812 85.2464 49.7199 85.2101 49.5576 85.2175C49.3953 85.2248 49.2378 85.2754 49.1017 85.364L36.4268 92.6704C36.1242 92.8626 35.8741 93.1269 35.699 93.4397L34.1562 92.5415C34.3284 92.2265 34.5791 91.9615 34.884 91.7722L47.5298 84.4658C47.6701 84.3766 47.8321 84.3272 47.9983 84.3228C48.1645 84.3184 48.3289 84.3592 48.4737 84.4409L50.0248 85.3225Z" fill="white"></path> <path opacity="0.4" d="M83.2916 73.0345C83.1784 72.9989 83.0586 72.9894 82.9412 73.0067C82.8238 73.0239 82.7119 73.0676 82.6138 73.1343L52.8394 90.3419C52.7182 90.4222 52.5794 90.472 52.4348 90.4871C52.2902 90.5022 52.1442 90.4821 52.009 90.4286C51.8739 90.3751 51.7536 90.2898 51.6585 90.1798C51.5635 90.0699 51.4964 89.9386 51.4629 89.7972L51.3257 89.4229L81.0876 72.2569C81.2234 72.1708 81.3801 72.1234 81.5409 72.1196C81.6338 72.1189 81.7254 72.1418 81.807 72.1862V72.1862L83.2916 73.0345Z" fill="white"></path> <path d="M83.6581 73.7332L83.6789 108.801C83.6595 109.159 83.556 109.507 83.3768 109.817C83.1976 110.127 82.9478 110.39 82.6476 110.585L36.3018 137.332C36.2093 137.386 36.1044 137.414 35.9977 137.414C35.8909 137.414 35.786 137.385 35.6937 137.332C35.6013 137.278 35.5247 137.201 35.4716 137.109C35.4185 137.016 35.3907 136.911 35.3911 136.804V94.4547C35.4025 94.0977 35.5056 93.7497 35.6905 93.4442C35.8657 93.1315 36.1158 92.8671 36.4183 92.6748L49.0848 85.3518C49.2215 85.2644 49.3788 85.2145 49.5409 85.2072C49.7029 85.1999 49.8641 85.2355 50.008 85.3103H50.0371C50.243 85.4406 50.3916 85.6442 50.453 85.88L51.3221 89.373L51.4593 89.7515C51.4921 89.8928 51.5587 90.0241 51.6534 90.1341C51.7481 90.2441 51.868 90.3296 52.0028 90.3831C52.1377 90.4367 52.2836 90.4567 52.4279 90.4416C52.5722 90.4265 52.7108 90.3766 52.8316 90.2962L82.6226 73.1094C82.7196 73.0419 82.8309 72.9977 82.9477 72.9804C83.0646 72.9631 83.1839 72.9731 83.2963 73.0096L83.3379 73.0346H83.3628C83.4708 73.1132 83.5553 73.2198 83.6074 73.3429C83.6594 73.466 83.6769 73.6009 83.6581 73.7332V73.7332Z" fill="#6BEAC7"></path> <path d="M57.0152 106.34C57.0806 106.369 57.1514 106.385 57.2231 106.386C57.3153 106.385 57.4056 106.359 57.4836 106.31C57.5615 106.26 57.624 106.19 57.6639 106.107L59.0486 103.175V108.373C59.0599 108.495 59.1162 108.608 59.2066 108.691C59.297 108.773 59.4149 108.819 59.5373 108.819C59.6596 108.819 59.7775 108.773 59.8679 108.691C59.9583 108.608 60.0146 108.495 60.0259 108.373V102.136L61.5104 103.566C61.6036 103.656 61.7287 103.705 61.8582 103.703C61.9876 103.701 62.1108 103.647 62.2007 103.554C62.2906 103.461 62.3398 103.336 62.3375 103.206C62.3351 103.077 62.2814 102.953 62.1883 102.863L59.8762 100.639C59.8202 100.585 59.7524 100.545 59.6781 100.523C59.6039 100.501 59.5255 100.496 59.4492 100.51C59.3729 100.524 59.301 100.555 59.2393 100.602C59.1777 100.649 59.128 100.71 59.0944 100.78L56.7823 105.679C56.7529 105.737 56.7356 105.801 56.7315 105.866C56.7273 105.932 56.7364 105.997 56.7581 106.059C56.7798 106.121 56.8138 106.177 56.858 106.226C56.9022 106.274 56.9556 106.313 57.0152 106.34Z" fill="#353747"></path> <path d="M62.8573 104.809C62.7934 104.809 62.7301 104.822 62.6711 104.846C62.6121 104.871 62.5584 104.907 62.5133 104.952C62.4681 104.997 62.4323 105.051 62.4078 105.11C62.3834 105.169 62.3708 105.232 62.3708 105.296V108.223L56.7028 111.496V109.118C56.6916 108.996 56.6352 108.883 56.5448 108.8C56.4544 108.718 56.3365 108.672 56.2142 108.672C56.0919 108.672 55.974 108.718 55.8836 108.8C55.7932 108.883 55.7368 108.996 55.7256 109.118V112.34C55.7268 112.425 55.75 112.508 55.793 112.581C55.8361 112.654 55.8974 112.714 55.9709 112.756C56.0446 112.8 56.1286 112.823 56.2142 112.823C56.2998 112.823 56.3838 112.8 56.4575 112.756L63.111 108.918C63.184 108.876 63.2447 108.815 63.2871 108.742C63.3294 108.669 63.3518 108.586 63.3522 108.502V105.313C63.3544 105.247 63.3432 105.181 63.3193 105.119C63.2953 105.058 63.2591 105.002 63.2128 104.955C63.1665 104.908 63.1111 104.87 63.05 104.845C62.9889 104.821 62.9233 104.808 62.8573 104.809V104.809Z" fill="#353747"></path> <path opacity="0.2" d="M35.7697 137.369C35.7547 137.373 35.739 137.373 35.724 137.369L34.1313 136.446C34.0344 136.368 33.9583 136.267 33.9097 136.153C33.8611 136.038 33.8415 135.913 33.8527 135.789V93.5562C33.8646 93.1974 33.9692 92.8478 34.1562 92.5415L35.699 93.4397C35.5119 93.7461 35.4074 94.0956 35.3954 94.4544V136.812C35.395 136.932 35.4304 137.049 35.4972 137.148C35.5639 137.248 35.6588 137.325 35.7697 137.369V137.369Z" fill="black"></path> <path d="M127.005 127.04V130.208L139.21 143.44V140.272L127.005 127.04Z" fill="#6BEAC7"></path> <path opacity="0.15" d="M127.005 127.04V130.208L139.21 143.44V140.272L127.005 127.04Z" fill="black"></path> <path d="M140.391 129.448V126.279L139.21 140.272V143.441L140.391 129.448Z" fill="#6BEAC7"></path> <path opacity="0.2" d="M140.391 129.448V126.279L139.21 140.272V143.441L140.391 129.448Z" fill="black"></path> <path d="M99.281 148.405C85.0509 147.212 71.9934 141.49 65.5645 133.173L65.8098 130.262L70.7999 129.11C77.3453 137.573 93.3511 142.929 108.866 141.843C118.044 141.199 125.97 138.379 130.602 134.105L135.355 136.084L135.114 138.995C129.292 144.351 120.144 147.728 109.332 148.476C105.985 148.71 102.625 148.687 99.281 148.405V148.405Z" fill="#6BEAC7"></path> <g opacity="0.15"> <path opacity="0.15" d="M99.281 148.406C85.0509 147.213 71.9934 141.491 65.5645 133.174L65.8098 130.263L70.7999 129.111C77.3453 137.574 93.3511 142.93 108.866 141.844C118.044 141.2 125.97 138.38 130.602 134.105L135.355 136.085L135.114 138.996C129.292 144.352 120.144 147.728 109.332 148.477C105.985 148.711 102.625 148.687 99.281 148.406V148.406Z" fill="black"></path> </g> <path d="M140.392 126.278L127.006 127.039L130.86 131.219C126.224 135.494 118.302 138.313 109.12 138.957C93.6092 140.043 77.5992 134.687 71.058 126.224L65.8267 130.283C72.2556 138.6 85.3131 144.305 99.5433 145.499C102.889 145.782 106.252 145.807 109.603 145.574C120.414 144.817 129.563 141.448 135.385 136.092L139.24 140.272L140.392 126.278Z" fill="#6BEAC7"></path> </svg> 