<?xml version="1.0" encoding="UTF-8"?> <svg xmlns="http://www.w3.org/2000/svg" width="210" height="182" viewBox="0 0 210 182" fill="none"> <path d="M87.2825 90.1385C87.2946 90.1501 87.3007 90.1722 87.3007 90.2049C87.3007 90.2469 87.2866 90.2925 87.2584 90.3416C87.2342 90.3884 87.202 90.4236 87.1617 90.4472L86.5392 90.8111C86.4909 90.8393 86.4546 90.8512 86.4305 90.8466C86.4063 90.8374 86.3821 90.8212 86.358 90.798L85.3185 89.4807L84.7445 89.8163V91.6923C84.7445 91.739 84.7304 91.7869 84.7022 91.836C84.678 91.8828 84.6437 91.9192 84.5994 91.9451L84.0495 92.2666C84.0092 92.2902 83.975 92.2938 83.9468 92.2777C83.9186 92.2615 83.9045 92.2301 83.9045 92.1834V87.6264C83.9045 87.5751 83.9166 87.526 83.9407 87.4792C83.9689 87.43 84.0052 87.3925 84.0495 87.3666L84.5994 87.0451C84.6437 87.0192 84.678 87.0155 84.7022 87.034C84.7304 87.0502 84.7445 87.084 84.7445 87.1353V88.9413L85.2762 88.6374L86.2552 86.2031C86.2955 86.0955 86.368 86.0112 86.4728 85.9499L87.071 85.6002C87.1113 85.5766 87.1415 85.5729 87.1617 85.5892C87.1859 85.603 87.1979 85.631 87.1979 85.673C87.1979 85.6916 87.1899 85.7243 87.1738 85.7711L86.0316 88.5738L87.2825 90.1385ZM87.693 90.1366C87.6608 90.1554 87.6306 90.1591 87.6024 90.1475C87.5782 90.1337 87.5661 90.1057 87.5661 90.0637L87.5782 89.9937L89.0346 84.6273C89.0628 84.4941 89.1333 84.3945 89.2461 84.3286L89.9048 83.9435C90.0095 83.8823 90.08 83.8994 90.1163 83.9949L91.5727 87.6584C91.5767 87.6701 91.5787 87.6899 91.5787 87.7179C91.5787 87.7599 91.5666 87.802 91.5424 87.8441C91.5183 87.8862 91.4901 87.9167 91.4578 87.9356L90.9321 88.2429C90.8797 88.2735 90.8394 88.2831 90.8112 88.2716C90.783 88.2601 90.7649 88.2403 90.7568 88.2124L90.4728 87.5244L88.678 88.5737L88.394 89.5937C88.3618 89.7012 88.3034 89.7797 88.2188 89.8292L87.693 90.1366ZM90.2613 86.8431L89.5724 85.0828L88.8895 87.645L90.2613 86.8431ZM92.2879 87.4503C92.2476 87.4738 92.2134 87.4775 92.1852 87.4614C92.157 87.4452 92.1429 87.4138 92.1429 87.3671V82.8101C92.1429 82.7588 92.155 82.7097 92.1791 82.6629C92.2073 82.6137 92.2436 82.5762 92.2879 82.5503L93.9075 81.6035C94.3909 81.3209 94.7716 81.2313 95.0496 81.3348C95.3276 81.4336 95.4666 81.7373 95.4666 82.246C95.4666 82.7547 95.3276 83.2209 95.0496 83.6448C94.7756 84.0616 94.3949 84.4125 93.9075 84.6975L93.007 85.2239V86.8619C93.007 86.9086 92.9929 86.9565 92.9647 87.0056C92.9406 87.0524 92.9063 87.0888 92.862 87.1147L92.2879 87.4503ZM93.8772 83.9381C94.1109 83.8015 94.2902 83.6337 94.4151 83.4347C94.54 83.231 94.6024 83.0032 94.6024 82.7512C94.6024 82.5085 94.542 82.3549 94.4211 82.2902C94.3003 82.2208 94.119 82.2568 93.8772 82.3981L92.995 82.9139V84.4539L93.8772 83.9381ZM97.202 84.5774C97.1617 84.601 97.1275 84.6047 97.0993 84.5885C97.0711 84.5723 97.057 84.5409 97.057 84.4942V80.6232L95.939 81.2768C95.8987 81.3004 95.8645 81.304 95.8363 81.2879C95.8081 81.2717 95.794 81.2403 95.794 81.1936V80.6756C95.794 80.6243 95.8061 80.5752 95.8302 80.5284C95.8584 80.4792 95.8947 80.4417 95.939 80.4158L99.021 78.614C99.0653 78.5881 99.1016 78.5833 99.1298 78.5994C99.158 78.6156 99.1721 78.6494 99.1721 78.7007V79.2187C99.1721 79.2654 99.158 79.3133 99.1298 79.3624C99.1016 79.4116 99.0653 79.4491 99.021 79.475L97.9091 80.1251V83.9961C97.9091 84.0428 97.895 84.0907 97.8668 84.1398C97.8386 84.189 97.8023 84.2265 97.758 84.2524L97.202 84.5774ZM99.5254 83.2192C99.4932 83.238 99.463 83.2417 99.4348 83.2301C99.4106 83.2163 99.3985 83.1883 99.3985 83.1463L99.4106 83.0763L100.867 77.7099C100.895 77.5767 100.966 77.4771 101.078 77.4112L101.737 77.0261C101.842 76.9649 101.912 76.982 101.949 77.0775L103.405 80.741C103.409 80.7527 103.411 80.7725 103.411 80.8005C103.411 80.8425 103.399 80.8846 103.375 80.9267C103.351 80.9688 103.322 80.9993 103.29 81.0182L102.764 81.3255C102.712 81.3561 102.672 81.3657 102.644 81.3542C102.615 81.3427 102.597 81.3229 102.589 81.295L102.305 80.607L100.51 81.6563L100.226 82.6763C100.194 82.7838 100.136 82.8623 100.051 82.9118L99.5254 83.2192ZM102.094 79.9257L101.405 78.1654L100.722 80.7276L102.094 79.9257ZM105.501 79.7256C105.461 79.7491 105.427 79.7528 105.399 79.7366C105.37 79.7205 105.356 79.689 105.356 79.6424V75.0854C105.356 75.034 105.368 74.985 105.392 74.9382C105.421 74.889 105.457 74.8515 105.501 74.8256L108.269 73.2075C108.313 73.1816 108.348 73.1779 108.372 73.1965C108.4 73.2126 108.414 73.2464 108.414 73.2977V73.7877C108.414 73.8344 108.4 73.8823 108.372 73.9315C108.348 73.9783 108.313 74.0146 108.269 74.0405L106.196 75.2523V76.3723L107.217 75.7752C107.673 75.5091 108.029 75.4313 108.287 75.5419C108.545 75.6525 108.674 75.9318 108.674 76.3798C108.674 76.6458 108.617 76.9261 108.505 77.2207C108.396 77.5083 108.231 77.7869 108.009 78.0564C107.792 78.319 107.528 78.5409 107.217 78.7222L105.501 79.7256ZM107.133 78.0297C107.338 77.9096 107.502 77.7419 107.622 77.5265C107.747 77.3042 107.81 77.0857 107.81 76.871C107.81 76.6564 107.751 76.5178 107.634 76.4555C107.518 76.3931 107.35 76.4255 107.133 76.5527L106.196 77.1003V78.5773L107.133 78.0297ZM109.015 77.6714C108.983 77.6903 108.952 77.6939 108.924 77.6824C108.9 77.6686 108.888 77.6406 108.888 77.5986L108.9 77.5286L110.356 72.1621C110.385 72.029 110.455 71.9294 110.568 71.8635L111.227 71.4784C111.331 71.4172 111.402 71.4343 111.438 71.5297L112.895 75.1933C112.899 75.205 112.901 75.2248 112.901 75.2528C112.901 75.2948 112.889 75.3369 112.864 75.379C112.84 75.4211 112.812 75.4516 112.78 75.4705L112.254 75.7778C112.202 75.8084 112.161 75.818 112.133 75.8065C112.105 75.795 112.087 75.7752 112.079 75.7473L111.795 75.0593L110 76.1086L109.716 77.1286C109.684 77.2361 109.625 77.3146 109.541 77.3641L109.015 77.6714ZM111.583 74.378L110.894 72.6177L110.211 75.1799L111.583 74.378ZM113.61 74.9852C113.57 75.0087 113.535 75.0124 113.507 74.9962C113.479 74.9801 113.465 74.9486 113.465 74.902V70.345C113.465 70.2936 113.477 70.2446 113.501 70.1978C113.529 70.1486 113.566 70.1111 113.61 70.0852L114.16 69.7637C114.204 69.7378 114.238 69.7341 114.262 69.7526C114.291 69.7688 114.305 69.8026 114.305 69.8539V71.6599L116.087 70.6177V68.8117C116.087 68.7604 116.1 68.7113 116.124 68.6645C116.152 68.6153 116.188 68.5778 116.233 68.5519L116.776 68.2339C116.821 68.208 116.857 68.2032 116.885 68.2194C116.913 68.2355 116.927 68.2693 116.927 68.3206V72.8776C116.927 72.929 116.913 72.9792 116.885 73.0284C116.857 73.0728 116.821 73.108 116.776 73.1339L116.233 73.4519C116.192 73.4755 116.158 73.4791 116.13 73.463C116.102 73.4468 116.087 73.4154 116.087 73.3687V71.4927L114.305 72.5349V74.4109C114.305 74.4576 114.291 74.5055 114.262 74.5546C114.238 74.6014 114.204 74.6378 114.16 74.6637L113.61 74.9852ZM121.245 70.2833C121.257 70.2949 121.263 70.3171 121.263 70.3497C121.263 70.3917 121.249 70.4373 121.221 70.4865C121.197 70.5333 121.165 70.5684 121.124 70.592L120.502 70.9559C120.454 70.9841 120.417 70.996 120.393 70.9915C120.369 70.9823 120.345 70.9661 120.321 70.9429L119.281 69.6255L118.707 69.9611V71.8371C118.707 71.8838 118.693 71.9317 118.665 71.9809C118.641 72.0277 118.607 72.064 118.562 72.0899L118.012 72.4114C117.972 72.435 117.938 72.4387 117.91 72.4225C117.881 72.4063 117.867 72.3749 117.867 72.3282V67.7712C117.867 67.7199 117.879 67.6708 117.904 67.624C117.932 67.5749 117.968 67.5373 118.012 67.5114L118.562 67.1899C118.607 67.164 118.641 67.1603 118.665 67.1789C118.693 67.1951 118.707 67.2288 118.707 67.2801V69.0861L119.239 68.7822L120.218 66.3479C120.258 66.2404 120.331 66.156 120.436 66.0947L121.034 65.745C121.074 65.7214 121.104 65.7178 121.124 65.734C121.149 65.7479 121.161 65.7758 121.161 65.8178C121.161 65.8365 121.153 65.8692 121.137 65.9159L119.994 68.7186L121.245 70.2833ZM121.656 70.2814C121.624 70.3002 121.593 70.3039 121.565 70.2924C121.541 70.2785 121.529 70.2506 121.529 70.2086L121.541 70.1385L122.997 64.7721C123.026 64.6389 123.096 64.5394 123.209 64.4734L123.868 64.0883C123.972 64.0271 124.043 64.0442 124.079 64.1397L125.535 67.8033C125.539 67.8149 125.542 67.8347 125.542 67.8627C125.542 67.9047 125.529 67.9468 125.505 67.9889C125.481 68.0311 125.453 68.0615 125.421 68.0804L124.895 68.3878C124.843 68.4184 124.802 68.4279 124.774 68.4164C124.746 68.4049 124.728 68.3852 124.72 68.3572L124.436 67.6692L122.641 68.7185L122.357 69.7386C122.325 69.8461 122.266 69.9246 122.182 69.974L121.656 70.2814ZM124.224 66.9879L123.535 65.2276L122.852 67.7899L124.224 66.9879Z" fill="white"></path> <path d="M104.584 181.936C152.403 181.936 191.168 159.556 191.168 131.949C191.168 104.342 152.403 81.9614 104.584 81.9614C56.765 81.9614 18 104.342 18 131.949C18 159.556 56.765 181.936 104.584 181.936Z" fill="#E7E9F8"></path> <path d="M95.9611 8.22942L52.7052 33.1978C52.2488 33.4983 51.8691 33.9013 51.5963 34.3747C51.3236 34.8482 51.1653 35.3788 51.1343 35.9243V133.469C51.1343 134.469 51.8565 134.877 52.7052 134.375L95.9611 109.407C96.418 109.107 96.7982 108.704 97.071 108.23C97.3439 107.757 97.5018 107.226 97.532 106.68V9.13946C97.532 8.13553 96.8242 7.72745 95.9611 8.22942ZM95.2713 97.6916C95.2713 98.5511 94.6682 99.0964 93.9207 99.5262L54.5903 122.23C53.868 122.66 53.2433 122.313 53.2433 121.45V45.0428C53.2694 44.5746 53.4048 44.1191 53.6387 43.7127C53.8726 43.3063 54.1985 42.9604 54.5903 42.7027L93.9171 20.0022C94.6646 19.5724 95.2677 19.9227 95.2677 20.7786L95.2713 97.6916Z" fill="#737688"></path> <path d="M52.51 134.473C52.0407 134.672 51.5336 134.766 51.024 134.749C50.5144 134.733 50.0147 134.605 49.5595 134.375L47.7539 133.335C47.2943 133.038 46.9116 132.637 46.6373 132.163C46.363 131.69 46.2048 131.158 46.1758 130.612V33.075C46.1852 32.6683 46.2774 32.2677 46.4466 31.8977C46.5031 31.7743 46.5658 31.6538 46.6344 31.5366V31.5366L51.5855 34.3931C51.481 34.5793 51.3893 34.7723 51.311 34.9709C51.1918 35.2813 51.127 35.61 51.1196 35.9424V133.469C51.1341 134.386 51.7371 134.812 52.51 134.473Z" fill="#353747"></path> <path d="M74.7051 113.318C76.0774 112.527 77.1896 113.17 77.1896 114.762C77.1431 115.624 76.8938 116.463 76.4621 117.21C76.0303 117.957 75.4284 118.592 74.7051 119.063C73.3364 119.858 72.2241 119.215 72.2241 117.619C72.2714 116.757 72.5206 115.919 72.9516 115.172C73.3826 114.425 73.9832 113.79 74.7051 113.318Z" fill="#6BEAC7"></path> <path d="M74.326 22.8189C74.9074 22.4831 75.3805 22.7539 75.3805 23.4256C75.3609 23.7917 75.2552 24.148 75.072 24.4655C74.8887 24.7831 74.6331 25.0528 74.326 25.253C73.7446 25.5888 73.2715 25.318 73.2715 24.6463C73.2911 24.2802 73.3968 23.9239 73.58 23.6064C73.7632 23.2888 74.0188 23.0191 74.326 22.8189Z" fill="black"></path> <path d="M70.263 29.2326L78.4028 24.538C78.8903 24.2599 79.284 24.4585 79.284 24.9858C79.2598 25.2785 79.1676 25.5616 79.0146 25.8124C78.8616 26.0632 78.6521 26.2748 78.4028 26.4303L70.263 31.1249C69.7755 31.403 69.3818 31.2044 69.3818 30.6771C69.406 30.3843 69.4982 30.1013 69.6512 29.8505C69.8042 29.5997 70.0137 29.3881 70.263 29.2326Z" fill="black"></path> <path d="M95.2712 97.6121C95.2712 98.4715 94.6681 99.0168 93.9206 99.4466L54.5902 122.151C53.8679 122.58 53.2432 122.234 53.2432 121.371V44.9632C53.2693 44.495 53.4047 44.0395 53.6386 43.6331C53.8725 43.2267 54.1984 42.8808 54.5902 42.6231L93.917 19.9082C94.6645 19.4748 95.2676 19.8251 95.2676 20.6846L95.2712 97.6121Z" fill="#6BEAC7"></path> <path d="M53.9904 122.516C53.8347 122.517 53.6815 122.477 53.5462 122.4C53.3832 122.289 53.2526 122.136 53.1676 121.958C53.0826 121.78 53.0463 121.582 53.0623 121.385V44.9634C53.0875 44.4626 53.2317 43.975 53.4829 43.5411C53.7341 43.1071 54.0851 42.7393 54.5068 42.468L93.8264 19.7675C93.9828 19.6369 94.1755 19.5574 94.3785 19.5397C94.5815 19.5219 94.7851 19.5669 94.9617 19.6684C95.1384 19.7699 95.2797 19.9232 95.3667 20.1075C95.4536 20.2918 95.4819 20.4983 95.4479 20.6992V97.6194C95.4479 98.6631 94.6245 99.2554 94.0033 99.6093L54.6801 122.306C54.4729 122.436 54.2348 122.508 53.9904 122.516V122.516ZM94.5198 19.9083C94.3382 19.9174 94.1618 19.9721 94.007 20.0672L54.6801 42.7822C54.3167 43.0209 54.014 43.341 53.7958 43.7171C53.5777 44.0932 53.4502 44.515 53.4234 44.9489V121.385C53.3857 121.523 53.3948 121.67 53.4492 121.802C53.5036 121.934 53.6002 122.044 53.724 122.116C53.8478 122.187 53.9918 122.215 54.1334 122.196C54.275 122.177 54.4063 122.112 54.5068 122.01L93.8264 99.2878C94.6967 98.7895 95.0867 98.2731 95.0867 97.6122V20.692C95.1051 20.5551 95.0863 20.4158 95.0323 20.2888C94.9783 20.1617 94.891 20.0515 94.7798 19.9697C94.7 19.9268 94.6103 19.9056 94.5198 19.9083V19.9083Z" fill="white"></path> <path d="M97.514 8.88658C97.402 8.07043 96.7484 7.7743 95.9611 8.22932L52.7052 33.1977C52.2402 33.4878 51.8583 33.8934 51.5966 34.375L46.6455 31.5185C46.9112 31.0393 47.2954 30.6365 47.7614 30.3484L91.0065 5.37641C91.4944 5.12896 92.0338 5 92.581 5C93.1281 5 93.6675 5.12896 94.1555 5.37641L95.9611 6.41285C96.3821 6.68988 96.7385 7.05413 97.0065 7.48092C97.2744 7.9077 97.4475 8.38708 97.514 8.88658V8.88658Z" fill="#353747"></path> <path d="M55.7705 78.6128L94.3751 56.324V61.6723L55.7705 83.9611V78.6128Z" fill="#353747"></path> <path d="M57.3125 79.5045V81.2849L92.833 60.7801V58.9961L57.3125 79.5045Z" fill="#353747"></path> <path d="M55.7702 78.6134L54.2246 77.7214L92.8328 55.4326L94.3748 56.3246L55.7702 78.6134Z" fill="#737688"></path> <path d="M54.2251 77.7207L55.7707 78.6127V83.961L54.2251 83.069V77.7207Z" fill="#353747"></path> <path d="M166.958 148.166L132.98 167.768V166.897L166.955 147.295L166.958 148.166Z" fill="#A0A0B1"></path> <path d="M100.554 94.5781L93.0678 98.9117L88.467 101.562C88.3189 101.638 88.1745 101.725 88.0337 101.815C87.1359 102.364 86.3951 103.135 85.8833 104.055C85.3714 104.974 85.1058 106.01 85.1121 107.062V128.567C85.1152 129.525 84.8921 130.47 84.4609 131.326C84.0298 132.181 83.4029 132.922 82.6312 133.49C81.561 134.297 80.2592 134.738 78.9188 134.746C77.8376 134.744 76.7762 134.456 75.842 133.912C73.0257 132.285 70.6872 129.945 69.0613 127.128C67.4354 124.311 66.5793 121.116 66.579 117.864V95.5496C66.5797 92.2954 65.7236 89.0985 64.097 86.2801C62.4704 83.4617 60.1305 81.1212 57.3125 79.4938L91.2982 59.8882C94.1157 61.5165 96.4553 63.8571 98.0824 66.6752C99.7095 69.4934 100.567 72.6898 100.568 75.9439V85.6583C100.558 88.439 100.554 94.5781 100.554 94.5781Z" fill="white"></path> <path d="M112.908 155.305C110.091 153.68 107.752 151.342 106.125 148.527C104.499 145.711 103.642 142.516 103.642 139.264V117.745C103.646 115.273 103.155 112.826 102.197 110.547C100.627 106.826 97.8844 103.719 94.3859 101.7C93.4467 101.158 92.3815 100.874 91.2974 100.874C90.2133 100.875 89.1485 101.161 88.21 101.704C87.2716 102.247 86.4926 103.027 85.9513 103.967C85.4101 104.906 85.1256 105.971 85.1266 107.055V128.546C85.1267 129.631 84.8415 130.696 84.2996 131.636C83.7577 132.575 82.9782 133.356 82.0393 133.899C81.1004 134.442 80.0351 134.728 78.9505 134.729C77.8659 134.73 76.8001 134.446 75.86 133.905C73.0438 132.278 70.7053 129.938 69.0794 127.121C67.4535 124.304 66.5974 121.109 66.5971 117.857V95.5496C66.5959 92.2938 65.7371 89.0956 64.1072 86.2771C62.4773 83.4585 60.1338 81.119 57.3125 79.4939V80.3823C59.9081 81.9729 62.0527 84.2023 63.5416 86.8575C65.0304 89.5128 65.8139 92.5054 65.8171 95.5496V117.857C65.8231 121.242 66.717 124.566 68.4096 127.497C70.1022 130.429 72.5342 132.865 75.4628 134.562C76.5148 135.179 77.7121 135.504 78.9314 135.504C80.1507 135.504 81.348 135.179 82.4001 134.562C82.5337 134.486 82.6637 134.407 82.7937 134.32C83.7472 133.692 84.529 132.836 85.0682 131.83C85.6073 130.824 85.8868 129.698 85.8813 128.557V107.052C85.8807 106.1 86.1306 105.166 86.6058 104.342C87.0809 103.518 87.7647 102.834 88.5883 102.358C89.4119 101.882 90.3462 101.631 91.2974 101.631C92.2485 101.631 93.183 101.881 94.0067 102.357C96.705 103.919 98.9459 106.162 100.505 108.861C102.064 111.561 102.887 114.623 102.89 117.741V139.261C102.896 142.645 103.79 145.969 105.482 148.9C107.175 151.831 109.607 154.266 112.536 155.963L132.987 167.764V166.887L112.908 155.305Z" fill="#737688"></path> <path opacity="0.4" d="M70.1338 110.61C70.1102 110.61 70.087 110.604 70.0667 110.591C70.0464 110.579 70.0297 110.562 70.0182 110.542C70.0093 110.526 70.0034 110.509 70.0011 110.492C69.9988 110.474 70.0001 110.456 70.0048 110.439C70.0095 110.422 70.0176 110.406 70.0286 110.392C70.0395 110.378 70.0532 110.366 70.0688 110.357L97.6084 94.587C97.6391 94.57 97.6752 94.5658 97.709 94.5753C97.7428 94.5847 97.7715 94.6071 97.789 94.6375C97.7981 94.6527 97.8041 94.6695 97.8067 94.687C97.8092 94.7045 97.8083 94.7223 97.8039 94.7394C97.7996 94.7565 97.7919 94.7726 97.7812 94.7868C97.7706 94.8009 97.7573 94.8128 97.742 94.8217L70.2024 110.592C70.1813 110.604 70.1578 110.61 70.1338 110.61V110.61Z" fill="black"></path> <g opacity="0.4"> <path d="M69.2272 113.721C69.1816 113.727 69.1352 113.717 69.0968 113.691C69.0584 113.666 69.0308 113.627 69.0192 113.582C69.0076 113.538 69.0128 113.49 69.0339 113.449C69.0549 113.408 69.0903 113.376 69.1333 113.36L84.5176 104.811C84.5606 104.792 84.6091 104.789 84.6538 104.804C84.6984 104.818 84.7362 104.849 84.7598 104.89C84.7835 104.93 84.7914 104.978 84.782 105.024C84.7726 105.07 84.7466 105.111 84.709 105.139L69.3211 113.706C69.2918 113.72 69.2593 113.725 69.2272 113.721Z" fill="black"></path> <path d="M69.2065 115.443C69.1728 115.443 69.1397 115.434 69.1106 115.416C69.0815 115.399 69.0573 115.375 69.0404 115.346C69.0154 115.302 69.0085 115.25 69.0213 115.202C69.0342 115.153 69.0657 115.111 69.109 115.086L84.5005 106.518C84.522 106.506 84.5458 106.497 84.5706 106.494C84.5955 106.49 84.6207 106.492 84.645 106.498C84.6692 106.504 84.6919 106.516 84.7117 106.531C84.7316 106.546 84.7482 106.565 84.7605 106.587C84.7855 106.631 84.7924 106.683 84.7796 106.731C84.7667 106.78 84.7352 106.822 84.6919 106.847L69.3112 115.414C69.2801 115.435 69.2436 115.445 69.2065 115.443Z" fill="black"></path> <path d="M69.2166 117.607C69.1733 117.608 69.1308 117.595 69.0962 117.569C69.0615 117.543 69.0367 117.506 69.0258 117.464C69.0149 117.422 69.0185 117.378 69.0361 117.338C69.0538 117.299 69.0843 117.266 69.1227 117.246L84.5178 108.672C84.5608 108.653 84.6093 108.65 84.654 108.665C84.6986 108.679 84.7364 108.71 84.76 108.751C84.7837 108.791 84.7916 108.839 84.7822 108.885C84.7728 108.931 84.7468 108.972 84.7092 109L69.3105 117.578C69.2815 117.594 69.2495 117.604 69.2166 117.607Z" fill="black"></path> </g> <g opacity="0.4"> <path d="M70.2563 120.14C70.2327 120.14 70.2096 120.133 70.1893 120.121C70.169 120.109 70.1523 120.092 70.1408 120.071C70.1318 120.056 70.126 120.039 70.1237 120.021C70.1214 120.003 70.1226 119.986 70.1273 119.968C70.132 119.951 70.1401 119.935 70.1511 119.921C70.1621 119.907 70.1758 119.896 70.1913 119.887L79.9812 114.394C80.0119 114.377 80.048 114.372 80.0818 114.382C80.1156 114.391 80.1443 114.414 80.1617 114.444C80.1708 114.459 80.1768 114.476 80.1794 114.494C80.182 114.511 80.1811 114.529 80.1767 114.546C80.1723 114.563 80.1646 114.579 80.154 114.593C80.1434 114.608 80.13 114.619 80.1148 114.628L70.3249 120.122C70.3039 120.133 70.2803 120.139 70.2563 120.14Z" fill="black"></path> <path d="M70.7365 121.939C70.6909 121.945 70.6444 121.934 70.6061 121.909C70.5677 121.883 70.5401 121.844 70.5285 121.8C70.5169 121.755 70.5221 121.708 70.5432 121.667C70.5642 121.626 70.5996 121.594 70.6426 121.577L82.025 115.051C82.068 115.032 82.1165 115.03 82.1612 115.045C82.2059 115.059 82.2436 115.09 82.2673 115.13C82.2909 115.171 82.2988 115.219 82.2894 115.265C82.28 115.311 82.2541 115.352 82.2164 115.38L70.8304 121.924C70.8011 121.938 70.7685 121.943 70.7365 121.939Z" fill="black"></path> <path d="M71.3326 123.516C71.2989 123.516 71.2658 123.507 71.2367 123.49C71.2076 123.472 71.1834 123.448 71.1665 123.419C71.1415 123.375 71.1346 123.323 71.1474 123.275C71.1603 123.226 71.1918 123.184 71.2351 123.159L82.6247 116.615C82.6462 116.602 82.6701 116.593 82.6949 116.59C82.7197 116.586 82.745 116.588 82.7692 116.594C82.7934 116.6 82.8161 116.612 82.836 116.627C82.8558 116.642 82.8724 116.661 82.8847 116.683C82.9098 116.727 82.9166 116.779 82.9038 116.827C82.891 116.876 82.8595 116.918 82.8161 116.943L71.4373 123.487C71.4062 123.508 71.3697 123.518 71.3326 123.516Z" fill="black"></path> <path d="M72.0656 125.026C72.0223 125.027 71.9799 125.014 71.9452 124.988C71.9105 124.962 71.8857 124.925 71.8748 124.883C71.8639 124.841 71.8676 124.796 71.8852 124.757C71.9028 124.717 71.9333 124.685 71.9717 124.665L83.365 118.113C83.408 118.094 83.4565 118.092 83.5011 118.107C83.5458 118.121 83.5836 118.152 83.6072 118.192C83.6309 118.233 83.6388 118.281 83.6294 118.327C83.62 118.373 83.594 118.414 83.5564 118.442L72.1595 124.997C72.1305 125.013 72.0986 125.023 72.0656 125.026Z" fill="black"></path> <path d="M72.9358 126.463C72.902 126.463 72.869 126.454 72.8398 126.437C72.8107 126.42 72.7865 126.395 72.7697 126.366C72.7569 126.345 72.7485 126.321 72.745 126.297C72.7415 126.272 72.743 126.247 72.7494 126.223C72.7558 126.199 72.767 126.177 72.7823 126.157C72.7975 126.138 72.8166 126.122 72.8383 126.11L84.2351 119.558C84.2781 119.539 84.3266 119.537 84.3713 119.551C84.416 119.566 84.4537 119.596 84.4774 119.637C84.501 119.678 84.5089 119.726 84.4995 119.772C84.4901 119.818 84.4642 119.859 84.4265 119.887L73.0297 126.442C73.0011 126.458 72.9685 126.465 72.9358 126.463Z" fill="black"></path> </g> <path d="M166.955 147.295L132.98 166.887L112.908 155.294C110.091 153.669 107.752 151.331 106.126 148.516C104.499 145.7 103.642 142.505 103.642 139.253V117.744C103.646 115.273 103.155 112.826 102.197 110.547C101.896 109.837 101.552 109.146 101.168 108.478C99.5414 105.662 97.2024 103.325 94.3861 101.699C93.494 101.178 92.4842 100.891 91.4511 100.865C90.418 100.839 89.3951 101.075 88.478 101.551L93.0788 98.9007L102.335 93.556L122.146 82.1191L122.193 82.0902C123.129 81.5435 124.193 81.2554 125.277 81.2554C126.361 81.2554 127.425 81.5435 128.361 82.0902C131.178 83.716 133.517 86.0548 135.143 88.8713C136.769 91.6879 137.624 94.8829 137.624 98.1351V119.651C137.624 122.904 138.48 126.099 140.106 128.916C141.732 131.733 144.071 134.072 146.887 135.7L166.955 147.295Z" fill="#FAFAFA"></path> <path opacity="0.4" d="M106.334 130.903C106.288 130.909 106.242 130.899 106.203 130.873C106.165 130.848 106.137 130.809 106.126 130.764C106.114 130.72 106.119 130.672 106.14 130.631C106.161 130.59 106.197 130.558 106.24 130.542L135.372 113.739C135.415 113.72 135.463 113.717 135.508 113.732C135.553 113.746 135.591 113.777 135.614 113.817C135.638 113.858 135.646 113.906 135.636 113.952C135.627 113.998 135.601 114.039 135.563 114.067L106.428 130.888C106.398 130.902 106.366 130.907 106.334 130.903Z" fill="black"></path> <path opacity="0.4" d="M106.313 132.625C106.279 132.625 106.246 132.616 106.217 132.598C106.188 132.581 106.164 132.557 106.147 132.528C106.122 132.484 106.115 132.432 106.128 132.384C106.141 132.335 106.172 132.293 106.216 132.268L135.355 115.446C135.376 115.434 135.4 115.425 135.425 115.422C135.45 115.418 135.475 115.419 135.499 115.426C135.524 115.432 135.546 115.443 135.566 115.459C135.586 115.474 135.603 115.493 135.615 115.515C135.64 115.559 135.647 115.61 135.634 115.659C135.621 115.708 135.59 115.749 135.546 115.775L106.418 132.596C106.387 132.617 106.35 132.627 106.313 132.625V132.625Z" fill="black"></path> <path opacity="0.4" d="M106.323 134.79C106.28 134.791 106.237 134.777 106.203 134.751C106.168 134.725 106.143 134.688 106.132 134.646C106.121 134.604 106.125 134.56 106.142 134.52C106.16 134.481 106.191 134.448 106.229 134.428L135.372 117.6C135.415 117.581 135.464 117.579 135.508 117.593C135.553 117.608 135.591 117.638 135.614 117.679C135.638 117.719 135.646 117.767 135.636 117.813C135.627 117.859 135.601 117.9 135.563 117.928L106.417 134.761C106.388 134.776 106.356 134.786 106.323 134.79V134.79Z" fill="black"></path> <path opacity="0.4" d="M107.32 124.412C107.286 124.411 107.253 124.402 107.224 124.385C107.195 124.368 107.171 124.343 107.154 124.314C107.129 124.27 107.123 124.218 107.136 124.169C107.15 124.121 107.182 124.079 107.226 124.054L134.726 108.165C134.77 108.139 134.821 108.133 134.87 108.145C134.919 108.158 134.96 108.19 134.986 108.233C134.999 108.255 135.007 108.279 135.011 108.303C135.014 108.328 135.013 108.353 135.007 108.378C135 108.402 134.989 108.425 134.974 108.444C134.958 108.464 134.939 108.481 134.917 108.493L107.414 124.383C107.386 124.401 107.353 124.411 107.32 124.412V124.412Z" fill="black"></path> <path opacity="0.4" d="M107.32 126.109C107.286 126.109 107.253 126.099 107.224 126.082C107.195 126.065 107.171 126.041 107.154 126.012C107.129 125.967 107.123 125.915 107.136 125.867C107.15 125.818 107.182 125.777 107.226 125.752L134.726 109.862C134.77 109.837 134.822 109.831 134.871 109.844C134.92 109.858 134.961 109.89 134.986 109.934C134.999 109.955 135.007 109.979 135.011 110.003C135.014 110.028 135.013 110.053 135.006 110.077C135 110.101 134.989 110.123 134.973 110.143C134.958 110.162 134.939 110.179 134.917 110.191L107.414 126.08C107.385 126.097 107.353 126.107 107.32 126.109V126.109Z" fill="black"></path> <path opacity="0.4" d="M107.466 127.984C107.433 127.983 107.4 127.974 107.371 127.957C107.341 127.94 107.317 127.915 107.3 127.886C107.276 127.842 107.269 127.79 107.283 127.741C107.296 127.692 107.329 127.651 107.373 127.626L134.872 111.736C134.917 111.712 134.969 111.705 135.017 111.719C135.066 111.732 135.107 111.765 135.132 111.809C135.145 111.83 135.154 111.853 135.157 111.878C135.161 111.903 135.159 111.927 135.153 111.951C135.146 111.975 135.135 111.998 135.12 112.017C135.105 112.037 135.086 112.053 135.064 112.065L107.56 127.955C107.532 127.971 107.5 127.981 107.466 127.984V127.984Z" fill="black"></path> <path opacity="0.4" d="M107.32 121.941C107.275 121.948 107.228 121.937 107.19 121.912C107.152 121.886 107.124 121.847 107.112 121.803C107.101 121.758 107.106 121.711 107.127 121.67C107.148 121.629 107.184 121.597 107.227 121.58L121.784 113.173C121.805 113.157 121.83 113.146 121.856 113.14C121.883 113.134 121.91 113.134 121.936 113.139C121.963 113.144 121.988 113.155 122.01 113.171C122.032 113.187 122.05 113.207 122.064 113.23C122.077 113.254 122.086 113.28 122.089 113.306C122.091 113.333 122.089 113.36 122.08 113.386C122.072 113.412 122.058 113.435 122.04 113.455C122.022 113.475 122 113.491 121.975 113.502L107.414 121.909C107.387 121.929 107.354 121.94 107.32 121.941Z" fill="black"></path> <path d="M102.88 117.745C102.876 114.627 102.053 111.565 100.494 108.865C98.9351 106.165 96.6943 103.922 93.9959 102.36C93.1722 101.885 92.2378 101.635 91.2866 101.635C90.3354 101.635 89.4011 101.886 88.5775 102.361C87.7539 102.837 87.0702 103.522 86.595 104.345C86.1198 105.169 85.8699 106.104 85.8705 107.055V128.56C85.877 129.698 85.6005 130.819 85.066 131.823C84.5314 132.828 83.7555 133.683 82.8082 134.313V134.313C82.6782 134.4 82.5482 134.479 82.4146 134.555L102.894 122.728L102.88 117.745Z" fill="#F5F6FF"></path> <path opacity="0.28" d="M102.88 117.745C102.876 114.627 102.053 111.565 100.494 108.865C98.9351 106.165 96.6943 103.922 93.9959 102.36C93.1722 101.885 92.2378 101.635 91.2866 101.635C90.3354 101.635 89.4011 101.886 88.5775 102.361C87.7539 102.837 87.0702 103.522 86.595 104.345C86.1198 105.169 85.8699 106.104 85.8705 107.055V128.56C85.877 129.698 85.6005 130.819 85.066 131.823C84.5314 132.828 83.7555 133.683 82.8082 134.313V134.313C82.6782 134.4 82.5482 134.479 82.4146 134.555L102.894 122.728L102.88 117.745Z" fill="#737688"></path> <path d="M63.3479 79.6103C63.7561 79.9238 64.2469 80.1112 64.7601 80.1497C65.2733 80.1882 65.7865 80.076 66.2369 79.827L90.4794 65.8333C91.3895 65.3061 91.6025 64.3238 90.8911 63.7099C90.1797 63.096 88.8182 63.0887 87.9082 63.6124L63.6512 77.6169C62.7412 78.1406 62.6328 79 63.3479 79.6103Z" fill="#6BEAC7"></path> <path opacity="0.4" d="M67.2664 84.0801C67.2077 84.0792 67.1509 84.0593 67.1045 84.0233C67.0581 83.9874 67.0246 83.9373 67.0091 83.8807C66.9936 83.824 66.997 83.7639 67.0186 83.7093C67.0403 83.6547 67.0791 83.6087 67.1292 83.5781L78.465 77.0344C78.526 77.0002 78.598 76.9913 78.6655 77.0095C78.733 77.0277 78.7907 77.0717 78.8261 77.132C78.8594 77.1931 78.8679 77.2648 78.8497 77.3321C78.8316 77.3993 78.7882 77.457 78.7286 77.4931L67.4 84.0439C67.3594 84.0675 67.3134 84.08 67.2664 84.0801V84.0801Z" fill="black"></path> <path opacity="0.4" d="M68.1401 85.5382C68.0927 85.5385 68.046 85.5262 68.0048 85.5028C67.9637 85.4793 67.9293 85.4455 67.9053 85.4046C67.8729 85.3433 67.8649 85.2719 67.883 85.2049C67.9011 85.1379 67.9439 85.0802 68.0028 85.0435L79.3386 78.4999C79.3997 78.4723 79.4689 78.4683 79.5328 78.4887C79.5966 78.5092 79.6506 78.5526 79.6843 78.6105C79.718 78.6685 79.729 78.7369 79.7152 78.8025C79.7014 78.8681 79.6637 78.9263 79.6095 78.9657L68.2737 85.5021C68.2333 85.5262 68.1871 85.5387 68.1401 85.5382V85.5382Z" fill="black"></path> <path opacity="0.4" d="M68.8733 87.0586C68.8149 87.057 68.7586 87.0365 68.7127 87.0003C68.6669 86.964 68.634 86.914 68.619 86.8575C68.6039 86.801 68.6076 86.7412 68.6293 86.687C68.6511 86.6328 68.6898 86.587 68.7397 86.5566L80.0755 80.013C80.1365 79.9787 80.2084 79.9698 80.2759 79.988C80.3435 80.0062 80.4011 80.0502 80.4366 80.1105C80.4696 80.1721 80.4775 80.2441 80.4587 80.3114C80.4398 80.3787 80.3957 80.4361 80.3355 80.4716L69.0033 87.0152C68.9644 87.0406 68.9196 87.0555 68.8733 87.0586Z" fill="black"></path> <path opacity="0.4" d="M83.266 75.0728C83.2186 75.073 83.172 75.0608 83.1308 75.0374C83.0896 75.0139 83.0553 74.9801 83.0313 74.9392C82.9989 74.8778 82.9909 74.8065 83.009 74.7395C83.0271 74.6725 83.0699 74.6148 83.1288 74.5781L94.4646 68.0345C94.5256 68.0002 94.5976 67.9913 94.6651 68.0095C94.7326 68.0277 94.7903 68.0717 94.8257 68.132C94.859 68.1931 94.8675 68.2648 94.8493 68.3321C94.8312 68.3993 94.7878 68.457 94.7282 68.4931L83.3924 75.0367C83.3541 75.0595 83.3106 75.072 83.266 75.0728V75.0728Z" fill="black"></path> <path opacity="0.4" d="M83.6926 76.6214C83.6456 76.6217 83.5995 76.6095 83.5588 76.586C83.5182 76.5625 83.4846 76.5286 83.4615 76.4878C83.4272 76.4268 83.4183 76.3548 83.4365 76.2873C83.4547 76.2198 83.4987 76.1621 83.559 76.1267L94.8875 69.5758C94.9176 69.5584 94.9509 69.5471 94.9853 69.5425C95.0198 69.538 95.0548 69.5403 95.0884 69.5494C95.122 69.5585 95.1534 69.5741 95.1809 69.5953C95.2084 69.6166 95.2314 69.6431 95.2487 69.6733C95.2829 69.7343 95.2919 69.8062 95.2736 69.8738C95.2554 69.9413 95.2114 69.999 95.1512 70.0344L83.819 76.5781C83.7811 76.6028 83.7377 76.6177 83.6926 76.6214Z" fill="black"></path> <path opacity="0.4" d="M83.9886 78.2867C83.9287 78.288 83.87 78.2692 83.8221 78.2332C83.7742 78.1972 83.7397 78.1462 83.7243 78.0883C83.7089 78.0303 83.7134 77.9689 83.7371 77.9139C83.7608 77.8588 83.8023 77.8133 83.855 77.7847L95.1872 71.2411C95.2483 71.2135 95.3174 71.2095 95.3813 71.2299C95.4451 71.2504 95.4991 71.2938 95.5328 71.3518C95.5665 71.4097 95.5775 71.4781 95.5637 71.5437C95.5499 71.6093 95.5122 71.6675 95.458 71.7069L84.1222 78.2506C84.082 78.275 84.0356 78.2875 83.9886 78.2867V78.2867Z" fill="black"></path> <path opacity="0.4" d="M69.2728 89.0699C69.2128 89.0712 69.1542 89.0524 69.1063 89.0164C69.0584 88.9804 69.0239 88.9294 69.0085 88.8715C68.9931 88.8135 68.9976 88.7521 69.0213 88.6971C69.045 88.642 69.0865 88.5965 69.1391 88.5679L80.4713 82.0243C80.5324 81.9967 80.6016 81.9927 80.6655 82.0131C80.7293 82.0336 80.7833 82.077 80.817 82.135C80.8507 82.1929 80.8617 82.2613 80.8479 82.3269C80.8341 82.3925 80.7964 82.4507 80.7422 82.4901L69.4064 89.0302C69.3664 89.0555 69.3201 89.0692 69.2728 89.0699V89.0699Z" fill="black"></path> <path opacity="0.4" d="M69.8156 96.5399C69.7818 96.5394 69.7488 96.5301 69.7197 96.513C69.6906 96.496 69.6664 96.4716 69.6495 96.4424C69.6247 96.3983 69.6185 96.3462 69.632 96.2975C69.6455 96.2487 69.6778 96.2074 69.7217 96.1823L97.2216 80.2927C97.2653 80.2677 97.317 80.2608 97.3657 80.2737C97.4144 80.2865 97.456 80.318 97.4816 80.3613C97.4945 80.3828 97.503 80.4067 97.5065 80.4315C97.51 80.4563 97.5085 80.4816 97.5021 80.5058C97.4957 80.53 97.4846 80.5527 97.4692 80.5726C97.4539 80.5924 97.4348 80.609 97.413 80.6213L69.9095 96.511C69.8815 96.5291 69.849 96.5391 69.8156 96.5399V96.5399Z" fill="black"></path> <path opacity="0.4" d="M70.2136 107.272C70.1798 107.272 70.1467 107.263 70.1176 107.245C70.0885 107.228 70.0643 107.204 70.0474 107.175C70.0227 107.131 70.0164 107.079 70.0299 107.03C70.0435 106.981 70.0757 106.94 70.1197 106.915L97.6196 91.0251C97.6632 91.0001 97.715 90.9932 97.7636 91.0061C97.8123 91.0189 97.854 91.0504 97.8796 91.0938C97.8925 91.1152 97.9009 91.1391 97.9044 91.1639C97.908 91.1887 97.9065 91.214 97.9001 91.2382C97.8937 91.2625 97.8825 91.2852 97.8672 91.305C97.8519 91.3249 97.8328 91.3414 97.811 91.3538L70.3075 107.243C70.2794 107.262 70.2469 107.272 70.2136 107.272V107.272Z" fill="black"></path> <path opacity="0.4" d="M69.8156 98.237C69.7818 98.2365 69.7488 98.2272 69.7197 98.2101C69.6906 98.1931 69.6664 98.1687 69.6495 98.1395C69.6247 98.0954 69.6185 98.0433 69.632 97.9946C69.6455 97.9458 69.6778 97.9045 69.7217 97.8794L97.2216 81.9898C97.2657 81.9651 97.3178 81.9588 97.3665 81.9723C97.4152 81.9858 97.4566 82.0181 97.4816 82.062C97.4944 82.0833 97.5028 82.1068 97.5063 82.1314C97.5098 82.1559 97.5083 82.1809 97.5019 82.2048C97.4955 82.2288 97.4843 82.2512 97.469 82.2707C97.4537 82.2902 97.4347 82.3065 97.413 82.3184L69.9095 98.2081C69.8809 98.2249 69.8487 98.2348 69.8156 98.237V98.237Z" fill="black"></path> <path opacity="0.4" d="M70.2136 108.97C70.1798 108.969 70.1467 108.96 70.1176 108.943C70.0885 108.926 70.0643 108.901 70.0474 108.872C70.0227 108.828 70.0164 108.776 70.0299 108.727C70.0435 108.679 70.0757 108.637 70.1197 108.612L97.6195 92.7225C97.6636 92.6977 97.7157 92.6914 97.7644 92.705C97.8132 92.7185 97.8545 92.7508 97.8796 92.7947C97.8924 92.8159 97.9008 92.8395 97.9042 92.864C97.9077 92.8886 97.9062 92.9136 97.8998 92.9375C97.8934 92.9615 97.8822 92.9839 97.867 93.0034C97.8517 93.0229 97.8326 93.0391 97.8109 93.0511L70.3075 108.941C70.2788 108.958 70.2467 108.967 70.2136 108.97V108.97Z" fill="black"></path> <path opacity="0.4" d="M69.8156 99.9344C69.7818 99.9339 69.7488 99.9246 69.7197 99.9075C69.6906 99.8905 69.6664 99.8661 69.6495 99.8369C69.6247 99.7928 69.6185 99.7407 69.632 99.6919C69.6455 99.6432 69.6778 99.6019 69.7217 99.5768L97.2216 83.6872C97.2657 83.6618 97.318 83.655 97.3671 83.6682C97.4162 83.6814 97.458 83.7136 97.4834 83.7576C97.5088 83.8017 97.5156 83.854 97.5024 83.9031C97.4892 83.9522 97.4571 83.9941 97.413 84.0195L69.9095 99.9091C69.8806 99.9246 69.8484 99.9333 69.8156 99.9344V99.9344Z" fill="black"></path> <path opacity="0.4" d="M69.8158 101.632C69.782 101.631 69.7489 101.622 69.7198 101.605C69.6907 101.588 69.6665 101.563 69.6496 101.534C69.637 101.513 69.6288 101.489 69.6256 101.464C69.6223 101.44 69.6242 101.415 69.6309 101.391C69.6377 101.367 69.6492 101.344 69.6648 101.325C69.6805 101.305 69.6999 101.289 69.7219 101.278L97.2218 85.3882C97.2648 85.3693 97.3133 85.3669 97.3579 85.3815C97.4026 85.3961 97.4404 85.4265 97.464 85.4671C97.4876 85.5077 97.4955 85.5556 97.4862 85.6017C97.4768 85.6477 97.4508 85.6887 97.4132 85.7168L69.9097 101.606C69.8814 101.624 69.8488 101.632 69.8158 101.632V101.632Z" fill="black"></path> <path opacity="0.4" d="M69.8161 94.0697C69.7705 94.0761 69.724 94.0656 69.6857 94.04C69.6473 94.0144 69.6197 93.9756 69.6081 93.931C69.5965 93.8864 69.6017 93.839 69.6228 93.798C69.6438 93.757 69.6792 93.7251 69.7222 93.7085L84.2793 85.3015C84.3009 85.2853 84.3257 85.274 84.352 85.2681C84.3783 85.2622 84.4056 85.2619 84.432 85.2673C84.4585 85.2727 84.4835 85.2836 84.5054 85.2993C84.5273 85.315 84.5456 85.3352 84.5592 85.3585C84.5728 85.3818 84.5813 85.4077 84.5841 85.4346C84.587 85.4614 84.5842 85.4885 84.5758 85.5141C84.5674 85.5398 84.5538 85.5634 84.5356 85.5834C84.5175 85.6034 84.4954 85.6193 84.4707 85.6301L69.91 94.0372C69.8825 94.0569 69.8499 94.0682 69.8161 94.0697Z" fill="black"></path> <path opacity="0.4" d="M70.2141 104.802C70.1684 104.809 70.122 104.798 70.0836 104.772C70.0453 104.747 70.0176 104.708 70.006 104.663C69.9944 104.619 69.9997 104.571 70.0207 104.53C70.0418 104.489 70.0772 104.458 70.1202 104.441L84.6772 96.0339C84.6988 96.0178 84.7236 96.0064 84.7499 96.0005C84.7763 95.9946 84.8035 95.9943 84.83 95.9997C84.8564 96.0051 84.8814 96.016 84.9033 96.0317C84.9252 96.0474 84.9436 96.0676 84.9572 96.0909C84.9707 96.1142 84.9792 96.1401 84.9821 96.167C84.985 96.1938 84.9821 96.2209 84.9738 96.2466C84.9654 96.2722 84.9517 96.2958 84.9336 96.3158C84.9155 96.3358 84.8933 96.3517 84.8686 96.3625L70.308 104.77C70.2805 104.789 70.2479 104.801 70.2141 104.802Z" fill="black"></path> <path d="M94.0874 94.6257C94.051 94.6257 94.0161 94.6112 93.9904 94.5855C93.9647 94.5597 93.9502 94.5248 93.9502 94.4884V94.2212C93.9502 94.1848 93.9647 94.1499 93.9904 94.1242C94.0161 94.0984 94.051 94.084 94.0874 94.084C94.1232 94.0849 94.1572 94.0998 94.1821 94.1254C94.2071 94.1511 94.2211 94.1854 94.221 94.2212V94.4884C94.2211 94.5242 94.2071 94.5586 94.1821 94.5842C94.1572 94.6099 94.1232 94.6247 94.0874 94.6257Z" fill="white"></path> <path d="M98.3695 98.5974L122.356 84.7554C123.266 84.2318 124.714 83.9212 125.526 84.2498C126.339 84.5785 126.187 85.4307 125.277 85.9544L101.013 99.9553C100.103 100.483 98.81 100.537 98.0878 100.147C97.3655 99.7567 97.4594 99.1211 98.3695 98.5974Z" fill="#6BEAC7"></path> <path opacity="0.4" d="M101.15 102.404C101.116 102.403 101.083 102.394 101.054 102.377C101.025 102.36 101.001 102.335 100.984 102.306C100.959 102.262 100.953 102.21 100.966 102.161C100.98 102.112 101.012 102.071 101.056 102.046L128.69 86.095C128.733 86.0699 128.785 86.0631 128.834 86.0759C128.882 86.0888 128.924 86.1203 128.95 86.1636C128.962 86.1853 128.971 86.2093 128.974 86.2343C128.977 86.2593 128.975 86.2846 128.969 86.3089C128.962 86.3331 128.95 86.3558 128.935 86.3755C128.919 86.3952 128.9 86.4116 128.877 86.4236L101.244 102.375C101.216 102.393 101.183 102.403 101.15 102.404Z" fill="black"></path> <path opacity="0.4" d="M102.295 103.639C102.261 103.638 102.228 103.629 102.199 103.612C102.17 103.595 102.145 103.571 102.128 103.541C102.104 103.497 102.097 103.445 102.111 103.397C102.125 103.348 102.157 103.306 102.201 103.281L129.878 87.3087C129.899 87.2959 129.922 87.2875 129.947 87.2841C129.971 87.2806 129.996 87.2821 130.02 87.2885C130.044 87.2949 130.067 87.3061 130.086 87.3213C130.106 87.3366 130.122 87.3557 130.134 87.3773C130.159 87.421 130.166 87.4728 130.153 87.5214C130.14 87.5701 130.109 87.6117 130.065 87.6374L102.389 103.614C102.36 103.629 102.327 103.638 102.295 103.639Z" fill="black"></path> <path opacity="0.4" d="M106.877 117.773C106.86 117.773 106.842 117.77 106.825 117.763C106.809 117.756 106.794 117.746 106.782 117.733C106.769 117.72 106.759 117.705 106.753 117.688C106.746 117.672 106.743 117.654 106.744 117.636V116.17C106.744 115.069 106.744 115.069 106.715 114.321V114.198C106.632 112.492 106.305 110.806 105.744 109.193C105.183 107.604 104.339 106.129 103.252 104.841C103.229 104.814 103.219 104.778 103.222 104.743C103.226 104.707 103.244 104.674 103.272 104.652C103.299 104.629 103.335 104.619 103.371 104.623C103.406 104.626 103.439 104.644 103.461 104.672C104.565 105.985 105.421 107.488 105.989 109.106C106.561 110.735 106.897 112.438 106.986 114.162V114.289C107.018 115.04 107.018 115.04 107.015 116.152V117.618C107.017 117.638 107.016 117.657 107.01 117.676C107.004 117.695 106.995 117.712 106.981 117.727C106.968 117.742 106.952 117.754 106.935 117.762C106.917 117.77 106.897 117.774 106.877 117.773V117.773Z" fill="black"></path> <path d="M106.599 106.217C106.477 106.001 106.343 105.791 106.202 105.582C106.166 105.533 106.141 105.477 106.129 105.418C106.116 105.359 106.117 105.297 106.13 105.238C106.143 105.179 106.168 105.123 106.204 105.075C106.24 105.026 106.286 104.986 106.339 104.957L116.899 98.861C117.01 98.7957 117.141 98.7758 117.267 98.8054C117.392 98.835 117.501 98.9119 117.57 99.0199C117.697 99.2258 117.82 99.4461 117.932 99.6736C117.988 99.7889 118 99.9216 117.963 100.045C117.926 100.168 117.844 100.273 117.733 100.338L107.231 106.398C107.178 106.428 107.119 106.448 107.059 106.455C106.998 106.463 106.936 106.458 106.877 106.441C106.818 106.424 106.763 106.396 106.716 106.357C106.668 106.319 106.628 106.271 106.599 106.217V106.217Z" fill="#6BEAC7"></path> <path d="M107.628 108.666C107.704 108.908 107.78 109.146 107.845 109.388C107.859 109.442 107.885 109.492 107.921 109.535C107.958 109.577 108.003 109.61 108.055 109.632C108.106 109.654 108.162 109.663 108.218 109.66C108.273 109.656 108.328 109.64 108.376 109.612L133.427 95.1487C133.542 95.0772 133.632 94.9716 133.685 94.8468C133.737 94.7219 133.749 94.5839 133.72 94.4517C133.651 94.2026 133.579 93.9606 133.507 93.7295C133.494 93.6713 133.466 93.6173 133.427 93.5723C133.388 93.5273 133.338 93.4927 133.282 93.4716C133.227 93.4505 133.166 93.4435 133.107 93.4514C133.048 93.4592 132.992 93.4815 132.944 93.5164L107.885 107.98C107.773 108.05 107.688 108.156 107.641 108.28C107.595 108.403 107.591 108.539 107.628 108.666V108.666Z" fill="#6BEAC7"></path> <path opacity="0.7" d="M107.628 108.666C107.704 108.908 107.78 109.146 107.845 109.388C107.859 109.442 107.885 109.492 107.921 109.535C107.958 109.577 108.003 109.61 108.055 109.632C108.106 109.654 108.162 109.663 108.218 109.66C108.273 109.656 108.328 109.64 108.376 109.612L133.427 95.1487C133.542 95.0772 133.632 94.9716 133.685 94.8468C133.737 94.7219 133.749 94.5839 133.72 94.4517C133.651 94.2026 133.579 93.9606 133.507 93.7295C133.494 93.6713 133.466 93.6173 133.427 93.5723C133.388 93.5273 133.338 93.4927 133.282 93.4716C133.227 93.4505 133.166 93.4435 133.107 93.4514C133.048 93.4592 132.992 93.4815 132.944 93.5164L107.885 107.98C107.773 108.05 107.688 108.156 107.641 108.28C107.595 108.403 107.591 108.539 107.628 108.666V108.666Z" fill="white"></path> <path d="M108.358 111.995C108.391 112.262 108.416 112.523 108.437 112.772C108.432 112.825 108.442 112.879 108.467 112.926C108.492 112.974 108.531 113.013 108.578 113.038C108.625 113.064 108.679 113.075 108.732 113.07C108.786 113.065 108.836 113.044 108.878 113.01L125.851 103.213C125.972 103.136 126.07 103.029 126.137 102.902C126.203 102.775 126.236 102.633 126.23 102.49C126.209 102.23 126.18 101.974 126.151 101.714C126.15 101.659 126.134 101.605 126.105 101.559C126.075 101.512 126.033 101.475 125.984 101.451C125.934 101.427 125.879 101.417 125.824 101.423C125.77 101.429 125.718 101.449 125.674 101.483L108.701 111.277C108.584 111.354 108.49 111.462 108.43 111.588C108.369 111.715 108.345 111.856 108.358 111.995V111.995Z" fill="#6BEAC7"></path> <path opacity="0.15" d="M108.358 111.995C108.391 112.262 108.416 112.523 108.437 112.772C108.432 112.825 108.442 112.879 108.467 112.926C108.492 112.974 108.531 113.013 108.578 113.038C108.625 113.064 108.679 113.075 108.732 113.07C108.786 113.065 108.836 113.044 108.878 113.01L125.851 103.213C125.972 103.136 126.07 103.029 126.137 102.902C126.203 102.775 126.236 102.633 126.23 102.49C126.209 102.23 126.18 101.974 126.151 101.714C126.15 101.659 126.134 101.605 126.105 101.559C126.075 101.512 126.033 101.475 125.984 101.451C125.934 101.427 125.879 101.417 125.824 101.423C125.77 101.429 125.718 101.449 125.674 101.483L108.701 111.277C108.584 111.354 108.49 111.462 108.43 111.588C108.369 111.715 108.345 111.856 108.358 111.995V111.995Z" fill="black"></path> <path d="M108.495 115.458V116.224C108.495 116.484 108.679 116.585 108.907 116.459L116.173 112.266C116.294 112.187 116.394 112.08 116.466 111.955C116.537 111.829 116.578 111.688 116.584 111.544V110.778C116.584 110.515 116.4 110.417 116.173 110.54L108.907 114.736C108.786 114.815 108.685 114.922 108.614 115.048C108.542 115.173 108.501 115.314 108.495 115.458V115.458Z" fill="#6BEAC7"></path> <path opacity="0.5" d="M108.495 115.458V116.224C108.495 116.484 108.679 116.585 108.907 116.459L116.173 112.266C116.294 112.187 116.394 112.08 116.466 111.955C116.537 111.829 116.578 111.688 116.584 111.544V110.778C116.584 110.515 116.4 110.417 116.173 110.54L108.907 114.736C108.786 114.815 108.685 114.922 108.614 115.048C108.542 115.173 108.501 115.314 108.495 115.458V115.458Z" fill="white"></path> <path opacity="0.4" d="M107.188 140.185C107.141 140.185 107.094 140.172 107.054 140.148C107.013 140.124 106.98 140.089 106.957 140.048C106.923 139.987 106.914 139.915 106.932 139.847C106.95 139.78 106.994 139.722 107.055 139.687L118.383 133.147C118.444 133.112 118.516 133.103 118.584 133.122C118.651 133.14 118.709 133.184 118.744 133.244C118.777 133.306 118.785 133.378 118.766 133.445C118.747 133.512 118.703 133.57 118.643 133.605L107.318 140.163C107.277 140.18 107.233 140.188 107.188 140.185V140.185Z" fill="black"></path> <path opacity="0.4" d="M107.549 141.861C107.489 141.862 107.431 141.843 107.383 141.807C107.335 141.771 107.3 141.72 107.285 141.662C107.269 141.604 107.274 141.543 107.298 141.488C107.321 141.433 107.363 141.387 107.416 141.359L118.744 134.822C118.775 134.805 118.808 134.793 118.843 134.789C118.878 134.784 118.914 134.787 118.948 134.796C118.982 134.805 119.014 134.821 119.042 134.843C119.07 134.864 119.093 134.891 119.111 134.922C119.128 134.952 119.14 134.986 119.144 135.021C119.149 135.056 119.146 135.091 119.137 135.125C119.128 135.159 119.112 135.191 119.09 135.219C119.069 135.247 119.042 135.271 119.011 135.288L107.686 141.824C107.645 141.85 107.597 141.862 107.549 141.861V141.861Z" fill="black"></path> <path opacity="0.4" d="M108.073 143.482C108.014 143.481 107.958 143.461 107.911 143.425C107.865 143.389 107.831 143.339 107.816 143.283C107.8 143.226 107.804 143.166 107.825 143.111C107.847 143.057 107.886 143.011 107.936 142.98L119.261 136.444C119.291 136.421 119.326 136.406 119.364 136.398C119.401 136.39 119.439 136.39 119.476 136.398C119.513 136.405 119.548 136.421 119.579 136.443C119.609 136.465 119.635 136.494 119.654 136.527C119.673 136.559 119.685 136.596 119.689 136.633C119.693 136.671 119.69 136.709 119.678 136.745C119.667 136.781 119.648 136.815 119.622 136.843C119.597 136.871 119.566 136.894 119.532 136.91L108.207 143.446C108.166 143.469 108.12 143.482 108.073 143.482V143.482Z" fill="black"></path> <path opacity="0.4" d="M124.959 129.925C124.912 129.926 124.866 129.913 124.825 129.89C124.785 129.866 124.751 129.832 124.728 129.792C124.694 129.731 124.685 129.659 124.703 129.591C124.721 129.524 124.765 129.466 124.826 129.431L136.151 122.894C136.212 122.862 136.283 122.854 136.35 122.872C136.417 122.89 136.475 122.933 136.512 122.992C136.545 123.053 136.553 123.125 136.534 123.192C136.515 123.26 136.471 123.317 136.411 123.353L125.089 129.889C125.05 129.912 125.005 129.924 124.959 129.925Z" fill="black"></path> <path opacity="0.4" d="M125.324 131.601C125.277 131.601 125.231 131.589 125.19 131.566C125.15 131.542 125.116 131.508 125.093 131.467C125.059 131.406 125.05 131.334 125.068 131.267C125.086 131.199 125.13 131.142 125.19 131.106L136.515 124.57C136.577 124.537 136.648 124.529 136.715 124.548C136.782 124.566 136.84 124.608 136.876 124.667C136.909 124.729 136.917 124.801 136.898 124.868C136.88 124.936 136.835 124.993 136.775 125.028L125.454 131.565C125.414 131.588 125.37 131.6 125.324 131.601Z" fill="black"></path> <path opacity="0.4" d="M125.848 133.222C125.8 133.223 125.754 133.21 125.712 133.187C125.671 133.164 125.637 133.13 125.613 133.089C125.58 133.027 125.572 132.956 125.591 132.889C125.609 132.822 125.651 132.764 125.71 132.728L137.035 126.191C137.066 126.174 137.1 126.162 137.135 126.157C137.171 126.153 137.207 126.155 137.241 126.164C137.275 126.174 137.308 126.189 137.336 126.211C137.364 126.233 137.388 126.26 137.405 126.291C137.423 126.321 137.435 126.355 137.439 126.391C137.444 126.426 137.442 126.462 137.432 126.496C137.423 126.531 137.407 126.563 137.386 126.591C137.364 126.619 137.337 126.643 137.306 126.661L125.967 133.186C125.931 133.208 125.89 133.22 125.848 133.222V133.222Z" fill="black"></path> <path d="M111.179 145.32L136.999 130.413C137.413 130.162 137.904 130.071 138.38 130.157C138.856 130.243 139.285 130.5 139.585 130.879C140.138 131.633 139.914 132.623 139.004 133.15L113.176 148.054C112.266 148.578 111.009 148.44 110.464 147.693C109.918 146.945 110.272 145.844 111.179 145.32Z" fill="#6BEAC7"></path> <path opacity="0.4" d="M115.44 152.622C115.393 152.622 115.347 152.609 115.305 152.586C115.264 152.563 115.23 152.529 115.205 152.489C115.172 152.427 115.165 152.355 115.183 152.288C115.202 152.221 115.246 152.163 115.307 152.128L126.628 145.58C126.689 145.548 126.761 145.54 126.828 145.558C126.895 145.576 126.952 145.619 126.989 145.678C127.022 145.739 127.031 145.811 127.013 145.878C126.994 145.945 126.951 146.003 126.892 146.039L115.567 152.575C115.529 152.602 115.486 152.618 115.44 152.622V152.622Z" fill="black"></path> <path opacity="0.4" d="M114.024 151.622C113.966 151.621 113.909 151.601 113.862 151.565C113.816 151.529 113.782 151.479 113.767 151.422C113.751 151.366 113.755 151.306 113.776 151.251C113.798 151.196 113.837 151.15 113.887 151.12L125.212 144.583C125.274 144.55 125.346 144.542 125.413 144.561C125.48 144.58 125.538 144.624 125.573 144.684C125.606 144.746 125.613 144.817 125.595 144.884C125.577 144.951 125.535 145.009 125.476 145.046L114.158 151.586C114.117 151.609 114.071 151.622 114.024 151.622V151.622Z" fill="black"></path> <path opacity="0.4" d="M116.939 153.504C116.892 153.503 116.845 153.49 116.805 153.466C116.764 153.442 116.731 153.407 116.708 153.366C116.673 153.305 116.664 153.233 116.683 153.166C116.701 153.098 116.745 153.041 116.805 153.005L128.134 146.465C128.195 146.433 128.266 146.425 128.333 146.443C128.4 146.461 128.458 146.504 128.495 146.563C128.528 146.624 128.536 146.696 128.517 146.764C128.498 146.831 128.454 146.888 128.394 146.924L117.072 153.46C117.032 153.485 116.986 153.499 116.939 153.504V153.504Z" fill="black"></path> <path opacity="0.4" d="M131.608 143.291C131.548 143.292 131.489 143.273 131.441 143.237C131.393 143.201 131.359 143.15 131.343 143.092C131.328 143.034 131.333 142.973 131.356 142.918C131.38 142.863 131.421 142.817 131.474 142.789L142.795 136.252C142.858 136.216 142.932 136.207 143.001 136.225C143.071 136.244 143.13 136.289 143.166 136.352C143.202 136.414 143.211 136.488 143.193 136.557C143.174 136.627 143.129 136.686 143.066 136.722L131.745 143.255C131.704 143.279 131.656 143.292 131.608 143.291Z" fill="black"></path> <path opacity="0.4" d="M130.192 142.29C130.133 142.289 130.077 142.269 130.03 142.233C129.984 142.197 129.95 142.147 129.935 142.091C129.919 142.034 129.923 141.974 129.944 141.919C129.966 141.865 130.005 141.819 130.055 141.788L141.38 135.255C141.441 135.221 141.513 135.212 141.58 135.23C141.648 135.249 141.706 135.293 141.741 135.353C141.774 135.415 141.782 135.486 141.763 135.554C141.744 135.621 141.7 135.679 141.64 135.714L130.319 142.25C130.28 142.273 130.237 142.286 130.192 142.29V142.29Z" fill="black"></path> <path opacity="0.4" d="M133.095 144.172C133.048 144.172 133.002 144.16 132.962 144.136C132.921 144.113 132.887 144.079 132.864 144.038C132.83 143.977 132.821 143.905 132.839 143.838C132.858 143.77 132.902 143.712 132.962 143.677L144.287 137.141C144.318 137.12 144.353 137.106 144.389 137.099C144.426 137.092 144.464 137.093 144.5 137.102C144.536 137.11 144.57 137.126 144.6 137.148C144.63 137.171 144.655 137.199 144.673 137.231C144.692 137.264 144.703 137.3 144.707 137.337C144.711 137.374 144.707 137.411 144.696 137.447C144.685 137.482 144.667 137.515 144.642 137.543C144.618 137.571 144.588 137.594 144.554 137.61L133.233 144.136C133.191 144.16 133.144 144.172 133.095 144.172Z" fill="black"></path> <path opacity="0.4" d="M130.3 161.217C130.24 161.217 130.182 161.198 130.135 161.162C130.087 161.126 130.052 161.075 130.037 161.017C130.021 160.959 130.025 160.898 130.048 160.843C130.071 160.787 130.111 160.741 130.163 160.711L157.652 144.858C157.714 144.822 157.787 144.813 157.856 144.832C157.89 144.841 157.922 144.857 157.95 144.878C157.978 144.9 158.001 144.927 158.019 144.957C158.036 144.988 158.048 145.022 158.052 145.056C158.057 145.091 158.054 145.127 158.045 145.161C158.036 145.195 158.02 145.227 157.998 145.255C157.977 145.283 157.95 145.306 157.919 145.324L130.419 161.181C130.383 161.201 130.342 161.213 130.3 161.217V161.217Z" fill="black"></path> <path opacity="0.4" d="M119.954 155.15C119.894 155.151 119.836 155.131 119.788 155.095C119.741 155.059 119.706 155.008 119.691 154.95C119.675 154.893 119.679 154.831 119.702 154.776C119.725 154.721 119.765 154.675 119.817 154.645L147.306 138.791C147.368 138.756 147.441 138.746 147.51 138.765C147.544 138.774 147.576 138.79 147.604 138.812C147.632 138.833 147.655 138.86 147.672 138.891C147.69 138.921 147.701 138.955 147.706 138.99C147.71 139.025 147.708 139.06 147.699 139.094C147.69 139.128 147.674 139.16 147.652 139.188C147.631 139.216 147.604 139.24 147.573 139.257L120.073 155.114C120.036 155.134 119.996 155.146 119.954 155.15V155.15Z" fill="black"></path> <path opacity="0.4" d="M124.967 158.256C124.907 158.256 124.849 158.237 124.801 158.2C124.753 158.164 124.719 158.113 124.703 158.056C124.688 157.998 124.692 157.937 124.714 157.881C124.737 157.826 124.778 157.78 124.83 157.75L152.319 141.896C152.38 141.861 152.454 141.852 152.522 141.87C152.557 141.879 152.588 141.895 152.616 141.917C152.644 141.938 152.668 141.965 152.685 141.996C152.703 142.026 152.714 142.06 152.719 142.095C152.723 142.13 152.721 142.166 152.711 142.2C152.702 142.234 152.686 142.266 152.665 142.293C152.643 142.321 152.616 142.345 152.586 142.362L125.086 158.219C125.049 158.239 125.009 158.252 124.967 158.256V158.256Z" fill="black"></path> <path opacity="0.4" d="M131.77 162.069C131.712 162.068 131.656 162.047 131.61 162.011C131.564 161.975 131.531 161.925 131.516 161.868C131.501 161.812 131.505 161.752 131.526 161.698C131.548 161.644 131.587 161.598 131.637 161.567L159.137 145.7C159.167 145.677 159.202 145.662 159.239 145.654C159.276 145.646 159.315 145.646 159.352 145.654C159.389 145.661 159.424 145.677 159.454 145.699C159.485 145.721 159.511 145.75 159.53 145.782C159.549 145.815 159.561 145.852 159.565 145.889C159.569 145.927 159.565 145.965 159.554 146.001C159.542 146.037 159.523 146.07 159.498 146.099C159.473 146.127 159.442 146.15 159.407 146.165L131.907 162.033C131.866 162.057 131.818 162.07 131.77 162.069Z" fill="black"></path> <path opacity="0.4" d="M121.424 156.003C121.366 156.001 121.309 155.981 121.264 155.945C121.218 155.909 121.185 155.858 121.17 155.802C121.155 155.745 121.158 155.686 121.18 155.631C121.202 155.577 121.241 155.531 121.29 155.501L148.79 139.633C148.821 139.611 148.856 139.595 148.893 139.587C148.93 139.579 148.968 139.579 149.005 139.587C149.043 139.595 149.078 139.61 149.108 139.633C149.139 139.655 149.165 139.683 149.184 139.716C149.203 139.749 149.215 139.785 149.219 139.823C149.223 139.861 149.219 139.899 149.208 139.935C149.196 139.971 149.177 140.004 149.152 140.032C149.127 140.061 149.096 140.083 149.061 140.099L121.561 155.967C121.52 155.991 121.472 156.003 121.424 156.003Z" fill="black"></path> <path opacity="0.4" d="M126.437 159.108C126.378 159.107 126.322 159.086 126.276 159.05C126.23 159.014 126.197 158.964 126.182 158.907C126.167 158.851 126.171 158.791 126.193 158.737C126.215 158.682 126.253 158.637 126.303 158.606L153.803 142.738C153.834 142.716 153.869 142.7 153.906 142.693C153.943 142.685 153.981 142.685 154.018 142.692C154.055 142.7 154.09 142.716 154.121 142.738C154.152 142.76 154.177 142.788 154.196 142.821C154.216 142.854 154.227 142.89 154.232 142.928C154.236 142.966 154.232 143.004 154.22 143.04C154.209 143.076 154.19 143.109 154.165 143.138C154.139 143.166 154.108 143.189 154.074 143.204L126.574 159.072C126.532 159.096 126.485 159.109 126.437 159.108Z" fill="black"></path> <path opacity="0.4" d="M133.254 162.914C133.207 162.914 133.161 162.901 133.12 162.877C133.08 162.852 133.046 162.818 133.023 162.777C132.989 162.716 132.98 162.644 132.998 162.577C133.016 162.509 133.06 162.452 133.12 162.416L160.635 146.555C160.697 146.52 160.77 146.51 160.839 146.529C160.907 146.548 160.966 146.593 161.001 146.655C161.037 146.716 161.046 146.79 161.028 146.859C161.009 146.927 160.964 146.986 160.902 147.021L133.402 162.893C133.355 162.912 133.304 162.919 133.254 162.914V162.914Z" fill="black"></path> <path opacity="0.4" d="M122.908 156.848C122.861 156.847 122.815 156.834 122.774 156.81C122.734 156.786 122.7 156.752 122.677 156.711C122.643 156.65 122.634 156.578 122.652 156.51C122.67 156.443 122.714 156.385 122.774 156.35L150.289 140.489C150.35 140.454 150.424 140.444 150.492 140.463C150.561 140.481 150.62 140.527 150.655 140.588C150.691 140.65 150.7 140.723 150.681 140.792C150.663 140.861 150.618 140.919 150.556 140.955L123.056 156.826C123.009 156.846 122.958 156.853 122.908 156.848V156.848Z" fill="black"></path> <path opacity="0.4" d="M127.921 159.953C127.873 159.953 127.827 159.939 127.787 159.915C127.746 159.891 127.713 159.857 127.689 159.816C127.655 159.755 127.646 159.683 127.665 159.616C127.683 159.548 127.727 159.49 127.787 159.455L155.301 143.594C155.363 143.559 155.436 143.549 155.505 143.568C155.574 143.587 155.632 143.632 155.668 143.694C155.703 143.755 155.713 143.829 155.694 143.897C155.675 143.966 155.63 144.025 155.569 144.06L128.069 159.932C128.022 159.951 127.971 159.958 127.921 159.953V159.953Z" fill="black"></path> <path d="M59.3449 65.0054C59.2586 65.0559 59.1809 65.0663 59.1119 65.0367C59.0514 64.992 59.0212 64.9197 59.0212 64.8197V55.0697C59.0212 54.9597 59.0514 54.852 59.1119 54.7467C59.1809 54.6363 59.2586 54.5559 59.3449 54.5054L65.3923 50.97C65.4873 50.9145 65.565 50.9041 65.6254 50.9387C65.6859 50.9734 65.7161 51.0458 65.7161 51.1558V52.5658C65.7161 52.6658 65.6859 52.7734 65.6254 52.8887C65.565 52.9941 65.4873 53.0745 65.3923 53.13L61.2615 55.545V57.57L65.1075 55.3216C65.2024 55.266 65.2801 55.2606 65.3405 55.3053C65.401 55.34 65.4312 55.4123 65.4312 55.5223V56.8273C65.4312 56.9273 65.401 57.035 65.3405 57.1503C65.2801 57.2556 65.2024 57.336 65.1075 57.3916L61.2615 59.64V61.725L65.4959 59.2495C65.5909 59.1939 65.6686 59.1835 65.729 59.2182C65.7895 59.2529 65.8197 59.3252 65.8197 59.4352V60.8452C65.8197 60.9452 65.7895 61.0529 65.729 61.1682C65.6686 61.2735 65.5909 61.3539 65.4959 61.4095L59.3449 65.0054ZM67.6154 60.1704C67.5291 60.2209 67.4514 60.2313 67.3823 60.2017C67.3219 60.157 67.2917 60.0846 67.2917 59.9846V50.2346C67.2917 50.1246 67.3219 50.017 67.3823 49.9117C67.4514 49.8013 67.5291 49.7209 67.6154 49.6704L73.1966 46.4075C73.2916 46.352 73.3693 46.3416 73.4297 46.3763C73.4901 46.4109 73.5203 46.4833 73.5203 46.5933V48.0933C73.5203 48.2033 73.4901 48.3159 73.4297 48.4313C73.3693 48.5366 73.2916 48.617 73.1966 48.6725L69.6226 50.762V58.622C69.6226 58.732 69.588 58.8422 69.519 58.9525C69.4585 59.0579 69.3808 59.1383 69.2859 59.1938L67.6154 60.1704ZM74.9248 55.8972C74.8384 55.9477 74.7607 55.9581 74.6917 55.9285C74.6312 55.8838 74.601 55.8115 74.601 55.7115V45.9615C74.601 45.8515 74.6312 45.7438 74.6917 45.6385C74.7607 45.5281 74.8384 45.4477 74.9248 45.3972L78.5506 43.2775C79.6556 42.6315 80.5232 42.4193 81.1534 42.6408C81.7923 42.8574 82.1117 43.5306 82.1117 44.6606C82.1117 45.7806 81.7966 46.8098 81.1664 47.7483C80.5362 48.6767 79.6643 49.4664 78.5506 50.1175L77.0096 51.0184V54.3034C77.0096 54.4134 76.9751 54.5236 76.906 54.6339C76.8456 54.7393 76.7679 54.8197 76.6729 54.8752L74.9248 55.8972ZM78.4859 48.0853C78.8657 47.8633 79.1635 47.5792 79.3794 47.233C79.5952 46.8768 79.7031 46.4787 79.7031 46.0387C79.7031 45.6287 79.5995 45.3643 79.3923 45.2454C79.1938 45.1115 78.8916 45.1631 78.4859 45.4003L76.9708 46.2861V48.9711L78.4859 48.0853ZM83.6758 50.7813C83.5808 50.8368 83.5031 50.8472 83.4427 50.8125C83.3822 50.7778 83.352 50.7055 83.352 50.5955V40.8455C83.352 40.7355 83.3822 40.6278 83.4427 40.5225C83.5117 40.4121 83.5894 40.3317 83.6758 40.2813L85.3462 39.3047C85.4412 39.2491 85.5189 39.2387 85.5793 39.2734C85.6484 39.303 85.6829 39.3728 85.6829 39.4828V43.0978L88.8685 41.2355V37.6205C88.8685 37.5105 88.8987 37.4028 88.9591 37.2975C89.0196 37.1922 89.0973 37.1118 89.1922 37.0562L90.8627 36.0797C90.9577 36.0241 91.0354 36.0137 91.0958 36.0484C91.1562 36.0831 91.1864 36.1554 91.1864 36.2654V46.0154C91.1864 46.1254 91.1562 46.2331 91.0958 46.3384C91.0354 46.4437 90.9577 46.5241 90.8627 46.5797L89.1922 47.5562C89.0973 47.6118 89.0196 47.6222 88.9591 47.5875C88.8987 47.5528 88.8685 47.4805 88.8685 47.3705V43.6355L85.6829 45.4978V49.2328C85.6829 49.3428 85.6484 49.453 85.5793 49.5634C85.5189 49.6687 85.4412 49.7491 85.3462 49.8047L83.6758 50.7813Z" fill="white"></path> </svg> 