<?xml version="1.0" encoding="UTF-8"?> <svg xmlns="http://www.w3.org/2000/svg" width="101" height="101" viewBox="0 0 101 101" fill="none"> <path d="M74.7362 6.56394C98.7371 20.2222 107.123 50.7533 93.466 74.757C79.8094 98.7607 49.282 107.147 25.2811 93.489C1.28022 79.8308 -7.10544 49.2997 6.55121 25.296C20.2079 1.29235 50.7353 -7.09432 74.7362 6.56394Z" fill="white"></path> <path d="M32.1591 53.9571C32.3751 54.0531 32.6271 54.1131 32.9271 54.1131C33.6951 54.1131 34.2711 53.8011 34.8711 52.4451L37.8711 45.6171H36.7431L34.4271 51.0051L31.7151 45.6171H30.4431L33.8511 52.3251C33.5871 52.9371 33.1791 53.0931 32.8551 53.0931C32.5551 53.0931 32.3391 52.9971 32.1591 52.8771V53.9571ZM43.0102 47.8611C42.6382 47.6691 42.1822 47.5371 41.4022 47.5371C39.3382 47.5371 38.2942 48.5451 38.2942 50.7171C38.2942 53.2731 39.4462 54.1491 41.3662 54.1491C42.2182 54.1491 42.8782 53.9811 43.2142 53.7171V52.6371C42.7942 52.9851 42.1582 53.1891 41.5102 53.1891C40.1182 53.1891 39.3262 52.5891 39.3262 50.8011C39.3262 49.0251 40.1062 48.4851 41.2702 48.4851C41.9782 48.4851 42.6262 48.7131 43.0102 48.9891V47.8611ZM44.403 54.0891C44.583 54.1491 44.691 54.1491 44.883 54.1491C45.831 54.1491 46.671 53.5131 46.815 49.0011L46.827 48.6171H49.155V54.0171H50.151V47.6571H45.927L45.903 48.4851C45.783 52.7691 45.219 52.9491 44.715 52.9491C44.595 52.9491 44.511 52.9371 44.403 52.9011V54.0891ZM53.1683 55.3131C52.9763 55.3131 52.7843 55.2651 52.6163 55.1691V56.1651C52.7483 56.2371 52.9283 56.2611 53.1803 56.2611C53.7923 56.2611 54.4283 56.1651 55.2683 53.8011L57.4643 47.6571H56.3963L54.7763 52.7331L52.8323 47.6571H51.6803L54.2603 54.0411C53.8763 55.1691 53.6243 55.3131 53.1683 55.3131ZM58.859 54.0171H59.855V48.5931H62.879V47.6571H58.859V54.0171ZM64.3903 54.0171H65.2783L67.7503 50.4891C68.1103 50.0091 68.4823 49.3971 68.6863 49.0251L68.7223 49.0371C68.6863 49.4811 68.6503 50.5251 68.6503 51.4491V54.0171H69.6463V47.6571H68.7703L66.3583 51.1491C66.0103 51.6291 65.6623 52.1091 65.3623 52.6251L65.3143 52.6011C65.3503 52.2891 65.3863 51.4971 65.3863 50.7531V47.6571H64.3903V54.0171Z" fill="#737688"></path> </svg> 