<?xml version="1.0" encoding="UTF-8"?> <svg xmlns="http://www.w3.org/2000/svg" width="210" height="168" viewBox="0 0 210 168" fill="none"> <rect width="210" height="168" fill="white"></rect> <path d="M103 167.308C154.086 167.308 195.5 143.734 195.5 114.654C195.5 85.5739 154.086 61.9999 103 61.9999C51.9137 61.9999 10.5 85.5739 10.5 114.654C10.5 143.734 51.9137 167.308 103 167.308Z" fill="#E7E9F8"></path> <path d="M117.787 147.816L133.119 138.951C134.701 138.037 135.49 136.845 135.49 135.648C135.49 134.452 135.499 133.515 135.499 133.515L121.068 125.327C120.227 124.841 119.542 123.658 119.542 122.683V103.778L92.7573 119.254V138.158C92.7573 139.133 93.4422 140.317 94.2832 140.802L106.338 147.82C109.498 149.641 114.627 149.641 117.787 147.816Z" fill="#353747"></path> <path d="M99.1902 141.501V143.625L94.2832 140.794C93.4466 140.309 92.7573 139.129 92.7573 138.15V119.246L97.8594 116.302C97.9635 117.598 98.0805 118.938 98.1845 120.243L94.6083 122.315V137.083C94.6083 138.063 95.2889 139.242 96.1342 139.728L99.1902 141.501Z" fill="#263238"></path> <path d="M94.6083 137.092C94.6083 138.067 95.2932 139.25 96.1342 139.736L106.338 145.683C109.498 147.508 114.627 147.508 117.787 145.683L133.128 136.819C136.288 134.994 136.288 132.037 133.128 130.212L122.915 124.261C122.074 123.775 121.389 122.592 121.389 121.616V106.843L94.604 122.319V137.092H94.6083Z" fill="#737688"></path> <path opacity="0.15" d="M126.027 126.055L122.919 124.256C122.074 123.771 121.393 122.587 121.393 121.612V106.839L94.6084 122.314V137.087C94.6084 138.063 95.2933 139.246 96.1343 139.732L99.1903 141.496L126.027 126.055Z" fill="#6BEAC7"></path> <path d="M135.494 133.512C135.494 133.512 135.494 134.444 135.494 135.644C135.494 136.841 134.701 138.033 133.123 138.948L117.787 147.808C116.269 148.688 114.306 149.13 112.325 149.165V147.041C114.306 147.015 116.274 146.555 117.787 145.684L133.123 136.815C134.701 135.909 135.494 134.712 135.494 133.512Z" fill="#353747"></path> <path d="M51.6023 157.487C52.5906 158.059 54.2465 158.028 55.2999 157.417C68.4691 149.814 145.716 105.217 158.881 97.6183C159.934 97.0114 160.788 95.5289 160.788 94.3152V3.648C160.788 2.42991 159.986 0.982083 158.998 0.409886C158.009 -0.16231 156.353 -0.131967 155.3 0.479243L51.7193 60.2825C50.666 60.8894 49.812 62.3719 49.812 63.5856V154.248C49.812 155.467 50.614 156.914 51.6023 157.487Z" fill="#737688"></path> <path d="M55.2999 157.413L158.881 97.6138C159.934 97.0069 160.788 95.5244 160.788 94.3106V3.6478C160.788 2.42971 159.934 1.93988 158.881 2.54675L55.2999 62.3456C54.2465 62.9525 53.3926 64.435 53.3926 65.6488V156.312C53.3926 157.53 54.2465 158.024 55.2999 157.413Z" fill="#353747"></path> <path d="M56.9731 144.335V66.837C56.9731 66.1087 57.4847 65.2201 58.1175 64.8559L156.063 8.30816C156.696 7.94404 157.207 8.23881 157.207 8.96706L157.212 86.465C157.212 87.1933 156.7 88.0819 156.067 88.4461L58.1175 144.998C57.4847 145.362 56.9731 145.068 56.9731 144.335Z" fill="#6BEAC7"></path> <path opacity="0.7" d="M56.9731 144.335V66.837C56.9731 66.1087 57.4847 65.2201 58.1175 64.8559L156.063 8.30816C156.696 7.94404 157.207 8.23881 157.207 8.96706L157.212 86.465C157.212 87.1933 156.7 88.0819 156.067 88.4461L58.1175 144.998C57.4847 145.362 56.9731 145.068 56.9731 144.335Z" fill="white"></path> <path d="M106.893 123.844C106.685 123.844 106.49 123.797 106.321 123.697C105.913 123.463 105.688 122.982 105.688 122.349C105.688 121.118 106.52 119.674 107.587 119.059C108.137 118.742 108.662 118.699 109.069 118.933C109.477 119.167 109.702 119.648 109.702 120.281C109.702 121.512 108.87 122.956 107.803 123.571C107.487 123.753 107.179 123.844 106.893 123.844ZM108.493 119.219C108.285 119.219 108.05 119.293 107.803 119.436C106.876 119.969 106.121 121.278 106.121 122.349C106.121 122.821 106.269 123.164 106.538 123.32C106.806 123.476 107.179 123.428 107.587 123.194C108.514 122.657 109.269 121.352 109.269 120.281C109.269 119.809 109.121 119.466 108.852 119.31C108.748 119.249 108.627 119.219 108.493 119.219Z" fill="#6BEAC7"></path> <path d="M174.221 22.8905L73.3457 81.0638V155.41C73.3457 156.399 74.4164 157.023 75.2747 156.529L77.0737 155.493L172.34 100.562C173.376 99.9636 174.221 98.5071 174.221 97.3064V22.8905Z" fill="#F5F6FF"></path> <path d="M173.788 23.6404V97.3021C173.788 98.3424 173.025 99.6602 172.123 100.185L76.8569 155.116L75.058 156.152C74.9236 156.23 74.7849 156.269 74.6375 156.269C74.4207 156.269 74.1997 156.182 74.0393 156.026C73.8702 155.866 73.7792 155.649 73.7792 155.41V81.3109L173.788 23.6404ZM174.221 22.8905L73.3457 81.0638V155.41C73.3457 156.16 73.9612 156.702 74.6375 156.702C74.8499 156.702 75.071 156.646 75.2747 156.529L77.0737 155.493L172.34 100.562C173.376 99.9636 174.221 98.5071 174.221 97.3064V22.8905Z" fill="#E7E9F8"></path> <path opacity="0.8" d="M171.829 21.5121L70.9443 79.6768L73.3458 81.0639L174.222 22.8906L171.829 21.5121Z" fill="#737688"></path> <path d="M74.0221 156.546C74.0221 156.546 73.3458 156.216 73.3458 155.41V83.2047C73.3458 82.6108 73.3458 81.0633 73.3458 81.0633L70.9487 79.6805L70.9443 153.615C70.9443 153.706 70.9487 153.797 70.9617 153.888C71.0484 154.5 71.4082 155.041 71.9413 155.345L73.9224 156.489L74.0221 156.546Z" fill="#E7E9F8"></path> <path d="M70.9443 79.7113V74.6959C70.9443 74.0977 71.3648 73.3695 71.8807 73.066L170.892 15.9851C171.408 15.6816 172.249 15.6816 172.765 15.9807L173.281 16.2798C173.801 16.5789 174.222 17.3072 174.222 17.9054V22.9295L73.3458 81.0941L70.9443 79.7113Z" fill="#6BEAC7"></path> <path d="M70.9443 79.7113V74.6959C70.9443 74.0977 71.3648 73.3695 71.8807 73.066L170.892 15.9851C171.408 15.6816 172.249 15.6816 172.765 15.9807L173.281 16.2798C173.801 16.5789 174.222 17.3072 174.222 17.9054V22.9295L73.3458 81.0941L70.9443 79.7113Z" fill="#6BEAC7"></path> <path d="M73.3457 76.0786C73.3457 75.4804 73.7662 74.7521 74.282 74.4487L173.285 17.3677C173.801 17.0643 174.221 17.307 174.221 17.9052V22.9293L73.3457 81.094V76.0786Z" fill="#6BEAC7"></path> <path d="M73.3457 76.0786C73.3457 75.4804 73.7662 74.7521 74.282 74.4487L173.285 17.3677C173.801 17.0643 174.221 17.307 174.221 17.9052V22.9293L73.3457 81.094V76.0786Z" fill="#24E0AC"></path> <path d="M73.619 75.1514C73.4499 75.4462 73.3459 75.7799 73.3459 76.079V81.0944L70.9487 79.7116V74.6919C70.9487 74.3928 71.0528 74.0634 71.2218 73.7686L73.619 75.1514Z" fill="#6BEAC7"></path> <path opacity="0.5" d="M73.619 75.1514C73.4499 75.4462 73.3459 75.7799 73.3459 76.079V81.0944L70.9487 79.7116V74.6919C70.9487 74.3928 71.0528 74.0634 71.2218 73.7686L73.619 75.1514Z" fill="#6BEAC7"></path> <path d="M169.817 22.7028C169.817 23.2663 170.211 23.4917 170.697 23.21C171.182 22.9282 171.577 22.2476 171.577 21.6841C171.577 21.1206 171.182 20.8952 170.697 21.1769C170.211 21.4587 169.817 22.1393 169.817 22.7028Z" fill="white"></path> <path d="M166.297 24.7353C166.297 25.2989 166.692 25.5243 167.177 25.2425C167.663 24.9608 168.057 24.2802 168.057 23.7167C168.057 23.1531 167.663 22.9277 167.177 23.2095C166.692 23.4913 166.297 24.1718 166.297 24.7353Z" fill="white"></path> <path d="M162.773 26.769C162.773 27.3325 163.167 27.5579 163.653 27.2762C164.138 26.9944 164.533 26.3138 164.533 25.7503C164.533 25.1868 164.138 24.9614 163.653 25.2431C163.167 25.5249 162.773 26.2055 162.773 26.769Z" fill="white"></path> <path d="M73.3457 81.098V155.414C73.3457 156.403 74.4164 157.027 75.2747 156.533L77.0736 155.497L99.1162 142.787V66.2339L73.3457 81.098Z" fill="white"></path> <path d="M100.876 67.4909V139.67L172.106 98.5456V26.3665L100.876 67.4909Z" fill="white"></path> <path d="M93.2166 74.957L76.7746 84.459C76.4712 84.6367 76.2241 85.0615 76.2241 85.4126V87.1249C76.2241 87.476 76.4712 87.619 76.7746 87.4413L93.2166 77.9394C93.5201 77.7616 93.7672 77.3368 93.7672 76.9857V75.2735C93.7672 74.9267 93.5201 74.7836 93.2166 74.957Z" fill="#6BEAC7"></path> <path opacity="0.8" d="M93.2166 74.957L76.7746 84.459C76.4712 84.6367 76.2241 85.0615 76.2241 85.4126V87.1249C76.2241 87.476 76.4712 87.619 76.7746 87.4413L93.2166 77.9394C93.5201 77.7616 93.7672 77.3368 93.7672 76.9857V75.2735C93.7672 74.9267 93.5201 74.7836 93.2166 74.957Z" fill="white"></path> <path d="M96.8751 75.6373L96.3896 75.1691C96.485 74.9264 96.5457 74.6576 96.5457 74.3932C96.5457 73.9987 96.4156 73.6953 96.1816 73.5609C96.0082 73.4612 95.7958 73.4699 95.592 73.5869C95.1672 73.834 94.8291 74.5232 94.8291 75.1604C94.8291 75.5549 94.9591 75.8583 95.1932 75.9927C95.2756 76.0404 95.3623 76.0621 95.4533 76.0621C95.5617 76.0621 95.6744 76.0317 95.7828 75.9667C95.9431 75.8757 96.0905 75.7196 96.2119 75.5246L96.6107 75.906C96.6454 75.9407 96.6931 75.958 96.7408 75.958C96.7928 75.958 96.8404 75.9364 96.8795 75.9017C96.9575 75.8323 96.9532 75.711 96.8751 75.6373ZM95.5964 75.6416C95.514 75.6893 95.4403 75.6979 95.3883 75.6676C95.3103 75.6199 95.2149 75.4639 95.2149 75.1648C95.2149 74.6706 95.475 74.0984 95.7871 73.9207C95.8391 73.8903 95.8825 73.8773 95.9258 73.8773C95.9518 73.8773 95.9735 73.8817 95.9952 73.8947C96.0732 73.9423 96.1686 74.0984 96.1686 74.3975C96.1642 74.8917 95.9041 75.4595 95.5964 75.6416Z" fill="#737688"></path> <path d="M76.6272 92.4639L76.2587 92.6763C76.2371 92.6893 76.2197 92.6763 76.2197 92.646V91.649C76.2197 91.6186 76.2371 91.5883 76.2587 91.5753L76.6272 91.3629C76.6489 91.3499 76.6662 91.3629 76.6662 91.3932V92.3902C76.6662 92.4162 76.6489 92.4509 76.6272 92.4639Z" fill="#737688"></path> <path d="M77.1775 92.1432L76.809 92.3556C76.7874 92.3687 76.77 92.3557 76.77 92.3253V91.3283C76.77 91.2979 76.7874 91.2676 76.809 91.2546L77.1775 91.0422C77.1992 91.0292 77.2165 91.0422 77.2165 91.0725V92.0696C77.2165 92.0956 77.1992 92.1302 77.1775 92.1432Z" fill="#737688"></path> <path d="M77.7327 91.8269L77.3642 92.0393C77.3425 92.0523 77.3252 92.0393 77.3252 92.009V91.012C77.3252 90.9816 77.3425 90.9513 77.3642 90.9383L77.7327 90.7259C77.7543 90.7129 77.7717 90.7259 77.7717 90.7562V91.7532C77.7717 91.7792 77.7543 91.8139 77.7327 91.8269Z" fill="#737688"></path> <path d="M76.6272 93.7522L76.2587 93.9646C76.2371 93.9776 76.2197 93.9646 76.2197 93.9343V92.9373C76.2197 92.9069 76.2371 92.8766 76.2587 92.8636L76.6272 92.6512C76.6489 92.6382 76.6662 92.6512 76.6662 92.6815V93.6785C76.6662 93.7045 76.6489 93.7392 76.6272 93.7522Z" fill="#737688"></path> <path d="M77.1775 93.4315L76.809 93.6439C76.7874 93.6569 76.77 93.6439 76.77 93.6136V92.6166C76.77 92.5862 76.7874 92.5559 76.809 92.5429L77.1775 92.3305C77.1992 92.3175 77.2165 92.3305 77.2165 92.3608V93.3578C77.2165 93.3838 77.1992 93.4185 77.1775 93.4315Z" fill="#737688"></path> <path d="M77.7327 93.1108L77.3642 93.3232C77.3425 93.3362 77.3252 93.3232 77.3252 93.2929V92.2959C77.3252 92.2655 77.3425 92.2352 77.3642 92.2222L77.7327 92.0098C77.7543 91.9968 77.7717 92.0098 77.7717 92.0401V93.0371C77.7717 93.0675 77.7543 93.1021 77.7327 93.1108Z" fill="#737688"></path> <path d="M76.6835 97.1507L76.2283 96.8733C76.211 96.8646 76.211 96.8213 76.2283 96.7909L76.6835 95.989C76.7052 95.9499 76.7355 95.9543 76.7355 95.9976V97.077C76.7398 97.1247 76.7052 97.1637 76.6835 97.1507Z" fill="#737688"></path> <path d="M76.4929 96.5403L77.0911 96.1935V96.4796L76.4929 96.8264C76.4409 96.8567 76.4019 96.8177 76.4019 96.7397C76.4019 96.6573 76.4452 96.5706 76.4929 96.5403Z" fill="#737688"></path> <path d="M77.2036 96.1321L77.4073 96.0151V96.2968L77.2036 96.4139V96.1321Z" fill="#737688"></path> <path d="M77.9579 95.8373V96.882C77.9579 96.96 77.9145 97.0467 77.8669 97.0771C77.8148 97.1074 77.7758 97.0684 77.7758 96.9904V96.0887L77.5244 96.2361V95.95L77.8712 95.7506C77.9145 95.7203 77.9579 95.7593 77.9579 95.8373Z" fill="#737688"></path> <path d="M76.861 99.4954C76.4361 99.7858 76.15 100.592 76.2324 101.186C76.3061 101.732 76.6312 101.71 76.6659 101.962C76.6702 101.988 76.6876 102.001 76.7092 101.988L77.1124 101.758C77.134 101.745 77.1514 101.715 77.1557 101.684C77.1991 101.351 77.6109 100.948 77.6152 100.141C77.6109 99.517 77.2684 99.2136 76.861 99.4954Z" fill="#737688"></path> <path d="M77.1038 102.408L76.7137 102.633C76.6877 102.651 76.666 102.633 76.666 102.599V102.239C76.666 102.204 76.6877 102.161 76.7137 102.148L77.1038 101.922C77.1298 101.905 77.1515 101.922 77.1515 101.957V102.317C77.1515 102.351 77.1298 102.39 77.1038 102.408Z" fill="#737688"></path> <path d="M76.9567 91.0601C76.597 91.3549 76.3065 91.9704 76.2502 92.5556C76.2155 92.8981 76.2588 93.1755 76.3542 93.3749L76.2242 94.0555C76.2155 94.1118 76.2458 94.1422 76.2762 94.1075L76.6706 93.6783C76.8354 93.7303 77.0304 93.6827 77.2428 93.5093C77.6026 93.2102 77.8931 92.599 77.9494 92.0094C78.0361 91.0601 77.5419 90.5789 76.9567 91.0601ZM77.0955 93.2969C76.7357 93.5049 76.4409 93.2232 76.4409 92.664C76.4409 92.1091 76.7357 91.4849 77.0955 91.2768C77.4552 91.0688 77.75 91.3505 77.75 91.9097C77.7544 92.4646 77.4596 93.0888 77.0955 93.2969Z" fill="#737688"></path> <path d="M76.9567 104.216C76.597 104.511 76.3065 105.126 76.2502 105.712C76.2155 106.054 76.2588 106.332 76.3542 106.531L76.2242 107.212C76.2155 107.268 76.2458 107.298 76.2762 107.264L76.6706 106.834C76.8354 106.886 77.0304 106.839 77.2428 106.665C77.6026 106.366 77.8931 105.755 77.9494 105.165C78.0361 104.216 77.5419 103.735 76.9567 104.216ZM77.0955 106.453C76.7357 106.661 76.4409 106.379 76.4409 105.82C76.4409 105.265 76.7357 104.641 77.0955 104.433C77.4552 104.225 77.75 104.507 77.75 105.066C77.7544 105.621 77.4596 106.245 77.0955 106.453Z" fill="#737688"></path> <path d="M77.5114 109.036C77.5114 109.331 77.3554 109.66 77.1647 109.768C76.9739 109.877 76.8179 109.729 76.8179 109.435C76.8179 109.14 76.9739 108.81 77.1647 108.702C77.3554 108.594 77.5114 108.741 77.5114 109.036Z" fill="#737688"></path> <path d="M78.1055 109.14C78.1055 109.335 78.0015 109.556 77.8757 109.629C77.75 109.703 77.646 109.603 77.646 109.408C77.646 109.213 77.75 108.992 77.8757 108.919C78.0015 108.845 78.1055 108.945 78.1055 109.14Z" fill="#737688"></path> <path d="M77.5722 111.139L76.7529 111.611V110.575C76.7529 110.358 76.8873 110.103 77.0477 110.012L77.2731 109.881C77.4378 109.786 77.5679 109.886 77.5679 110.107V111.139H77.5722Z" fill="#737688"></path> <path d="M77.9105 109.751L77.6851 109.881V111.073L78.1099 110.826V109.899C78.1099 109.751 78.0188 109.686 77.9105 109.751Z" fill="#737688"></path> <path d="M76.2241 110.228C76.2241 110.423 76.3282 110.523 76.4539 110.449C76.5796 110.376 76.6836 110.159 76.6836 109.959C76.6836 109.764 76.5796 109.665 76.4539 109.738C76.3282 109.812 76.2241 110.033 76.2241 110.228Z" fill="#737688"></path> <path d="M76.4191 110.609L76.6445 110.479V111.671L76.2197 111.918V110.991C76.2197 110.843 76.3064 110.674 76.4191 110.609Z" fill="#737688"></path> <path d="M80.2162 90.1233L89.8438 84.5661C90.1039 84.4143 90.312 84.5227 90.312 84.8045C90.312 85.0862 90.1039 85.433 89.8438 85.5847L80.2162 91.142C79.9561 91.2937 79.748 91.1853 79.748 90.9036C79.748 90.6218 79.9561 90.275 80.2162 90.1233Z" fill="#E7E9F8"></path> <path d="M80.2162 94.6536L89.8438 89.0964C90.1039 88.9447 90.312 89.053 90.312 89.3348C90.312 89.6166 90.1039 89.9634 89.8438 90.1151L80.2162 95.6723C79.9561 95.824 79.748 95.7157 79.748 95.4339C79.748 95.1522 79.9561 94.8054 80.2162 94.6536Z" fill="#E7E9F8"></path> <path d="M80.2162 99.1883L89.8438 93.6311C90.1039 93.4793 90.312 93.5877 90.312 93.8695C90.312 94.1512 90.1039 94.498 89.8438 94.6498L80.2162 100.207C79.9561 100.359 79.748 100.25 79.748 99.9686C79.748 99.6868 79.9561 99.3357 80.2162 99.1883Z" fill="#E7E9F8"></path> <path d="M80.2162 103.718L89.8438 98.1603C90.1039 98.0085 90.312 98.1169 90.312 98.3987C90.312 98.6804 90.1039 99.0272 89.8438 99.1789L80.2162 104.736C79.9561 104.888 79.748 104.78 79.748 104.498C79.748 104.216 79.9561 103.865 80.2162 103.718Z" fill="#E7E9F8"></path> <path d="M80.2162 108.248L89.8438 102.691C90.1039 102.539 90.312 102.647 90.312 102.929C90.312 103.211 90.1039 103.558 89.8438 103.709L80.2162 109.266C79.9561 109.418 79.748 109.31 79.748 109.028C79.748 108.746 79.9561 108.4 80.2162 108.248Z" fill="#E7E9F8"></path> <path d="M81.976 111.949L91.6036 106.392C91.8637 106.241 92.0718 106.349 92.0718 106.631C92.0718 106.912 91.8637 107.259 91.6036 107.411L81.976 112.968C81.7159 113.12 81.5078 113.012 81.5078 112.73C81.5078 112.448 81.7159 112.097 81.976 111.949Z" fill="#737688"></path> <path d="M81.976 115.01L91.6036 109.453C91.8637 109.301 92.0718 109.409 92.0718 109.691C92.0718 109.973 91.8637 110.32 91.6036 110.471L81.976 116.029C81.7159 116.18 81.5078 116.072 81.5078 115.79C81.5078 115.508 81.7159 115.157 81.976 115.01Z" fill="#E7E9F8"></path> <path d="M81.976 118.07L91.6036 112.513C91.8637 112.361 92.0718 112.47 92.0718 112.751C92.0718 113.033 91.8637 113.38 91.6036 113.532L81.976 119.089C81.7159 119.241 81.5078 119.132 81.5078 118.85C81.5078 118.569 81.7159 118.218 81.976 118.07Z" fill="#E7E9F8"></path> <path d="M83.8485 120.016L93.4762 114.459C93.7363 114.307 93.9443 114.416 93.9443 114.697C93.9443 114.979 93.7363 115.326 93.4762 115.478L83.8485 121.035C83.5884 121.187 83.3804 121.078 83.3804 120.796C83.3804 120.515 83.5928 120.164 83.8485 120.016Z" fill="#E7E9F8"></path> <path d="M81.5988 122.648L82.3791 121.269C82.4095 121.217 82.4095 121.148 82.3791 121.131L81.5988 120.654C81.5598 120.632 81.5078 120.706 81.5078 120.775V122.631C81.5078 122.704 81.5642 122.717 81.5988 122.648Z" fill="#737688"></path> <path d="M83.8485 123.065L93.4762 117.507C93.7363 117.356 93.9443 117.464 93.9443 117.746C93.9443 118.027 93.7363 118.374 93.4762 118.526L83.8485 124.083C83.5884 124.235 83.3804 124.127 83.3804 123.845C83.3804 123.563 83.5928 123.216 83.8485 123.065Z" fill="#E7E9F8"></path> <path d="M81.5988 125.7L82.3791 124.322C82.4095 124.27 82.4095 124.201 82.3791 124.183L81.5988 123.706C81.5598 123.685 81.5078 123.758 81.5078 123.828V125.683C81.5078 125.757 81.5642 125.766 81.5988 125.7Z" fill="#737688"></path> <path d="M83.8485 126.116L93.4762 120.559C93.7363 120.407 93.9443 120.516 93.9443 120.797C93.9443 121.079 93.7363 121.426 93.4762 121.578L83.8485 127.135C83.5884 127.286 83.3804 127.178 83.3804 126.896C83.3804 126.615 83.5928 126.268 83.8485 126.116Z" fill="#E7E9F8"></path> <path d="M81.5988 128.752L82.3791 127.374C82.4095 127.322 82.4095 127.252 82.3791 127.235L81.5988 126.758C81.5598 126.736 81.5078 126.81 81.5078 126.879V128.735C81.5078 128.808 81.5642 128.817 81.5988 128.752Z" fill="#737688"></path> <path d="M83.8485 129.168L93.4762 123.61C93.7363 123.459 93.9443 123.567 93.9443 123.849C93.9443 124.131 93.7363 124.477 93.4762 124.629L83.8485 130.186C83.5884 130.338 83.3804 130.23 83.3804 129.948C83.3804 129.666 83.5928 129.315 83.8485 129.168Z" fill="#E7E9F8"></path> <path d="M81.5988 131.798L82.3791 130.42C82.4095 130.368 82.4095 130.298 82.3791 130.281L81.5988 129.804C81.5598 129.782 81.5078 129.856 81.5078 129.926V131.781C81.5078 131.854 81.5642 131.867 81.5988 131.798Z" fill="#737688"></path> <path d="M83.8485 132.215L93.4762 126.658C93.7363 126.506 93.9443 126.614 93.9443 126.896C93.9443 127.178 93.7363 127.525 93.4762 127.676L83.8485 133.234C83.5884 133.385 83.3804 133.277 83.3804 132.995C83.3804 132.713 83.5928 132.367 83.8485 132.215Z" fill="#E7E9F8"></path> <path d="M81.5988 134.851L82.3791 133.472C82.4095 133.42 82.4095 133.351 82.3791 133.334L81.5988 132.857C81.5598 132.835 81.5078 132.909 81.5078 132.978V134.833C81.5078 134.907 81.5642 134.916 81.5988 134.851Z" fill="#737688"></path> <path d="M83.8485 135.266L93.4762 129.709C93.7363 129.557 93.9443 129.666 93.9443 129.948C93.9443 130.229 93.7363 130.576 93.4762 130.728L83.8485 136.285C83.5884 136.437 83.3804 136.328 83.3804 136.047C83.3804 135.765 83.5928 135.418 83.8485 135.266Z" fill="#E7E9F8"></path> <path d="M81.5988 137.902L82.3791 136.524C82.4095 136.472 82.4095 136.403 82.3791 136.385L81.5988 135.908C81.5598 135.887 81.5078 135.96 81.5078 136.03V137.885C81.5078 137.959 81.5642 137.967 81.5988 137.902Z" fill="#737688"></path> <path d="M83.8485 138.318L93.4762 132.761C93.7363 132.609 93.9443 132.717 93.9443 132.999C93.9443 133.281 93.7363 133.628 93.4762 133.779L83.8485 139.337C83.5884 139.488 83.3804 139.38 83.3804 139.098C83.3804 138.816 83.5928 138.465 83.8485 138.318Z" fill="#E7E9F8"></path> <path d="M81.5988 140.95L82.3791 139.571C82.4095 139.519 82.4095 139.45 82.3791 139.432L81.5988 138.956C81.5598 138.934 81.5078 139.008 81.5078 139.077V140.932C81.5078 141.006 81.5642 141.019 81.5988 140.95Z" fill="#737688"></path> <path d="M83.8485 141.365L93.4762 135.808C93.7363 135.656 93.9443 135.765 93.9443 136.046C93.9443 136.328 93.7363 136.675 93.4762 136.827L83.8485 142.384C83.5884 142.536 83.3804 142.427 83.3804 142.145C83.3804 141.864 83.5928 141.517 83.8485 141.365Z" fill="#E7E9F8"></path> <path d="M81.5988 144.001L82.3791 142.623C82.4095 142.571 82.4095 142.501 82.3791 142.484L81.5988 142.007C81.5598 141.985 81.5078 142.059 81.5078 142.128V143.984C81.5078 144.057 81.5642 144.066 81.5988 144.001Z" fill="#737688"></path> <path d="M103.109 77.3869L134.749 59.1199C135.009 58.9682 135.217 58.6084 135.217 58.305V50.2379C135.217 49.9388 135.009 49.8174 134.749 49.9648L103.109 68.2274C102.849 68.3791 102.641 68.7389 102.641 69.038V77.1095C102.636 77.4172 102.849 77.5386 103.109 77.3869Z" fill="#F5F6FF"></path> <path d="M105.866 71.6955C105.866 71.6912 105.866 71.6869 105.87 71.6782L106.078 70.8112L105.792 70.976C105.783 70.9803 105.779 70.9803 105.775 70.976C105.77 70.9716 105.766 70.963 105.766 70.95V70.7939C105.766 70.7809 105.77 70.7722 105.775 70.7592C105.779 70.7462 105.788 70.7419 105.792 70.7375L106.252 70.4731C106.26 70.4688 106.265 70.4688 106.269 70.4731C106.273 70.4775 106.278 70.4861 106.278 70.4991V70.6378C106.278 70.6552 106.273 70.6812 106.26 70.7202L106.052 71.5872C106.048 71.5958 106.048 71.6088 106.044 71.6175C106.039 71.6262 106.035 71.6349 106.026 71.6392L105.892 71.7172C105.887 71.7216 105.879 71.7216 105.874 71.7172C105.87 71.7129 105.866 71.7042 105.866 71.6955Z" fill="#737688"></path> <path d="M106.633 70.2385C106.681 70.2125 106.724 70.1995 106.759 70.1995C106.794 70.1995 106.824 70.2125 106.846 70.2385C106.867 70.2602 106.885 70.2949 106.898 70.3382C106.911 70.3816 106.915 70.4293 106.915 70.4813C106.915 70.5246 106.915 70.568 106.915 70.6157C106.915 70.6634 106.915 70.7067 106.915 70.7457C106.915 70.8021 106.906 70.8541 106.898 70.9104C106.885 70.9668 106.867 71.0188 106.846 71.0665C106.824 71.1142 106.794 71.1619 106.759 71.2052C106.724 71.2486 106.681 71.2832 106.633 71.3093C106.586 71.3353 106.542 71.3483 106.508 71.3483C106.473 71.3483 106.443 71.3353 106.421 71.3093C106.399 71.2876 106.382 71.2529 106.369 71.2095C106.356 71.1662 106.352 71.1185 106.347 71.0665C106.347 71.0275 106.347 70.9841 106.347 70.9365C106.347 70.8888 106.347 70.8454 106.347 70.8021C106.347 70.7457 106.356 70.6937 106.369 70.6373C106.382 70.581 106.395 70.529 106.421 70.4813C106.443 70.4293 106.473 70.3859 106.508 70.3426C106.547 70.2992 106.586 70.2646 106.633 70.2385ZM106.737 70.8367C106.742 70.7501 106.742 70.6677 106.737 70.5897C106.737 70.5637 106.733 70.5463 106.729 70.5246C106.724 70.5073 106.72 70.49 106.711 70.4813C106.703 70.4726 106.694 70.4639 106.681 70.4639C106.668 70.4639 106.651 70.4683 106.633 70.477C106.616 70.49 106.599 70.503 106.586 70.516C106.573 70.5333 106.564 70.5506 106.555 70.568C106.547 70.5897 106.542 70.607 106.538 70.633C106.534 70.6547 106.534 70.6807 106.534 70.7067C106.529 70.7891 106.529 70.8714 106.534 70.9538C106.534 70.9798 106.538 71.0015 106.538 71.0188C106.542 71.0361 106.547 71.0535 106.555 71.0622C106.564 71.0708 106.573 71.0795 106.586 71.0795C106.599 71.0795 106.616 71.0752 106.633 71.0665C106.651 71.0535 106.668 71.0405 106.681 71.0275C106.694 71.0101 106.703 70.9928 106.711 70.9711C106.72 70.9495 106.724 70.9278 106.729 70.9061C106.733 70.8844 106.737 70.8584 106.737 70.8367Z" fill="#737688"></path> <path d="M107.301 70.0695C107.301 70.1086 107.301 70.1476 107.301 70.1822C107.301 70.2126 107.296 70.2429 107.288 70.2689C107.283 70.2993 107.27 70.3253 107.261 70.3513C107.248 70.3773 107.231 70.4033 107.214 70.425C107.196 70.4467 107.175 70.464 107.149 70.477C107.123 70.49 107.101 70.4987 107.084 70.4987C107.066 70.4987 107.049 70.49 107.036 70.4814C107.023 70.4683 107.014 70.451 107.01 70.4293C107.001 70.4077 107.001 70.3816 106.997 70.3556C106.997 70.3383 106.997 70.3166 106.997 70.2993C106.997 70.282 106.997 70.2646 106.997 70.2429C106.997 70.2126 107.001 70.1822 107.01 70.1519C107.014 70.1216 107.027 70.0956 107.036 70.0695C107.049 70.0435 107.062 70.0175 107.084 69.9958C107.101 69.9742 107.123 69.9568 107.149 69.9438C107.175 69.9308 107.196 69.9222 107.214 69.9222C107.231 69.9222 107.248 69.9265 107.261 69.9395C107.274 69.9525 107.283 69.9698 107.292 69.9915C107.296 70.0175 107.296 70.0392 107.301 70.0695ZM107.539 69.7574C107.543 69.7444 107.548 69.7358 107.552 69.7271C107.556 69.7184 107.565 69.7141 107.574 69.7098L107.652 69.6621C107.66 69.6577 107.665 69.6577 107.669 69.6621C107.673 69.6664 107.673 69.6707 107.673 69.6794C107.673 69.6794 107.673 69.6837 107.673 69.6881C107.673 69.6924 107.673 69.6968 107.669 69.6968L107.192 70.9322C107.188 70.9452 107.183 70.9538 107.179 70.9625C107.175 70.9712 107.166 70.9755 107.157 70.9799L107.079 71.0232C107.071 71.0275 107.066 71.0275 107.062 71.0232C107.058 71.0189 107.058 71.0145 107.058 71.0059C107.058 71.0059 107.058 71.0015 107.058 70.9972C107.058 70.9929 107.058 70.9885 107.062 70.9885L107.539 69.7574ZM107.11 70.2863C107.11 70.3123 107.114 70.3296 107.118 70.3383C107.123 70.347 107.136 70.347 107.149 70.3426C107.162 70.334 107.17 70.321 107.179 70.308C107.183 70.2906 107.188 70.2689 107.188 70.2429C107.188 70.2083 107.188 70.1779 107.188 70.1432C107.188 70.1172 107.183 70.0999 107.179 70.0912C107.175 70.0825 107.166 70.0825 107.149 70.0912C107.136 70.0999 107.127 70.1129 107.118 70.1259C107.114 70.1432 107.11 70.1649 107.11 70.1909C107.105 70.2213 107.105 70.2559 107.11 70.2863ZM107.747 70.3296C107.747 70.3686 107.747 70.4077 107.747 70.4423C107.747 70.4727 107.743 70.503 107.734 70.529C107.73 70.5594 107.717 70.5854 107.708 70.6114C107.695 70.6374 107.682 70.6634 107.66 70.6851C107.643 70.7068 107.621 70.7241 107.595 70.7371C107.569 70.7501 107.548 70.7588 107.53 70.7588C107.513 70.7588 107.496 70.7544 107.483 70.7414C107.47 70.7284 107.461 70.7111 107.457 70.6894C107.452 70.6677 107.448 70.6417 107.444 70.6157C107.444 70.5984 107.444 70.5767 107.444 70.5637C107.444 70.5464 107.444 70.5247 107.444 70.5074C107.444 70.477 107.448 70.4467 107.457 70.4207C107.465 70.3903 107.474 70.3643 107.483 70.3383C107.496 70.3123 107.509 70.2863 107.53 70.2689C107.548 70.2473 107.569 70.2299 107.595 70.2126C107.621 70.1996 107.643 70.1909 107.66 70.1909C107.678 70.1909 107.695 70.1953 107.708 70.2083C107.721 70.2213 107.73 70.2386 107.734 70.2603C107.738 70.2776 107.743 70.3036 107.747 70.3296ZM107.556 70.5464C107.556 70.5724 107.561 70.5897 107.565 70.5984C107.569 70.6071 107.578 70.6071 107.595 70.5984C107.608 70.5897 107.617 70.5767 107.626 70.5637C107.63 70.5464 107.634 70.5247 107.634 70.4987C107.634 70.464 107.634 70.4337 107.634 70.399C107.634 70.373 107.63 70.3556 107.626 70.347C107.621 70.3383 107.608 70.3383 107.595 70.3426C107.582 70.3513 107.569 70.3643 107.565 70.3773C107.561 70.3947 107.556 70.4163 107.556 70.4423C107.552 70.4814 107.552 70.516 107.556 70.5464Z" fill="#737688"></path> <path d="M105.861 69.2125L105.545 68.7227C105.198 69.3166 104.929 70.0232 104.795 70.7471L105.306 70.7081C105.406 70.1705 105.606 69.6504 105.861 69.2125Z" fill="#737688"></path> <path d="M106.759 68.2415V67.4093C106.304 67.6693 105.887 68.1375 105.545 68.7184L105.861 69.2082C106.113 68.7834 106.421 68.4366 106.759 68.2415Z" fill="#737688"></path> <path d="M105.233 71.4755C105.233 71.224 105.259 70.9639 105.307 70.7082L104.795 70.7472C104.73 71.094 104.695 71.4451 104.695 71.7876C104.695 72.13 104.73 72.4421 104.795 72.7109L105.307 72.156C105.259 71.9566 105.233 71.7269 105.233 71.4755Z" fill="#737688"></path> <path d="M108.723 68.4752C108.589 67.9073 108.32 67.5085 107.973 67.3178C107.631 67.1314 107.215 67.1487 106.76 67.4088V68.2411C107.093 68.046 107.405 68.0374 107.657 68.1761C107.913 68.3148 108.112 68.6096 108.212 69.03C108.259 69.2294 108.285 69.4592 108.285 69.7106C108.285 69.9664 108.259 70.2221 108.212 70.4779C108.112 71.0111 107.913 71.5356 107.657 71.9734C107.405 72.4025 107.098 72.7493 106.76 72.9401C106.426 73.1351 106.114 73.1438 105.862 73.0051C105.607 72.8664 105.407 72.5716 105.307 72.1511L104.796 72.706C104.93 73.2738 105.199 73.6726 105.546 73.8634C105.888 74.0498 106.304 74.0324 106.76 73.7723C107.215 73.5122 107.631 73.0441 107.973 72.4632C108.32 71.8693 108.589 71.1628 108.723 70.4389C108.788 70.0921 108.823 69.741 108.823 69.3985C108.823 69.0561 108.788 68.7483 108.723 68.4752Z" fill="#6BEAC7"></path> <path d="M111.913 66.2018L121.541 60.6445C121.801 60.4928 122.009 60.6012 122.009 60.8829C122.009 61.1647 121.801 61.5115 121.541 61.6632L111.913 67.2205C111.653 67.3722 111.445 67.2638 111.445 66.982C111.441 66.7003 111.653 66.3492 111.913 66.2018Z" fill="#737688"></path> <path d="M111.913 68.2528L128.585 58.6295C128.845 58.4778 129.053 58.5861 129.053 58.8679C129.053 59.1497 128.845 59.4965 128.585 59.6482L111.913 69.2715C111.653 69.4232 111.445 69.3148 111.445 69.0331C111.441 68.7513 111.653 68.4002 111.913 68.2528Z" fill="#E7E9F8"></path> <path d="M137.441 57.5637L169.081 39.2968C169.341 39.1451 169.549 38.7853 169.549 38.4818V30.4147C169.549 30.1156 169.341 29.9942 169.081 30.1416L137.441 48.4042C137.181 48.556 136.973 48.9158 136.973 49.2192V57.2906C136.973 57.5897 137.181 57.7111 137.441 57.5637Z" fill="#F5F6FF"></path> <path d="M140.354 51.1311C140.354 51.0747 140.362 51.0184 140.375 50.962C140.393 50.9057 140.41 50.858 140.44 50.8103C140.466 50.7626 140.497 50.7236 140.531 50.6846C140.566 50.6499 140.601 50.6196 140.635 50.5979C140.67 50.5762 140.705 50.5675 140.739 50.5632C140.774 50.5589 140.804 50.5675 140.83 50.5849C140.856 50.6022 140.878 50.6282 140.895 50.6629C140.913 50.6976 140.917 50.7453 140.917 50.8016C140.917 50.832 140.917 50.858 140.913 50.884C140.908 50.91 140.904 50.936 140.895 50.962C140.891 50.988 140.882 51.0097 140.874 51.0357C140.865 51.0574 140.856 51.0834 140.848 51.1051L140.666 51.5992C140.661 51.6079 140.657 51.6122 140.657 51.6252C140.653 51.6339 140.648 51.6426 140.635 51.6469L140.484 51.7336C140.479 51.7379 140.475 51.7379 140.471 51.7336C140.466 51.7293 140.466 51.7206 140.466 51.7119C140.466 51.7076 140.466 51.7033 140.466 51.6989C140.466 51.6946 140.466 51.6903 140.471 51.6903L140.592 51.3521C140.562 51.3651 140.531 51.3695 140.501 51.3651C140.471 51.3608 140.449 51.3521 140.427 51.3348C140.406 51.3175 140.388 51.2915 140.375 51.2568C140.362 51.2264 140.354 51.1831 140.354 51.1311ZM140.739 50.91C140.739 50.8926 140.735 50.8753 140.731 50.8623C140.726 50.8493 140.718 50.8406 140.709 50.8363C140.7 50.832 140.687 50.8276 140.674 50.8276C140.661 50.8276 140.648 50.832 140.635 50.8406C140.622 50.8493 140.609 50.858 140.596 50.871C140.583 50.884 140.575 50.9013 140.562 50.9187C140.553 50.936 140.544 50.9533 140.54 50.975C140.536 50.9967 140.531 51.014 140.531 51.0357C140.531 51.0574 140.536 51.0704 140.54 51.0834C140.544 51.0964 140.553 51.1051 140.562 51.1094C140.57 51.1137 140.583 51.1181 140.596 51.1181C140.609 51.1181 140.622 51.1137 140.635 51.1051C140.648 51.0964 140.661 51.0877 140.674 51.0747C140.687 51.0617 140.696 51.0444 140.709 51.027C140.718 51.0097 140.726 50.9923 140.731 50.9707C140.735 50.949 140.739 50.9273 140.739 50.91Z" fill="#737688"></path> <path d="M141.281 50.2301C141.329 50.2041 141.372 50.1911 141.407 50.1911C141.442 50.1911 141.472 50.2041 141.494 50.2301C141.515 50.2517 141.533 50.2864 141.546 50.3298C141.559 50.3731 141.563 50.4208 141.563 50.4728C141.563 50.5162 141.563 50.5595 141.563 50.6072C141.563 50.6549 141.563 50.6982 141.563 50.7372C141.563 50.7936 141.554 50.8456 141.546 50.902C141.533 50.9583 141.515 51.0103 141.494 51.058C141.472 51.1057 141.442 51.1534 141.407 51.1967C141.372 51.2401 141.329 51.2748 141.281 51.3008C141.234 51.3268 141.19 51.3398 141.156 51.3398C141.121 51.3398 141.091 51.3268 141.069 51.3008C141.047 51.2791 141.03 51.2444 141.017 51.2011C141.004 51.1577 141 51.11 141 51.058C141 51.019 141 50.9757 141 50.928C141 50.8803 141 50.8369 141 50.7936C141 50.7372 141.008 50.6852 141.017 50.6289C141.03 50.5725 141.047 50.5205 141.069 50.4728C141.091 50.4208 141.121 50.3775 141.156 50.3341C141.19 50.2908 141.234 50.2561 141.281 50.2301ZM141.381 50.8283C141.385 50.7416 141.385 50.6592 141.381 50.5812C141.381 50.5552 141.377 50.5378 141.372 50.5162C141.368 50.4988 141.364 50.4815 141.355 50.4728C141.346 50.4641 141.338 50.4555 141.325 50.4555C141.312 50.4555 141.294 50.4598 141.277 50.4685C141.26 50.4815 141.242 50.4945 141.229 50.5075C141.216 50.5248 141.208 50.5422 141.199 50.5595C141.19 50.5812 141.186 50.5985 141.182 50.6245C141.177 50.6462 141.177 50.6722 141.177 50.6982C141.173 50.7806 141.173 50.8629 141.177 50.9453C141.177 50.9713 141.182 50.993 141.182 51.0103C141.186 51.0277 141.19 51.045 141.199 51.0537C141.208 51.0624 141.216 51.071 141.229 51.071C141.242 51.071 141.26 51.0667 141.277 51.058C141.294 51.045 141.312 51.032 141.325 51.019C141.338 51.0017 141.346 50.9843 141.355 50.9627C141.364 50.941 141.368 50.9193 141.372 50.8976C141.381 50.876 141.381 50.8499 141.381 50.8283Z" fill="#737688"></path> <path d="M141.945 50.061C141.945 50.1 141.945 50.1391 141.945 50.1737C141.945 50.2041 141.94 50.2344 141.932 50.2604C141.927 50.2908 141.914 50.3168 141.906 50.3428C141.893 50.3688 141.875 50.3948 141.858 50.4165C141.841 50.4382 141.819 50.4555 141.793 50.4685C141.767 50.4815 141.745 50.4902 141.728 50.4902C141.71 50.4902 141.693 50.4815 141.68 50.4728C141.667 50.4598 141.658 50.4425 141.654 50.4208C141.645 50.3992 141.645 50.3731 141.641 50.3471C141.641 50.3298 141.641 50.3081 141.641 50.2908C141.641 50.2734 141.641 50.2561 141.641 50.2344C141.641 50.2041 141.645 50.1737 141.654 50.1434C141.658 50.1131 141.671 50.087 141.68 50.061C141.693 50.035 141.706 50.009 141.728 49.9873C141.745 49.9657 141.767 49.9483 141.793 49.9353C141.819 49.9223 141.841 49.9137 141.858 49.9137C141.875 49.9137 141.893 49.918 141.906 49.931C141.919 49.944 141.927 49.9613 141.936 49.983C141.94 50.009 141.945 50.035 141.945 50.061ZM142.187 49.7489C142.192 49.7359 142.196 49.7272 142.2 49.7186C142.205 49.7099 142.213 49.7056 142.222 49.6969L142.3 49.6492C142.309 49.6449 142.313 49.6449 142.317 49.6492C142.322 49.6536 142.322 49.6579 142.322 49.6666C142.322 49.6666 142.322 49.6709 142.322 49.6752C142.322 49.6796 142.322 49.6839 142.317 49.6839L141.841 50.9193C141.836 50.9323 141.832 50.941 141.828 50.9497C141.823 50.9583 141.815 50.9627 141.806 50.967L141.728 51.0147C141.719 51.019 141.715 51.019 141.71 51.0147C141.706 51.0104 141.706 51.006 141.706 50.9974C141.706 50.9974 141.706 50.993 141.706 50.9887C141.706 50.9844 141.706 50.98 141.71 50.98L142.187 49.7489ZM141.754 50.2778C141.754 50.3038 141.758 50.3211 141.762 50.3298C141.767 50.3385 141.78 50.3385 141.793 50.3341C141.806 50.3255 141.815 50.3125 141.823 50.2995C141.828 50.2821 141.832 50.2604 141.832 50.2344C141.832 50.1997 141.832 50.1694 141.832 50.1347C141.832 50.1087 141.828 50.0914 141.823 50.0827C141.819 50.074 141.81 50.074 141.793 50.0827C141.78 50.0914 141.771 50.1044 141.762 50.1174C141.758 50.1347 141.754 50.1564 141.754 50.1824C141.754 50.2128 141.754 50.2474 141.754 50.2778ZM142.391 50.3211C142.391 50.3601 142.391 50.3992 142.391 50.4338C142.391 50.4642 142.387 50.4945 142.378 50.5205C142.374 50.5509 142.361 50.5769 142.352 50.6029C142.339 50.6289 142.326 50.6549 142.304 50.6766C142.287 50.6983 142.265 50.7156 142.239 50.7286C142.213 50.7416 142.192 50.7503 142.174 50.7503C142.157 50.7503 142.14 50.7459 142.127 50.7329C142.114 50.7199 142.105 50.7026 142.101 50.6809C142.096 50.6592 142.092 50.6332 142.088 50.6072C142.088 50.5899 142.088 50.5682 142.088 50.5552C142.088 50.5379 142.088 50.5205 142.088 50.4988C142.088 50.4685 142.092 50.4382 142.101 50.4122C142.105 50.3818 142.118 50.3558 142.127 50.3298C142.14 50.3038 142.153 50.2778 142.174 50.2561C142.192 50.2344 142.213 50.2171 142.239 50.1997C142.265 50.1867 142.287 50.1781 142.304 50.1781C142.322 50.1781 142.339 50.1824 142.352 50.1954C142.365 50.2084 142.374 50.2258 142.378 50.2474C142.387 50.2691 142.391 50.2951 142.391 50.3211ZM142.2 50.5379C142.2 50.5639 142.205 50.5812 142.209 50.5899C142.213 50.5986 142.222 50.5986 142.239 50.5899C142.252 50.5812 142.261 50.5682 142.27 50.5552C142.274 50.5379 142.278 50.5162 142.278 50.4902C142.278 50.4555 142.278 50.4252 142.278 50.3905C142.278 50.3645 142.274 50.3471 142.27 50.3385C142.265 50.3298 142.252 50.3298 142.239 50.3341C142.226 50.3428 142.213 50.3558 142.209 50.3688C142.205 50.3861 142.2 50.4078 142.2 50.4338C142.2 50.4728 142.2 50.5075 142.2 50.5379Z" fill="#737688"></path> <path d="M141.377 48.2482V47.4159C140.922 47.676 140.506 48.1442 140.163 48.725L140.48 49.2149C140.731 48.7901 141.039 48.4433 141.377 48.2482Z" fill="#737688"></path> <path d="M143.341 48.4825C143.206 47.9146 142.937 47.5158 142.591 47.3251C142.248 47.1387 141.832 47.156 141.377 47.4161V48.2484C141.711 48.0533 142.023 48.0447 142.274 48.1834C142.53 48.3221 142.729 48.6169 142.829 49.0373C142.877 49.2367 142.903 49.4665 142.903 49.7179C142.903 49.9693 142.877 50.2294 142.829 50.4852C142.729 51.0183 142.534 51.5385 142.274 51.9763C142.023 52.4011 141.711 52.7523 141.377 52.9473C141.043 53.1424 140.731 53.1511 140.48 53.0124C140.224 52.8736 140.024 52.5789 139.925 52.1584C139.877 51.959 139.851 51.7293 139.851 51.4778C139.851 51.2264 139.877 50.9663 139.925 50.7106C140.024 50.1774 140.224 49.6529 140.48 49.2151L140.163 48.7252C139.816 49.3191 139.548 50.0257 139.413 50.7496C139.348 51.0964 139.313 51.4475 139.313 51.7899C139.313 52.1324 139.348 52.4445 139.413 52.7133C139.548 53.2811 139.816 53.6799 140.163 53.8707C140.506 54.057 140.922 54.0397 141.377 53.7796C141.832 53.5195 142.248 53.0514 142.591 52.4705C142.937 51.8766 143.206 51.1701 143.341 50.4461C143.406 50.0994 143.44 49.7482 143.44 49.4058C143.44 49.0633 143.406 48.7556 143.341 48.4825Z" fill="#6BEAC7"></path> <path d="M146.522 46.2102L156.15 40.6529C156.41 40.5012 156.618 40.6096 156.618 40.8913C156.618 41.1731 156.41 41.5199 156.15 41.6716L146.522 47.2288C146.262 47.3806 146.054 47.2722 146.054 46.9904C146.054 46.7087 146.262 46.3575 146.522 46.2102Z" fill="#737688"></path> <path d="M146.522 48.2557L163.194 38.6324C163.454 38.4807 163.662 38.5891 163.662 38.8708C163.662 39.1526 163.454 39.4994 163.194 39.6511L146.522 49.2744C146.262 49.4261 146.054 49.3177 146.054 49.036C146.054 48.7542 146.262 48.4074 146.522 48.2557Z" fill="#E7E9F8"></path> <path d="M106.329 79.6029L113.083 75.6929C113.343 75.5411 113.551 75.6495 113.551 75.9313C113.551 76.213 113.343 76.5598 113.083 76.7115L106.329 80.6216C106.069 80.7733 105.861 80.6649 105.861 80.3831C105.861 80.1014 106.069 79.7503 106.329 79.6029Z" fill="#737688"></path> <path d="M169.115 45.8777V97.4491C169.115 97.5921 168.989 97.8132 168.864 97.8869L103.074 135.869V84.2972C103.074 84.1542 103.2 83.9331 103.326 83.8594L104.149 83.3826C104.539 83.1572 104.834 82.6457 104.834 82.1949V79.2125C104.834 79.0694 104.96 78.8484 105.085 78.7747L114.531 73.3215V76.0957C114.531 76.5986 114.878 76.863 115.225 76.863C115.368 76.863 115.511 76.824 115.649 76.7416L169.115 45.8777ZM169.289 45.3315C169.223 45.3315 169.154 45.3532 169.08 45.3965L115.433 76.3688C115.359 76.4122 115.285 76.4339 115.225 76.4339C115.069 76.4339 114.965 76.3125 114.965 76.1001V73.1177C114.965 72.9053 114.86 72.7839 114.704 72.7839C114.639 72.7839 114.57 72.8056 114.496 72.849L104.869 78.4062C104.609 78.5579 104.401 78.9177 104.401 79.2212V82.2035C104.401 82.5026 104.192 82.8667 103.932 83.0185L103.109 83.4953C102.849 83.647 102.641 84.0068 102.641 84.3102V136.09C102.641 136.302 102.745 136.424 102.901 136.424C102.966 136.424 103.035 136.402 103.109 136.358L169.08 98.2684C169.341 98.1167 169.549 97.7569 169.549 97.4534V45.674C169.549 45.4529 169.445 45.3315 169.289 45.3315Z" fill="#E7E9F8"></path> <path d="M106.88 86.5479C106.798 86.5479 106.72 86.5263 106.65 86.4873C106.494 86.3962 106.403 86.2185 106.403 85.9974V84.0294C106.403 83.6566 106.659 83.2145 106.98 83.0281L112.212 80.011C112.403 79.8983 112.606 79.8897 112.762 79.9764C112.919 80.0674 113.01 80.2451 113.01 80.4662V82.4342C113.01 82.807 112.754 83.2491 112.433 83.4355L107.201 86.4526C107.093 86.5176 106.984 86.5479 106.88 86.5479ZM107.201 83.4095C107.01 83.5222 106.841 83.8127 106.841 84.0337V86.0018C106.841 86.0754 106.863 86.1145 106.871 86.1188C106.88 86.1231 106.924 86.1231 106.989 86.0841L112.221 83.0671C112.411 82.9544 112.58 82.6639 112.58 82.4429V80.4749C112.58 80.4012 112.559 80.3622 112.55 80.3578C112.541 80.3535 112.498 80.3535 112.433 80.3925L107.201 83.4095Z" fill="#E7E9F8"></path> <path d="M107.509 84.2153L110.92 82.2386C111.094 82.1389 111.232 82.2082 111.232 82.399C111.232 82.5897 111.094 82.8195 110.92 82.9192L107.509 84.8958C107.335 84.9955 107.197 84.9262 107.197 84.7354C107.197 84.549 107.335 84.315 107.509 84.2153Z" fill="#E7E9F8"></path> <path d="M111.713 81.915L111.995 82.3181C112.004 82.3355 112.025 82.3225 112.038 82.2921L112.32 81.5639C112.333 81.5292 112.32 81.4945 112.298 81.5075L111.735 81.8326C111.713 81.85 111.7 81.8977 111.713 81.915Z" fill="#737688"></path> <path d="M106.16 105.601C106.412 105.458 106.611 105.575 106.611 105.861C106.611 106.152 106.407 106.503 106.16 106.646C105.909 106.789 105.709 106.672 105.709 106.386C105.709 106.095 105.909 105.744 106.16 105.601Z" fill="#6BEAC7"></path> <path d="M109.68 101.535C109.932 101.392 110.131 101.509 110.131 101.795C110.131 102.085 109.927 102.437 109.68 102.58C109.429 102.723 109.229 102.606 109.229 102.32C109.229 102.029 109.433 101.678 109.68 101.535Z" fill="#6BEAC7"></path> <path d="M113.204 99.5024C113.456 99.3593 113.655 99.4764 113.655 99.7625C113.655 100.049 113.451 100.404 113.204 100.547C112.953 100.69 112.753 100.573 112.753 100.287C112.749 99.9966 112.953 99.6454 113.204 99.5024Z" fill="#6BEAC7"></path> <path d="M116.724 98.3619C116.976 98.2188 117.175 98.3359 117.175 98.622C117.175 98.9124 116.971 99.2635 116.724 99.4066C116.473 99.5496 116.273 99.4326 116.273 99.1465C116.273 98.8604 116.473 98.5049 116.724 98.3619Z" fill="#6BEAC7"></path> <path d="M120.249 94.6985C120.5 94.5554 120.699 94.6724 120.699 94.9585C120.699 95.249 120.496 95.6001 120.249 95.7431C119.997 95.8862 119.798 95.7692 119.798 95.4831C119.798 95.1926 120.002 94.8458 120.249 94.6985Z" fill="#6BEAC7"></path> <path d="M123.768 93.4025C124.02 93.2595 124.219 93.3765 124.219 93.6626C124.219 93.9531 124.015 94.3042 123.768 94.4472C123.517 94.5903 123.317 94.4732 123.317 94.1871C123.317 93.8967 123.517 93.5456 123.768 93.4025Z" fill="#6BEAC7"></path> <path d="M127.288 89.3363C127.54 89.1933 127.739 89.3103 127.739 89.5964C127.739 89.8868 127.535 90.238 127.288 90.381C127.037 90.5241 126.837 90.407 126.837 90.1209C126.837 89.8305 127.041 89.4794 127.288 89.3363Z" fill="#6BEAC7"></path> <path d="M130.813 88.3184C131.064 88.1754 131.264 88.2924 131.264 88.5785C131.264 88.8646 131.06 89.22 130.813 89.3631C130.561 89.5061 130.362 89.3891 130.362 89.103C130.358 88.8126 130.561 88.4658 130.813 88.3184Z" fill="#6BEAC7"></path> <path d="M134.332 77.1344C134.584 76.9914 134.783 77.1084 134.783 77.3945C134.783 77.6806 134.579 78.0361 134.332 78.1791C134.081 78.3222 133.881 78.2051 133.881 77.919C133.881 77.6329 134.081 77.2818 134.332 77.1344Z" fill="#6BEAC7"></path> <path d="M137.857 83.2376C138.108 83.0945 138.307 83.2116 138.307 83.4977C138.307 83.7838 138.104 84.1392 137.857 84.2823C137.605 84.4253 137.406 84.3083 137.406 84.0222C137.401 83.7317 137.605 83.3806 137.857 83.2376Z" fill="#6BEAC7"></path> <path d="M141.377 83.2376C141.628 83.0945 141.827 83.2116 141.827 83.4977C141.827 83.7838 141.624 84.1392 141.377 84.2823C141.13 84.4253 140.926 84.3083 140.926 84.0222C140.926 83.7317 141.125 83.3806 141.377 83.2376Z" fill="#6BEAC7"></path> <path d="M144.897 83.2376C145.148 83.0945 145.347 83.2116 145.347 83.4977C145.347 83.7881 145.144 84.1392 144.897 84.2823C144.645 84.4253 144.446 84.3083 144.446 84.0222C144.446 83.7361 144.65 83.3806 144.897 83.2376Z" fill="#6BEAC7"></path> <path d="M148.421 77.1388C148.672 76.9958 148.871 77.1128 148.871 77.3989C148.871 77.685 148.668 78.0404 148.421 78.1835C148.174 78.3265 147.97 78.2095 147.97 77.9234C147.965 77.633 148.169 77.2819 148.421 77.1388Z" fill="#6BEAC7"></path> <path d="M151.941 75.9677C152.192 75.8246 152.391 75.9416 152.391 76.2277C152.391 76.5138 152.188 76.8693 151.941 77.0124C151.689 77.1554 151.49 77.0384 151.49 76.7523C151.49 76.4618 151.689 76.1107 151.941 75.9677Z" fill="#6BEAC7"></path> <path d="M155.473 71.0346C155.725 70.8915 155.924 71.0086 155.924 71.2947C155.924 71.5808 155.72 71.9362 155.473 72.0793C155.222 72.2223 155.022 72.1053 155.022 71.8192C155.022 71.5331 155.226 71.182 155.473 71.0346Z" fill="#6BEAC7"></path> <path d="M159.314 71.7409C159.491 71.434 159.492 71.1027 159.316 71.001C159.139 70.8992 158.853 71.0655 158.676 71.3724C158.499 71.6793 158.498 72.0105 158.674 72.1123C158.85 72.214 159.137 72.0477 159.314 71.7409Z" fill="#6BEAC7"></path> <path d="M162.835 71.7421C163.012 71.4352 163.013 71.1039 162.837 71.0022C162.66 70.9004 162.374 71.0667 162.197 71.3736C162.02 71.6805 162.019 72.0118 162.195 72.1135C162.371 72.2153 162.658 72.049 162.835 71.7421Z" fill="#6BEAC7"></path> <path d="M166.029 69.002C166.28 68.859 166.479 68.976 166.479 69.2621C166.479 69.5482 166.276 69.9037 166.029 70.0467C165.777 70.1898 165.578 70.0727 165.578 69.7866C165.573 69.5005 165.777 69.1494 166.029 69.002Z" fill="#6BEAC7"></path> <path d="M106.151 106.238C106.125 106.238 106.099 106.229 106.082 106.212C106.039 106.173 106.03 106.104 106.073 106.06L109.628 101.973C109.637 101.964 109.645 101.955 109.654 101.951L113.152 99.9308L116.668 98.7908L120.17 95.1495C120.183 95.1365 120.196 95.1278 120.209 95.1235L123.703 93.836L127.206 89.7917C127.219 89.7743 127.236 89.7656 127.258 89.757L130.721 88.7556L134.224 77.6281C134.237 77.5891 134.271 77.5588 134.315 77.5544C134.354 77.5501 134.397 77.5718 134.419 77.6065L137.908 83.6535L141.376 83.6492L144.827 83.6535L148.316 77.6065C148.329 77.5848 148.351 77.5674 148.377 77.5588L151.867 76.4014L155.369 71.4987C155.391 71.4683 155.421 71.4553 155.456 71.4553H162.469L165.968 69.4353C166.02 69.405 166.085 69.4223 166.115 69.4743C166.145 69.5263 166.128 69.5914 166.076 69.6217L162.556 71.6547C162.539 71.6634 162.522 71.6677 162.504 71.6677H155.516L152.027 76.5531C152.014 76.5704 151.997 76.5878 151.975 76.5921L148.494 77.7495L144.991 83.8139C144.974 83.8486 144.935 83.8659 144.896 83.8659L141.385 83.8616L137.856 83.8659C137.817 83.8659 137.783 83.8443 137.761 83.8139L134.362 77.9272L130.916 88.8727C130.903 88.9073 130.877 88.9334 130.843 88.9464L127.353 89.952L123.851 93.9964C123.838 94.0094 123.825 94.0224 123.807 94.0268L120.309 95.3142L116.806 98.9598C116.793 98.9728 116.78 98.9815 116.763 98.9858L113.243 100.126L109.784 102.124L106.238 106.199C106.212 106.225 106.182 106.238 106.151 106.238Z" fill="#6BEAC7"></path> <path d="M106.161 108.373C106.087 108.373 106.013 108.334 105.974 108.265C105.914 108.161 105.948 108.031 106.052 107.97L165.92 73.404C166.025 73.3433 166.155 73.378 166.215 73.482C166.276 73.5861 166.241 73.7161 166.137 73.7768L106.269 108.343C106.234 108.364 106.195 108.373 106.161 108.373Z" fill="#E7E9F8"></path> <path d="M106.16 103.566C106.412 103.423 106.611 103.54 106.611 103.826C106.611 104.116 106.407 104.467 106.16 104.61C105.909 104.753 105.709 104.636 105.709 104.35C105.709 104.064 105.909 103.709 106.16 103.566Z" fill="#6BEAC7"></path> <path d="M109.68 97.4668C109.932 97.3238 110.131 97.4408 110.131 97.7269C110.131 98.013 109.927 98.3685 109.68 98.5115C109.429 98.6546 109.229 98.5375 109.229 98.2514C109.229 97.961 109.433 97.6099 109.68 97.4668Z" fill="#6BEAC7"></path> <path d="M113.533 97.4116C113.71 97.1047 113.711 96.7735 113.534 96.6717C113.358 96.57 113.072 96.7362 112.895 97.0431C112.717 97.35 112.717 97.6812 112.893 97.783C113.069 97.8847 113.356 97.7185 113.533 97.4116Z" fill="#6BEAC7"></path> <path d="M116.724 89.3344C116.976 89.1914 117.175 89.3084 117.175 89.5945C117.175 89.885 116.971 90.2361 116.724 90.3791C116.473 90.5222 116.273 90.4051 116.273 90.119C116.273 89.8286 116.473 89.4775 116.724 89.3344Z" fill="#6BEAC7"></path> <path d="M120.248 91.3681C120.5 91.225 120.699 91.3421 120.699 91.6282C120.699 91.9186 120.495 92.2697 120.248 92.4128C119.997 92.5558 119.797 92.4388 119.797 92.1527C119.797 91.8666 120.001 91.5111 120.248 91.3681Z" fill="#6BEAC7"></path> <path d="M123.768 90.3491C124.02 90.206 124.219 90.323 124.219 90.6091C124.219 90.8996 124.015 91.2507 123.768 91.3937C123.517 91.5368 123.317 91.4198 123.317 91.1337C123.317 90.8476 123.517 90.4964 123.768 90.3491Z" fill="#6BEAC7"></path> <path d="M127.288 87.3019C127.54 87.1589 127.739 87.2759 127.739 87.562C127.739 87.8481 127.535 88.2035 127.288 88.3466C127.037 88.4896 126.837 88.3726 126.837 88.0865C126.837 87.7961 127.041 87.445 127.288 87.3019Z" fill="#6BEAC7"></path> <path d="M130.812 83.2368C131.064 83.0937 131.263 83.2108 131.263 83.4969C131.263 83.783 131.059 84.1384 130.812 84.2815C130.561 84.4245 130.361 84.3075 130.361 84.0214C130.357 83.7309 130.561 83.3798 130.812 83.2368Z" fill="#6BEAC7"></path> <path d="M134.333 82.2167C134.584 82.0736 134.783 82.1906 134.783 82.4767C134.783 82.7628 134.58 83.1183 134.333 83.2613C134.086 83.4044 133.882 83.2873 133.882 83.0013C133.882 82.7108 134.081 82.3597 134.333 82.2167Z" fill="#6BEAC7"></path> <path d="M137.852 79.1706C138.104 79.0275 138.303 79.1446 138.303 79.4307C138.303 79.7211 138.099 80.0722 137.852 80.2153C137.601 80.3583 137.401 80.2413 137.401 79.9552C137.401 79.6647 137.605 79.3136 137.852 79.1706Z" fill="#6BEAC7"></path> <path d="M141.377 79.1706C141.628 79.0275 141.827 79.1446 141.827 79.4307C141.827 79.7168 141.624 80.0722 141.377 80.2153C141.13 80.3583 140.926 80.2413 140.926 79.9552C140.926 79.6647 141.125 79.3136 141.377 79.1706Z" fill="#6BEAC7"></path> <path d="M144.896 71.0327C145.148 70.8896 145.347 71.0067 145.347 71.2928C145.347 71.5832 145.143 71.9343 144.896 72.0774C144.645 72.2204 144.445 72.1034 144.445 71.8173C144.445 71.5312 144.649 71.1801 144.896 71.0327Z" fill="#6BEAC7"></path> <path d="M148.421 75.0726C148.672 74.9296 148.871 75.0466 148.871 75.3327C148.871 75.6188 148.668 75.9743 148.421 76.1173C148.169 76.2604 147.97 76.1433 147.97 75.8572C147.965 75.5668 148.169 75.2157 148.421 75.0726Z" fill="#6BEAC7"></path> <path d="M151.941 71.0327C152.192 70.8896 152.391 71.0067 152.391 71.2928C152.391 71.5789 152.188 71.9343 151.941 72.0774C151.689 72.2204 151.49 72.1034 151.49 71.8173C151.49 71.5312 151.689 71.1801 151.941 71.0327Z" fill="#6BEAC7"></path> <path d="M155.465 69.0002C155.716 68.8571 155.915 68.9742 155.915 69.2603C155.915 69.5464 155.712 69.9018 155.465 70.0449C155.213 70.1879 155.014 70.0709 155.014 69.7848C155.009 69.4987 155.213 69.1476 155.465 69.0002Z" fill="#6BEAC7"></path> <path d="M158.985 69.0002C159.236 68.8571 159.435 68.9742 159.435 69.2603C159.435 69.5464 159.232 69.9018 158.985 70.0449C158.733 70.1879 158.534 70.0709 158.534 69.7848C158.534 69.4987 158.733 69.1476 158.985 69.0002Z" fill="#6BEAC7"></path> <path d="M162.505 66.9665C162.756 66.8234 162.955 66.9405 162.955 67.2266C162.955 67.517 162.752 67.8681 162.505 68.0112C162.253 68.1542 162.054 68.0372 162.054 67.7511C162.054 67.465 162.257 67.1139 162.505 66.9665Z" fill="#6BEAC7"></path> <path d="M166.029 66.9665C166.28 66.8234 166.48 66.9405 166.48 67.2266C166.48 67.517 166.276 67.8681 166.029 68.0112C165.778 68.1542 165.578 68.0372 165.578 67.7511C165.578 67.465 165.778 67.1139 166.029 66.9665Z" fill="#6BEAC7"></path> <path d="M106.161 104.198C106.143 104.198 106.122 104.194 106.109 104.185C106.057 104.155 106.039 104.09 106.07 104.038L109.616 97.9214C109.633 97.8954 109.655 97.8781 109.685 97.8694L113.131 97.1325L116.629 89.8067C116.642 89.7806 116.664 89.759 116.694 89.7503C116.725 89.7416 116.755 89.746 116.781 89.759L120.266 91.7703L123.717 90.769L127.215 87.7389L130.73 83.6815C130.743 83.6642 130.761 83.6555 130.782 83.6469L134.281 82.6368L137.783 79.6025C137.805 79.5851 137.827 79.5765 137.853 79.5765H141.303L144.797 71.5094C144.81 71.4747 144.845 71.453 144.879 71.4443C144.914 71.44 144.953 71.453 144.979 71.479L148.417 75.4497L151.854 71.479C151.863 71.4703 151.871 71.4617 151.88 71.4573L155.413 69.4156C155.43 69.407 155.448 69.4026 155.465 69.4026H158.959L162.444 67.3913C162.461 67.3826 162.479 67.3783 162.496 67.3783H166.016C166.077 67.3783 166.124 67.4259 166.124 67.4866C166.124 67.5473 166.077 67.595 166.016 67.595H162.522L159.037 69.6064C159.019 69.615 159.002 69.6194 158.985 69.6194H155.491L151.997 71.6351L148.486 75.6881C148.443 75.7358 148.364 75.7358 148.321 75.6881L144.914 71.7521L141.459 79.7282C141.442 79.7672 141.403 79.7932 141.359 79.7932H137.879L134.389 82.8146C134.376 82.8232 134.363 82.8319 134.35 82.8363L130.86 83.8419L127.354 87.8863L123.825 90.9424C123.812 90.951 123.799 90.9597 123.786 90.9641L120.266 91.9827C120.236 91.9914 120.205 91.9871 120.184 91.9741L116.759 89.9974L113.287 97.2626C113.274 97.2929 113.244 97.3146 113.213 97.3232L109.763 98.0602L106.239 104.133C106.234 104.177 106.195 104.198 106.161 104.198Z" fill="#6BEAC7"></path> <g opacity="0.3"> <g opacity="0.3"> <g opacity="0.3"> <path opacity="0.3" d="M106.16 103.566C106.412 103.423 106.611 103.54 106.611 103.826C106.611 104.116 106.407 104.467 106.16 104.61C105.909 104.753 105.709 104.636 105.709 104.35C105.709 104.064 105.909 103.709 106.16 103.566Z" fill="#6BEAC7"></path> </g> <g opacity="0.3"> <path opacity="0.3" d="M109.68 97.4668C109.932 97.3238 110.131 97.4408 110.131 97.7269C110.131 98.013 109.927 98.3685 109.68 98.5115C109.429 98.6546 109.229 98.5375 109.229 98.2514C109.229 97.961 109.433 97.6099 109.68 97.4668Z" fill="#6BEAC7"></path> </g> <g opacity="0.3"> <path opacity="0.3" d="M113.533 97.4116C113.71 97.1047 113.711 96.7735 113.534 96.6717C113.358 96.57 113.072 96.7362 112.895 97.0431C112.717 97.35 112.717 97.6812 112.893 97.783C113.069 97.8847 113.356 97.7185 113.533 97.4116Z" fill="#6BEAC7"></path> </g> <g opacity="0.3"> <path opacity="0.3" d="M116.724 89.3344C116.976 89.1914 117.175 89.3084 117.175 89.5945C117.175 89.885 116.971 90.2361 116.724 90.3791C116.473 90.5222 116.273 90.4051 116.273 90.119C116.273 89.8286 116.473 89.4775 116.724 89.3344Z" fill="#6BEAC7"></path> </g> <g opacity="0.3"> <path opacity="0.3" d="M120.248 91.3681C120.5 91.225 120.699 91.3421 120.699 91.6282C120.699 91.9186 120.495 92.2697 120.248 92.4128C119.997 92.5558 119.797 92.4388 119.797 92.1527C119.797 91.8666 120.001 91.5111 120.248 91.3681Z" fill="#6BEAC7"></path> </g> <g opacity="0.3"> <path opacity="0.3" d="M123.768 90.3491C124.02 90.206 124.219 90.323 124.219 90.6091C124.219 90.8996 124.015 91.2507 123.768 91.3937C123.517 91.5368 123.317 91.4198 123.317 91.1337C123.317 90.8476 123.517 90.4964 123.768 90.3491Z" fill="#6BEAC7"></path> </g> <g opacity="0.3"> <path opacity="0.3" d="M127.288 87.3019C127.54 87.1589 127.739 87.2759 127.739 87.562C127.739 87.8481 127.535 88.2035 127.288 88.3466C127.037 88.4896 126.837 88.3726 126.837 88.0865C126.837 87.7961 127.041 87.445 127.288 87.3019Z" fill="#6BEAC7"></path> </g> <g opacity="0.3"> <path opacity="0.3" d="M130.812 83.2368C131.064 83.0937 131.263 83.2108 131.263 83.4969C131.263 83.783 131.059 84.1384 130.812 84.2815C130.561 84.4245 130.361 84.3075 130.361 84.0214C130.357 83.7309 130.561 83.3798 130.812 83.2368Z" fill="#6BEAC7"></path> </g> <g opacity="0.3"> <path opacity="0.3" d="M134.333 82.2167C134.584 82.0736 134.783 82.1906 134.783 82.4767C134.783 82.7628 134.58 83.1183 134.333 83.2613C134.086 83.4044 133.882 83.2873 133.882 83.0013C133.882 82.7108 134.081 82.3597 134.333 82.2167Z" fill="#6BEAC7"></path> </g> <g opacity="0.3"> <path opacity="0.3" d="M137.852 79.1706C138.104 79.0275 138.303 79.1446 138.303 79.4307C138.303 79.7211 138.099 80.0722 137.852 80.2153C137.601 80.3583 137.401 80.2413 137.401 79.9552C137.401 79.6647 137.605 79.3136 137.852 79.1706Z" fill="#6BEAC7"></path> </g> <g opacity="0.3"> <path opacity="0.3" d="M141.377 79.1706C141.628 79.0275 141.827 79.1446 141.827 79.4307C141.827 79.7168 141.624 80.0722 141.377 80.2153C141.13 80.3583 140.926 80.2413 140.926 79.9552C140.926 79.6647 141.125 79.3136 141.377 79.1706Z" fill="#6BEAC7"></path> </g> <g opacity="0.3"> <path opacity="0.3" d="M144.896 71.0327C145.148 70.8896 145.347 71.0067 145.347 71.2928C145.347 71.5832 145.143 71.9343 144.896 72.0774C144.645 72.2204 144.445 72.1034 144.445 71.8173C144.445 71.5312 144.649 71.1801 144.896 71.0327Z" fill="#6BEAC7"></path> </g> <g opacity="0.3"> <path opacity="0.3" d="M148.421 75.0726C148.672 74.9296 148.871 75.0466 148.871 75.3327C148.871 75.6188 148.668 75.9743 148.421 76.1173C148.169 76.2604 147.97 76.1433 147.97 75.8572C147.965 75.5668 148.169 75.2157 148.421 75.0726Z" fill="#6BEAC7"></path> </g> <g opacity="0.3"> <path opacity="0.3" d="M151.941 71.0327C152.192 70.8896 152.391 71.0067 152.391 71.2928C152.391 71.5789 152.188 71.9343 151.941 72.0774C151.689 72.2204 151.49 72.1034 151.49 71.8173C151.49 71.5312 151.689 71.1801 151.941 71.0327Z" fill="#6BEAC7"></path> </g> <g opacity="0.3"> <path opacity="0.3" d="M155.465 69.0002C155.716 68.8571 155.915 68.9742 155.915 69.2603C155.915 69.5464 155.712 69.9018 155.465 70.0449C155.213 70.1879 155.014 70.0709 155.014 69.7848C155.009 69.4987 155.213 69.1476 155.465 69.0002Z" fill="#6BEAC7"></path> </g> <g opacity="0.3"> <path opacity="0.3" d="M158.985 69.0002C159.236 68.8571 159.435 68.9742 159.435 69.2603C159.435 69.5464 159.232 69.9018 158.985 70.0449C158.733 70.1879 158.534 70.0709 158.534 69.7848C158.534 69.4987 158.733 69.1476 158.985 69.0002Z" fill="#6BEAC7"></path> </g> <g opacity="0.3"> <path opacity="0.3" d="M162.505 66.9665C162.756 66.8234 162.955 66.9405 162.955 67.2266C162.955 67.517 162.752 67.8681 162.505 68.0112C162.253 68.1542 162.054 68.0372 162.054 67.7511C162.054 67.465 162.257 67.1139 162.505 66.9665Z" fill="#6BEAC7"></path> </g> <g opacity="0.3"> <path opacity="0.3" d="M166.029 66.9665C166.28 66.8234 166.48 66.9405 166.48 67.2266C166.48 67.517 166.276 67.8681 166.029 68.0112C165.778 68.1542 165.578 68.0372 165.578 67.7511C165.578 67.465 165.778 67.1139 166.029 66.9665Z" fill="#6BEAC7"></path> </g> </g> <g opacity="0.3"> <path opacity="0.3" d="M106.161 104.198C106.143 104.198 106.122 104.194 106.109 104.185C106.057 104.155 106.039 104.09 106.07 104.038L109.616 97.9214C109.633 97.8954 109.655 97.8781 109.685 97.8694L113.131 97.1325L116.629 89.8067C116.642 89.7806 116.664 89.759 116.694 89.7503C116.725 89.7416 116.755 89.746 116.781 89.759L120.266 91.7703L123.717 90.769L127.215 87.7389L130.73 83.6815C130.743 83.6642 130.761 83.6555 130.782 83.6469L134.281 82.6368L137.783 79.6025C137.805 79.5851 137.827 79.5765 137.853 79.5765H141.303L144.797 71.5094C144.81 71.4747 144.845 71.453 144.879 71.4443C144.914 71.44 144.953 71.453 144.979 71.479L148.417 75.4497L151.854 71.479C151.863 71.4703 151.871 71.4617 151.88 71.4573L155.413 69.4156C155.43 69.407 155.448 69.4026 155.465 69.4026H158.959L162.444 67.3913C162.461 67.3826 162.479 67.3783 162.496 67.3783H166.016C166.077 67.3783 166.124 67.4259 166.124 67.4866C166.124 67.5473 166.077 67.595 166.016 67.595H162.522L159.037 69.6064C159.019 69.615 159.002 69.6194 158.985 69.6194H155.491L151.997 71.6351L148.486 75.6881C148.443 75.7358 148.364 75.7358 148.321 75.6881L144.914 71.7521L141.459 79.7282C141.442 79.7672 141.403 79.7932 141.359 79.7932H137.879L134.389 82.8146C134.376 82.8232 134.363 82.8319 134.35 82.8363L130.86 83.8419L127.354 87.8863L123.825 90.9424C123.812 90.951 123.799 90.9597 123.786 90.9641L120.266 91.9827C120.236 91.9914 120.205 91.9871 120.184 91.9741L116.759 89.9974L113.287 97.2626C113.274 97.2929 113.244 97.3146 113.213 97.3232L109.763 98.0602L106.239 104.133C106.234 104.177 106.195 104.198 106.161 104.198Z" fill="#6BEAC7"></path> </g> </g> <path d="M108.003 88.4811L111.414 86.5044C111.587 86.4047 111.726 86.4741 111.726 86.6605C111.726 86.8469 111.587 87.0809 111.414 87.1806L108.003 89.1573C107.829 89.257 107.69 89.1877 107.69 89.0013C107.69 88.8105 107.833 88.5808 108.003 88.4811Z" fill="#E7E9F8"></path> <path d="M106.16 89.3351C106.412 89.192 106.611 89.3091 106.611 89.5952C106.611 89.8856 106.407 90.2367 106.16 90.3798C105.909 90.5228 105.71 90.4058 105.71 90.1197C105.705 89.8292 105.909 89.4781 106.16 89.3351Z" fill="#6BEAC7"></path> <path opacity="0.3" d="M106.16 89.3351C106.412 89.192 106.611 89.3091 106.611 89.5952C106.611 89.8856 106.407 90.2367 106.16 90.3798C105.909 90.5228 105.71 90.4058 105.71 90.1197C105.705 89.8292 105.909 89.4781 106.16 89.3351Z" fill="#6BEAC7"></path> <path d="M108.003 90.5052L111.414 88.5286C111.587 88.4289 111.726 88.4982 111.726 88.6846C111.726 88.871 111.587 89.1051 111.414 89.2048L108.003 91.1815C107.829 91.2812 107.69 91.2118 107.69 91.0211C107.69 90.839 107.833 90.6049 108.003 90.5052Z" fill="#E7E9F8"></path> <path d="M106.16 91.3666C106.412 91.2235 106.611 91.3406 106.611 91.6267C106.611 91.9171 106.407 92.2682 106.16 92.4113C105.909 92.5543 105.71 92.4373 105.71 92.1512C105.705 91.8608 105.909 91.5096 106.16 91.3666Z" fill="#6BEAC7"></path> <path d="M106.16 118.462C106.134 118.462 106.104 118.453 106.087 118.432C106.043 118.388 106.043 118.323 106.082 118.28L107.868 116.442L109.624 116.221L111.397 113.932L113.17 114.175L114.891 112.619L116.651 111.565L118.445 109.081L120.227 109.641L121.939 108.11C121.983 108.071 122.052 108.076 122.091 108.119C122.13 108.163 122.126 108.232 122.082 108.271L120.279 109.883L118.532 109.337L116.785 111.743L115.025 112.796L113.244 114.409L111.497 114.171L109.745 116.433L107.977 116.659L106.243 118.44C106.217 118.449 106.186 118.462 106.16 118.462Z" fill="#6BEAC7"></path> <path d="M106.859 112.513C106.872 112.5 106.885 112.487 106.902 112.474C106.919 112.461 106.937 112.448 106.95 112.439C107.045 112.383 107.136 112.357 107.214 112.357C107.297 112.357 107.366 112.387 107.427 112.435C107.487 112.487 107.531 112.561 107.565 112.656C107.6 112.751 107.617 112.868 107.617 113.003C107.617 113.137 107.6 113.272 107.565 113.41C107.531 113.545 107.487 113.675 107.427 113.796C107.366 113.917 107.297 114.026 107.214 114.121C107.132 114.217 107.045 114.295 106.95 114.347C106.854 114.403 106.763 114.429 106.681 114.429C106.599 114.429 106.529 114.399 106.469 114.347C106.408 114.295 106.365 114.221 106.33 114.126C106.295 114.03 106.278 113.913 106.278 113.779C106.278 113.701 106.282 113.627 106.295 113.553C106.308 113.48 106.321 113.41 106.339 113.341C106.356 113.272 106.378 113.207 106.399 113.137C106.421 113.072 106.443 113.007 106.464 112.946L106.932 111.611C106.941 111.594 106.95 111.572 106.963 111.546C106.971 111.52 106.989 111.503 107.015 111.486L107.162 111.399C107.179 111.39 107.188 111.39 107.201 111.403C107.21 111.416 107.214 111.434 107.214 111.455C107.214 111.468 107.214 111.481 107.21 111.49C107.205 111.499 107.205 111.507 107.201 111.516L106.859 112.513ZM106.525 113.64C106.525 113.718 106.534 113.787 106.555 113.848C106.577 113.909 106.603 113.956 106.638 113.991C106.672 114.026 106.716 114.043 106.772 114.047C106.824 114.052 106.885 114.034 106.95 113.995C107.015 113.956 107.075 113.909 107.127 113.844C107.179 113.779 107.223 113.709 107.262 113.636C107.297 113.558 107.327 113.48 107.344 113.397C107.362 113.315 107.375 113.233 107.375 113.155C107.375 113.076 107.366 113.007 107.344 112.946C107.323 112.886 107.297 112.838 107.262 112.803C107.227 112.769 107.179 112.751 107.127 112.747C107.075 112.743 107.015 112.76 106.95 112.799C106.885 112.838 106.824 112.886 106.772 112.951C106.72 113.016 106.677 113.085 106.638 113.159C106.603 113.237 106.573 113.315 106.555 113.397C106.538 113.48 106.525 113.562 106.525 113.64Z" fill="#737688"></path> <path d="M108.055 113.003C108.064 113.042 108.077 113.077 108.09 113.107C108.107 113.142 108.129 113.163 108.159 113.181C108.19 113.198 108.233 113.198 108.281 113.194C108.333 113.185 108.398 113.159 108.48 113.111C108.532 113.081 108.584 113.042 108.632 112.994C108.679 112.947 108.723 112.89 108.757 112.83C108.792 112.765 108.822 112.7 108.844 112.622C108.866 112.548 108.874 112.466 108.874 112.379C108.874 112.292 108.866 112.227 108.844 112.179C108.822 112.132 108.796 112.101 108.762 112.084C108.727 112.067 108.684 112.067 108.636 112.08C108.588 112.093 108.536 112.114 108.48 112.145L108.268 112.27C108.25 112.283 108.233 112.279 108.22 112.266C108.207 112.253 108.198 112.231 108.198 112.201V112.058C108.198 112.032 108.203 112.01 108.211 111.984C108.22 111.958 108.229 111.937 108.237 111.915L108.701 110.879L107.96 111.308C107.942 111.321 107.925 111.317 107.912 111.304C107.899 111.291 107.89 111.269 107.89 111.239V111.096C107.89 111.065 107.899 111.039 107.912 111.009C107.925 110.979 107.942 110.961 107.96 110.948L108.974 110.363C108.991 110.35 109.009 110.354 109.022 110.367C109.035 110.38 109.043 110.402 109.043 110.432V110.576C109.043 110.602 109.039 110.623 109.03 110.654C109.022 110.68 109.009 110.71 108.996 110.74L108.541 111.763C108.627 111.716 108.705 111.69 108.775 111.69C108.844 111.685 108.905 111.707 108.957 111.746C109.009 111.785 109.048 111.85 109.074 111.932C109.104 112.015 109.117 112.119 109.117 112.244C109.117 112.379 109.1 112.509 109.065 112.639C109.03 112.765 108.983 112.882 108.926 112.99C108.87 113.094 108.801 113.189 108.723 113.276C108.645 113.363 108.562 113.428 108.476 113.48C108.359 113.545 108.263 113.584 108.177 113.588C108.094 113.597 108.025 113.58 107.968 113.545C107.916 113.51 107.873 113.458 107.847 113.389C107.821 113.319 107.808 113.246 107.804 113.159C107.804 113.133 107.808 113.111 107.821 113.085C107.834 113.064 107.847 113.046 107.86 113.038L107.977 112.968C107.994 112.955 108.012 112.955 108.02 112.968C108.042 112.968 108.051 112.986 108.055 113.003Z" fill="#737688"></path> <path d="M109.59 112.119C109.598 112.158 109.611 112.192 109.624 112.227C109.642 112.262 109.663 112.283 109.694 112.301C109.724 112.318 109.768 112.318 109.815 112.309C109.867 112.301 109.932 112.275 110.015 112.227C110.067 112.197 110.119 112.158 110.166 112.11C110.214 112.062 110.257 112.006 110.292 111.945C110.327 111.88 110.357 111.811 110.379 111.737C110.4 111.663 110.409 111.581 110.409 111.494C110.409 111.408 110.4 111.343 110.379 111.295C110.357 111.247 110.331 111.217 110.296 111.2C110.262 111.182 110.218 111.182 110.171 111.195C110.123 111.208 110.071 111.23 110.015 111.26L109.802 111.386C109.785 111.395 109.768 111.395 109.755 111.382C109.742 111.369 109.733 111.347 109.733 111.317V111.174C109.733 111.152 109.737 111.126 109.746 111.1C109.755 111.074 109.763 111.052 109.772 111.031L110.236 109.995L109.494 110.424C109.477 110.437 109.46 110.432 109.447 110.419C109.434 110.406 109.425 110.385 109.425 110.354V110.211C109.425 110.181 109.434 110.155 109.447 110.125C109.46 110.094 109.477 110.077 109.494 110.064L110.509 109.479C110.526 109.466 110.543 109.47 110.556 109.483C110.569 109.496 110.578 109.518 110.578 109.548V109.691C110.578 109.717 110.574 109.739 110.565 109.769C110.556 109.795 110.543 109.826 110.53 109.856L110.075 110.879C110.162 110.831 110.24 110.805 110.309 110.805C110.383 110.801 110.444 110.823 110.491 110.862C110.543 110.901 110.582 110.966 110.608 111.048C110.639 111.13 110.652 111.234 110.652 111.36C110.652 111.494 110.634 111.624 110.6 111.755C110.565 111.88 110.517 111.997 110.461 112.106C110.405 112.214 110.335 112.305 110.257 112.392C110.179 112.478 110.097 112.543 110.01 112.595C109.893 112.66 109.794 112.699 109.711 112.704C109.629 112.712 109.559 112.695 109.503 112.66C109.451 112.626 109.408 112.574 109.382 112.504C109.356 112.435 109.343 112.361 109.338 112.275C109.338 112.249 109.343 112.227 109.356 112.201C109.369 112.179 109.382 112.162 109.395 112.153L109.512 112.084C109.529 112.071 109.546 112.075 109.555 112.084C109.577 112.084 109.585 112.101 109.59 112.119Z" fill="#737688"></path> <path d="M106.477 119.861L121.692 111.044C121.866 110.944 122.004 111.014 122.004 111.2C122.004 111.386 121.866 111.621 121.692 111.72L106.477 120.537C106.304 120.637 106.165 120.568 106.165 120.381C106.165 120.19 106.308 119.961 106.477 119.861Z" fill="#E7E9F8"></path> <path d="M106.477 109.688L109.889 107.711C110.062 107.611 110.201 107.681 110.201 107.867C110.201 108.053 110.062 108.288 109.889 108.387L106.477 110.364C106.304 110.464 106.165 110.394 106.165 110.208C106.165 110.021 106.308 109.787 106.477 109.688Z" fill="#E7E9F8"></path> <path d="M106.16 130.649C106.134 130.649 106.104 130.641 106.087 130.619C106.043 130.575 106.043 130.51 106.082 130.467L107.868 128.629L109.633 128.404L111.41 126.848L113.122 126.379L114.908 122.82L116.698 123.696L118.428 122.175L118.458 122.17L120.175 121.845L121.909 118.85C121.939 118.798 122.004 118.78 122.056 118.811C122.108 118.841 122.126 118.906 122.095 118.958L120.314 122.04L118.528 122.378L116.733 123.956L115.004 123.111L113.27 126.566L111.488 127.051L109.719 128.612L107.964 128.833L106.23 130.615C106.217 130.636 106.186 130.649 106.16 130.649Z" fill="#6BEAC7"></path> <g opacity="0.3"> <path opacity="0.3" d="M106.16 130.649C106.134 130.649 106.104 130.641 106.087 130.619C106.043 130.575 106.043 130.51 106.082 130.467L107.868 128.629L109.633 128.404L111.41 126.848L113.122 126.379L114.908 122.82L116.698 123.696L118.428 122.175L118.458 122.17L120.175 121.845L121.909 118.85C121.939 118.798 122.004 118.78 122.056 118.811C122.108 118.841 122.126 118.906 122.095 118.958L120.314 122.04L118.528 122.378L116.733 123.956L115.004 123.111L113.27 126.566L111.488 127.051L109.719 128.612L107.964 128.833L106.23 130.615C106.217 130.636 106.186 130.649 106.16 130.649Z" fill="#6BEAC7"></path> </g> <path d="M107.058 126.327C107.058 126.358 107.049 126.384 107.036 126.414C107.023 126.444 107.006 126.462 106.989 126.475L106.885 126.535C106.867 126.548 106.85 126.544 106.837 126.531C106.824 126.518 106.815 126.496 106.815 126.466V124.281L106.399 125.01C106.382 125.04 106.364 125.057 106.347 125.062C106.33 125.066 106.312 125.062 106.299 125.049L106.239 124.962C106.226 124.945 106.221 124.923 106.226 124.888C106.23 124.858 106.239 124.827 106.252 124.801L106.802 123.83C106.815 123.809 106.828 123.791 106.846 123.778C106.859 123.77 106.872 123.761 106.885 123.752L106.989 123.692C107.006 123.679 107.023 123.683 107.036 123.696C107.049 123.709 107.058 123.731 107.058 123.761V126.327Z" fill="#737688"></path> <path d="M108.185 124.324C108.237 124.224 108.276 124.129 108.302 124.038C108.328 123.947 108.341 123.843 108.341 123.726C108.341 123.587 108.315 123.483 108.263 123.418C108.211 123.357 108.125 123.357 108.012 123.422C107.951 123.457 107.899 123.5 107.86 123.548C107.817 123.6 107.782 123.656 107.756 123.717C107.73 123.778 107.704 123.847 107.691 123.916C107.674 123.986 107.661 124.055 107.652 124.125C107.648 124.155 107.639 124.185 107.626 124.207C107.613 124.229 107.6 124.246 107.587 124.255L107.47 124.324C107.453 124.333 107.44 124.333 107.431 124.32C107.418 124.307 107.414 124.289 107.414 124.268C107.414 124.168 107.431 124.06 107.457 123.942C107.483 123.825 107.522 123.713 107.574 123.6C107.626 123.487 107.687 123.383 107.765 123.288C107.839 123.193 107.925 123.115 108.021 123.063C108.116 123.006 108.198 122.984 108.272 122.984C108.346 122.989 108.406 123.015 108.454 123.063C108.502 123.11 108.541 123.18 108.562 123.271C108.588 123.362 108.601 123.461 108.601 123.578C108.601 123.665 108.597 123.743 108.588 123.817C108.58 123.89 108.567 123.964 108.545 124.038C108.523 124.112 108.502 124.185 108.467 124.263C108.437 124.337 108.398 124.419 108.354 124.506L107.778 125.663L108.567 125.208C108.584 125.195 108.601 125.2 108.614 125.213C108.627 125.226 108.636 125.247 108.636 125.278V125.421C108.636 125.451 108.627 125.477 108.614 125.507C108.601 125.538 108.584 125.555 108.567 125.568L107.457 126.21C107.44 126.223 107.422 126.218 107.409 126.205C107.396 126.192 107.388 126.171 107.388 126.14V125.997C107.388 125.967 107.392 125.941 107.401 125.915C107.409 125.889 107.422 125.854 107.444 125.815L108.185 124.324Z" fill="#737688"></path> <path d="M110.223 122.889C110.223 123.007 110.227 123.119 110.227 123.223C110.227 123.327 110.227 123.44 110.223 123.561C110.223 123.717 110.205 123.869 110.179 124.017C110.153 124.164 110.114 124.303 110.058 124.433C110.006 124.563 109.936 124.675 109.854 124.779C109.772 124.883 109.676 124.966 109.564 125.031C109.451 125.096 109.351 125.126 109.273 125.118C109.191 125.109 109.126 125.07 109.069 125.005C109.017 124.94 108.974 124.844 108.948 124.727C108.922 124.61 108.909 124.476 108.905 124.32C108.905 124.203 108.9 124.09 108.9 123.986C108.9 123.882 108.9 123.769 108.905 123.648C108.905 123.492 108.922 123.34 108.948 123.193C108.974 123.046 109.013 122.907 109.069 122.777C109.121 122.647 109.191 122.53 109.273 122.43C109.356 122.326 109.451 122.239 109.564 122.174C109.676 122.109 109.776 122.083 109.854 122.092C109.936 122.101 110.001 122.14 110.058 122.209C110.11 122.274 110.149 122.369 110.179 122.486C110.21 122.599 110.223 122.733 110.223 122.889ZM109.152 124.177C109.156 124.424 109.191 124.589 109.26 124.667C109.33 124.745 109.434 124.745 109.564 124.667C109.698 124.589 109.798 124.472 109.867 124.311C109.936 124.151 109.975 123.947 109.975 123.691C109.975 123.57 109.98 123.457 109.98 123.353C109.98 123.249 109.98 123.137 109.975 123.02C109.971 122.768 109.936 122.603 109.867 122.525C109.798 122.447 109.698 122.443 109.564 122.521C109.429 122.599 109.33 122.716 109.26 122.876C109.191 123.037 109.152 123.245 109.152 123.496C109.152 123.618 109.147 123.73 109.147 123.834C109.152 123.947 109.152 124.06 109.152 124.177Z" fill="#737688"></path> <path d="M106.477 132.045L121.692 123.228C121.866 123.128 122.004 123.198 122.004 123.384C122.004 123.57 121.866 123.804 121.692 123.904L106.477 132.721C106.304 132.821 106.165 132.751 106.165 132.565C106.165 132.379 106.308 132.145 106.477 132.045Z" fill="#E7E9F8"></path> <path d="M106.477 121.875L109.889 119.898C110.062 119.799 110.201 119.868 110.201 120.054C110.201 120.241 110.062 120.475 109.889 120.575L106.477 122.551C106.304 122.651 106.165 122.582 106.165 122.391C106.165 122.204 106.308 121.975 106.477 121.875Z" fill="#E7E9F8"></path> <path d="M127.289 106.237C127.258 106.237 127.223 106.224 127.202 106.198C127.163 106.15 127.171 106.081 127.219 106.046L128.979 104.642L130.752 102.617L132.551 102.357L134.268 101.971L136.045 99.8734L137.796 100.181L139.552 97.4026L141.333 97.4329L143.059 95.8897C143.102 95.8507 143.171 95.855 143.21 95.8984C143.249 95.9417 143.245 96.0111 143.202 96.0501L141.411 97.6497L139.664 97.6193L137.896 100.42L136.123 100.108L134.38 102.167L132.586 102.57L130.856 102.821L129.122 104.802L127.349 106.22C127.336 106.228 127.315 106.237 127.289 106.237Z" fill="#6BEAC7"></path> <path d="M127.987 100.287C128 100.274 128.013 100.261 128.03 100.248C128.047 100.235 128.065 100.222 128.078 100.214C128.173 100.157 128.264 100.131 128.342 100.131C128.424 100.131 128.494 100.162 128.554 100.209C128.615 100.261 128.659 100.335 128.693 100.43C128.728 100.526 128.745 100.643 128.745 100.777C128.745 100.912 128.728 101.046 128.693 101.185C128.659 101.319 128.615 101.449 128.554 101.57C128.494 101.692 128.424 101.8 128.342 101.896C128.26 101.991 128.173 102.069 128.078 102.121C127.982 102.177 127.891 102.203 127.809 102.203C127.727 102.203 127.657 102.173 127.596 102.121C127.536 102.069 127.492 101.995 127.458 101.9C127.423 101.804 127.406 101.687 127.406 101.553C127.406 101.475 127.41 101.401 127.423 101.328C127.436 101.254 127.449 101.185 127.466 101.115C127.484 101.046 127.505 100.981 127.527 100.912C127.549 100.846 127.57 100.781 127.592 100.721L128.06 99.3856C128.069 99.3683 128.078 99.3466 128.091 99.3206C128.099 99.2946 128.117 99.2773 128.143 99.2599L128.29 99.1732C128.307 99.1646 128.316 99.1646 128.329 99.1776C128.338 99.1906 128.342 99.2079 128.342 99.2296C128.342 99.2426 128.342 99.2556 128.338 99.2643C128.333 99.2729 128.333 99.2816 128.329 99.2903L127.987 100.287ZM127.657 101.414C127.657 101.492 127.666 101.562 127.688 101.622C127.709 101.683 127.735 101.731 127.77 101.765C127.805 101.8 127.848 101.817 127.904 101.822C127.956 101.826 128.017 101.809 128.082 101.77C128.147 101.731 128.208 101.683 128.26 101.618C128.312 101.553 128.355 101.484 128.394 101.41C128.429 101.332 128.459 101.254 128.476 101.172C128.494 101.089 128.507 101.007 128.507 100.929C128.507 100.851 128.498 100.781 128.476 100.721C128.455 100.66 128.429 100.612 128.394 100.578C128.359 100.543 128.312 100.526 128.26 100.521C128.208 100.517 128.147 100.534 128.082 100.573C128.017 100.612 127.956 100.66 127.904 100.725C127.852 100.79 127.809 100.859 127.77 100.933C127.735 101.011 127.705 101.089 127.688 101.172C127.666 101.254 127.657 101.336 127.657 101.414Z" fill="#737688"></path> <path d="M129.773 99.6507C129.825 99.551 129.864 99.4557 129.89 99.3646C129.916 99.2736 129.929 99.1696 129.929 99.0525C129.929 98.9138 129.903 98.8098 129.851 98.7448C129.799 98.6841 129.712 98.6841 129.599 98.7491C129.539 98.7838 129.487 98.8271 129.448 98.8748C129.404 98.9268 129.37 98.9832 129.343 99.0439C129.313 99.1045 129.291 99.1739 129.274 99.2433C129.257 99.3126 129.244 99.382 129.235 99.4513C129.231 99.4817 129.222 99.512 129.209 99.5337C129.196 99.5554 129.183 99.5727 129.17 99.5814L129.053 99.6507C129.036 99.6594 129.023 99.6594 129.014 99.6464C129.001 99.6334 128.997 99.6161 128.997 99.5944C128.997 99.4947 129.014 99.3863 129.04 99.2693C129.066 99.1522 129.109 99.0395 129.157 98.9268C129.209 98.8141 129.27 98.7101 129.348 98.6147C129.422 98.5193 129.508 98.4413 129.604 98.3893C129.699 98.3329 129.781 98.3113 129.855 98.3113C129.929 98.3156 129.985 98.3416 130.037 98.3893C130.085 98.437 130.124 98.5063 130.145 98.5974C130.171 98.6884 130.184 98.7881 130.184 98.9051C130.184 98.9918 130.18 99.0699 130.171 99.1436C130.163 99.2172 130.15 99.2909 130.128 99.3646C130.111 99.4383 130.085 99.512 130.05 99.59C130.02 99.6637 129.981 99.7461 129.937 99.8328L129.361 100.99L130.15 100.535C130.167 100.522 130.184 100.526 130.197 100.539C130.21 100.552 130.219 100.574 130.219 100.604V100.747C130.219 100.778 130.21 100.804 130.197 100.834C130.184 100.864 130.167 100.882 130.15 100.895L129.04 101.536C129.023 101.549 129.005 101.545 128.992 101.532C128.979 101.519 128.971 101.497 128.971 101.467V101.324C128.971 101.294 128.975 101.268 128.984 101.242C128.992 101.216 129.005 101.181 129.027 101.142L129.773 99.6507Z" fill="#737688"></path> <path d="M131.524 97.3231C131.541 97.3101 131.558 97.3144 131.571 97.3274C131.584 97.3404 131.593 97.3621 131.593 97.3925V97.5355C131.593 97.5572 131.589 97.5875 131.584 97.6135C131.58 97.6439 131.571 97.6742 131.563 97.7089L130.991 100.314C130.982 100.34 130.973 100.37 130.965 100.396C130.952 100.422 130.939 100.44 130.917 100.453L130.8 100.522C130.782 100.531 130.769 100.531 130.756 100.518C130.743 100.505 130.739 100.487 130.739 100.461C130.739 100.457 130.739 100.448 130.739 100.444C130.739 100.435 130.743 100.427 130.748 100.409L131.324 97.7999L130.479 98.2898C130.462 98.3028 130.444 98.2984 130.431 98.2854C130.418 98.2724 130.41 98.2507 130.41 98.2204V98.0773C130.41 98.047 130.418 98.021 130.431 97.9906C130.444 97.9603 130.462 97.943 130.479 97.93L131.524 97.3231Z" fill="#737688"></path> <path d="M127.609 107.637L142.825 98.82C142.998 98.7203 143.137 98.7896 143.137 98.976C143.137 99.1624 142.998 99.3965 142.825 99.4962L127.609 108.313C127.436 108.413 127.297 108.344 127.297 108.153C127.297 107.966 127.436 107.737 127.609 107.637Z" fill="#E7E9F8"></path> <path d="M127.609 97.4627L131.021 95.486C131.194 95.3863 131.333 95.4557 131.333 95.6464C131.333 95.8328 131.194 96.0669 131.021 96.1666L127.609 98.1433C127.436 98.243 127.297 98.1736 127.297 97.9829C127.297 97.7965 127.436 97.5624 127.609 97.4627Z" fill="#E7E9F8"></path> <path d="M127.288 118.422C127.271 118.422 127.249 118.417 127.232 118.404C127.18 118.374 127.163 118.305 127.197 118.257L128.996 115.305L130.804 115.639L132.507 115.175L134.267 113.025L136.019 112.583L137.8 109.41L139.621 109.938L141.329 109.613L143.063 108.07C143.106 108.031 143.175 108.035 143.214 108.079C143.253 108.122 143.249 108.192 143.206 108.231L141.428 109.813L141.398 109.817L139.608 110.155L137.904 109.661L136.162 112.765L134.389 113.211L132.629 115.357L132.594 115.366L130.808 115.851L130.782 115.847L129.096 115.535L127.375 118.357C127.362 118.404 127.327 118.422 127.288 118.422Z" fill="#6BEAC7"></path> <g opacity="0.3"> <path opacity="0.3" d="M127.288 118.422C127.271 118.422 127.249 118.417 127.232 118.404C127.18 118.374 127.163 118.305 127.197 118.257L128.996 115.305L130.804 115.639L132.507 115.175L134.267 113.025L136.019 112.583L137.8 109.41L139.621 109.938L141.329 109.613L143.063 108.07C143.106 108.031 143.175 108.035 143.214 108.079C143.253 108.122 143.249 108.192 143.206 108.231L141.428 109.813L141.398 109.817L139.608 110.155L137.904 109.661L136.162 112.765L134.389 113.211L132.629 115.357L132.594 115.366L130.808 115.851L130.782 115.847L129.096 115.535L127.375 118.357C127.362 118.404 127.327 118.422 127.288 118.422Z" fill="#6BEAC7"></path> </g> <path d="M128.103 113.311C128.095 113.32 128.082 113.329 128.069 113.337C128.051 113.346 128.043 113.355 128.034 113.359C127.952 113.407 127.869 113.433 127.796 113.437C127.718 113.441 127.648 113.42 127.588 113.376C127.527 113.333 127.479 113.264 127.44 113.168C127.401 113.073 127.384 112.952 127.384 112.8C127.384 112.665 127.401 112.531 127.436 112.397C127.47 112.262 127.518 112.137 127.575 112.02C127.635 111.903 127.7 111.799 127.783 111.703C127.861 111.612 127.943 111.538 128.03 111.486C128.129 111.43 128.22 111.4 128.298 111.404C128.376 111.404 128.446 111.43 128.502 111.482C128.559 111.534 128.602 111.608 128.632 111.703C128.663 111.799 128.676 111.916 128.676 112.05C128.676 112.115 128.671 112.189 128.654 112.262C128.641 112.336 128.624 112.414 128.602 112.488C128.58 112.561 128.559 112.635 128.533 112.709C128.507 112.783 128.485 112.848 128.467 112.908L127.999 114.243C127.991 114.261 127.982 114.282 127.969 114.308C127.96 114.334 127.943 114.356 127.917 114.369L127.77 114.456C127.752 114.464 127.744 114.464 127.731 114.451C127.722 114.438 127.718 114.421 127.718 114.399C127.718 114.386 127.718 114.373 127.722 114.365C127.726 114.356 127.726 114.347 127.731 114.339L128.103 113.311ZM128.437 112.189C128.437 112.106 128.428 112.037 128.407 111.976C128.385 111.916 128.359 111.872 128.324 111.838C128.29 111.807 128.246 111.79 128.199 111.79C128.151 111.79 128.095 111.807 128.038 111.842C127.978 111.877 127.926 111.924 127.874 111.981C127.826 112.037 127.783 112.102 127.748 112.176C127.713 112.245 127.687 112.323 127.666 112.405C127.644 112.488 127.635 112.57 127.635 112.652C127.635 112.739 127.644 112.809 127.666 112.869C127.683 112.93 127.713 112.973 127.748 113.004C127.783 113.034 127.826 113.051 127.874 113.051C127.921 113.051 127.978 113.034 128.038 112.999C128.095 112.965 128.151 112.921 128.199 112.861C128.251 112.804 128.29 112.739 128.324 112.665C128.359 112.592 128.385 112.518 128.407 112.436C128.428 112.358 128.437 112.275 128.437 112.189Z" fill="#737688"></path> <path d="M129.105 113.013C129.114 113.052 129.127 113.086 129.14 113.121C129.157 113.156 129.179 113.177 129.209 113.195C129.239 113.212 129.283 113.212 129.33 113.203C129.382 113.195 129.447 113.169 129.53 113.121C129.582 113.091 129.634 113.052 129.682 113.004C129.729 112.956 129.773 112.9 129.807 112.839C129.842 112.774 129.872 112.705 129.894 112.631C129.916 112.558 129.929 112.475 129.929 112.388C129.929 112.302 129.92 112.237 129.898 112.189C129.877 112.141 129.851 112.111 129.816 112.094C129.781 112.076 129.738 112.076 129.69 112.089C129.643 112.102 129.59 112.124 129.534 112.154L129.322 112.28C129.304 112.293 129.287 112.289 129.274 112.276C129.261 112.263 129.252 112.241 129.252 112.211V112.068C129.252 112.042 129.257 112.02 129.265 111.994C129.274 111.968 129.283 111.946 129.291 111.925L129.755 110.889L129.014 111.318C128.997 111.331 128.979 111.326 128.966 111.313C128.953 111.3 128.945 111.279 128.945 111.248V111.105C128.945 111.075 128.953 111.049 128.966 111.019C128.979 110.988 128.997 110.971 129.014 110.958L130.028 110.373C130.046 110.36 130.063 110.364 130.076 110.377C130.089 110.39 130.098 110.412 130.098 110.442V110.585C130.098 110.607 130.093 110.633 130.085 110.663C130.076 110.689 130.063 110.72 130.05 110.75L129.595 111.773C129.682 111.725 129.76 111.699 129.829 111.699C129.903 111.695 129.963 111.717 130.011 111.756C130.063 111.795 130.102 111.86 130.128 111.942C130.154 112.024 130.171 112.128 130.171 112.254C130.171 112.389 130.154 112.519 130.119 112.649C130.085 112.774 130.037 112.891 129.981 113C129.924 113.104 129.855 113.199 129.777 113.286C129.699 113.373 129.617 113.438 129.53 113.49C129.413 113.555 129.313 113.594 129.231 113.598C129.148 113.607 129.079 113.589 129.023 113.555C128.971 113.52 128.927 113.468 128.901 113.399C128.875 113.329 128.862 113.255 128.858 113.169C128.858 113.143 128.862 113.121 128.875 113.095C128.888 113.073 128.901 113.056 128.914 113.047L129.031 112.978C129.049 112.965 129.066 112.965 129.075 112.978C129.096 112.978 129.105 112.995 129.105 113.013Z" fill="#737688"></path> <path d="M127.609 119.823L142.824 111.006C142.998 110.906 143.136 110.976 143.136 111.162C143.136 111.348 142.998 111.582 142.824 111.682L127.609 120.499C127.436 120.599 127.297 120.529 127.297 120.343C127.297 120.157 127.436 119.923 127.609 119.823Z" fill="#E7E9F8"></path> <path d="M127.609 109.653L131.02 107.676C131.194 107.576 131.333 107.646 131.333 107.832C131.333 108.018 131.194 108.253 131.02 108.352L127.609 110.329C127.436 110.429 127.297 110.359 127.297 110.173C127.297 109.982 127.436 109.752 127.609 109.653Z" fill="#E7E9F8"></path> <path d="M150.181 86.4474C150.931 86.0139 151.625 85.9922 152.188 86.3L150.181 91.7098V86.4474Z" fill="#5AB0FF"></path> <path d="M148.174 88.6152C148.737 87.6572 149.431 86.8813 150.181 86.4478V91.7103L148.174 88.6152Z" fill="#6BEAC7"></path> <path d="M146.93 91.9615C147.155 90.7651 147.597 89.5947 148.174 88.615L150.181 91.71L146.93 91.9615Z" fill="#6BEAC7"></path> <path opacity="0.3" d="M148.174 88.6152C147.597 89.5949 147.155 90.7653 146.93 91.9617L150.181 91.7103V86.4478C149.431 86.8813 148.737 87.6572 148.174 88.6152Z" fill="#5AB0FF"></path> <path d="M152.188 86.3C152.765 86.6121 153.207 87.271 153.432 88.2117L150.181 91.7142L152.188 86.3Z" fill="#5AB0FF"></path> <path d="M146.93 95.2129C146.821 94.762 146.761 94.2505 146.761 93.6827C146.761 93.1148 146.821 92.5339 146.93 91.9617L150.181 91.7103L146.93 95.2129Z" fill="#6BEAC7"></path> <path d="M153.432 91.4586C153.207 92.655 152.765 93.8254 152.188 94.8051L150.181 91.71L153.432 91.4586Z" fill="#6BEAC7"></path> <path d="M150.181 96.9728C149.431 97.4063 148.737 97.428 148.174 97.1202L150.181 91.7103V96.9728Z" fill="#6BEAC7"></path> <path d="M146.93 95.2129L150.181 91.7103L148.174 97.1202C147.597 96.8081 147.155 96.1492 146.93 95.2129Z" fill="#6BEAC7"></path> <path d="M153.432 88.2067C153.541 88.6575 153.601 89.169 153.601 89.7369C153.601 90.3048 153.541 90.8856 153.432 91.4578L150.181 91.7093L153.432 88.2067Z" fill="#5AB0FF"></path> <path d="M152.188 94.8054C151.625 95.7634 150.931 96.5393 150.181 96.9728V91.7103L152.188 94.8054Z" fill="#6BEAC7"></path> <path d="M148.478 99.656L151.889 97.6793C152.063 97.5796 152.201 97.649 152.201 97.8397C152.201 98.0305 152.063 98.2602 151.889 98.3599L148.478 100.337C148.304 100.436 148.166 100.367 148.166 100.176C148.166 99.9855 148.304 99.7557 148.478 99.656Z" fill="#737688"></path> <path d="M147.723 102.131L152.639 99.2786C152.812 99.1789 152.951 99.2482 152.951 99.4346C152.951 99.621 152.812 99.8551 152.639 99.9548L147.723 102.807C147.55 102.907 147.411 102.837 147.411 102.651C147.411 102.46 147.55 102.231 147.723 102.131Z" fill="#E7E9F8"></path> <path d="M147.723 104.168L152.639 101.316C152.812 101.216 152.951 101.285 152.951 101.472C152.951 101.658 152.812 101.892 152.639 101.992L147.723 104.844C147.55 104.944 147.411 104.874 147.411 104.688C147.411 104.497 147.55 104.268 147.723 104.168Z" fill="#E7E9F8"></path> <path d="M147.723 106.206L152.639 103.354C152.812 103.254 152.951 103.323 152.951 103.51C152.951 103.696 152.812 103.93 152.639 104.03L147.723 106.882C147.55 106.982 147.411 106.912 147.411 106.726C147.411 106.54 147.55 106.306 147.723 106.206Z" fill="#E7E9F8"></path> <path d="M162.504 79.3041C163.254 78.8706 163.948 78.8489 164.511 79.1567L162.504 84.5665V79.3041Z" fill="#5AB0FF"></path> <path d="M160.498 81.4719C161.061 80.5139 161.755 79.738 162.505 79.3045V84.567L160.498 81.4719Z" fill="#6BEAC7"></path> <path d="M159.258 84.8181C159.483 83.6217 159.925 82.4513 160.502 81.4717L162.509 84.5667L159.258 84.8181Z" fill="#6BEAC7"></path> <path d="M164.511 79.1567C165.088 79.4688 165.53 80.1277 165.756 81.0684L162.504 84.5709L164.511 79.1567Z" fill="#5AB0FF"></path> <path d="M159.258 88.0696C159.15 87.6187 159.089 87.1072 159.089 86.5394C159.089 85.9715 159.15 85.3906 159.258 84.8184L162.509 84.567L159.258 88.0696Z" fill="#6BEAC7"></path> <path d="M165.756 84.3153C165.53 85.5117 165.088 86.6821 164.511 87.6617L162.504 84.5667L165.756 84.3153Z" fill="#6BEAC7"></path> <path d="M162.505 89.8295C161.755 90.263 161.061 90.2847 160.498 89.9769L162.505 84.567V89.8295Z" fill="#6BEAC7"></path> <path d="M159.258 88.0696L162.509 84.567L160.502 89.9769C159.921 89.6648 159.483 89.0059 159.258 88.0696Z" fill="#6BEAC7"></path> <path opacity="0.3" d="M160.498 81.4719C159.921 82.4516 159.479 83.622 159.254 84.8184C159.145 85.3949 159.084 85.9714 159.084 86.5393C159.084 87.1072 159.145 87.6187 159.254 88.0695C159.479 89.0058 159.921 89.6647 160.498 89.9812L162.505 84.5713V79.3045C161.755 79.738 161.065 80.5139 160.498 81.4719Z" fill="#6BEAC7"></path> <path d="M165.756 81.0634C165.864 81.5142 165.925 82.0257 165.925 82.5936C165.925 83.1615 165.864 83.7423 165.756 84.3145L162.504 84.5659L165.756 81.0634Z" fill="#6BEAC7"></path> <path d="M164.511 87.6621C163.948 88.6201 163.254 89.396 162.504 89.8295V84.567L164.511 87.6621Z" fill="#6BEAC7"></path> <path d="M160.801 92.5384L164.212 90.5617C164.386 90.462 164.524 90.5314 164.524 90.7178C164.524 90.9042 164.386 91.1382 164.212 91.2379L160.801 93.2146C160.627 93.3143 160.489 93.245 160.489 93.0542C160.489 92.8722 160.627 92.6381 160.801 92.5384Z" fill="#737688"></path> <path d="M160.051 95.013L164.967 92.1607C165.14 92.061 165.279 92.1304 165.279 92.3211C165.279 92.5075 165.14 92.7416 164.967 92.8413L160.051 95.6936C159.878 95.7933 159.739 95.7239 159.739 95.5375C159.735 95.3468 159.878 95.1127 160.051 95.013Z" fill="#E7E9F8"></path> <path d="M160.051 97.0512L164.967 94.1989C165.14 94.0992 165.279 94.1685 165.279 94.3549C165.279 94.5413 165.14 94.7754 164.967 94.8751L160.051 97.7274C159.878 97.8271 159.739 97.7577 159.739 97.567C159.735 97.3849 159.878 97.1509 160.051 97.0512Z" fill="#E7E9F8"></path> <path d="M160.051 99.0881L164.967 96.2358C165.14 96.1361 165.279 96.2054 165.279 96.3918C165.279 96.5782 165.14 96.8123 164.967 96.912L160.051 99.7643C159.878 99.864 159.739 99.7947 159.739 99.6039C159.735 99.4219 159.878 99.1878 160.051 99.0881Z" fill="#E7E9F8"></path> </svg> 