<?xml version="1.0" encoding="UTF-8"?> <svg xmlns="http://www.w3.org/2000/svg" width="226" height="226" viewBox="0 0 226 226" fill="none"> <path d="M84.6943 29.205C131.092 13.4906 181.442 38.3687 197.155 84.7719C212.867 131.175 187.992 181.531 141.594 197.246C95.1968 212.96 44.8464 188.082 29.1339 141.679C13.4213 95.2756 38.2966 44.9194 84.6943 29.205Z" fill="white"></path> <path d="M61.2153 96.0842L58.9653 96.0842L58.9653 108.684L61.3773 108.684L68.2891 99.1262L68.2891 108.684L70.5391 108.684L70.5391 96.0842L68.0911 96.0842L61.2153 105.498L61.2153 96.0842ZM79.6324 108.684L81.7384 108.684L81.7384 99.6843L79.6324 99.6843L79.6324 103.194L75.5645 103.194L75.5645 99.6843L73.4585 99.6843L73.4585 108.684L75.5645 108.684L75.5645 105.048L79.6324 105.048L79.6324 108.684ZM86.3384 108.684L88.4263 108.684L88.4263 101.538L91.3423 101.538L91.3423 99.6843L83.4585 99.6843L83.4585 101.538L86.3384 101.538L86.3384 108.684ZM100.509 107.784L100.509 105.624C100.023 106.416 98.9252 107.046 97.2692 107.046C95.6312 107.046 94.7133 106.29 94.5513 104.796L101.229 104.796L101.229 103.932C101.229 101.106 99.6632 99.5043 97.0532 99.4863C94.3353 99.4863 92.4633 101.16 92.4633 104.148C92.4633 107.244 94.2273 108.882 97.1972 108.864C98.8352 108.882 100.077 108.288 100.509 107.784ZM96.9992 101.322C98.2772 101.322 99.0692 102.078 99.1232 103.302L94.5873 103.302C94.8033 102.006 95.6492 101.322 96.9992 101.322ZM103.165 108.684L105.271 108.684L105.271 101.538L109.627 101.538L109.627 99.6843L103.165 99.6843L103.165 108.684ZM111.673 112.159L113.779 112.159L113.779 107.316C114.228 108.162 115.218 108.882 116.658 108.882C119.124 108.882 120.726 107.532 120.726 103.986C120.726 100.836 119.124 99.5043 116.838 99.5043C114.93 99.5043 113.977 100.548 113.653 101.556L113.653 99.6843L111.673 99.6843L111.673 112.159ZM113.779 103.806C113.815 102.294 114.57 101.376 116.226 101.376C117.666 101.376 118.62 102.096 118.62 104.076C118.62 106.2 117.882 107.028 116.19 107.028C114.714 107.028 113.779 106.11 113.779 104.49L113.779 103.806ZM122.875 102.942C123.487 101.988 124.441 101.34 126.097 101.34C127.303 101.34 127.915 101.736 127.915 103.014L127.915 103.41L125.881 103.41C123.667 103.41 122.173 103.986 122.173 106.038C122.173 107.802 123.253 108.828 125.071 108.828C126.511 108.828 127.609 108.108 128.041 107.064L128.041 108.684L130.02 108.684L130.02 102.744C130.02 100.404 128.725 99.5043 126.097 99.5043C124.549 99.5043 123.469 99.8643 122.875 100.314L122.875 102.942ZM125.737 106.938C124.801 106.938 124.297 106.506 124.297 105.822C124.297 105.012 124.891 104.778 126.133 104.778L127.915 104.778L127.915 105.516C127.825 106.128 127.159 106.938 125.737 106.938ZM132.449 108.684L139.919 108.684L139.919 111.025L141.827 111.025L141.827 106.776L140.477 106.776L140.477 99.6843L138.371 99.6843L138.371 106.776L134.555 106.776L134.555 99.6843L132.449 99.6843L132.449 108.684ZM143.489 108.558L143.759 108.558L143.759 108.684L145.487 108.684L145.577 108.558L149.807 102.51L149.807 108.684L151.895 108.684L151.895 99.8283L151.607 99.8283L151.607 99.6843L149.897 99.6843L145.577 105.786L145.577 99.6843L143.489 99.6843L143.489 108.558ZM154.475 108.558L154.745 108.558L154.745 108.684L156.473 108.684L156.563 108.558L160.793 102.51L160.793 108.684L162.881 108.684L162.881 99.8283L162.593 99.8283L162.593 99.6843L160.883 99.6843L156.563 105.786L156.563 99.6843L154.475 99.6843L154.475 108.558ZM70.0225 130.559L70.2925 130.559L70.2925 130.685L72.0205 130.685L72.1105 130.559L76.3404 124.511L76.3404 130.685L78.4283 130.685L78.4283 121.829L78.1403 121.829L78.1403 121.685L76.4304 121.685L72.1105 127.787L72.1105 121.685L70.0225 121.685L70.0225 130.559ZM92.8301 129.785L92.8301 127.625C92.3801 128.417 91.3902 129.047 89.8962 129.047C88.2042 129.047 87.1963 128.183 87.1963 126.329L87.1963 126.059C87.1963 124.241 88.1322 123.323 89.8602 123.323C91.1742 123.341 92.1281 123.989 92.7401 124.943L92.7401 122.315C92.1461 121.865 91.0662 121.505 89.8602 121.487C86.9983 121.505 85.0543 123.053 85.0543 126.149C85.0543 129.299 86.9623 130.883 89.8422 130.883C91.3002 130.883 92.4341 130.289 92.8301 129.785ZM101.959 129.785L101.959 127.625C101.473 128.417 100.375 129.047 98.7194 129.047C97.0814 129.047 96.1634 128.291 96.0014 126.797L102.679 126.797L102.679 125.933C102.679 123.107 101.113 121.505 98.5034 121.487C95.7854 121.487 93.9135 123.161 93.9135 126.149C93.9135 129.245 95.6774 130.883 98.6474 130.865C100.285 130.883 101.527 130.289 101.959 129.785ZM98.4494 123.323C99.7274 123.323 100.519 124.079 100.573 125.303L96.0374 125.303C96.2534 124.007 97.0994 123.323 98.4494 123.323ZM104.615 134.159L106.721 134.159L106.721 129.317C107.171 130.163 108.161 130.883 109.601 130.883C112.067 130.883 113.669 129.533 113.669 125.987C113.669 122.837 112.067 121.505 109.781 121.505C107.873 121.505 106.919 122.549 106.595 123.557L106.595 121.685L104.615 121.685L104.615 134.159ZM106.721 125.807C106.757 124.295 107.513 123.377 109.169 123.377C110.609 123.377 111.563 124.097 111.563 126.077C111.563 128.201 110.825 129.029 109.133 129.029C107.657 129.029 106.721 128.111 106.721 126.491L106.721 125.807ZM115.601 130.685L120.083 130.685C122.441 130.685 123.575 129.749 123.575 128.021C123.575 126.491 122.729 125.969 121.577 125.825C122.549 125.591 123.125 124.853 123.125 123.773C123.125 122.423 122.279 121.685 120.137 121.685L115.601 121.685L115.601 130.685ZM117.707 128.939L117.707 126.833L120.011 126.833C120.983 126.833 121.487 127.085 121.487 127.877C121.487 128.597 121.001 128.939 119.885 128.939L117.707 128.939ZM117.707 125.321L117.707 123.449L119.651 123.431C120.551 123.431 121.019 123.629 121.019 124.295C121.019 125.051 120.461 125.321 119.633 125.321L117.707 125.321ZM125.515 130.559L125.785 130.559L125.785 130.685L127.513 130.685L127.603 130.559L131.833 124.511L131.833 130.685L133.921 130.685L133.921 121.829L133.633 121.829L133.633 121.685L131.923 121.685L127.603 127.787L127.603 121.685L125.515 121.685L125.515 130.559ZM143.647 129.785L143.647 127.625C143.197 128.417 142.207 129.047 140.713 129.047C139.021 129.047 138.014 128.183 138.014 126.329L138.014 126.059C138.014 124.241 138.949 123.323 140.677 123.323C141.991 123.341 142.945 123.989 143.557 124.943L143.557 122.315C142.963 121.865 141.883 121.505 140.677 121.487C137.816 121.505 135.872 123.053 135.872 126.149C135.872 129.299 137.78 130.883 140.659 130.883C142.117 130.883 143.251 130.289 143.647 129.785ZM145.571 130.685L148.991 130.685C151.781 130.685 153.005 129.695 153.023 127.409C153.023 125.051 151.673 124.349 149.225 124.349L147.677 124.349L147.677 121.685L145.571 121.685L145.571 130.685ZM154.049 130.685L156.155 130.685L156.155 121.685L154.049 121.685L154.049 130.685ZM148.919 128.831L147.677 128.831L147.677 126.203L149.063 126.203C150.449 126.203 150.899 126.455 150.917 127.409C150.899 128.471 150.341 128.831 148.919 128.831Z" fill="url(#paint0_linear)"></path> <defs> <linearGradient id="paint0_linear" x1="38.584" y1="142.075" x2="62.0071" y2="43.1424" gradientUnits="userSpaceOnUse"> <stop stop-color="#515DAD"></stop> <stop offset="0.133039" stop-color="#536CBB"></stop> <stop offset="0.432377" stop-color="#568DDC"></stop> <stop offset="0.555249" stop-color="#5AB0FF"></stop> <stop offset="0.720383" stop-color="#60C5EB"></stop> <stop offset="0.805609" stop-color="#68DFD1"></stop> <stop offset="1" stop-color="#6BEAC7"></stop> </linearGradient> </defs> </svg> 