<?xml version="1.0" encoding="UTF-8"?> <svg xmlns="http://www.w3.org/2000/svg" width="80" height="80" viewBox="0 0 80 80" fill="none"> <path d="M39.9453 0.605537C61.5971 0.605537 79.1494 18.1599 79.1494 39.8142C79.1494 61.4686 61.5971 79.0229 39.9453 79.0229C18.2935 79.0229 0.741211 61.4686 0.741211 39.8142C0.741211 18.1599 18.2935 0.605537 39.9453 0.605537Z" fill="white"></path> <path d="M34.8621 44.0176L36.0502 44.0176L32.7981 35.6176L31.7061 35.6176L28.5021 44.0176L29.6061 44.0176L30.4341 41.7736L34.0221 41.7736L34.8621 44.0176ZM32.2221 36.9616L33.6621 40.8136L30.7941 40.8136L32.2221 36.9616ZM36.8886 45.5776L37.8966 45.5776L37.8966 44.0176L43.9566 44.0176L43.9566 45.5776L44.9646 45.5776L44.9646 43.0576L43.8846 43.0576L43.8846 35.6176L38.7966 35.6176L38.7726 37.3576C38.7366 39.9376 38.2566 41.8936 37.7766 43.0576L36.8886 43.0576L36.8886 45.5776ZM42.8046 43.0576L38.9046 43.0576C39.3966 41.7016 39.7926 39.6136 39.8286 37.3936L39.8406 36.5776L42.8046 36.5776L42.8046 43.0576ZM52.3298 35.8936C51.9098 35.7616 51.1658 35.5216 50.0858 35.5216C47.5298 35.5216 46.2218 36.7816 46.2218 39.8176C46.2218 42.8656 47.4818 44.1136 50.1338 44.1136C51.2738 44.1136 52.1738 43.8016 52.5578 43.5856L52.5578 42.4936C52.1978 42.6976 51.2738 43.1416 50.1458 43.1416C48.4058 43.1416 47.3498 42.3376 47.3498 39.7096C47.3498 37.3096 48.2738 36.4816 50.0498 36.4816C51.0458 36.4816 51.8978 36.7936 52.3298 37.0936L52.3298 35.8936Z" fill="#737688"></path> </svg> 