<?xml version="1.0" encoding="UTF-8"?> <svg xmlns="http://www.w3.org/2000/svg" width="44" height="44" viewBox="0 0 44 44" fill="none"> <path d="M18 22L34.5 5.5" stroke="#515DAD" stroke-width="2" stroke-linecap="round" stroke-linejoin="round"></path> <path d="M29.6672 10.3326C26.7444 7.41556 22.8332 5.7018 18.7074 5.53034C14.5816 5.35888 10.5416 6.74223 7.3869 9.40671C4.23215 12.0712 2.19236 15.8227 1.67109 19.9191C1.14982 24.0154 2.18504 28.1582 4.57193 31.5279C6.95882 34.8975 10.5235 37.2486 14.5608 38.1159C18.5981 38.9832 22.8139 38.3036 26.3741 36.2116C29.9343 34.1195 32.5796 30.7674 33.7867 26.8184C34.9938 22.8693 34.6747 18.6111 32.8926 14.886" stroke="#515DAD" stroke-width="2" stroke-linecap="round" stroke-linejoin="round"></path> <path d="M23.8335 16.1664C22.4696 14.8026 20.6709 13.9597 18.75 13.7844C16.8291 13.6091 14.9075 14.1124 13.3192 15.2068C11.7309 16.3013 10.5763 17.9176 10.0561 19.775C9.53586 21.6324 9.6829 23.6134 10.4717 25.3736C11.2604 27.1338 12.641 28.562 14.3735 29.4099C16.106 30.2579 18.0808 30.472 19.9547 30.015C21.8287 29.558 23.4832 28.4588 24.6309 26.9085C25.7785 25.3582 26.3466 23.4548 26.2365 21.5291" stroke="#515DAD" stroke-width="2" stroke-linecap="round" stroke-linejoin="round"></path> </svg> 