<?xml version="1.0" encoding="UTF-8"?> <svg xmlns="http://www.w3.org/2000/svg" width="415" height="852" viewBox="0 0 415 852" fill="none"> <rect width="415" height="852" rx="20" fill="#F9FAFA"></rect> <rect x="20" y="20" width="375" height="812" rx="16" fill="white"></rect> <g filter="url(#filter0_b)"> <rect x="20" y="735" width="375" height="97" fill="white" fill-opacity="0.01"></rect> </g> <rect x="50" y="743" width="6" height="6" rx="1" stroke="#4CD174" stroke-width="2"></rect> <rect x="50" y="753" width="6" height="6" rx="1" stroke="#4CD174" stroke-width="2"></rect> <rect x="60" y="743" width="6" height="6" rx="1" stroke="#4CD174" stroke-width="2"></rect> <rect x="60" y="753" width="6" height="6" rx="1" stroke="#4CD174" stroke-width="2"></rect> <path d="M45.2915 778.758H46.3427V777H51.2255V778.747H52.2766V776.07H51.4528V769.727H46.9677L46.7972 772.799C46.6871 774.823 46.2575 775.658 45.771 776.07H45.2915V778.758ZM47.0636 776.07C47.479 775.406 47.7596 774.337 47.8484 772.799L47.962 770.672H50.4016V776.07H47.0636ZM55.6911 777.11C57.2287 777.11 58.2337 775.984 58.2337 774.298C58.2337 772.6 57.2287 771.474 55.6911 771.474C54.1534 771.474 53.1484 772.6 53.1484 774.298C53.1484 775.984 54.1534 777.11 55.6911 777.11ZM55.6946 776.219C54.6896 776.219 54.2209 775.342 54.2209 774.294C54.2209 773.25 54.6896 772.362 55.6946 772.362C56.6925 772.362 57.1612 773.25 57.1612 774.294C57.1612 775.342 56.6925 776.219 55.6946 776.219ZM62.4799 775.686L60.7541 771.545H59.4189V777H60.4593V773.033L62.0858 777H62.8741L64.5289 773.048V777H65.5623V771.545H64.2413L62.4799 775.686ZM68.5648 777.121C69.4668 777.121 69.9746 776.663 70.177 776.254H70.2196V777H71.2566V773.378C71.2566 771.79 70.0066 771.474 69.1401 771.474C68.1529 771.474 67.2438 771.872 66.8887 772.866L67.8865 773.094C68.0428 772.707 68.4405 772.334 69.1543 772.334C69.8397 772.334 70.1912 772.692 70.1912 773.31V773.335C70.1912 773.722 69.7935 773.715 68.8134 773.829C67.78 773.95 66.7218 774.219 66.7218 775.459C66.7218 776.531 67.5279 777.121 68.5648 777.121ZM68.7956 776.268C68.1955 776.268 67.7623 775.999 67.7623 775.473C67.7623 774.905 68.2665 774.702 68.8809 774.621C69.2253 774.575 70.0421 774.482 70.1948 774.33V775.033C70.1948 775.679 69.6799 776.268 68.7956 776.268Z" fill="#190B25"></path> <rect x="137" y="752" width="3" height="2" rx="0.6" fill="#190B25"></rect> <rect x="125" y="747" width="18" height="3" rx="0.6" fill="#190B25"></rect> <rect x="125" y="744" width="18" height="13" rx="3" stroke="#190B25" stroke-width="2"></rect> <path d="M121.632 773.364C121.632 771.038 120.24 769.628 118.358 769.628C116.469 769.628 115.08 771.038 115.08 773.364C115.08 775.686 116.469 777.099 118.358 777.099C120.24 777.099 121.632 775.69 121.632 773.364ZM120.545 773.364C120.545 775.136 119.608 776.098 118.358 776.098C117.104 776.098 116.17 775.136 116.17 773.364C116.17 771.592 117.104 770.629 118.358 770.629C119.608 770.629 120.545 771.592 120.545 773.364ZM122.915 777H123.948V772.462H126.324V777H127.365V771.545H122.915V777ZM128.354 777H128.695C129.885 777 130.322 776.119 130.407 774.315L130.492 772.462H132.275V777H133.315V771.545H129.509L129.413 773.96C129.345 775.643 129.153 776.08 128.546 776.08H128.351L128.354 777ZM136.319 777.121C137.221 777.121 137.729 776.663 137.931 776.254H137.974V777H139.01V773.378C139.01 771.79 137.76 771.474 136.894 771.474C135.907 771.474 134.998 771.872 134.643 772.866L135.64 773.094C135.797 772.707 136.194 772.334 136.908 772.334C137.594 772.334 137.945 772.692 137.945 773.31V773.335C137.945 773.722 137.547 773.715 136.567 773.829C135.534 773.95 134.476 774.219 134.476 775.459C134.476 776.531 135.282 777.121 136.319 777.121ZM136.55 776.268C135.949 776.268 135.516 775.999 135.516 775.473C135.516 774.905 136.02 774.702 136.635 774.621C136.979 774.575 137.796 774.482 137.949 774.33V775.033C137.949 775.679 137.434 776.268 136.55 776.268ZM139.748 772.462H141.534V777H142.571V772.462H144.35V771.545H139.748V772.462ZM146.514 773.42V771.545H145.474V777H147.856C149.192 777 149.937 776.226 149.937 775.2C149.937 774.152 149.192 773.42 147.856 773.42H146.514ZM150.711 777H151.773V771.545H150.711V777ZM146.514 774.337H147.856C148.467 774.337 148.904 774.706 148.904 775.232C148.904 775.729 148.467 776.084 147.856 776.084H146.514V774.337Z" fill="#190B25"></path> <circle cx="209" cy="751" r="8" stroke="#190B25" stroke-width="2"></circle> <rect x="204.75" y="748.75" width="8.5" height="1.5" rx="0.75" stroke="#190B25" stroke-width="1.5"></rect> <rect x="204" y="752" width="2" height="2" rx="1" fill="#190B25"></rect> <rect x="207" y="752" width="2" height="2" rx="1" fill="#190B25"></rect> <path d="M188.534 769.727H182.923V777H184.017V770.665H187.44V777H188.534V769.727ZM192.424 777.11C193.962 777.11 194.967 775.984 194.967 774.298C194.967 772.6 193.962 771.474 192.424 771.474C190.887 771.474 189.882 772.6 189.882 774.298C189.882 775.984 190.887 777.11 192.424 777.11ZM192.428 776.219C191.423 776.219 190.954 775.342 190.954 774.294C190.954 773.25 191.423 772.362 192.428 772.362C193.426 772.362 193.895 773.25 193.895 774.294C193.895 775.342 193.426 776.219 192.428 776.219ZM196.152 777H197.214V774.82H197.903L199.547 777H200.865L198.727 774.198L200.84 771.545H199.526L197.725 773.832H197.214V771.545H196.152V777ZM203.277 777.121C204.179 777.121 204.687 776.663 204.889 776.254H204.932V777H205.968V773.378C205.968 771.79 204.718 771.474 203.852 771.474C202.865 771.474 201.956 771.872 201.601 772.866L202.598 773.094C202.755 772.707 203.152 772.334 203.866 772.334C204.552 772.334 204.903 772.692 204.903 773.31V773.335C204.903 773.722 204.505 773.715 203.525 773.829C202.492 773.95 201.434 774.219 201.434 775.459C201.434 776.531 202.24 777.121 203.277 777.121ZM203.508 776.268C202.907 776.268 202.474 775.999 202.474 775.473C202.474 774.905 202.978 774.702 203.593 774.621C203.937 774.575 204.754 774.482 204.907 774.33V775.033C204.907 775.679 204.392 776.268 203.508 776.268ZM207.06 775.558C207.092 776.51 207.983 777.11 209.194 777.11C210.437 777.11 211.335 776.485 211.335 775.484C211.335 774.773 210.884 774.248 210.252 774.205V774.148C210.824 773.985 211.218 773.602 211.218 773.001C211.218 772.107 210.451 771.474 209.236 771.474C208.072 771.474 207.216 772.096 207.195 773.012H208.267C208.288 772.604 208.711 772.32 209.29 772.32C209.861 772.32 210.195 772.618 210.195 773.062C210.195 773.477 209.897 773.783 209.297 773.783H208.409V774.617H209.297C209.9 774.617 210.288 774.951 210.288 775.445C210.288 776.002 209.794 776.254 209.183 776.254C208.583 776.254 208.178 776.006 208.146 775.558H207.06ZM214.019 777.121C214.921 777.121 215.429 776.663 215.631 776.254H215.674V777H216.711V773.378C216.711 771.79 215.461 771.474 214.594 771.474C213.607 771.474 212.698 771.872 212.343 772.866L213.341 773.094C213.497 772.707 213.895 772.334 214.608 772.334C215.294 772.334 215.645 772.692 215.645 773.31V773.335C215.645 773.722 215.248 773.715 214.267 773.829C213.234 773.95 212.176 774.219 212.176 775.459C212.176 776.531 212.982 777.121 214.019 777.121ZM214.25 776.268C213.65 776.268 213.216 775.999 213.216 775.473C213.216 774.905 213.721 774.702 214.335 774.621C214.679 774.575 215.496 774.482 215.649 774.33V775.033C215.649 775.679 215.134 776.268 214.25 776.268ZM219.165 771.545H218.125V777H219.165V774.734H221.527V777H222.564V771.545H221.527V773.815H219.165V771.545ZM225.025 775.512V771.545H223.984V777H225.138L227.532 773.03V777H228.572V771.545H227.429L225.025 775.512ZM233.253 777H234.251V771.545H231.946C230.689 771.545 229.922 772.195 229.922 773.222C229.922 773.939 230.298 774.468 230.948 774.713L229.673 777H230.76L231.949 774.866H233.253V777ZM233.253 774.006H231.875C231.296 774.006 230.959 773.701 230.962 773.236C230.959 772.767 231.324 772.451 231.946 772.451H233.253V774.006Z" fill="#190B25"></path> <path d="M277 744H288C289.657 744 291 745.343 291 747V753C291 754.657 289.657 756 288 756H287.5H285.128C284.836 756 284.552 756.091 284.314 756.261L279 760.057V757.4C279 756.627 278.373 756 277.6 756H277C275.343 756 274 754.657 274 753V747C274 745.343 275.343 744 277 744Z" stroke="#190B25" stroke-width="2"></path> <rect x="277" y="750" width="2" height="3" rx="0.6" fill="#190B25"></rect> <rect x="280" y="750" width="2" height="3" rx="0.6" fill="#190B25"></rect> <path d="M268.222 777.099C269.706 777.099 270.796 776.212 270.793 775.004C270.796 774.085 270.239 773.424 269.273 773.275V773.218C270.033 773.023 270.526 772.426 270.523 771.609C270.526 770.54 269.649 769.628 268.25 769.628C266.915 769.628 265.843 770.434 265.807 771.616H266.869C266.894 770.949 267.522 770.544 268.236 770.544C268.978 770.544 269.465 770.995 269.461 771.666C269.465 772.369 268.9 772.831 268.094 772.831H267.48V773.726H268.094C269.102 773.726 269.685 774.237 269.685 774.969C269.685 775.675 269.07 776.155 268.215 776.155C267.426 776.155 266.812 775.75 266.769 775.104H265.654C265.7 776.29 266.752 777.099 268.222 777.099ZM273.737 777.121C274.639 777.121 275.146 776.663 275.349 776.254H275.392V777H276.428V773.378C276.428 771.79 275.178 771.474 274.312 771.474C273.325 771.474 272.416 771.872 272.061 772.866L273.058 773.094C273.215 772.707 273.612 772.334 274.326 772.334C275.012 772.334 275.363 772.692 275.363 773.31V773.335C275.363 773.722 274.965 773.715 273.985 773.829C272.952 773.95 271.894 774.219 271.894 775.459C271.894 776.531 272.7 777.121 273.737 777.121ZM273.968 776.268C273.367 776.268 272.934 775.999 272.934 775.473C272.934 774.905 273.438 774.702 274.053 774.621C274.397 774.575 275.214 774.482 275.367 774.33V775.033C275.367 775.679 274.852 776.268 273.968 776.268ZM281.096 777H282.093V771.545H279.789C278.532 771.545 277.765 772.195 277.765 773.222C277.765 773.939 278.141 774.468 278.791 774.713L277.516 777H278.603L279.792 774.866H281.096V777ZM281.096 774.006H279.718C279.139 774.006 278.801 773.701 278.805 773.236C278.801 772.767 279.167 772.451 279.789 772.451H281.096V774.006ZM283.507 777H286.113C287.306 777 288.006 776.396 288.006 775.53C288.006 774.72 287.385 774.223 286.657 774.138C287.328 774.01 287.772 773.641 287.772 773.001C287.772 772.107 286.998 771.545 285.769 771.545H283.507V777ZM284.505 776.112V774.596H286.113C286.639 774.596 286.955 774.905 286.955 775.413C286.955 775.846 286.639 776.112 286.113 776.112H284.505ZM284.505 773.818V772.444H285.769C286.373 772.444 286.738 772.696 286.738 773.115C286.738 773.552 286.376 773.818 285.779 773.818H284.505ZM289.171 777H290.233V774.82H290.922L292.566 777H293.883L291.745 774.198L293.858 771.545H292.544L290.744 773.832H290.233V771.545H289.171V777ZM295.748 775.512V771.545H294.708V777H295.862L298.256 773.03V777H299.296V771.545H298.153L295.748 775.512Z" fill="#190B25"></path> <circle cx="357" cy="751" r="8" stroke="#190B25" stroke-width="2"></circle> <path d="M361 753C358.791 755.209 355.337 755.337 353 753" stroke="#190B25" stroke-width="2" stroke-linecap="round" stroke-linejoin="round"></path> <path d="M340.807 769.727H335.196V777H336.29V770.665H339.713V777H340.807V769.727ZM342.399 779.045H343.461V776.151H343.525C343.717 776.499 344.107 777.107 345.102 777.107C346.423 777.107 347.382 776.048 347.382 774.283C347.382 772.515 346.409 771.474 345.091 771.474C344.079 771.474 343.713 772.092 343.525 772.43H343.436V771.545H342.399V779.045ZM343.44 774.273C343.44 773.133 343.937 772.376 344.864 772.376C345.826 772.376 346.309 773.19 346.309 774.273C346.309 775.366 345.812 776.201 344.864 776.201C343.951 776.201 343.44 775.42 343.44 774.273ZM350.869 777.11C352.406 777.11 353.411 775.984 353.411 774.298C353.411 772.6 352.406 771.474 350.869 771.474C349.331 771.474 348.326 772.6 348.326 774.298C348.326 775.984 349.331 777.11 350.869 777.11ZM350.872 776.219C349.867 776.219 349.399 775.342 349.399 774.294C349.399 773.25 349.867 772.362 350.872 772.362C351.87 772.362 352.339 773.25 352.339 774.294C352.339 775.342 351.87 776.219 350.872 776.219ZM356.944 778.857H358.006V777.11C359.547 777.11 360.594 775.981 360.594 774.298C360.594 772.604 359.547 771.474 358.006 771.474V769.727H356.944V771.474C355.403 771.474 354.352 772.604 354.352 774.298C354.352 775.981 355.403 777.11 356.944 777.11V778.857ZM356.944 776.215C355.925 776.215 355.428 775.331 355.428 774.298C355.428 773.264 355.925 772.369 356.944 772.369V776.215ZM358.006 776.215V772.369C359.025 772.369 359.518 773.264 359.518 774.298C359.518 775.331 359.025 776.215 358.006 776.215ZM362.815 775.512V771.545H361.774V777H362.928L365.322 773.03V777H366.362V771.545H365.219L362.815 775.512ZM367.36 777H367.701C368.891 777 369.328 776.119 369.413 774.315L369.498 772.462H371.281V777H372.321V771.545H368.514L368.419 773.96C368.351 775.643 368.159 776.08 367.552 776.08H367.357L367.36 777ZM374.778 773.42V771.545H373.737V777H376.12C377.455 777 378.201 776.226 378.201 775.2C378.201 774.152 377.455 773.42 376.12 773.42H374.778ZM374.778 774.337H376.12C376.731 774.337 377.168 774.706 377.168 775.232C377.168 775.729 376.731 776.084 376.12 776.084H374.778V774.337Z" fill="#190B25"></path> <rect width="375" height="1" transform="translate(20 735)" fill="#E5E7EA"></rect> <rect x="141" y="819" width="134" height="5" rx="2.5" fill="#190B25"></rect> <path d="M59.424 95.6H40.448V99.28H47.872V118H51.872V99.28H59.424V95.6ZM60.5533 118H68.5213C72.7133 118 74.7292 116.336 74.7292 113.264C74.7292 110.544 73.2253 109.616 71.1773 109.36C72.9053 108.944 73.9293 107.632 73.9293 105.712C73.9293 103.312 72.4253 102 68.6173 102H60.5533V118ZM64.2973 114.896V111.152H68.3933C70.1213 111.152 71.0173 111.6 71.0173 113.008C71.0173 114.288 70.1533 114.896 68.1693 114.896H64.2973ZM64.2973 108.464V105.136L67.7533 105.104C69.3533 105.104 70.1853 105.456 70.1853 106.64C70.1853 107.984 69.1933 108.464 67.7213 108.464H64.2973ZM91.363 116.4V112.56C90.499 113.968 88.547 115.088 85.603 115.088C82.691 115.088 81.059 113.744 80.771 111.088H92.643V109.552C92.643 104.528 89.859 101.68 85.219 101.648C80.387 101.648 77.059 104.624 77.059 109.936C77.059 115.44 80.195 118.352 85.475 118.32C88.387 118.352 90.595 117.296 91.363 116.4ZM85.123 104.912C87.395 104.912 88.803 106.256 88.899 108.432H80.835C81.219 106.128 82.723 104.912 85.123 104.912ZM96.0845 124.176H99.8285V115.568C100.629 117.072 102.389 118.352 104.949 118.352C109.333 118.352 112.181 115.952 112.181 109.648C112.181 104.048 109.333 101.68 105.269 101.68C101.877 101.68 100.181 103.536 99.6045 105.328V102H96.0845V124.176ZM99.8285 109.328C99.8925 106.64 101.237 105.008 104.181 105.008C106.741 105.008 108.437 106.288 108.437 109.808C108.437 113.584 107.125 115.056 104.117 115.056C101.493 115.056 99.8285 113.424 99.8285 110.544V109.328ZM128.352 116.4V112.56C127.552 113.968 125.792 115.088 123.136 115.088C120.128 115.088 118.336 113.552 118.336 110.256V109.776C118.336 106.544 120 104.912 123.072 104.912C125.408 104.944 127.104 106.096 128.192 107.792V103.12C127.136 102.32 125.216 101.68 123.072 101.648C117.984 101.68 114.528 104.432 114.528 109.936C114.528 115.536 117.92 118.352 123.04 118.352C125.632 118.352 127.648 117.296 128.352 116.4ZM131.772 118H135.516V111.376H138.076L143.1 118H147.644L141.148 109.552L146.748 102H142.588L138.108 108.24H135.516V102H131.772V118ZM150.625 107.792C151.713 106.096 153.409 104.944 156.353 104.944C158.497 104.944 159.585 105.648 159.585 107.92V108.624H155.969C152.033 108.624 149.377 109.648 149.377 113.296C149.377 116.432 151.297 118.256 154.529 118.256C157.089 118.256 159.041 116.976 159.809 115.12V118H163.329V107.44C163.329 103.28 161.025 101.68 156.353 101.68C153.601 101.68 151.681 102.32 150.625 103.12V107.792ZM155.713 114.896C154.049 114.896 153.153 114.128 153.153 112.912C153.153 111.472 154.209 111.056 156.417 111.056H159.585V112.368C159.425 113.456 158.241 114.896 155.713 114.896ZM177.375 118H181.119V102H174.303C169.343 102 167.103 103.792 167.103 107.792C167.103 109.872 168.127 111.44 170.015 112.208L166.303 118H170.431L173.663 112.72H177.375V118ZM174.399 105.296H177.375V109.84H173.695C171.743 109.84 170.879 109.104 170.847 107.792C170.847 105.936 171.903 105.296 174.399 105.296ZM185.934 110.288H194.51V106.832H185.934V110.288ZM209.063 118H212.807V102H205.991C201.031 102 198.791 103.792 198.791 107.792C198.791 109.872 199.815 111.44 201.703 112.208L197.991 118H202.119L205.351 112.72H209.063V118ZM206.087 105.296H209.063V109.84H205.383C203.431 109.84 202.567 109.104 202.535 107.792C202.535 105.936 203.591 105.296 206.087 105.296ZM231.542 118H235.286V102H231.51L226.454 109.488L221.238 102H217.366V118H221.11V107.216L225.75 114.032H226.934L231.542 107.248V118ZM252.571 116.4V112.56C251.771 113.968 250.011 115.088 247.355 115.088C244.347 115.088 242.555 113.552 242.555 110.256V109.776C242.555 106.544 244.219 104.912 247.291 104.912C249.627 104.944 251.323 106.096 252.411 107.792V103.12C251.355 102.32 249.435 101.68 247.291 101.648C242.203 101.68 238.747 104.432 238.747 109.936C238.747 115.536 242.139 118.352 247.259 118.352C249.851 118.352 251.867 117.296 252.571 116.4ZM255.991 118H259.735V111.376H262.295L267.319 118H271.863L265.367 109.552L270.967 102H266.807L262.327 108.24H259.735V102H255.991V118ZM274.844 107.792C275.932 106.096 277.628 104.944 280.572 104.944C282.716 104.944 283.804 105.648 283.804 107.92V108.624H280.188C276.252 108.624 273.596 109.648 273.596 113.296C273.596 116.432 275.516 118.256 278.748 118.256C281.308 118.256 283.26 116.976 284.028 115.12V118H287.548V107.44C287.548 103.28 285.244 101.68 280.572 101.68C277.82 101.68 275.9 102.32 274.844 103.12V107.792ZM279.932 114.896C278.268 114.896 277.372 114.128 277.372 112.912C277.372 111.472 278.428 111.056 280.635 111.056H283.804V112.368C283.644 113.456 282.46 114.896 279.932 114.896ZM301.594 118H305.338V102H298.522C293.562 102 291.322 103.792 291.322 107.792C291.322 109.872 292.346 111.44 294.234 112.208L290.522 118H294.65L297.882 112.72H301.594V118ZM298.618 105.296H301.594V109.84H297.914C295.962 109.84 295.098 109.104 295.066 107.792C295.066 105.936 296.122 105.296 298.618 105.296ZM309.289 121.264L310.953 123.248C312.905 122.864 315.913 120.752 315.913 116.912C315.913 115.28 315.369 114.224 314.633 113.776C314.249 113.52 313.737 113.392 313.065 113.392C311.145 113.392 310.569 114.48 310.569 115.856C310.569 117.2 311.145 118.32 313.065 118.32H313.129C312.905 119.568 311.497 120.848 309.289 121.264ZM46.496 158H50.24V135.376H47.456L41.696 139.088V143.024L46.496 140.048V158ZM59.371 158H63.115V135.376H60.331L54.571 139.088V143.024L59.371 140.048V158ZM81.7268 156.4V152.56C80.9268 153.968 79.1668 155.088 76.5108 155.088C73.5028 155.088 71.7108 153.552 71.7108 150.256V149.776C71.7108 146.544 73.3748 144.912 76.4468 144.912C78.7828 144.944 80.4788 146.096 81.5668 147.792V143.12C80.5108 142.32 78.5908 141.68 76.4468 141.648C71.3588 141.68 67.9028 144.432 67.9028 149.936C67.9028 155.536 71.2948 158.352 76.4148 158.352C79.0068 158.352 81.0228 157.296 81.7268 156.4ZM84.571 158H99.675V154.32H90.427C97.051 148.976 99.291 146 99.291 141.904C99.291 137.872 96.763 135.344 91.963 135.312C88.763 135.312 86.395 136.56 85.307 137.744V142.48C86.875 140.496 88.827 139.184 91.451 139.216C93.915 139.216 95.291 140.496 95.291 142.672C95.291 145.296 93.755 147.408 84.571 155.312V158ZM103.961 137.744V142.48C105.529 140.496 107.481 139.184 110.233 139.152C112.793 139.152 114.009 140.08 114.009 142.064C114.009 144.272 112.377 145.136 109.593 145.136H107.417V148.144H110.265C113.689 148.144 114.969 149.296 114.969 151.28C114.969 153.296 113.305 154.448 110.585 154.448C107.481 154.48 105.305 153.104 103.801 151.088V156.048C104.697 156.912 107.033 158.224 110.553 158.256C115.865 158.224 118.745 155.504 118.745 151.696C118.745 148.688 117.209 146.832 114.201 146.288C116.345 145.392 117.785 143.664 117.785 140.944C117.785 137.36 115.321 135.344 110.777 135.312C107.417 135.376 105.049 136.56 103.961 137.744ZM122.039 161.264L123.703 163.248C125.655 162.864 128.663 160.752 128.663 156.912C128.663 155.28 128.119 154.224 127.383 153.776C126.999 153.52 126.487 153.392 125.815 153.392C123.895 153.392 123.319 154.48 123.319 155.856C123.319 157.2 123.895 158.32 125.815 158.32H125.879C125.655 159.568 124.247 160.848 122.039 161.264ZM142.022 158H145.766V151.376H148.326L153.35 158H157.894L151.398 149.552L156.998 142H152.838L148.358 148.24H145.766V142H142.022V158ZM160.616 158H168.584C172.776 158 174.792 156.336 174.792 153.264C174.792 150.544 173.288 149.616 171.24 149.36C172.968 148.944 173.992 147.632 173.992 145.712C173.992 143.312 172.488 142 168.68 142H160.616V158ZM164.36 154.896V151.152H168.456C170.184 151.152 171.08 151.6 171.08 153.008C171.08 154.288 170.216 154.896 168.232 154.896H164.36ZM164.36 148.464V145.136L167.816 145.104C169.416 145.104 170.248 145.456 170.248 146.64C170.248 147.984 169.256 148.464 167.784 148.464H164.36ZM178.818 155.856C178.818 157.2 179.394 158.32 181.314 158.32C183.266 158.32 183.842 157.2 183.842 155.856C183.842 154.48 183.266 153.392 181.314 153.392C179.394 153.392 178.818 154.48 178.818 155.856ZM196.727 158H211.831V154.32H202.583C209.207 148.976 211.447 146 211.447 141.904C211.447 137.872 208.919 135.344 204.119 135.312C200.919 135.312 198.551 136.56 197.463 137.744V142.48C199.031 140.496 200.983 139.184 203.607 139.216C206.071 139.216 207.447 140.496 207.447 142.672C207.447 145.296 205.911 147.408 196.727 155.312V158ZM215.477 158H230.581V154.32H221.333C227.957 148.976 230.197 146 230.197 141.904C230.197 137.872 227.669 135.344 222.869 135.312C219.669 135.312 217.301 136.56 216.213 137.744V142.48C217.781 140.496 219.733 139.184 222.357 139.216C224.821 139.216 226.197 140.496 226.197 142.672C226.197 145.296 224.661 147.408 215.477 155.312V158Z" fill="#190B25"></path> <rect opacity="0.35" x="356.833" y="37.8335" width="21" height="10.3333" rx="2.16667" stroke="#190B25"></rect> <path opacity="0.4" d="M379.333 41V45C380.138 44.6612 380.661 43.8731 380.661 43C380.661 42.1269 380.138 41.3388 379.333 41" fill="#190B25"></path> <rect x="358.333" y="39.3335" width="18" height="7.33333" rx="1.33333" fill="#190B25"></rect> <path fill-rule="evenodd" clip-rule="evenodd" d="M343.667 39.615C345.892 39.6151 348.031 40.4693 349.644 42.0008C349.765 42.1191 349.959 42.1176 350.079 41.9975L351.239 40.8272C351.3 40.7663 351.334 40.6837 351.333 40.5979C351.333 40.5121 351.298 40.4299 351.237 40.3697C347.005 36.3175 340.329 36.3175 336.097 40.3697C336.035 40.4299 336.001 40.512 336 40.5978C335.999 40.6837 336.033 40.7662 336.094 40.8272L337.255 41.9975C337.374 42.1178 337.568 42.1193 337.69 42.0008C339.302 40.4692 341.442 39.615 343.667 39.615ZM343.667 43.4226C344.889 43.4226 346.068 43.8765 346.974 44.6963C347.097 44.8126 347.29 44.8101 347.409 44.6906L348.569 43.5203C348.63 43.4589 348.663 43.3756 348.663 43.2891C348.662 43.2025 348.626 43.12 348.564 43.0598C345.805 40.4954 341.532 40.4954 338.773 43.0598C338.71 43.12 338.675 43.2026 338.674 43.2891C338.673 43.3757 338.707 43.459 338.768 43.5203L339.927 44.6906C340.047 44.8101 340.24 44.8126 340.362 44.6963C341.268 43.877 342.446 43.4231 343.667 43.4226ZM345.989 45.9845C345.991 46.0712 345.957 46.1549 345.895 46.2157L343.89 48.2377C343.831 48.2971 343.751 48.3306 343.667 48.3306C343.583 48.3306 343.503 48.2971 343.445 48.2377L341.439 46.2157C341.377 46.1549 341.343 46.0712 341.345 45.9844C341.347 45.8976 341.384 45.8154 341.449 45.7573C342.729 44.675 344.605 44.675 345.886 45.7573C345.95 45.8155 345.988 45.8977 345.989 45.9845Z" fill="#190B25"></path> <path fill-rule="evenodd" clip-rule="evenodd" d="M330 37.6665H329C328.448 37.6665 328 38.1142 328 38.6665V47.3332C328 47.8855 328.448 48.3332 329 48.3332H330C330.552 48.3332 331 47.8855 331 47.3332V38.6665C331 38.1142 330.552 37.6665 330 37.6665ZM324.333 39.9998H325.333C325.886 39.9998 326.333 40.4476 326.333 40.9998V47.3332C326.333 47.8855 325.886 48.3332 325.333 48.3332H324.333C323.781 48.3332 323.333 47.8855 323.333 47.3332V40.9998C323.333 40.4476 323.781 39.9998 324.333 39.9998ZM320.667 42.3332H319.667C319.114 42.3332 318.667 42.7809 318.667 43.3332V47.3332C318.667 47.8855 319.114 48.3332 319.667 48.3332H320.667C321.219 48.3332 321.667 47.8855 321.667 47.3332V43.3332C321.667 42.7809 321.219 42.3332 320.667 42.3332ZM316 44.3332H315C314.448 44.3332 314 44.7809 314 45.3332V47.3332C314 47.8855 314.448 48.3332 315 48.3332H316C316.552 48.3332 317 47.8855 317 47.3332V45.3332C317 44.7809 316.552 44.3332 316 44.3332Z" fill="#190B25"></path> <path d="M56.881 36.9418C54.2922 36.9418 52.5024 38.4972 52.5131 40.8196C52.5237 42.8011 53.8447 44.25 55.8156 44.25C57.0621 44.25 58.1913 43.6534 58.6068 42.652H58.6707C58.6601 44.4631 58.1061 45.6349 56.8596 45.6349C56.2311 45.6349 55.6984 45.358 55.5599 44.6974H52.6409C52.822 46.6151 54.4413 48.1491 56.8596 48.1491C59.7254 48.1491 61.6217 45.9545 61.6111 42.375C61.6004 38.4545 59.4271 36.9418 56.881 36.9418ZM56.9023 39.179C57.7652 39.179 58.4044 39.8395 58.415 40.7131C58.4257 41.5866 57.7652 42.2472 56.9023 42.2472C56.018 42.2472 55.4001 41.5866 55.3895 40.7131C55.3788 39.8395 56.018 39.179 56.9023 39.179ZM64.2675 48.1705C65.0505 48.1705 65.7483 47.5099 65.7589 46.679C65.7483 45.8693 65.0505 45.2088 64.2675 45.2088C63.4418 45.2088 62.7653 45.8693 62.776 46.679C62.7653 47.5099 63.4418 48.1705 64.2675 48.1705ZM64.2675 42.6733C65.0505 42.6733 65.7483 42.0128 65.7589 41.1818C65.7483 40.3722 65.0505 39.7116 64.2675 39.7116C63.4418 39.7116 62.7653 40.3722 62.776 41.1818C62.7653 42.0128 63.4418 42.6733 64.2675 42.6733ZM66.9891 46.2955H72.2945V48H75.1283V46.2955H76.3854V43.9943H75.1283V37.0909H71.3783L66.9891 43.9943V46.2955ZM72.3584 43.9943H69.9081V43.9091L72.2732 40.1591H72.3584V43.9943ZM82.5894 37.0909H79.8621L77.1775 38.7315V41.2457L79.5638 39.8182H79.6277V48H82.5894V37.0909Z" fill="#190B25"></path> <defs> <filter id="filter0_b" x="-30" y="685" width="475" height="197" filterUnits="userSpaceOnUse" color-interpolation-filters="sRGB"> <feFlood flood-opacity="0" result="BackgroundImageFix"></feFlood> <feGaussianBlur in="BackgroundImage" stdDeviation="25"></feGaussianBlur> <feComposite in2="SourceAlpha" operator="in" result="effect1_backgroundBlur"></feComposite> <feBlend mode="normal" in="SourceGraphic" in2="effect1_backgroundBlur" result="shape"></feBlend> </filter> </defs> </svg> 