<?xml version="1.0" encoding="UTF-8"?> <svg xmlns="http://www.w3.org/2000/svg" width="414" height="426" viewBox="0 0 414 426" fill="none"> <mask id="mask0" mask-type="alpha" maskUnits="userSpaceOnUse" x="0" y="0" width="414" height="426"> <rect width="414" height="425.3" rx="207" fill="#C4C4C4"></rect> </mask> <g mask="url(#mask0)"> <g filter="url(#filter0_f)"> <ellipse cx="66" cy="306.48" rx="207" ry="208.48" fill="#5AB0FF"></ellipse> </g> <g filter="url(#filter1_f)"> <ellipse cx="283.5" cy="-16" rx="242.5" ry="215" fill="#44D370"></ellipse> </g> <g filter="url(#filter2_f)"> <ellipse cx="485.5" cy="427.5" rx="266.5" ry="220.5" fill="#515DAD"></ellipse> </g> <g filter="url(#filter3_f)"> <ellipse cx="93.5" cy="41" rx="251.5" ry="220" fill="#6BEAC7"></ellipse> </g> </g> <path d="M78 188V234H94.3493C110.366 234 121 226.443 121 210.08C121 195.951 112.626 188 93.7512 188H78ZM88.6337 224.143V197.857H94.5487C105.781 197.857 109.901 202.326 109.901 210.869C109.901 218.886 105.249 224.143 94.6816 224.143H88.6337Z" fill="white"></path> <path d="M143.3 200C131.92 200.067 125 205.945 125 217.433C125 229.122 132.453 235 142.7 235C154.013 234.933 161 229.122 161 217.567C161 205.878 153.547 200 143.3 200ZM135.314 217.366C135.314 211.355 138.109 208.817 142.967 208.817C147.492 208.884 150.686 211.422 150.686 217.433V217.634C150.686 223.645 147.891 226.183 143.033 226.183C138.442 226.183 135.314 223.645 135.314 217.567V217.366Z" fill="white"></path> <path d="M187.987 234H197.882V214.867C197.817 210.667 199.979 208.8 203.649 208.8H203.78C206.794 208.867 208.105 210.6 208.105 214.267V234H218V211.4C218 203.933 214.003 200.067 207.384 200H207.318C202.01 200 198.472 203.267 197.358 207.267C196.047 202.533 192.443 200.067 187.332 200H187.201C181.958 200 178.354 203.467 177.24 207.133V200.667H168V234H177.83V214.867C177.633 210.4 179.73 208.867 183.465 208.8C186.742 208.8 187.987 210.533 187.987 214.267V234Z" fill="white"></path> <path d="M226.769 214.662C229.065 211.284 232.24 208.851 239.399 208.851C243.586 208.851 244.869 210.27 244.869 214.054V214.324H237.575C229.943 214.324 224 216.486 224 224.527C224 230.811 227.647 235 234.671 235C239.939 235 243.789 232.297 245.41 228.378V234.459H255V212.162C255 203.784 250.542 200 239.399 200C233.05 200 228.998 201.216 226.769 202.905V214.662ZM238.183 226.081C235.617 226.081 234.198 225 234.198 223.176C234.198 221.014 236.022 220.203 239.264 220.203H244.869V222.162C244.532 224.459 242.033 226.081 238.183 226.081Z" fill="white"></path> <path d="M264 229.067C264 232.333 265.377 235 269.902 235C274.623 235 276 232.333 276 229.067C276 225.733 274.623 223 269.902 223C265.377 223 264 225.733 264 229.067Z" fill="white"></path> <path d="M287.68 214.662C289.902 211.284 292.974 208.851 299.902 208.851C303.954 208.851 305.196 210.27 305.196 214.054V214.324H298.137C290.752 214.324 285 216.486 285 224.527C285 230.811 288.529 235 295.327 235C300.425 235 304.15 232.297 305.719 228.378V234.459H315V212.162C315 203.784 310.686 200 299.902 200C293.758 200 289.837 201.216 287.68 202.905V214.662ZM298.725 226.081C296.242 226.081 294.869 225 294.869 223.176C294.869 221.014 296.634 220.203 299.771 220.203H305.196V222.162C304.869 224.459 302.451 226.081 298.725 226.081Z" fill="white"></path> <path d="M323 189.106C323 192.289 325.187 194.345 328.566 194.345C331.813 194.345 334 192.289 334 189.106C334 185.989 331.813 184 328.566 184C325.187 184 323 185.989 323 189.106ZM323.53 234H333.536V200.844H323.53V234Z" fill="white"></path> <defs> <filter id="filter0_f" x="-291" y="-52" width="714" height="716.961" filterUnits="userSpaceOnUse" color-interpolation-filters="sRGB"> <feFlood flood-opacity="0" result="BackgroundImageFix"></feFlood> <feBlend mode="normal" in="SourceGraphic" in2="BackgroundImageFix" result="shape"></feBlend> <feGaussianBlur stdDeviation="75" result="effect1_foregroundBlur"></feGaussianBlur> </filter> <filter id="filter1_f" x="-159" y="-431" width="885" height="830" filterUnits="userSpaceOnUse" color-interpolation-filters="sRGB"> <feFlood flood-opacity="0" result="BackgroundImageFix"></feFlood> <feBlend mode="normal" in="SourceGraphic" in2="BackgroundImageFix" result="shape"></feBlend> <feGaussianBlur stdDeviation="100" result="effect1_foregroundBlur"></feGaussianBlur> </filter> <filter id="filter2_f" x="19" y="7" width="933" height="841" filterUnits="userSpaceOnUse" color-interpolation-filters="sRGB"> <feFlood flood-opacity="0" result="BackgroundImageFix"></feFlood> <feBlend mode="normal" in="SourceGraphic" in2="BackgroundImageFix" result="shape"></feBlend> <feGaussianBlur stdDeviation="100" result="effect1_foregroundBlur"></feGaussianBlur> </filter> <filter id="filter3_f" x="-308" y="-329" width="803" height="740" filterUnits="userSpaceOnUse" color-interpolation-filters="sRGB"> <feFlood flood-opacity="0" result="BackgroundImageFix"></feFlood> <feBlend mode="normal" in="SourceGraphic" in2="BackgroundImageFix" result="shape"></feBlend> <feGaussianBlur stdDeviation="75" result="effect1_foregroundBlur"></feGaussianBlur> </filter> </defs> </svg> 