<?xml version="1.0" encoding="UTF-8"?> <svg xmlns="http://www.w3.org/2000/svg" width="97" height="97" viewBox="0 0 97 97" fill="none"> <path d="M71.7467 6.28991C94.7876 19.4018 102.838 48.7117 89.7274 71.7552C76.617 94.7988 47.3107 102.85 24.2698 89.738C1.229 76.6261 -6.82122 47.3163 6.28917 24.2727C19.3996 1.22915 48.7059 -6.82203 71.7467 6.28991Z" fill="white"></path> <path d="M29.3218 48.1886H30.5338C31.9858 48.1886 32.5978 48.5366 32.5978 49.5326C32.5978 50.5886 32.0818 51.1286 30.6418 51.1286C29.4538 51.1286 28.5418 50.6726 28.1218 50.2646V51.6326C28.6138 51.8486 29.4538 52.1006 30.5218 52.1006C32.7658 52.1006 33.7378 51.2246 33.7378 49.6166C33.7378 48.2846 33.1018 47.6606 31.8778 47.5166C32.8498 47.2286 33.3058 46.6046 33.3058 45.5486C33.3058 44.0966 32.3938 43.5086 30.5698 43.5086C29.5018 43.5086 28.8298 43.7846 28.3738 43.9526V45.1886C28.9258 44.7566 29.6218 44.4806 30.3418 44.4806C31.5898 44.4806 32.1778 44.8526 32.1778 45.8366C32.1778 46.6166 31.7938 47.2886 30.5218 47.2886H29.3218V48.1886ZM39.2777 52.0046H40.1897V47.6846C40.1897 46.0406 39.4337 45.5246 37.7537 45.5246C37.1417 45.5246 36.2417 45.6806 35.7137 45.9686V47.1206C36.1457 46.7606 36.9257 46.4366 37.6457 46.4366C38.7137 46.4366 39.1937 46.6766 39.1937 47.6966V48.2966H37.7657C35.9417 48.2966 35.2337 48.8366 35.2337 50.2406C35.2337 51.4646 36.0257 52.1366 37.2977 52.1366C38.2097 52.1366 38.8937 51.6686 39.2177 51.0926L39.2777 52.0046ZM36.2537 50.0846C36.2537 49.3166 36.5897 49.0286 37.8017 49.0286H39.1937V49.5686C39.1937 50.4926 38.6657 51.1766 37.4897 51.1766C36.6137 51.1766 36.2537 50.7686 36.2537 50.0846ZM41.7554 52.0046H42.9074L44.5394 49.7246H46.0994V52.0046H47.0954V45.6686C46.6394 45.6086 45.7874 45.5846 45.0914 45.5846C42.9074 45.5846 42.2234 46.3166 42.2234 47.6726C42.2234 48.6086 42.4994 49.3886 43.5194 49.5566L41.7554 52.0046ZM46.0994 48.9446H44.7674C43.6514 48.9446 43.2194 48.6566 43.2194 47.6966C43.2194 46.7726 43.5554 46.4606 45.0074 46.4606C45.5474 46.4606 45.7994 46.4726 46.0994 46.5086V48.9446ZM49.4 52.0166C49.868 52.0526 50.816 52.1006 51.656 52.1006C53.78 52.1006 54.416 51.2966 54.416 50.1086C54.416 49.0526 53.948 48.6926 52.88 48.5966C53.78 48.3446 54.116 47.8766 54.116 47.0606C54.116 46.1486 53.6 45.5606 51.56 45.5606C50.576 45.5606 49.856 45.6086 49.4 45.6326V52.0166ZM50.396 51.1766V49.1606H51.872C52.952 49.1606 53.42 49.4006 53.42 50.1206C53.42 50.9606 53 51.2366 51.692 51.2366C51.236 51.2366 50.804 51.2126 50.396 51.1766ZM50.396 48.3086V46.4366C50.672 46.4246 51.02 46.4246 51.632 46.4246C52.712 46.4246 53.108 46.6286 53.108 47.3486C53.108 48.0086 52.616 48.3086 51.872 48.3086H50.396ZM60.6467 52.0046H61.8587L59.1827 48.6686L61.6067 45.6446H60.4667L58.3427 48.3446H57.2867V45.6446H56.2907V52.0046H57.2867V49.1246H58.3307L60.6467 52.0046ZM63.2516 52.0046H64.1396L66.6116 48.4766C66.9716 47.9966 67.3436 47.3846 67.5476 47.0126L67.5836 47.0246C67.5476 47.4686 67.5116 48.5126 67.5116 49.4366V52.0046H68.5076V45.6446H67.6316L65.2196 49.1366C64.8716 49.6166 64.5236 50.0966 64.2236 50.6126L64.1756 50.5886C64.2116 50.2766 64.2476 49.4846 64.2476 48.7406V45.6446H63.2516V52.0046Z" fill="#737688"></path> </svg> 