<?xml version="1.0" encoding="UTF-8"?> <svg xmlns="http://www.w3.org/2000/svg" width="210" height="168" viewBox="0 0 210 168" fill="none"> <rect width="210" height="168" fill="white"></rect> <path d="M103 166.953C154.087 166.953 195.5 143.011 195.5 113.477C195.5 83.9422 154.087 59.9999 103 59.9999C51.9139 59.9999 10.5002 83.9422 10.5002 113.477C10.5002 143.011 51.9139 166.953 103 166.953Z" fill="#E7E9F8"></path> <path d="M136.887 22.5737C136.886 22.5123 136.875 22.4514 136.856 22.3932C136.856 22.3932 136.856 22.3932 136.856 22.3571C136.847 22.2971 136.831 22.2382 136.811 22.1812C136.785 22.0926 136.746 22.0087 136.693 21.9331C136.679 21.8946 136.658 21.8593 136.63 21.8293C136.615 21.8023 136.595 21.7779 136.571 21.7571C136.535 21.7095 136.493 21.6671 136.445 21.6308C136.394 21.5923 136.338 21.5604 136.278 21.5361C136.062 21.4549 135.828 21.4277 135.599 21.4568C135.369 21.4859 135.15 21.5704 134.961 21.703L35.4756 78.9977C34.9061 79.3701 34.4322 79.8712 34.0921 80.4605C33.752 81.0499 33.5552 81.7109 33.5176 82.3903V154.27C33.5154 154.509 33.5765 154.744 33.6945 154.952C33.8126 155.159 33.9835 155.332 34.1898 155.452L34.271 155.502L34.3703 155.561C34.4238 155.585 34.4797 155.603 34.5372 155.615C34.6195 155.638 34.7044 155.65 34.7898 155.651C35.0196 155.648 35.2442 155.582 35.4395 155.461L35.4891 155.434L37.3749 154.361L134.943 98.1486C135.513 97.777 135.988 97.2761 136.328 96.6866C136.668 96.0971 136.864 95.4357 136.901 94.756V22.8173C136.901 22.7359 136.896 22.6546 136.887 22.5737Z" fill="#353747"></path> <path d="M136.26 21.5229C136.043 21.4417 135.81 21.4145 135.581 21.4436C135.351 21.4727 135.132 21.5572 134.943 21.6898L35.4573 78.9845C34.8878 79.3569 34.4139 79.858 34.0738 80.4474C33.7337 81.0367 33.5369 81.6977 33.4993 82.3771V88.7698L31 87.3036V80.9425C31.037 80.2647 31.2332 79.6052 31.5726 79.0174C31.9119 78.4295 32.385 77.9299 32.9534 77.5589L132.448 20.2642C132.65 20.1152 132.889 20.0253 133.139 20.0046C133.39 19.9839 133.641 20.0332 133.864 20.1469C134.221 20.3725 135.845 21.3018 136.26 21.5229Z" fill="#6BEAC7"></path> <path d="M136.896 22.8028C136.896 21.5666 135.994 21.0704 134.943 21.6884L35.4529 78.9742C34.8845 79.3451 34.4115 79.8448 34.0721 80.4326C33.7327 81.0204 33.5365 81.6799 33.4995 82.3577V88.7549L136.896 29.2044V22.8028Z" fill="#6BEAC7"></path> <path opacity="0.5" d="M134.943 21.6899L35.4581 78.9756C34.891 79.3352 34.4251 79.8337 34.1047 80.4238L31.6189 78.9846C31.9423 78.4027 32.4079 77.9122 32.9723 77.559L132.467 20.2643C132.669 20.116 132.909 20.0269 133.159 20.007C133.409 19.9871 133.66 20.0371 133.883 20.1515C134.235 20.3636 135.859 21.2884 136.27 21.5049C136.051 21.4232 135.815 21.3973 135.583 21.4296C135.352 21.4619 135.132 21.5513 134.943 21.6899Z" fill="#FAFAFA"></path> <path opacity="0.15" d="M31 87.2995V80.9429C31.0258 80.2498 31.231 79.5752 31.5955 78.985L34.0858 80.4196C33.7229 81.005 33.5206 81.6756 33.4993 82.364V88.7567L31 87.2995Z" fill="#353747"></path> <path d="M125.32 30.0534C124.711 30.4053 124.214 31.4519 124.214 32.3903C124.214 33.3286 124.711 33.8068 125.32 33.455C125.929 33.1031 126.425 32.0564 126.425 31.1135C126.425 30.1707 125.942 29.7015 125.32 30.0534Z" fill="#FAFAFA"></path> <path d="M129.312 27.7524C128.703 28.1043 128.207 29.151 128.207 30.0894C128.207 31.0277 128.703 31.5059 129.312 31.154C129.921 30.8022 130.418 29.7555 130.418 28.8126C130.418 27.8697 129.921 27.4006 129.312 27.7524Z" fill="#FAFAFA"></path> <path d="M133.286 25.4534C132.677 25.8053 132.186 26.8519 132.186 27.7903C132.186 28.7287 132.677 29.2069 133.286 28.855C133.895 28.5031 134.392 27.4564 134.392 26.5136C134.392 25.5707 133.891 25.1015 133.286 25.4534Z" fill="#FAFAFA"></path> <path d="M34.1894 155.451L34.0811 155.392L32.0194 154.201C31.7505 154.04 31.5218 153.82 31.3507 153.557C31.1795 153.295 31.0703 152.996 31.0314 152.685C31.0247 152.591 31.0247 152.496 31.0314 152.401V87.2882L33.5307 88.7544V154.264C33.5293 154.491 33.5858 154.713 33.6948 154.912C33.8038 155.11 33.9616 155.277 34.1533 155.397L34.1894 155.451Z" fill="#737688"></path> <path d="M45.4372 87.2554L74.0485 70.6445C74.4319 70.4234 74.7432 70.5768 74.7432 70.9964C74.7261 71.2292 74.6542 71.4548 74.5335 71.6547C74.4128 71.8546 74.2466 72.0232 74.0485 72.1468L45.4372 88.7622C45.0537 88.9833 44.7424 88.8254 44.7424 88.4104C44.7596 88.1769 44.8314 87.9507 44.9521 87.75C45.0728 87.5494 45.239 87.38 45.4372 87.2554Z" fill="#6BEAC7"></path> <path d="M52.8715 101.309L129.949 56.5556C130.332 56.3345 130.643 56.4924 130.643 56.9075C130.626 57.1409 130.554 57.3669 130.433 57.5675C130.313 57.7681 130.147 57.9376 129.949 58.0624L52.8715 102.815C52.488 103.036 52.1768 102.879 52.1768 102.464C52.1943 102.23 52.2662 102.004 52.3869 101.804C52.5075 101.603 52.6735 101.433 52.8715 101.309Z" fill="#6BEAC7"></path> <path d="M52.8715 106.538L129.949 61.78C130.332 61.5589 130.643 61.7168 130.643 62.1319C130.626 62.3653 130.554 62.5915 130.434 62.7922C130.313 62.9928 130.147 63.1622 129.949 63.2868L52.8715 108.026C52.488 108.247 52.1768 108.089 52.1768 107.674C52.196 107.444 52.2688 107.221 52.3894 107.024C52.51 106.826 52.6751 106.66 52.8715 106.538Z" fill="#6BEAC7"></path> <path d="M76.7407 69.0933L130.372 38.1631C130.756 37.9421 131.067 38.1 131.067 38.515C131.05 38.7485 130.978 38.9747 130.857 39.1753C130.737 39.3759 130.57 39.5454 130.372 39.6699L76.7407 70.5956C76.3572 70.8166 76.0459 70.6587 76.0459 70.2437C76.0637 70.011 76.1359 69.7857 76.2565 69.5859C76.3772 69.3861 76.543 69.2174 76.7407 69.0933Z" fill="#6BEAC7"></path> <path d="M45.4362 91.5826L60.4998 82.7809C60.8832 82.5598 61.1945 82.7132 61.1945 83.1327C61.1774 83.3656 61.1055 83.5912 60.9848 83.7911C60.8641 83.991 60.6979 84.1596 60.4998 84.2832L45.4362 93.0849C45.0527 93.3059 44.7415 93.1526 44.7415 92.733C44.7586 92.5001 44.8305 92.2746 44.9512 92.0747C45.0719 91.8748 45.2381 91.7062 45.4362 91.5826Z" fill="#6BEAC7"></path> <path opacity="0.6" d="M45.4362 91.5826L60.4998 82.7809C60.8832 82.5598 61.1945 82.7132 61.1945 83.1327C61.1774 83.3656 61.1055 83.5912 60.9848 83.7911C60.8641 83.991 60.6979 84.1596 60.4998 84.2832L45.4362 93.0849C45.0527 93.3059 44.7415 93.1526 44.7415 92.733C44.7586 92.5001 44.8305 92.2746 44.9512 92.0747C45.0719 91.8748 45.2381 91.7062 45.4362 91.5826Z" fill="#FAFAFA"></path> <path d="M45.4372 95.8832L53.5036 91.2003C53.887 90.9748 54.1983 91.1327 54.1983 91.5477C54.1819 91.7814 54.1103 92.0079 53.9896 92.2086C53.8688 92.4093 53.7023 92.5786 53.5036 92.7026L45.4372 97.3945C45.0537 97.6155 44.7424 97.4576 44.7424 97.0426C44.7582 96.8081 44.8294 96.5808 44.9502 96.3792C45.071 96.1776 45.2379 96.0076 45.4372 95.8832Z" fill="#6BEAC7"></path> <path opacity="0.6" d="M45.4372 95.8832L53.5036 91.2003C53.887 90.9748 54.1983 91.1327 54.1983 91.5477C54.1819 91.7814 54.1103 92.0079 53.9896 92.2086C53.8688 92.4093 53.7023 92.5786 53.5036 92.7026L45.4372 97.3945C45.0537 97.6155 44.7424 97.4576 44.7424 97.0426C44.7582 96.8081 44.8294 96.5808 44.9502 96.3792C45.071 96.1776 45.2379 96.0076 45.4372 95.8832Z" fill="#FAFAFA"></path> <path d="M63.193 81.2244L71.4399 76.4784C71.8234 76.2574 72.1346 76.4153 72.1346 76.8303C72.1175 77.0638 72.0457 77.29 71.925 77.4906C71.8043 77.6912 71.6381 77.8607 71.4399 77.9852L63.193 82.7312C62.8096 82.9523 62.4983 82.7944 62.4983 82.3793C62.5147 82.1457 62.5863 81.9192 62.707 81.7185C62.8278 81.5177 62.9943 81.3484 63.193 81.2244Z" fill="#6BEAC7"></path> <path opacity="0.6" d="M63.193 81.2244L71.4399 76.4784C71.8234 76.2574 72.1346 76.4153 72.1346 76.8303C72.1175 77.0638 72.0457 77.29 71.925 77.4906C71.8043 77.6912 71.6381 77.8607 71.4399 77.9852L63.193 82.7312C62.8096 82.9523 62.4983 82.7944 62.4983 82.3793C62.5147 82.1457 62.5863 81.9192 62.707 81.7185C62.8278 81.5177 62.9943 81.3484 63.193 81.2244Z" fill="#FAFAFA"></path> <path d="M78.4013 101.742L130.373 71.7998C130.756 71.5743 131.067 71.7322 131.067 72.1472C131.051 72.3809 130.979 72.6074 130.859 72.8081C130.738 73.0088 130.571 73.1781 130.373 73.3021L78.4013 103.249C78.0178 103.47 77.7065 103.312 77.7065 102.897C77.7237 102.663 77.7955 102.437 77.9162 102.237C78.0369 102.036 78.2031 101.867 78.4013 101.742Z" fill="#FAFAFA"></path> <path d="M79.4161 96.8835L130.395 67.4692C130.778 67.2481 131.09 67.406 131.09 67.821C131.072 68.0545 131.001 68.2807 130.88 68.4814C130.759 68.682 130.593 68.8514 130.395 68.976L79.4387 98.3903C79.0552 98.6113 78.7439 98.4534 78.7439 98.0384C78.7585 97.8069 78.8269 97.582 78.9436 97.3815C79.0603 97.1811 79.2221 97.0105 79.4161 96.8835Z" fill="#FAFAFA"></path> <path d="M57.9279 109.466L76.7224 98.4406C77.1059 98.2195 77.4171 98.3774 77.4171 98.7924C77.4 99.0253 77.3281 99.2509 77.2074 99.4508C77.0867 99.6507 76.9205 99.8193 76.7224 99.9429L57.9279 110.973C57.5444 111.194 57.2332 111.036 57.2332 110.621C57.2503 110.388 57.3221 110.162 57.4428 109.961C57.5635 109.76 57.7297 109.591 57.9279 109.466Z" fill="#FAFAFA"></path> <path d="M56.8322 89.2681L113.292 56.5695C113.676 56.3484 113.987 56.5063 113.987 56.9214C113.97 57.1549 113.898 57.3811 113.777 57.5817C113.657 57.7823 113.491 57.9517 113.292 58.0763L56.8322 90.7749C56.4487 90.996 56.1375 90.8381 56.1375 90.423C56.1546 90.1895 56.2264 89.9633 56.3471 89.7627C56.4678 89.5621 56.634 89.3927 56.8322 89.2681Z" fill="#E7E9F8"></path> <path d="M116.333 54.8334L129.962 47.1641C130.346 46.943 130.657 47.1009 130.657 47.5159C130.64 47.7494 130.568 47.9756 130.447 48.1762C130.327 48.3769 130.161 48.5463 129.962 48.6709L116.333 56.3402C115.95 56.5613 115.639 56.4034 115.639 55.9883C115.656 55.7549 115.728 55.5287 115.848 55.328C115.969 55.1274 116.135 54.958 116.333 54.8334Z" fill="#E7E9F8"></path> <path d="M50.1066 97.9673L70.9312 85.6918C71.3147 85.4708 71.626 85.6287 71.626 86.0437C71.6088 86.2766 71.537 86.5022 71.4163 86.7021C71.2956 86.902 71.1294 87.0705 70.9312 87.1941L50.1066 99.4696C49.7232 99.6907 49.4119 99.5328 49.4119 99.1177C49.429 98.8849 49.5009 98.6593 49.6216 98.4594C49.7423 98.2595 49.9085 98.0909 50.1066 97.9673Z" fill="#6BEAC7"></path> <path opacity="0.6" d="M50.1066 97.9673L70.9312 85.6918C71.3147 85.4708 71.626 85.6287 71.626 86.0437C71.6088 86.2766 71.537 86.5022 71.4163 86.7021C71.2956 86.902 71.1294 87.0705 70.9312 87.1941L50.1066 99.4696C49.7232 99.6907 49.4119 99.5328 49.4119 99.1177C49.429 98.8849 49.5009 98.6593 49.6216 98.4594C49.7423 98.2595 49.9085 98.0909 50.1066 97.9673Z" fill="#FAFAFA"></path> <path d="M73.6232 84.1174L129.962 51.7752C130.345 51.5541 130.656 51.712 130.656 52.1271C130.639 52.3605 130.567 52.5865 130.446 52.7871C130.326 52.9876 130.16 53.1571 129.962 53.282L73.6232 85.6242C73.2398 85.8452 72.9285 85.6873 72.9285 85.2723C72.9456 85.0388 73.0174 84.8126 73.1381 84.612C73.2588 84.4114 73.425 84.2419 73.6232 84.1174Z" fill="#6BEAC7"></path> <path opacity="0.6" d="M73.6232 84.1174L129.962 51.7752C130.345 51.5541 130.656 51.712 130.656 52.1271C130.639 52.3605 130.567 52.5865 130.446 52.7871C130.326 52.9876 130.16 53.1571 129.962 53.282L73.6232 85.6242C73.2398 85.8452 72.9285 85.6873 72.9285 85.2723C72.9456 85.0388 73.0174 84.8126 73.1381 84.612C73.2588 84.4114 73.425 84.2419 73.6232 84.1174Z" fill="#FAFAFA"></path> <path d="M50.1066 122.735L130.373 76.2674C130.757 76.0463 131.068 76.2042 131.068 76.6192C131.052 76.8529 130.98 77.0794 130.859 77.2801C130.739 77.4808 130.572 77.6501 130.373 77.7742L50.1066 124.242C49.7232 124.463 49.4119 124.305 49.4119 123.89C49.429 123.656 49.5008 123.43 49.6215 123.229C49.7422 123.029 49.9084 122.859 50.1066 122.735Z" fill="#E7E9F8"></path> <path d="M50.1056 127.042L130.372 80.5746C130.756 80.3536 131.067 80.5115 131.067 80.9265C131.05 81.16 130.978 81.3862 130.857 81.5868C130.737 81.7874 130.571 81.9569 130.372 82.0814L50.1056 128.549C49.7222 128.774 49.4109 128.616 49.4109 128.201C49.4266 127.967 49.4978 127.74 49.6186 127.538C49.7394 127.336 49.9063 127.166 50.1056 127.042Z" fill="#E7E9F8"></path> <path d="M50.1056 131.35L130.372 84.8828C130.756 84.6617 131.067 84.8196 131.067 85.2347C131.05 85.4682 130.978 85.6944 130.857 85.895C130.737 86.0956 130.571 86.265 130.372 86.3896L50.1056 132.857C49.7222 133.078 49.4109 132.92 49.4109 132.505C49.4273 132.271 49.4989 132.045 49.6196 131.844C49.7404 131.644 49.9069 131.474 50.1056 131.35Z" fill="#E7E9F8"></path> <path d="M56.133 133.508L76.511 121.643C76.8944 121.418 77.2057 121.576 77.2057 121.991C77.1893 122.224 77.1177 122.451 76.997 122.652C76.8762 122.852 76.7097 123.022 76.511 123.146L56.133 135.015C55.7495 135.236 55.4382 135.078 55.4382 134.663C55.4554 134.43 55.5272 134.204 55.6479 134.003C55.7686 133.802 55.9348 133.633 56.133 133.508Z" fill="#6BEAC7"></path> <path d="M79.2043 120.032L130.373 90.5905C130.756 90.3695 131.067 90.5274 131.067 90.9424C131.052 91.1769 130.98 91.4043 130.86 91.6058C130.739 91.8074 130.572 91.9774 130.373 92.1019L79.2043 121.539C78.8208 121.76 78.5095 121.602 78.5095 121.187C78.527 120.953 78.599 120.727 78.7197 120.527C78.8403 120.326 79.0063 120.157 79.2043 120.032Z" fill="#6BEAC7"></path> <path d="M46.0588 139.271L52.4875 135.554C52.871 135.333 53.1823 135.491 53.1823 135.906C53.1651 136.139 53.0933 136.365 52.9726 136.566C52.8519 136.767 52.6857 136.936 52.4875 137.061L46.0588 140.778C45.6753 140.999 45.364 140.841 45.364 140.426C45.3812 140.193 45.453 139.967 45.5737 139.766C45.6944 139.565 45.8605 139.396 46.0588 139.271Z" fill="#6BEAC7"></path> <path opacity="0.6" d="M46.0588 139.271L52.4875 135.554C52.871 135.333 53.1823 135.491 53.1823 135.906C53.1651 136.139 53.0933 136.365 52.9726 136.566C52.8519 136.767 52.6857 136.936 52.4875 137.061L46.0588 140.778C45.6753 140.999 45.364 140.841 45.364 140.426C45.3812 140.193 45.453 139.967 45.5737 139.766C45.6944 139.565 45.8605 139.396 46.0588 139.271Z" fill="#FAFAFA"></path> <path d="M46.0593 143.166L52.488 139.471C52.8715 139.25 53.1828 139.408 53.1828 139.823C53.1656 140.056 53.0938 140.283 52.9731 140.483C52.8524 140.684 52.6862 140.853 52.488 140.978L46.0593 144.695C45.6758 144.916 45.3645 144.758 45.3645 144.343C45.3785 144.106 45.4489 143.875 45.5697 143.671C45.6905 143.466 45.8583 143.293 46.0593 143.166Z" fill="#6BEAC7"></path> <path opacity="0.6" d="M46.0593 143.166L52.488 139.471C52.8715 139.25 53.1828 139.408 53.1828 139.823C53.1656 140.056 53.0938 140.283 52.9731 140.483C52.8524 140.684 52.6862 140.853 52.488 140.978L46.0593 144.695C45.6758 144.916 45.3645 144.758 45.3645 144.343C45.3785 144.106 45.4489 143.875 45.5697 143.671C45.6905 143.466 45.8583 143.293 46.0593 143.166Z" fill="#FAFAFA"></path> <path d="M56.1555 137.214L130.372 94.3559C130.756 94.1349 131.067 94.2883 131.067 94.7078C131.05 94.9407 130.978 95.1663 130.857 95.3662C130.737 95.5661 130.571 95.7346 130.372 95.8582L56.1555 138.698C55.772 138.92 55.4607 138.762 55.4607 138.347C55.4816 138.117 55.5552 137.896 55.6757 137.699C55.7962 137.503 55.9603 137.337 56.1555 137.214Z" fill="#FAFAFA"></path> <path d="M37.7446 145.818L41.5251 143.634C41.9041 143.417 42.2109 143.593 42.2109 144.031V145.421C42.1977 145.659 42.1289 145.891 42.0098 146.098C41.8907 146.305 41.7247 146.481 41.5251 146.612L37.7446 148.795C37.3656 149.012 37.0588 148.836 37.0588 148.398V147.009C37.0723 146.77 37.1413 146.539 37.2604 146.332C37.3795 146.125 37.5453 145.949 37.7446 145.818Z" fill="#E7E9F8"></path> <path d="M37.7446 129.239L41.5251 127.056C41.9041 126.839 42.2109 127.015 42.2109 127.453V128.842C42.1977 129.081 42.1289 129.313 42.0098 129.52C41.8907 129.726 41.7247 129.902 41.5251 130.033L37.7446 132.212C37.3656 132.433 37.0588 132.258 37.0588 131.815V130.448C37.0684 130.207 37.1357 129.971 37.255 129.761C37.3742 129.55 37.5421 129.372 37.7446 129.239Z" fill="#E7E9F8"></path> <path d="M37.7446 134.771L41.5251 132.587C41.9041 132.366 42.2109 132.546 42.2109 132.984V134.374C42.1981 134.611 42.1294 134.843 42.0102 135.049C41.891 135.255 41.7248 135.43 41.5251 135.56L37.7446 137.744C37.3656 137.965 37.0588 137.784 37.0588 137.347V135.957C37.0719 135.719 37.1408 135.488 37.26 135.282C37.3791 135.076 37.5451 134.901 37.7446 134.771Z" fill="#E7E9F8"></path> <path d="M37.7446 140.297L41.5251 138.118C41.9041 137.897 42.2109 138.073 42.2109 138.51V139.923C42.1985 140.161 42.1299 140.393 42.0107 140.6C41.8916 140.807 41.7252 140.983 41.5251 141.114L37.7446 143.297C37.3656 143.514 37.0588 143.338 37.0588 142.9V141.511C37.0688 141.268 37.1362 141.032 37.2554 140.821C37.3746 140.61 37.5423 140.43 37.7446 140.297Z" fill="#E7E9F8"></path> <path d="M37.7446 112.659L41.5251 110.475C41.9041 110.254 42.2109 110.434 42.2109 110.872V112.262C42.1981 112.499 42.1294 112.731 42.0102 112.937C41.891 113.143 41.7248 113.318 41.5251 113.448L37.7446 115.632C37.3656 115.853 37.0588 115.672 37.0588 115.235V113.845C37.0719 113.607 37.1408 113.376 37.26 113.17C37.3791 112.964 37.5451 112.789 37.7446 112.659Z" fill="#E7E9F8"></path> <path d="M37.7446 118.186L41.5251 116.012C41.9041 115.795 42.2109 115.971 42.2109 116.409V117.798C42.1977 118.037 42.1289 118.269 42.0098 118.476C41.8907 118.682 41.7247 118.858 41.5251 118.989L37.7446 121.173C37.3656 121.39 37.0588 121.214 37.0588 120.776V119.386C37.0709 119.147 37.1393 118.913 37.2584 118.705C37.3775 118.496 37.5441 118.319 37.7446 118.186Z" fill="#E7E9F8"></path> <path d="M37.7446 123.717L41.5251 121.534C41.9041 121.317 42.2109 121.493 42.2109 121.931V123.32C42.1977 123.559 42.1289 123.79 42.0098 123.997C41.8907 124.204 41.7247 124.38 41.5251 124.511L37.7446 126.69C37.3656 126.911 37.0588 126.735 37.0588 126.298V124.908C37.0723 124.67 37.1413 124.438 37.2604 124.231C37.3795 124.025 37.5453 123.848 37.7446 123.717Z" fill="#E7E9F8"></path> <path d="M37.7446 96.0751L41.5251 93.9051C41.9041 93.6885 42.2109 93.8645 42.2109 94.3021V95.6916C42.1977 95.9299 42.1289 96.1619 42.0098 96.3687C41.8907 96.5756 41.7247 96.7516 41.5251 96.8826L37.7446 99.0661C37.3656 99.2827 37.0588 99.1067 37.0588 98.6691V97.2796C37.0702 97.039 37.1383 96.8045 37.2574 96.5952C37.3766 96.3859 37.5435 96.2077 37.7446 96.0751Z" fill="#E7E9F8"></path> <path d="M37.7446 101.607L41.5251 99.4236C41.9041 99.207 42.2109 99.383 42.2109 99.8206V101.21C42.1977 101.448 42.1289 101.68 42.0098 101.887C41.8907 102.094 41.7247 102.27 41.5251 102.401L37.7446 104.58C37.3656 104.801 37.0588 104.625 37.0588 104.188V102.798C37.0723 102.56 37.1413 102.328 37.2604 102.121C37.3795 101.914 37.5453 101.738 37.7446 101.607Z" fill="#E7E9F8"></path> <path d="M37.7446 107.137L41.5251 104.953C41.9041 104.732 42.2109 104.913 42.2109 105.35V106.74C42.1981 106.978 42.1294 107.209 42.0102 107.415C41.891 107.621 41.7248 107.797 41.5251 107.926L37.7446 110.11C37.3656 110.331 37.0588 110.15 37.0588 109.713V108.341C37.0691 108.101 37.1367 107.866 37.256 107.656C37.3752 107.447 37.5427 107.269 37.7446 107.137Z" fill="#E7E9F8"></path> <path d="M37.7446 90.5541L41.5251 88.3751C41.9041 88.1541 42.2109 88.33 42.2109 88.7676V90.1571C42.1988 90.3957 42.1304 90.6281 42.0112 90.8351C41.892 91.0421 41.7254 91.2179 41.5251 91.3481L37.7446 93.5317C37.3656 93.7482 37.0588 93.5723 37.0588 93.1346V91.7451C37.0723 91.5069 37.1413 91.2751 37.2604 91.0683C37.3795 90.8615 37.5453 90.6854 37.7446 90.5541Z" fill="#E7E9F8"></path> <path d="M165.855 34.2996C165.851 34.2384 165.841 34.1779 165.823 34.1192C165.823 34.1192 165.823 34.0921 165.823 34.0785C165.814 34.02 165.799 33.9626 165.778 33.9071C165.75 33.8181 165.711 33.7332 165.661 33.6545C165.646 33.6179 165.624 33.5843 165.598 33.5552C165.583 33.5274 165.563 33.5029 165.539 33.483C165.504 33.4344 165.461 33.3918 165.413 33.3567C165.361 33.3177 165.305 33.2845 165.246 33.2575C165.029 33.1763 164.796 33.1491 164.567 33.1782C164.337 33.2073 164.118 33.2918 163.928 33.4244L64.4161 90.6966C63.8473 91.0683 63.3741 91.5687 63.0347 92.1573C62.6953 92.7459 62.4993 93.4062 62.4626 94.0846V165.996C62.4636 166.238 62.5294 166.475 62.6532 166.683C62.7769 166.891 62.9542 167.062 63.1664 167.178C63.195 167.192 63.2222 167.209 63.2476 167.228L63.3514 167.282C63.4045 167.308 63.4605 167.328 63.5183 167.341C63.6012 167.36 63.6859 167.371 63.771 167.372C63.999 167.372 64.2223 167.307 64.4161 167.187L64.4702 167.156L66.3334 166.077L163.91 109.87C164.481 109.499 164.955 108.999 165.295 108.411C165.636 107.822 165.832 107.161 165.868 106.482V34.5432C165.869 34.4618 165.864 34.3805 165.855 34.2996Z" fill="white"></path> <path d="M165.228 33.2427C165.011 33.1616 164.778 33.1344 164.549 33.1635C164.319 33.1925 164.1 33.277 163.91 33.4097L64.4161 90.6954C63.8474 91.067 63.3741 91.5675 63.0347 92.1561C62.6954 92.7447 62.4994 93.405 62.4627 94.0834V100.476L59.9634 99.0144V92.6668C60.0004 91.9891 60.1966 91.3296 60.5359 90.7417C60.8753 90.1539 61.3484 89.6543 61.9168 89.2833L161.411 31.9976C161.614 31.8493 161.853 31.7602 162.103 31.7403C162.354 31.7204 162.604 31.7704 162.828 31.8848C163.184 32.1014 164.808 33.0262 165.228 33.2427Z" fill="#6BEAC7"></path> <path d="M165.864 34.5294C165.864 33.2933 164.984 32.7925 163.91 33.4151L64.4161 90.6963C63.8478 91.0685 63.375 91.569 63.0356 92.1576C62.6963 92.7461 62.5 93.4061 62.4626 94.0844V100.482L165.859 40.9311L165.864 34.5294Z" fill="#6BEAC7"></path> <path opacity="0.5" d="M163.911 33.4163L64.4167 90.6976C63.8523 91.0623 63.3873 91.5615 63.0633 92.1502L60.582 90.7111C60.9016 90.1264 61.3681 89.635 61.9355 89.2855L161.412 31.9998C161.616 31.8532 161.856 31.7648 162.106 31.7442C162.356 31.7235 162.608 31.7713 162.833 31.8825C163.185 32.099 164.809 33.0239 165.219 33.2359C165.003 33.1567 164.771 33.1317 164.543 33.1631C164.315 33.1946 164.098 33.2815 163.911 33.4163Z" fill="#FAFAFA"></path> <path opacity="0.15" d="M59.9631 99.0246V92.6636C59.9898 91.9719 60.1949 91.299 60.5586 90.7101L63.0489 92.1447C62.6868 92.7288 62.4845 93.3978 62.4624 94.0847V100.482L59.9631 99.0246Z" fill="#353747"></path> <path d="M154.301 41.7751C153.692 42.127 153.196 43.1781 153.196 44.1165C153.196 45.0549 153.692 45.5331 154.301 45.1767C154.91 44.8203 155.406 43.7781 155.406 42.8398C155.406 41.9014 154.91 41.4232 154.301 41.7751Z" fill="#FAFAFA"></path> <path d="M158.28 39.4737C157.666 39.8301 157.174 40.8767 157.174 41.8151C157.174 42.7535 157.666 43.2317 158.28 42.8798C158.893 42.5279 159.38 41.4768 159.38 40.5384C159.38 39.6 158.889 39.1218 158.28 39.4737Z" fill="#FAFAFA"></path> <path d="M162.254 37.1746C161.645 37.531 161.149 38.5777 161.149 39.5161C161.149 40.4544 161.645 40.9326 162.254 40.5807C162.863 40.2289 163.359 39.1777 163.359 38.2393C163.359 37.301 162.863 36.8227 162.254 37.1746Z" fill="#FAFAFA"></path> <path d="M63.1752 167.179L63.067 167.12L61.0053 165.929C60.7298 165.772 60.4944 165.554 60.3176 165.291C60.1407 165.028 60.0271 164.728 59.9857 164.413C59.9715 164.319 59.9639 164.224 59.9631 164.129V99.0162L62.4624 100.482V165.992C62.4641 166.218 62.5223 166.441 62.6318 166.638C62.7414 166.836 62.8987 167.003 63.0895 167.125C63.1197 167.14 63.1484 167.158 63.1752 167.179Z" fill="#E7E9F8"></path> <path d="M80.9055 115.918V110.247C80.9055 106.566 83.5312 102.073 86.7703 100.21L109.846 86.9731C113.09 85.1099 115.711 86.558 115.711 90.2032V95.8064" stroke="#737688" stroke-linecap="round" stroke-linejoin="round"></path> <path d="M71.7437 121.209L156.039 72.5308" stroke="#353747" stroke-linecap="round" stroke-linejoin="round"></path> <path d="M124.869 90.5238V84.5777C124.869 81.0589 127.495 76.6963 130.734 74.8286L156.025 60.2613" stroke="#737688" stroke-linecap="round" stroke-linejoin="round"></path> <path d="M90.0688 110.627V117.187C90.0688 120.796 92.69 122.226 95.9337 120.345L127.089 102.353C130.329 100.486 132.954 96.0374 132.954 92.4283V85.8687" stroke="#737688" stroke-linecap="round" stroke-linejoin="round"></path> <path d="M134.93 84.7229V91.2825C134.93 94.8916 137.555 96.3262 140.795 94.4404L155.998 85.6883" stroke="#737688" stroke-linecap="round" stroke-linejoin="round"></path> <path d="M71.7431 118.662C72.9566 117.963 73.9401 118.531 73.9401 119.934C73.8982 120.697 73.6776 121.439 73.2959 122.1C72.9142 122.762 72.3823 123.324 71.7431 123.742C70.5295 124.441 69.5415 123.873 69.5415 122.47C69.5842 121.707 69.8058 120.965 70.1882 120.303C70.5706 119.642 71.1033 119.08 71.7431 118.662Z" fill="#6BEAC7"></path> <path d="M156.039 69.9955C157.253 69.2963 158.241 69.8647 158.241 71.2677C158.198 72.0306 157.976 72.7727 157.594 73.4341C157.212 74.0955 156.679 74.6578 156.039 75.0754C154.826 75.7746 153.842 75.2062 153.842 73.8032C153.884 73.0406 154.105 72.2987 154.486 71.6372C154.868 70.9758 155.4 70.4134 156.039 69.9955Z" fill="#6BEAC7"></path> <path d="M98.3158 91.0509C99.5294 90.3471 100.513 90.9155 100.513 92.3186C100.472 93.0813 100.252 93.8237 99.8701 94.4853C99.4883 95.147 98.9558 95.7091 98.3158 96.1262C97.0977 96.83 96.1143 96.2615 96.1143 94.8585C96.1552 94.0952 96.376 93.3525 96.7586 92.6907C97.1412 92.029 97.6748 91.4671 98.3158 91.0509Z" fill="#6BEAC7"></path> <path d="M80.9059 113.373C82.1195 112.669 83.103 113.238 83.103 114.641C83.0622 115.403 82.8419 116.146 82.4602 116.807C82.0784 117.469 81.5459 118.031 80.9059 118.448C79.6923 119.152 78.7043 118.584 78.7043 117.181C78.746 116.417 78.9671 115.675 79.3496 115.013C79.7322 114.352 80.2654 113.79 80.9059 113.373Z" fill="#6BEAC7"></path> <path d="M115.725 93.2706C116.939 92.5668 117.922 93.1353 117.922 94.5383C117.881 95.3011 117.661 96.0434 117.279 96.7051C116.898 97.3667 116.365 97.9289 115.725 98.3459C114.507 99.0497 113.524 98.4813 113.524 97.0782C113.565 96.315 113.785 95.5722 114.168 94.9105C114.551 94.2488 115.084 93.6869 115.725 93.2706Z" fill="#6BEAC7"></path> <g opacity="0.35"> <path opacity="0.35" d="M98.3158 91.0503C99.5294 90.3465 100.513 90.9149 100.513 92.318C100.472 93.0808 100.252 93.8231 99.8701 94.4848C99.4883 95.1464 98.9558 95.7086 98.3158 96.1256C97.0977 96.8294 96.1143 96.261 96.1143 94.8579C96.1552 94.0947 96.376 93.3519 96.7586 92.6902C97.1412 92.0285 97.6748 91.4666 98.3158 91.0503Z" fill="#353747"></path> <path opacity="0.35" d="M80.9064 113.373C82.12 112.669 83.1034 113.238 83.1034 114.641C83.0626 115.403 82.8424 116.146 82.4606 116.807C82.0789 117.469 81.5464 118.031 80.9064 118.448C79.6928 119.152 78.7048 118.584 78.7048 117.18C78.7465 116.417 78.9676 115.675 79.3501 115.013C79.7326 114.352 80.2658 113.79 80.9064 113.373Z" fill="#353747"></path> <path opacity="0.35" d="M115.725 93.2696C116.939 92.5658 117.922 93.1342 117.922 94.5373C117.881 95.3 117.661 96.0424 117.279 96.704C116.898 97.3656 116.365 97.9278 115.725 98.3449C114.507 99.0487 113.524 98.4802 113.524 97.0772C113.565 96.3139 113.785 95.5712 114.168 94.9094C114.551 94.2477 115.084 93.6858 115.725 93.2696Z" fill="#353747"></path> </g> <path d="M124.87 87.978C126.084 87.2788 127.067 87.8472 127.067 89.2457C127.026 90.009 126.806 90.7519 126.424 91.4142C126.042 92.0765 125.51 92.6396 124.87 93.0579C123.652 93.7571 122.668 93.1887 122.668 91.7856C122.709 91.0224 122.93 90.2796 123.313 89.6179C123.695 88.9562 124.229 88.3943 124.87 87.978Z" fill="#6BEAC7"></path> <path d="M134.05 70.4163C135.264 69.717 136.247 70.2855 136.247 71.6885C136.206 72.4513 135.986 73.1936 135.604 73.8553C135.222 74.5169 134.69 75.0791 134.05 75.4961C132.832 76.1999 131.848 75.6315 131.848 74.2284C131.89 73.4646 132.111 72.7214 132.493 72.059C132.876 71.3966 133.409 70.8338 134.05 70.4163Z" fill="#6BEAC7"></path> <path d="M145.044 64.0698C146.258 63.3705 147.241 63.9389 147.241 65.342C147.201 66.1047 146.98 66.8471 146.599 67.5087C146.217 68.1704 145.684 68.7325 145.044 69.1496C143.831 69.8489 142.843 69.2804 142.843 67.8819C142.885 67.1184 143.107 66.3755 143.489 65.7133C143.871 65.0511 144.404 64.4881 145.044 64.0698Z" fill="#6BEAC7"></path> <path d="M156.039 57.7204C157.253 57.0212 158.241 57.5896 158.241 58.9927C158.198 59.7555 157.976 60.4976 157.594 61.159C157.212 61.8204 156.679 62.3827 156.039 62.8003C154.826 63.4995 153.842 62.9311 153.842 61.5281C153.884 60.7655 154.105 60.0236 154.486 59.3621C154.868 58.7007 155.4 58.1383 156.039 57.7204Z" fill="#6BEAC7"></path> <g opacity="0.15"> <path opacity="0.15" d="M124.869 87.978C126.082 87.2787 127.066 87.8472 127.066 89.2457C127.025 90.009 126.804 90.7519 126.423 91.4142C126.041 92.0765 125.509 92.6395 124.869 93.0578C123.651 93.7571 122.667 93.1887 122.667 91.7856C122.708 91.0224 122.929 90.2796 123.312 89.6179C123.694 88.9562 124.228 88.3943 124.869 87.978Z" fill="#353747"></path> <path opacity="0.15" d="M134.05 70.4163C135.263 69.717 136.247 70.2854 136.247 71.6885C136.206 72.4513 135.986 73.1936 135.604 73.8552C135.222 74.5169 134.69 75.0791 134.05 75.4961C132.832 76.1999 131.848 75.6314 131.848 74.2284C131.889 73.4646 132.11 72.7213 132.493 72.059C132.875 71.3966 133.409 70.8338 134.05 70.4163Z" fill="#353747"></path> <path opacity="0.15" d="M145.043 64.067C146.257 63.3677 147.24 63.9361 147.24 65.3392C147.199 66.1019 146.979 66.8443 146.597 67.5059C146.216 68.1676 145.683 68.7297 145.043 69.1468C143.83 69.846 142.842 69.2776 142.842 67.8791C142.884 67.1155 143.105 66.3727 143.488 65.7105C143.87 65.0483 144.403 64.4853 145.043 64.067Z" fill="#353747"></path> <path opacity="0.15" d="M156.038 57.7204C157.251 57.0211 158.239 57.5896 158.239 58.9926C158.197 59.7555 157.975 60.4976 157.593 61.159C157.21 61.8204 156.678 62.3826 156.038 62.8003C154.824 63.4995 153.841 62.9311 153.841 61.528C153.883 60.7655 154.103 60.0235 154.485 59.3621C154.867 58.7006 155.399 58.1383 156.038 57.7204Z" fill="#353747"></path> </g> <path d="M90.0688 108.081C91.2823 107.377 92.2658 107.946 92.2658 109.349C92.2246 110.112 92.0043 110.855 91.6226 111.517C91.2409 112.179 90.7086 112.742 90.0688 113.161C88.8552 113.86 87.8672 113.292 87.8672 111.888C87.9088 111.125 88.1299 110.383 88.5125 109.721C88.895 109.06 89.4282 108.498 90.0688 108.081Z" fill="#6BEAC7"></path> <path d="M112.057 108.507C113.271 107.803 114.259 108.372 114.259 109.775C114.217 110.538 113.996 111.28 113.614 111.942C113.231 112.604 112.698 113.166 112.057 113.583C110.844 114.286 109.86 113.718 109.86 112.315C109.901 111.552 110.121 110.81 110.503 110.148C110.885 109.486 111.417 108.924 112.057 108.507Z" fill="#6BEAC7"></path> <path d="M134.091 82.7054C135.309 82.0016 136.292 82.5701 136.292 83.9731C136.251 84.7369 136.03 85.4802 135.647 86.1426C135.265 86.8049 134.731 87.3677 134.091 87.7852C132.877 88.4845 131.894 87.9161 131.894 86.513C131.934 85.7503 132.155 85.0079 132.536 84.3463C132.918 83.6847 133.451 83.1225 134.091 82.7054Z" fill="#6BEAC7"></path> <path d="M156.039 83.1484C157.253 82.4447 158.241 83.0131 158.241 84.4161C158.198 85.1797 157.977 85.9225 157.594 86.5847C157.212 87.247 156.679 87.81 156.039 88.2283C154.826 88.9275 153.842 88.3591 153.842 86.9561C153.883 86.1933 154.103 85.4509 154.485 84.7893C154.867 84.1277 155.399 83.5655 156.039 83.1484Z" fill="#6BEAC7"></path> <path d="M145.044 89.495C146.258 88.7957 147.241 89.3641 147.241 90.7627C147.2 91.526 146.98 92.2688 146.598 92.9311C146.216 93.5934 145.684 94.1565 145.044 94.5748C143.831 95.2741 142.843 94.7056 142.843 93.3026C142.884 92.5395 143.106 91.797 143.488 91.1354C143.871 90.4738 144.404 89.9118 145.044 89.495Z" fill="#6BEAC7"></path> <g opacity="0.5"> <path opacity="0.5" d="M90.0685 108.082C91.2821 107.379 92.2656 107.947 92.2656 109.35C92.2244 110.113 92.004 110.856 91.6223 111.518C91.2406 112.181 90.7083 112.744 90.0685 113.162C88.8549 113.861 87.8669 113.293 87.8669 111.89C87.9086 111.127 88.1297 110.384 88.5122 109.723C88.8948 109.061 89.428 108.499 90.0685 108.082Z" fill="#FAFAFA"></path> <path opacity="0.5" d="M112.057 108.508C113.27 107.804 114.258 108.373 114.258 109.776C114.217 110.539 113.995 111.281 113.613 111.943C113.23 112.605 112.697 113.167 112.057 113.583C110.843 114.287 109.86 113.719 109.86 112.316C109.9 111.553 110.121 110.811 110.502 110.149C110.884 109.487 111.417 108.925 112.057 108.508Z" fill="#FAFAFA"></path> <path opacity="0.5" d="M134.091 82.7068C135.309 82.0031 136.292 82.5715 136.292 83.9745C136.251 84.7383 136.03 85.4816 135.648 86.144C135.265 86.8064 134.732 87.3692 134.091 87.7867C132.877 88.4859 131.894 87.9175 131.894 86.5145C131.935 85.7517 132.155 85.0093 132.537 84.3477C132.918 83.6861 133.451 83.1239 134.091 82.7068Z" fill="#FAFAFA"></path> <path opacity="0.5" d="M156.039 83.1499C157.252 82.4461 158.24 83.0145 158.24 84.4176C158.198 85.1811 157.977 85.924 157.594 86.5862C157.212 87.2484 156.679 87.8114 156.039 88.2297C154.825 88.929 153.842 88.3605 153.842 86.9575C153.883 86.1947 154.103 85.4523 154.485 84.7907C154.866 84.1291 155.399 83.5669 156.039 83.1499Z" fill="#FAFAFA"></path> <path opacity="0.5" d="M145.045 89.4969C146.258 88.7976 147.242 89.366 147.242 90.7646C147.2 91.5279 146.98 92.2707 146.598 92.933C146.217 93.5953 145.684 94.1584 145.045 94.5767C143.831 95.2759 142.843 94.7075 142.843 93.3045C142.885 92.5414 143.106 91.7989 143.488 91.1373C143.871 90.4757 144.404 89.9137 145.045 89.4969Z" fill="#FAFAFA"></path> </g> <path d="M69.9111 152.498V149.994C69.9201 149.824 69.9689 149.659 70.0535 149.512C70.1382 149.364 70.2563 149.239 70.3984 149.146L76.7504 145.478C77.0211 145.325 77.2376 145.451 77.2376 145.762V148.266C77.2287 148.436 77.1799 148.601 77.0953 148.748C77.0106 148.896 76.8925 149.021 76.7504 149.114L70.3984 152.782C70.1277 152.935 69.9111 152.809 69.9111 152.498Z" fill="#6BEAC7"></path> <path d="M79.5612 145.374L87.7449 140.65C88.0156 140.492 88.2366 140.605 88.2366 140.894C88.2245 141.058 88.1736 141.218 88.0881 141.359C88.0026 141.5 87.885 141.619 87.7449 141.706L79.5612 146.434C79.2905 146.587 79.074 146.479 79.074 146.186C79.0856 146.021 79.1358 145.862 79.2205 145.721C79.3051 145.58 79.4219 145.461 79.5612 145.374Z" fill="#E7E9F8"></path> <path d="M93.7405 138.746V136.238C93.7503 136.068 93.7999 135.902 93.8853 135.755C93.9707 135.608 94.0896 135.482 94.2322 135.389L100.584 131.722C100.855 131.568 101.071 131.695 101.071 132.006V134.51C101.063 134.679 101.014 134.845 100.93 134.992C100.845 135.14 100.727 135.265 100.584 135.358L94.2232 139.021C93.9525 139.183 93.7405 139.057 93.7405 138.746Z" fill="#6BEAC7"></path> <path opacity="0.35" d="M93.7405 138.746V136.238C93.7503 136.068 93.7999 135.902 93.8853 135.755C93.9707 135.608 94.0896 135.482 94.2322 135.389L100.584 131.722C100.855 131.568 101.071 131.695 101.071 132.006V134.51C101.063 134.679 101.014 134.845 100.93 134.992C100.845 135.14 100.727 135.265 100.584 135.358L94.2232 139.021C93.9525 139.183 93.7405 139.057 93.7405 138.746Z" fill="#353747"></path> <path d="M103.385 131.619L111.569 126.896C111.84 126.738 112.056 126.85 112.056 127.144C112.045 127.307 111.994 127.466 111.91 127.606C111.825 127.746 111.708 127.865 111.569 127.951L103.385 132.679C103.115 132.833 102.894 132.724 102.894 132.431C102.906 132.267 102.957 132.107 103.043 131.966C103.128 131.825 103.245 131.706 103.385 131.619Z" fill="#E7E9F8"></path> <path d="M117.556 124.992V122.483C117.564 122.314 117.613 122.149 117.698 122.003C117.783 121.856 117.901 121.732 118.043 121.64L124.418 117.972C124.688 117.814 124.909 117.94 124.909 118.252V120.76C124.9 120.929 124.851 121.094 124.765 121.241C124.68 121.388 124.561 121.512 124.418 121.604L118.066 125.271C117.772 125.429 117.556 125.303 117.556 124.992Z" fill="#6BEAC7"></path> <path opacity="0.5" d="M117.556 124.992V122.483C117.564 122.314 117.613 122.149 117.698 122.003C117.783 121.856 117.901 121.732 118.043 121.64L124.418 117.972C124.688 117.814 124.909 117.94 124.909 118.252V120.76C124.9 120.929 124.851 121.094 124.765 121.241C124.68 121.388 124.561 121.512 124.418 121.604L118.066 125.271C117.772 125.429 117.556 125.303 117.556 124.992Z" fill="#FAFAFA"></path> <path d="M127.206 117.868L135.395 113.14C135.661 112.987 135.882 113.095 135.882 113.389C135.869 113.552 135.819 113.711 135.734 113.852C135.649 113.993 135.533 114.112 135.395 114.201L127.206 118.924C126.936 119.082 126.719 118.969 126.719 118.676C126.731 118.512 126.781 118.354 126.866 118.214C126.95 118.073 127.067 117.955 127.206 117.868Z" fill="#E7E9F8"></path> <path d="M141.381 111.235V108.727C141.39 108.558 141.438 108.393 141.523 108.246C141.608 108.1 141.726 107.975 141.868 107.883L148.22 104.216C148.491 104.058 148.708 104.184 148.708 104.495V106.99C148.699 107.159 148.65 107.324 148.566 107.471C148.481 107.617 148.363 107.742 148.22 107.834L141.868 111.502C141.598 111.673 141.381 111.547 141.381 111.235Z" fill="#6BEAC7"></path> <path opacity="0.5" d="M141.381 111.235V108.727C141.39 108.558 141.438 108.393 141.523 108.246C141.608 108.1 141.726 107.975 141.868 107.883L148.22 104.216C148.491 104.058 148.708 104.184 148.708 104.495V106.99C148.699 107.159 148.65 107.324 148.566 107.471C148.481 107.617 148.363 107.742 148.22 107.834L141.868 111.502C141.598 111.673 141.381 111.547 141.381 111.235Z" fill="#FAFAFA"></path> <path d="M151.035 104.112L159.219 99.3842C159.49 99.2308 159.711 99.3391 159.711 99.6323C159.698 99.7968 159.647 99.9559 159.562 100.097C159.476 100.238 159.359 100.357 159.219 100.444L151.035 105.186C150.765 105.344 150.548 105.231 150.548 104.942C150.557 104.775 150.605 104.612 150.69 104.468C150.775 104.323 150.893 104.201 151.035 104.112Z" fill="#E7E9F8"></path> <path d="M192.062 70.0839L175.698 79.5332C175.529 79.6436 175.388 79.7921 175.286 79.9668C175.185 80.1414 175.126 80.3374 175.114 80.539V100.534C175.125 100.736 175.184 100.933 175.286 101.108C175.388 101.283 175.531 101.431 175.703 101.54L178.026 102.862C178.208 102.953 178.409 103 178.612 103C178.815 103 179.016 102.953 179.198 102.862L195.557 93.3979C195.725 93.2866 195.865 93.1379 195.966 92.9634C196.068 92.7889 196.127 92.5934 196.14 92.3921V72.3871C196.13 72.1852 196.071 71.9886 195.97 71.8137C195.869 71.6388 195.727 71.4906 195.557 71.3814L193.233 70.0839C193.051 69.9935 192.851 69.9465 192.647 69.9465C192.444 69.9465 192.244 69.9935 192.062 70.0839Z" fill="#5AB0FF"></path> <path d="M179.198 102.862C179.015 102.95 178.815 102.996 178.612 102.996C178.409 102.996 178.209 102.95 178.026 102.862L175.703 101.539C175.531 101.431 175.388 101.283 175.286 101.108C175.184 100.933 175.125 100.736 175.114 100.533V80.5436C175.122 80.331 175.186 80.1243 175.3 79.9451L178.785 81.9567C178.675 82.1377 178.609 82.3439 178.609 82.0271V102.017C178.614 102.862 178.851 103.058 179.198 102.862Z" fill="#5AB0FF"></path> <path opacity="0.3" d="M196.135 72.2815C196.089 71.9899 195.848 71.8843 195.556 72.0502L179.197 81.5146C179.025 81.623 178.883 81.7736 178.785 81.9521L175.295 79.9405C175.391 79.7707 175.53 79.6286 175.697 79.5282L192.061 70.0839C192.243 69.9935 192.444 69.9465 192.647 69.9465C192.85 69.9465 193.051 69.9935 193.233 70.0839L195.551 71.4065C195.705 71.5028 195.836 71.6306 195.937 71.7815C196.037 71.9323 196.105 72.1027 196.135 72.2815Z" fill="white"></path> <path d="M173.515 95.3751C173.148 95.1538 170.352 93.5798 170.261 93.5245C170.193 93.4831 170.134 93.4269 170.089 93.3599C170.045 93.2929 170.016 93.2168 170.005 93.1372C169.994 93.0577 170.001 92.9766 170.025 92.9C170.05 92.8234 170.091 92.7533 170.146 92.6947L175.094 86.997L178.589 89.0085L173.394 94.5403C173.341 94.6005 173.302 94.6714 173.279 94.7483C173.256 94.8252 173.25 94.9062 173.262 94.9856C173.273 95.0651 173.302 95.141 173.345 95.2083C173.389 95.2755 173.447 95.3324 173.515 95.3751Z" fill="#5AB0FF"></path> <path opacity="0.3" d="M173.515 95.3751C173.148 95.1538 170.352 93.5798 170.261 93.5245C170.193 93.4831 170.134 93.4269 170.089 93.3599C170.045 93.2929 170.016 93.2168 170.005 93.1372C169.994 93.0577 170.001 92.9766 170.025 92.9C170.05 92.8234 170.091 92.7533 170.146 92.6947L175.094 86.997L178.589 89.0085L173.394 94.5403C173.341 94.6005 173.302 94.6714 173.279 94.7483C173.256 94.8252 173.25 94.9062 173.262 94.9856C173.273 95.0651 173.302 95.141 173.345 95.2083C173.389 95.2755 173.447 95.3324 173.515 95.3751Z" fill="white"></path> <path d="M195.557 72.0499L179.198 81.5142C179.029 81.6247 178.889 81.7732 178.787 81.9478C178.686 82.1225 178.627 82.3184 178.615 82.52V88.9972L173.415 94.529C173.333 94.5951 173.273 94.6854 173.245 94.7873C173.217 94.8891 173.221 94.9973 173.258 95.0964C173.295 95.1955 173.362 95.2805 173.45 95.3393C173.537 95.3982 173.641 95.4278 173.747 95.4241L178.61 95.0671V102.5C178.61 102.872 178.871 103.003 179.193 102.837L195.552 93.3724C195.721 93.2611 195.861 93.1124 195.962 92.9379C196.063 92.7634 196.123 92.5679 196.136 92.3666V72.3868C196.141 72.0147 195.879 71.8638 195.557 72.0499Z" fill="#5AB0FF"></path> <path d="M192.318 89.8008L188.989 87.2863L192.454 80.6733C192.531 80.5271 192.578 80.3671 192.592 80.2027C192.607 80.0382 192.589 79.8724 192.54 79.7148C192.491 79.5572 192.411 79.4109 192.305 79.2841C192.199 79.1574 192.07 79.0527 191.923 78.9761C191.777 78.8995 191.617 78.8524 191.453 78.8376C191.288 78.8229 191.122 78.8406 190.965 78.8899C190.807 78.9391 190.661 79.0189 190.534 79.1248C190.407 79.2306 190.303 79.3604 190.226 79.5066L186.957 85.7525L183.965 83.4895C183.833 83.3905 183.683 83.3184 183.523 83.2774C183.363 83.2364 183.196 83.2274 183.033 83.2507C182.87 83.2741 182.712 83.3294 182.57 83.4135C182.428 83.4976 182.304 83.6089 182.205 83.741C182.106 83.8731 182.034 84.0234 181.993 84.1833C181.952 84.3432 181.943 84.5097 181.966 84.6731C181.99 84.8365 182.045 84.9938 182.129 85.1358C182.213 85.2779 182.324 85.402 182.457 85.5011L185.786 88.0155L182.467 94.3469C182.313 94.6431 182.282 94.9883 182.382 95.3069C182.482 95.6254 182.704 95.8914 183 96.0467C183.18 96.1393 183.38 96.1875 183.583 96.1875C183.812 96.1887 184.038 96.1265 184.234 96.0075C184.43 95.8886 184.589 95.7176 184.694 95.5136L187.817 89.5493L190.835 91.8123C191.052 91.9804 191.319 92.0707 191.594 92.0688C191.857 92.0685 192.113 91.9857 192.327 91.832C192.54 91.6784 192.7 91.4616 192.784 91.2123C192.868 90.9631 192.871 90.6937 192.794 90.4423C192.717 90.1909 192.563 89.97 192.353 89.8108L192.318 89.8008Z" fill="white"></path> <path d="M179.198 72.3938C179.016 72.4831 178.815 72.5295 178.612 72.5295C178.409 72.5295 178.209 72.4831 178.026 72.3938L175.703 71.0863C175.376 70.9053 175.114 70.4527 175.114 70.5834V50.5835C175.066 50.2061 175.131 49.8228 175.301 49.4822L178.786 51.4938C178.622 51.8274 178.561 52.2017 178.61 52.5699V72.5648C178.615 72.3989 178.851 72.595 179.198 72.3938Z" fill="#353747"></path> <path d="M196.135 41.8187C196.089 41.522 195.848 41.4164 195.556 41.5874L179.197 51.0518C179.025 51.1602 178.883 51.3107 178.785 51.4893L175.295 49.4777C175.392 49.3075 175.531 49.1641 175.697 49.0603L192.061 39.596C192.243 39.5056 192.444 39.4585 192.647 39.4585C192.85 39.4585 193.051 39.5056 193.233 39.596L195.551 40.9135C195.708 41.0131 195.842 41.1456 195.943 41.3019C196.043 41.4582 196.109 41.6346 196.135 41.8187Z" fill="#737688"></path> <path d="M173.515 64.9061C173.148 64.6898 170.352 63.1158 170.261 63.0605C170.193 63.0192 170.134 62.9629 170.089 62.8959C170.045 62.8289 170.016 62.7528 170.005 62.6732C169.994 62.5937 170.001 62.5126 170.025 62.436C170.05 62.3595 170.091 62.2893 170.146 62.2307L175.094 56.533L178.589 58.5445L173.394 64.0763C173.341 64.136 173.302 64.2066 173.279 64.2831C173.256 64.3596 173.25 64.4402 173.262 64.5193C173.273 64.5983 173.302 64.6739 173.346 64.7407C173.389 64.8075 173.447 64.864 173.515 64.9061Z" fill="#737688"></path> <path d="M195.556 41.5859L179.197 51.0503C179.028 51.1607 178.888 51.3092 178.786 51.4839C178.685 51.6585 178.626 51.8545 178.614 52.0561V58.5333L173.414 64.065C173.332 64.1311 173.272 64.2215 173.244 64.3233C173.216 64.4252 173.22 64.5333 173.257 64.6324C173.294 64.7315 173.361 64.8165 173.449 64.8754C173.536 64.9342 173.64 64.9639 173.746 64.9602L178.609 64.6082V72.0358C178.609 72.413 178.871 72.5387 179.192 72.3728L195.551 62.9084C195.72 62.798 195.861 62.6495 195.963 62.4748C196.064 62.3002 196.123 62.1042 196.135 61.9026V41.9178C196.14 41.5507 195.878 41.4149 195.556 41.5859Z" fill="#353747"></path> <path d="M193.41 55.6949L193.023 52.8334C193.016 52.7725 192.993 52.7145 192.956 52.6657C192.918 52.617 192.869 52.5793 192.812 52.5568C192.77 52.5408 192.726 52.5322 192.681 52.5317C192.603 52.5334 192.529 52.5618 192.47 52.6121L191.504 53.3866C191.387 52.9028 191.19 52.4421 190.921 52.0238L191.424 50.847L192.062 48.6091C192.076 48.5656 192.081 48.5197 192.076 48.4742C192.072 48.4287 192.058 48.3847 192.036 48.3447C192.014 48.3047 191.984 48.2696 191.948 48.2416C191.911 48.2136 191.87 48.1932 191.826 48.1817C191.796 48.1769 191.765 48.1769 191.735 48.1817C191.66 48.1821 191.587 48.2068 191.527 48.2521C191.468 48.2974 191.424 48.361 191.403 48.4331L190.78 50.6106L190.413 51.4806C190.312 51.3899 190.205 51.3075 190.091 51.2342C189.76 51.0289 189.379 50.916 188.99 50.9074L189.573 48.6494C189.595 48.5608 189.581 48.4672 189.535 48.3884C189.489 48.3096 189.414 48.2517 189.327 48.227H189.241C189.164 48.2265 189.09 48.2514 189.029 48.2978C188.968 48.3442 188.924 48.4095 188.904 48.4834L188.255 50.9979C187.99 51.0685 187.733 51.1697 187.491 51.2996C187.304 51.3986 187.126 51.513 186.958 51.6416L186.541 50.1027C186.521 50.0301 186.477 49.9661 186.417 49.9207C186.357 49.8752 186.284 49.8508 186.209 49.8513C186.179 49.8463 186.148 49.8463 186.118 49.8513C186.074 49.8629 186.033 49.8831 185.997 49.9107C185.962 49.9383 185.932 49.9728 185.909 50.0121C185.887 50.0514 185.872 50.0947 185.867 50.1396C185.861 50.1846 185.865 50.2301 185.877 50.2737L186.38 52.1143C185.661 52.82 185.063 53.6389 184.609 54.5382L184.459 54.2968L183.956 52.7882C183.947 52.709 183.911 52.6353 183.854 52.5795C183.797 52.5236 183.723 52.489 183.644 52.4814C183.611 52.4761 183.577 52.4761 183.543 52.4814C183.457 52.5103 183.385 52.5714 183.343 52.652C183.301 52.7327 183.291 52.8265 183.317 52.9139L183.82 54.5382L184.257 55.2071C183.906 56.0157 183.638 56.8582 183.458 57.7215H183.382L182.18 58.0383C182.117 58.0556 182.059 58.0909 182.014 58.1399C181.97 58.1889 181.94 58.2496 181.929 58.3149L181.351 61.6893C181.336 61.7792 181.357 61.8713 181.41 61.9456C181.463 62.02 181.543 62.0706 181.632 62.0866H181.693C181.774 62.0865 181.852 62.0576 181.914 62.0051C181.975 61.9526 182.016 61.8799 182.03 61.7999L182.573 58.6418L183.332 58.4457C183.271 58.8588 183.234 59.2753 183.221 59.6928C183.18 60.542 183.282 61.3921 183.523 62.2073C183.491 62.2282 183.462 62.2536 183.438 62.2827L182.326 63.6305C182.284 63.6816 182.257 63.7439 182.249 63.8099C182.241 63.8758 182.252 63.9427 182.281 64.0026L183.352 66.1751C183.381 66.2328 183.426 66.2813 183.481 66.315C183.536 66.3488 183.599 66.3665 183.664 66.3662C183.716 66.3671 183.768 66.355 183.815 66.331C183.856 66.3112 183.892 66.2834 183.922 66.2493C183.952 66.2152 183.975 66.1754 183.99 66.1324C184.004 66.0893 184.01 66.0437 184.007 65.9984C184.004 65.9531 183.991 65.9088 183.971 65.8683L183 63.897L183.815 62.8912C184.041 63.3593 184.389 63.7585 184.821 64.0478C185.173 64.2678 185.582 64.3829 185.997 64.3798C186.497 64.3703 186.987 64.2355 187.421 63.9875C188.929 63.1577 190.297 61.1512 191.051 58.8681H191.092L191.937 59.0089L190.83 62.0262C190.799 62.1123 190.804 62.207 190.842 62.2899C190.881 62.3728 190.951 62.437 191.036 62.4688C191.076 62.474 191.117 62.474 191.157 62.4688C191.227 62.4681 191.296 62.4461 191.353 62.4057C191.411 62.3652 191.454 62.3083 191.479 62.2425L192.726 58.8228C192.744 58.7751 192.75 58.7241 192.745 58.6735C192.74 58.6229 192.723 58.5742 192.696 58.5312C192.672 58.4864 192.637 58.448 192.595 58.4191C192.553 58.3903 192.505 58.3718 192.454 58.3652L191.248 58.164C191.492 57.2885 191.632 56.3871 191.665 55.4786C191.682 55.0016 191.661 54.5239 191.6 54.0504H191.63L192.374 53.452L192.676 55.7049C192.688 55.7871 192.729 55.8623 192.792 55.9167C192.854 55.9712 192.935 56.0013 193.018 56.0016H193.063C193.152 55.9867 193.233 55.9385 193.288 55.8666C193.343 55.7947 193.369 55.7045 193.36 55.6144L193.41 55.6949ZM187.823 51.8679C188.157 51.6745 188.534 51.5674 188.919 51.5561C189.206 51.5548 189.486 51.635 189.729 51.7874C189.872 51.8761 190.003 51.9844 190.116 52.1093C189.525 53.3863 188.572 54.4617 187.375 55.202C187 55.4184 186.577 55.5393 186.143 55.554C185.746 55.5585 185.362 55.4089 185.072 55.1366C185.786 53.6481 186.767 52.4361 187.823 51.8679ZM183.915 59.7683C183.971 58.4039 184.264 57.0596 184.78 55.7954C185.166 56.0935 185.641 56.253 186.128 56.248C186.486 56.2427 186.84 56.1746 187.174 56.0469L186.943 63.545C186.655 63.6835 186.342 63.7589 186.023 63.7662C185.734 63.7685 185.452 63.6882 185.208 63.5349C184.343 62.9968 183.855 61.5887 183.915 59.7683ZM187.647 63.1125L187.873 55.7099C189.006 54.9779 189.93 53.9642 190.554 52.768C190.927 53.6487 191.089 54.6046 191.026 55.5591C190.936 58.5161 189.462 61.7396 187.667 63.1125H187.647Z" fill="#6BEAC7"></path> <path d="M192.062 9.14213L175.698 18.6065C175.376 18.7926 175.114 19.2452 175.114 20.1152V40.1201C175.114 39.9894 175.376 40.4369 175.703 40.623L178.026 41.9456C178.208 42.036 178.409 42.083 178.612 42.083C178.815 42.083 179.016 42.036 179.198 41.9456L195.557 32.4812C195.726 32.3708 195.867 32.2223 195.968 32.0476C196.069 31.873 196.128 31.677 196.14 31.4754V11.4655C196.13 11.2635 196.071 11.067 195.97 10.8921C195.869 10.7171 195.727 10.5689 195.557 10.4597L193.233 9.1371C193.051 9.04749 192.85 9.00132 192.647 9.00219C192.444 9.00307 192.243 9.05096 192.062 9.14213Z" fill="#6BEAC7"></path> <path opacity="0.2" d="M179.198 41.9202C179.015 42.0084 178.815 42.0542 178.612 42.0542C178.409 42.0542 178.209 42.0084 178.026 41.9202L175.703 40.5976C175.376 40.4166 175.115 39.964 175.115 40.0947V20.12C175.066 19.7442 175.131 19.3624 175.301 19.0237L178.786 21.0352C178.675 21.2163 178.61 21.4224 178.61 21.1056V41.0955C178.615 41.9202 178.851 42.1365 179.198 41.9202Z" fill="#353747"></path> <path opacity="0.3" d="M196.136 11.3602C196.09 11.0635 195.849 10.9579 195.557 11.1289L179.198 20.5932C179.026 20.7016 178.884 20.8522 178.786 21.0308L175.296 19.0192C175.393 18.8489 175.532 18.7055 175.698 18.6018L192.062 9.13742C192.244 9.04703 192.445 9 192.648 9C192.851 9 193.052 9.04703 193.234 9.13742L195.552 10.46C195.709 10.559 195.842 10.6908 195.943 10.8462C196.043 11.0016 196.109 11.1769 196.136 11.3602Z" fill="white"></path> <path d="M173.515 34.4475C173.148 34.2313 170.352 32.6522 170.262 32.6019C170.193 32.5601 170.134 32.5034 170.089 32.4359C170.045 32.3685 170.016 32.292 170.005 32.212C169.994 32.1321 170.001 32.0507 170.025 31.9737C170.05 31.8967 170.091 31.8262 170.146 31.7671L175.094 26.0744L178.589 28.086L173.395 33.6178C173.342 33.6778 173.304 33.7485 173.281 33.8248C173.259 33.9012 173.253 33.9815 173.265 34.0603C173.276 34.1391 173.304 34.2145 173.348 34.2813C173.391 34.3481 173.448 34.4048 173.515 34.4475Z" fill="#6BEAC7"></path> <path opacity="0.3" d="M173.515 34.4475C173.148 34.2313 170.352 32.6522 170.262 32.6019C170.193 32.5601 170.134 32.5034 170.089 32.4359C170.045 32.3685 170.016 32.292 170.005 32.212C169.994 32.1321 170.001 32.0507 170.025 31.9737C170.05 31.8967 170.091 31.8262 170.146 31.7671L175.094 26.0744L178.589 28.086L173.395 33.6178C173.342 33.6778 173.304 33.7485 173.281 33.8248C173.259 33.9012 173.253 33.9815 173.265 34.0603C173.276 34.1391 173.304 34.2145 173.348 34.2813C173.391 34.3481 173.448 34.4048 173.515 34.4475Z" fill="white"></path> <path d="M195.557 11.1295L179.198 20.5939C179.029 20.7043 178.889 20.8528 178.787 21.0275C178.686 21.2021 178.627 21.3981 178.615 21.5997V28.0819L173.415 33.6137C173.333 33.6797 173.273 33.7701 173.245 33.872C173.217 33.9738 173.221 34.082 173.258 34.1811C173.295 34.2802 173.362 34.3652 173.45 34.424C173.537 34.4828 173.641 34.5125 173.747 34.5088L178.61 34.1568V41.5996C178.61 41.9717 178.871 42.1025 179.193 41.9365L195.552 32.4721C195.721 32.3617 195.862 32.2132 195.963 32.0385C196.065 31.8639 196.124 31.6679 196.136 31.4663V11.4664C196.141 11.0943 195.879 10.9434 195.557 11.1295Z" fill="#6BEAC7"></path> <path d="M192.525 16.7105C192.169 16.5631 191.769 16.5623 191.412 16.7083C191.055 16.8543 190.77 17.1352 190.619 17.49L185.153 30.5601L183.84 29.2878C183.558 29.06 183.2 28.9463 182.838 28.9688C182.476 28.9913 182.135 29.1485 181.883 29.4095C181.631 29.6704 181.485 30.0163 181.475 30.379C181.465 30.7418 181.591 31.0952 181.829 31.3697L184.65 34.1306C184.821 34.2951 185.029 34.4152 185.257 34.4802C185.485 34.5452 185.726 34.5533 185.958 34.5036C186.19 34.454 186.406 34.3481 186.587 34.1954C186.769 34.0427 186.91 33.8477 186.998 33.6277L193.3 18.6164C193.449 18.2609 193.451 17.8608 193.306 17.5036C193.161 17.1465 192.88 16.8613 192.525 16.7105Z" fill="white"></path> </svg> 