<?xml version="1.0" encoding="UTF-8"?> <svg xmlns="http://www.w3.org/2000/svg" width="208" height="144" viewBox="0 0 208 144" fill="none"> <path d="M191.5 77.0191L131.923 1.98535M131.923 1.98535L158 84.52M131.923 1.98535L112 84.0199M131.923 1.98535L67.5 49.0158" stroke="#6BEAC7" stroke-width="2" stroke-miterlimit="10"></path> <path opacity="0.7" d="M116.518 140.797C131.786 134.362 138.947 116.766 132.512 101.496C126.078 86.2265 108.484 79.0647 93.2163 85.5C77.9483 91.9354 70.7874 109.531 77.2219 124.801C83.6565 140.071 101.25 147.232 116.518 140.797Z" fill="url(#paint0_linear)"></path> <path opacity="0.7" d="M52.7676 107.975C72.1071 99.8233 81.1776 77.5356 73.0271 58.1939C64.8767 38.8521 42.5916 29.7805 23.2521 37.9319C3.9126 46.0833 -5.15789 68.371 2.99257 87.7128C11.143 107.055 33.4281 116.126 52.7676 107.975Z" fill="url(#paint1_linear)"></path> <path opacity="0.7" d="M171.519 121.956C181.697 117.666 186.471 105.935 182.181 95.7555C177.892 85.5756 166.163 80.8011 155.984 85.0913C145.805 89.3816 141.031 101.112 145.321 111.292C149.611 121.472 161.34 126.246 171.519 121.956Z" fill="url(#paint2_linear)"></path> <path opacity="0.7" d="M201.097 94.2937C206.186 92.1485 208.573 86.2834 206.429 81.1934C204.284 76.1035 198.419 73.7162 193.33 75.8613C188.241 78.0065 185.854 83.8716 187.998 88.9616C190.143 94.0515 196.008 96.4388 201.097 94.2937Z" fill="url(#paint3_linear)"></path> <defs> <linearGradient id="paint0_linear" x1="74.8594" y1="151.87" x2="107.16" y2="80.1638" gradientUnits="userSpaceOnUse"> <stop stop-color="#515DAD"></stop> <stop offset="0.23858" stop-color="#568DDC"></stop> <stop offset="0.451216" stop-color="#5AB0FF"></stop> <stop offset="0.64375" stop-color="#60C5EB"></stop> <stop offset="0.841667" stop-color="#68DFD1"></stop> <stop offset="1" stop-color="#6BEAC7"></stop> </linearGradient> <linearGradient id="paint1_linear" x1="3.92755e-06" y1="122" x2="40.9138" y2="31.1727" gradientUnits="userSpaceOnUse"> <stop stop-color="#515DAD"></stop> <stop offset="0.23858" stop-color="#568DDC"></stop> <stop offset="0.451216" stop-color="#5AB0FF"></stop> <stop offset="0.64375" stop-color="#60C5EB"></stop> <stop offset="0.841667" stop-color="#68DFD1"></stop> <stop offset="1" stop-color="#6BEAC7"></stop> </linearGradient> <linearGradient id="paint2_linear" x1="143.746" y1="129.338" x2="165.28" y2="81.5339" gradientUnits="userSpaceOnUse"> <stop stop-color="#515DAD"></stop> <stop offset="0.23858" stop-color="#568DDC"></stop> <stop offset="0.451216" stop-color="#5AB0FF"></stop> <stop offset="0.64375" stop-color="#60C5EB"></stop> <stop offset="0.841667" stop-color="#68DFD1"></stop> <stop offset="1" stop-color="#6BEAC7"></stop> </linearGradient> <linearGradient id="paint3_linear" x1="187.211" y1="97.9845" x2="197.978" y2="74.0826" gradientUnits="userSpaceOnUse"> <stop stop-color="#515DAD"></stop> <stop offset="0.23858" stop-color="#568DDC"></stop> <stop offset="0.451216" stop-color="#5AB0FF"></stop> <stop offset="0.64375" stop-color="#60C5EB"></stop> <stop offset="0.841667" stop-color="#68DFD1"></stop> <stop offset="1" stop-color="#6BEAC7"></stop> </linearGradient> </defs> </svg> 