<?xml version="1.0" encoding="UTF-8"?> <svg xmlns="http://www.w3.org/2000/svg" width="80" height="81" viewBox="0 0 80 81" fill="none"> <path d="M80 40.0075C80 17.9135 62.0914 0.00276651 40 0.00276756C17.9086 0.00276862 -2.95879e-06 17.9135 -1.90609e-06 40.0075C-8.53385e-07 62.1015 17.9086 80.0122 40 80.0122C62.0914 80.0122 80 62.1015 80 40.0075Z" fill="white"></path> <path d="M10.5784 37.0059H17.0464V38.5659H18.0544V36.0459H16.9744V28.6059H15.8944V36.0459H11.6584V28.6059H10.5784V37.0059ZM19.6207 37.0059H20.5087L22.9807 33.4779C23.3407 32.9979 23.7127 32.3859 23.9167 32.0139L23.9527 32.0259C23.9167 32.4699 23.8807 33.5139 23.8807 34.4379V37.0059H24.8767V30.6459H24.0007L21.5887 34.1379C21.2407 34.6179 20.8927 35.0979 20.5927 35.6139L20.5447 35.5899C20.5807 35.2779 20.6167 34.4859 20.6167 33.7419V30.6459H19.6207V37.0059ZM31.0313 39.1659V37.0659C31.2353 37.1019 31.4033 37.1139 31.5473 37.1139C33.4673 37.1139 34.3193 36.1419 34.3193 33.8259C34.3193 31.4139 33.5153 30.5499 31.7033 30.5499C31.4153 30.5499 31.2593 30.5739 31.0313 30.6339V28.0059H30.0353V30.6099C29.9033 30.5739 29.7593 30.5619 29.5673 30.5619C27.4433 30.5619 26.7473 31.7379 26.7473 33.8259C26.7473 36.2259 27.5513 37.1139 29.3633 37.1139C29.6393 37.1139 29.8193 37.1019 30.0353 37.0299V39.1659H31.0313ZM29.4833 36.2139C28.2113 36.2139 27.7433 35.4579 27.7433 33.7299C27.7433 32.0739 28.3433 31.4499 29.6513 31.4499C29.8193 31.4499 29.9033 31.4739 30.0353 31.4979V36.1899C29.9153 36.2139 29.8433 36.2139 29.4833 36.2139ZM31.0313 36.1779V31.4979C31.1633 31.4619 31.2353 31.4499 31.4753 31.4499C32.7833 31.4499 33.3233 31.9659 33.3233 33.9219C33.3233 35.6259 32.7473 36.2139 31.4153 36.2139C31.2473 36.2139 31.1993 36.2019 31.0313 36.1779ZM36.1791 39.1659H37.1751V36.1539C37.4871 36.6819 38.1231 37.1379 39.2031 37.1379C40.9311 37.1379 41.8311 36.1659 41.8311 33.6939C41.8311 31.4379 41.0151 30.5259 39.3711 30.5259C38.2071 30.5259 37.4871 30.9339 37.1511 31.7619L37.0911 30.6459H36.1791V39.1659ZM37.1751 34.4499V33.1779C37.1751 32.1819 37.7511 31.4259 39.0111 31.4259C40.1991 31.4259 40.8351 32.0139 40.8351 33.7539C40.8351 35.5659 40.3311 36.2379 38.9991 36.2379C37.8351 36.2379 37.1751 35.5419 37.1751 34.4499ZM43.2708 33.8019C43.2708 35.9019 44.3388 37.1379 46.2348 37.1379C47.8908 37.1379 49.2108 36.2259 49.2108 33.8379C49.2108 31.5339 48.0948 30.5259 46.3668 30.5259C44.5428 30.5259 43.2708 31.6059 43.2708 33.8019ZM44.2668 33.8019C44.2668 32.2419 44.9748 31.4139 46.2348 31.4139C47.5068 31.4139 48.2148 32.1939 48.2148 33.8019V33.8379C48.2148 35.5179 47.5068 36.2379 46.3188 36.2379C44.9868 36.2379 44.2668 35.3499 44.2668 33.8379V33.8019ZM51.0856 37.0179C51.5536 37.0539 52.5016 37.1019 53.3416 37.1019C55.4656 37.1019 56.1016 36.2979 56.1016 35.1099C56.1016 34.0539 55.6336 33.6939 54.5656 33.5979C55.4656 33.3459 55.8016 32.8779 55.8016 32.0619C55.8016 31.1499 55.2856 30.5619 53.2456 30.5619C52.2616 30.5619 51.5416 30.6099 51.0856 30.6339V37.0179ZM52.0816 36.1779V34.1619H53.5576C54.6376 34.1619 55.1056 34.4019 55.1056 35.1219C55.1056 35.9619 54.6856 36.2379 53.3776 36.2379C52.9216 36.2379 52.4896 36.2139 52.0816 36.1779ZM52.0816 33.3099V31.4379C52.3576 31.4259 52.7056 31.4259 53.3176 31.4259C54.3976 31.4259 54.7936 31.6299 54.7936 32.3499C54.7936 33.0099 54.3016 33.3099 53.5576 33.3099H52.0816ZM57.5442 33.8019C57.5442 35.9019 58.6122 37.1379 60.5082 37.1379C62.1642 37.1379 63.4842 36.2259 63.4842 33.8379C63.4842 31.5339 62.3682 30.5259 60.6402 30.5259C58.8162 30.5259 57.5442 31.6059 57.5442 33.8019ZM58.5402 33.8019C58.5402 32.2419 59.2482 31.4139 60.5082 31.4139C61.7802 31.4139 62.4882 32.1939 62.4882 33.8019V33.8379C62.4882 35.5179 61.7802 36.2379 60.5922 36.2379C59.2602 36.2379 58.5402 35.3499 58.5402 33.8379V33.8019ZM65.359 37.0059H66.247L68.719 33.4779C69.079 32.9979 69.451 32.3859 69.655 32.0139L69.691 32.0259C69.655 32.4699 69.619 33.5139 69.619 34.4379V37.0059H70.615V30.6459H69.739L67.327 34.1379C66.979 34.6179 66.631 35.0979 66.331 35.6139L66.283 35.5899C66.319 35.2779 66.355 34.4859 66.355 33.7419V30.6459H65.359V37.0059ZM66.127 27.8859C66.247 29.0619 66.967 29.5659 67.987 29.5659C69.007 29.5659 69.727 29.0619 69.847 27.8859H68.959C68.899 28.4859 68.647 28.8699 67.987 28.8699C67.327 28.8699 67.099 28.4859 67.039 27.8859H66.127ZM10.3161 51.0059H11.3121V45.5819H14.3841V51.0059H15.3801V44.6459H10.3161V51.0059ZM16.9069 51.0779C17.0869 51.1379 17.1949 51.1379 17.3869 51.1379C18.3349 51.1379 19.1749 50.5019 19.3189 45.9899L19.3309 45.6059H21.6589V51.0059H22.6549V44.6459H18.4309L18.4069 45.4739C18.2869 49.7579 17.7229 49.9379 17.2189 49.9379C17.0989 49.9379 17.0149 49.9259 16.9069 49.8899V51.0779ZM28.5882 51.0059H29.5002V46.6859C29.5002 45.0419 28.7442 44.5259 27.0642 44.5259C26.4522 44.5259 25.5522 44.6819 25.0242 44.9699V46.1219C25.4562 45.7619 26.2362 45.4379 26.9562 45.4379C28.0242 45.4379 28.5042 45.6779 28.5042 46.6979V47.2979H27.0762C25.2522 47.2979 24.5442 47.8379 24.5442 49.2419C24.5442 50.4659 25.3362 51.1379 26.6082 51.1379C27.5202 51.1379 28.2042 50.6699 28.5282 50.0939L28.5882 51.0059ZM25.5642 49.0859C25.5642 48.3179 25.9002 48.0299 27.1122 48.0299H28.5042V48.5699C28.5042 49.4939 27.9762 50.1779 26.8002 50.1779C25.9242 50.1779 25.5642 49.7699 25.5642 49.0859ZM31.7379 51.0059H32.7339V48.2579H35.9019V51.0059H36.8979V44.6459H35.9019V47.3099H32.7339V44.6459H31.7379V51.0059ZM41.8884 52.5659H42.8244V51.0059H47.5404V52.5659H48.4764V50.0579H47.5164V44.6459H43.2804V45.3299C43.2804 47.5739 43.0164 49.1699 42.6084 50.0579H41.8884V52.5659ZM46.5204 50.0579H43.5924C44.0244 49.0259 44.1804 47.5619 44.2164 46.0259L44.2284 45.5819H46.5204V50.0579ZM49.5755 47.8019C49.5755 49.9019 50.6435 51.1379 52.5395 51.1379C54.1955 51.1379 55.5155 50.2259 55.5155 47.8379C55.5155 45.5339 54.3995 44.5259 52.6715 44.5259C50.8475 44.5259 49.5755 45.6059 49.5755 47.8019ZM50.5715 47.8019C50.5715 46.2419 51.2795 45.4139 52.5395 45.4139C53.8115 45.4139 54.5195 46.1939 54.5195 47.8019V47.8379C54.5195 49.5179 53.8115 50.2379 52.6235 50.2379C51.2915 50.2379 50.5715 49.3499 50.5715 47.8379V47.8019ZM57.3903 51.0059H58.3863V47.7059C58.3863 46.9739 58.3143 46.2419 58.2543 45.5219C58.6383 46.3139 58.9983 47.0579 59.2743 47.5619L60.3183 49.4699H61.0023L62.1063 47.5499C62.3823 47.0699 62.6943 46.3139 63.0663 45.5099C63.0063 46.2299 62.9223 46.9499 62.9223 47.6579V51.0059H63.9183V44.6459H62.6583L60.7263 48.4259L58.7103 44.6459H57.3903V51.0059ZM69.8382 51.0059H70.7502V46.6859C70.7502 45.0419 69.9942 44.5259 68.3142 44.5259C67.7022 44.5259 66.8022 44.6819 66.2742 44.9699V46.1219C66.7062 45.7619 67.4862 45.4379 68.2062 45.4379C69.2742 45.4379 69.7542 45.6779 69.7542 46.6979V47.2979H68.3262C66.5022 47.2979 65.7942 47.8379 65.7942 49.2419C65.7942 50.4659 66.5862 51.1379 67.8582 51.1379C68.7702 51.1379 69.4542 50.6699 69.7782 50.0939L69.8382 51.0059ZM66.8142 49.0859C66.8142 48.3179 67.1502 48.0299 68.3622 48.0299H69.7542V48.5699C69.7542 49.4939 69.2262 50.1779 68.0502 50.1779C67.1742 50.1779 66.8142 49.7699 66.8142 49.0859Z" fill="#A0A0B1"></path> </svg> 