<?xml version="1.0" encoding="UTF-8"?> <svg xmlns="http://www.w3.org/2000/svg" width="80" height="81" viewBox="0 0 80 81" fill="none"> <path d="M40 80.049C62.0914 80.049 80 62.1382 80 40.0442C80 17.9503 62.0914 0.0395508 40 0.0395508C17.9086 0.0395508 0 17.9503 0 40.0442C0 62.1382 17.9086 80.049 40 80.049Z" fill="white"></path> <path d="M12.344 44.0432H13.424V36.6032H17.924V44.0432H19.004V35.6432H12.344V44.0432ZM26.6156 41.2232V40.5752C26.6156 38.7752 25.9076 37.5632 23.9396 37.5632C22.0796 37.5632 21.0716 38.6912 21.0716 40.7672C21.0716 43.2152 22.1276 44.1752 24.1796 44.1752C25.1276 44.1752 25.8356 43.8392 26.1476 43.6112V42.5792C25.6796 42.9512 25.0076 43.2752 24.2036 43.2752C22.8116 43.2752 22.0796 42.5912 22.0796 41.2232H26.6156ZM23.9276 38.4632C25.1036 38.4632 25.6196 39.0632 25.6196 40.3592H22.0796C22.0796 39.0632 22.7636 38.4632 23.9276 38.4632ZM28.4759 46.2032H29.4719V43.1912C29.7839 43.7192 30.4199 44.1752 31.4999 44.1752C33.2279 44.1752 34.1279 43.2032 34.1279 40.7312C34.1279 38.4752 33.3119 37.5632 31.6679 37.5632C30.5039 37.5632 29.7839 37.9712 29.4479 38.7992L29.3879 37.6832H28.4759V46.2032ZM29.4719 41.4872V40.2152C29.4719 39.2192 30.0479 38.4632 31.3079 38.4632C32.4959 38.4632 33.1319 39.0512 33.1319 40.7912C33.1319 42.6032 32.6279 43.2752 31.2959 43.2752C30.1319 43.2752 29.4719 42.5792 29.4719 41.4872ZM40.2837 37.8872C39.9117 37.6952 39.4557 37.5632 38.6757 37.5632C36.6117 37.5632 35.5677 38.5712 35.5677 40.7432C35.5677 43.2992 36.7197 44.1752 38.6397 44.1752C39.4917 44.1752 40.1517 44.0072 40.4877 43.7432V42.6632C40.0677 43.0112 39.4317 43.2152 38.7837 43.2152C37.3917 43.2152 36.5997 42.6152 36.5997 40.8272C36.5997 39.0512 37.3797 38.5112 38.5437 38.5112C39.2517 38.5112 39.8997 38.7392 40.2837 39.0152V37.8872ZM41.6848 40.8392C41.6848 42.9392 42.7528 44.1752 44.6488 44.1752C46.3048 44.1752 47.6248 43.2632 47.6248 40.8752C47.6248 38.5712 46.5088 37.5632 44.7808 37.5632C42.9568 37.5632 41.6848 38.6432 41.6848 40.8392ZM42.6808 40.8392C42.6808 39.2792 43.3888 38.4512 44.6488 38.4512C45.9208 38.4512 46.6288 39.2312 46.6288 40.8392V40.8752C46.6288 42.5552 45.9208 43.2752 44.7328 43.2752C43.4008 43.2752 42.6808 42.3872 42.6808 40.8752V40.8392ZM49.4997 44.0432H50.4957V41.2952H53.6637V44.0432H54.6597V37.6832H53.6637V40.3472H50.4957V37.6832H49.4997V44.0432ZM60.5765 44.0432H61.4885V39.7232C61.4885 38.0792 60.7325 37.5632 59.0525 37.5632C58.4405 37.5632 57.5405 37.7192 57.0125 38.0072V39.1592C57.4445 38.7992 58.2245 38.4752 58.9445 38.4752C60.0125 38.4752 60.4925 38.7152 60.4925 39.7352V40.3352H59.0645C57.2405 40.3352 56.5325 40.8752 56.5325 42.2792C56.5325 43.5032 57.3245 44.1752 58.5965 44.1752C59.5085 44.1752 60.1925 43.7072 60.5165 43.1312L60.5765 44.0432ZM57.5525 42.1232C57.5525 41.3552 57.8885 41.0672 59.1005 41.0672H60.4925V41.6072C60.4925 42.5312 59.9645 43.2152 58.7885 43.2152C57.9125 43.2152 57.5525 42.8072 57.5525 42.1232ZM62.9342 44.1152C63.1142 44.1752 63.2222 44.1752 63.4142 44.1752C64.3622 44.1752 65.2022 43.5392 65.3462 39.0272L65.3582 38.6432H67.6862V44.0432H68.6822V37.6832H64.4582L64.4342 38.5112C64.3142 42.7952 63.7502 42.9752 63.2462 42.9752C63.1262 42.9752 63.0422 42.9632 62.9342 42.9272V44.1152Z" fill="#737688"></path> </svg> 