<?xml version="1.0" encoding="UTF-8"?> <svg xmlns="http://www.w3.org/2000/svg" width="53" height="19" viewBox="0 0 53 19" fill="none"> <mask id="mask0" mask-type="alpha" maskUnits="userSpaceOnUse" x="1" y="1" width="52" height="17"> <rect x="1" y="1" width="52" height="17" fill="#999999"></rect> </mask> <g mask="url(#mask0)"> <path fill-rule="evenodd" clip-rule="evenodd" d="M9.96107 8.36774L6.05849 7.40703C5.39717 7.25299 4.35658 6.9869 4.35658 5.7153C4.35658 4.27284 5.88482 3.78268 7.15743 3.78268C10.075 3.78268 10.3376 5.49683 10.4223 6.23066H12.2798V9.24162C11.6046 8.84249 10.7974 8.57921 9.96107 8.36774ZM7.84514 18C8.67873 18 10.7391 17.86 12.2798 16.7172V17.5799H15.3974V13.7987L16.6992 12.436L19.5195 17.5799H23.2568L18.9735 10.2345L23.1415 5.61306H19.3278L15.3974 10.1477V1.42013H12.2798V2.79817C11.3337 1.77865 9.79991 1 7.40195 1C2.21704 1 1.24313 4.18181 1.24313 5.96178C1.24313 8.40975 2.54769 9.76959 4.822 10.327L8.03826 11.1252C9.73878 11.5454 10.9558 11.859 10.9558 13.1279C10.9558 14.8196 9.19 15.2201 7.60062 15.2201C4.68724 15.2201 4.19542 13.506 4.19542 12.5943H1C1 14.5969 2.01559 18 7.84514 18Z" fill="#737688"></path> <path fill-rule="evenodd" clip-rule="evenodd" d="M24.9979 16.2222C24.9979 16.5023 25.1507 17.0414 26.0565 17.0414C26.5567 17.0414 27.1096 16.9154 27.1096 16.3888C27.1096 15.9883 26.7303 15.8931 26.1982 15.76L25.191 15.5107C24.4783 15.3357 24.0795 14.9114 24.0795 14.1439C24.0795 13.5837 24.3824 12.5908 26.0051 12.5908C27.5334 12.5908 27.9502 13.6089 27.9502 14.2279H26.9415C26.9221 13.9983 26.8373 13.4661 25.9259 13.4661C25.5258 13.4661 25.0479 13.6173 25.0479 14.0669C25.0479 14.4646 25.3744 14.5486 25.5758 14.5977L26.8054 14.8988C27.4833 15.0738 28.1141 15.3497 28.1141 16.2572C28.1141 17.7795 26.5761 17.9139 26.1329 17.9139C24.3157 17.9111 23.9976 16.8454 23.9976 16.2222H24.9979Z" fill="#737688"></path> <path fill-rule="evenodd" clip-rule="evenodd" d="M29.4173 15.4522L30.6511 14.0335H31.8389L30.5357 15.4816L31.8778 17.7783H30.7122L29.8258 16.1706L29.4173 16.5964V17.7783H28.4448V12.7241H29.4173V15.4522Z" fill="#737688"></path> <path fill-rule="evenodd" clip-rule="evenodd" d="M32.8074 15.8998C32.8074 16.3788 32.9547 17.0454 33.7091 17.0454C34.4635 17.0454 34.601 16.3872 34.601 15.9054C34.601 15.4237 34.4538 14.7585 33.7091 14.7585C32.9644 14.7585 32.8074 15.4125 32.8074 15.8942V15.8998ZM35.6 15.8998C35.6 17.247 34.6969 17.8758 33.7091 17.8758C32.7213 17.8758 31.8071 17.2568 31.8071 15.9054C31.8071 14.554 32.7102 13.9336 33.7091 13.9336C34.708 13.9336 35.6 14.5484 35.6 15.8998Z" fill="#737688"></path> <path d="M36.8836 12.7241H35.9097V17.7755H36.8836V12.7241Z" fill="#737688"></path> <path fill-rule="evenodd" clip-rule="evenodd" d="M38.3393 15.4522L39.5702 14.0335H40.7664L39.4577 15.4816L40.7942 17.7783H39.6327L38.745 16.1706L38.3393 16.5964V17.7783H37.3682V12.7241H38.3393V15.4522Z" fill="#737688"></path> <path fill-rule="evenodd" clip-rule="evenodd" d="M41.7294 15.8998C41.7294 16.3788 41.8683 17.0454 42.6283 17.0454C43.3882 17.0454 43.5174 16.3872 43.5174 15.9054C43.5174 15.4237 43.3785 14.7641 42.6283 14.7641C41.878 14.7641 41.7294 15.4181 41.7294 15.8998ZM44.5205 15.8998C44.5205 17.247 43.623 17.8758 42.6283 17.8758C41.6335 17.8758 40.7305 17.2568 40.7305 15.9054C40.7305 14.554 41.6321 13.9336 42.6283 13.9336C43.6244 13.9336 44.5205 14.5484 44.5205 15.8998Z" fill="#737688"></path> <path fill-rule="evenodd" clip-rule="evenodd" d="M45.547 14.0332L46.3375 16.7977H46.3528L47.1683 14.0332H48.202L46.8696 17.778H45.8416L44.5078 14.0332H45.547Z" fill="#737688"></path> <path fill-rule="evenodd" clip-rule="evenodd" d="M49.1985 15.8998C49.1985 16.3788 49.3374 17.0454 50.096 17.0454C50.8546 17.0454 50.9824 16.3872 50.9824 15.9054C50.9824 15.4237 50.8435 14.7641 50.096 14.7641C49.3486 14.7641 49.1985 15.4181 49.1985 15.8998ZM51.9771 15.8998C51.9771 17.247 51.0796 17.8758 50.0918 17.8758C49.104 17.8758 48.1885 17.2568 48.1885 15.9054C48.1885 14.554 49.0957 13.9336 50.0918 13.9336C51.088 13.9336 51.9813 14.5484 51.9813 15.8998H51.9771Z" fill="#737688"></path> </g> </svg> 