<?xml version="1.0" encoding="UTF-8"?> <svg xmlns="http://www.w3.org/2000/svg" width="64" height="23" viewBox="0 0 64 23" fill="none"> <path d="M0 0H56C60.4183 0 64 3.58172 64 8V23H8C3.58172 23 0 19.4183 0 15V0Z" fill="#515DAD"></path> <path d="M17.028 13.228C16.536 14.08 15.504 14.752 14.04 14.752C12.108 14.716 11.112 13.432 11.112 11.8C11.112 10.036 12.24 8.848 14.076 8.848C15.336 8.848 16.356 9.568 16.86 10.312V8.224C16.368 7.876 15.396 7.468 14.076 7.468C11.292 7.468 9.492 9.256 9.492 11.788C9.492 14.5 11.316 16.12 14.052 16.132C15.504 16.132 16.608 15.58 17.028 15.076V13.228ZM20.1364 12.364H21.4684L24.5164 16H26.4364L22.7164 11.596L25.9204 7.6H24.0964L21.3964 11.128H20.1364V7.6H18.6364V16H20.1364V12.364ZM26.405 11.788C26.405 14.512 28.205 16.132 30.905 16.132C33.641 16.132 35.405 14.344 35.405 11.812C35.405 9.1 33.605 7.48 30.905 7.468C28.169 7.468 26.405 9.256 26.405 11.788ZM27.989 11.8C27.989 10.048 29.093 8.86 30.893 8.848C32.813 8.86 33.821 10.156 33.821 11.8C33.821 13.564 32.705 14.752 30.917 14.752C28.997 14.74 27.989 13.444 27.989 11.8ZM39.8336 13.384C42.2936 13.384 43.6136 12.4 43.6136 10.444C43.6136 8.548 42.4856 7.6 39.8336 7.6H37.0376V16H38.5376V13.384H39.8336ZM39.9656 8.98C41.4296 8.98 42.0536 9.376 42.0536 10.408C42.0536 11.548 41.3336 12.004 39.9416 12.004H38.5376V8.98H39.9656ZM44.7242 11.788C44.7242 14.512 46.5242 16.132 49.2242 16.132C51.9602 16.132 53.7242 14.344 53.7242 11.812C53.7242 9.1 51.9242 7.48 49.2242 7.468C46.4882 7.468 44.7242 9.256 44.7242 11.788ZM46.3082 11.8C46.3082 10.048 47.4122 8.86 49.2122 8.848C51.1322 8.86 52.1402 10.156 52.1402 11.8C52.1402 13.564 51.0242 14.752 49.2362 14.752C47.3162 14.74 46.3082 13.444 46.3082 11.8Z" fill="white"></path> </svg> 