<?xml version="1.0" encoding="UTF-8"?> <svg xmlns="http://www.w3.org/2000/svg" width="210" height="182" viewBox="0 0 210 182" fill="none"> <path d="M44.1793 168.536C77.7599 186.488 132.212 186.488 165.807 168.536C199.403 150.583 199.392 121.516 165.807 103.578C132.223 85.6406 77.7751 85.6406 44.1944 103.578C10.6138 121.516 10.5949 150.598 44.1793 168.536Z" fill="#E7E9F8"></path> <path d="M42.1646 136.241L41.1968 135.681C40.7826 135.411 40.438 135.047 40.191 134.619C39.9441 134.191 39.8016 133.71 39.7754 133.216V48.3821C39.8016 47.8884 39.9441 47.4078 40.191 46.9795C40.438 46.5513 40.7826 46.1873 41.1968 45.9173L80.3231 23.3261C80.7643 23.1026 81.2519 22.9861 81.7464 22.9861C82.241 22.9861 82.7286 23.1026 83.1697 23.3261L84.1526 23.8856C84.5668 24.1556 84.9114 24.5195 85.1584 24.9478C85.4053 25.3761 85.5478 25.8566 85.574 26.3503V111.185C85.5478 111.678 85.4053 112.159 85.1584 112.587C84.9114 113.015 84.5668 113.379 84.1526 113.649L45.0149 136.241C44.5731 136.464 44.0849 136.581 43.5897 136.581C43.0946 136.581 42.6064 136.464 42.1646 136.241Z" fill="#353747"></path> <path d="M45.4993 50.0403L40.2069 46.9783C39.9511 47.4028 39.808 47.8855 39.791 48.3808V133.215C39.8173 133.709 39.9597 134.189 40.2067 134.618C40.4537 135.046 40.7983 135.41 41.2124 135.68L42.1802 136.239C42.622 136.463 43.1102 136.579 43.6054 136.579C44.1005 136.579 44.5887 136.463 45.0305 136.239L45.5144 135.96L45.4993 50.0403Z" fill="#353747"></path> <path d="M43.5894 50.5855V135.42C43.5894 136.327 44.2282 136.694 45.0145 136.24L84.1522 113.649C84.5664 113.379 84.911 113.015 85.158 112.587C85.405 112.158 85.5474 111.678 85.5736 111.184V26.3498C85.5736 25.4425 84.9385 25.0758 84.1522 25.5295L45.0145 48.1245C44.6012 48.3948 44.257 48.7582 44.0095 49.1856C43.762 49.613 43.6181 50.0924 43.5894 50.5855Z" fill="#737688"></path> <path opacity="0.3" d="M46.7274 55.9472L82.304 35.4087C82.9769 35.0307 83.5251 35.3369 83.5251 36.1157V103.783C83.5018 104.207 83.3792 104.62 83.1671 104.988C82.955 105.355 82.6593 105.668 82.304 105.9L46.7274 126.446C46.0507 126.825 45.5063 126.518 45.5063 125.74V58.0718C45.5269 57.6462 45.6484 57.2317 45.8607 56.8623C46.073 56.4929 46.37 56.1792 46.7274 55.9472Z" fill="white"></path> <path d="M64.578 39.0258C65.1035 38.7234 65.5306 38.9691 65.5306 39.5777C65.513 39.9086 65.4176 40.2307 65.2521 40.5178C65.0865 40.8048 64.8556 41.0488 64.578 41.2297C64.0488 41.536 63.6216 41.2864 63.6216 40.6816C63.6396 40.3498 63.7356 40.027 63.9018 39.7393C64.068 39.4516 64.2996 39.2072 64.578 39.0258Z" fill="#353747"></path> <path d="M61.8221 43.7924C63.7614 42.7226 67.2167 40.6623 69.1295 39.5395C69.4546 39.3467 69.7155 39.4791 69.7155 39.8344C69.7005 40.0323 69.6394 40.224 69.5369 40.394C69.4345 40.5641 69.2937 40.7077 69.1257 40.8135L61.807 45.0399C61.4819 45.2289 61.2173 45.0928 61.2173 44.7413C61.234 44.546 61.2977 44.3577 61.4031 44.1925C61.5084 44.0273 61.6522 43.89 61.8221 43.7924Z" fill="#353747"></path> <path d="M59.9587 44.863C60.2535 44.6891 60.4917 44.829 60.4917 45.1692C60.4823 45.3552 60.4292 45.5364 60.3365 45.698C60.2439 45.8596 60.1145 45.997 59.9587 46.0991C59.6638 46.2693 59.4219 46.1294 59.4219 45.7892C59.4326 45.6035 59.4867 45.423 59.5799 45.2621C59.6732 45.1012 59.8029 44.9645 59.9587 44.863V44.863Z" fill="#353747"></path> <path d="M64.578 118.338C65.6289 117.729 66.4682 118.22 66.4682 119.438C66.4344 120.098 66.2456 120.741 65.9173 121.315C65.5889 121.889 65.1301 122.378 64.578 122.742C63.5233 123.35 62.6689 122.859 62.6689 121.642C62.7049 120.979 62.8965 120.335 63.2282 119.761C63.5599 119.187 64.0224 118.699 64.578 118.338Z" fill="#353747"></path> <path d="M104.378 131.969C104.145 131.811 103.954 131.6 103.818 131.354C103.682 131.108 103.606 130.833 103.595 130.552V85.4223C103.611 85.1322 103.694 84.8499 103.84 84.5983C103.985 84.3467 104.187 84.133 104.431 83.9744L162.326 50.5488C162.568 50.3965 162.847 50.313 163.132 50.3074C163.418 50.3018 163.7 50.3744 163.947 50.5171C164.194 50.6599 164.398 50.8675 164.536 51.1176C164.674 51.3677 164.742 51.6507 164.731 51.9362V97.0657C164.715 97.3558 164.631 97.6381 164.486 97.8897C164.341 98.1413 164.139 98.355 163.895 98.5136L106 131.943C105.75 132.074 105.473 132.144 105.192 132.149C104.91 132.153 104.631 132.092 104.378 131.969Z" fill="#353747"></path> <path d="M164.722 51.7969C164.662 51.3659 164.314 51.2072 163.895 51.4529L105.999 84.8785C105.752 85.0318 105.548 85.2467 105.409 85.5023L103.84 84.5988C103.98 84.3432 104.183 84.1283 104.43 83.975L162.33 50.5456C162.561 50.3997 162.826 50.3171 163.099 50.306C163.373 50.2949 163.644 50.3557 163.886 50.4824C164.128 50.6091 164.333 50.7972 164.48 51.0279C164.627 51.2586 164.71 51.5237 164.722 51.7969V51.7969Z" fill="#737688"></path> <path d="M105.802 132.027C105.784 132.039 105.763 132.046 105.742 132.05C105.705 132.068 105.665 132.081 105.625 132.088H105.56C105.521 132.099 105.48 132.107 105.44 132.11H105.341C105.197 132.129 105.051 132.129 104.906 132.11C104.722 132.091 104.544 132.036 104.381 131.948C104.148 131.79 103.955 131.58 103.818 131.333C103.681 131.087 103.605 130.812 103.595 130.53V85.4197C103.605 85.1298 103.69 84.8474 103.84 84.5994L105.409 85.5029C105.259 85.7522 105.174 86.0358 105.164 86.327V131.46C105.151 131.57 105.17 131.681 105.219 131.779C105.268 131.878 105.345 131.96 105.44 132.016C105.481 132.037 105.526 132.049 105.572 132.054C105.623 132.061 105.675 132.061 105.727 132.054L105.802 132.027Z" fill="#737688"></path> <path d="M109.858 98.0915V105.21C109.858 105.743 110.236 105.966 110.694 105.694L119.993 100.322C120.236 100.163 120.439 99.949 120.584 99.6975C120.729 99.446 120.813 99.1639 120.829 98.874V91.7594C120.829 91.2264 120.451 91.0034 119.993 91.2756L110.694 96.6474C110.451 96.8051 110.248 97.0181 110.103 97.2691C109.958 97.5201 109.874 97.8019 109.858 98.0915V98.0915Z" fill="#6BEAC7"></path> <path d="M122.306 92.4199L108.202 100.57L108.391 100.897L122.495 92.7473L122.306 92.4199Z" fill="white"></path> <path d="M113.189 98.0125H112.811V101.642H113.189V98.0125Z" fill="white"></path> <path d="M117.892 95.314H117.514V98.9355H117.892V95.314Z" fill="white"></path> <path d="M122.307 96.0552L108.203 104.205L108.392 104.532L122.496 96.3825L122.307 96.0552Z" fill="white"></path> <path d="M109.858 111.669V113.359C109.858 113.892 110.236 114.115 110.694 113.843L119.993 108.471C120.235 108.312 120.436 108.097 120.58 107.846C120.723 107.594 120.806 107.313 120.821 107.023V105.334C120.821 104.801 120.443 104.578 119.986 104.85L110.686 110.222C110.444 110.381 110.243 110.595 110.099 110.847C109.956 111.098 109.873 111.38 109.858 111.669Z" fill="#E7E9F8"></path> <path d="M122.927 104.128V105.818C122.927 106.351 123.305 106.574 123.762 106.298L133.066 100.93C133.309 100.771 133.511 100.557 133.656 100.306C133.801 100.054 133.885 99.7724 133.901 99.4824V97.7926C133.901 97.2596 133.523 97.0366 133.066 97.3088L123.762 102.681C123.519 102.839 123.316 103.053 123.171 103.304C123.026 103.556 122.942 103.838 122.927 104.128V104.128Z" fill="#E7E9F8"></path> <path d="M135.992 96.5822V98.272C135.992 98.805 136.37 99.0281 136.828 98.7559L146.127 93.384C146.371 93.2263 146.573 93.0133 146.718 92.7623C146.864 92.5113 146.947 92.2295 146.963 91.94V90.2464C146.963 89.7133 146.585 89.4903 146.127 89.7663L136.828 95.1343C136.585 95.2933 136.382 95.5072 136.237 95.7587C136.092 96.0102 136.008 96.2923 135.992 96.5822V96.5822Z" fill="#E7E9F8"></path> <path d="M149.053 89.0406V90.7304C149.053 91.2634 149.431 91.4864 149.888 91.2143L159.192 85.8424C159.435 85.6839 159.638 85.4701 159.783 85.2185C159.928 84.9669 160.012 84.6846 160.027 84.3946V82.7047C160.027 82.1717 159.649 81.9487 159.192 82.2209L149.888 87.5927C149.645 87.7517 149.443 87.9655 149.298 88.217C149.153 88.4685 149.069 88.7506 149.053 89.0406V89.0406Z" fill="#E7E9F8"></path> <path d="M154.822 91.082L152.69 92.3143C152.545 92.4092 152.424 92.5371 152.337 92.6875C152.25 92.8379 152.2 93.0067 152.191 93.18V93.834C152.191 94.1516 152.414 94.2839 152.69 94.1213L154.822 92.8927C154.969 92.7979 155.091 92.6696 155.178 92.5185C155.265 92.3673 155.316 92.1976 155.325 92.0233V91.3693C155.325 91.0517 155.102 90.9232 154.822 91.082Z" fill="#6BEAC7"></path> <path d="M159.525 88.3677L157.393 89.5963C157.247 89.692 157.126 89.8206 157.039 89.9716C156.953 90.1226 156.903 90.2919 156.894 90.4658V91.1198C156.894 91.4373 157.117 91.5659 157.393 91.4071L159.525 90.1747C159.671 90.0805 159.793 89.9528 159.88 89.8024C159.968 89.6519 160.018 89.4828 160.027 89.309V88.655C160.027 88.3375 159.804 88.1976 159.525 88.3677Z" fill="#6BEAC7"></path> <path d="M132.605 108.434L159.15 93.1125C159.612 92.8441 159.986 93.0634 159.986 93.5964V94.3789C159.97 94.669 159.887 94.9513 159.742 95.2029C159.596 95.4545 159.394 95.6683 159.15 95.8268L132.605 111.152C132.144 111.421 131.77 111.205 131.77 110.672V109.886C131.785 109.595 131.869 109.312 132.014 109.06C132.159 108.808 132.362 108.594 132.605 108.434V108.434Z" fill="#6BEAC7"></path> <path d="M76.3311 45.482V84.3513C76.3467 84.6351 76.4287 84.9112 76.5705 85.1574C76.7123 85.4036 76.91 85.6131 77.1476 85.769L78.5841 86.5968C78.8378 86.7254 79.1182 86.7924 79.4026 86.7924C79.6869 86.7924 79.9673 86.7254 80.221 86.5968L104.687 72.4736C104.926 72.3181 105.124 72.1088 105.266 71.8626C105.409 71.6163 105.492 71.34 105.508 71.0559V32.1942C105.492 31.91 105.41 31.6335 105.267 31.3871C105.125 31.1408 104.926 30.9316 104.687 30.7766L103.255 29.9487C103.001 29.8202 102.72 29.7532 102.436 29.7532C102.152 29.7532 101.871 29.8202 101.618 29.9487L77.1476 44.0758C76.9115 44.2305 76.7147 44.4382 76.573 44.6823C76.4312 44.9264 76.3484 45.2003 76.3311 45.482V45.482Z" fill="#E7E9F8"></path> <path d="M105.5 32.0612C105.443 31.6378 105.099 31.4828 104.687 31.7209L80.2211 45.8593C79.9782 46.0108 79.7779 46.2215 79.639 46.4718L76.5693 44.6988C76.709 44.4503 76.9077 44.24 77.1477 44.0864L101.618 29.948C101.871 29.8194 102.152 29.7524 102.436 29.7524C102.721 29.7524 103.001 29.8194 103.255 29.948L104.687 30.7758C104.907 30.9191 105.094 31.1081 105.234 31.3299C105.374 31.5517 105.465 31.8011 105.5 32.0612V32.0612Z" fill="#E7E9F8"></path> <path d="M80.0772 86.6613C80.061 86.6643 80.0443 86.6643 80.0281 86.6613C79.9968 86.6765 79.9638 86.688 79.9298 86.6953V86.6953L79.7635 86.7369C79.4334 86.7985 79.0928 86.7711 78.7768 86.6575C78.7143 86.6344 78.6537 86.6066 78.5954 86.5743L77.1588 85.7464C76.9212 85.5906 76.7236 85.3811 76.5817 85.1349C76.4399 84.8886 76.3579 84.6125 76.3423 84.3288V45.4822C76.352 45.1979 76.434 44.9208 76.5804 44.677L79.6501 46.45C79.5036 46.6938 79.4216 46.9709 79.4119 47.2552V86.1245C79.4036 86.2781 79.4476 86.43 79.5367 86.5554C79.5888 86.6182 79.6578 86.6647 79.7355 86.6895C79.8132 86.7143 79.8964 86.7163 79.9752 86.6953L80.0772 86.6613Z" fill="#F5F6FF"></path> <path d="M96.1436 60.9119C97.2134 61.6263 98.5856 61.6679 99.9768 61.4071" stroke="#737688" stroke-width="1.25" stroke-miterlimit="10" stroke-linecap="round"></path> <path d="M92.6396 53.4212C93.7737 53.0923 94.458 53.6518 94.579 55.2546C94.7264 57.228 94.681 59.0841 95.6942 60.222" stroke="#737688" stroke-width="1.25" stroke-miterlimit="10" stroke-linecap="round"></path> <path d="M90.7753 64.0057C89.921 61.919 89.4824 55.4773 91.9094 53.7988" stroke="#737688" stroke-width="1.25" stroke-miterlimit="10" stroke-linecap="round"></path> <path d="M98.0978 67.9753C95.3117 68.3042 92.6844 67.4688 91.1987 64.8604" stroke="#737688" stroke-width="1.25" stroke-miterlimit="10" stroke-linecap="round"></path> <path d="M98.6503 66.4507C94.1669 66.9384 90.9725 64.6588 91.498 57.0226C91.5509 56.3043 91.9478 55.4802 92.4809 55.1702H92.4998C93.0441 54.8716 93.596 55.2231 93.5847 55.949C93.5053 61.4115 95.2745 63.9481 99.7542 63.1543" stroke="#737688" stroke-width="1.25" stroke-miterlimit="10" stroke-linecap="round"></path> <path d="M97.055 69.7965C91.4488 70.1746 88.4472 66.4509 88.8895 58.5992C89.0369 56.0059 90.0236 53.1328 91.9667 52.0101C91.9931 51.9915 92.0209 51.9751 92.0499 51.9609C94.0232 50.876 95.5618 52.0139 95.7659 54.6752C95.9625 57.2307 96.0343 60.2474 100.257 59.5329" stroke="#737688" stroke-width="1.25" stroke-miterlimit="10" stroke-linecap="round"></path> <path d="M93.2256 71.2175C94.0754 71.5216 94.9694 71.6838 95.8718 71.6976" stroke="#737688" stroke-width="1.25" stroke-miterlimit="10" stroke-linecap="round"></path> <path d="M88.8896 67.7852C89.6133 69.2059 90.8196 70.3223 92.2919 70.9342" stroke="#737688" stroke-width="1.25" stroke-miterlimit="10" stroke-linecap="round"></path> <path d="M89.2256 53.3176C86.8062 57.7822 87.4224 63.7702 88.4242 66.6584" stroke="#737688" stroke-width="1.25" stroke-miterlimit="10" stroke-linecap="round"></path> <path d="M97.005 54.3732C96.7781 51.95 96.1619 50.2942 94.4041 49.9048C93.0016 49.5986 91.2059 50.487 89.7808 52.4452" stroke="#737688" stroke-width="1.25" stroke-miterlimit="10" stroke-linecap="round"></path> <path d="M100.434 57.8543C98.9902 58.3608 97.4554 58.0471 97.187 55.8545" stroke="#737688" stroke-width="1.25" stroke-miterlimit="10" stroke-linecap="round"></path> <path d="M100.536 56.1882C99.0242 56.2298 98.3248 55.5569 97.9581 52.8464C97.3949 48.6881 95.2438 46.9075 91.9096 48.8355C88.409 50.8542 86.3072 55.8556 86.1484 59.9912C85.8422 67.7749 88.2843 70.871 92.1213 72.4398C92.9778 72.7817 93.8749 73.0117 94.7902 73.1241" stroke="#737688" stroke-width="1.25" stroke-miterlimit="10" stroke-linecap="round"></path> <path d="M98.6387 50.5022C98.9373 52.1391 99.0961 54.4224 100.578 54.3733" stroke="#737688" stroke-width="1.25" stroke-miterlimit="10" stroke-linecap="round"></path> <path d="M95.3652 46.343C96.798 46.6114 97.8716 47.8022 98.416 49.5563" stroke="#737688" stroke-width="1.25" stroke-miterlimit="10" stroke-linecap="round"></path> <path d="M89.7886 48.7694C91.3007 47.2044 93.0812 46.3538 94.5782 46.2896" stroke="#737688" stroke-width="1.25" stroke-miterlimit="10" stroke-linecap="round"></path> <path d="M85.4385 56.2294C86.0806 53.7771 87.2595 51.4981 88.8899 49.5571" stroke="#737688" stroke-width="1.25" stroke-miterlimit="10" stroke-linecap="round"></path> <path d="M84.8784 64.0041C84.6158 61.784 84.691 59.5369 85.1014 57.3394" stroke="#737688" stroke-width="1.25" stroke-miterlimit="10" stroke-linecap="round"></path> <path d="M86.7987 70.393C85.9199 68.8205 85.3236 67.106 85.0371 65.3274" stroke="#737688" stroke-width="1.25" stroke-miterlimit="10" stroke-linecap="round"></path> <path d="M92.556 74.7899C90.7793 74.0641 88.7984 73.0056 87.5396 71.312" stroke="#737688" stroke-width="1.25" stroke-miterlimit="10" stroke-linecap="round"></path> <path d="M90.5796 75.923C85.2531 73.7456 83.397 68.0033 83.397 61.6145C83.397 55.2258 86.4212 48.3456 91.8989 45.3402C95.615 43.3064 100.571 45.5103 100.571 51.8991" stroke="#737688" stroke-width="1.25" stroke-miterlimit="10" stroke-linecap="round"></path> <path d="M97.3833 64.8899C98.0522 64.9233 98.7227 64.8967 99.3869 64.8105" stroke="#737688" stroke-width="1.25" stroke-miterlimit="10" stroke-linecap="round"></path> <path d="M93.7246 62.8706C93.9946 63.3777 94.3767 63.8167 94.8418 64.154C95.3069 64.4914 95.8427 64.7183 96.4086 64.8175" stroke="#737688" stroke-width="1.25" stroke-miterlimit="10" stroke-linecap="round"></path> <path d="M92.5934 56.4058C92.412 58.5983 92.688 60.6133 93.3117 62.046" stroke="#737688" stroke-width="1.25" stroke-miterlimit="10" stroke-linecap="round"></path> <path d="M94.2422 42.5707C95.7577 42.2627 97.3335 42.554 98.6387 43.3835" stroke="#737688" stroke-width="1.25" stroke-miterlimit="10" stroke-linecap="round"></path> <path d="M87.5547 46.6157C89.0559 44.9745 90.9201 43.7071 92.9984 42.9148" stroke="#737688" stroke-width="1.25" stroke-miterlimit="10" stroke-linecap="round"></path> <path d="M85.6909 74.907C86.24 75.5913 86.9297 76.1495 87.7134 76.5439" stroke="#737688" stroke-width="1.25" stroke-miterlimit="10" stroke-linecap="round"></path> <path d="M83.1997 70.696C83.6227 71.8686 84.2343 72.9642 85.0105 73.9396" stroke="#737688" stroke-width="1.25" stroke-miterlimit="10" stroke-linecap="round"></path> <path d="M23.833 92.9023C23.8467 92.6506 23.9192 92.4057 24.0446 92.1871C24.17 91.9685 24.3448 91.7823 24.555 91.6434L61.6589 70.2241C61.884 70.1105 62.1326 70.0513 62.3848 70.0513C62.6369 70.0513 62.8855 70.1105 63.1106 70.2241L63.9271 70.6967C64.1382 70.8341 64.3139 71.0194 64.44 71.2374C64.5662 71.4555 64.6391 71.7002 64.6529 71.9517V100.391C64.6391 100.643 64.5662 100.888 64.4401 101.107C64.314 101.326 64.1383 101.512 63.9271 101.65L26.8232 123.069C26.5988 123.183 26.3508 123.242 26.0993 123.242C25.8478 123.242 25.5998 123.183 25.3754 123.069L24.5588 122.6C24.3477 122.463 24.172 122.278 24.0459 122.06C23.9198 121.842 23.8469 121.597 23.833 121.345V92.9023Z" fill="#6BEAC7"></path> <path opacity="0.4" d="M24.0449 92.1873L26.1014 93.3743L64.4415 71.2367C64.3179 71.0164 64.1412 70.8305 63.9273 70.6961L63.107 70.2236C62.8826 70.11 62.6346 70.0508 62.3831 70.0508C62.1315 70.0508 61.8836 70.11 61.6591 70.2236L24.559 91.6429C24.3432 91.7765 24.166 91.9642 24.0449 92.1873V92.1873Z" fill="white"></path> <path opacity="0.1" d="M23.8296 92.901V121.34C23.8436 121.593 23.9169 121.838 24.0437 122.057C24.1705 122.276 24.3471 122.462 24.5592 122.599L25.3757 123.072C25.4387 123.107 25.5045 123.138 25.5723 123.162C25.8543 123.255 26.1556 123.27 26.4456 123.208C26.4932 123.199 26.54 123.187 26.5854 123.17C26.6158 123.163 26.6451 123.151 26.6724 123.136C26.6175 123.16 26.5583 123.172 26.4985 123.172C26.4387 123.172 26.3795 123.16 26.3246 123.136C26.2471 123.084 26.1853 123.012 26.146 122.927C26.1066 122.843 26.0913 122.749 26.1016 122.656V94.209C26.0939 94.0799 26.126 93.9516 26.1937 93.8414C26.2613 93.7312 26.3611 93.6444 26.4796 93.5928L26.1016 93.3735L24.0451 92.1865C23.9132 92.4023 23.839 92.6483 23.8296 92.901V92.901Z" fill="black"></path> <path opacity="0.2" d="M26.1014 93.374L43.2829 99.8005C43.8774 100.023 44.5298 100.035 45.1326 99.8368C45.7353 99.6382 46.2523 99.24 46.5983 98.708L49.373 94.474L64.5926 71.157L49.9098 94.6252L64.6531 100.398C64.639 100.654 64.561 100.902 64.4263 101.12L49.8683 94.6933L46.6588 99.8232C46.3031 100.392 45.7541 100.814 45.1125 101.011C44.4709 101.209 43.7797 101.168 43.1657 100.897L40.8975 99.8874L26.3131 123.129C26.2355 123.077 26.1737 123.005 26.1344 122.92C26.0951 122.835 26.0797 122.742 26.09 122.649V122.176L40.7993 99.8723L26.1014 93.374Z" fill="black"></path> <path d="M157.196 14.4822C157.206 14.3841 157.191 14.2851 157.152 14.1945C157.113 14.1039 157.051 14.0247 156.973 13.9643V13.9643H156.954L155.442 13.0835C155.35 13.0406 155.248 13.0233 155.147 13.0333C155.046 13.0432 154.95 13.0802 154.868 13.1402L131.407 26.6246L130.776 24.519C130.725 24.3294 130.603 24.1667 130.435 24.0654L128.908 23.177C128.793 23.1099 128.661 23.0762 128.527 23.0795C128.394 23.0829 128.264 23.1231 128.152 23.1959L118.089 29.01C117.851 29.1659 117.654 29.3754 117.512 29.6216C117.37 29.8678 117.288 30.1439 117.272 30.4276V64.0045C117.264 64.1025 117.279 64.2012 117.318 64.2916C117.357 64.382 117.418 64.4613 117.495 64.5224V64.5224H117.514L119.026 65.4032H119.045C119.137 65.4391 119.236 65.4517 119.334 65.4398C119.431 65.428 119.524 65.392 119.605 65.3352L156.357 44.1162C156.595 43.9603 156.792 43.7509 156.934 43.5046C157.076 43.2584 157.158 42.9823 157.174 42.6986L157.196 14.4822Z" fill="#6BEAC7"></path> <path opacity="0.4" d="M130.424 24.0546C130.31 23.9953 130.182 23.9673 130.053 23.9732C129.924 23.9792 129.799 24.019 129.691 24.0886L119.624 29.899C119.384 30.0526 119.185 30.2629 119.046 30.5114L117.511 29.623C117.647 29.3721 117.846 29.1611 118.089 29.0106L128.156 23.2003C128.268 23.1283 128.398 23.0885 128.532 23.0852C128.665 23.0819 128.796 23.1151 128.912 23.1813V23.1813L130.424 24.0546Z" fill="white"></path> <path opacity="0.4" d="M156.913 13.9187C156.823 13.8898 156.728 13.8819 156.635 13.8956C156.542 13.9094 156.453 13.9445 156.376 13.998L132.689 27.6639C132.592 27.728 132.482 27.7678 132.367 27.7799C132.252 27.792 132.136 27.7759 132.028 27.7332C131.921 27.6904 131.825 27.6222 131.75 27.5344C131.675 27.4466 131.622 27.3419 131.596 27.2292L131.415 26.6243L154.853 13.1097C154.966 13.039 155.097 13.0011 155.231 13C155.305 12.9991 155.377 13.0173 155.442 13.053V13.053L156.913 13.9187Z" fill="white"></path> <path opacity="0.1" d="M118.932 65.301C118.955 65.3335 118.981 65.3627 119.012 65.388L117.526 64.5336C117.467 64.4928 117.419 64.4383 117.386 64.3748C117.37 64.345 117.357 64.3133 117.348 64.2803C117.319 64.1951 117.305 64.1056 117.307 64.0157V30.4275C117.305 30.3948 117.305 30.362 117.307 30.3292C117.314 30.2606 117.326 30.1925 117.341 30.1251C117.341 30.0911 117.36 30.0571 117.367 30.023C117.401 29.9194 117.443 29.8183 117.492 29.7206C117.507 29.6867 117.525 29.6538 117.545 29.6223L119.08 30.5107C118.933 30.7543 118.851 31.0315 118.841 31.3159V64.889C118.838 64.9368 118.838 64.9848 118.841 65.0326C118.84 65.059 118.84 65.0856 118.841 65.112V65.1536L118.864 65.2065C118.881 65.2417 118.904 65.2737 118.932 65.301V65.301Z" fill="black"></path> <path d="M94.2382 120.234C94.2189 119.882 94.1171 119.54 93.9411 119.236C93.7651 118.931 93.5198 118.672 93.2251 118.48L92.401 118.003C92.0864 117.846 91.7395 117.764 91.3879 117.764C91.0362 117.764 90.6894 117.846 90.3747 118.003L63.0014 133.797C62.7067 133.99 62.4614 134.249 62.2854 134.554C62.1094 134.858 62.0076 135.2 61.9883 135.552V138.776C62.0076 139.128 62.1094 139.469 62.2854 139.774C62.4614 140.079 62.7067 140.338 63.0014 140.53L63.8293 141.007C64.1428 141.165 64.4892 141.248 64.8405 141.248C65.1918 141.248 65.5382 141.165 65.8518 141.007L93.2251 125.212C93.5202 125.02 93.7658 124.762 93.9419 124.457C94.1179 124.152 94.2195 123.81 94.2382 123.458V120.234Z" fill="#353747"></path> <path d="M61.9878 138.775C62.0065 139.126 62.1081 139.468 62.2841 139.773C62.4602 140.078 62.7058 140.337 63.0009 140.529L63.8288 141.005C64.1146 141.148 64.4273 141.229 64.7465 141.243C65.0657 141.256 65.3842 141.202 65.6812 141.084C65.2011 141.266 64.8382 140.997 64.8382 140.419V137.198C64.8499 136.844 64.9528 136.499 65.1368 136.196L62.2864 134.552C62.1029 134.854 62 135.197 61.9878 135.55V138.775Z" fill="#353747"></path> <path d="M94.2035 119.953C94.0863 119.522 93.6932 119.386 93.2244 119.655L65.8511 135.452C65.5505 135.637 65.3041 135.898 65.1366 136.209L62.29 134.564C62.4572 134.255 62.7021 133.994 63.0007 133.808L90.3703 118.01C90.6849 117.853 91.0318 117.771 91.3834 117.771C91.7351 117.771 92.0819 117.853 92.3965 118.01L93.2244 118.49C93.4783 118.655 93.6961 118.869 93.8644 119.121C94.0327 119.373 94.1481 119.656 94.2035 119.953Z" fill="#737688"></path> <path d="M68.3245 135.832C68.8575 135.526 69.2884 135.775 69.2884 136.388C69.2704 136.722 69.1737 137.047 69.0062 137.337C68.8387 137.627 68.6051 137.873 68.3245 138.055C67.7952 138.361 67.3643 138.112 67.3643 137.499C67.3825 137.166 67.4788 136.841 67.6456 136.551C67.8124 136.262 68.045 136.015 68.3245 135.832V135.832Z" fill="#E7E9F8"></path> <path d="M71.5066 134.005C72.0358 133.698 72.4668 133.948 72.4668 134.56C72.4489 134.894 72.3526 135.219 72.1858 135.509C72.019 135.798 71.7863 136.045 71.5066 136.227C70.9736 136.534 70.5464 136.284 70.5464 135.672C70.5643 135.338 70.6605 135.013 70.8274 134.724C70.9942 134.434 71.2269 134.188 71.5066 134.005V134.005Z" fill="#E7E9F8"></path> <path d="M74.7014 132.171C75.2344 131.865 75.6654 132.11 75.6654 132.727C75.6471 133.06 75.5502 133.385 75.3827 133.674C75.2152 133.963 74.9817 134.208 74.7014 134.39C74.1722 134.696 73.7412 134.447 73.7412 133.834C73.7594 133.501 73.8558 133.177 74.0226 132.888C74.1894 132.599 74.422 132.353 74.7014 132.171Z" fill="#E7E9F8"></path> <path d="M77.8693 130.335C78.3985 130.028 78.8295 130.278 78.8295 130.89C78.8113 131.223 78.7149 131.548 78.548 131.837C78.3812 132.126 78.1487 132.371 77.8693 132.554C77.3362 132.86 76.9053 132.614 76.9053 131.998C76.9236 131.664 77.0204 131.34 77.188 131.051C77.3555 130.762 77.5889 130.516 77.8693 130.335V130.335Z" fill="#E7E9F8"></path> <path d="M81.0486 128.497C81.5816 128.191 82.0126 128.441 82.0126 129.053C81.9939 129.387 81.897 129.712 81.7295 130.002C81.5621 130.291 81.3288 130.537 81.0486 130.72C80.5193 131.026 80.0884 130.777 80.0884 130.164C80.1063 129.831 80.2025 129.506 80.3694 129.216C80.5362 128.927 80.7689 128.68 81.0486 128.497V128.497Z" fill="#E7E9F8"></path> <path d="M84.2316 126.661C84.7608 126.355 85.1918 126.604 85.1918 127.217C85.1736 127.55 85.0772 127.875 84.9104 128.165C84.7436 128.454 84.5111 128.701 84.2316 128.884C83.6985 129.19 83.2676 128.94 83.2676 128.328C83.2856 127.994 83.3823 127.669 83.5498 127.379C83.7173 127.089 83.9509 126.843 84.2316 126.661V126.661Z" fill="#E7E9F8"></path> <path d="M87.4114 124.823C87.9406 124.516 88.3716 124.766 88.3716 125.378C88.3537 125.712 88.2574 126.037 88.0906 126.326C87.9238 126.616 87.6911 126.862 87.4114 127.045C86.8821 127.352 86.4512 127.102 86.4512 126.49C86.47 126.156 86.5666 125.832 86.7333 125.542C86.9001 125.253 87.1323 125.006 87.4114 124.823V124.823Z" fill="#E7E9F8"></path> <path d="M90.5789 122.977C91.1119 122.671 91.5428 122.917 91.5428 123.533C91.5245 123.867 91.4277 124.191 91.2601 124.48C91.0926 124.769 90.8592 125.015 90.5789 125.196C90.0496 125.503 89.6187 125.253 89.6187 124.641C89.6368 124.307 89.7332 123.983 89.9001 123.694C90.0669 123.405 90.2994 123.16 90.5789 122.977V122.977Z" fill="#E7E9F8"></path> <path d="M94.2377 130.867C94.2184 130.515 94.1166 130.174 93.9406 129.869C93.7646 129.564 93.5193 129.305 93.2246 129.113L92.4005 128.648C92.0859 128.491 91.739 128.409 91.3874 128.409C91.0357 128.409 90.6889 128.491 90.3742 128.648L63.0009 144.442C62.7058 144.634 62.4602 144.893 62.2841 145.198C62.1081 145.502 62.0065 145.845 61.9878 146.196V149.421C62.0071 149.772 62.1089 150.114 62.2849 150.419C62.4609 150.723 62.7062 150.982 63.0009 151.175L63.8288 151.651C64.1423 151.81 64.4887 151.892 64.84 151.892C65.1914 151.892 65.5377 151.81 65.8513 151.651L93.2246 135.83C93.5197 135.639 93.7653 135.38 93.9414 135.075C94.1174 134.77 94.219 134.428 94.2377 134.076V130.867Z" fill="#353747"></path> <path d="M61.9878 149.411C62.0071 149.762 62.1089 150.104 62.2849 150.409C62.4609 150.714 62.7062 150.973 63.0009 151.165L63.8288 151.641C64.1146 151.784 64.4273 151.865 64.7465 151.879C65.0657 151.893 65.3842 151.839 65.6812 151.721C65.2011 151.902 64.8382 151.634 64.8382 151.055V147.831C64.8504 147.478 64.9533 147.134 65.1368 146.833L62.2864 145.188C62.1029 145.49 62 145.833 61.9878 146.186V149.411Z" fill="#353747"></path> <path d="M94.2035 130.58C94.0863 130.149 93.6932 130.012 93.2244 130.281L65.8511 146.079C65.5505 146.264 65.3041 146.524 65.1366 146.835L62.29 145.19C62.4572 144.881 62.7021 144.62 63.0007 144.434L90.3703 128.648C90.6849 128.491 91.0318 128.409 91.3834 128.409C91.7351 128.409 92.0819 128.491 92.3965 128.648L93.2244 129.128C93.4771 129.291 93.6941 129.504 93.8624 129.754C94.0307 130.003 94.1467 130.284 94.2035 130.58V130.58Z" fill="#737688"></path> <path d="M68.324 146.477C68.857 146.17 69.288 146.42 69.288 147.032C69.2693 147.366 69.1724 147.691 69.0049 147.981C68.8374 148.271 68.6042 148.517 68.324 148.699C67.7947 149.006 67.3638 148.756 67.3638 148.144C67.3817 147.81 67.4779 147.485 67.6447 147.195C67.8116 146.906 68.0443 146.66 68.324 146.477V146.477Z" fill="#E7E9F8"></path> <path d="M71.5066 144.64C72.0358 144.334 72.4668 144.583 72.4668 145.196C72.4486 145.53 72.3522 145.854 72.1854 146.144C72.0186 146.433 71.7861 146.68 71.5066 146.863C70.9736 147.169 70.5464 146.92 70.5464 146.307C70.5637 145.973 70.6597 145.648 70.8266 145.359C70.9934 145.069 71.2265 144.823 71.5066 144.64V144.64Z" fill="#E7E9F8"></path> <path d="M74.7014 142.806C75.2344 142.496 75.6654 142.746 75.6654 143.358C75.6477 143.692 75.5511 144.018 75.3835 144.307C75.216 144.597 74.9822 144.843 74.7014 145.025C74.1722 145.331 73.7412 145.082 73.7412 144.47C73.7594 144.136 73.8558 143.812 74.0226 143.523C74.1894 143.234 74.422 142.989 74.7014 142.806V142.806Z" fill="#E7E9F8"></path> <path d="M77.8702 140.968C78.3995 140.662 78.8304 140.908 78.8304 141.524C78.8122 141.857 78.7158 142.181 78.549 142.47C78.3822 142.759 78.1497 143.005 77.8702 143.187C77.3372 143.493 76.9062 143.248 76.9062 142.631C76.9246 142.298 77.0214 141.973 77.1889 141.684C77.3565 141.395 77.5899 141.15 77.8702 140.968V140.968Z" fill="#E7E9F8"></path> <path d="M81.0486 139.131C81.5816 138.825 82.0126 139.075 82.0126 139.687C81.9943 140.021 81.8974 140.345 81.7299 140.634C81.5624 140.923 81.3289 141.169 81.0486 141.35C80.5193 141.657 80.0884 141.411 80.0884 140.799C80.1063 140.465 80.2025 140.14 80.3694 139.85C80.5362 139.561 80.7689 139.314 81.0486 139.131V139.131Z" fill="#E7E9F8"></path> <path d="M84.2321 137.294C84.7613 136.988 85.1922 137.238 85.1922 137.85C85.1735 138.184 85.0768 138.508 84.9101 138.798C84.7433 139.087 84.5111 139.334 84.2321 139.517C83.699 139.824 83.2681 139.574 83.2681 138.962C83.2858 138.627 83.3824 138.302 83.5499 138.012C83.7175 137.723 83.9512 137.477 84.2321 137.294V137.294Z" fill="#E7E9F8"></path> <path d="M87.4109 135.453C87.9401 135.147 88.3711 135.396 88.3711 136.009C88.3529 136.342 88.2565 136.667 88.0897 136.957C87.9229 137.246 87.6904 137.493 87.4109 137.676C86.8816 137.982 86.4507 137.732 86.4507 137.12C86.4689 136.786 86.5653 136.462 86.7321 136.172C86.8988 135.882 87.1314 135.636 87.4109 135.453V135.453Z" fill="#E7E9F8"></path> <path d="M90.5789 133.624C91.1119 133.314 91.5428 133.563 91.5428 134.175C91.5234 134.508 91.426 134.831 91.2585 135.118C91.091 135.406 90.8582 135.65 90.5789 135.831C90.0496 136.137 89.6187 135.888 89.6187 135.276C89.6386 134.944 89.7358 134.622 89.9025 134.336C90.0693 134.049 90.3009 133.805 90.5789 133.624V133.624Z" fill="#E7E9F8"></path> <path d="M61.0924 139.355C61.0727 139.004 60.9708 138.662 60.7948 138.357C60.6188 138.053 60.3737 137.794 60.0792 137.601L59.2513 137.125C58.9378 136.966 58.5914 136.884 58.2401 136.884C57.8888 136.884 57.5424 136.966 57.2289 137.125L44.5761 144.444C44.281 144.635 44.0354 144.894 43.8593 145.199C43.6833 145.504 43.5817 145.846 43.563 146.198V160.068C43.5826 160.419 43.6845 160.761 43.8605 161.065C44.0365 161.37 44.2816 161.629 44.5761 161.822L45.4002 162.294C45.7149 162.451 46.0617 162.533 46.4134 162.533C46.765 162.533 47.1119 162.451 47.4265 162.294L60.0754 154.976C60.3713 154.784 60.6176 154.525 60.7943 154.22C60.9711 153.916 61.0732 153.573 61.0924 153.221V139.355Z" fill="#6BEAC7"></path> <path opacity="0.2" d="M43.563 160.067C43.5826 160.418 43.6845 160.76 43.8605 161.065C44.0365 161.369 44.2816 161.628 44.5761 161.821L45.4002 162.293C45.686 162.436 45.9987 162.517 46.3179 162.531C46.6371 162.545 46.9557 162.491 47.2526 162.373C46.7763 162.554 46.4134 162.286 46.4134 161.707V147.841C46.4259 147.489 46.5274 147.146 46.7082 146.843L43.8579 145.199C43.6766 145.501 43.5751 145.844 43.563 146.197V160.067Z" fill="black"></path> <path opacity="0.3" d="M61.0552 139.066C60.9342 138.639 60.5449 138.499 60.0761 138.771L47.4272 146.086C47.1265 146.271 46.88 146.532 46.7127 146.842L43.8623 145.198C44.0319 144.889 44.2779 144.628 44.5768 144.442L57.222 137.127C57.5366 136.97 57.8834 136.888 58.2351 136.888C58.5868 136.888 58.9336 136.97 59.2482 137.127L60.0761 137.603C60.33 137.768 60.5478 137.982 60.7161 138.234C60.8844 138.485 60.9998 138.769 61.0552 139.066Z" fill="white"></path> <path d="M53.5618 144.78C54.7791 144.077 55.7658 144.644 55.7658 146.05C55.7244 146.815 55.5032 147.559 55.1203 148.223C54.7374 148.886 54.2034 149.45 53.5618 149.868C52.3446 150.571 51.3579 150 51.3579 148.594C51.3987 147.83 51.6196 147.086 52.0026 146.423C52.3856 145.76 52.9199 145.197 53.5618 144.78V144.78Z" fill="white"></path> <path d="M57.9056 152.272C57.9056 149.962 56.2839 149.028 54.2841 150.181L53.0328 150.904C51.0368 152.057 49.415 154.865 49.415 157.175V157.795C50.5491 158.173 56.7337 154.589 57.9056 152.809V152.272Z" fill="white"></path> <path d="M174.956 112.113L170.347 109.467C170.166 109.369 169.898 109.437 169.591 109.682C169.421 109.811 169.251 109.936 169.077 110.06L168.888 110.181L168.548 110.397L168.302 110.533C168.204 110.59 168.102 110.65 168 110.703C167.898 110.756 167.815 110.794 167.72 110.839C167.626 110.885 167.539 110.934 167.444 110.975L167.134 111.108L166.877 111.213C166.764 111.259 166.65 111.3 166.537 111.338L166.302 111.425L165.924 111.535L165.709 111.599C165.58 111.637 165.448 111.667 165.331 111.697L165.138 111.743L164.722 111.826L164.552 111.856L164.11 111.92H163.966C163.811 111.92 163.656 111.954 163.501 111.962H163.38C163.218 111.962 163.059 111.962 162.896 111.981H162.783C162.617 111.981 162.45 111.981 162.284 111.981H162.208C162.035 111.981 161.864 111.958 161.69 111.943H161.641L161.108 111.875H161.082L160.636 111.788C160.542 111.685 160.434 111.597 160.314 111.527V111.527L160.262 111.497L155.725 108.873C155.347 108.658 154.999 108.813 154.78 109.365C151.805 116.744 145.473 124.229 141.254 126.1C141.17 126.135 141.089 126.177 141.012 126.225C140.959 126.255 140.914 126.289 140.861 126.323C140.808 126.357 140.819 126.354 140.797 126.373C140.733 126.419 140.672 126.469 140.615 126.524V126.524C140.555 126.584 140.494 126.645 140.438 126.713C140.136 127.04 139.968 127.469 139.969 127.915L140.577 144.495C140.577 149.327 142.634 154.43 146.83 156.868L151.434 159.515L151.495 159.549C153.625 160.73 156.074 161.209 158.492 160.917C159.396 160.77 160.235 160.352 160.897 159.719C170.102 150.196 174.589 137.286 174.589 130.16L175.198 112.824C175.209 112.438 175.118 112.208 174.956 112.113Z" fill="#6BEAC7"></path> <path opacity="0.15" d="M151.302 159.454L146.807 156.857C142.615 154.418 140.555 149.315 140.555 144.484L139.942 127.892C139.947 127.603 140.018 127.32 140.149 127.063C140.28 126.806 140.468 126.583 140.698 126.41C140.598 126.495 140.504 126.589 140.419 126.69L145.023 129.336C144.719 129.665 144.551 130.097 144.554 130.546L145.159 147.122C145.155 151.935 147.182 157 151.302 159.454Z" fill="black"></path> <path opacity="0.3" d="M174.949 112.107C174.771 112.013 174.506 112.084 174.193 112.33C170.034 115.498 163.854 115.502 160.701 111.831L160.644 111.767C162.199 112.069 163.799 112.038 165.341 111.676C166.883 111.314 168.33 110.63 169.588 109.669C169.913 109.419 170.178 109.355 170.344 109.453L174.949 112.107Z" fill="white"></path> <path opacity="0.5" d="M160.261 111.475C159.91 111.309 159.588 111.475 159.381 111.997C156.409 119.38 150.073 126.861 145.851 128.732C145.533 128.876 145.251 129.088 145.023 129.352L140.418 126.706C140.504 126.605 140.598 126.512 140.698 126.426L140.8 126.343C140.837 126.32 140.872 126.295 140.906 126.267L141.02 126.199C141.092 126.154 141.168 126.115 141.246 126.082C145.465 124.211 151.801 116.726 154.772 109.343C154.931 108.965 155.15 108.764 155.404 108.764C155.515 108.765 155.623 108.797 155.717 108.855L160.261 111.475Z" fill="white"></path> <path d="M182.86 128.029L180.403 126.608L170.767 149.316L172.412 150.265L182.86 128.029Z" fill="#737688"></path> <path d="M168.265 143.274L165.804 141.856L163.162 147.448L165.623 148.865L168.265 143.274Z" fill="#737688"></path> <path d="M173.043 156.922L165.623 148.866L168.265 143.275L172.412 150.265L182.861 128.029L186.736 131.81L173.043 156.922Z" fill="#353747"></path> <path d="M163.162 147.449L165.623 148.867L173.043 156.922L170.586 155.52L163.162 147.449Z" fill="#353747"></path> <path d="M113.662 90.6296C113.676 90.6428 113.683 90.6681 113.683 90.7055C113.683 90.7588 113.666 90.8136 113.634 90.8697C113.607 90.9179 113.57 90.9554 113.524 90.9823L112.502 91.5799C112.437 91.6176 112.389 91.6325 112.356 91.6247C112.329 91.6142 112.297 91.5957 112.26 91.5692L111.203 90.147L110.727 90.4256V92.4176C110.727 92.4762 110.708 92.535 110.671 92.5939C110.639 92.65 110.598 92.6929 110.547 92.7225L109.656 93.2434C109.605 93.273 109.564 93.2786 109.532 93.2601C109.5 93.2416 109.483 93.203 109.483 93.1443V87.9443C109.483 87.8857 109.5 87.8282 109.532 87.7721C109.569 87.7132 109.61 87.6703 109.656 87.6434L110.547 87.1225C110.598 87.0929 110.639 87.0874 110.671 87.1059C110.708 87.1217 110.727 87.1589 110.727 87.2176V89.1456L111.148 88.9073L112.163 86.3297C112.214 86.1988 112.299 86.0983 112.419 86.0284L113.42 85.4429C113.462 85.4187 113.496 85.4145 113.524 85.4303C113.551 85.4462 113.565 85.4781 113.565 85.5261C113.565 85.5475 113.556 85.5848 113.537 85.6383L112.253 88.8213L113.662 90.6296ZM114.05 90.6748C114.013 90.6963 113.978 90.7005 113.946 90.6874C113.919 90.6662 113.905 90.6342 113.905 90.5916C113.905 90.5596 113.907 90.5342 113.912 90.5155L115.535 84.4307C115.548 84.3586 115.578 84.2878 115.624 84.2182C115.67 84.1486 115.73 84.0923 115.804 84.0492L116.826 83.4517C116.9 83.4086 116.96 83.395 117.006 83.4107C117.052 83.4265 117.082 83.4623 117.095 83.5182L118.712 87.7094L118.725 87.7734C118.725 87.816 118.709 87.8654 118.677 87.9216C118.649 87.9698 118.615 88.006 118.573 88.0302L117.724 88.5268C117.613 88.5914 117.54 88.5785 117.503 88.488L117.234 87.8295L115.39 88.9075L115.127 89.8769C115.09 90.0105 115.014 90.1109 114.899 90.1782L114.05 90.6748ZM116.957 86.839L116.315 85.1025L115.673 87.59L116.957 86.839ZM119.442 87.5222C119.396 87.5491 119.355 87.5547 119.318 87.5389C119.286 87.515 119.27 87.4764 119.27 87.4231V82.2231C119.27 82.1644 119.286 82.107 119.318 82.0509C119.355 81.992 119.396 81.9491 119.442 81.9222L121.376 80.7917C121.966 80.4471 122.428 80.3339 122.764 80.4521C123.105 80.5676 123.275 80.9267 123.275 81.5293C123.275 82.1267 123.107 82.6756 122.771 83.1761C122.435 83.6712 121.97 84.0924 121.376 84.4397L120.554 84.9201V86.6721C120.554 86.7308 120.536 86.7896 120.499 86.8484C120.467 86.9046 120.425 86.9475 120.375 86.9771L119.442 87.5222ZM121.342 83.3558C121.544 83.2374 121.703 83.0859 121.818 82.9012C121.933 82.7113 121.991 82.499 121.991 82.2643C121.991 82.0456 121.936 81.9046 121.825 81.8412C121.719 81.7698 121.558 81.7973 121.342 81.9238L120.534 82.3962V83.8282L121.342 83.3558ZM125.173 84.1719C125.127 84.1988 125.086 84.2043 125.049 84.1885C125.017 84.1647 125.001 84.1261 125.001 84.0728V79.9288L123.771 80.6475C123.725 80.6744 123.684 80.68 123.647 80.6642C123.615 80.6404 123.599 80.6018 123.599 80.5484V79.6924C123.599 79.6338 123.615 79.5764 123.647 79.5202C123.684 79.4613 123.725 79.4184 123.771 79.3915L127.487 77.2193C127.537 77.1897 127.579 77.1841 127.611 77.2026C127.643 77.2211 127.659 77.2597 127.659 77.3183V78.1743C127.659 78.233 127.643 78.2904 127.611 78.3466C127.579 78.4028 127.537 78.4457 127.487 78.4753L126.257 79.194V83.338C126.257 83.3913 126.241 83.4487 126.209 83.5102C126.177 83.5664 126.135 83.6093 126.085 83.6389L125.173 84.1719ZM128.011 82.5129C127.974 82.5344 127.94 82.5386 127.907 82.5255C127.88 82.5043 127.866 82.4724 127.866 82.4297C127.866 82.3977 127.868 82.3723 127.873 82.3537L129.496 76.2688C129.51 76.1967 129.539 76.1259 129.586 76.0563C129.632 75.9868 129.691 75.9304 129.765 75.8874L130.787 75.2898C130.861 75.2467 130.921 75.2331 130.967 75.2488C131.013 75.2646 131.043 75.3004 131.057 75.3563L132.673 79.5475L132.686 79.6115C132.686 79.6541 132.67 79.7036 132.638 79.7597C132.611 79.8079 132.576 79.8441 132.535 79.8683L131.685 80.3649C131.575 80.4295 131.501 80.4166 131.464 80.3261L131.195 79.6676L129.351 80.7456L129.088 81.715C129.051 81.8486 128.975 81.949 128.86 82.0163L128.011 82.5129ZM130.918 78.6771L130.276 76.9406L129.634 79.4281L130.918 78.6771ZM134.874 78.5007C134.828 78.5276 134.786 78.5332 134.749 78.5174C134.717 78.4936 134.701 78.455 134.701 78.4017V73.2017C134.701 73.143 134.717 73.0856 134.749 73.0294C134.786 72.9705 134.828 72.9276 134.874 72.9007L138.189 70.9627C138.24 70.9331 138.281 70.9275 138.313 70.946C138.345 70.9645 138.362 71.0031 138.362 71.0617V71.8617C138.362 71.9204 138.345 71.9805 138.313 72.042C138.281 72.0982 138.24 72.1411 138.189 72.1707L135.944 73.4829V74.4269L136.904 73.8657C137.457 73.5427 137.892 73.4403 138.21 73.5586C138.527 73.6768 138.686 74 138.686 74.528C138.686 74.8586 138.617 75.1977 138.479 75.5451C138.341 75.8872 138.138 76.2136 137.871 76.5244C137.604 76.8299 137.282 77.093 136.904 77.3137L134.874 78.5007ZM136.794 76.3383C136.983 76.2279 137.13 76.0724 137.236 75.8719C137.346 75.6686 137.402 75.4683 137.402 75.271C137.402 75.0736 137.349 74.9419 137.243 74.8758C137.137 74.8097 136.987 74.8332 136.794 74.9463L135.944 75.4429V76.8349L136.794 76.3383ZM138.964 76.1096C138.927 76.1311 138.893 76.1353 138.86 76.1221C138.833 76.1009 138.819 76.069 138.819 76.0264C138.819 75.9944 138.821 75.969 138.826 75.9503L140.449 69.8655C140.463 69.7934 140.493 69.7226 140.539 69.653C140.585 69.5834 140.645 69.5271 140.718 69.484L141.74 68.8865C141.814 68.8434 141.874 68.8297 141.92 68.8455C141.966 68.8612 141.996 68.8971 142.01 68.953L143.626 73.1442L143.64 73.2081C143.64 73.2508 143.623 73.3002 143.591 73.3564C143.564 73.4045 143.529 73.4407 143.488 73.465L142.638 73.9616C142.528 74.0262 142.454 74.0132 142.417 73.9228L142.148 73.2642L140.304 74.3423L140.041 75.3117C140.005 75.4452 139.929 75.5457 139.813 75.6129L138.964 76.1096ZM141.872 72.2737L141.229 70.5372L140.587 73.0247L141.872 72.2737ZM144.357 72.9569C144.306 72.9866 144.265 72.9921 144.232 72.9736C144.2 72.9551 144.184 72.9166 144.184 72.8579V67.6579C144.184 67.5992 144.2 67.5418 144.232 67.4856C144.269 67.4268 144.311 67.3839 144.357 67.3569L145.248 66.8361C145.298 66.8065 145.34 66.8009 145.372 66.8194C145.409 66.8352 145.427 66.8725 145.427 66.9311V68.8591L147.126 67.8659V65.9379C147.126 65.8792 147.142 65.8218 147.174 65.7656C147.207 65.7094 147.248 65.6665 147.299 65.6369L148.19 65.1161C148.24 65.0865 148.282 65.0809 148.314 65.0994C148.346 65.1179 148.362 65.1565 148.362 65.2152V70.4152C148.362 70.4738 148.346 70.5312 148.314 70.5874C148.282 70.6436 148.24 70.6865 148.19 70.7161L147.299 71.2369C147.248 71.2665 147.207 71.2721 147.174 71.2536C147.142 71.2351 147.126 71.1965 147.126 71.1379V69.1459L145.427 70.1391V72.1311C145.427 72.1898 145.409 72.2486 145.372 72.3074C145.34 72.3636 145.298 72.4065 145.248 72.4361L144.357 72.9569ZM153.508 67.3347C153.522 67.3479 153.529 67.3732 153.529 67.4106C153.529 67.4639 153.513 67.5187 153.481 67.5748C153.453 67.623 153.416 67.6605 153.37 67.6874L152.348 68.285C152.284 68.3227 152.235 68.3376 152.203 68.3298C152.175 68.3193 152.143 68.3008 152.106 68.2743L151.05 66.8521L150.573 67.1307V69.1227C150.573 69.1813 150.555 69.2401 150.518 69.299C150.486 69.3551 150.444 69.398 150.394 69.4276L149.503 69.9485C149.452 69.9781 149.411 69.9836 149.378 69.9652C149.346 69.9467 149.33 69.9081 149.33 69.8494V64.6494C149.33 64.5908 149.346 64.5333 149.378 64.4772C149.415 64.4183 149.457 64.3754 149.503 64.3485L150.394 63.8276C150.444 63.798 150.486 63.7925 150.518 63.811C150.555 63.8268 150.573 63.864 150.573 63.9227V65.8507L150.994 65.6124L152.01 63.0348C152.06 62.9039 152.145 62.8034 152.265 62.7335L153.267 62.148C153.308 62.1238 153.343 62.1196 153.37 62.1354C153.398 62.1513 153.412 62.1832 153.412 62.2312C153.412 62.2525 153.402 62.2899 153.384 62.3434L152.099 65.5264L153.508 67.3347ZM153.896 67.3799C153.859 67.4014 153.825 67.4056 153.793 67.3925C153.765 67.3713 153.751 67.3393 153.751 67.2967C153.751 67.2647 153.754 67.2393 153.758 67.2206L155.381 61.1358C155.395 61.0637 155.425 60.9929 155.471 60.9233C155.517 60.8537 155.577 60.7974 155.651 60.7543L156.673 60.1568C156.746 60.1137 156.806 60.1001 156.852 60.1158C156.898 60.1316 156.928 60.1674 156.942 60.2233L158.558 64.4145L158.572 64.4785C158.572 64.5211 158.556 64.5705 158.524 64.6267C158.496 64.6749 158.461 64.7111 158.42 64.7353L157.57 65.2319C157.46 65.2965 157.386 65.2836 157.349 65.1931L157.08 64.5346L155.236 65.6126L154.974 66.582C154.937 66.7156 154.861 66.816 154.746 66.8833L153.896 67.3799ZM156.804 63.5441L156.162 61.8076L155.519 64.2951L156.804 63.5441Z" fill="white"></path> </svg> 