<?xml version="1.0" encoding="UTF-8"?> <svg xmlns="http://www.w3.org/2000/svg" width="179" height="40" viewBox="0 0 179 40" fill="none"> <rect x="0.5" y="0.5" width="178" height="39" rx="3.5" fill="#5EB1FC"></rect> <rect x="16" y="12" width="16" height="16" rx="8" fill="white"></rect> <rect x="20" y="19.3335" width="8" height="1.33333" rx="0.2" fill="#5EB1FC"></rect> <rect x="23.333" y="24" width="8" height="1.33333" rx="0.2" transform="rotate(-90 23.333 24)" fill="#5EB1FC"></rect> <path d="M50.736 22C50.064 23.072 48.72 23.792 46.864 23.792C44.512 23.76 43.328 22.256 43.328 20.4C43.328 18.368 44.672 17.008 46.864 17.008C48.56 17.008 49.872 17.872 50.576 18.8V15.488C49.808 15.04 48.56 14.608 46.864 14.608C43.088 14.608 40.528 16.928 40.528 20.384C40.528 24.08 43.12 26.176 46.832 26.192C48.736 26.192 50.176 25.52 50.736 24.848V22ZM56.0835 17.808C53.3475 17.824 51.6835 19.232 51.6835 21.984C51.6835 24.784 53.4755 26.192 55.9395 26.192C58.6595 26.176 60.3395 24.784 60.3395 22.016C60.3395 19.216 58.5475 17.808 56.0835 17.808ZM54.1635 21.968C54.1635 20.528 54.8355 19.92 56.0035 19.92C57.0915 19.936 57.8595 20.544 57.8595 21.984V22.032C57.8595 23.472 57.1875 24.08 56.0195 24.08C54.9155 24.08 54.1635 23.472 54.1635 22.016V21.968ZM61.3435 25.2C61.7435 25.6 63.1515 26.16 64.4795 26.16C67.0395 26.16 68.4955 25.2 68.4955 23.616C68.4955 22.544 67.8555 22.016 66.7835 21.808C67.5995 21.52 68.2075 20.928 68.2075 19.92C68.2075 18.656 67.0235 17.84 64.5915 17.84H64.4955C63.2635 17.84 62.1755 18.128 61.5675 18.528V21.312C62.1915 20.512 63.0555 19.936 64.4955 19.936C65.4075 19.968 65.7435 20.208 65.7435 20.544C65.7435 20.992 65.3275 21.152 64.5915 21.152H63.2795V22.816H64.8315C65.7435 22.816 66.0475 23.04 66.0475 23.44C66.0475 23.888 65.4875 24.048 64.4795 24.048C62.9115 24.048 61.8395 23.552 61.3435 22.896V25.2ZM69.24 23.888V28.08H71.368V26H76.36V28.08H78.472V23.888H77.32V18H70.664V18.912C70.664 21.264 70.44 22.768 70.088 23.888H69.24ZM72.904 20.112H74.92V23.888H72.376C72.712 22.816 72.856 21.616 72.904 20.112ZM80.0605 21.312C80.6045 20.512 81.3565 19.936 83.0525 19.936C84.0445 19.936 84.3485 20.272 84.3485 21.168V21.232H82.6205C80.8125 21.232 79.4045 21.744 79.4045 23.648C79.4045 25.136 80.2685 26.128 81.9325 26.128C83.1805 26.128 84.0925 25.488 84.4765 24.56V26H86.7485V20.72C86.7485 18.736 85.6925 17.84 83.0525 17.84C81.5485 17.84 80.5885 18.128 80.0605 18.528V21.312ZM82.7645 24.016C82.1565 24.016 81.8205 23.76 81.8205 23.328C81.8205 22.816 82.2525 22.624 83.0205 22.624H84.3485V23.088C84.2685 23.632 83.6765 24.016 82.7645 24.016ZM90.4883 26H92.8883V20.112H95.4323V18H88.0563V20.112H90.4883V26ZM96.8361 26H100.308C102.772 26 103.972 24.96 103.972 22.992C103.956 20.912 102.676 20.16 100.516 20.16H99.2361V18H96.8361V26ZM100.228 23.888H99.2361V22.256H100.372C101.22 22.256 101.54 22.496 101.556 23.008C101.54 23.584 101.204 23.888 100.228 23.888ZM109.281 25.2C109.681 25.6 111.089 26.16 112.417 26.16C114.977 26.16 116.433 25.2 116.433 23.616C116.433 22.544 115.793 22.016 114.721 21.808C115.537 21.52 116.145 20.928 116.145 19.92C116.145 18.656 114.961 17.84 112.529 17.84H112.433C111.201 17.84 110.113 18.128 109.505 18.528V21.312C110.129 20.512 110.993 19.936 112.433 19.936C113.345 19.968 113.681 20.208 113.681 20.544C113.681 20.992 113.265 21.152 112.529 21.152H111.217V22.816H112.769C113.681 22.816 113.985 23.04 113.985 23.44C113.985 23.888 113.425 24.048 112.417 24.048C110.849 24.048 109.777 23.552 109.281 22.896V25.2ZM118.107 21.312C118.651 20.512 119.403 19.936 121.099 19.936C122.091 19.936 122.395 20.272 122.395 21.168V21.232H120.667C118.859 21.232 117.451 21.744 117.451 23.648C117.451 25.136 118.315 26.128 119.979 26.128C121.227 26.128 122.139 25.488 122.523 24.56V26H124.795V20.72C124.795 18.736 123.739 17.84 121.099 17.84C119.595 17.84 118.635 18.128 118.107 18.528V21.312ZM120.811 24.016C120.203 24.016 119.867 23.76 119.867 23.328C119.867 22.816 120.299 22.624 121.067 22.624H122.395V23.088C122.315 23.632 121.723 24.016 120.811 24.016ZM131.511 26H133.927V18H130.087C127.639 18 126.455 19.024 126.439 20.976C126.439 21.92 126.839 22.752 127.687 23.216L126.247 26H128.823L129.943 23.616H131.511V26ZM128.839 21.008C128.839 20.432 129.175 20.112 130.183 20.112H131.511V21.776H129.959C129.239 21.776 128.871 21.536 128.839 21.008ZM135.93 26H140.362C142.394 26 143.402 25.12 143.402 23.632C143.402 22.32 142.65 21.808 141.626 21.68C142.49 21.472 143.002 20.816 143.002 19.904C143.002 18.656 142.202 18 140.41 18H135.93V26ZM138.33 24.032V22.704H140.026C140.746 22.704 141.002 22.928 141.002 23.36C141.002 23.824 140.73 24.032 140.058 24.032H138.33ZM138.33 21.168V19.984L139.706 19.968C140.298 19.968 140.586 20.144 140.586 20.528C140.586 20.992 140.282 21.168 139.786 21.168H138.33ZM144.852 26H147.252V22.912H148.372L150.516 26H153.396L150.356 21.776L152.996 18H150.356L148.388 20.912H147.252V18H144.852V26ZM156.83 26.032C156.622 26.704 156.302 27.296 155.646 27.296C155.374 27.296 155.07 27.184 154.83 26.944V29.056C155.07 29.264 155.646 29.408 156.126 29.408C157.326 29.408 158.046 29.008 158.798 26.848L161.95 18H159.406L157.95 22.72L156.19 18H153.534L156.83 26.032Z" fill="white"></path> <rect x="0.5" y="0.5" width="178" height="39" rx="3.5" stroke="#5EB1FC"></rect> </svg> 