<?xml version="1.0" encoding="UTF-8"?> <svg xmlns="http://www.w3.org/2000/svg" width="96" height="96" viewBox="0 0 96 96" fill="none"> <path d="M48 95.0229C74.5097 95.0229 96 73.7539 96 47.5173C96 21.2807 74.5097 0.0117188 48 0.0117188C21.4903 0.0117188 0 21.2807 0 47.5173C0 73.7539 21.4903 95.0229 48 95.0229Z" fill="white"></path> <path d="M29.3218 48.2001H30.5338C31.9858 48.2001 32.5978 48.5481 32.5978 49.5441C32.5978 50.6001 32.0818 51.1401 30.6418 51.1401C29.4538 51.1401 28.5418 50.6841 28.1218 50.2761V51.6441C28.6138 51.8601 29.4538 52.1121 30.5218 52.1121C32.7658 52.1121 33.7378 51.2361 33.7378 49.6281C33.7378 48.2961 33.1018 47.6721 31.8778 47.5281C32.8498 47.2401 33.3058 46.6161 33.3058 45.5601C33.3058 44.1081 32.3938 43.5201 30.5698 43.5201C29.5018 43.5201 28.8298 43.7961 28.3738 43.9641V45.2001C28.9258 44.7681 29.6218 44.4921 30.3418 44.4921C31.5898 44.4921 32.1778 44.8641 32.1778 45.8481C32.1778 46.6281 31.7938 47.3001 30.5218 47.3001H29.3218V48.2001ZM39.2777 52.0161H40.1897V47.6961C40.1897 46.0521 39.4337 45.5361 37.7537 45.5361C37.1417 45.5361 36.2417 45.6921 35.7137 45.9801V47.1321C36.1457 46.7721 36.9257 46.4481 37.6457 46.4481C38.7137 46.4481 39.1937 46.6881 39.1937 47.7081V48.3081H37.7657C35.9417 48.3081 35.2337 48.8481 35.2337 50.2521C35.2337 51.4761 36.0257 52.1481 37.2977 52.1481C38.2097 52.1481 38.8937 51.6801 39.2177 51.1041L39.2777 52.0161ZM36.2537 50.0961C36.2537 49.3281 36.5897 49.0401 37.8017 49.0401H39.1937V49.5801C39.1937 50.5041 38.6657 51.1881 37.4897 51.1881C36.6137 51.1881 36.2537 50.7801 36.2537 50.0961ZM41.7554 52.0161H42.9074L44.5394 49.7361H46.0994V52.0161H47.0954V45.6801C46.6394 45.6201 45.7874 45.5961 45.0914 45.5961C42.9074 45.5961 42.2234 46.3281 42.2234 47.6841C42.2234 48.6201 42.4994 49.4001 43.5194 49.5681L41.7554 52.0161ZM46.0994 48.9561H44.7674C43.6514 48.9561 43.2194 48.6681 43.2194 47.7081C43.2194 46.7841 43.5554 46.4721 45.0074 46.4721C45.5474 46.4721 45.7994 46.4841 46.0994 46.5201V48.9561ZM49.4 52.0281C49.868 52.0641 50.816 52.1121 51.656 52.1121C53.78 52.1121 54.416 51.3081 54.416 50.1201C54.416 49.0641 53.948 48.7041 52.88 48.6081C53.78 48.3561 54.116 47.8881 54.116 47.0721C54.116 46.1601 53.6 45.5721 51.56 45.5721C50.576 45.5721 49.856 45.6201 49.4 45.6441V52.0281ZM50.396 51.1881V49.1721H51.872C52.952 49.1721 53.42 49.4121 53.42 50.1321C53.42 50.9721 53 51.2481 51.692 51.2481C51.236 51.2481 50.804 51.2241 50.396 51.1881ZM50.396 48.3201V46.4481C50.672 46.4361 51.02 46.4361 51.632 46.4361C52.712 46.4361 53.108 46.6401 53.108 47.3601C53.108 48.0201 52.616 48.3201 51.872 48.3201H50.396ZM60.6467 52.0161H61.8587L59.1827 48.6801L61.6067 45.6561H60.4667L58.3427 48.3561H57.2867V45.6561H56.2907V52.0161H57.2867V49.1361H58.3307L60.6467 52.0161ZM63.2516 52.0161H64.1396L66.6116 48.4881C66.9716 48.0081 67.3436 47.3961 67.5476 47.0241L67.5836 47.0361C67.5476 47.4801 67.5116 48.5241 67.5116 49.4481V52.0161H68.5076V45.6561H67.6316L65.2196 49.1481C64.8716 49.6281 64.5236 50.1081 64.2236 50.6241L64.1756 50.6001C64.2116 50.2881 64.2476 49.4961 64.2476 48.7521V45.6561H63.2516V52.0161Z" fill="#737688"></path> </svg> 