<?xml version="1.0" encoding="UTF-8"?> <svg xmlns="http://www.w3.org/2000/svg" width="70" height="71" viewBox="0 0 70 71" fill="none"> <path d="M70 35.0149C70 15.6827 54.33 0.0107854 35 0.0107863C15.67 0.0107872 -2.58894e-06 15.6827 -1.66783e-06 35.0149C-7.46712e-07 54.3472 15.67 70.019 35 70.019C54.33 70.019 70 54.3472 70 35.0149Z" fill="white"></path> <path d="M9.0354 32.0132H10.1154V24.5732H14.6154V32.0132H15.6954V23.6132H9.0354V32.0132ZM18.183 34.1732H19.179V31.1612C19.491 31.6892 20.127 32.1452 21.207 32.1452C22.935 32.1452 23.835 31.1732 23.835 28.7012C23.835 26.4452 23.019 25.5332 21.375 25.5332C20.211 25.5332 19.491 25.9412 19.155 26.7692L19.095 25.6532H18.183V34.1732ZM19.179 29.4572V28.1852C19.179 27.1892 19.755 26.4332 21.015 26.4332C22.203 26.4332 22.839 27.0212 22.839 28.7612C22.839 30.5732 22.335 31.2452 21.003 31.2452C19.839 31.2452 19.179 30.5492 19.179 29.4572ZM25.7067 32.0132H26.5947L29.0667 28.4852C29.4267 28.0052 29.7987 27.3932 30.0027 27.0212L30.0387 27.0332C30.0027 27.4772 29.9667 28.5212 29.9667 29.4452V32.0132H30.9627V25.6532H30.0867L27.6747 29.1452C27.3267 29.6252 26.9787 30.1052 26.6787 30.6212L26.6307 30.5972C26.6667 30.2852 26.7027 29.4932 26.7027 28.7492V25.6532H25.7067V32.0132ZM38.3173 22.7612C37.8253 23.0132 36.3853 23.0852 35.7613 23.1692C33.6733 23.4572 32.8933 24.8372 32.8933 28.1492C32.8933 30.9212 33.8773 32.1332 35.9173 32.1332C37.8133 32.1332 38.8693 31.1252 38.8693 28.6892C38.8693 26.3852 37.8733 25.7372 36.3013 25.7372C35.3533 25.7372 34.4533 26.1332 33.9013 26.9492L33.8653 26.9372C34.0333 25.0052 34.4173 24.3092 36.1573 24.2012C37.4893 24.1172 38.0773 24.0572 38.3173 23.9252V22.7612ZM35.9413 31.1852C34.6573 31.1852 33.9253 30.4772 33.9253 28.5812C33.9253 27.3452 34.7653 26.6492 35.9893 26.6492C37.1533 26.6492 37.8133 27.1172 37.8133 28.8092C37.8133 30.4772 37.2013 31.1852 35.9413 31.1852ZM40.3098 28.8092C40.3098 30.9092 41.3778 32.1452 43.2738 32.1452C44.9298 32.1452 46.2498 31.2332 46.2498 28.8452C46.2498 26.5412 45.1338 25.5332 43.4058 25.5332C41.5818 25.5332 40.3098 26.6132 40.3098 28.8092ZM41.3058 28.8092C41.3058 27.2492 42.0138 26.4212 43.2738 26.4212C44.5458 26.4212 45.2538 27.2012 45.2538 28.8092V28.8452C45.2538 30.5252 44.5458 31.2452 43.3578 31.2452C42.0258 31.2452 41.3058 30.3572 41.3058 28.8452V28.8092ZM48.1127 34.1732H49.1087V31.1612C49.4207 31.6892 50.0567 32.1452 51.1367 32.1452C52.8647 32.1452 53.7647 31.1732 53.7647 28.7012C53.7647 26.4452 52.9487 25.5332 51.3047 25.5332C50.1407 25.5332 49.4207 25.9412 49.0847 26.7692L49.0247 25.6532H48.1127V34.1732ZM49.1087 29.4572V28.1852C49.1087 27.1892 49.6847 26.4332 50.9447 26.4332C52.1327 26.4332 52.7687 27.0212 52.7687 28.7612C52.7687 30.5732 52.2647 31.2452 50.9327 31.2452C49.7687 31.2452 49.1087 30.5492 49.1087 29.4572ZM56.6324 27.7532V25.6532H55.6364V32.0132C56.1884 32.0732 56.7644 32.0972 57.3164 32.0972C59.5604 32.0972 60.2564 31.0652 60.2564 29.7932C60.2564 28.3652 59.5364 27.7052 57.5084 27.7052C57.2084 27.7052 56.9444 27.7172 56.6324 27.7532ZM56.6324 31.1612V28.5812C56.8844 28.5452 57.0644 28.5212 57.3164 28.5212C58.9724 28.5212 59.2604 29.0732 59.2604 29.8292C59.2604 30.6452 58.8524 31.1972 57.4244 31.1972C57.0644 31.1972 56.9204 31.1852 56.6324 31.1612ZM61.1564 32.0132H62.1524V25.6532H61.1564V32.0132ZM20.9769 47.3092C20.7849 47.3092 20.5929 47.2612 20.4249 47.1652V48.1612C20.5569 48.2332 20.7369 48.2572 20.9889 48.2572C21.6009 48.2572 22.2369 48.1612 23.0769 45.7972L25.2729 39.6532H24.2049L22.5849 44.7292L20.6409 39.6532H19.4889L22.0689 46.0372C21.6849 47.1652 21.4329 47.3092 20.9769 47.3092ZM26.4714 41.8132C26.4714 43.2532 27.3354 43.9012 28.8594 43.9012C29.3994 43.9012 30.0114 43.7812 30.4314 43.5532V46.0132H31.4274V39.6532H30.4314V42.7132C30.0234 42.8932 29.4714 43.0012 28.9314 43.0012C27.9474 43.0012 27.4554 42.5572 27.4554 41.7052V39.6532H26.4714V41.8132ZM38.846 43.1932V42.5452C38.846 40.7452 38.138 39.5332 36.17 39.5332C34.31 39.5332 33.302 40.6612 33.302 42.7372C33.302 45.1852 34.358 46.1452 36.41 46.1452C37.358 46.1452 38.066 45.8092 38.378 45.5812V44.5492C37.91 44.9212 37.238 45.2452 36.434 45.2452C35.042 45.2452 34.31 44.5612 34.31 43.1932H38.846ZM36.158 40.4332C37.334 40.4332 37.85 41.0332 37.85 42.3292H34.31C34.31 41.0332 34.994 40.4332 36.158 40.4332ZM41.8464 46.0132H42.8424V40.5892H44.8944V39.6532H39.7824V40.5892H41.8464V46.0132ZM49.8734 46.0132H50.7854V41.6932C50.7854 40.0492 50.0294 39.5332 48.3494 39.5332C47.7374 39.5332 46.8374 39.6892 46.3094 39.9772V41.1292C46.7414 40.7692 47.5214 40.4452 48.2414 40.4452C49.3094 40.4452 49.7894 40.6852 49.7894 41.7052V42.3052H48.3614C46.5374 42.3052 45.8294 42.8452 45.8294 44.2492C45.8294 45.4732 46.6214 46.1452 47.8934 46.1452C48.8054 46.1452 49.4894 45.6772 49.8134 45.1012L49.8734 46.0132ZM46.8494 44.0932C46.8494 43.3252 47.1854 43.0372 48.3974 43.0372H49.7894V43.5772C49.7894 44.5012 49.2614 45.1852 48.0854 45.1852C47.2094 45.1852 46.8494 44.7772 46.8494 44.0932Z" fill="#A0A0B1"></path> </svg> 