<?xml version="1.0" encoding="UTF-8"?> <svg xmlns="http://www.w3.org/2000/svg" width="40" height="40" viewBox="0 0 40 40" fill="none"> <circle cx="20" cy="20" r="20" fill="#6BEAC7"></circle> <path d="M28.0938 18.8125V28.1875C28.0937 28.3864 28.0147 28.5772 27.8741 28.7178C27.7334 28.8585 27.5427 28.9375 27.3437 28.9375H11.2188C10.995 28.9375 10.7804 28.8486 10.6221 28.6904C10.4639 28.5321 10.375 28.3175 10.375 28.0938V16.2812C10.375 16.0575 10.4639 15.8429 10.6221 15.6846C10.7804 15.5264 10.995 15.4375 11.2188 15.4375H16C16.1826 15.4375 16.3602 15.4967 16.5062 15.6062L19.4313 17.8C19.5773 17.9095 19.7549 17.9688 19.9375 17.9688H27.25C27.4738 17.9688 27.6884 18.0576 27.8466 18.2159C28.0049 18.3741 28.0938 18.5887 28.0938 18.8125Z" stroke="white" stroke-width="2" stroke-linecap="round" stroke-linejoin="round"></path> <path d="M13.75 15.4375V12.9062C13.75 12.6825 13.8389 12.4679 13.9971 12.3096C14.1554 12.1514 14.37 12.0625 14.5938 12.0625H19.375C19.5576 12.0625 19.7352 12.1217 19.8812 12.2312L22.8063 14.425C22.9523 14.5345 23.1299 14.5938 23.3125 14.5938H30.625C30.8488 14.5938 31.0634 14.6826 31.2216 14.8409C31.3799 14.9991 31.4688 15.2137 31.4688 15.4375V24.8125C31.4688 24.911 31.4494 25.0085 31.4117 25.0995C31.374 25.1905 31.3187 25.2732 31.2491 25.3428C31.1794 25.4125 31.0968 25.4677 31.0058 25.5054C30.9148 25.5431 30.8172 25.5625 30.7187 25.5625H28.0938" stroke="white" stroke-width="2" stroke-linecap="round" stroke-linejoin="round"></path> </svg> 