<?xml version="1.0" encoding="UTF-8"?> <svg xmlns="http://www.w3.org/2000/svg" width="395" height="397" viewBox="0 0 395 397" fill="none"> <rect width="395" height="397" rx="12" fill="white"></rect> <rect x="10" y="10" width="375" height="377" rx="8" fill="white"></rect> <path d="M37.358 41H39.05V28.4H37.43V38.408L29.474 28.4H27.8V41H29.42V31.01L37.358 41ZM40.4 31.874C40.4 33.764 41.48 34.844 43.352 34.844C45.296 34.844 46.538 33.764 46.538 31.874C46.538 29.93 45.35 28.94 43.604 28.94C41.606 28.94 40.4 30.02 40.4 31.874ZM41.696 31.874C41.696 30.83 42.272 30.236 43.478 30.236C44.684 30.236 45.26 30.83 45.26 31.874C45.26 32.99 44.612 33.548 43.514 33.548C42.362 33.548 41.696 32.9 41.696 31.874ZM46.196 35.762H40.904V37.112H46.196V35.762ZM53.7916 41H62.1256V39.56H56.1316L56.5816 39.2C60.5776 36.014 61.8376 34.358 61.8376 31.946C61.8376 29.624 60.3976 28.292 57.9316 28.256C56.0416 28.238 54.8176 28.94 54.2056 29.606V31.46C55.0876 30.416 56.1136 29.75 57.6616 29.768C59.3536 29.768 60.2536 30.686 60.2536 32.162C60.2536 34.232 58.9576 35.546 53.7916 39.992V41ZM64.2778 29.606V31.46C65.1598 30.416 66.1858 29.75 67.7338 29.768C69.2998 29.768 70.1638 30.434 70.1638 31.766C70.1638 33.224 69.1378 33.926 67.4458 33.926H65.9878V35.276H67.8238C69.8758 35.276 70.7758 36.158 70.7758 37.418C70.7758 38.822 69.6238 39.632 67.9318 39.632C66.1858 39.65 65.0338 38.876 64.1878 37.742V39.902C64.6918 40.388 65.8618 41.108 67.8418 41.144C70.6858 41.144 72.3058 39.686 72.3058 37.526C72.3058 35.834 71.4238 34.7 69.6418 34.43C70.9378 33.926 71.6938 32.936 71.6938 31.316C71.6938 29.39 70.3618 28.256 68.0038 28.256C66.1138 28.31 64.8898 28.94 64.2778 29.606ZM78.7061 28.256C76.1501 28.274 74.0621 29.912 74.0621 34.718C74.0621 39.092 75.9341 41.162 78.7601 41.18C81.3161 41.18 83.4221 39.542 83.4221 34.718C83.4221 30.344 81.5321 28.256 78.7061 28.256ZM75.6461 34.718C75.6461 30.758 76.9241 29.768 78.7241 29.768C80.3801 29.804 81.8381 30.956 81.8381 34.718C81.8381 38.678 80.5601 39.668 78.7601 39.668C77.0861 39.65 75.6461 38.498 75.6461 34.718ZM88.2302 41H89.7242V28.274H88.6442L85.4042 30.362V32L88.2302 30.218V41ZM92.3053 41H100.639V39.56H94.6453L95.0953 39.2C99.0913 36.014 100.351 34.358 100.351 31.946C100.351 29.624 98.9113 28.292 96.4453 28.256C94.5553 28.238 93.3313 28.94 92.7192 29.606V31.46C93.6013 30.416 94.6273 29.75 96.1753 29.768C97.8673 29.768 98.7673 30.686 98.7673 32.162C98.7673 34.232 97.4713 35.546 92.3053 39.992V41ZM102.792 29.606V31.46C103.674 30.416 104.7 29.75 106.248 29.768C107.814 29.768 108.678 30.434 108.678 31.766C108.678 33.224 107.652 33.926 105.96 33.926H104.502V35.276H106.338C108.39 35.276 109.29 36.158 109.29 37.418C109.29 38.822 108.138 39.632 106.446 39.632C104.7 39.65 103.548 38.876 102.702 37.742V39.902C103.206 40.388 104.376 41.108 106.356 41.144C109.2 41.144 110.82 39.686 110.82 37.526C110.82 35.834 109.938 34.7 108.156 34.43C109.452 33.926 110.208 32.936 110.208 31.316C110.208 29.39 108.876 28.256 106.518 28.256C104.628 28.31 103.404 28.94 102.792 29.606ZM112.108 36.5V37.526H118.93V41H120.424V37.526H122.296V36.086H120.424V28.4H118.498L112.108 36.5ZM114.124 36.086L118.93 30.11V36.086H114.124Z" fill="#848484"></path> <path d="M296.172 41H300.114C302.562 41 303.696 40.118 303.696 38.336C303.696 36.752 302.85 36.284 301.698 36.14C302.67 35.906 303.246 35.168 303.246 34.034C303.246 32.738 302.472 32 300.186 32H296.172V41ZM297.666 39.704V36.986H300.366C301.5 36.986 302.202 37.274 302.202 38.354C302.202 39.254 301.572 39.704 300.096 39.704H297.666ZM297.666 35.708V33.314L300.006 33.296C301.14 33.296 301.734 33.494 301.734 34.376C301.734 35.366 300.996 35.708 299.88 35.708H297.666ZM310.622 44.24H312.116V39.614C312.62 40.46 313.682 41.198 315.194 41.198C317.768 41.198 319.298 39.848 319.298 36.302C319.298 33.152 317.768 31.82 315.374 31.82C313.556 31.82 312.494 32.684 312.044 33.728V32H310.622V44.24ZM312.116 36.014C312.152 34.214 313.106 33.17 314.978 33.17C316.67 33.17 317.786 33.98 317.786 36.392C317.786 38.894 316.94 39.848 314.96 39.848C313.268 39.848 312.116 38.75 312.116 36.878V36.014ZM321.629 34.808C322.241 33.8 323.285 33.116 324.689 33.116C325.985 33.116 326.885 33.548 326.885 35.078V35.798H324.743C322.349 35.798 320.945 36.374 320.945 38.354C320.945 40.19 322.133 41.144 323.915 41.144C325.337 41.144 326.489 40.46 326.957 39.47V41H328.379V35.06C328.379 32.594 326.993 31.82 324.689 31.82C323.303 31.82 322.223 32.234 321.629 32.684V34.808ZM324.293 39.758C323.087 39.758 322.475 39.146 322.475 38.264C322.475 37.238 323.177 36.986 324.797 36.986H326.885V37.958C326.795 38.57 326.129 39.758 324.293 39.758ZM338.678 27.122C337.94 27.5 335.78 27.608 334.844 27.734C331.712 28.166 330.542 30.236 330.542 35.204C330.542 39.362 332 41.18 335.078 41.18C337.922 41.18 339.506 39.56 339.506 36.374C339.506 33.116 337.85 32 335.492 32C333.962 32 332.666 32.666 331.838 33.944C332.09 31.046 332.702 29.372 335.978 29.12C337.454 29.012 338.318 28.94 338.678 28.742V27.122ZM332.09 36.266C332.09 34.412 333.26 33.368 335.096 33.368C336.842 33.368 337.922 34.25 337.922 36.554C337.922 38.876 336.68 39.758 335.006 39.758C333.08 39.758 332.09 38.39 332.09 36.266ZM341.016 36.464C341.016 39.614 342.636 41.162 345.48 41.18C348.018 41.18 349.926 39.65 349.926 36.536C349.926 33.404 348.288 31.838 345.462 31.82C342.924 31.82 341.016 33.35 341.016 36.464ZM342.528 36.464C342.528 34.25 343.572 33.116 345.462 33.116C347.352 33.134 348.414 34.196 348.414 36.482V36.536C348.414 38.75 347.37 39.884 345.48 39.884C343.572 39.884 342.528 38.822 342.528 36.518V36.464ZM354.14 41H355.634V33.332H358.622V32H351.134V33.332H354.14V41ZM364.27 31.82C361.732 31.82 359.824 33.35 359.824 36.464C359.824 39.614 361.462 41.18 364.306 41.18C366.07 41.18 367.168 40.64 367.618 40.082V38.336C367.132 39.2 366.034 39.884 364.306 39.884C362.542 39.884 361.498 38.984 361.354 37.04H368.248V36.068C368.248 33.404 366.754 31.82 364.27 31.82ZM364.27 33.116C365.692 33.116 366.754 34.016 366.754 35.744V35.762H361.372C361.57 34.016 362.578 33.116 364.27 33.116Z" fill="#AD6800"></path> <path d="M32.048 65.4H28.548V85H32.3L43.052 70.132V85H46.552V65.4H42.744L32.048 80.044V65.4ZM62.2375 83.6V80.24C61.5375 81.472 59.9975 82.452 57.6735 82.452C55.0415 82.452 53.4735 81.108 53.4735 78.224V77.804C53.4735 74.976 54.9295 73.548 57.6175 73.548C59.6615 73.576 61.1455 74.584 62.0975 76.068V71.98C61.1735 71.28 59.4935 70.72 57.6175 70.692C53.1655 70.72 50.1415 73.128 50.1415 77.944C50.1415 82.844 53.1095 85.308 57.5895 85.308C59.8575 85.308 61.6215 84.384 62.2375 83.6ZM74.6102 85H77.8862V71H65.2302V85H68.5062V73.884H74.6102V85ZM88.0992 85.308C92.4392 85.28 95.3792 82.9 95.3792 78.056C95.3792 73.184 92.5512 70.72 88.2112 70.692C83.8432 70.692 80.9032 73.1 80.9032 77.944C80.9032 82.844 83.7312 85.308 88.0992 85.308ZM84.2352 77.944C84.2352 75.004 85.6072 73.576 88.0992 73.548C90.5632 73.548 92.0472 74.892 92.0472 77.972V78.056C92.0472 81.024 90.6472 82.452 88.1552 82.452C85.6912 82.452 84.2352 81.108 84.2352 78.028V77.944ZM107.388 85H110.636V71H99.9401L99.8281 74.052C99.6321 81.36 98.6521 81.752 97.4481 81.752C97.2241 81.752 96.9721 81.724 96.7201 81.64V85.028C97.0001 85.112 97.5601 85.168 98.0921 85.168C100.276 85.168 102.404 84.384 102.768 75.648L102.852 73.884H107.388V85ZM124.244 85H127.52V71H124.244V76.46H117.916V71H114.64V85H117.916V79.344H124.244V85ZM131.512 84.804H131.932V85H134.62L134.76 84.804L141.34 75.396V85H144.588V71.224H144.14V71H141.48L134.76 80.492V71H131.512V84.804ZM151.766 85H155.014V73.884H159.55V71H147.286V73.884H151.766V85ZM173.81 83.6V80.24C173.054 81.472 171.346 82.452 168.77 82.452C166.222 82.452 164.794 81.276 164.542 78.952H174.93V77.608C174.93 73.212 172.494 70.72 168.434 70.692C164.206 70.692 161.294 73.296 161.294 77.944C161.294 82.76 164.038 85.308 168.658 85.28C171.206 85.308 173.138 84.384 173.81 83.6ZM168.35 73.548C170.338 73.548 171.57 74.724 171.654 76.628H164.598C164.934 74.612 166.25 73.548 168.35 73.548ZM186.74 85H189.988V71H179.292L179.18 74.052C178.984 81.36 178.004 81.752 176.8 81.752C176.576 81.752 176.324 81.724 176.072 81.64V85.028C176.352 85.112 176.912 85.168 177.444 85.168C179.628 85.168 181.756 84.384 182.12 75.648L182.204 73.884H186.74V85ZM205.92 79.904C205.92 76.236 203.792 75.144 199.984 75.144H197.268V71H193.992V85H199.62C203.988 85 205.892 83.46 205.92 79.904ZM202.644 79.876C202.644 81.556 201.776 82.116 199.536 82.116H197.268V78.028H199.732C201.86 78.028 202.588 78.42 202.644 79.876ZM232.912 78.532C231.764 80.52 229.356 82.088 225.94 82.088C221.432 82.004 219.108 79.008 219.108 75.2C219.108 71.084 221.74 68.312 226.024 68.312C228.964 68.312 231.344 69.992 232.52 71.728V66.856C231.372 66.044 229.104 65.092 226.024 65.092C219.528 65.092 215.328 69.264 215.328 75.172C215.328 81.5 219.584 85.28 225.968 85.308C229.356 85.308 231.932 84.02 232.912 82.844V78.532ZM247.228 83.6V80.24C246.472 81.472 244.764 82.452 242.188 82.452C239.64 82.452 238.212 81.276 237.96 78.952H248.348V77.608C248.348 73.212 245.912 70.72 241.852 70.692C237.624 70.692 234.712 73.296 234.712 77.944C234.712 82.76 237.456 85.308 242.076 85.28C244.624 85.308 246.556 84.384 247.228 83.6ZM241.768 73.548C243.756 73.548 244.988 74.724 245.072 76.628H238.016C238.352 74.612 239.668 73.548 241.768 73.548ZM251.359 90.404H254.635V82.872C255.335 84.188 256.875 85.308 259.115 85.308C262.951 85.308 265.443 83.208 265.443 77.692C265.443 72.792 262.951 70.72 259.395 70.72C256.427 70.72 254.943 72.344 254.439 73.912V71H251.359V90.404ZM254.635 77.412C254.691 75.06 255.867 73.632 258.443 73.632C260.683 73.632 262.167 74.752 262.167 77.832C262.167 81.136 261.019 82.424 258.387 82.424C256.091 82.424 254.635 80.996 254.635 78.476V77.412ZM268.449 85H271.725V73.884H278.501V71H268.449V85ZM293.056 83.6V80.24C292.3 81.472 290.592 82.452 288.016 82.452C285.468 82.452 284.04 81.276 283.788 78.952H294.176V77.608C294.176 73.212 291.74 70.72 287.68 70.692C283.452 70.692 280.54 73.296 280.54 77.944C280.54 82.76 283.284 85.308 287.904 85.28C290.452 85.308 292.384 84.384 293.056 83.6ZM287.596 73.548C289.584 73.548 290.816 74.724 290.9 76.628H283.844C284.18 74.612 285.496 73.548 287.596 73.548ZM308.751 83.6V80.24C307.995 81.472 306.287 82.452 303.711 82.452C301.163 82.452 299.735 81.276 299.483 78.952H309.871V77.608C309.871 73.212 307.435 70.72 303.375 70.692C299.147 70.692 296.235 73.296 296.235 77.944C296.235 82.76 298.979 85.308 303.599 85.28C306.147 85.308 308.079 84.384 308.751 83.6ZM303.291 73.548C305.279 73.548 306.511 74.724 306.595 76.628H299.539C299.875 74.612 301.191 73.548 303.291 73.548ZM312.883 85H319.855C323.523 85 325.287 83.544 325.287 80.856C325.287 78.476 323.971 77.664 322.179 77.44C323.691 77.076 324.587 75.928 324.587 74.248C324.587 72.148 323.271 71 319.939 71H312.883V85ZM316.159 82.284V79.008H319.743C321.255 79.008 322.039 79.4 322.039 80.632C322.039 81.752 321.283 82.284 319.547 82.284H316.159ZM316.159 76.656V73.744L319.183 73.716C320.583 73.716 321.311 74.024 321.311 75.06C321.311 76.236 320.443 76.656 319.155 76.656H316.159ZM344.147 85C348.907 85 351.819 83.348 351.819 79.288C351.819 76.74 350.727 75.2 348.319 74.78C350.335 73.996 351.231 72.512 351.231 70.272C351.231 67.024 348.99 65.4 344.623 65.4H336.111V85H344.147ZM339.611 81.78V76.432H344.427C346.891 76.432 348.291 77.16 348.291 79.036C348.291 80.912 347.059 81.78 344.371 81.78H339.611ZM339.611 73.688V68.62H344.203C346.695 68.62 347.731 69.46 347.731 71.028C347.731 72.708 346.331 73.688 344.119 73.688H339.611ZM355.77 83.124C355.77 84.3 356.274 85.28 357.954 85.28C359.662 85.28 360.166 84.3 360.166 83.124C360.166 81.92 359.662 80.968 357.954 80.968C356.274 80.968 355.77 81.92 355.77 83.124Z" fill="#190B25"></path> <path d="M37.5547 122.789H36.0625V120H27.8984V122.797H26.3984L26.3906 118.773H27.3203C27.8099 118.221 28.1979 117.482 28.4844 116.555C28.776 115.622 28.9583 114.602 29.0312 113.492L29.2812 108.625H36.0859V118.773H37.5703L37.5547 122.789ZM29.0312 118.773H34.5781V109.859H30.7266L30.5625 113.203C30.4948 114.51 30.3203 115.625 30.0391 116.547C29.763 117.469 29.4271 118.211 29.0312 118.773ZM42.6328 120.156C41.487 120.156 40.5547 119.781 39.8359 119.031C39.1172 118.276 38.7578 117.268 38.7578 116.008V115.742C38.7578 114.904 38.9167 114.156 39.2344 113.5C39.5573 112.839 40.0052 112.323 40.5781 111.953C41.1562 111.578 41.7812 111.391 42.4531 111.391C43.5521 111.391 44.4062 111.753 45.0156 112.477C45.625 113.201 45.9297 114.237 45.9297 115.586V116.188H40.2031C40.224 117.021 40.4661 117.695 40.9297 118.211C41.3984 118.721 41.9922 118.977 42.7109 118.977C43.2214 118.977 43.6536 118.872 44.0078 118.664C44.362 118.456 44.6719 118.18 44.9375 117.836L45.8203 118.523C45.112 119.612 44.0495 120.156 42.6328 120.156ZM42.4531 112.578C41.8698 112.578 41.3802 112.792 40.9844 113.219C40.5885 113.641 40.3438 114.234 40.25 115H44.4844V114.891C44.4427 114.156 44.2448 113.589 43.8906 113.188C43.5365 112.781 43.0573 112.578 42.4531 112.578ZM54.75 115.867C54.75 117.154 54.4557 118.19 53.8672 118.977C53.2786 119.763 52.4818 120.156 51.4766 120.156C50.4505 120.156 49.6432 119.831 49.0547 119.18V123.25H47.6094V111.547H48.9297L49 112.484C49.5885 111.755 50.4062 111.391 51.4531 111.391C52.4688 111.391 53.2708 111.773 53.8594 112.539C54.4531 113.305 54.75 114.37 54.75 115.734V115.867ZM53.3047 115.703C53.3047 114.75 53.1016 113.997 52.6953 113.445C52.2891 112.893 51.7318 112.617 51.0234 112.617C50.1484 112.617 49.4922 113.005 49.0547 113.781V117.82C49.487 118.591 50.1484 118.977 51.0391 118.977C51.7318 118.977 52.2812 118.703 52.6875 118.156C53.099 117.604 53.3047 116.786 53.3047 115.703ZM61.8125 120C61.7292 119.833 61.6615 119.536 61.6094 119.109C60.9375 119.807 60.1354 120.156 59.2031 120.156C58.3698 120.156 57.6849 119.922 57.1484 119.453C56.6172 118.979 56.3516 118.38 56.3516 117.656C56.3516 116.776 56.6849 116.094 57.3516 115.609C58.0234 115.12 58.9661 114.875 60.1797 114.875H61.5859V114.211C61.5859 113.706 61.4349 113.305 61.1328 113.008C60.8307 112.706 60.3854 112.555 59.7969 112.555C59.2812 112.555 58.849 112.685 58.5 112.945C58.151 113.206 57.9766 113.521 57.9766 113.891H56.5234C56.5234 113.469 56.6719 113.062 56.9688 112.672C57.2708 112.276 57.6771 111.964 58.1875 111.734C58.7031 111.505 59.2682 111.391 59.8828 111.391C60.8568 111.391 61.6198 111.635 62.1719 112.125C62.724 112.609 63.0104 113.279 63.0312 114.133V118.023C63.0312 118.799 63.1302 119.417 63.3281 119.875V120H61.8125ZM59.4141 118.898C59.8672 118.898 60.2969 118.781 60.7031 118.547C61.1094 118.312 61.4036 118.008 61.5859 117.633V115.898H60.4531C58.6823 115.898 57.7969 116.417 57.7969 117.453C57.7969 117.906 57.9479 118.26 58.25 118.516C58.5521 118.771 58.9401 118.898 59.4141 118.898ZM71.4531 112.719H68.6172V120H67.1719V112.719H64.3906V111.547H71.4531V112.719ZM78.3281 111.547H79.7734V120H78.3281V113.836L74.4297 120H72.9844V111.547H74.4297V117.719L78.3281 111.547ZM86.7422 113.859C86.7422 113.464 86.5911 113.151 86.2891 112.922C85.987 112.688 85.5729 112.57 85.0469 112.57C84.5365 112.57 84.1094 112.703 83.7656 112.969C83.4271 113.234 83.2578 113.547 83.2578 113.906H81.8203C81.8203 113.172 82.1276 112.57 82.7422 112.102C83.3568 111.633 84.125 111.398 85.0469 111.398C86.0365 111.398 86.8073 111.612 87.3594 112.039C87.9115 112.461 88.1875 113.065 88.1875 113.852C88.1875 114.232 88.0729 114.581 87.8438 114.898C87.6146 115.216 87.2891 115.469 86.8672 115.656C87.8516 115.99 88.3438 116.646 88.3438 117.625C88.3438 118.401 88.0443 119.016 87.4453 119.469C86.8464 119.922 86.0469 120.148 85.0469 120.148C84.0729 120.148 83.2682 119.911 82.6328 119.438C82.0026 118.958 81.6875 118.312 81.6875 117.5H83.125C83.125 117.911 83.3073 118.266 83.6719 118.562C84.0417 118.854 84.5 119 85.0469 119C85.599 119 86.0443 118.872 86.3828 118.617C86.7214 118.362 86.8906 118.031 86.8906 117.625C86.8906 117.151 86.7474 116.812 86.4609 116.609C86.1797 116.401 85.7396 116.297 85.1406 116.297H83.6953V115.078H85.2656C86.25 115.052 86.7422 114.646 86.7422 113.859ZM95.4375 120C95.3542 119.833 95.2865 119.536 95.2344 119.109C94.5625 119.807 93.7604 120.156 92.8281 120.156C91.9948 120.156 91.3099 119.922 90.7734 119.453C90.2422 118.979 89.9766 118.38 89.9766 117.656C89.9766 116.776 90.3099 116.094 90.9766 115.609C91.6484 115.12 92.5911 114.875 93.8047 114.875H95.2109V114.211C95.2109 113.706 95.0599 113.305 94.7578 113.008C94.4557 112.706 94.0104 112.555 93.4219 112.555C92.9062 112.555 92.474 112.685 92.125 112.945C91.776 113.206 91.6016 113.521 91.6016 113.891H90.1484C90.1484 113.469 90.2969 113.062 90.5938 112.672C90.8958 112.276 91.3021 111.964 91.8125 111.734C92.3281 111.505 92.8932 111.391 93.5078 111.391C94.4818 111.391 95.2448 111.635 95.7969 112.125C96.349 112.609 96.6354 113.279 96.6562 114.133V118.023C96.6562 118.799 96.7552 119.417 96.9531 119.875V120H95.4375ZM93.0391 118.898C93.4922 118.898 93.9219 118.781 94.3281 118.547C94.7344 118.312 95.0286 118.008 95.2109 117.633V115.898H94.0781C92.3073 115.898 91.4219 116.417 91.4219 117.453C91.4219 117.906 91.5729 118.26 91.875 118.516C92.1771 118.771 92.5651 118.898 93.0391 118.898ZM99.0469 111.547H100.5V118.82H104.391V111.547H105.836V118.82H106.844L106.703 122.508H105.406V120H99.0469V111.547ZM113.875 111.547H115.32V120H113.875V113.836L109.977 120H108.531V111.547H109.977V117.719L113.875 111.547ZM124.102 111.547V120H122.648V116.711H120.469L118.477 120H116.914L119.039 116.492C118.497 116.294 118.081 115.99 117.789 115.578C117.503 115.161 117.359 114.677 117.359 114.125C117.359 113.354 117.648 112.734 118.227 112.266C118.805 111.792 119.578 111.552 120.547 111.547H124.102ZM118.812 114.141C118.812 114.552 118.953 114.885 119.234 115.141C119.516 115.391 119.888 115.518 120.352 115.523H122.648V112.719H120.57C120.034 112.719 119.607 112.852 119.289 113.117C118.971 113.378 118.812 113.719 118.812 114.141Z" fill="#190B25"></path> <path d="M26.14 170.76V176.64H28.492V173H44.032V176.64H46.384V170.76H43.864V153.4H30.704L30.648 157.46C30.564 163.508 29.612 168.044 28.492 170.76H26.14ZM32.888 157.544L32.916 155.64H41.344V170.76H30.872C32.02 167.624 32.776 162.752 32.888 157.544ZM48.258 165.944C48.258 170.844 50.778 173.252 55.202 173.28C59.15 173.28 62.118 170.9 62.118 166.056C62.118 161.184 59.57 158.748 55.174 158.72C51.226 158.72 48.258 161.1 48.258 165.944ZM50.61 165.944C50.61 162.5 52.234 160.736 55.174 160.736C58.114 160.764 59.766 162.416 59.766 165.972V166.056C59.766 169.5 58.142 171.264 55.202 171.264C52.234 171.264 50.61 169.612 50.61 166.028V165.944ZM77.2969 151.412C76.1489 152 72.7889 152.168 71.3329 152.364C66.4609 153.036 64.6409 156.256 64.6409 163.984C64.6409 170.452 66.9089 173.28 71.6969 173.28C76.1209 173.28 78.5849 170.76 78.5849 165.804C78.5849 160.736 76.0089 159 72.3409 159C69.9609 159 67.9449 160.036 66.6569 162.024C67.0489 157.516 68.0009 154.912 73.0969 154.52C75.3929 154.352 76.7369 154.24 77.2969 153.932V151.412ZM67.0489 165.636C67.0489 162.752 68.8689 161.128 71.7249 161.128C74.4409 161.128 76.1209 162.5 76.1209 166.084C76.1209 169.696 74.1889 171.068 71.5849 171.068C68.5889 171.068 67.0489 168.94 67.0489 165.636ZM81.9978 178.04H84.3218V170.844C85.1058 172.16 86.7578 173.308 89.1098 173.308C93.1138 173.308 95.4938 171.208 95.4938 165.692C95.4938 160.792 93.1138 158.72 89.3898 158.72C86.5618 158.72 84.9098 160.064 84.2098 161.688V159H81.9978V178.04ZM84.3218 165.244C84.3778 162.444 85.8618 160.82 88.7738 160.82C91.4058 160.82 93.1418 162.08 93.1418 165.832C93.1418 169.724 91.8258 171.208 88.7458 171.208C86.1138 171.208 84.3218 169.5 84.3218 166.588V165.244ZM98.8963 173H103.684C108.108 173 109.844 171.684 109.844 168.044C109.816 164.404 107.828 163.508 104.048 163.508H101.22V159H98.8963V173ZM111.776 173H114.1V159H111.776V173ZM107.52 168.044C107.52 170.368 106.344 170.928 103.656 170.928H101.22V165.58H103.796C106.596 165.58 107.464 165.972 107.52 168.044ZM120.656 173L120.908 172.664L128.524 162.5V173H130.848V159H128.804L120.908 169.416V159H118.584V173H120.656ZM126.872 152.028C126.872 153.764 126.004 154.184 124.772 154.184C123.232 154.184 122.504 153.4 122.504 152.028H120.264C120.264 154.828 122.308 156.004 124.828 156.004C126.984 156.004 129.084 154.828 129.084 152.028H126.872ZM140.772 170.788V176.64H142.984V173H153.932V176.64H156.144V170.788H153.876V159H144.02V160.596C144.02 165.86 143.404 168.716 142.452 170.788H140.772ZM146.204 162.22L146.232 161.072H151.552V170.788H144.748C145.756 168.408 146.12 165.804 146.204 162.22ZM164.905 158.72C160.957 158.72 157.989 161.1 157.989 165.944C157.989 170.844 160.537 173.28 164.961 173.28C167.705 173.28 169.413 172.44 170.113 171.572V168.856C169.357 170.2 167.649 171.264 164.961 171.264C162.217 171.264 160.593 169.864 160.369 166.84H171.093V165.328C171.093 161.184 168.769 158.72 164.905 158.72ZM164.905 160.736C167.117 160.736 168.769 162.136 168.769 164.824V164.852H160.397C160.705 162.136 162.273 160.736 164.905 160.736ZM184.218 173H186.542V159H184.218V164.852H176.826V159H174.502V173H176.826V166.952H184.218V173ZM202.357 168.072C202.357 164.404 200.369 163.508 196.561 163.508H193.341V159H191.017V173H196.197C200.593 173 202.329 171.684 202.357 168.072ZM200.033 168.044C200.033 170.368 198.857 170.928 196.169 170.928H193.341V165.58H196.309C199.109 165.58 199.977 165.972 200.033 168.044ZM204.524 175.94L205.896 177.592C207.604 177.256 209.956 175.436 209.956 172.44C209.956 171.348 209.732 170.48 209.144 170.032C208.864 169.808 208.444 169.668 207.884 169.668C206.484 169.668 206.064 170.48 206.064 171.488C206.064 172.468 206.484 173.28 207.884 173.28H207.94C207.8 174.484 206.568 175.716 204.524 175.94ZM231.572 173H233.896V159H222.08V173H224.404V161.072H231.572V173ZM238.377 178.04H240.701V170.844C241.485 172.16 243.137 173.308 245.489 173.308C249.493 173.308 251.873 171.208 251.873 165.692C251.873 160.792 249.493 158.72 245.769 158.72C242.941 158.72 241.289 160.064 240.589 161.688V159H238.377V178.04ZM240.701 165.244C240.757 162.444 242.241 160.82 245.153 160.82C247.785 160.82 249.521 162.08 249.521 165.832C249.521 169.724 248.205 171.208 245.125 171.208C242.493 171.208 240.701 169.5 240.701 166.588V165.244ZM254.211 165.944C254.211 170.844 256.731 173.252 261.155 173.28C265.103 173.28 268.071 170.9 268.071 166.056C268.071 161.184 265.523 158.748 261.127 158.72C257.179 158.72 254.211 161.1 254.211 165.944ZM256.563 165.944C256.563 162.5 258.187 160.736 261.127 160.736C264.067 160.764 265.719 162.416 265.719 165.972V166.056C265.719 169.5 264.095 171.264 261.155 171.264C258.187 171.264 256.563 169.612 256.563 166.028V165.944ZM271.49 173H289.326V159H287.002V170.788H281.57V159H279.246V170.788H273.814V159H271.49V173ZM298.003 173.056C297.275 175.66 296.351 176.024 295.483 176.024C294.727 176.024 293.943 175.632 293.523 175.212V177.62C293.943 177.984 294.867 178.236 295.763 178.236C297.387 178.236 298.647 177.452 299.739 174.484L305.479 159H302.987L299.207 169.92L294.671 159H291.983L298.003 173.056ZM37.732 211H40.056V197H28.24V211H30.564V199.072H37.732V211ZM44.5369 216.04H46.8609V208.844C47.6449 210.16 49.2969 211.308 51.6489 211.308C55.6529 211.308 58.0329 209.208 58.0329 203.692C58.0329 198.792 55.6529 196.72 51.9289 196.72C49.1009 196.72 47.4489 198.064 46.7489 199.688V197H44.5369V216.04ZM46.8609 203.244C46.9169 200.444 48.4009 198.82 51.3129 198.82C53.9449 198.82 55.6809 200.08 55.6809 203.832C55.6809 207.724 54.3649 209.208 51.2849 209.208C48.6529 209.208 46.8609 207.5 46.8609 204.588V203.244ZM60.3713 203.944C60.3713 208.844 62.8913 211.252 67.3153 211.28C71.2633 211.28 74.2313 208.9 74.2313 204.056C74.2313 199.184 71.6833 196.748 67.2873 196.72C63.3393 196.72 60.3713 199.1 60.3713 203.944ZM62.7233 203.944C62.7233 200.5 64.3473 198.736 67.2873 198.736C70.2273 198.764 71.8793 200.416 71.8793 203.972V204.056C71.8793 207.5 70.2553 209.264 67.3153 209.264C64.3473 209.264 62.7233 207.612 62.7233 204.028V203.944ZM79.7222 211L79.9742 210.664L87.5902 200.5V211H89.9142V197H87.8702L79.9742 207.416V197H77.6502V211H79.7222ZM93.5445 209.572C94.2725 210.44 96.0645 211.28 98.6685 211.28C101.777 211.28 104.325 209.908 104.325 206.744C104.325 204.896 103.317 203.916 101.469 203.552C102.841 202.908 103.625 202.124 103.625 200.36C103.625 198.148 102.421 196.72 98.8645 196.72H98.8085C96.6525 196.72 94.7485 197.364 93.6845 198.064V201.368C94.7765 199.8 96.6245 198.736 98.8085 198.736C100.601 198.792 101.273 199.464 101.273 200.78C101.273 202.348 100.013 203.02 98.2485 203.02H96.5685V204.868H98.6685C100.853 204.868 102.001 205.4 102.001 206.884C102.001 208.452 100.601 209.236 98.6685 209.264C96.1205 209.264 94.3285 208.2 93.5445 206.856V209.572ZM107.838 211H113.97C117.778 211 119.542 209.628 119.542 206.856C119.542 204.392 118.226 203.664 116.434 203.44C117.946 203.076 118.842 201.928 118.842 200.164C118.842 198.148 117.638 197 114.082 197H107.838V211ZM110.162 208.984V204.756H114.362C116.126 204.756 117.218 205.204 117.218 206.884C117.218 208.284 116.238 208.984 113.942 208.984H110.162ZM110.162 202.768V199.044L113.802 199.016C115.566 199.016 116.49 199.324 116.49 200.696C116.49 202.236 115.342 202.768 113.606 202.768H110.162ZM128.893 196.72C124.945 196.72 121.977 199.1 121.977 203.944C121.977 208.844 124.525 211.28 128.949 211.28C131.693 211.28 133.401 210.44 134.101 209.572V206.856C133.345 208.2 131.637 209.264 128.949 209.264C126.205 209.264 124.581 207.864 124.357 204.84H135.081V203.328C135.081 199.184 132.757 196.72 128.893 196.72ZM128.893 198.736C131.105 198.736 132.757 200.136 132.757 202.824V202.852H124.385C124.693 200.136 126.261 198.736 128.893 198.736ZM148.962 209.572V206.856C148.262 208.2 146.722 209.264 144.398 209.264C141.43 209.264 139.778 207.612 139.778 204.028V203.944C139.778 200.5 141.402 198.736 144.342 198.736C146.246 198.736 147.87 199.8 148.822 201.368V198.064C147.898 197.364 146.218 196.72 144.342 196.72C140.394 196.72 137.426 199.1 137.426 203.944C137.426 208.844 139.974 211.28 144.398 211.28C146.778 211.28 148.318 210.44 148.962 209.572ZM156.009 211H158.333V199.072H162.981V197H151.333V199.072H156.009V211ZM167.988 211L168.24 210.664L175.856 200.5V211H178.18V197H176.136L168.24 207.416V197H165.916V211H167.988ZM188.104 208.788V214.64H190.316V211H201.264V214.64H203.476V208.788H201.208V197H191.352V198.596C191.352 203.86 190.736 206.716 189.784 208.788H188.104ZM193.536 200.22L193.564 199.072H198.884V208.788H192.08C193.088 206.408 193.452 203.804 193.536 200.22ZM212.237 196.72C208.289 196.72 205.321 199.1 205.321 203.944C205.321 208.844 207.869 211.28 212.293 211.28C215.037 211.28 216.745 210.44 217.445 209.572V206.856C216.689 208.2 214.981 209.264 212.293 209.264C209.549 209.264 207.925 207.864 207.701 204.84H218.425V203.328C218.425 199.184 216.101 196.72 212.237 196.72ZM212.237 198.736C214.449 198.736 216.101 200.136 216.101 202.824V202.852H207.729C208.037 200.136 209.605 198.736 212.237 198.736ZM221.834 216.04H224.158V208.844C224.942 210.16 226.594 211.308 228.946 211.308C232.95 211.308 235.33 209.208 235.33 203.692C235.33 198.792 232.95 196.72 229.226 196.72C226.398 196.72 224.746 198.064 224.046 199.688V197H221.834V216.04ZM224.158 203.244C224.214 200.444 225.698 198.82 228.61 198.82C231.242 198.82 232.978 200.08 232.978 203.832C232.978 207.724 231.662 209.208 228.582 209.208C225.95 209.208 224.158 207.5 224.158 204.588V203.244ZM238.956 201.368C239.908 199.8 241.532 198.736 243.716 198.736C245.732 198.736 247.132 199.408 247.132 201.788V202.908H243.8C240.076 202.908 237.892 203.804 237.892 206.884C237.892 209.74 239.74 211.224 242.512 211.224C244.724 211.224 246.516 210.16 247.244 208.62V211H249.456V201.76C249.456 197.924 247.3 196.72 243.716 196.72C241.56 196.72 239.88 197.364 238.956 198.064V201.368ZM243.1 209.068C241.224 209.068 240.272 208.116 240.272 206.744C240.272 205.148 241.364 204.756 243.884 204.756H247.132V206.268C246.992 207.22 245.956 209.068 243.1 209.068ZM256.853 211H259.177V199.072H263.825V197H252.177V199.072H256.853V211ZM268.832 211L269.084 210.664L276.7 200.5V211H279.024V197H276.98L269.084 207.416V197H266.76V211H268.832ZM282.654 209.572C283.382 210.44 285.174 211.28 287.778 211.28C290.886 211.28 293.434 209.908 293.434 206.744C293.434 204.896 292.426 203.916 290.578 203.552C291.95 202.908 292.734 202.124 292.734 200.36C292.734 198.148 291.53 196.72 287.974 196.72H287.918C285.762 196.72 283.858 197.364 282.794 198.064V201.368C283.886 199.8 285.734 198.736 287.918 198.736C289.71 198.792 290.382 199.464 290.382 200.78C290.382 202.348 289.122 203.02 287.358 203.02H285.678V204.868H287.778C289.962 204.868 291.11 205.4 291.11 206.884C291.11 208.452 289.71 209.236 287.778 209.264C285.23 209.264 283.438 208.2 282.654 206.856V209.572ZM297.171 201.368C298.123 199.8 299.747 198.736 301.931 198.736C303.947 198.736 305.347 199.408 305.347 201.788V202.908H302.015C298.291 202.908 296.107 203.804 296.107 206.884C296.107 209.74 297.955 211.224 300.727 211.224C302.939 211.224 304.731 210.16 305.459 208.62V211H307.671V201.76C307.671 197.924 305.515 196.72 301.931 196.72C299.775 196.72 298.095 197.364 297.171 198.064V201.368ZM301.315 209.068C299.439 209.068 298.487 208.116 298.487 206.744C298.487 205.148 299.579 204.756 302.099 204.756H305.347V206.268C305.207 207.22 304.171 209.068 301.315 209.068ZM311.931 211H323.663V214.64H325.875V208.788H323.663V197H321.339V208.788H314.255V197H311.931V211ZM330.847 211L331.099 210.664L338.715 200.5V211H341.039V197H338.995L331.099 207.416V197H328.775V211H330.847ZM345.51 211H347.834V204.952H350.69C350.998 209.236 353.406 211.336 357.382 211.336C361.302 211.308 364.27 208.956 364.27 204.112C364.27 199.212 361.722 196.776 357.298 196.776C353.798 196.804 351.138 198.792 350.718 202.852H347.834V197H345.51V211ZM352.93 204.084V204C352.93 200.556 354.498 198.792 357.326 198.792C360.266 198.82 361.918 200.472 361.918 204.028V204.112C361.918 207.556 360.294 209.32 357.354 209.32C354.498 209.32 352.93 207.668 352.93 204.084ZM37.732 249H40.056V235H28.24V249H30.564V237.072H37.732V249ZM44.5369 254.04H46.8609V246.844C47.6449 248.16 49.2969 249.308 51.6489 249.308C55.6529 249.308 58.0329 247.208 58.0329 241.692C58.0329 236.792 55.6529 234.72 51.9289 234.72C49.1009 234.72 47.4489 236.064 46.7489 237.688V235H44.5369V254.04ZM46.8609 241.244C46.9169 238.444 48.4009 236.82 51.3129 236.82C53.9449 236.82 55.6809 238.08 55.6809 241.832C55.6809 245.724 54.3649 247.208 51.2849 247.208C48.6529 247.208 46.8609 245.5 46.8609 242.588V241.244ZM63.5073 249L63.7593 248.664L71.3753 238.5V249H73.6993V235H71.6553L63.7593 245.416V235H61.4353V249H63.5073ZM87.2977 249H89.6217V235H79.7657L79.7097 236.932C79.4297 246.228 78.3377 246.62 76.9097 246.62C76.7137 246.62 76.4617 246.592 76.2097 246.536V249.028C76.4897 249.112 76.8817 249.168 77.3297 249.168C79.3737 249.168 81.4737 248.58 81.8377 238.136L81.8657 237.072H87.2977V249ZM99.9631 234.72C96.0151 234.72 93.0471 237.1 93.0471 241.944C93.0471 246.844 95.5951 249.28 100.019 249.28C102.763 249.28 104.471 248.44 105.171 247.572V244.856C104.415 246.2 102.707 247.264 100.019 247.264C97.2751 247.264 95.6511 245.864 95.4271 242.84H106.151V241.328C106.151 237.184 103.827 234.72 99.9631 234.72ZM99.9631 236.736C102.175 236.736 103.827 238.136 103.827 240.824V240.852H95.4551C95.7631 238.136 97.3311 236.736 99.9631 236.736ZM109.56 249H111.884V237.072H118.912V235H109.56V249ZM123.046 239.368C123.998 237.8 125.622 236.736 127.806 236.736C129.822 236.736 131.222 237.408 131.222 239.788V240.908H127.89C124.166 240.908 121.982 241.804 121.982 244.884C121.982 247.74 123.83 249.224 126.602 249.224C128.814 249.224 130.606 248.16 131.334 246.62V249H133.546V239.76C133.546 235.924 131.39 234.72 127.806 234.72C125.65 234.72 123.97 235.364 123.046 236.064V239.368ZM127.19 247.068C125.314 247.068 124.362 246.116 124.362 244.744C124.362 243.148 125.454 242.756 127.974 242.756H131.222V244.268C131.082 245.22 130.046 247.068 127.19 247.068ZM137.806 249H140.13V242.952H142.986C143.294 247.236 145.702 249.336 149.678 249.336C153.598 249.308 156.566 246.956 156.566 242.112C156.566 237.212 154.018 234.776 149.594 234.776C146.094 234.804 143.434 236.792 143.014 240.852H140.13V235H137.806V249ZM145.226 242.084V242C145.226 238.556 146.794 236.792 149.622 236.792C152.562 236.82 154.214 238.472 154.214 242.028V242.112C154.214 245.556 152.59 247.32 149.65 247.32C146.794 247.32 145.226 245.668 145.226 242.084ZM159.982 249H177.762V252.64H179.974V246.788H177.818V235H175.494V246.788H170.062V235H167.738V246.788H162.306V235H159.982V249ZM188.748 234.72C184.8 234.72 181.832 237.1 181.832 241.944C181.832 246.844 184.38 249.28 188.804 249.28C191.548 249.28 193.256 248.44 193.956 247.572V244.856C193.2 246.2 191.492 247.264 188.804 247.264C186.06 247.264 184.436 245.864 184.212 242.84H194.936V241.328C194.936 237.184 192.612 234.72 188.748 234.72ZM188.748 236.736C190.96 236.736 192.612 238.136 192.612 240.824V240.852H184.24C184.548 238.136 186.116 236.736 188.748 236.736ZM200.417 249L200.669 248.664L208.285 238.5V249H210.609V235H208.565L200.669 245.416V235H198.345V249H200.417ZM206.633 228.028C206.633 229.764 205.765 230.184 204.533 230.184C202.993 230.184 202.265 229.4 202.265 228.028H200.025C200.025 230.828 202.069 232.004 204.589 232.004C206.745 232.004 208.845 230.828 208.845 228.028H206.633ZM222.353 249H224.677V242.84H227.197L232.237 249H235.177L229.129 241.608L234.253 235H231.593L227.197 240.852H224.677V235H222.353V249ZM254.956 249H257.28V235H254.956V240.852H247.564V235H245.24V249H247.564V242.952H254.956V249ZM261.98 239.368C262.932 237.8 264.556 236.736 266.74 236.736C268.756 236.736 270.156 237.408 270.156 239.788V240.908H266.824C263.1 240.908 260.916 241.804 260.916 244.884C260.916 247.74 262.764 249.224 265.536 249.224C267.748 249.224 269.54 248.16 270.268 246.62V249H272.48V239.76C272.48 235.924 270.324 234.72 266.74 234.72C264.584 234.72 262.904 235.364 261.98 236.064V239.368ZM266.124 247.068C264.248 247.068 263.296 246.116 263.296 244.744C263.296 243.148 264.388 242.756 266.908 242.756H270.156V244.268C270.016 245.22 268.98 247.068 266.124 247.068ZM276.74 249H294.576V235H292.252V246.788H286.82V235H284.496V246.788H279.064V235H276.74V249ZM304.905 234.72C300.957 234.72 297.989 237.1 297.989 241.944C297.989 246.844 300.537 249.28 304.961 249.28C307.705 249.28 309.413 248.44 310.113 247.572V244.856C309.357 246.2 307.649 247.264 304.961 247.264C302.217 247.264 300.593 245.864 300.369 242.84H311.093V241.328C311.093 237.184 308.769 234.72 304.905 234.72ZM304.905 236.736C307.117 236.736 308.769 238.136 308.769 240.824V240.852H300.397C300.705 238.136 302.273 236.736 304.905 236.736ZM327.41 249H329.734V235H327.354L322.23 242.42L317.022 235H314.502V249H316.826V238.416L321.614 245.416H322.65L327.41 238.416V249ZM338.417 249.056C337.689 251.66 336.765 252.024 335.897 252.024C335.141 252.024 334.357 251.632 333.937 251.212V253.62C334.357 253.984 335.281 254.236 336.177 254.236C337.801 254.236 339.061 253.452 340.153 250.484L345.893 235H343.401L339.621 245.92L335.085 235H332.397L338.417 249.056ZM26.42 284.788V290.64H28.632V287H39.58V290.64H41.792V284.788H39.524V273H29.668V274.596C29.668 279.86 29.052 282.716 28.1 284.788H26.42ZM31.852 276.22L31.88 275.072H37.2V284.788H30.396C31.404 282.408 31.768 279.804 31.852 276.22ZM43.6369 279.944C43.6369 284.844 46.1569 287.252 50.5809 287.28C54.5289 287.28 57.4969 284.9 57.4969 280.056C57.4969 275.184 54.9489 272.748 50.5529 272.72C46.6049 272.72 43.6369 275.1 43.6369 279.944ZM45.9889 279.944C45.9889 276.5 47.6129 274.736 50.5529 274.736C53.4929 274.764 55.1449 276.416 55.1449 279.972V280.056C55.1449 283.5 53.5209 285.264 50.5809 285.264C47.6129 285.264 45.9889 283.612 45.9889 280.028V279.944ZM73.8238 287H76.1478V273H73.7678L68.6438 280.42L63.4358 273H60.9158V287H63.2398V276.416L68.0278 283.416H69.0638L73.8238 276.416V287ZM84.8306 287.056C84.1026 289.66 83.1786 290.024 82.3106 290.024C81.5546 290.024 80.7706 289.632 80.3506 289.212V291.62C80.7706 291.984 81.6946 292.236 82.5906 292.236C84.2146 292.236 85.4746 291.452 86.5666 288.484L92.3066 273H89.8146L86.0346 283.92L81.4986 273H78.8106L84.8306 287.056ZM114.867 287H117.191V273H114.811L109.687 280.42L104.479 273H101.959V287H104.283V276.416L109.071 283.416H110.107L114.867 276.416V287ZM125.874 287.056C125.146 289.66 124.222 290.024 123.354 290.024C122.598 290.024 121.814 289.632 121.394 289.212V291.62C121.814 291.984 122.738 292.236 123.634 292.236C125.258 292.236 126.518 291.452 127.61 288.484L133.35 273H130.858L127.078 283.92L122.542 273H119.854L125.874 287.056ZM145.872 285.572V282.856C145.172 284.2 143.632 285.264 141.308 285.264C138.34 285.264 136.688 283.612 136.688 280.028V279.944C136.688 276.5 138.312 274.736 141.252 274.736C143.156 274.736 144.78 275.8 145.732 277.368V274.064C144.808 273.364 143.128 272.72 141.252 272.72C137.304 272.72 134.336 275.1 134.336 279.944C134.336 284.844 136.884 287.28 141.308 287.28C143.688 287.28 145.228 286.44 145.872 285.572ZM147.899 279.944C147.899 284.844 150.419 287.252 154.843 287.28C158.791 287.28 161.759 284.9 161.759 280.056C161.759 275.184 159.211 272.748 154.815 272.72C150.867 272.72 147.899 275.1 147.899 279.944ZM150.251 279.944C150.251 276.5 151.875 274.736 154.815 274.736C157.755 274.764 159.407 276.416 159.407 279.972V280.056C159.407 283.5 157.783 285.264 154.843 285.264C151.875 285.264 150.251 283.612 150.251 280.028V279.944ZM165.178 292.04H167.502V284.844C168.286 286.16 169.938 287.308 172.29 287.308C176.294 287.308 178.674 285.208 178.674 279.692C178.674 274.792 176.294 272.72 172.57 272.72C169.742 272.72 168.09 274.064 167.39 275.688V273H165.178V292.04ZM167.502 279.244C167.558 276.444 169.042 274.82 171.954 274.82C174.586 274.82 176.322 276.08 176.322 279.832C176.322 283.724 175.006 285.208 171.926 285.208C169.294 285.208 167.502 283.5 167.502 280.588V279.244ZM191.792 287H194.116V273H191.792V278.852H184.4V273H182.076V287H184.4V280.952H191.792V287ZM197.528 279.944C197.528 284.844 200.048 287.252 204.472 287.28C208.42 287.28 211.388 284.9 211.388 280.056C211.388 275.184 208.84 272.748 204.444 272.72C200.496 272.72 197.528 275.1 197.528 279.944ZM199.88 279.944C199.88 276.5 201.504 274.736 204.444 274.736C207.384 274.764 209.036 276.416 209.036 279.972V280.056C209.036 283.5 207.412 285.264 204.472 285.264C201.504 285.264 199.88 283.612 199.88 280.028V279.944ZM216.878 287L217.13 286.664L224.746 276.5V287H227.07V273H225.026L217.13 283.416V273H214.806V287H216.878ZM223.094 266.028C223.094 267.764 222.226 268.184 220.994 268.184C219.454 268.184 218.726 267.4 218.726 266.028H216.486C216.486 268.828 218.53 270.004 221.05 270.004C223.206 270.004 225.306 268.828 225.306 266.028H223.094ZM37.732 325H40.056V311H28.24V325H30.564V313.072H37.732V325ZM53.6649 325H55.9889V311H46.1329L46.0769 312.932C45.7969 322.228 44.7049 322.62 43.2769 322.62C43.0809 322.62 42.8289 322.592 42.5769 322.536V325.028C42.8569 325.112 43.2489 325.168 43.6969 325.168C45.7409 325.168 47.8409 324.58 48.2049 314.136L48.2329 313.072H53.6649V325ZM59.4143 317.944C59.4143 322.844 61.9343 325.252 66.3583 325.28C70.3063 325.28 73.2743 322.9 73.2743 318.056C73.2743 313.184 70.7263 310.748 66.3303 310.72C62.3823 310.72 59.4143 313.1 59.4143 317.944ZM61.7663 317.944C61.7663 314.5 63.3903 312.736 66.3303 312.736C69.2703 312.764 70.9223 314.416 70.9223 317.972V318.056C70.9223 321.5 69.2983 323.264 66.3583 323.264C63.3903 323.264 61.7663 321.612 61.7663 318.028V317.944ZM76.6931 325H94.4731V328.64H96.6851V322.788H94.5291V311H92.2051V322.788H86.7731V311H84.4491V322.788H79.0171V311H76.6931V325ZM99.8312 315.368C100.783 313.8 102.407 312.736 104.591 312.736C106.607 312.736 108.007 313.408 108.007 315.788V316.908H104.675C100.951 316.908 98.7672 317.804 98.7672 320.884C98.7672 323.74 100.615 325.224 103.387 325.224C105.599 325.224 107.391 324.16 108.119 322.62V325H110.331V315.76C110.331 311.924 108.175 310.72 104.591 310.72C102.435 310.72 100.755 311.364 99.8312 312.064V315.368ZM103.975 323.068C102.099 323.068 101.147 322.116 101.147 320.744C101.147 319.148 102.239 318.756 104.759 318.756H108.007V320.268C107.867 321.22 106.831 323.068 103.975 323.068ZM112.772 322.788V328.64H114.984V325H125.932V328.64H128.144V322.788H125.876V311H116.02V312.596C116.02 317.86 115.404 320.716 114.452 322.788H112.772ZM118.204 314.22L118.232 313.072H123.552V322.788H116.748C117.756 320.408 118.12 317.804 118.204 314.22ZM131.053 325H133.377V318.84H135.897L140.937 325H143.877L137.829 317.608L142.952 311H140.293L135.897 316.852H133.377V311H131.053V325ZM148.738 325L148.99 324.664L156.606 314.5V325H158.93V311H156.886L148.99 321.416V311H146.666V325H148.738ZM162.196 327.94L163.568 329.592C165.276 329.256 167.628 327.436 167.628 324.44C167.628 323.348 167.404 322.48 166.816 322.032C166.536 321.808 166.116 321.668 165.556 321.668C164.156 321.668 163.736 322.48 163.736 323.488C163.736 324.468 164.156 325.28 165.556 325.28H165.612C165.472 326.484 164.24 327.716 162.196 327.94ZM182.888 325H185.212V313.072H189.86V311H178.212V313.072H182.888V325ZM192.227 323.488C192.227 324.468 192.647 325.28 194.047 325.28C195.475 325.28 195.895 324.468 195.895 323.488C195.895 322.48 195.475 321.668 194.047 321.668C192.647 321.668 192.227 322.48 192.227 323.488ZM200.642 325H202.966V318.84H205.486L210.526 325H213.466L207.418 317.608L212.542 311H209.882L205.486 316.852H202.966V311H200.642V325ZM223.529 325H225.853V318.84H228.373L233.413 325H236.353L230.305 317.608L235.429 311H232.769L228.373 316.852H225.853V311H223.529V325ZM239.142 330.04H241.466V322.844C242.25 324.16 243.902 325.308 246.254 325.308C250.258 325.308 252.638 323.208 252.638 317.692C252.638 312.792 250.258 310.72 246.534 310.72C243.706 310.72 242.054 312.064 241.354 313.688V311H239.142V330.04ZM241.466 317.244C241.522 314.444 243.006 312.82 245.918 312.82C248.55 312.82 250.286 314.08 250.286 317.832C250.286 321.724 248.97 323.208 245.89 323.208C243.258 323.208 241.466 321.5 241.466 318.588V317.244ZM256.041 325H260.829C265.253 325 266.989 323.684 266.989 320.044C266.961 316.404 264.973 315.508 261.193 315.508H258.365V311H256.041V325ZM268.921 325H271.245V311H268.921V325ZM264.665 320.044C264.665 322.368 263.489 322.928 260.801 322.928H258.365V317.58H260.941C263.741 317.58 264.609 317.972 264.665 320.044ZM286.2 323.572V320.856C285.5 322.2 283.96 323.264 281.636 323.264C278.668 323.264 277.016 321.612 277.016 318.028V317.944C277.016 314.5 278.64 312.736 281.58 312.736C283.484 312.736 285.108 313.8 286.06 315.368V312.064C285.136 311.364 283.456 310.72 281.58 310.72C277.632 310.72 274.664 313.1 274.664 317.944C274.664 322.844 277.212 325.28 281.636 325.28C284.016 325.28 285.556 324.44 286.2 323.572ZM289.701 325H294.489C298.913 325 300.649 323.684 300.649 320.044C300.621 316.404 298.633 315.508 294.853 315.508H292.025V311H289.701V325ZM302.581 325H304.905V311H302.581V325ZM298.325 320.044C298.325 322.368 297.149 322.928 294.461 322.928H292.025V317.58H294.601C297.401 317.58 298.269 317.972 298.325 320.044ZM326.378 325H328.702V311H326.378V316.852H318.986V311H316.662V325H318.986V318.952H326.378V325ZM339.03 310.72C335.082 310.72 332.114 313.1 332.114 317.944C332.114 322.844 334.662 325.28 339.086 325.28C341.83 325.28 343.538 324.44 344.238 323.572V320.856C343.482 322.2 341.774 323.264 339.086 323.264C336.342 323.264 334.718 321.864 334.494 318.84H345.218V317.328C345.218 313.184 342.894 310.72 339.03 310.72ZM339.03 312.736C341.242 312.736 342.894 314.136 342.894 316.824V316.852H334.522C334.83 314.136 336.398 312.736 339.03 312.736ZM41.148 363H43.472V349H41.092L35.968 356.42L30.76 349H28.24V363H30.564V352.416L35.352 359.416H36.388L41.148 352.416V363ZM48.1788 353.368C49.1308 351.8 50.7548 350.736 52.9388 350.736C54.9548 350.736 56.3548 351.408 56.3548 353.788V354.908H53.0228C49.2988 354.908 47.1148 355.804 47.1148 358.884C47.1148 361.74 48.9628 363.224 51.7348 363.224C53.9468 363.224 55.7388 362.16 56.4668 360.62V363H58.6788V353.76C58.6788 349.924 56.5228 348.72 52.9388 348.72C50.7828 348.72 49.1028 349.364 48.1788 350.064V353.368ZM52.3228 361.068C50.4468 361.068 49.4948 360.116 49.4948 358.744C49.4948 357.148 50.5868 356.756 53.1068 356.756H56.3548V358.268C56.2148 359.22 55.1788 361.068 52.3228 361.068ZM73.4112 361.572V358.856C72.7112 360.2 71.1712 361.264 68.8472 361.264C65.8792 361.264 64.2272 359.612 64.2272 356.028V355.944C64.2272 352.5 65.8512 350.736 68.7912 350.736C70.6952 350.736 72.3192 351.8 73.2712 353.368V350.064C72.3472 349.364 70.6672 348.72 68.7912 348.72C64.8432 348.72 61.8752 351.1 61.8752 355.944C61.8752 360.844 64.4232 363.28 68.8472 363.28C71.2272 363.28 72.7672 362.44 73.4112 361.572ZM86.9737 361.572V358.856C86.2737 360.2 84.7337 361.264 82.4097 361.264C79.4417 361.264 77.7897 359.612 77.7897 356.028V355.944C77.7897 352.5 79.4137 350.736 82.3537 350.736C84.2577 350.736 85.8817 351.8 86.8337 353.368V350.064C85.9097 349.364 84.2297 348.72 82.3537 348.72C78.4057 348.72 75.4377 351.1 75.4377 355.944C75.4377 360.844 77.9857 363.28 82.4097 363.28C84.7897 363.28 86.3297 362.44 86.9737 361.572ZM89.0002 355.944C89.0002 360.844 91.5202 363.252 95.9442 363.28C99.8922 363.28 102.86 360.9 102.86 356.056C102.86 351.184 100.312 348.748 95.9162 348.72C91.9682 348.72 89.0002 351.1 89.0002 355.944ZM91.3522 355.944C91.3522 352.5 92.9762 350.736 95.9162 350.736C98.8562 350.764 100.508 352.416 100.508 355.972V356.056C100.508 359.5 98.8842 361.264 95.9442 361.264C92.9762 361.264 91.3522 359.612 91.3522 356.028V355.944ZM106.279 363H112.411C116.219 363 117.983 361.628 117.983 358.856C117.983 356.392 116.667 355.664 114.875 355.44C116.387 355.076 117.283 353.928 117.283 352.164C117.283 350.148 116.079 349 112.523 349H106.279V363ZM108.603 360.984V356.756H112.803C114.567 356.756 115.659 357.204 115.659 358.884C115.659 360.284 114.679 360.984 112.383 360.984H108.603ZM108.603 354.768V351.044L112.243 351.016C114.007 351.016 114.931 351.324 114.931 352.696C114.931 354.236 113.783 354.768 112.047 354.768H108.603ZM120.418 355.944C120.418 360.844 122.938 363.252 127.362 363.28C131.31 363.28 134.278 360.9 134.278 356.056C134.278 351.184 131.73 348.748 127.334 348.72C123.386 348.72 120.418 351.1 120.418 355.944ZM122.77 355.944C122.77 352.5 124.394 350.736 127.334 350.736C130.274 350.764 131.926 352.416 131.926 355.972V356.056C131.926 359.5 130.302 361.264 127.362 361.264C124.394 361.264 122.77 359.612 122.77 356.028V355.944ZM137.697 363H140.021V351.072H147.049V349H137.697V363ZM149.621 355.944C149.621 360.844 152.141 363.252 156.565 363.28C160.513 363.28 163.481 360.9 163.481 356.056C163.481 351.184 160.933 348.748 156.537 348.72C152.589 348.72 149.621 351.1 149.621 355.944ZM151.973 355.944C151.973 352.5 153.597 350.736 156.537 350.736C159.477 350.764 161.129 352.416 161.129 355.972V356.056C161.129 359.5 159.505 361.264 156.565 361.264C153.597 361.264 151.973 359.612 151.973 356.028V355.944ZM178.374 363.056C177.646 365.66 176.722 366.024 175.854 366.024C175.098 366.024 174.314 365.632 173.894 365.212V367.62C174.314 367.984 175.238 368.236 176.134 368.236C177.758 368.236 179.018 367.452 180.11 364.484L185.85 349H183.358L179.578 359.92L175.042 349H172.354L178.374 363.056ZM197.15 363H199.474V349H197.15V355.86C196.198 356.28 194.91 356.532 193.678 356.532C191.382 356.532 190.262 355.496 190.262 353.508V349H187.938V353.76C187.938 357.12 189.954 358.632 193.51 358.632C194.742 358.632 196.17 358.38 197.15 357.848V363ZM204.175 353.368C205.127 351.8 206.751 350.736 208.935 350.736C210.951 350.736 212.351 351.408 212.351 353.788V354.908H209.019C205.295 354.908 203.111 355.804 203.111 358.884C203.111 361.74 204.959 363.224 207.731 363.224C209.943 363.224 211.735 362.16 212.463 360.62V363H214.675V353.76C214.675 349.924 212.519 348.72 208.935 348.72C206.779 348.72 205.099 349.364 204.175 350.064V353.368ZM208.319 361.068C206.443 361.068 205.491 360.116 205.491 358.744C205.491 357.148 206.583 356.756 209.103 356.756H212.351V358.268C212.211 359.22 211.175 361.068 208.319 361.068ZM229.407 361.572V358.856C228.707 360.2 227.167 361.264 224.843 361.264C221.875 361.264 220.223 359.612 220.223 356.028V355.944C220.223 352.5 221.847 350.736 224.787 350.736C226.691 350.736 228.315 351.8 229.267 353.368V350.064C228.343 349.364 226.663 348.72 224.787 348.72C220.839 348.72 217.871 351.1 217.871 355.944C217.871 360.844 220.419 363.28 224.843 363.28C227.223 363.28 228.763 362.44 229.407 361.572ZM236.454 363H238.778V351.072H243.426V349H231.778V351.072H236.454V363ZM248.433 363L248.685 362.664L256.301 352.5V363H258.625V349H256.581L248.685 359.416V349H246.361V363H248.433ZM271.691 363H274.015V349H268.779C264.355 349 262.619 350.316 262.619 353.928C262.619 355.944 263.739 357.204 265.559 357.708L261.555 363H264.243L268.051 357.96H271.691V363ZM268.807 351.072H271.691V356.14H267.967C265.839 356.14 264.971 355.244 264.943 353.928C264.943 351.632 266.119 351.072 268.807 351.072ZM278.77 361.488C278.77 362.468 279.19 363.28 280.59 363.28C282.018 363.28 282.438 362.468 282.438 361.488C282.438 360.48 282.018 359.668 280.59 359.668C279.19 359.668 278.77 360.48 278.77 361.488ZM287.478 361.488C287.478 362.468 287.898 363.28 289.298 363.28C290.726 363.28 291.146 362.468 291.146 361.488C291.146 360.48 290.726 359.668 289.298 359.668C287.898 359.668 287.478 360.48 287.478 361.488ZM296.186 361.488C296.186 362.468 296.606 363.28 298.006 363.28C299.434 363.28 299.854 362.468 299.854 361.488C299.854 360.48 299.434 359.668 298.006 359.668C296.606 359.668 296.186 360.48 296.186 361.488Z" fill="#848484"></path> </svg> 