<?xml version="1.0" encoding="UTF-8"?> <svg xmlns="http://www.w3.org/2000/svg" width="142" height="142" viewBox="0 0 142 142" fill="none"> <path d="M70.6494 0.0146179C109.585 0.0146179 141.149 31.5823 141.149 70.5229C141.149 109.464 109.585 141.031 70.6494 141.031C31.7133 141.031 0.149414 109.464 0.149414 70.5229C0.149414 31.5823 31.7133 0.0146179 70.6494 0.0146179Z" fill="white"></path> <path d="M43.2383 64.0405C42.7163 64.0405 42.1943 63.8425 41.8703 63.5365V65.8765C42.1943 66.0205 42.7523 66.1645 43.3283 66.1645C44.6063 66.1645 45.5603 65.5885 46.5863 63.3925L51.2123 53.4205H48.8543L45.5423 60.7285L41.4923 53.4205H38.8823L44.3903 63.2845C44.1023 63.8605 43.7063 64.0405 43.2383 64.0405ZM58.8316 65.1205V62.9605C58.3816 63.7525 57.3916 64.3825 55.8976 64.3825C54.2056 64.3825 53.1976 63.5185 53.1976 61.6645V61.3945C53.1976 59.5765 54.1336 58.6585 55.8616 58.6585C57.1756 58.6765 58.1296 59.3245 58.7416 60.2785V57.6505C58.1476 57.2005 57.0676 56.8405 55.8616 56.8225C52.9996 56.8405 51.0556 58.3885 51.0556 61.4845C51.0556 64.6345 52.9636 66.2185 55.8436 66.2185C57.3016 66.2185 58.4356 65.6245 58.8316 65.1205ZM66.7809 66.0205H68.8689V57.0205H61.9929L61.9209 58.9825C61.7949 63.6805 61.1649 63.9325 60.3909 63.9325C60.2469 63.9325 60.0849 63.9145 59.9229 63.8605V66.0385C60.1029 66.0925 60.4629 66.1285 60.8049 66.1285C62.2089 66.1285 63.5769 65.6245 63.8109 60.0085L63.8649 58.8745H66.7809V66.0205ZM74.143 66.0565C73.801 67.2805 73.315 67.7125 72.667 67.7125C72.271 67.7125 71.857 67.5325 71.587 67.2625V69.2245C71.857 69.4585 72.469 69.6205 73.027 69.6205C74.215 69.6205 75.025 69.1345 75.817 66.9745L79.417 57.0205H77.185L75.169 63.1945L72.703 57.0205H70.345L74.143 66.0565ZM80.7946 66.0205H82.9006V58.8745H87.2566V57.0205H80.7946V66.0205ZM89.3204 65.8945H89.5904V66.0205H91.3184L91.4084 65.8945L95.6384 59.8465V66.0205H97.7264V57.1645H97.4384V57.0205H95.7284L91.4084 63.1225V57.0205H89.3204V65.8945ZM37.2543 88.0205H39.3603V79.0205H31.2243V88.0205H33.3303V80.8745H37.2543V88.0205ZM45.9258 88.2185C48.7158 88.2005 50.6058 86.6705 50.6058 83.5565C50.6058 80.4245 48.7878 78.8405 45.9978 78.8225C43.1898 78.8225 41.2998 80.3705 41.2998 83.4845C41.2998 86.6345 43.1178 88.2185 45.9258 88.2185ZM43.4418 83.4845C43.4418 81.5945 44.3238 80.6765 45.9258 80.6585C47.5098 80.6585 48.4638 81.5225 48.4638 83.5025V83.5565C48.4638 85.4645 47.5638 86.3825 45.9618 86.3825C44.3778 86.3825 43.4418 85.5185 43.4418 83.5385V83.4845ZM51.3628 86.1125V90.3605H53.2708V88.0205H59.5888V90.3605H61.4968V86.1125H60.1288V79.0205H53.2168V80.0465C53.2168 83.0345 52.9108 84.8165 52.4068 86.1125H51.3628ZM55.1788 81.0905V80.8745H58.0228V86.1125H54.4408C54.9448 84.7085 55.1248 83.1605 55.1788 81.0905ZM67.8044 88.0205H69.9104V84.2945H71.3504L74.1764 88.0205H76.7324L73.0784 83.2685L76.2284 79.0205H73.8884L71.3684 82.5305H69.9104V79.0205H67.8044V88.0205ZM84.359 88.0205H86.447V79.0205H79.571L79.499 80.9825C79.373 85.6805 78.743 85.9325 77.969 85.9325C77.825 85.9325 77.663 85.9145 77.501 85.8605V88.0385C77.681 88.0925 78.041 88.1285 78.383 88.1285C79.787 88.1285 81.155 87.6245 81.389 82.0085L81.443 80.8745H84.359V88.0205ZM89.0212 88.0205H91.1272V84.3845H92.4772C92.7832 86.9585 94.4392 88.2545 96.8872 88.2545C99.6952 88.2365 101.585 86.7065 101.585 83.5925C101.585 80.4425 99.7492 78.8585 96.9592 78.8585C94.5652 78.8585 92.8552 80.0825 92.4952 82.5305H91.1272V79.0205H89.0212V88.0205ZM96.9412 86.4185C95.4292 86.4185 94.5112 85.5545 94.5112 83.5745V83.5205C94.5112 81.6125 95.3752 80.6945 96.9232 80.6945C98.4892 80.7125 99.4252 81.5765 99.4252 83.5385V83.5925C99.4252 85.5005 98.5432 86.4185 96.9412 86.4185ZM108.977 88.0205H111.083V79.0205H108.977V83.0885C108.437 83.3585 107.753 83.5025 107.033 83.5025C105.917 83.5025 105.305 82.9985 105.305 81.9185V79.0205H103.199V82.2425C103.199 84.4025 104.495 85.3745 106.655 85.3745C107.483 85.3745 108.347 85.2125 108.977 84.8525V88.0205Z" fill="url(#paint0_linear)"></path> <defs> <linearGradient id="paint0_linear" x1="21.1494" y1="99.4112" x2="53.9271" y2="6.49617" gradientUnits="userSpaceOnUse"> <stop stop-color="#515DAD"></stop> <stop offset="0.133039" stop-color="#536CBB"></stop> <stop offset="0.432377" stop-color="#568DDC"></stop> <stop offset="0.555249" stop-color="#5AB0FF"></stop> <stop offset="0.720383" stop-color="#60C5EB"></stop> <stop offset="0.805609" stop-color="#68DFD1"></stop> <stop offset="1" stop-color="#6BEAC7"></stop> </linearGradient> </defs> </svg> 