<?xml version="1.0" encoding="UTF-8"?> <svg xmlns="http://www.w3.org/2000/svg" width="101" height="102" viewBox="0 0 101 102" fill="none"> <path d="M50.6753 101.012C23.0446 101.012 0.645461 78.6106 0.645459 50.9766C0.645456 23.3427 23.0446 0.940925 50.6753 0.940922C78.306 0.94092 100.705 23.3427 100.705 50.9766C100.705 78.6106 78.306 101.012 50.6753 101.012Z" fill="white"></path> <path d="M19.3503 46.8223C18.9303 46.6903 18.1863 46.4503 17.1063 46.4503C14.5503 46.4503 13.2423 47.7103 13.2423 50.7463C13.2423 53.7943 14.5023 55.0423 17.1543 55.0423C18.2943 55.0423 19.1943 54.7303 19.5783 54.5143L19.5783 53.4223C19.2183 53.6263 18.2943 54.0703 17.1663 54.0703C15.4263 54.0703 14.3703 53.2663 14.3703 50.6383C14.3703 48.2383 15.2943 47.4103 17.0703 47.4103C18.0663 47.4103 18.9183 47.7223 19.3503 48.0223L19.3503 46.8223ZM22.2175 54.9463L23.2135 54.9463L23.2135 49.5223L25.2655 49.5223L25.2655 48.5863L20.1535 48.5863L20.1535 49.5223L22.2175 49.5223L22.2175 54.9463ZM26.6205 57.1063L27.6165 57.1063L27.6165 54.0943C27.9285 54.6223 28.5645 55.0783 29.6445 55.0783C31.3725 55.0783 32.2725 54.1063 32.2725 51.6343C32.2725 49.3783 31.4565 48.4663 29.8125 48.4663C28.6485 48.4663 27.9285 48.8743 27.5925 49.7023L27.5325 48.5863L26.6205 48.5863L26.6205 57.1063ZM27.6165 52.3903L27.6165 51.1183C27.6165 50.1223 28.1925 49.3663 29.4525 49.3663C30.6405 49.3663 31.2765 49.9543 31.2765 51.6943C31.2765 53.5063 30.7725 54.1783 29.4405 54.1783C28.2765 54.1783 27.6165 53.4823 27.6165 52.3903ZM37.7562 54.9463L38.6682 54.9463L38.6682 50.6263C38.6682 48.9823 37.9122 48.4663 36.2322 48.4663C35.6202 48.4663 34.7202 48.6223 34.1922 48.9103L34.1922 50.0623C34.6242 49.7023 35.4042 49.3783 36.1242 49.3783C37.1922 49.3783 37.6722 49.6183 37.6722 50.6383L37.6722 51.2383L36.2442 51.2383C34.4202 51.2383 33.7122 51.7783 33.7122 53.1823C33.7122 54.4063 34.5042 55.0783 35.7762 55.0783C36.6882 55.0783 37.3722 54.6103 37.6962 54.0343L37.7562 54.9463ZM34.7322 53.0263C34.7322 52.2583 35.0682 51.9703 36.2802 51.9703L37.6722 51.9703L37.6722 52.5103C37.6722 53.4343 37.1442 54.1183 35.9682 54.1183C35.0922 54.1183 34.7322 53.7103 34.7322 53.0263ZM40.0539 54.9463L41.2179 54.9463L42.8859 52.3663L44.5539 54.9463L45.7779 54.9463L43.5219 51.6103L45.6339 48.5863L44.4699 48.5863L42.9459 50.9263L41.4219 48.5863L40.1979 48.5863L42.2859 51.6943L40.0539 54.9463ZM46.6848 51.7423C46.6848 53.8423 47.7528 55.0783 49.6488 55.0783C51.3048 55.0783 52.6248 54.1663 52.6248 51.7783C52.6248 49.4743 51.5088 48.4663 49.7808 48.4663C47.9568 48.4663 46.6848 49.5463 46.6848 51.7423ZM47.6808 51.7423C47.6808 50.1823 48.3888 49.3543 49.6488 49.3543C50.9208 49.3543 51.6288 50.1343 51.6288 51.7423L51.6288 51.7783C51.6288 53.4583 50.9208 54.1783 49.7328 54.1783C48.4008 54.1783 47.6808 53.2903 47.6808 51.7783L47.6808 51.7423ZM54.4997 54.9583C54.9677 54.9943 55.9157 55.0423 56.7557 55.0423C58.8797 55.0423 59.5157 54.2383 59.5157 53.0503C59.5157 51.9943 59.0477 51.6343 57.9797 51.5383C58.8797 51.2863 59.2157 50.8183 59.2157 50.0023C59.2157 49.0903 58.6997 48.5023 56.6597 48.5023C55.6757 48.5023 54.9557 48.5503 54.4997 48.5743L54.4997 54.9583ZM55.4957 54.1183L55.4957 52.1023L56.9717 52.1023C58.0517 52.1023 58.5197 52.3423 58.5197 53.0623C58.5197 53.9023 58.0997 54.1783 56.7917 54.1783C56.3357 54.1783 55.9037 54.1543 55.4957 54.1183ZM55.4957 51.2503L55.4957 49.3783C55.7717 49.3663 56.1197 49.3663 56.7317 49.3663C57.8117 49.3663 58.2077 49.5703 58.2077 50.2903C58.2077 50.9503 57.7157 51.2503 56.9717 51.2503L55.4957 51.2503ZM65.0023 54.9463L65.9143 54.9463L65.9143 50.6263C65.9143 48.9823 65.1583 48.4663 63.4783 48.4663C62.8663 48.4663 61.9663 48.6223 61.4383 48.9103L61.4383 50.0623C61.8703 49.7023 62.6503 49.3783 63.3703 49.3783C64.4383 49.3783 64.9183 49.6183 64.9183 50.6383L64.9183 51.2383L63.4903 51.2383C61.6663 51.2383 60.9583 51.7783 60.9583 53.1823C60.9583 54.4063 61.7503 55.0783 63.0223 55.0783C63.9343 55.0783 64.6183 54.6103 64.9423 54.0343L65.0023 54.9463ZM61.9783 53.0263C61.9783 52.2583 62.3143 51.9703 63.5263 51.9703L64.9183 51.9703L64.9183 52.5103C64.9183 53.4343 64.3903 54.1183 63.2143 54.1183C62.3383 54.1183 61.9783 53.7103 61.9783 53.0263ZM68.152 54.9463L69.148 54.9463L69.148 52.1983L72.316 52.1983L72.316 54.9463L73.312 54.9463L73.312 48.5863L72.316 48.5863L72.316 51.2503L69.148 51.2503L69.148 48.5863L68.152 48.5863L68.152 54.9463ZM75.6169 54.9463L76.5049 54.9463L78.9769 51.4183C79.3369 50.9383 79.7089 50.3263 79.9129 49.9543L79.9489 49.9663C79.9129 50.4103 79.8769 51.4543 79.8769 52.3783L79.8769 54.9463L80.8729 54.9463L80.8729 48.5863L79.9969 48.5863L77.5849 52.0783C77.2369 52.5583 76.8889 53.0383 76.5889 53.5543L76.5409 53.5303C76.5769 53.2183 76.6129 52.4263 76.6129 51.6823L76.6129 48.5863L75.6169 48.5863L75.6169 54.9463ZM88.2874 52.1263L88.2874 51.4783C88.2874 49.6783 87.5794 48.4663 85.6114 48.4663C83.7514 48.4663 82.7434 49.5943 82.7434 51.6703C82.7434 54.1183 83.7994 55.0783 85.8514 55.0783C86.7994 55.0783 87.5074 54.7423 87.8194 54.5143L87.8194 53.4823C87.3514 53.8543 86.6794 54.1783 85.8754 54.1783C84.4834 54.1783 83.7514 53.4943 83.7514 52.1263L88.2874 52.1263ZM85.5994 49.3663C86.7754 49.3663 87.2914 49.9663 87.2914 51.2623L83.7514 51.2623C83.7514 49.9663 84.4354 49.3663 85.5994 49.3663Z" fill="#737688"></path> </svg> 