<?xml version="1.0" encoding="UTF-8"?> <svg xmlns="http://www.w3.org/2000/svg" width="210" height="168" viewBox="0 0 210 168" fill="none"> <rect width="210" height="168" fill="white"></rect> <path d="M108 166.808C159.086 166.808 200.5 142.898 200.5 113.404C200.5 83.9099 159.086 60.0002 108 60.0002C56.9137 60.0002 15.5 83.9099 15.5 113.404C15.5 142.898 56.9137 166.808 108 166.808Z" fill="#E7E9F8"></path> <path d="M52.8862 158.801C52.6251 158.624 52.4093 158.387 52.2564 158.111C52.1035 157.835 52.0176 157.526 52.0059 157.211V70.674C52.0239 70.3487 52.1183 70.0322 52.2813 69.7502C52.4444 69.4681 52.6715 69.2284 52.9444 69.0503L154.75 10.2698C155.021 10.0995 155.333 10.0063 155.652 10.0002C155.972 9.9941 156.287 10.0753 156.564 10.2351C156.841 10.3949 157.069 10.6272 157.223 10.907C157.378 11.1868 157.453 11.5035 157.441 11.8229V98.3638C157.423 98.6891 157.329 99.0055 157.166 99.2876C157.003 99.5697 156.776 99.8094 156.503 99.9874L54.6968 158.768C54.4185 158.914 54.1098 158.994 53.7954 159C53.481 159.005 53.1697 158.937 52.8862 158.801Z" fill="#737688"></path> <path d="M54.5182 158.846H54.4808C54.4524 158.863 54.4216 158.876 54.3895 158.884H54.3189C54.2772 158.898 54.234 158.908 54.1901 158.913C54.1623 158.924 54.1329 158.931 54.1029 158.934L53.9617 158.954C53.5912 159.005 53.2142 158.939 52.8821 158.768C52.6213 158.591 52.406 158.355 52.2537 158.08C52.1014 157.804 52.0165 157.496 52.0059 157.181V81.7653L53.7666 82.7827V158.224C53.7666 158.639 53.9784 158.896 54.2857 158.896C54.3269 158.903 54.3689 158.903 54.4102 158.896C54.4486 158.885 54.485 158.868 54.5182 158.846Z" fill="#E7E9F8"></path> <path opacity="0.81" d="M54.5182 158.846H54.4808C54.4524 158.863 54.4216 158.876 54.3895 158.884H54.3189C54.2772 158.898 54.234 158.908 54.1901 158.913C54.1623 158.924 54.1329 158.931 54.1029 158.934L53.9617 158.954C53.5912 159.005 53.2142 158.939 52.8821 158.768C52.6213 158.591 52.406 158.355 52.2537 158.08C52.1014 157.804 52.0165 157.496 52.0059 157.181V81.7653L53.7666 82.7827V158.224C53.7666 158.639 53.9784 158.896 54.2857 158.896C54.3269 158.903 54.3689 158.903 54.4102 158.896C54.4486 158.885 54.485 158.868 54.5182 158.846Z" fill="#E7E9F8"></path> <path d="M53.7622 82.7827L52.0015 81.7653V98.5212L53.7622 99.5469V82.7827Z" fill="#6BEAC7"></path> <path opacity="0.15" d="M53.7622 82.7827L52.0015 81.7653V98.5212L53.7622 99.5469V82.7827Z" fill="#353747"></path> <path d="M54.0322 70.7652C53.866 71.0449 53.7732 71.362 53.7623 71.6871V82.7829L52.0016 81.7655V70.6739C51.9995 70.6365 51.9995 70.5991 52.0016 70.5617C52.0096 70.4836 52.0221 70.4059 52.0389 70.3292C52.0907 70.1261 52.1689 69.9306 52.2715 69.7478L54.0322 70.7652Z" fill="#353747"></path> <path d="M157.441 11.8268V16.8349L82.8138 59.9185C82.2989 60.2174 81.8794 59.9724 81.8794 59.3786V57.4809C81.8794 56.887 81.4642 56.6503 80.941 56.941L58.2136 70.0675C57.9407 70.2455 57.7136 70.4853 57.5506 70.7673C57.3875 71.0494 57.2932 71.3659 57.2751 71.6912V73.5848C57.2575 73.9097 57.1637 74.2259 57.0014 74.508C56.8391 74.79 56.6128 75.03 56.3407 75.2085L53.762 76.7117V71.7285C53.7796 71.4036 53.8733 71.0874 54.0356 70.8053C54.1979 70.5233 54.4242 70.2834 54.6963 70.1049L156.506 11.287C157.021 10.988 157.441 11.2288 157.441 11.8268Z" fill="#353747"></path> <path d="M157.445 98.3682C157.426 98.6928 157.332 99.0084 157.169 99.2897C157.006 99.571 156.779 99.8101 156.506 99.9877L54.6963 158.768C54.1814 159.063 53.762 158.822 53.762 158.224V76.7122L56.3407 75.2256C56.8557 74.9266 57.6945 70.3836 58.2136 70.0846L80.5589 57.1824C81.078 56.8834 82.2989 60.2387 82.8138 59.9397L157.441 16.8354V98.3682H157.445Z" fill="white"></path> <path opacity="0.9" d="M157.445 98.3682C157.426 98.6928 157.332 99.0084 157.169 99.2897C157.006 99.571 156.779 99.8101 156.506 99.9877L54.6963 158.768C54.1814 159.063 53.762 158.822 53.762 158.224V76.7122L56.3407 75.2256C56.8557 74.9266 57.6945 70.3836 58.2136 70.0846L80.5589 57.1824C81.078 56.8834 82.2989 60.2387 82.8138 59.9397L157.441 16.8354V98.3682H157.445Z" fill="white"></path> <g opacity="0.4"> <path opacity="0.4" d="M157.026 17.5538V98.3682C157.006 98.6175 156.93 98.859 156.804 99.0747C156.677 99.2904 156.503 99.4748 156.296 99.614L54.4897 158.407C54.4268 158.449 54.3536 158.474 54.2779 158.478C54.1824 158.478 54.1782 158.27 54.1782 158.224V76.9323L56.5494 75.5619C56.9148 75.3502 57.1473 74.6234 57.6706 72.7548C57.8605 71.9497 58.1218 71.1631 58.4513 70.4044L80.6139 57.6101C80.8791 57.9716 81.1178 58.3519 81.3281 58.7479C81.9303 59.8027 82.2625 60.3508 82.7442 60.3508C82.8413 60.3506 82.9369 60.3263 83.0224 60.2802L157.026 17.5538ZM157.442 16.8354L82.8148 59.919C82.7916 59.9248 82.7673 59.9248 82.7442 59.919C82.2209 59.919 81.1579 57.1242 80.6305 57.1242C80.6073 57.1183 80.583 57.1183 80.5599 57.1242L58.2146 70.068C57.6955 70.367 56.8567 74.91 56.3417 75.209L53.7629 76.7122V158.224C53.7629 158.64 53.9747 158.893 54.2779 158.893C54.4245 158.887 54.5673 158.844 54.6931 158.768L156.507 99.9877C156.78 99.8101 157.007 99.571 157.17 99.2897C157.333 99.0084 157.427 98.6928 157.446 98.3682V16.8354H157.442Z" fill="#E7E9F8"></path> </g> <path d="M53.762 82.7833V99.5475L157.441 39.6956V22.9273L53.762 82.7833Z" fill="#6BEAC7"></path> <path d="M157.441 16.8354V22.9273L53.762 82.7834V76.7122L55.6846 75.5993C56.1996 75.3003 56.374 74.8435 56.619 73.9756L57.2751 71.7083C57.4786 70.9193 57.6904 70.3836 58.2136 70.0846L80.5589 57.1824C81.078 56.8834 81.4849 56.8502 81.8794 57.5021L82.6809 58.9556C82.9716 59.4663 83.1211 59.7653 83.636 59.4663L157.441 16.8354Z" fill="#F5F6FF"></path> <path d="M153.047 14.9664C153.699 14.5926 154.226 14.8958 154.226 15.6474C154.204 16.0567 154.086 16.455 153.881 16.8099C153.676 17.1649 153.39 17.4666 153.047 17.6905C152.399 18.0642 151.872 17.7611 151.872 17.0095C151.894 16.6007 152.012 16.2029 152.216 15.8481C152.42 15.4932 152.705 15.1912 153.047 14.9664Z" fill="#6BEAC7"></path> <path d="M148.812 17.4127C149.459 17.039 149.987 17.3421 149.987 18.0937C149.964 18.5025 149.846 18.9003 149.642 19.2551C149.438 19.61 149.154 19.912 148.812 20.1368C148.16 20.5106 147.632 20.2074 147.632 19.4558C147.655 19.0465 147.773 18.6482 147.978 18.2933C148.183 17.9383 148.468 17.6366 148.812 17.4127Z" fill="#6BEAC7"></path> <path d="M144.564 19.8581C145.211 19.4844 145.743 19.7875 145.743 20.5391C145.72 20.9482 145.601 21.3461 145.396 21.7009C145.191 22.0557 144.906 22.3576 144.564 22.5822C143.912 22.9601 143.384 22.6528 143.384 21.9012C143.406 21.4919 143.525 21.0937 143.73 20.7387C143.935 20.3837 144.22 20.082 144.564 19.8581Z" fill="#6BEAC7"></path> <path opacity="0.5" d="M58.0561 77.1273L56.5861 77.9578L57.1467 76.8823C57.1689 76.8415 57.1805 76.7958 57.1805 76.7494C57.1805 76.703 57.1689 76.6573 57.1467 76.6165C57.1052 76.5667 57.0304 76.6165 56.9806 76.6954L56.1833 78.2319C56.1816 78.2512 56.1816 78.2707 56.1833 78.29C56.1815 78.3163 56.1815 78.3426 56.1833 78.3689C56.1808 78.3924 56.1808 78.416 56.1833 78.4395C56.1813 78.4505 56.1813 78.4617 56.1833 78.4727L56.9806 79.0873C56.9924 79.0947 57.0061 79.0986 57.0201 79.0986C57.034 79.0986 57.0477 79.0947 57.0595 79.0873C57.0976 79.0562 57.1275 79.0163 57.1467 78.971C57.1882 78.8714 57.1841 78.7592 57.1467 78.7219L56.5861 78.3066L58.0561 77.4761C58.0946 77.4462 58.1256 77.4077 58.1465 77.3637C58.1674 77.3198 58.1777 77.2715 58.1766 77.2228C58.1766 77.1273 58.1226 77.094 58.0561 77.1273Z" fill="#737688"></path> <path opacity="0.5" d="M59.2852 76.4212L60.7552 75.5907L60.1946 75.1754C60.1448 75.1381 60.1406 75.0259 60.1946 74.9263C60.2486 74.8266 60.3109 74.7726 60.3607 74.81L61.158 75.4246C61.1685 75.4322 61.177 75.4422 61.1829 75.4537C61.1873 75.4756 61.1873 75.4982 61.1829 75.5201C61.1873 75.5462 61.1873 75.5729 61.1829 75.599C61.1829 75.599 61.1829 75.599 61.1829 75.6198C61.1764 75.6399 61.1681 75.6593 61.158 75.6779L60.3607 77.1978C60.3434 77.235 60.3161 77.2666 60.2818 77.2891C60.2702 77.3005 60.2545 77.3069 60.2382 77.3069C60.2219 77.3069 60.2062 77.3005 60.1946 77.2891C60.1713 77.2487 60.159 77.2029 60.159 77.1562C60.159 77.1096 60.1713 77.0638 60.1946 77.0234L60.7552 75.9437L59.2852 76.795C59.2187 76.8323 59.1689 76.795 59.1689 76.6787C59.1663 76.6296 59.1755 76.5806 59.1957 76.5358C59.2159 76.491 59.2466 76.4517 59.2852 76.4212Z" fill="#737688"></path> <path opacity="0.5" d="M64.0984 72.1854C64.0984 72.0982 64.0112 72.1107 63.9738 72.2062L63.7703 72.7003C63.4256 72.663 63.0104 72.9952 62.728 73.5931C62.3667 74.3614 62.3667 75.2542 62.728 75.6238C62.8167 75.7068 62.9315 75.7563 63.0527 75.7638C63.174 75.7714 63.2941 75.7366 63.3924 75.6653C63.686 75.4684 63.9156 75.1897 64.0527 74.8639C64.0757 74.8249 64.0878 74.7804 64.0878 74.7351C64.0878 74.6898 64.0757 74.6454 64.0527 74.6064C64.0029 74.5607 63.9281 74.6064 63.8824 74.7019C63.6125 75.275 63.1682 75.5324 62.8983 75.2708C62.6283 75.0092 62.6242 74.3282 62.8983 73.7509C63.0893 73.3357 63.3675 73.099 63.6125 73.0865L63.4589 73.4561C63.4215 73.5516 63.4589 73.643 63.517 73.6014L64.1191 73.2111C64.1421 73.1903 64.1601 73.1645 64.1716 73.1357C64.1831 73.107 64.1879 73.0759 64.1856 73.045L64.0984 72.1854Z" fill="#737688"></path> <path opacity="0.5" d="M79.9154 59.9439L80.4511 58.8061C80.4825 58.7526 80.4991 58.6917 80.4991 58.6296C80.4991 58.5676 80.4825 58.5067 80.4511 58.4531C80.3888 58.395 80.285 58.4531 80.2227 58.586L79.687 59.7197L79.1472 59.2048C79.0849 59.1425 78.9811 59.2048 78.9188 59.3377C78.8874 59.3912 78.8708 59.4521 78.8708 59.5141C78.8708 59.5762 78.8874 59.6371 78.9188 59.6906L79.4545 60.2056L78.9188 61.3475C78.8874 61.4011 78.8708 61.462 78.8708 61.524C78.8708 61.5861 78.8874 61.647 78.9188 61.7005C78.9352 61.714 78.9557 61.7214 78.9769 61.7214C78.9981 61.7214 79.0187 61.714 79.0351 61.7005C79.0866 61.6685 79.126 61.6203 79.1472 61.5635L79.687 60.4256L80.2227 60.9447C80.2384 60.9579 80.2583 60.9651 80.2788 60.9651C80.2993 60.9651 80.3191 60.9579 80.3348 60.9447C80.3866 60.9119 80.4271 60.8641 80.4511 60.8077C80.4825 60.7542 80.4991 60.6932 80.4991 60.6312C80.4991 60.5692 80.4825 60.5082 80.4511 60.4547L79.9154 59.9439Z" fill="#737688"></path> <path d="M66.0625 73.5808V71.6872C66.0817 71.3623 66.177 71.0464 66.3407 70.7651C66.5045 70.4837 66.7321 70.2449 67.0051 70.0677L151.241 21.4819C151.76 21.1829 152.18 21.4237 152.18 22.0217V23.8904C152.162 24.2157 152.067 24.5322 151.904 24.8142C151.741 25.0963 151.514 25.3361 151.241 25.5141L67.0051 74.1248C66.4819 74.4238 66.0625 74.1788 66.0625 73.5808Z" fill="white"></path> <path d="M149.958 25.6345C149.936 25.6389 149.914 25.6389 149.892 25.6345C149.848 25.6125 149.812 25.5765 149.791 25.5321C149.77 25.4877 149.765 25.4375 149.775 25.3895L149.867 24.6047L149.485 24.3306C149.457 24.3107 149.436 24.2843 149.421 24.2539C149.407 24.2234 149.4 24.1899 149.402 24.1562C149.402 24.0991 149.415 24.0427 149.439 23.991C149.463 23.9393 149.499 23.8937 149.543 23.8572L150.091 23.4419C150.109 23.4253 150.122 23.4037 150.128 23.3796L150.373 22.574C150.387 22.5153 150.418 22.4617 150.461 22.4198C150.505 22.3778 150.559 22.3492 150.618 22.3373C150.655 22.3361 150.692 22.3456 150.724 22.3648C150.755 22.384 150.781 22.4119 150.797 22.4453L151.017 22.9187L151.515 22.7277C151.55 22.7127 151.589 22.709 151.626 22.7172C151.664 22.7254 151.697 22.745 151.723 22.7734C151.756 22.8234 151.773 22.8818 151.773 22.9415C151.773 23.0013 151.756 23.0597 151.723 23.1097L151.308 23.8572C151.303 23.8791 151.303 23.9017 151.308 23.9236L151.403 24.6005C151.409 24.6559 151.402 24.7119 151.384 24.7643C151.365 24.8168 151.335 24.8644 151.295 24.9037C151.273 24.93 151.245 24.9506 151.213 24.9636C151.181 24.9767 151.147 24.9817 151.113 24.9784L150.618 24.9161L150.141 25.5556C150.118 25.581 150.089 25.6012 150.058 25.6148C150.026 25.6284 149.992 25.6352 149.958 25.6345ZM149.642 24.1105L150.025 24.3846C150.057 24.4114 150.081 24.4464 150.095 24.4859C150.109 24.5253 150.112 24.5678 150.103 24.6088L150.058 25.2566L150.473 24.7334C150.497 24.6997 150.529 24.6725 150.566 24.6543C150.603 24.6362 150.644 24.6277 150.685 24.6296L151.179 24.6919C151.179 24.6919 151.2 24.6254 151.179 24.5922L151.083 23.9153C151.077 23.8404 151.093 23.7652 151.129 23.6994L151.544 22.9519L151.088 23.1263C151.066 23.1359 151.042 23.141 151.019 23.1413C150.995 23.1417 150.971 23.1373 150.949 23.1284C150.927 23.1195 150.907 23.1063 150.89 23.0895C150.873 23.0728 150.86 23.0528 150.851 23.0308L150.647 22.6156L150.402 23.4212C150.382 23.4952 150.338 23.5608 150.278 23.608L149.73 24.0233C149.691 24.0408 149.66 24.0718 149.642 24.1105Z" fill="#E7E9F8"></path> <g opacity="0.5"> <path opacity="0.5" d="M153.277 21.2245C153.205 21.2252 153.135 21.202 153.077 21.1585C153.02 21.115 152.979 21.0537 152.96 20.9842C152.942 20.9147 152.947 20.8411 152.975 20.7748C153.003 20.7085 153.052 20.6534 153.115 20.6182L155.747 19.0984C155.784 19.0768 155.825 19.0627 155.867 19.0569C155.909 19.0511 155.952 19.0537 155.994 19.0645C156.035 19.0753 156.074 19.0941 156.108 19.1199C156.142 19.1456 156.17 19.1778 156.192 19.2146C156.213 19.2514 156.227 19.2921 156.233 19.3344C156.239 19.3766 156.237 19.4196 156.226 19.4609C156.215 19.5021 156.196 19.5409 156.17 19.5749C156.145 19.6088 156.112 19.6374 156.076 19.659L153.439 21.183C153.389 21.2108 153.333 21.2251 153.277 21.2245Z" fill="#737688"></path> <path opacity="0.5" d="M153.276 22.749C153.219 22.7489 153.163 22.7339 153.114 22.7055C153.064 22.6771 153.023 22.6363 152.994 22.5871C152.972 22.55 152.959 22.5091 152.953 22.4667C152.947 22.4242 152.95 22.3811 152.961 22.3398C152.973 22.2985 152.992 22.2598 153.018 22.2259C153.044 22.1921 153.077 22.1638 153.114 22.1427L155.747 20.6187C155.821 20.5846 155.905 20.5794 155.983 20.6041C156.061 20.6287 156.127 20.6815 156.168 20.752C156.209 20.8226 156.222 20.9059 156.205 20.9856C156.188 21.0654 156.142 21.1359 156.075 21.1835L153.438 22.7033C153.389 22.7324 153.333 22.7481 153.276 22.749Z" fill="#737688"></path> <path opacity="0.5" d="M153.276 24.2684C153.219 24.2683 153.163 24.2534 153.113 24.225C153.064 24.1965 153.023 24.1557 152.994 24.1065C152.972 24.0698 152.958 24.0292 152.953 23.987C152.947 23.9449 152.95 23.9021 152.962 23.8611C152.973 23.8201 152.992 23.7818 153.018 23.7484C153.044 23.7149 153.077 23.687 153.114 23.6663L155.747 22.1423C155.784 22.1207 155.824 22.1067 155.867 22.1008C155.909 22.095 155.952 22.0976 155.993 22.1084C156.034 22.1192 156.073 22.138 156.107 22.1638C156.141 22.1895 156.17 22.2217 156.191 22.2586C156.213 22.2954 156.227 22.3361 156.233 22.3783C156.238 22.4206 156.236 22.4635 156.225 22.5048C156.214 22.5461 156.195 22.5848 156.17 22.6188C156.144 22.6528 156.112 22.6813 156.075 22.7029L153.438 24.2269C153.389 24.2547 153.333 24.269 153.276 24.2684Z" fill="#737688"></path> </g> <path d="M53.7622 76.6916V82.7836L52.0015 81.7662V75.6784L53.7622 76.6916Z" fill="#E7E9F8"></path> <path d="M62.5304 91.55C61.3327 92.2502 60.4041 92.4362 59.7445 92.108C59.0936 91.7748 58.7464 90.9724 58.703 89.7009C58.6943 89.4345 58.69 88.9947 58.69 88.3815C58.69 87.7581 58.6943 87.3032 58.703 87.0166C58.7464 85.7044 59.0979 84.4986 59.7575 83.3992C60.4258 82.2847 61.3501 81.3824 62.5304 80.6924C63.3029 80.2408 63.9755 80.0034 64.5483 79.9802C65.1211 79.9469 65.5638 80.1053 65.8762 80.4555C66.1886 80.7956 66.3535 81.2924 66.3709 81.9457V81.9759C66.3709 82.0563 66.3405 82.1445 66.2798 82.2403C66.2277 82.321 66.1669 82.3817 66.0975 82.4223L64.8608 83.1453C64.7566 83.2062 64.6785 83.2267 64.6264 83.2069C64.5744 83.1871 64.531 83.1169 64.4962 82.9965C64.3574 82.4443 64.1274 82.1364 63.8063 82.0728C63.4851 81.9991 63.0555 82.1196 62.5174 82.4342C61.2676 83.1648 60.6167 84.3547 60.5646 86.0037C60.556 86.2802 60.5516 86.7 60.5516 87.2629C60.5516 87.8259 60.556 88.2507 60.5646 88.5371C60.6167 90.1253 61.2676 90.554 62.5174 89.8234C63.0555 89.5088 63.4851 89.127 63.8063 88.6778C64.1361 88.2236 64.3661 87.6468 64.4962 86.9474C64.5223 86.7915 64.5613 86.6731 64.6134 86.5924C64.6742 86.5066 64.7566 86.4333 64.8608 86.3724L66.0975 85.6494C66.1756 85.6037 66.2407 85.5958 66.2928 85.6257C66.3535 85.6505 66.3796 85.7107 66.3709 85.8062C66.3535 86.4799 66.1886 87.1745 65.8762 87.89C65.5638 88.5954 65.1211 89.2714 64.5483 89.9179C63.9755 90.5544 63.3029 91.0984 62.5304 91.55ZM69.7244 87.3443C69.2818 87.6031 68.8739 87.741 68.5007 87.7581C68.1361 87.7601 67.8454 87.6486 67.6284 87.4235C67.4201 87.1935 67.316 86.8673 67.316 86.445C67.316 85.7614 67.5546 85.069 68.032 84.3677C68.5093 83.6663 69.1646 82.9967 69.9978 82.3589L71.7813 81.0146V80.6979C71.7813 80.2555 71.6859 79.9796 71.4949 79.8701C71.304 79.7605 70.9959 79.83 70.5706 80.0787C70.2842 80.2461 70.0499 80.4484 69.8676 80.6857C69.694 80.9078 69.5552 81.1096 69.451 81.2912C69.3469 81.4827 69.2774 81.6088 69.2427 81.6693C69.208 81.8102 69.1429 81.9086 69.0474 81.9644L68.045 82.5504C67.9669 82.5961 67.8975 82.6065 67.8367 82.5817C67.7846 82.5519 67.7586 82.4867 67.7586 82.3861C67.7673 82.1297 67.8714 81.7823 68.071 81.3439C68.2793 80.9004 68.5961 80.4388 69.0214 79.9589C69.4467 79.4791 69.9674 79.059 70.5836 78.6988C71.6077 78.1001 72.3541 77.9301 72.8228 78.1889C73.2915 78.4478 73.5258 79.0095 73.5258 79.8741V84.6092C73.5258 84.7097 73.4954 84.8129 73.4347 84.9188C73.3826 85.0197 73.3088 85.098 73.2134 85.1538L72.1589 85.7703C72.0721 85.821 71.9983 85.8289 71.9375 85.7941C71.8768 85.7592 71.8464 85.6915 71.8464 85.591V85.0029C71.6555 85.4362 71.3821 85.8625 71.0262 86.2816C70.6791 86.6856 70.2451 87.0399 69.7244 87.3443ZM70.167 85.6529C70.6444 85.3739 71.0349 84.9646 71.3387 84.4251C71.6425 83.8856 71.7943 83.269 71.7943 82.5753V82.2586L70.4925 83.261C69.9891 83.6457 69.6072 84.0148 69.3469 84.368C69.0952 84.7162 68.9693 85.0361 68.9693 85.3277C68.9693 85.6494 69.0865 85.8322 69.3208 85.8762C69.5552 85.9201 69.8372 85.8457 70.167 85.6529ZM81.3667 72.5456C81.4448 72.4999 81.5143 72.4945 81.575 72.5294C81.6358 72.5542 81.6661 72.6118 81.6661 72.7023V79.8502C81.6661 79.9508 81.6358 80.054 81.575 80.1599C81.5143 80.2658 81.4405 80.3441 81.3537 80.3948L80.2732 81.0265C80.1864 81.0773 80.1126 81.0852 80.0518 81.0503C79.9911 81.0155 79.9607 80.9478 79.9607 80.8473V76.0066L76.8363 82.7945C76.7582 83.001 76.641 83.1499 76.4848 83.2413L75.4954 83.8197C75.4172 83.8654 75.3478 83.8758 75.2871 83.851C75.2263 83.8161 75.1959 83.7484 75.1959 83.6479V76.5151C75.1959 76.4145 75.2263 76.3113 75.2871 76.2054C75.3478 76.0995 75.4216 76.0212 75.5084 75.9705L76.5889 75.3388C76.6844 75.283 76.7582 75.275 76.8102 75.315C76.871 75.3398 76.9014 75.4075 76.9014 75.518V80.3738L80.0258 73.5708C80.1213 73.3541 80.2384 73.2052 80.3773 73.124L81.3667 72.5456ZM78.5026 73.1945C77.7649 73.6258 77.2268 73.7544 76.8883 73.5803C76.5499 73.3962 76.3806 73.0075 76.3806 72.4144C76.3806 72.334 76.4023 72.2559 76.4457 72.1803C76.4891 72.0946 76.5499 72.0289 76.628 71.9833L77.37 71.5494C77.4481 71.5038 77.5089 71.4984 77.5523 71.5334C77.5957 71.5583 77.6174 71.6109 77.6174 71.6914C77.6174 72.2644 77.9125 72.3784 78.5026 72.0334C79.0928 71.6884 79.3879 71.2293 79.3879 70.6563C79.3879 70.5759 79.4096 70.4978 79.453 70.4222C79.4964 70.3365 79.5571 70.2708 79.6352 70.2252L80.3903 69.7837C80.4684 69.7381 80.5292 69.7327 80.5726 69.7677C80.616 69.7926 80.6377 69.8452 80.6377 69.9257C80.6377 70.5188 80.4641 71.1079 80.1169 71.6928C79.7785 72.2627 79.2404 72.7633 78.5026 73.1945ZM85.377 78.0427C85.2902 78.0935 85.2165 78.1014 85.1557 78.0665C85.095 78.0317 85.0646 77.964 85.0646 77.8635V71.9823L82.9426 73.2228C82.8558 73.2736 82.782 73.2815 82.7212 73.2466C82.6605 73.2118 82.6301 73.1391 82.6301 73.0285V72.1689C82.6301 72.0583 82.6605 71.9551 82.7212 71.8593C82.782 71.7534 82.8558 71.6751 82.9426 71.6243L88.853 68.169C88.9484 68.1132 89.0265 68.1027 89.0873 68.1376C89.1481 68.1724 89.1784 68.2401 89.1784 68.3407V69.2002C89.1784 69.3008 89.1481 69.409 89.0873 69.5249C89.0265 69.6308 88.9484 69.7117 88.853 69.7675L86.744 71.0005V76.8817C86.744 76.9822 86.7136 77.0854 86.6528 77.1913C86.6008 77.2921 86.527 77.3704 86.4315 77.4262L85.377 78.0427ZM100.124 58.8653C100.194 58.8247 100.254 58.8193 100.307 58.8492C100.367 58.874 100.398 58.9266 100.398 59.007C100.398 59.0774 100.38 59.173 100.346 59.2938L97.7288 67.7453C97.4251 68.7272 97.143 69.5053 96.8826 70.0798C96.631 70.6492 96.3272 71.1384 95.9713 71.5475C95.6155 71.9566 95.1512 72.3286 94.5784 72.6635L93.9665 73.0212C93.8797 73.0719 93.8059 73.0799 93.7452 73.045C93.6844 73.0101 93.6541 72.9424 93.6541 72.8419V71.726C93.6541 71.6154 93.6844 71.5072 93.7452 71.4013C93.8059 71.2954 93.8797 71.2171 93.9665 71.1663L94.4482 70.8847C94.7433 70.7122 94.995 70.4746 95.2033 70.1719C95.4116 69.8691 95.6112 69.4508 95.8021 68.917L92.5084 63.8001C92.4824 63.755 92.4694 63.7124 92.4694 63.6722C92.4694 63.5817 92.4954 63.4911 92.5475 63.4003C92.6082 63.2944 92.6777 63.2186 92.7558 63.173L94.0316 62.4271C94.1791 62.3409 94.292 62.3704 94.3701 62.5158L96.6743 66.145L98.562 60.0651C98.6228 59.8385 98.74 59.6745 98.9135 59.5731L100.124 58.8653ZM104.713 66.8893C103.533 67.5793 102.613 67.7703 101.953 67.4623C101.294 67.1542 100.946 66.3267 100.912 64.9797C100.903 64.6933 100.899 64.2685 100.899 63.7056C100.899 63.1325 100.903 62.6977 100.912 62.4011C100.946 61.0437 101.302 59.8102 101.979 58.7007C102.656 57.5911 103.568 56.7015 104.713 56.0317C105.859 55.3619 106.77 55.1861 107.447 55.5041C108.133 55.8171 108.493 56.6319 108.528 57.9487C108.545 58.5217 108.554 58.9489 108.554 59.2304C108.554 59.5018 108.545 59.9342 108.528 60.5274C108.484 61.92 108.133 63.156 107.473 64.2353C106.814 65.3146 105.894 66.1993 104.713 66.8893ZM104.713 65.1551C105.295 64.8151 105.759 64.3426 106.106 63.7375C106.453 63.1224 106.64 62.39 106.666 61.5404C106.683 60.927 106.692 60.5148 106.692 60.3037C106.692 60.0724 106.683 59.6703 106.666 59.0974C106.64 58.2782 106.453 57.769 106.106 57.5698C105.759 57.3606 105.295 57.4259 104.713 57.7659C104.14 58.1008 103.68 58.5758 103.333 59.1909C102.986 59.796 102.799 60.5234 102.773 61.373C102.765 61.6697 102.76 62.0794 102.76 62.6021C102.76 63.1148 102.765 63.5195 102.773 63.816C102.799 64.6352 102.982 65.152 103.32 65.3663C103.667 65.5654 104.132 65.4951 104.713 65.1551Z" fill="white"></path> <path d="M58.2598 103.501L151.5 48.9998L150.323 76.5446L57.0002 131L58.2598 103.501Z" fill="#F5F6FF"></path> <path d="M65.2587 106.126L99.8502 86.1562C100.548 85.741 101.096 86.0566 101.096 86.8331C101.07 87.2627 100.944 87.6803 100.727 88.0524C100.511 88.4245 100.211 88.7407 99.8502 88.9759L65.2546 109.17C64.5611 109.585 64.0088 109.253 64.0088 108.452V108.306C64.0321 107.871 64.1574 107.446 64.3745 107.068C64.5915 106.689 64.8944 106.367 65.2587 106.126Z" fill="#E7E9F8"></path> <path d="M64.897 112.176L122.137 79.1298C122.635 78.8433 123.038 79.0468 123.038 79.5824C123.016 79.885 122.923 80.178 122.766 80.4378C122.61 80.6976 122.394 80.9167 122.137 81.0774L64.897 114.124C64.4028 114.411 64 114.207 64 113.671C64.0218 113.369 64.1144 113.077 64.2702 112.817C64.426 112.557 64.6407 112.338 64.897 112.176Z" fill="#E7E9F8"></path> <path d="M64.897 116.089L122.137 83.0419C122.635 82.7554 123.038 82.9589 123.038 83.4946C123.016 83.7971 122.923 84.0901 122.766 84.3499C122.61 84.6097 122.394 84.8288 122.137 84.9895L64.897 118.036C64.4028 118.323 64 118.119 64 117.579C64.0224 117.278 64.1153 116.986 64.2711 116.727C64.4269 116.468 64.6412 116.25 64.897 116.089Z" fill="#E7E9F8"></path> <path d="M91.897 116.176L149.137 83.1298C149.635 82.8433 150.038 83.0468 150.038 83.5824C150.016 83.885 149.923 84.178 149.766 84.4378C149.61 84.6976 149.394 84.9167 149.137 85.0774L91.897 118.124C91.4028 118.411 91 118.207 91 117.671C91.0218 117.369 91.1144 117.077 91.2702 116.817C91.426 116.557 91.6407 116.338 91.897 116.176Z" fill="#E7E9F8"></path> <path d="M91.897 120.089L149.137 87.0419C149.635 86.7554 150.038 86.9589 150.038 87.4946C150.016 87.7971 149.923 88.0901 149.766 88.3499C149.61 88.6097 149.394 88.8288 149.137 88.9895L91.897 122.036C91.4028 122.323 91 122.119 91 121.579C91.0224 121.278 91.1153 120.986 91.2711 120.727C91.4269 120.468 91.6412 120.25 91.897 120.089Z" fill="#E7E9F8"></path> <path d="M91.897 123.996L149.137 90.949C149.635 90.6625 150.038 90.866 150.038 91.4058C150.015 91.7076 149.922 91.9998 149.766 92.2589C149.609 92.5179 149.394 92.7363 149.137 92.8966L91.897 125.947C91.4028 126.234 91 126.03 91 125.491C91.0224 125.189 91.1153 124.896 91.271 124.637C91.4268 124.377 91.6411 124.158 91.897 123.996Z" fill="#E7E9F8"></path> <path d="M92.8928 127.405L113.93 115.13C114.424 114.843 114.827 115.047 114.827 115.586C114.805 115.888 114.712 116.18 114.556 116.439C114.4 116.698 114.186 116.916 113.93 117.077L92.897 129.352C92.4028 129.639 92 129.436 92 128.9C92.0213 128.598 92.1133 128.306 92.2683 128.046C92.4234 127.786 92.6373 127.567 92.8928 127.405Z" fill="#E7E9F8"></path> <path d="M58.8928 135.405L79.9301 123.13C80.4242 122.843 80.827 123.047 80.827 123.586C80.8046 123.888 80.7117 124.18 80.556 124.439C80.4002 124.698 80.1858 124.916 79.9301 125.077L58.897 137.352C58.4028 137.639 58 137.436 58 136.9C58.0213 136.598 58.1133 136.306 58.2683 136.046C58.4234 135.786 58.6373 135.567 58.8928 135.405Z" fill="#E7E9F8"></path> <path d="M176.671 103C176.591 102.957 176.501 102.937 176.41 102.944C176.32 102.951 176.234 102.984 176.162 103.039L175.104 103.735L174.872 104.369C174.813 104.572 174.808 104.788 174.857 104.994C174.907 105.201 175.009 105.391 175.155 105.545C175.331 105.721 175.493 105.91 175.641 106.111C175.691 106.191 175.757 106.26 175.834 106.315C175.911 106.369 175.998 106.408 176.09 106.428C176.182 106.449 176.277 106.451 176.37 106.434C176.463 106.417 176.552 106.383 176.631 106.332L179.092 104.708C179.163 104.654 179.247 104.621 179.336 104.612C179.425 104.603 179.515 104.619 179.595 104.657L176.671 103ZM172.875 112.05C172.53 110.054 171.257 109.058 169.606 109.222C169.768 109.594 169.882 109.986 169.945 110.387C170.511 113.555 168.486 118.052 165.471 120.422C164.574 121.187 163.476 121.678 162.309 121.836C163.293 123.963 165.799 124.161 168.401 122.114C171.404 119.715 173.407 115.218 172.858 112.05H172.875ZM172.932 98.5141C172.87 98.4786 172.803 98.4519 172.734 98.4349L170.878 98.0163C170.674 97.9791 170.464 98.0059 170.275 98.093C170.087 98.18 169.93 98.3232 169.826 98.5028L168.078 101.835C167.979 102.008 167.846 102.16 167.688 102.281C167.597 102.36 167.496 102.426 167.388 102.479L167.954 104.301C167.979 104.389 168.022 104.471 168.082 104.54C168.142 104.61 168.216 104.666 168.3 104.703C168.383 104.741 168.474 104.76 168.566 104.759C168.658 104.758 168.748 104.737 168.831 104.697C169.199 104.548 169.577 104.423 169.962 104.323C170.202 104.251 170.427 104.134 170.624 103.978C170.787 103.858 170.922 103.704 171.02 103.526L172.768 100.194C172.871 100.015 173.028 99.8714 173.217 99.7843C173.405 99.6972 173.616 99.6704 173.82 99.7076L175.681 100.126C175.745 100.142 175.808 100.165 175.867 100.194L172.932 98.5141ZM167.694 130.757C167.608 130.682 167.547 130.584 167.518 130.474L166.89 128.387C166.865 128.299 166.821 128.217 166.762 128.147C166.702 128.078 166.628 128.022 166.545 127.984C166.461 127.945 166.371 127.926 166.279 127.926C166.187 127.926 166.097 127.946 166.014 127.985C165.646 128.137 165.268 128.264 164.882 128.364C164.755 128.396 164.633 128.445 164.52 128.511L164.605 128.783C164.639 128.917 164.724 129.033 164.843 129.105L167.694 130.757ZM164.136 100.211C164.071 100.178 163.999 100.16 163.926 100.16C163.802 100.165 163.683 100.211 163.587 100.29L160.798 102.479C160.758 102.509 160.722 102.543 160.691 102.581C160.665 102.606 160.64 102.633 160.617 102.66C160.52 102.798 160.438 102.946 160.374 103.102C160.365 103.138 160.354 103.174 160.34 103.209C160.293 103.353 160.268 103.504 160.266 103.656L160.436 106.309C160.436 106.771 160.283 107.221 160.001 107.587C159.542 108.153 159.113 108.719 158.711 109.284C158.552 109.494 158.339 109.657 158.094 109.754C158.017 109.789 157.935 109.813 157.851 109.827C157.812 109.833 157.772 109.833 157.732 109.827C157.68 109.833 157.627 109.833 157.574 109.827L155.786 109.737H155.741C155.692 109.731 155.643 109.731 155.594 109.737C155.551 109.729 155.507 109.729 155.464 109.737C155.414 109.752 155.364 109.771 155.317 109.793C155.227 109.837 155.142 109.89 155.062 109.952C154.94 110.051 154.841 110.177 154.774 110.319L153.077 114.092C153.004 114.252 152.992 114.432 153.044 114.599C153.096 114.767 153.209 114.908 153.36 114.998L155.345 116.129C155.411 116.292 155.426 116.471 155.39 116.644C155.255 117.237 155.151 117.838 155.079 118.442C155.01 118.902 154.8 119.328 154.48 119.664L152.036 121.927C151.989 121.963 151.949 122.007 151.917 122.057C151.877 122.106 151.844 122.162 151.821 122.221C151.66 122.491 151.594 122.808 151.634 123.12L152.104 125.807C152.111 125.88 152.133 125.95 152.17 126.013C152.206 126.077 152.255 126.132 152.313 126.175L155.232 127.872C155.175 127.83 155.128 127.777 155.093 127.715C155.058 127.654 155.036 127.586 155.028 127.516L154.514 124.964C154.489 124.792 154.5 124.617 154.548 124.45C154.606 124.184 154.739 123.94 154.932 123.748L157.365 121.486H157.399C157.725 121.144 157.937 120.709 158.004 120.241C158.075 119.636 158.18 119.035 158.321 118.442C158.36 118.244 158.332 118.038 158.242 117.857C158.152 117.676 158.005 117.53 157.823 117.441L156.375 116.83C156.287 116.793 156.207 116.738 156.14 116.67C156.074 116.601 156.021 116.52 155.986 116.431C155.951 116.342 155.933 116.247 155.935 116.152C155.937 116.056 155.957 115.962 155.996 115.874L157.693 112.101C157.758 111.957 157.857 111.831 157.981 111.734C158.187 111.56 158.448 111.466 158.717 111.468L160.51 111.553C160.689 111.56 160.867 111.525 161.03 111.451C161.274 111.355 161.486 111.192 161.641 110.981C162.048 110.416 162.484 109.816 162.936 109.284C163.22 108.919 163.371 108.468 163.366 108.006L163.202 105.359C163.195 105.203 163.218 105.047 163.27 104.9C163.352 104.619 163.513 104.368 163.734 104.176L166.489 101.97C166.562 101.898 166.656 101.851 166.758 101.836C166.86 101.822 166.964 101.841 167.054 101.891L164.136 100.211ZM159.955 128.33C160.012 128.126 160.015 127.91 159.965 127.704C159.914 127.498 159.812 127.309 159.667 127.154C159.49 126.98 159.329 126.791 159.186 126.588C159.084 126.428 158.922 126.314 158.737 126.273C158.551 126.232 158.357 126.266 158.196 126.367L156.788 127.289L155.741 130.055C155.688 130.19 155.683 130.339 155.729 130.477C155.774 130.614 155.867 130.732 155.99 130.808L158.931 132.505C158.806 132.428 158.711 132.309 158.666 132.169C158.62 132.029 158.626 131.877 158.683 131.741L159.955 128.33Z" fill="#5AB0FF"></path> <path opacity="0.7" d="M176.671 103C176.591 102.957 176.501 102.937 176.41 102.944C176.32 102.951 176.234 102.984 176.162 103.039L175.104 103.735L174.872 104.369C174.813 104.572 174.808 104.788 174.857 104.994C174.907 105.201 175.009 105.391 175.155 105.545C175.331 105.721 175.493 105.91 175.641 106.111C175.691 106.191 175.757 106.26 175.834 106.315C175.911 106.369 175.998 106.408 176.09 106.428C176.182 106.449 176.277 106.451 176.37 106.434C176.463 106.417 176.552 106.383 176.631 106.332L179.092 104.708C179.163 104.654 179.247 104.621 179.336 104.612C179.425 104.603 179.515 104.619 179.595 104.657L176.671 103ZM172.875 112.05C172.53 110.054 171.257 109.058 169.606 109.222C169.768 109.594 169.882 109.986 169.945 110.387C170.511 113.555 168.486 118.052 165.471 120.422C164.574 121.187 163.476 121.678 162.309 121.836C163.293 123.963 165.799 124.161 168.401 122.114C171.404 119.715 173.407 115.218 172.858 112.05H172.875ZM172.932 98.5141C172.87 98.4786 172.803 98.4519 172.734 98.4349L170.878 98.0163C170.674 97.9791 170.464 98.0059 170.275 98.093C170.087 98.18 169.93 98.3232 169.826 98.5028L168.078 101.835C167.979 102.008 167.846 102.16 167.688 102.281C167.597 102.36 167.496 102.426 167.388 102.479L167.954 104.301C167.979 104.389 168.022 104.471 168.082 104.54C168.142 104.61 168.216 104.666 168.3 104.703C168.383 104.741 168.474 104.76 168.566 104.759C168.658 104.758 168.748 104.737 168.831 104.697C169.199 104.548 169.577 104.423 169.962 104.323C170.202 104.251 170.427 104.134 170.624 103.978C170.787 103.858 170.922 103.704 171.02 103.526L172.768 100.194C172.871 100.015 173.028 99.8714 173.217 99.7843C173.405 99.6972 173.616 99.6704 173.82 99.7076L175.681 100.126C175.745 100.142 175.808 100.165 175.867 100.194L172.932 98.5141ZM167.694 130.757C167.608 130.682 167.547 130.584 167.518 130.474L166.89 128.387C166.865 128.299 166.821 128.217 166.762 128.147C166.702 128.078 166.628 128.022 166.545 127.984C166.461 127.945 166.371 127.926 166.279 127.926C166.187 127.926 166.097 127.946 166.014 127.985C165.646 128.137 165.268 128.264 164.882 128.364C164.755 128.396 164.633 128.445 164.52 128.511L164.605 128.783C164.639 128.917 164.724 129.033 164.843 129.105L167.694 130.757ZM164.136 100.211C164.071 100.178 163.999 100.16 163.926 100.16C163.802 100.165 163.683 100.211 163.587 100.29L160.798 102.479C160.758 102.509 160.722 102.543 160.691 102.581C160.665 102.606 160.64 102.633 160.617 102.66C160.52 102.798 160.438 102.946 160.374 103.102C160.365 103.138 160.354 103.174 160.34 103.209C160.293 103.353 160.268 103.504 160.266 103.656L160.436 106.309C160.436 106.771 160.283 107.221 160.001 107.587C159.542 108.153 159.113 108.719 158.711 109.284C158.552 109.494 158.339 109.657 158.094 109.754C158.017 109.789 157.935 109.813 157.851 109.827C157.812 109.833 157.772 109.833 157.732 109.827C157.68 109.833 157.627 109.833 157.574 109.827L155.786 109.737H155.741C155.692 109.731 155.643 109.731 155.594 109.737C155.551 109.729 155.507 109.729 155.464 109.737C155.414 109.752 155.364 109.771 155.317 109.793C155.227 109.837 155.142 109.89 155.062 109.952C154.94 110.051 154.841 110.177 154.774 110.319L153.077 114.092C153.004 114.252 152.992 114.432 153.044 114.599C153.096 114.767 153.209 114.908 153.36 114.998L155.345 116.129C155.411 116.292 155.426 116.471 155.39 116.644C155.255 117.237 155.151 117.838 155.079 118.442C155.01 118.902 154.8 119.328 154.48 119.664L152.036 121.927C151.989 121.963 151.949 122.007 151.917 122.057C151.877 122.106 151.844 122.162 151.821 122.221C151.66 122.491 151.594 122.808 151.634 123.12L152.104 125.807C152.111 125.88 152.133 125.95 152.17 126.013C152.206 126.077 152.255 126.132 152.313 126.175L155.232 127.872C155.175 127.83 155.128 127.777 155.093 127.715C155.058 127.654 155.036 127.586 155.028 127.516L154.514 124.964C154.489 124.792 154.5 124.617 154.548 124.45C154.606 124.184 154.739 123.94 154.932 123.748L157.365 121.486H157.399C157.725 121.144 157.937 120.709 158.004 120.241C158.075 119.636 158.18 119.035 158.321 118.442C158.36 118.244 158.332 118.038 158.242 117.857C158.152 117.676 158.005 117.53 157.823 117.441L156.375 116.83C156.287 116.793 156.207 116.738 156.14 116.67C156.074 116.601 156.021 116.52 155.986 116.431C155.951 116.342 155.933 116.247 155.935 116.152C155.937 116.056 155.957 115.962 155.996 115.874L157.693 112.101C157.758 111.957 157.857 111.831 157.981 111.734C158.187 111.56 158.448 111.466 158.717 111.468L160.51 111.553C160.689 111.56 160.867 111.525 161.03 111.451C161.274 111.355 161.486 111.192 161.641 110.981C162.048 110.416 162.484 109.816 162.936 109.284C163.22 108.919 163.371 108.468 163.366 108.006L163.202 105.359C163.195 105.203 163.218 105.047 163.27 104.9C163.352 104.619 163.513 104.368 163.734 104.176L166.489 101.97C166.562 101.898 166.656 101.851 166.758 101.836C166.86 101.822 166.964 101.841 167.054 101.891L164.136 100.211ZM159.955 128.33C160.012 128.126 160.015 127.91 159.965 127.704C159.914 127.498 159.812 127.309 159.667 127.154C159.49 126.98 159.329 126.791 159.186 126.588C159.084 126.428 158.922 126.314 158.737 126.273C158.551 126.232 158.357 126.266 158.196 126.367L156.788 127.289L155.741 130.055C155.688 130.19 155.683 130.339 155.729 130.477C155.774 130.614 155.867 130.732 155.99 130.808L158.931 132.505C158.806 132.428 158.711 132.309 158.666 132.169C158.62 132.029 158.626 131.877 158.683 131.741L159.955 128.33Z" fill="white"></path> <path d="M176.671 103C176.591 102.957 176.501 102.937 176.41 102.944C176.32 102.951 176.234 102.984 176.162 103.039L175.104 103.735L174.872 104.369C174.813 104.572 174.808 104.788 174.857 104.994C174.907 105.201 175.009 105.391 175.155 105.545C175.331 105.721 175.493 105.91 175.641 106.111C175.691 106.191 175.757 106.26 175.834 106.315C175.911 106.369 175.998 106.408 176.09 106.428C176.182 106.449 176.277 106.451 176.37 106.434C176.463 106.417 176.552 106.383 176.631 106.332L179.092 104.708C179.163 104.654 179.247 104.621 179.336 104.612C179.425 104.603 179.515 104.619 179.595 104.657L176.671 103ZM172.875 112.05C172.53 110.054 171.257 109.058 169.606 109.222C169.768 109.594 169.882 109.986 169.945 110.387C170.511 113.555 168.486 118.052 165.471 120.422C164.574 121.187 163.476 121.678 162.309 121.836C163.293 123.963 165.799 124.161 168.401 122.114C171.404 119.715 173.407 115.218 172.858 112.05H172.875ZM172.932 98.5141C172.87 98.4786 172.803 98.4519 172.734 98.4349L170.878 98.0163C170.674 97.9791 170.464 98.0059 170.275 98.093C170.087 98.18 169.93 98.3232 169.826 98.5028L168.078 101.835C167.979 102.008 167.846 102.16 167.688 102.281C167.597 102.36 167.496 102.426 167.388 102.479L167.954 104.301C167.979 104.389 168.022 104.471 168.082 104.54C168.142 104.61 168.216 104.666 168.3 104.703C168.383 104.741 168.474 104.76 168.566 104.759C168.658 104.758 168.748 104.737 168.831 104.697C169.199 104.548 169.577 104.423 169.962 104.323C170.202 104.251 170.427 104.134 170.624 103.978C170.787 103.858 170.922 103.704 171.02 103.526L172.768 100.194C172.871 100.015 173.028 99.8714 173.217 99.7843C173.405 99.6972 173.616 99.6704 173.82 99.7076L175.681 100.126C175.745 100.142 175.808 100.165 175.867 100.194L172.932 98.5141ZM167.694 130.757C167.608 130.682 167.547 130.584 167.518 130.474L166.89 128.387C166.865 128.299 166.821 128.217 166.762 128.147C166.702 128.078 166.628 128.022 166.545 127.984C166.461 127.945 166.371 127.926 166.279 127.926C166.187 127.926 166.097 127.946 166.014 127.985C165.646 128.137 165.268 128.264 164.882 128.364C164.755 128.396 164.633 128.445 164.52 128.511L164.605 128.783C164.639 128.917 164.724 129.033 164.843 129.105L167.694 130.757ZM164.136 100.211C164.071 100.178 163.999 100.16 163.926 100.16C163.802 100.165 163.683 100.211 163.587 100.29L160.798 102.479C160.758 102.509 160.722 102.543 160.691 102.581C160.665 102.606 160.64 102.633 160.617 102.66C160.52 102.798 160.438 102.946 160.374 103.102C160.365 103.138 160.354 103.174 160.34 103.209C160.293 103.353 160.268 103.504 160.266 103.656L160.436 106.309C160.436 106.771 160.283 107.221 160.001 107.587C159.542 108.153 159.113 108.719 158.711 109.284C158.552 109.494 158.339 109.657 158.094 109.754C158.017 109.789 157.935 109.813 157.851 109.827C157.812 109.833 157.772 109.833 157.732 109.827C157.68 109.833 157.627 109.833 157.574 109.827L155.786 109.737H155.741C155.692 109.731 155.643 109.731 155.594 109.737C155.551 109.729 155.507 109.729 155.464 109.737C155.414 109.752 155.364 109.771 155.317 109.793C155.227 109.837 155.142 109.89 155.062 109.952C154.94 110.051 154.841 110.177 154.774 110.319L153.077 114.092C153.004 114.252 152.992 114.432 153.044 114.599C153.096 114.767 153.209 114.908 153.36 114.998L155.345 116.129C155.411 116.292 155.426 116.471 155.39 116.644C155.255 117.237 155.151 117.838 155.079 118.442C155.01 118.902 154.8 119.328 154.48 119.664L152.036 121.927C151.989 121.963 151.949 122.007 151.917 122.057C151.877 122.106 151.844 122.162 151.821 122.221C151.66 122.491 151.594 122.808 151.634 123.12L152.104 125.807C152.111 125.88 152.133 125.95 152.17 126.013C152.206 126.077 152.255 126.132 152.313 126.175L155.232 127.872C155.175 127.83 155.128 127.777 155.093 127.715C155.058 127.654 155.036 127.586 155.028 127.516L154.514 124.964C154.489 124.792 154.5 124.617 154.548 124.45C154.606 124.184 154.739 123.94 154.932 123.748L157.365 121.486H157.399C157.725 121.144 157.937 120.709 158.004 120.241C158.075 119.636 158.18 119.035 158.321 118.442C158.36 118.244 158.332 118.038 158.242 117.857C158.152 117.676 158.005 117.53 157.823 117.441L156.375 116.83C156.287 116.793 156.207 116.738 156.14 116.67C156.074 116.601 156.021 116.52 155.986 116.431C155.951 116.342 155.933 116.247 155.935 116.152C155.937 116.056 155.957 115.962 155.996 115.874L157.693 112.101C157.758 111.957 157.857 111.831 157.981 111.734C158.187 111.56 158.448 111.466 158.717 111.468L160.51 111.553C160.689 111.56 160.867 111.525 161.03 111.451C161.274 111.355 161.486 111.192 161.641 110.981C162.048 110.416 162.484 109.816 162.936 109.284C163.22 108.919 163.371 108.468 163.366 108.006L163.202 105.359C163.195 105.203 163.218 105.047 163.27 104.9C163.352 104.619 163.513 104.368 163.734 104.176L166.489 101.97C166.562 101.898 166.656 101.851 166.758 101.836C166.86 101.822 166.964 101.841 167.054 101.891L164.136 100.211ZM159.955 128.33C160.012 128.126 160.015 127.91 159.965 127.704C159.914 127.498 159.812 127.309 159.667 127.154C159.49 126.98 159.329 126.791 159.186 126.588C159.084 126.428 158.922 126.314 158.737 126.273C158.551 126.232 158.357 126.266 158.196 126.367L156.788 127.289L155.741 130.055C155.688 130.19 155.683 130.339 155.729 130.477C155.774 130.614 155.867 130.732 155.99 130.808L158.931 132.505C158.806 132.428 158.711 132.309 158.666 132.169C158.62 132.029 158.626 131.877 158.683 131.741L159.955 128.33Z" fill="#9DCFFD"></path> <path d="M157.364 121.485L154.932 123.748C154.739 123.94 154.605 124.184 154.547 124.45L151.623 122.753C151.654 122.618 151.703 122.489 151.77 122.368C151.793 122.308 151.825 122.253 151.866 122.204C151.898 122.154 151.938 122.11 151.985 122.074L154.428 119.811L157.364 121.485Z" fill="#5AB0FF"></path> <path d="M161.013 111.453C160.851 111.528 160.672 111.563 160.493 111.555L158.7 111.47C158.431 111.468 158.17 111.563 157.965 111.736L155.034 110.039C155.114 109.978 155.199 109.925 155.289 109.881C155.336 109.858 155.386 109.839 155.436 109.824C155.479 109.816 155.523 109.816 155.566 109.824C155.615 109.818 155.664 109.818 155.713 109.824H155.758L157.546 109.914C157.599 109.92 157.652 109.92 157.704 109.914H157.823C157.902 109.896 157.98 109.871 158.055 109.841L161.013 111.453Z" fill="#5AB0FF"></path> <path d="M179.578 104.681C179.497 104.642 179.407 104.627 179.318 104.638C179.228 104.649 179.144 104.685 179.075 104.743L176.609 106.361C176.53 106.411 176.441 106.445 176.349 106.461C176.257 106.477 176.162 106.475 176.071 106.454C175.979 106.434 175.893 106.396 175.816 106.342C175.74 106.288 175.675 106.219 175.625 106.14C175.478 105.938 175.315 105.749 175.138 105.574C174.992 105.42 174.889 105.23 174.839 105.024C174.788 104.818 174.792 104.602 174.85 104.398L175.087 103.77L176.145 103.074C176.215 103.017 176.301 102.981 176.392 102.972C176.482 102.963 176.574 102.981 176.654 103.023L179.578 104.681Z" fill="#5AB0FF"></path> <path d="M175.839 100.201C175.78 100.172 175.717 100.149 175.653 100.133L173.792 99.7148C173.588 99.6776 173.377 99.7043 173.189 99.7914C173 99.8785 172.843 100.022 172.74 100.201L171.014 103.533C170.917 103.711 170.781 103.865 170.618 103.986L167.694 102.289C167.852 102.167 167.985 102.015 168.084 101.842L169.832 98.5099C169.936 98.3303 170.093 98.1872 170.281 98.1001C170.469 98.013 170.68 97.9862 170.884 98.0234L172.74 98.442C172.809 98.459 172.876 98.4857 172.938 98.5212L175.839 100.201Z" fill="#5AB0FF"></path> <path d="M167.055 101.892C166.965 101.842 166.861 101.823 166.759 101.837C166.657 101.851 166.563 101.898 166.49 101.971L163.707 104.16C163.485 104.352 163.324 104.603 163.243 104.884L160.313 103.187C160.327 103.152 160.338 103.116 160.347 103.08C160.411 102.924 160.492 102.776 160.59 102.639C160.613 102.611 160.638 102.584 160.663 102.559C160.695 102.521 160.731 102.487 160.771 102.458L163.56 100.268C163.655 100.189 163.775 100.143 163.899 100.138C163.972 100.138 164.044 100.156 164.108 100.189L167.055 101.892Z" fill="#5AB0FF"></path> <path opacity="0.6" d="M157.364 121.485L154.932 123.748C154.739 123.94 154.605 124.184 154.547 124.45L151.623 122.753C151.654 122.618 151.703 122.489 151.77 122.368C151.793 122.308 151.825 122.253 151.866 122.204C151.898 122.154 151.938 122.11 151.985 122.074L154.428 119.811L157.364 121.485Z" fill="white"></path> <path opacity="0.6" d="M161.013 111.453C160.851 111.528 160.672 111.563 160.493 111.555L158.7 111.47C158.431 111.468 158.17 111.563 157.965 111.736L155.034 110.039C155.114 109.978 155.199 109.925 155.289 109.881C155.336 109.858 155.386 109.839 155.436 109.824C155.479 109.816 155.523 109.816 155.566 109.824C155.615 109.818 155.664 109.818 155.713 109.824H155.758L157.546 109.914C157.599 109.92 157.652 109.92 157.704 109.914H157.823C157.902 109.896 157.98 109.871 158.055 109.841L161.013 111.453Z" fill="white"></path> <path opacity="0.6" d="M179.578 104.681C179.497 104.642 179.407 104.627 179.318 104.638C179.228 104.649 179.144 104.685 179.075 104.743L176.609 106.361C176.53 106.411 176.441 106.445 176.349 106.461C176.257 106.477 176.162 106.475 176.071 106.454C175.979 106.434 175.893 106.396 175.816 106.342C175.74 106.288 175.675 106.219 175.625 106.14C175.478 105.938 175.315 105.749 175.138 105.574C174.992 105.42 174.889 105.23 174.839 105.024C174.788 104.818 174.792 104.602 174.85 104.398L175.087 103.77L176.145 103.074C176.215 103.017 176.301 102.981 176.392 102.972C176.482 102.963 176.574 102.981 176.654 103.023L179.578 104.681Z" fill="white"></path> <path opacity="0.6" d="M175.839 100.201C175.78 100.172 175.717 100.149 175.653 100.133L173.792 99.7148C173.588 99.6776 173.377 99.7043 173.189 99.7914C173 99.8785 172.843 100.022 172.74 100.201L171.014 103.533C170.917 103.711 170.781 103.865 170.618 103.986L167.694 102.289C167.852 102.167 167.985 102.015 168.084 101.842L169.832 98.5099C169.936 98.3303 170.093 98.1872 170.281 98.1001C170.469 98.013 170.68 97.9862 170.884 98.0234L172.74 98.442C172.809 98.459 172.876 98.4857 172.938 98.5212L175.839 100.201Z" fill="white"></path> <path opacity="0.6" d="M167.055 101.892C166.965 101.842 166.861 101.823 166.759 101.837C166.657 101.851 166.563 101.898 166.49 101.971L163.707 104.16C163.485 104.352 163.324 104.603 163.243 104.884L160.313 103.187C160.327 103.152 160.338 103.116 160.347 103.08C160.411 102.924 160.492 102.776 160.59 102.639C160.613 102.611 160.638 102.584 160.663 102.559C160.695 102.521 160.731 102.487 160.771 102.458L163.56 100.268C163.655 100.189 163.775 100.143 163.899 100.138C163.972 100.138 164.044 100.156 164.108 100.189L167.055 101.892Z" fill="white"></path> <path d="M180.274 107.752L179.81 105.059C179.808 104.975 179.781 104.893 179.734 104.823C179.687 104.754 179.621 104.699 179.543 104.666C179.466 104.632 179.381 104.622 179.298 104.636C179.215 104.649 179.137 104.686 179.075 104.742L176.614 106.36C176.535 106.411 176.446 106.446 176.353 106.463C176.26 106.479 176.165 106.477 176.073 106.457C175.981 106.436 175.894 106.397 175.817 106.343C175.74 106.289 175.674 106.219 175.624 106.139C175.476 105.94 175.316 105.751 175.143 105.574C174.996 105.42 174.892 105.231 174.841 105.024C174.791 104.818 174.795 104.601 174.855 104.397L176.11 101.003C176.146 100.918 176.162 100.827 176.157 100.735C176.152 100.643 176.127 100.553 176.083 100.472C176.039 100.392 175.977 100.322 175.903 100.268C175.828 100.214 175.743 100.177 175.652 100.16L173.791 99.7418C173.586 99.7043 173.375 99.7315 173.187 99.8197C172.998 99.9079 172.842 100.053 172.739 100.234L171.014 103.532C170.774 103.92 170.396 104.203 169.956 104.324C169.571 104.425 169.193 104.551 168.825 104.703C168.742 104.742 168.651 104.763 168.559 104.764C168.467 104.765 168.376 104.745 168.292 104.707C168.209 104.669 168.134 104.613 168.075 104.542C168.015 104.472 167.972 104.39 167.948 104.301L167.32 102.219C167.306 102.135 167.269 102.057 167.213 101.993C167.157 101.929 167.084 101.881 167.003 101.855C166.922 101.83 166.835 101.827 166.752 101.847C166.669 101.867 166.594 101.91 166.534 101.971L163.751 104.16C163.583 104.307 163.449 104.489 163.357 104.693C163.265 104.897 163.218 105.118 163.219 105.342L163.389 107.989C163.388 108.453 163.235 108.904 162.953 109.273C162.495 109.839 162.065 110.405 161.658 110.97C161.525 111.144 161.353 111.286 161.157 111.384C160.961 111.482 160.746 111.534 160.526 111.536L158.739 111.445C158.525 111.443 158.315 111.501 158.132 111.613C157.95 111.725 157.804 111.887 157.709 112.079L156.012 115.852C155.972 115.939 155.95 116.032 155.948 116.128C155.945 116.223 155.961 116.318 155.996 116.407C156.031 116.496 156.084 116.576 156.151 116.644C156.218 116.712 156.298 116.766 156.386 116.802L157.828 117.419C158.012 117.505 158.161 117.651 158.252 117.833C158.342 118.014 158.368 118.221 158.326 118.42C158.19 119.014 158.087 119.614 158.015 120.219C157.945 120.678 157.736 121.105 157.415 121.441L154.949 123.703C154.793 123.862 154.674 124.053 154.601 124.264C154.529 124.474 154.505 124.698 154.53 124.919L154.994 127.606C154.998 127.69 155.025 127.771 155.072 127.84C155.119 127.909 155.185 127.964 155.261 127.997C155.338 128.031 155.422 128.042 155.505 128.03C155.588 128.018 155.666 127.983 155.73 127.929L158.196 126.305C158.357 126.204 158.551 126.17 158.736 126.211C158.922 126.252 159.084 126.366 159.186 126.526C159.33 126.727 159.491 126.917 159.667 127.092C159.812 127.246 159.916 127.436 159.966 127.642C160.017 127.848 160.013 128.064 159.955 128.268L158.699 131.662C158.664 131.747 158.648 131.839 158.653 131.931C158.658 132.023 158.683 132.112 158.727 132.193C158.771 132.274 158.833 132.344 158.907 132.398C158.981 132.452 159.067 132.488 159.158 132.505L161.013 132.924C161.218 132.96 161.429 132.933 161.618 132.846C161.807 132.759 161.965 132.617 162.071 132.437L163.813 129.105C164.056 128.72 164.432 128.438 164.871 128.313C165.256 128.213 165.634 128.086 166.002 127.934C166.086 127.896 166.177 127.876 166.269 127.875C166.361 127.875 166.452 127.895 166.535 127.933C166.619 127.971 166.694 128.027 166.754 128.096C166.814 128.166 166.859 128.248 166.884 128.336L167.512 130.418C167.527 130.502 167.564 130.58 167.62 130.644C167.676 130.709 167.748 130.756 167.83 130.782C167.911 130.808 167.998 130.81 168.08 130.79C168.163 130.77 168.239 130.727 168.299 130.667L171.082 128.477C171.249 128.331 171.383 128.15 171.474 127.947C171.565 127.744 171.61 127.523 171.608 127.301L171.444 124.648C171.442 124.186 171.593 123.736 171.874 123.37C172.334 122.826 172.766 122.26 173.169 121.673C173.301 121.497 173.472 121.355 173.668 121.257C173.864 121.159 174.081 121.107 174.3 121.107L176.093 121.192C176.306 121.194 176.515 121.136 176.696 121.025C176.877 120.914 177.023 120.754 177.117 120.564L178.814 116.791C178.854 116.704 178.875 116.61 178.877 116.514C178.88 116.419 178.863 116.324 178.829 116.234C178.794 116.145 178.742 116.064 178.675 115.996C178.608 115.927 178.529 115.872 178.441 115.835L176.993 115.218C176.81 115.132 176.662 114.987 176.571 114.807C176.481 114.626 176.454 114.421 176.495 114.223C176.633 113.63 176.736 113.029 176.806 112.424C176.876 111.962 177.088 111.533 177.411 111.197L179.878 108.934C180.025 108.777 180.136 108.59 180.204 108.386C180.273 108.182 180.296 107.966 180.274 107.752ZM168.395 122.086C165.38 124.461 162.489 123.782 161.941 120.643C161.392 117.504 163.4 112.978 166.421 110.608C169.441 108.238 172.326 108.883 172.869 112.051C173.412 115.218 171.398 119.715 168.384 122.086H168.395Z" fill="#5AB0FF"></path> <path opacity="0.2" d="M180.274 107.752L179.81 105.059C179.808 104.975 179.781 104.893 179.734 104.823C179.687 104.754 179.621 104.699 179.543 104.666C179.466 104.632 179.381 104.622 179.298 104.636C179.215 104.649 179.137 104.686 179.075 104.742L176.614 106.36C176.535 106.411 176.446 106.446 176.353 106.463C176.26 106.479 176.165 106.477 176.073 106.457C175.981 106.436 175.894 106.397 175.817 106.343C175.74 106.289 175.674 106.219 175.624 106.139C175.476 105.94 175.316 105.751 175.143 105.574C174.996 105.42 174.892 105.231 174.841 105.024C174.791 104.818 174.795 104.601 174.855 104.397L176.11 101.003C176.146 100.918 176.162 100.827 176.157 100.735C176.152 100.643 176.127 100.553 176.083 100.472C176.039 100.392 175.977 100.322 175.903 100.268C175.828 100.214 175.743 100.177 175.652 100.16L173.791 99.7418C173.586 99.7043 173.375 99.7315 173.187 99.8197C172.998 99.9079 172.842 100.053 172.739 100.234L171.014 103.532C170.774 103.92 170.396 104.203 169.956 104.324C169.571 104.425 169.193 104.551 168.825 104.703C168.742 104.742 168.651 104.763 168.559 104.764C168.467 104.765 168.376 104.745 168.292 104.707C168.209 104.669 168.134 104.613 168.075 104.542C168.015 104.472 167.972 104.39 167.948 104.301L167.32 102.219C167.306 102.135 167.269 102.057 167.213 101.993C167.157 101.929 167.084 101.881 167.003 101.855C166.922 101.83 166.835 101.827 166.752 101.847C166.669 101.867 166.594 101.91 166.534 101.971L163.751 104.16C163.583 104.307 163.449 104.489 163.357 104.693C163.265 104.897 163.218 105.118 163.219 105.342L163.389 107.989C163.388 108.453 163.235 108.904 162.953 109.273C162.495 109.839 162.065 110.405 161.658 110.97C161.525 111.144 161.353 111.286 161.157 111.384C160.961 111.482 160.746 111.534 160.526 111.536L158.739 111.445C158.525 111.443 158.315 111.501 158.132 111.613C157.95 111.725 157.804 111.887 157.709 112.079L156.012 115.852C155.972 115.939 155.95 116.032 155.948 116.128C155.945 116.223 155.961 116.318 155.996 116.407C156.031 116.496 156.084 116.576 156.151 116.644C156.218 116.712 156.298 116.766 156.386 116.802L157.828 117.419C158.012 117.505 158.161 117.651 158.252 117.833C158.342 118.014 158.368 118.221 158.326 118.42C158.19 119.014 158.087 119.614 158.015 120.219C157.945 120.678 157.736 121.105 157.415 121.441L154.949 123.703C154.793 123.862 154.674 124.053 154.601 124.264C154.529 124.474 154.505 124.698 154.53 124.919L154.994 127.606C154.998 127.69 155.025 127.771 155.072 127.84C155.119 127.909 155.185 127.964 155.261 127.997C155.338 128.031 155.422 128.042 155.505 128.03C155.588 128.018 155.666 127.983 155.73 127.929L158.196 126.305C158.357 126.204 158.551 126.17 158.736 126.211C158.922 126.252 159.084 126.366 159.186 126.526C159.33 126.727 159.491 126.917 159.667 127.092C159.812 127.246 159.916 127.436 159.966 127.642C160.017 127.848 160.013 128.064 159.955 128.268L158.699 131.662C158.664 131.747 158.648 131.839 158.653 131.931C158.658 132.023 158.683 132.112 158.727 132.193C158.771 132.274 158.833 132.344 158.907 132.398C158.981 132.452 159.067 132.488 159.158 132.505L161.013 132.924C161.218 132.96 161.429 132.933 161.618 132.846C161.807 132.759 161.965 132.617 162.071 132.437L163.813 129.105C164.056 128.72 164.432 128.438 164.871 128.313C165.256 128.213 165.634 128.086 166.002 127.934C166.086 127.896 166.177 127.876 166.269 127.875C166.361 127.875 166.452 127.895 166.535 127.933C166.619 127.971 166.694 128.027 166.754 128.096C166.814 128.166 166.859 128.248 166.884 128.336L167.512 130.418C167.527 130.502 167.564 130.58 167.62 130.644C167.676 130.709 167.748 130.756 167.83 130.782C167.911 130.808 167.998 130.81 168.08 130.79C168.163 130.77 168.239 130.727 168.299 130.667L171.082 128.477C171.249 128.331 171.383 128.15 171.474 127.947C171.565 127.744 171.61 127.523 171.608 127.301L171.444 124.648C171.442 124.186 171.593 123.736 171.874 123.37C172.334 122.826 172.766 122.26 173.169 121.673C173.301 121.497 173.472 121.355 173.668 121.257C173.864 121.159 174.081 121.107 174.3 121.107L176.093 121.192C176.306 121.194 176.515 121.136 176.696 121.025C176.877 120.914 177.023 120.754 177.117 120.564L178.814 116.791C178.854 116.704 178.875 116.61 178.877 116.514C178.88 116.419 178.863 116.324 178.829 116.234C178.794 116.145 178.742 116.064 178.675 115.996C178.608 115.927 178.529 115.872 178.441 115.835L176.993 115.218C176.81 115.132 176.662 114.987 176.571 114.807C176.481 114.626 176.454 114.421 176.495 114.223C176.633 113.63 176.736 113.029 176.806 112.424C176.876 111.962 177.088 111.533 177.411 111.197L179.878 108.934C180.025 108.777 180.136 108.59 180.204 108.386C180.273 108.182 180.296 107.966 180.274 107.752ZM168.395 122.086C165.38 124.461 162.489 123.782 161.941 120.643C161.392 117.504 163.4 112.978 166.421 110.608C169.441 108.238 172.326 108.883 172.869 112.051C173.412 115.218 171.398 119.715 168.384 122.086H168.395Z" fill="white"></path> <path d="M146.278 112.565C146.18 112.511 146.07 112.488 145.959 112.497C145.848 112.506 145.743 112.547 145.656 112.616L144.377 113.459L144.094 114.216C144.021 114.463 144.013 114.725 144.071 114.976C144.13 115.227 144.253 115.459 144.428 115.648C144.633 115.872 144.822 116.11 144.994 116.36C145.054 116.457 145.133 116.54 145.226 116.606C145.319 116.671 145.424 116.718 145.535 116.742C145.646 116.767 145.761 116.77 145.873 116.75C145.985 116.73 146.092 116.688 146.187 116.626L149.168 114.663C149.253 114.596 149.355 114.555 149.462 114.544C149.569 114.533 149.677 114.553 149.774 114.601L146.278 112.565ZM141.69 123.499C141.272 121.089 139.733 119.879 137.731 120.048C137.929 120.498 138.068 120.972 138.144 121.457C138.805 125.287 136.379 130.711 132.736 133.579C131.652 134.503 130.324 135.093 128.912 135.276C130.111 137.844 133.137 138.104 136.266 135.61C139.931 132.759 142.346 127.329 141.69 123.499ZM141.752 107.146C141.681 107.103 141.602 107.072 141.521 107.055L139.258 106.546C139.013 106.499 138.76 106.528 138.533 106.629C138.305 106.73 138.114 106.898 137.985 107.112L135.875 111.139C135.757 111.358 135.595 111.551 135.4 111.705C135.292 111.799 135.172 111.879 135.044 111.943L135.7 114.143C135.731 114.249 135.785 114.348 135.858 114.431C135.93 114.515 136.02 114.582 136.121 114.628C136.222 114.673 136.332 114.697 136.443 114.696C136.554 114.695 136.663 114.671 136.763 114.624C137.213 114.443 137.674 114.292 138.144 114.171C138.435 114.083 138.708 113.941 138.947 113.753C139.143 113.599 139.305 113.407 139.422 113.187L141.543 109.182C141.673 108.97 141.864 108.802 142.092 108.701C142.319 108.6 142.571 108.571 142.816 108.616L145.079 109.126C145.157 109.142 145.233 109.168 145.305 109.205L141.752 107.146ZM135.428 146.103C135.325 146.014 135.252 145.895 135.219 145.763L134.461 143.241C134.432 143.133 134.379 143.033 134.306 142.949C134.234 142.864 134.144 142.796 134.042 142.75C133.941 142.704 133.83 142.681 133.719 142.683C133.607 142.685 133.498 142.711 133.398 142.76C132.948 142.942 132.487 143.093 132.017 143.212C131.865 143.254 131.719 143.315 131.582 143.393L131.684 143.716C131.703 143.797 131.738 143.874 131.787 143.941C131.837 144.008 131.9 144.064 131.972 144.106L135.428 146.103ZM131.129 109.182C131.052 109.143 130.967 109.121 130.88 109.12C130.728 109.121 130.582 109.178 130.467 109.278L127.102 111.92C127.054 111.957 127.011 111.999 126.972 112.044C126.939 112.076 126.908 112.11 126.881 112.146C126.76 112.308 126.661 112.485 126.587 112.672C126.587 112.717 126.559 112.763 126.547 112.802C126.484 112.984 126.453 113.176 126.457 113.368L126.661 116.57C126.66 117.13 126.475 117.675 126.135 118.12C125.569 118.781 125.065 119.471 124.573 120.184C124.384 120.438 124.127 120.634 123.832 120.75C123.739 120.793 123.64 120.824 123.538 120.84C123.491 120.846 123.444 120.846 123.397 120.84C123.333 120.849 123.268 120.849 123.204 120.84L121.044 120.733H120.993C120.933 120.725 120.872 120.725 120.812 120.733L120.653 120.767C120.593 120.785 120.534 120.807 120.478 120.835C120.366 120.887 120.262 120.954 120.167 121.033C120.021 121.154 119.901 121.304 119.816 121.474L117.785 125.999C117.698 126.193 117.686 126.411 117.749 126.614C117.813 126.816 117.948 126.988 118.13 127.097L120.529 128.477C120.609 128.676 120.629 128.894 120.585 129.105C120.419 129.821 120.293 130.546 120.206 131.277C120.124 131.832 119.871 132.348 119.482 132.753H119.448L116.496 135.463C116.444 135.512 116.397 135.565 116.354 135.621C116.308 135.683 116.268 135.749 116.235 135.819C116.042 136.146 115.965 136.529 116.015 136.905L116.58 140.158C116.591 140.245 116.62 140.329 116.665 140.405C116.71 140.481 116.769 140.547 116.841 140.599L120.365 142.63C120.228 142.525 120.139 142.37 120.116 142.2L119.539 139.106C119.507 138.898 119.521 138.686 119.578 138.483C119.648 138.162 119.809 137.867 120.042 137.635L122.984 134.925H123.018C123.408 134.52 123.664 134.005 123.753 133.449C123.835 132.718 123.96 131.993 124.126 131.277C124.189 131.026 124.16 130.762 124.045 130.531C123.93 130.299 123.736 130.117 123.499 130.015L121.751 129.269C121.541 129.178 121.376 129.008 121.292 128.796C121.207 128.584 121.209 128.348 121.298 128.137L123.329 123.612C123.408 123.44 123.526 123.289 123.674 123.171C123.922 122.957 124.24 122.842 124.568 122.849L126.734 122.95C126.95 122.958 127.165 122.915 127.362 122.826C127.659 122.713 127.916 122.516 128.103 122.26C128.589 121.553 129.116 120.857 129.664 120.196C130.007 119.752 130.19 119.206 130.185 118.646L129.987 115.45C129.977 115.258 130.004 115.066 130.066 114.884C130.169 114.545 130.365 114.241 130.632 114.007L134.026 111.366C134.111 111.281 134.222 111.226 134.341 111.209C134.46 111.192 134.581 111.213 134.687 111.269L131.129 109.182ZM126.084 143.15C126.152 142.904 126.155 142.644 126.092 142.396C126.03 142.148 125.904 141.921 125.727 141.736C125.523 141.512 125.334 141.274 125.162 141.023C125.101 140.927 125.022 140.844 124.929 140.778C124.837 140.712 124.732 140.665 124.621 140.64C124.51 140.615 124.395 140.612 124.283 140.631C124.171 140.65 124.064 140.691 123.968 140.752L122.271 141.883L121.038 145.226C120.972 145.389 120.966 145.57 121.021 145.736C121.076 145.903 121.188 146.045 121.338 146.137L124.862 148.156C124.711 148.064 124.597 147.922 124.542 147.753C124.487 147.585 124.494 147.403 124.562 147.24L126.084 143.15Z" fill="#5AB0FF"></path> <path opacity="0.7" d="M146.278 112.565C146.18 112.511 146.07 112.488 145.959 112.497C145.848 112.506 145.743 112.547 145.656 112.616L144.377 113.459L144.094 114.216C144.021 114.463 144.013 114.725 144.071 114.976C144.13 115.227 144.253 115.459 144.428 115.648C144.633 115.872 144.822 116.11 144.994 116.36C145.054 116.457 145.133 116.54 145.226 116.606C145.319 116.671 145.424 116.718 145.535 116.742C145.646 116.767 145.761 116.77 145.873 116.75C145.985 116.73 146.092 116.688 146.187 116.626L149.168 114.663C149.253 114.596 149.355 114.555 149.462 114.544C149.569 114.533 149.677 114.553 149.774 114.601L146.278 112.565ZM141.69 123.499C141.272 121.089 139.733 119.879 137.731 120.048C137.929 120.498 138.068 120.972 138.144 121.457C138.805 125.287 136.379 130.711 132.736 133.579C131.652 134.503 130.324 135.093 128.912 135.276C130.111 137.844 133.137 138.104 136.266 135.61C139.931 132.759 142.346 127.329 141.69 123.499ZM141.752 107.146C141.681 107.103 141.602 107.072 141.521 107.055L139.258 106.546C139.013 106.499 138.76 106.528 138.533 106.629C138.305 106.73 138.114 106.898 137.985 107.112L135.875 111.139C135.757 111.358 135.595 111.551 135.4 111.705C135.292 111.799 135.172 111.879 135.044 111.943L135.7 114.143C135.731 114.249 135.785 114.348 135.858 114.431C135.93 114.515 136.02 114.582 136.121 114.628C136.222 114.673 136.332 114.697 136.443 114.696C136.554 114.695 136.663 114.671 136.763 114.624C137.213 114.443 137.674 114.292 138.144 114.171C138.435 114.083 138.708 113.941 138.947 113.753C139.143 113.599 139.305 113.407 139.422 113.187L141.543 109.182C141.673 108.97 141.864 108.802 142.092 108.701C142.319 108.6 142.571 108.571 142.816 108.616L145.079 109.126C145.157 109.142 145.233 109.168 145.305 109.205L141.752 107.146ZM135.428 146.103C135.325 146.014 135.252 145.895 135.219 145.763L134.461 143.241C134.432 143.133 134.379 143.033 134.306 142.949C134.234 142.864 134.144 142.796 134.042 142.75C133.941 142.704 133.83 142.681 133.719 142.683C133.607 142.685 133.498 142.711 133.398 142.76C132.948 142.942 132.487 143.093 132.017 143.212C131.865 143.254 131.719 143.315 131.582 143.393L131.684 143.716C131.703 143.797 131.738 143.874 131.787 143.941C131.837 144.008 131.9 144.064 131.972 144.106L135.428 146.103ZM131.129 109.182C131.052 109.143 130.967 109.121 130.88 109.12C130.728 109.121 130.582 109.178 130.467 109.278L127.102 111.92C127.054 111.957 127.011 111.999 126.972 112.044C126.939 112.076 126.908 112.11 126.881 112.146C126.76 112.308 126.661 112.485 126.587 112.672C126.587 112.717 126.559 112.763 126.547 112.802C126.484 112.984 126.453 113.176 126.457 113.368L126.661 116.57C126.66 117.13 126.475 117.675 126.135 118.12C125.569 118.781 125.065 119.471 124.573 120.184C124.384 120.438 124.127 120.634 123.832 120.75C123.739 120.793 123.64 120.824 123.538 120.84C123.491 120.846 123.444 120.846 123.397 120.84C123.333 120.849 123.268 120.849 123.204 120.84L121.044 120.733H120.993C120.933 120.725 120.872 120.725 120.812 120.733L120.653 120.767C120.593 120.785 120.534 120.807 120.478 120.835C120.366 120.887 120.262 120.954 120.167 121.033C120.021 121.154 119.901 121.304 119.816 121.474L117.785 125.999C117.698 126.193 117.686 126.411 117.749 126.614C117.813 126.816 117.948 126.988 118.13 127.097L120.529 128.477C120.609 128.676 120.629 128.894 120.585 129.105C120.419 129.821 120.293 130.546 120.206 131.277C120.124 131.832 119.871 132.348 119.482 132.753H119.448L116.496 135.463C116.444 135.512 116.397 135.565 116.354 135.621C116.308 135.683 116.268 135.749 116.235 135.819C116.042 136.146 115.965 136.529 116.015 136.905L116.58 140.158C116.591 140.245 116.62 140.329 116.665 140.405C116.71 140.481 116.769 140.547 116.841 140.599L120.365 142.63C120.228 142.525 120.139 142.37 120.116 142.2L119.539 139.106C119.507 138.898 119.521 138.686 119.578 138.483C119.648 138.162 119.809 137.867 120.042 137.635L122.984 134.925H123.018C123.408 134.52 123.664 134.005 123.753 133.449C123.835 132.718 123.96 131.993 124.126 131.277C124.189 131.026 124.16 130.762 124.045 130.531C123.93 130.299 123.736 130.117 123.499 130.015L121.751 129.269C121.541 129.178 121.376 129.008 121.292 128.796C121.207 128.584 121.209 128.348 121.298 128.137L123.329 123.612C123.408 123.44 123.526 123.289 123.674 123.171C123.922 122.957 124.24 122.842 124.568 122.849L126.734 122.95C126.95 122.958 127.165 122.915 127.362 122.826C127.659 122.713 127.916 122.516 128.103 122.26C128.589 121.553 129.116 120.857 129.664 120.196C130.007 119.752 130.19 119.206 130.185 118.646L129.987 115.45C129.977 115.258 130.004 115.066 130.066 114.884C130.169 114.545 130.365 114.241 130.632 114.007L134.026 111.366C134.111 111.281 134.222 111.226 134.341 111.209C134.46 111.192 134.581 111.213 134.687 111.269L131.129 109.182ZM126.084 143.15C126.152 142.904 126.155 142.644 126.092 142.396C126.03 142.148 125.904 141.921 125.727 141.736C125.523 141.512 125.334 141.274 125.162 141.023C125.101 140.927 125.022 140.844 124.929 140.778C124.837 140.712 124.732 140.665 124.621 140.64C124.51 140.615 124.395 140.612 124.283 140.631C124.171 140.65 124.064 140.691 123.968 140.752L122.271 141.883L121.038 145.226C120.972 145.389 120.966 145.57 121.021 145.736C121.076 145.903 121.188 146.045 121.338 146.137L124.862 148.156C124.711 148.064 124.597 147.922 124.542 147.753C124.487 147.585 124.494 147.403 124.562 147.24L126.084 143.15Z" fill="white"></path> <path d="M146.278 112.565C146.18 112.511 146.07 112.488 145.959 112.497C145.848 112.506 145.743 112.547 145.656 112.616L144.377 113.459L144.094 114.216C144.021 114.463 144.013 114.725 144.071 114.976C144.13 115.227 144.253 115.459 144.428 115.648C144.633 115.872 144.822 116.11 144.994 116.36C145.054 116.457 145.133 116.54 145.226 116.606C145.319 116.671 145.424 116.718 145.535 116.742C145.646 116.767 145.761 116.77 145.873 116.75C145.985 116.73 146.092 116.688 146.187 116.626L149.168 114.663C149.253 114.596 149.355 114.555 149.462 114.544C149.569 114.533 149.677 114.553 149.774 114.601L146.278 112.565ZM141.69 123.499C141.272 121.089 139.733 119.879 137.731 120.048C137.929 120.498 138.068 120.972 138.144 121.457C138.805 125.287 136.379 130.711 132.736 133.579C131.652 134.503 130.324 135.093 128.912 135.276C130.111 137.844 133.137 138.104 136.266 135.61C139.931 132.759 142.346 127.329 141.69 123.499ZM141.752 107.146C141.681 107.103 141.602 107.072 141.521 107.055L139.258 106.546C139.013 106.499 138.76 106.528 138.533 106.629C138.305 106.73 138.114 106.898 137.985 107.112L135.875 111.139C135.757 111.358 135.595 111.551 135.4 111.705C135.292 111.799 135.172 111.879 135.044 111.943L135.7 114.143C135.731 114.249 135.785 114.348 135.858 114.431C135.93 114.515 136.02 114.582 136.121 114.628C136.222 114.673 136.332 114.697 136.443 114.696C136.554 114.695 136.663 114.671 136.763 114.624C137.213 114.443 137.674 114.292 138.144 114.171C138.435 114.083 138.708 113.941 138.947 113.753C139.143 113.599 139.305 113.407 139.422 113.187L141.543 109.182C141.673 108.97 141.864 108.802 142.092 108.701C142.319 108.6 142.571 108.571 142.816 108.616L145.079 109.126C145.157 109.142 145.233 109.168 145.305 109.205L141.752 107.146ZM135.428 146.103C135.325 146.014 135.252 145.895 135.219 145.763L134.461 143.241C134.432 143.133 134.379 143.033 134.306 142.949C134.234 142.864 134.144 142.796 134.042 142.75C133.941 142.704 133.83 142.681 133.719 142.683C133.607 142.685 133.498 142.711 133.398 142.76C132.948 142.942 132.487 143.093 132.017 143.212C131.865 143.254 131.719 143.315 131.582 143.393L131.684 143.716C131.703 143.797 131.738 143.874 131.787 143.941C131.837 144.008 131.9 144.064 131.972 144.106L135.428 146.103ZM131.129 109.182C131.052 109.143 130.967 109.121 130.88 109.12C130.728 109.121 130.582 109.178 130.467 109.278L127.102 111.92C127.054 111.957 127.011 111.999 126.972 112.044C126.939 112.076 126.908 112.11 126.881 112.146C126.76 112.308 126.661 112.485 126.587 112.672C126.587 112.717 126.559 112.763 126.547 112.802C126.484 112.984 126.453 113.176 126.457 113.368L126.661 116.57C126.66 117.13 126.475 117.675 126.135 118.12C125.569 118.781 125.065 119.471 124.573 120.184C124.384 120.438 124.127 120.634 123.832 120.75C123.739 120.793 123.64 120.824 123.538 120.84C123.491 120.846 123.444 120.846 123.397 120.84C123.333 120.849 123.268 120.849 123.204 120.84L121.044 120.733H120.993C120.933 120.725 120.872 120.725 120.812 120.733L120.653 120.767C120.593 120.785 120.534 120.807 120.478 120.835C120.366 120.887 120.262 120.954 120.167 121.033C120.021 121.154 119.901 121.304 119.816 121.474L117.785 125.999C117.698 126.193 117.686 126.411 117.749 126.614C117.813 126.816 117.948 126.988 118.13 127.097L120.529 128.477C120.609 128.676 120.629 128.894 120.585 129.105C120.419 129.821 120.293 130.546 120.206 131.277C120.124 131.832 119.871 132.348 119.482 132.753H119.448L116.496 135.463C116.444 135.512 116.397 135.565 116.354 135.621C116.308 135.683 116.268 135.749 116.235 135.819C116.042 136.146 115.965 136.529 116.015 136.905L116.58 140.158C116.591 140.245 116.62 140.329 116.665 140.405C116.71 140.481 116.769 140.547 116.841 140.599L120.365 142.63C120.228 142.525 120.139 142.37 120.116 142.2L119.539 139.106C119.507 138.898 119.521 138.686 119.578 138.483C119.648 138.162 119.809 137.867 120.042 137.635L122.984 134.925H123.018C123.408 134.52 123.664 134.005 123.753 133.449C123.835 132.718 123.96 131.993 124.126 131.277C124.189 131.026 124.16 130.762 124.045 130.531C123.93 130.299 123.736 130.117 123.499 130.015L121.751 129.269C121.541 129.178 121.376 129.008 121.292 128.796C121.207 128.584 121.209 128.348 121.298 128.137L123.329 123.612C123.408 123.44 123.526 123.289 123.674 123.171C123.922 122.957 124.24 122.842 124.568 122.849L126.734 122.95C126.95 122.958 127.165 122.915 127.362 122.826C127.659 122.713 127.916 122.516 128.103 122.26C128.589 121.553 129.116 120.857 129.664 120.196C130.007 119.752 130.19 119.206 130.185 118.646L129.987 115.45C129.977 115.258 130.004 115.066 130.066 114.884C130.169 114.545 130.365 114.241 130.632 114.007L134.026 111.366C134.111 111.281 134.222 111.226 134.341 111.209C134.46 111.192 134.581 111.213 134.687 111.269L131.129 109.182ZM126.084 143.15C126.152 142.904 126.155 142.644 126.092 142.396C126.03 142.148 125.904 141.921 125.727 141.736C125.523 141.512 125.334 141.274 125.162 141.023C125.101 140.927 125.022 140.844 124.929 140.778C124.837 140.712 124.732 140.665 124.621 140.64C124.51 140.615 124.395 140.612 124.283 140.631C124.171 140.65 124.064 140.691 123.968 140.752L122.271 141.883L121.038 145.226C120.972 145.389 120.966 145.57 121.021 145.736C121.076 145.903 121.188 146.045 121.338 146.137L124.862 148.156C124.711 148.064 124.597 147.922 124.542 147.753C124.487 147.585 124.494 147.403 124.562 147.24L126.084 143.15Z" fill="#9DCFFD"></path> <path d="M122.971 134.898L120.03 137.608C119.796 137.84 119.635 138.135 119.566 138.456L116.031 136.42C116.071 136.257 116.13 136.1 116.206 135.951C116.239 135.881 116.279 135.814 116.325 135.753C116.368 135.696 116.415 135.643 116.466 135.594L119.436 132.885L122.971 134.898Z" fill="#5AB0FF"></path> <path d="M127.379 122.775C127.182 122.865 126.967 122.907 126.751 122.9L124.585 122.798C124.257 122.791 123.939 122.906 123.691 123.12L120.156 121.078C120.251 120.999 120.355 120.933 120.467 120.88C120.523 120.853 120.582 120.83 120.642 120.812L120.801 120.778C120.861 120.77 120.922 120.77 120.982 120.778H121.033L123.193 120.886C123.257 120.894 123.322 120.894 123.386 120.886H123.527C123.623 120.859 123.717 120.827 123.81 120.79L127.379 122.775Z" fill="#5AB0FF"></path> <path d="M149.807 114.596C149.71 114.549 149.601 114.531 149.494 114.544C149.386 114.557 149.285 114.601 149.202 114.67L146.221 116.627C146.124 116.687 146.017 116.728 145.905 116.748C145.793 116.767 145.678 116.764 145.568 116.738C145.457 116.713 145.352 116.666 145.259 116.601C145.167 116.535 145.088 116.452 145.027 116.355C144.855 116.105 144.666 115.867 144.461 115.643C144.285 115.458 144.16 115.23 144.099 114.982C144.037 114.734 144.041 114.474 144.111 114.229L144.394 113.465L145.672 112.628C145.758 112.557 145.863 112.514 145.974 112.503C146.084 112.492 146.196 112.514 146.294 112.565L149.807 114.596Z" fill="#5AB0FF"></path> <path d="M145.287 109.182C145.216 109.146 145.14 109.119 145.061 109.103L142.799 108.594C142.554 108.548 142.301 108.578 142.074 108.679C141.847 108.78 141.656 108.947 141.526 109.159L139.416 113.187C139.299 113.407 139.137 113.599 138.941 113.753L135.4 111.705C135.595 111.551 135.757 111.358 135.875 111.139L137.985 107.112C138.113 106.898 138.304 106.73 138.532 106.629C138.76 106.528 139.013 106.499 139.257 106.546L141.52 107.055C141.602 107.072 141.68 107.103 141.752 107.146L145.287 109.182Z" fill="#5AB0FF"></path> <path d="M134.671 111.223C134.565 111.167 134.443 111.146 134.324 111.163C134.205 111.18 134.095 111.235 134.009 111.32L130.615 113.961C130.348 114.195 130.152 114.499 130.049 114.838L126.514 112.802C126.514 112.762 126.514 112.717 126.554 112.671C126.628 112.484 126.727 112.307 126.848 112.145C126.875 112.109 126.905 112.075 126.938 112.044C126.977 111.998 127.021 111.956 127.068 111.919L130.434 109.278C130.548 109.177 130.695 109.121 130.847 109.119C130.934 109.121 131.019 109.142 131.096 109.181L134.671 111.223Z" fill="#5AB0FF"></path> <path opacity="0.6" d="M122.971 134.898L120.03 137.608C119.796 137.84 119.635 138.135 119.566 138.456L116.031 136.42C116.071 136.257 116.13 136.1 116.206 135.951C116.239 135.881 116.279 135.814 116.325 135.753C116.368 135.696 116.415 135.643 116.466 135.594L119.436 132.885L122.971 134.898Z" fill="white"></path> <path opacity="0.6" d="M127.379 122.775C127.182 122.865 126.967 122.907 126.751 122.9L124.585 122.798C124.257 122.791 123.939 122.906 123.691 123.12L120.156 121.078C120.251 120.999 120.355 120.933 120.467 120.88C120.523 120.853 120.582 120.83 120.642 120.812L120.801 120.778C120.861 120.77 120.922 120.77 120.982 120.778H121.033L123.193 120.886C123.257 120.894 123.322 120.894 123.386 120.886H123.527C123.623 120.859 123.717 120.827 123.81 120.79L127.379 122.775Z" fill="white"></path> <path opacity="0.6" d="M149.807 114.596C149.71 114.549 149.601 114.531 149.494 114.544C149.386 114.557 149.285 114.601 149.202 114.67L146.221 116.627C146.124 116.687 146.017 116.728 145.905 116.748C145.793 116.767 145.678 116.764 145.568 116.738C145.457 116.713 145.352 116.666 145.259 116.601C145.167 116.535 145.088 116.452 145.027 116.355C144.855 116.105 144.666 115.867 144.461 115.643C144.285 115.458 144.16 115.23 144.099 114.982C144.037 114.734 144.041 114.474 144.111 114.229L144.394 113.465L145.672 112.628C145.758 112.557 145.863 112.514 145.974 112.503C146.084 112.492 146.196 112.514 146.294 112.565L149.807 114.596Z" fill="white"></path> <path opacity="0.6" d="M145.287 109.182C145.216 109.146 145.14 109.119 145.061 109.103L142.799 108.594C142.554 108.548 142.301 108.578 142.074 108.679C141.847 108.78 141.656 108.947 141.526 109.159L139.416 113.187C139.299 113.407 139.137 113.599 138.941 113.753L135.4 111.705C135.595 111.551 135.757 111.358 135.875 111.139L137.985 107.112C138.113 106.898 138.304 106.73 138.532 106.629C138.76 106.528 139.013 106.499 139.257 106.546L141.52 107.055C141.602 107.072 141.68 107.103 141.752 107.146L145.287 109.182Z" fill="white"></path> <path opacity="0.6" d="M134.671 111.223C134.565 111.167 134.443 111.146 134.324 111.163C134.205 111.18 134.095 111.235 134.009 111.32L130.615 113.961C130.348 114.195 130.152 114.499 130.049 114.838L126.514 112.802C126.514 112.762 126.514 112.717 126.554 112.671C126.628 112.484 126.727 112.307 126.848 112.145C126.875 112.109 126.905 112.075 126.938 112.044C126.977 111.998 127.021 111.956 127.068 111.919L130.434 109.278C130.548 109.177 130.695 109.121 130.847 109.119C130.934 109.121 131.019 109.142 131.096 109.181L134.671 111.223Z" fill="white"></path> <path d="M150.65 118.3L150.084 115.053C150.071 114.957 150.033 114.866 149.974 114.788C149.916 114.71 149.838 114.649 149.749 114.611C149.659 114.572 149.562 114.557 149.465 114.567C149.368 114.577 149.275 114.612 149.196 114.669L146.215 116.626C146.119 116.687 146.012 116.729 145.9 116.748C145.788 116.768 145.673 116.765 145.562 116.74C145.45 116.714 145.346 116.667 145.253 116.601C145.16 116.535 145.082 116.451 145.022 116.354C144.851 116.105 144.662 115.868 144.456 115.647C144.277 115.461 144.15 115.23 144.087 114.979C144.024 114.728 144.029 114.465 144.099 114.216L145.615 110.109C145.658 110.006 145.676 109.894 145.669 109.782C145.663 109.67 145.631 109.561 145.577 109.463C145.523 109.364 145.447 109.28 145.356 109.214C145.265 109.149 145.16 109.105 145.05 109.086L142.787 108.588C142.543 108.54 142.289 108.568 142.061 108.669C141.833 108.771 141.642 108.94 141.514 109.153L139.404 113.175C139.114 113.641 138.66 113.982 138.132 114.131C137.661 114.256 137.198 114.409 136.746 114.59C136.645 114.636 136.536 114.661 136.425 114.661C136.315 114.661 136.205 114.637 136.104 114.591C136.004 114.545 135.914 114.477 135.843 114.393C135.771 114.309 135.718 114.21 135.688 114.103L134.924 111.586C134.905 111.487 134.859 111.394 134.791 111.319C134.724 111.243 134.637 111.187 134.541 111.157C134.444 111.126 134.341 111.122 134.243 111.145C134.144 111.167 134.053 111.216 133.98 111.286L130.586 113.933C130.383 114.111 130.221 114.33 130.111 114.576C130.001 114.822 129.945 115.089 129.947 115.359L130.15 118.56C130.149 119.119 129.964 119.662 129.624 120.105C129.059 120.767 128.549 121.457 128.063 122.175C127.903 122.387 127.696 122.56 127.459 122.68C127.222 122.8 126.96 122.863 126.694 122.865L124.533 122.763C124.276 122.762 124.023 122.832 123.803 122.966C123.584 123.099 123.405 123.292 123.289 123.521L121.258 128.081C121.171 128.291 121.169 128.527 121.254 128.739C121.338 128.95 121.502 129.12 121.711 129.212L123.498 130.015C123.719 130.119 123.898 130.295 124.007 130.514C124.116 130.732 124.148 130.981 124.098 131.22C123.932 131.937 123.805 132.662 123.719 133.392C123.638 133.948 123.384 134.464 122.995 134.869L120.014 137.606C119.827 137.805 119.688 138.043 119.606 138.302C119.524 138.561 119.501 138.836 119.538 139.105L120.104 142.358C120.117 142.454 120.155 142.546 120.214 142.623C120.273 142.701 120.35 142.762 120.44 142.8C120.529 142.839 120.627 142.854 120.724 142.844C120.82 142.834 120.913 142.799 120.992 142.743L123.973 140.78C124.069 140.718 124.176 140.677 124.289 140.657C124.401 140.638 124.516 140.641 124.627 140.666C124.738 140.691 124.843 140.738 124.935 140.804C125.028 140.871 125.107 140.954 125.167 141.051C125.338 141.302 125.528 141.54 125.732 141.764C125.908 141.949 126.032 142.177 126.092 142.425C126.153 142.673 126.148 142.933 126.077 143.178L124.562 147.285C124.519 147.389 124.501 147.501 124.508 147.613C124.514 147.725 124.546 147.834 124.6 147.932C124.654 148.03 124.73 148.115 124.821 148.18C124.912 148.245 125.017 148.289 125.127 148.309L127.39 148.812C127.637 148.856 127.892 148.823 128.12 148.716C128.348 148.61 128.537 148.436 128.663 148.218L130.772 144.202C131.062 143.734 131.516 143.39 132.045 143.24C132.518 143.121 132.981 142.968 133.431 142.782C133.532 142.735 133.641 142.711 133.752 142.711C133.862 142.71 133.972 142.734 134.073 142.781C134.173 142.827 134.263 142.895 134.334 142.979C134.406 143.063 134.459 143.162 134.489 143.269L135.247 145.786C135.266 145.886 135.312 145.98 135.38 146.056C135.448 146.132 135.535 146.189 135.632 146.22C135.73 146.25 135.834 146.254 135.933 146.231C136.033 146.207 136.124 146.157 136.197 146.086L139.563 143.444C139.765 143.266 139.927 143.047 140.038 142.801C140.148 142.555 140.204 142.288 140.202 142.019L139.998 138.817C139.997 138.256 140.182 137.711 140.524 137.267C141.071 136.603 141.592 135.915 142.086 135.202C142.245 134.989 142.451 134.815 142.689 134.694C142.926 134.574 143.188 134.509 143.455 134.507L145.615 134.614C145.873 134.614 146.126 134.543 146.346 134.408C146.566 134.274 146.744 134.08 146.86 133.85L148.891 129.291C148.978 129.081 148.98 128.845 148.895 128.633C148.811 128.422 148.646 128.252 148.438 128.16L146.69 127.368C146.469 127.264 146.29 127.088 146.181 126.869C146.073 126.651 146.041 126.402 146.091 126.163C146.258 125.445 146.382 124.718 146.464 123.985C146.552 123.43 146.806 122.916 147.194 122.509L150.175 119.771C150.358 119.576 150.495 119.343 150.577 119.089C150.659 118.835 150.684 118.565 150.65 118.3ZM136.282 135.621C132.639 138.489 129.149 137.708 128.487 133.879C127.825 130.049 130.246 124.624 133.895 121.756C137.543 118.889 141.034 119.669 141.69 123.499C142.346 127.328 139.931 132.759 136.282 135.621Z" fill="#5AB0FF"></path> <path opacity="0.2" d="M150.65 118.3L150.084 115.053C150.071 114.957 150.033 114.866 149.974 114.788C149.916 114.71 149.838 114.649 149.749 114.611C149.659 114.572 149.562 114.557 149.465 114.567C149.368 114.577 149.275 114.612 149.196 114.669L146.215 116.626C146.119 116.687 146.012 116.729 145.9 116.748C145.788 116.768 145.673 116.765 145.562 116.74C145.45 116.714 145.346 116.667 145.253 116.601C145.16 116.535 145.082 116.451 145.022 116.354C144.851 116.105 144.662 115.868 144.456 115.647C144.277 115.461 144.15 115.23 144.087 114.979C144.024 114.728 144.029 114.465 144.099 114.216L145.615 110.109C145.658 110.006 145.676 109.894 145.669 109.782C145.663 109.67 145.631 109.561 145.577 109.463C145.523 109.364 145.447 109.28 145.356 109.214C145.265 109.149 145.16 109.105 145.05 109.086L142.787 108.588C142.543 108.54 142.289 108.568 142.061 108.669C141.833 108.771 141.642 108.94 141.514 109.153L139.404 113.175C139.114 113.641 138.66 113.982 138.132 114.131C137.661 114.256 137.198 114.409 136.746 114.59C136.645 114.636 136.536 114.661 136.425 114.661C136.315 114.661 136.205 114.637 136.104 114.591C136.004 114.545 135.914 114.477 135.843 114.393C135.771 114.309 135.718 114.21 135.688 114.103L134.924 111.586C134.905 111.487 134.859 111.394 134.791 111.319C134.724 111.243 134.637 111.187 134.541 111.157C134.444 111.126 134.341 111.122 134.243 111.145C134.144 111.167 134.053 111.216 133.98 111.286L130.586 113.933C130.383 114.111 130.221 114.33 130.111 114.576C130.001 114.822 129.945 115.089 129.947 115.359L130.15 118.56C130.149 119.119 129.964 119.662 129.624 120.105C129.059 120.767 128.549 121.457 128.063 122.175C127.903 122.387 127.696 122.56 127.459 122.68C127.222 122.8 126.96 122.863 126.694 122.865L124.533 122.763C124.276 122.762 124.023 122.832 123.803 122.966C123.584 123.099 123.405 123.292 123.289 123.521L121.258 128.081C121.171 128.291 121.169 128.527 121.254 128.739C121.338 128.95 121.502 129.12 121.711 129.212L123.498 130.015C123.719 130.119 123.898 130.295 124.007 130.514C124.116 130.732 124.148 130.981 124.098 131.22C123.932 131.937 123.805 132.662 123.719 133.392C123.638 133.948 123.384 134.464 122.995 134.869L120.014 137.606C119.827 137.805 119.688 138.043 119.606 138.302C119.524 138.561 119.501 138.836 119.538 139.105L120.104 142.358C120.117 142.454 120.155 142.546 120.214 142.623C120.273 142.701 120.35 142.762 120.44 142.8C120.529 142.839 120.627 142.854 120.724 142.844C120.82 142.834 120.913 142.799 120.992 142.743L123.973 140.78C124.069 140.718 124.176 140.677 124.289 140.657C124.401 140.638 124.516 140.641 124.627 140.666C124.738 140.691 124.843 140.738 124.935 140.804C125.028 140.871 125.107 140.954 125.167 141.051C125.338 141.302 125.528 141.54 125.732 141.764C125.908 141.949 126.032 142.177 126.092 142.425C126.153 142.673 126.148 142.933 126.077 143.178L124.562 147.285C124.519 147.389 124.501 147.501 124.508 147.613C124.514 147.725 124.546 147.834 124.6 147.932C124.654 148.03 124.73 148.115 124.821 148.18C124.912 148.245 125.017 148.289 125.127 148.309L127.39 148.812C127.637 148.856 127.892 148.823 128.12 148.716C128.348 148.61 128.537 148.436 128.663 148.218L130.772 144.202C131.062 143.734 131.516 143.39 132.045 143.24C132.518 143.121 132.981 142.968 133.431 142.782C133.532 142.735 133.641 142.711 133.752 142.711C133.862 142.71 133.972 142.734 134.073 142.781C134.173 142.827 134.263 142.895 134.334 142.979C134.406 143.063 134.459 143.162 134.489 143.269L135.247 145.786C135.266 145.886 135.312 145.98 135.38 146.056C135.448 146.132 135.535 146.189 135.632 146.22C135.73 146.25 135.834 146.254 135.933 146.231C136.033 146.207 136.124 146.157 136.197 146.086L139.563 143.444C139.765 143.266 139.927 143.047 140.038 142.801C140.148 142.555 140.204 142.288 140.202 142.019L139.998 138.817C139.997 138.256 140.182 137.711 140.524 137.267C141.071 136.603 141.592 135.915 142.086 135.202C142.245 134.989 142.451 134.815 142.689 134.694C142.926 134.574 143.188 134.509 143.455 134.507L145.615 134.614C145.873 134.614 146.126 134.543 146.346 134.408C146.566 134.274 146.744 134.08 146.86 133.85L148.891 129.291C148.978 129.081 148.98 128.845 148.895 128.633C148.811 128.422 148.646 128.252 148.438 128.16L146.69 127.368C146.469 127.264 146.29 127.088 146.181 126.869C146.073 126.651 146.041 126.402 146.091 126.163C146.258 125.445 146.382 124.718 146.464 123.985C146.552 123.43 146.806 122.916 147.194 122.509L150.175 119.771C150.358 119.576 150.495 119.343 150.577 119.089C150.659 118.835 150.684 118.565 150.65 118.3ZM136.282 135.621C132.639 138.489 129.149 137.708 128.487 133.879C127.825 130.049 130.246 124.624 133.895 121.756C137.543 118.889 141.034 119.669 141.69 123.499C142.346 127.328 139.931 132.759 136.282 135.621Z" fill="white"></path> </svg> 