<?xml version="1.0" encoding="UTF-8"?> <svg xmlns="http://www.w3.org/2000/svg" width="63" height="63" viewBox="0 0 63 63" fill="none"> <path d="M31.3933 0.719776C48.322 0.719776 62.0455 14.4448 62.0455 31.3755C62.0455 48.3062 48.322 62.0312 31.3933 62.0312C14.4646 62.0312 0.741211 48.3062 0.741211 31.3755C0.741211 14.4448 14.4646 0.719776 31.3933 0.719776Z" fill="white"></path> <path d="M19.7238 31.8269C19.7238 34.9949 21.3798 36.1469 23.5998 36.1469C26.0238 36.1469 27.4998 34.9469 27.4998 31.8269C27.4998 28.8869 26.2878 27.5069 23.7438 27.5069C21.0318 27.5069 19.7238 28.8869 19.7238 31.8269ZM20.8518 31.8629C20.8518 29.5949 21.7278 28.4789 23.5998 28.4789C25.3398 28.4789 26.3718 29.2949 26.3718 31.8629C26.3718 34.3469 25.3518 35.1749 23.6598 35.1749C22.0038 35.1749 20.8518 34.3469 20.8518 31.8629ZM35.2888 27.9029C34.8688 27.7709 34.1248 27.5309 33.0448 27.5309C30.4888 27.5309 29.1808 28.7909 29.1808 31.8269C29.1808 34.8749 30.4408 36.1229 33.0928 36.1229C34.2328 36.1229 35.1328 35.8109 35.5168 35.5949L35.5168 34.5029C35.1568 34.7069 34.2328 35.1509 33.1048 35.1509C31.3648 35.1509 30.3088 34.3469 30.3088 31.7189C30.3088 29.3189 31.2328 28.4909 33.0088 28.4909C34.0048 28.4909 34.8568 28.8029 35.2888 29.1029L35.2888 27.9029ZM42.6482 27.9029C42.2282 27.7709 41.4842 27.5309 40.4042 27.5309C37.8482 27.5309 36.5402 28.7909 36.5402 31.8269C36.5402 34.8749 37.8002 36.1229 40.4522 36.1229C41.5922 36.1229 42.4922 35.8109 42.8762 35.5949L42.8762 34.5029C42.5162 34.7069 41.5922 35.1509 40.4642 35.1509C38.7242 35.1509 37.6682 34.3469 37.6682 31.7189C37.6682 29.3189 38.5922 28.4909 40.3682 28.4909C41.3642 28.4909 42.2162 28.8029 42.6482 29.1029L42.6482 27.9029Z" fill="#737688"></path> </svg> 