<?xml version="1.0" encoding="UTF-8"?> <svg xmlns="http://www.w3.org/2000/svg" width="40" height="40" viewBox="0 0 40 40" fill="none"> <circle cx="20" cy="20" r="20" fill="#6BEAC7"></circle> <path d="M20 31.25C26.2132 31.25 31.25 26.2132 31.25 20C31.25 13.7868 26.2132 8.75 20 8.75C13.7868 8.75 8.75 13.7868 8.75 20C8.75 26.2132 13.7868 31.25 20 31.25Z" stroke="white" stroke-width="2" stroke-linecap="round" stroke-linejoin="round"></path> <path d="M24.8723 22.812C24.3781 23.6668 23.6677 24.3765 22.8125 24.87C21.9573 25.3634 20.9873 25.6232 19.9999 25.6232C19.0125 25.6232 18.0425 25.3634 17.1873 24.87C16.332 24.3766 15.6217 23.6669 15.1274 22.8121" stroke="white" stroke-width="2" stroke-linecap="round" stroke-linejoin="round"></path> <path d="M15.7812 19.0625C16.5579 19.0625 17.1875 18.4329 17.1875 17.6562C17.1875 16.8796 16.5579 16.25 15.7812 16.25C15.0046 16.25 14.375 16.8796 14.375 17.6562C14.375 18.4329 15.0046 19.0625 15.7812 19.0625Z" fill="white"></path> <path d="M24.2188 19.0625C24.9954 19.0625 25.625 18.4329 25.625 17.6562C25.625 16.8796 24.9954 16.25 24.2188 16.25C23.4421 16.25 22.8125 16.8796 22.8125 17.6562C22.8125 18.4329 23.4421 19.0625 24.2188 19.0625Z" fill="white"></path> </svg> 