<?xml version="1.0" encoding="UTF-8"?> <svg xmlns="http://www.w3.org/2000/svg" width="115" height="115" viewBox="0 0 115 115" fill="none"> <path d="M57.2983 0.212692C88.9432 0.212692 114.597 25.869 114.597 57.5177C114.597 89.1664 88.9432 114.823 57.2983 114.823C25.6533 114.823 0 89.1664 0 57.5177C0 25.869 25.6533 0.212692 57.2983 0.212692Z" fill="white"></path> <path d="M35.7971 53.8145L36.8771 53.8145L36.8771 51.1145C37.2251 51.1505 37.6331 51.1625 37.9571 51.1625C40.4531 51.1625 41.4731 50.2025 41.4731 48.0785C41.4731 46.2305 40.5251 45.3425 37.9571 45.3425C37.1531 45.3425 36.3131 45.4265 35.7971 45.4865L35.7971 53.8145ZM36.8771 50.1665L36.8771 46.3505C37.2251 46.3145 37.6331 46.3025 38.0051 46.3025C39.7331 46.3025 40.3451 46.7705 40.3451 48.1865C40.3451 49.7105 39.7211 50.2145 37.9571 50.2145C37.5851 50.2145 37.2251 50.2025 36.8771 50.1665ZM46.7874 53.8145L47.6994 53.8145L47.6994 49.4945C47.6994 47.8505 46.9434 47.3345 45.2634 47.3345C44.6514 47.3345 43.7514 47.4905 43.2234 47.7785L43.2234 48.9305C43.6554 48.5705 44.4354 48.2465 45.1554 48.2465C46.2234 48.2465 46.7034 48.4865 46.7034 49.5065L46.7034 50.1065L45.2754 50.1065C43.4514 50.1065 42.7434 50.6465 42.7434 52.0505C42.7434 53.2745 43.5354 53.9465 44.8074 53.9465C45.7194 53.9465 46.4034 53.4785 46.7274 52.9025L46.7874 53.8145ZM43.7634 51.8945C43.7634 51.1265 44.0994 50.8385 45.3114 50.8385L46.7034 50.8385L46.7034 51.3785C46.7034 52.3025 46.1754 52.9865 44.9994 52.9865C44.1234 52.9865 43.7634 52.5785 43.7634 51.8945ZM54.9892 44.5625C54.4972 44.8145 53.0572 44.8865 52.4332 44.9705C50.3452 45.2585 49.5652 46.6385 49.5652 49.9505C49.5652 52.7225 50.5492 53.9345 52.5892 53.9345C54.4852 53.9345 55.5412 52.9265 55.5412 50.4905C55.5412 48.1865 54.5452 47.5385 52.9732 47.5385C52.0252 47.5385 51.1252 47.9345 50.5732 48.7505L50.5372 48.7385C50.7052 46.8065 51.0892 46.1105 52.8292 46.0025C54.1612 45.9185 54.7492 45.8585 54.9892 45.7265L54.9892 44.5625ZM52.6132 52.9865C51.3292 52.9865 50.5972 52.2785 50.5972 50.3825C50.5972 49.1465 51.4372 48.4505 52.6612 48.4505C53.8252 48.4505 54.4852 48.9185 54.4852 50.6105C54.4852 52.2785 53.8732 52.9865 52.6132 52.9865ZM56.9817 50.6105C56.9817 52.7105 58.0497 53.9465 59.9457 53.9465C61.6017 53.9465 62.9217 53.0345 62.9217 50.6465C62.9217 48.3425 61.8057 47.3345 60.0777 47.3345C58.2537 47.3345 56.9817 48.4145 56.9817 50.6105ZM57.9777 50.6105C57.9777 49.0505 58.6857 48.2225 59.9457 48.2225C61.2177 48.2225 61.9257 49.0025 61.9257 50.6105L61.9257 50.6465C61.9257 52.3265 61.2177 53.0465 60.0297 53.0465C58.6977 53.0465 57.9777 52.1585 57.9777 50.6465L57.9777 50.6105ZM65.9245 53.8145L66.9205 53.8145L66.9205 48.3905L68.9725 48.3905L68.9725 47.4545L63.8605 47.4545L63.8605 48.3905L65.9245 48.3905L65.9245 53.8145ZM73.9515 53.8145L74.8635 53.8145L74.8635 49.4945C74.8635 47.8505 74.1075 47.3345 72.4275 47.3345C71.8155 47.3345 70.9155 47.4905 70.3875 47.7785L70.3875 48.9305C70.8195 48.5705 71.5995 48.2465 72.3195 48.2465C73.3875 48.2465 73.8675 48.4865 73.8675 49.5065L73.8675 50.1065L72.4395 50.1065C70.6155 50.1065 69.9075 50.6465 69.9075 52.0505C69.9075 53.2745 70.6995 53.9465 71.9715 53.9465C72.8835 53.9465 73.5675 53.4785 73.8915 52.9025L73.9515 53.8145ZM70.9275 51.8945C70.9275 51.1265 71.2635 50.8385 72.4755 50.8385L73.8675 50.8385L73.8675 51.3785C73.8675 52.3025 73.3395 52.9865 72.1635 52.9865C71.2875 52.9865 70.9275 52.5785 70.9275 51.8945ZM19.2231 61.6585C18.8511 61.4665 18.3951 61.3345 17.6151 61.3345C15.5511 61.3345 14.5071 62.3425 14.5071 64.5145C14.5071 67.0705 15.6591 67.9465 17.5791 67.9465C18.4311 67.9465 19.0911 67.7785 19.4271 67.5145L19.4271 66.4345C19.0071 66.7825 18.3711 66.9865 17.7231 66.9865C16.3311 66.9865 15.5391 66.3865 15.5391 64.5985C15.5391 62.8225 16.3191 62.2825 17.4831 62.2825C18.1911 62.2825 18.8391 62.5105 19.2231 62.7865L19.2231 61.6585ZM23.9177 69.3745L24.8537 69.3745L24.8537 67.8145L29.5697 67.8145L29.5697 69.3745L30.5057 69.3745L30.5057 66.8665L29.5457 66.8665L29.5457 61.4545L25.3097 61.4545L25.3097 62.1385C25.3097 64.3825 25.0457 65.9785 24.6377 66.8665L23.9177 66.8665L23.9177 69.3745ZM28.5497 66.8665L25.6217 66.8665C26.0537 65.8345 26.2097 64.3705 26.2457 62.8345L26.2577 62.3905L28.5497 62.3905L28.5497 66.8665ZM31.6048 64.6105C31.6048 66.7105 32.6728 67.9465 34.5688 67.9465C36.2248 67.9465 37.5448 67.0345 37.5448 64.6465C37.5448 62.3425 36.4288 61.3345 34.7008 61.3345C32.8768 61.3345 31.6048 62.4145 31.6048 64.6105ZM32.6008 64.6105C32.6008 63.0505 33.3088 62.2225 34.5688 62.2225C35.8408 62.2225 36.5488 63.0025 36.5488 64.6105L36.5488 64.6465C36.5488 66.3265 35.8408 67.0465 34.6528 67.0465C33.3208 67.0465 32.6008 66.1585 32.6008 64.6465L32.6008 64.6105ZM38.6276 67.8865C38.8076 67.9465 38.9156 67.9465 39.1076 67.9465C40.0556 67.9465 40.8956 67.3105 41.0396 62.7985L41.0516 62.4145L43.3796 62.4145L43.3796 67.8145L44.3756 67.8145L44.3756 61.4545L40.1516 61.4545L40.1276 62.2825C40.0076 66.5665 39.4436 66.7465 38.9396 66.7465C38.8196 66.7465 38.7356 66.7345 38.6276 66.6985L38.6276 67.8865ZM47.0569 67.8145L48.8449 64.9345L49.8049 64.9345L49.8049 67.8145L50.8009 67.8145L50.8009 64.9345L51.8089 64.9345L53.5369 67.8145L54.7129 67.8145L52.6489 64.4785L54.5209 61.4545L53.4529 61.4545L51.8089 64.1545L50.8009 64.1545L50.8009 61.4545L49.8049 61.4545L49.8049 64.1545L48.8089 64.1545L47.2249 61.4545L46.0849 61.4545L47.9809 64.5265L45.9049 67.8145L47.0569 67.8145ZM56.2243 67.8145L57.2203 67.8145L57.2203 65.0665L60.3883 65.0665L60.3883 67.8145L61.3843 67.8145L61.3843 61.4545L60.3883 61.4545L60.3883 64.1185L57.2203 64.1185L57.2203 61.4545L56.2243 61.4545L56.2243 67.8145ZM63.6891 67.8145L64.5771 67.8145L67.0491 64.2865C67.4091 63.8065 67.7811 63.1945 67.9851 62.8225L68.0211 62.8345C67.9851 63.2785 67.9491 64.3225 67.9491 65.2465L67.9491 67.8145L68.9451 67.8145L68.9451 61.4545L68.0691 61.4545L65.6571 64.9465C65.3091 65.4265 64.9611 65.9065 64.6611 66.4225L64.6131 66.3985C64.6491 66.0865 64.6851 65.2945 64.6851 64.5505L64.6851 61.4545L63.6891 61.4545L63.6891 67.8145ZM75.6037 67.8145L76.8157 67.8145L74.1397 64.4785L76.5637 61.4545L75.4237 61.4545L73.2997 64.1545L72.2437 64.1545L72.2437 61.4545L71.2477 61.4545L71.2477 67.8145L72.2437 67.8145L72.2437 64.9345L73.2877 64.9345L75.6037 67.8145ZM81.8206 67.8145L82.7326 67.8145L82.7326 63.4945C82.7326 61.8505 81.9766 61.3345 80.2966 61.3345C79.6846 61.3345 78.7846 61.4905 78.2566 61.7785L78.2566 62.9305C78.6886 62.5705 79.4686 62.2465 80.1886 62.2465C81.2566 62.2465 81.7366 62.4865 81.7366 63.5065L81.7366 64.1065L80.3086 64.1065C78.4846 64.1065 77.7766 64.6465 77.7766 66.0505C77.7766 67.2745 78.5686 67.9465 79.8406 67.9465C80.7526 67.9465 81.4366 67.4785 81.7606 66.9025L81.8206 67.8145ZM78.7966 65.8945C78.7966 65.1265 79.1326 64.8385 80.3446 64.8385L81.7366 64.8385L81.7366 65.3785C81.7366 66.3025 81.2086 66.9865 80.0326 66.9865C79.1566 66.9865 78.7966 66.5785 78.7966 65.8945ZM84.9704 67.8145L85.9664 67.8145L85.9664 64.5145C85.9664 63.7825 85.8944 63.0505 85.8344 62.3305C86.2184 63.1225 86.5784 63.8665 86.8544 64.3705L87.8984 66.2785L88.5824 66.2785L89.6864 64.3585C89.9624 63.8785 90.2744 63.1225 90.6464 62.3185C90.5864 63.0385 90.5024 63.7585 90.5024 64.4665L90.5024 67.8145L91.4984 67.8145L91.4984 61.4545L90.2384 61.4545L88.3064 65.2345L86.2904 61.4545L84.9704 61.4545L84.9704 67.8145ZM93.8063 67.8145L94.6943 67.8145L97.1663 64.2865C97.5263 63.8065 97.8983 63.1945 98.1023 62.8225L98.1383 62.8345C98.1023 63.2785 98.0663 64.3225 98.0663 65.2465L98.0663 67.8145L99.0623 67.8145L99.0623 61.4545L98.1863 61.4545L95.7743 64.9465C95.4263 65.4265 95.0783 65.9065 94.7783 66.4225L94.7303 66.3985C94.7663 66.0865 94.8023 65.2945 94.8023 64.5505L94.8023 61.4545L93.8063 61.4545L93.8063 67.8145Z" fill="#737688"></path> </svg> 