<?xml version="1.0" encoding="UTF-8"?> <svg xmlns="http://www.w3.org/2000/svg" width="125" height="34" viewBox="0 0 125 34" fill="none"> <path d="M30.6769 6.55005C31.4904 7.58535 32.1791 8.71013 32.729 9.90178L17.1295 21.2212L10.6101 17.1983V12.3587L17.1295 16.3815L30.6769 6.55005Z" fill="#21A038"></path> <path d="M3.95634 16.8565C3.95634 16.6394 3.96172 16.4236 3.97248 16.2091L0.0215176 16.0186C0.00806984 16.2965 4.77455e-06 16.5772 4.77455e-06 16.8604C-0.00167625 19.0736 0.44055 21.2652 1.30133 23.3096C2.1621 25.3541 3.42447 27.2111 5.01603 28.7742L7.81854 26.0168C6.59342 24.8158 5.62152 23.3881 4.95871 21.8161C4.29591 20.244 3.95526 18.5585 3.95634 16.8565Z" fill="url(#paint0_linear)"></path> <path d="M17.1259 3.89355C17.3464 3.89355 17.5655 3.90149 17.7834 3.91208L17.9811 0.0215769C17.6979 0.00833943 17.4127 0.00172149 17.1259 0.00172149C14.8765 -0.000978641 12.6489 0.433705 10.5708 1.28081C8.49262 2.12792 6.60494 3.37077 5.01611 4.93799L7.81863 7.69669C9.03886 6.49032 10.4893 5.53328 12.0866 4.8806C13.6839 4.22793 15.3964 3.89247 17.1259 3.89355Z" fill="url(#paint1_linear)"></path> <path d="M17.1256 29.8206C16.9051 29.8206 16.6859 29.8206 16.4667 29.8034L16.269 33.6925C16.5532 33.7067 16.8388 33.7138 17.1256 33.7138C19.374 33.716 21.6006 33.2811 23.6776 32.4337C25.7547 31.5864 27.6411 30.3433 29.2287 28.7762L26.4316 26.0188C25.2111 27.2245 23.7608 28.181 22.1639 28.8335C20.5669 29.4859 18.8547 29.8214 17.1256 29.8206Z" fill="url(#paint2_linear)"></path> <path d="M24.549 6.15547L27.8786 3.73962C24.8353 1.31379 21.0364 -0.00673383 17.1204 2.5823e-05V3.89317C19.7721 3.88994 22.3623 4.67878 24.549 6.15547Z" fill="url(#paint3_linear)"></path> <path d="M34.2503 16.8565C34.2524 15.8437 34.1625 14.8327 33.9813 13.8357L30.2953 16.5097C30.2953 16.6249 30.2953 16.74 30.2953 16.8565C30.2963 18.6678 29.9105 20.459 29.1633 22.1141C28.4159 23.7693 27.3235 25.2513 25.957 26.4642L28.6157 29.3567C30.3922 27.778 31.8118 25.8494 32.7825 23.6961C33.7533 21.5426 34.2533 19.2124 34.2503 16.8565Z" fill="#21A038"></path> <path d="M17.1245 29.8205C15.2844 29.8211 13.4646 29.4413 11.7829 28.7057C10.1014 27.97 8.59546 26.8949 7.36277 25.55L4.42578 28.1658C6.02937 29.9148 7.98851 31.3124 10.1762 32.2682C12.3638 33.2239 14.7311 33.7164 17.1245 33.7136V29.8205Z" fill="url(#paint4_linear)"></path> <path d="M8.29461 7.24909L5.63732 4.35669C3.86029 5.9351 2.44015 7.86355 1.46898 10.017C0.49783 12.1704 -0.0026477 14.5007 1.05339e-05 16.8568H3.95635C3.95553 15.0457 4.3413 13.2544 5.08863 11.5993C5.83598 9.94424 6.92822 8.46214 8.29461 7.24909Z" fill="url(#paint5_linear)"></path> <path d="M98.8273 9.64122L103.727 6.12793H87.3281V27.2397H103.727V23.7265H92.0075V18.3186H102.005V14.8054H92.0075V9.64122H98.8273Z" fill="#21A038"></path> <path d="M76.2951 14.3517H70.6016V9.6392H79.6882L84.5852 6.11523H65.925V27.227H75.6928C81.1691 27.227 84.312 24.8115 84.312 20.5988C84.312 16.5686 81.4653 14.3517 76.2951 14.3517ZM75.4822 23.7126H70.6016V17.8628H75.4822C78.4441 17.8628 79.8329 18.8432 79.8329 20.7878C79.8329 22.7323 78.3552 23.7126 75.4822 23.7126Z" fill="#21A038"></path> <path d="M115.782 6.12451H106.855V27.2362H111.534V21.2556H115.782C121.477 21.2556 125 18.3391 125 13.6788C125 9.01869 121.477 6.12451 115.782 6.12451ZM115.683 17.7397H111.534V9.64048H115.683C118.679 9.64048 120.332 11.0796 120.332 13.6917C120.332 16.3038 118.679 17.7397 115.683 17.7397Z" fill="#21A038"></path> <path d="M58.9038 22.2538C57.6951 22.8908 56.3409 23.2206 54.9666 23.2128C50.8531 23.2128 47.869 20.3548 47.869 16.4192C47.869 12.4835 50.8531 9.6193 54.9666 9.6193C56.45 9.59478 57.9027 10.0326 59.1123 10.8687L62.3852 8.52294L62.1638 8.36989C60.2547 6.7363 57.7037 5.87109 54.7838 5.87109C51.6167 5.87109 48.745 6.90809 46.6946 8.79469C45.6578 9.76607 44.8379 10.935 44.2858 12.2285C43.7338 13.5221 43.4614 14.9124 43.4859 16.3129C43.4639 17.7277 43.7351 19.1322 44.283 20.4428C44.831 21.7533 45.6446 22.9429 46.6754 23.9406C48.7353 25.9021 51.6007 26.9828 54.7453 26.9828C58.031 26.9828 60.9028 25.8677 62.8473 23.8375L59.9177 21.7135L58.9038 22.2538Z" fill="#21A038"></path> <defs> <linearGradient id="paint0_linear" x1="5.81617" y1="28.2884" x2="1.61423" y2="15.9485" gradientUnits="userSpaceOnUse"> <stop offset="0.14" stop-color="#F1E813"></stop> <stop offset="0.3" stop-color="#E6E418"></stop> <stop offset="0.58" stop-color="#C9DA26"></stop> <stop offset="0.89" stop-color="#A2CC39"></stop> </linearGradient> <linearGradient id="paint1_linear" x1="6.14572" y1="5.62634" x2="17.2341" y2="1.33359" gradientUnits="userSpaceOnUse"> <stop offset="0.06" stop-color="#0FA7DF"></stop> <stop offset="0.54" stop-color="#0098F8"></stop> <stop offset="0.92" stop-color="#0290EA"></stop> </linearGradient> <linearGradient id="paint2_linear" x1="16.0082" y1="31.3641" x2="28.5784" y2="28.4792" gradientUnits="userSpaceOnUse"> <stop offset="0.12" stop-color="#A2CC39"></stop> <stop offset="0.28" stop-color="#86C239"></stop> <stop offset="0.87" stop-color="#219F38"></stop> </linearGradient> <linearGradient id="paint3_linear" x1="16.2974" y1="1.30392" x2="27.0311" y2="4.66892" gradientUnits="userSpaceOnUse"> <stop offset="0.06" stop-color="#0290EA"></stop> <stop offset="0.79" stop-color="#0C89CA"></stop> </linearGradient> <linearGradient id="paint4_linear" x1="5.41822" y1="27.6919" x2="17.0882" y2="32.1226" gradientUnits="userSpaceOnUse"> <stop offset="0.13" stop-color="#F1E813"></stop> <stop offset="0.3" stop-color="#EAE616"></stop> <stop offset="0.53" stop-color="#D8DF1F"></stop> <stop offset="0.8" stop-color="#BAD52D"></stop> <stop offset="0.98" stop-color="#A2CC39"></stop> </linearGradient> <linearGradient id="paint5_linear" x1="1.47389" y1="17.3281" x2="6.04894" y2="5.23767" gradientUnits="userSpaceOnUse"> <stop offset="0.07" stop-color="#A2CC39"></stop> <stop offset="0.26" stop-color="#81C45E"></stop> <stop offset="0.92" stop-color="#0FA7DF"></stop> </linearGradient> </defs> </svg> 