<?xml version="1.0" encoding="UTF-8"?> <svg xmlns="http://www.w3.org/2000/svg" width="127" height="128" viewBox="0 0 127 128" fill="none"> <path d="M47.3826 16.8492C73.5378 7.99071 101.921 22.015 110.779 48.1732C119.636 74.3314 105.613 102.718 79.4582 111.577C53.303 120.435 24.9197 106.411 16.0623 80.2526C7.2049 54.0943 21.2275 25.7076 47.3826 16.8492Z" fill="white"></path> <path d="M56.7532 68.6086L61.7691 68.6086L61.7691 67.6486L60.2332 67.6486L60.2332 60.1245L59.5132 60.1245L56.7532 61.8165L56.7532 62.8605L59.2252 61.3845L59.2252 67.6486L56.7532 67.6486L56.7532 68.6086ZM69.6963 60.4845C69.2763 60.3525 68.5323 60.1125 67.4523 60.1125C64.8964 60.1125 63.5884 61.3725 63.5884 64.4085C63.5884 67.4566 64.8484 68.7046 67.5003 68.7046C68.6403 68.7046 69.5403 68.3926 69.9243 68.1766L69.9243 67.0846C69.5643 67.2886 68.6403 67.7326 67.5123 67.7326C65.7724 67.7326 64.7164 66.9286 64.7164 64.3005C64.7164 61.9005 65.6404 61.0725 67.4163 61.0725C68.4123 61.0725 69.2643 61.3845 69.6963 61.6845L69.6963 60.4845Z" fill="#737688"></path> </svg> 