<?xml version="1.0" encoding="UTF-8"?> <svg xmlns="http://www.w3.org/2000/svg" width="44" height="44" viewBox="0 0 44 44" fill="none"> <path d="M24.25 25.499V39.2499L15.9988 35.1249L7.75 39.2499V25.5002" stroke="#515DAD" stroke-width="2" stroke-linecap="round" stroke-linejoin="round"></path> <path d="M16 28C23.1797 28 29 22.1797 29 15C29 7.8203 23.1797 2 16 2C8.8203 2 3 7.8203 3 15C3 22.1797 8.8203 28 16 28Z" fill="white" stroke="#515DAD" stroke-width="2" stroke-linecap="round" stroke-linejoin="round"></path> <path d="M16 23C20.4183 23 24 19.4183 24 15C24 10.5817 20.4183 7 16 7C11.5817 7 8 10.5817 8 15C8 19.4183 11.5817 23 16 23Z" stroke="#515DAD" stroke-width="2" stroke-linecap="round" stroke-linejoin="round"></path> </svg> 