<?xml version="1.0" encoding="UTF-8"?> <svg xmlns="http://www.w3.org/2000/svg" width="60" height="61" viewBox="0 0 60 61" fill="none"> <path d="M60 30.0238C60 13.4533 46.5685 0.0202653 30 0.0202661C13.4315 0.0202668 -2.21909e-06 13.4533 -1.42957e-06 30.0238C-6.40039e-07 46.5943 13.4315 60.0273 30 60.0273C46.5685 60.0273 60 46.5943 60 30.0238Z" fill="white"></path> <path d="M8.86641 25.6234L7.63041 25.6234L10.3064 29.7514L7.24641 34.0234L8.56641 34.0234L11.2784 30.1594L12.0584 30.1594L12.0584 34.0234L13.1384 34.0234L13.1384 30.1594L13.9424 30.1594L16.6304 34.0234L17.9504 34.0234L14.9024 29.6314L17.5304 25.6234L16.3784 25.6234L13.9544 29.3194L13.1384 29.3194L13.1384 25.6234L12.0584 25.6234L12.0584 29.3194L11.2184 29.3194L8.86641 25.6234ZM19.2809 34.0234L20.1689 34.0234L22.6409 30.4954C23.0009 30.0154 23.3729 29.4034 23.5769 29.0314L23.6129 29.0434C23.5769 29.4874 23.5409 30.5314 23.5409 31.4554L23.5409 34.0234L24.5369 34.0234L24.5369 27.6634L23.6609 27.6634L21.2489 31.1554C20.9009 31.6354 20.5529 32.1154 20.2529 32.6314L20.2049 32.6074C20.2409 32.2954 20.2769 31.5034 20.2769 30.7594L20.2769 27.6634L19.2809 27.6634L19.2809 34.0234ZM27.9675 34.0234L28.9635 34.0234L28.9635 28.5994L31.0155 28.5994L31.0155 27.6634L25.9035 27.6634L25.9035 28.5994L27.9675 28.5994L27.9675 34.0234ZM37.4945 31.2034L37.4945 30.5554C37.4945 28.7554 36.7865 27.5434 34.8185 27.5434C32.9585 27.5434 31.9505 28.6714 31.9505 30.7474C31.9505 33.1954 33.0065 34.1554 35.0585 34.1554C36.0065 34.1554 36.7145 33.8194 37.0265 33.5914L37.0265 32.5594C36.5585 32.9314 35.8865 33.2554 35.0825 33.2554C33.6905 33.2554 32.9585 32.5714 32.9585 31.2034L37.4945 31.2034ZM34.8065 28.4434C35.9825 28.4434 36.4985 29.0434 36.4985 30.3394L32.9585 30.3394C32.9585 29.0434 33.6425 28.4434 34.8065 28.4434ZM38.4577 34.0954C38.6377 34.1554 38.7457 34.1554 38.9377 34.1554C39.8857 34.1554 40.7257 33.5194 40.8697 29.0074L40.8817 28.6234L43.2097 28.6234L43.2097 34.0234L44.2057 34.0234L44.2057 27.6634L39.9817 27.6634L39.9577 28.4914C39.8377 32.7754 39.2737 32.9554 38.7697 32.9554C38.6497 32.9554 38.5657 32.9434 38.4577 32.9074L38.4577 34.0954ZM46.527 34.0234L47.415 34.0234L49.887 30.4954C50.247 30.0154 50.619 29.4034 50.823 29.0314L50.859 29.0434C50.823 29.4874 50.787 30.5314 50.787 31.4554L50.787 34.0234L51.783 34.0234L51.783 27.6634L50.907 27.6634L48.495 31.1554C48.147 31.6354 47.799 32.1154 47.499 32.6314L47.451 32.6074C47.487 32.2954 47.523 31.5034 47.523 30.7594L47.523 27.6634L46.527 27.6634L46.527 34.0234Z" fill="#A0A0B1"></path> </svg> 