<?xml version="1.0" encoding="UTF-8"?> <svg xmlns="http://www.w3.org/2000/svg" width="424" height="96" viewBox="0 0 424 96" fill="none"> <rect width="424" height="96" rx="8" fill="#FFE58F"></rect> <rect x="6.5" y="6.5" width="411" height="83" rx="3.5" fill="#FFFBE6"></rect> <path d="M30.61 31H31.87V21.2H23.4V31H24.66V22.32H30.61V31ZM33.8536 27.472C33.8536 29.922 35.1136 31.126 37.3256 31.14C39.2996 31.14 40.7836 29.95 40.7836 27.528C40.7836 25.092 39.5096 23.874 37.3116 23.86C35.3376 23.86 33.8536 25.05 33.8536 27.472ZM35.0296 27.472C35.0296 25.75 35.8416 24.868 37.3116 24.868C38.7816 24.882 39.6076 25.708 39.6076 27.486V27.528C39.6076 29.25 38.7956 30.132 37.3256 30.132C35.8416 30.132 35.0296 29.306 35.0296 27.514V27.472ZM41.4463 29.894V32.82H42.5523V31H48.0263V32.82H49.1323V29.894H47.9983V24H43.0703V24.798C43.0703 27.43 42.7623 28.858 42.2863 29.894H41.4463ZM44.1623 25.61L44.1763 25.036H46.8363V29.894H43.4343C43.9383 28.704 44.1203 27.402 44.1623 25.61ZM51.9497 31H53.1117V25.036H55.4357V24H49.6117V25.036H51.9497V31ZM56.9032 31H59.9692C61.8732 31 62.7552 30.314 62.7552 28.928C62.7552 27.696 62.0972 27.332 61.2012 27.22C61.9572 27.038 62.4052 26.464 62.4052 25.582C62.4052 24.574 61.8032 24 60.0252 24H56.9032V31ZM58.0652 29.992V27.878H60.1652C61.0472 27.878 61.5932 28.102 61.5932 28.942C61.5932 29.642 61.1032 29.992 59.9552 29.992H58.0652ZM58.0652 26.884V25.022L59.8852 25.008C60.7672 25.008 61.2292 25.162 61.2292 25.848C61.2292 26.618 60.6552 26.884 59.7872 26.884H58.0652ZM67.4308 23.86C65.4568 23.86 63.9728 25.05 63.9728 27.472C63.9728 29.922 65.2468 31.14 67.4588 31.14C68.8308 31.14 69.6848 30.72 70.0348 30.286V28.928C69.6568 29.6 68.8028 30.132 67.4588 30.132C66.0868 30.132 65.2748 29.432 65.1628 27.92H70.5248V27.164C70.5248 25.092 69.3628 23.86 67.4308 23.86ZM67.4308 24.868C68.5368 24.868 69.3628 25.568 69.3628 26.912V26.926H65.1768C65.3308 25.568 66.1148 24.868 67.4308 24.868ZM72.2294 33.52H73.3914V29.922C73.7834 30.58 74.6094 31.154 75.7854 31.154C77.7874 31.154 78.9774 30.104 78.9774 27.346C78.9774 24.896 77.7874 23.86 75.9254 23.86C74.5114 23.86 73.6854 24.532 73.3354 25.344V24H72.2294V33.52ZM73.3914 27.122C73.4194 25.722 74.1614 24.91 75.6174 24.91C76.9334 24.91 77.8014 25.54 77.8014 27.416C77.8014 29.362 77.1434 30.104 75.6034 30.104C74.2874 30.104 73.3914 29.25 73.3914 27.794V27.122ZM79.6319 29.894V32.82H80.7379V31H86.2119V32.82H87.3179V29.894H86.1839V24H81.2559V24.798C81.2559 27.43 80.9479 28.858 80.4719 29.894H79.6319ZM82.3479 25.61L82.3619 25.036H85.0219V29.894H81.6199C82.1239 28.704 82.3059 27.402 82.3479 25.61ZM89.8083 31L89.9343 30.832L93.7423 25.75V31H94.9043V24H93.8823L89.9343 29.208V24H88.7723V31H89.8083ZM98.7075 31H99.8695V25.036H102.194V24H96.3695V25.036H98.7075V31ZM106.587 23.86C104.613 23.86 103.129 25.05 103.129 27.472C103.129 29.922 104.403 31.14 106.615 31.14C107.987 31.14 108.841 30.72 109.191 30.286V28.928C108.813 29.6 107.959 30.132 106.615 30.132C105.243 30.132 104.431 29.432 104.319 27.92H109.681V27.164C109.681 25.092 108.519 23.86 106.587 23.86ZM106.587 24.868C107.693 24.868 108.519 25.568 108.519 26.912V26.926H104.333C104.487 25.568 105.271 24.868 106.587 24.868ZM110.784 32.47L111.47 33.296C112.324 33.128 113.5 32.218 113.5 30.72C113.5 30.174 113.388 29.74 113.094 29.516C112.954 29.404 112.744 29.334 112.464 29.334C111.764 29.334 111.554 29.74 111.554 30.244C111.554 30.734 111.764 31.14 112.464 31.14H112.492C112.422 31.742 111.806 32.358 110.784 32.47ZM119.561 31H120.723V27.92H121.983L124.503 31H125.973L122.949 27.304L125.511 24H124.181L121.983 26.926H120.723V24H119.561V31ZM126.631 27.472C126.631 29.922 127.891 31.126 130.103 31.14C132.077 31.14 133.561 29.95 133.561 27.528C133.561 25.092 132.287 23.874 130.089 23.86C128.115 23.86 126.631 25.05 126.631 27.472ZM127.807 27.472C127.807 25.75 128.619 24.868 130.089 24.868C131.559 24.882 132.385 25.708 132.385 27.486V27.528C132.385 29.25 131.573 30.132 130.103 30.132C128.619 30.132 127.807 29.306 127.807 27.514V27.472ZM135.27 33.52H136.432V29.922C136.824 30.58 137.65 31.154 138.826 31.154C140.828 31.154 142.018 30.104 142.018 27.346C142.018 24.896 140.828 23.86 138.966 23.86C137.552 23.86 136.726 24.532 136.376 25.344V24H135.27V33.52ZM136.432 27.122C136.46 25.722 137.202 24.91 138.658 24.91C139.974 24.91 140.842 25.54 140.842 27.416C140.842 29.362 140.184 30.104 138.644 30.104C137.328 30.104 136.432 29.25 136.432 27.794V27.122ZM143.72 33.52H144.882V29.922C145.274 30.58 146.1 31.154 147.276 31.154C149.278 31.154 150.468 30.104 150.468 27.346C150.468 24.896 149.278 23.86 147.416 23.86C146.002 23.86 145.176 24.532 144.826 25.344V24H143.72V33.52ZM144.882 27.122C144.91 25.722 145.652 24.91 147.108 24.91C148.424 24.91 149.292 25.54 149.292 27.416C149.292 29.362 148.634 30.104 147.094 30.104C145.778 30.104 144.882 29.25 144.882 27.794V27.122ZM155.095 23.86C153.121 23.86 151.637 25.05 151.637 27.472C151.637 29.922 152.911 31.14 155.123 31.14C156.495 31.14 157.349 30.72 157.699 30.286V28.928C157.321 29.6 156.467 30.132 155.123 30.132C153.751 30.132 152.939 29.432 152.827 27.92H158.189V27.164C158.189 25.092 157.027 23.86 155.095 23.86ZM155.095 24.868C156.201 24.868 157.027 25.568 157.027 26.912V26.926H152.841C152.995 25.568 153.779 24.868 155.095 24.868ZM159.893 31H161.055V27.92H162.315L164.835 31H166.305L163.281 27.304L165.843 24H164.513L162.315 26.926H161.055V24H159.893V31ZM169.405 31H170.567V25.036H172.891V24H167.067V25.036H169.405V31ZM179.216 31H180.378V24H179.216V26.926H175.52V24H174.358V31H175.52V27.976H179.216V31ZM182.084 27.472C182.084 29.922 183.344 31.126 185.556 31.14C187.53 31.14 189.014 29.95 189.014 27.528C189.014 25.092 187.74 23.874 185.542 23.86C183.568 23.86 182.084 25.05 182.084 27.472ZM183.26 27.472C183.26 25.75 184.072 24.868 185.542 24.868C187.012 24.882 187.838 25.708 187.838 27.486V27.528C187.838 29.25 187.026 30.132 185.556 30.132C184.072 30.132 183.26 29.306 183.26 27.514V27.472ZM198.924 31H200.086V24H195.158L195.13 24.966C194.99 29.614 194.444 29.81 193.73 29.81C193.632 29.81 193.506 29.796 193.38 29.768V31.014C193.52 31.056 193.716 31.084 193.94 31.084C194.962 31.084 196.012 30.79 196.194 25.568L196.208 25.036H198.924V31ZM203.367 31L203.493 30.832L207.301 25.75V31H208.463V24H207.441L203.493 29.208V24H202.331V31H203.367ZM219.571 30.286V28.928C219.221 29.6 218.451 30.132 217.289 30.132C215.805 30.132 214.979 29.306 214.979 27.514V27.472C214.979 25.75 215.791 24.868 217.261 24.868C218.213 24.868 219.025 25.4 219.501 26.184V24.532C219.039 24.182 218.199 23.86 217.261 23.86C215.287 23.86 213.803 25.05 213.803 27.472C213.803 29.922 215.077 31.14 217.289 31.14C218.479 31.14 219.249 30.72 219.571 30.286ZM222.357 31L222.483 30.832L226.291 25.75V31H227.453V24H226.431L222.483 29.208V24H221.321V31H222.357ZM234.924 30.286V28.928C234.574 29.6 233.804 30.132 232.642 30.132C231.158 30.132 230.332 29.306 230.332 27.514V27.472C230.332 25.75 231.144 24.868 232.614 24.868C233.566 24.868 234.378 25.4 234.854 26.184V24.532C234.392 24.182 233.552 23.86 232.614 23.86C230.64 23.86 229.156 25.05 229.156 27.472C229.156 29.922 230.43 31.14 232.642 31.14C233.832 31.14 234.602 30.72 234.924 30.286ZM238.448 31H239.61V25.036H241.934V24H236.11V25.036H238.448V31ZM246.327 23.86C244.353 23.86 242.869 25.05 242.869 27.472C242.869 29.922 244.143 31.14 246.355 31.14C247.727 31.14 248.581 30.72 248.931 30.286V28.928C248.553 29.6 247.699 30.132 246.355 30.132C244.983 30.132 244.171 29.432 244.059 27.92H249.421V27.164C249.421 25.092 248.259 23.86 246.327 23.86ZM246.327 24.868C247.433 24.868 248.259 25.568 248.259 26.912V26.926H244.073C244.227 25.568 245.011 24.868 246.327 24.868ZM257.58 31H258.742V24H257.552L254.99 27.71L252.386 24H251.126V31H252.288V25.708L254.682 29.208H255.2L257.58 25.708V31ZM261.095 26.184C261.571 25.4 262.383 24.868 263.475 24.868C264.483 24.868 265.183 25.204 265.183 26.394V26.954H263.517C261.655 26.954 260.563 27.402 260.563 28.942C260.563 30.37 261.487 31.112 262.873 31.112C263.979 31.112 264.875 30.58 265.239 29.81V31H266.345V26.38C266.345 24.462 265.267 23.86 263.475 23.86C262.397 23.86 261.557 24.182 261.095 24.532V26.184ZM263.167 30.034C262.229 30.034 261.753 29.558 261.753 28.872C261.753 28.074 262.299 27.878 263.559 27.878H265.183V28.634C265.113 29.11 264.595 30.034 263.167 30.034ZM271.58 27.472C271.58 29.922 272.84 31.126 275.052 31.14C277.026 31.14 278.51 29.95 278.51 27.528C278.51 25.092 277.236 23.874 275.038 23.86C273.064 23.86 271.58 25.05 271.58 27.472ZM272.756 27.472C272.756 25.75 273.568 24.868 275.038 24.868C276.508 24.882 277.334 25.708 277.334 27.486V27.528C277.334 29.25 276.522 30.132 275.052 30.132C273.568 30.132 272.756 29.306 272.756 27.514V27.472ZM284.966 31H286.128V24H280.22V31H281.382V25.036H284.966V31ZM288.368 33.52H289.53V29.922C289.922 30.58 290.748 31.154 291.924 31.154C293.926 31.154 295.116 30.104 295.116 27.346C295.116 24.896 293.926 23.86 292.064 23.86C290.65 23.86 289.824 24.532 289.474 25.344V24H288.368V33.52ZM289.53 27.122C289.558 25.722 290.3 24.91 291.756 24.91C293.072 24.91 293.94 25.54 293.94 27.416C293.94 29.362 293.282 30.104 291.742 30.104C290.426 30.104 289.53 29.25 289.53 27.794V27.122ZM299.743 23.86C297.769 23.86 296.285 25.05 296.285 27.472C296.285 29.922 297.559 31.14 299.771 31.14C301.143 31.14 301.997 30.72 302.347 30.286V28.928C301.969 29.6 301.115 30.132 299.771 30.132C298.399 30.132 297.587 29.432 297.475 27.92H302.837V27.164C302.837 25.092 301.675 23.86 299.743 23.86ZM299.743 24.868C300.849 24.868 301.675 25.568 301.675 26.912V26.926H297.489C297.643 25.568 298.427 24.868 299.743 24.868ZM303.495 29.894V32.82H304.601V31H310.075V32.82H311.181V29.894H310.047V24H305.119V24.798C305.119 27.43 304.811 28.858 304.335 29.894H303.495ZM306.211 25.61L306.225 25.036H308.885V29.894H305.483C305.987 28.704 306.169 27.402 306.211 25.61ZM315.562 23.86C313.588 23.86 312.104 25.05 312.104 27.472C312.104 29.922 313.378 31.14 315.59 31.14C316.962 31.14 317.816 30.72 318.166 30.286V28.928C317.788 29.6 316.934 30.132 315.59 30.132C314.218 30.132 313.406 29.432 313.294 27.92H318.656V27.164C318.656 25.092 317.494 23.86 315.562 23.86ZM315.562 24.868C316.668 24.868 317.494 25.568 317.494 26.912V26.926H313.308C313.462 25.568 314.246 24.868 315.562 24.868ZM324.788 31H325.95V24H321.022L320.994 24.966C320.854 29.614 320.308 29.81 319.594 29.81C319.496 29.81 319.37 29.796 319.244 29.768V31.014C319.384 31.056 319.58 31.084 319.804 31.084C320.826 31.084 321.876 30.79 322.058 25.568L322.072 25.036H324.788V31ZM329.23 31L329.356 30.832L333.164 25.75V31H334.326V24H333.304L329.356 29.208V24H328.194V31H329.23ZM341.125 31H342.287V24H337.359L337.331 24.966C337.191 29.614 336.645 29.81 335.931 29.81C335.833 29.81 335.707 29.796 335.581 29.768V31.014C335.721 31.056 335.917 31.084 336.141 31.084C337.163 31.084 338.213 30.79 338.395 25.568L338.409 25.036H341.125V31ZM344.644 26.184C345.12 25.4 345.932 24.868 347.024 24.868C348.032 24.868 348.732 25.204 348.732 26.394V26.954H347.066C345.204 26.954 344.112 27.402 344.112 28.942C344.112 30.37 345.036 31.112 346.422 31.112C347.528 31.112 348.424 30.58 348.788 29.81V31H349.894V26.38C349.894 24.462 348.816 23.86 347.024 23.86C345.946 23.86 345.106 24.182 344.644 24.532V26.184ZM346.716 30.034C345.778 30.034 345.302 29.558 345.302 28.872C345.302 28.074 345.848 27.878 347.108 27.878H348.732V28.634C348.662 29.11 348.144 30.034 346.716 30.034ZM23.12 53H24.282V49.92H25.542L28.062 53H29.532L26.508 49.304L29.07 46H27.74L25.542 48.926H24.282V46H23.12V53ZM35.8051 53H36.9671V46H32.0391L32.0111 46.966C31.8711 51.614 31.3251 51.81 30.6111 51.81C30.5131 51.81 30.3871 51.796 30.2611 51.768V53.014C30.4011 53.056 30.5971 53.084 30.8211 53.084C31.8431 53.084 32.8931 52.79 33.0751 47.568L33.0891 47.036H35.8051V53ZM39.3238 48.184C39.7998 47.4 40.6118 46.868 41.7038 46.868C42.7118 46.868 43.4118 47.204 43.4118 48.394V48.954H41.7458C39.8838 48.954 38.7918 49.402 38.7918 50.942C38.7918 52.37 39.7158 53.112 41.1018 53.112C42.2078 53.112 43.1038 52.58 43.4678 51.81V53H44.5738V48.38C44.5738 46.462 43.4958 45.86 41.7038 45.86C40.6258 45.86 39.7858 46.182 39.3238 46.532V48.184ZM41.3958 52.034C40.4578 52.034 39.9818 51.558 39.9818 50.872C39.9818 50.074 40.5278 49.878 41.7878 49.878H43.4118V50.634C43.3418 51.11 42.8238 52.034 41.3958 52.034ZM51.94 52.286V50.928C51.59 51.6 50.82 52.132 49.658 52.132C48.174 52.132 47.348 51.306 47.348 49.514V49.472C47.348 47.75 48.16 46.868 49.63 46.868C50.582 46.868 51.394 47.4 51.87 48.184V46.532C51.408 46.182 50.568 45.86 49.63 45.86C47.656 45.86 46.172 47.05 46.172 49.472C46.172 51.922 47.446 53.14 49.658 53.14C50.848 53.14 51.618 52.72 51.94 52.286ZM58.7212 52.286V50.928C58.3712 51.6 57.6012 52.132 56.4392 52.132C54.9552 52.132 54.1292 51.306 54.1292 49.514V49.472C54.1292 47.75 54.9412 46.868 56.4112 46.868C57.3632 46.868 58.1752 47.4 58.6512 48.184V46.532C58.1892 46.182 57.3492 45.86 56.4112 45.86C54.4372 45.86 52.9532 47.05 52.9532 49.472C52.9532 51.922 54.2272 53.14 56.4392 53.14C57.6292 53.14 58.3992 52.72 58.7212 52.286ZM61.5076 53L61.6336 52.832L65.4416 47.75V53H66.6036V46H65.5816L61.6336 51.208V46H60.4716V53H61.5076ZM72.0028 42.5V46H71.6248C69.6228 46 68.3068 47.064 68.3068 49.5C68.3068 52.076 69.6228 53 71.6668 53H72.0028V55.52H73.1648V53H73.5428C75.5448 53 76.8608 51.936 76.8608 49.5C76.8608 46.924 75.5448 46 73.5008 46H73.1648V42.5H72.0028ZM73.4868 47.036C74.8868 47.036 75.6988 47.596 75.6988 49.612C75.6988 51.306 74.9147 51.964 73.4448 51.964H73.1648V47.036H73.4868ZM69.4688 49.388C69.4688 47.694 70.2528 47.036 71.7228 47.036H72.0028V51.964H71.6808C70.2808 51.964 69.4688 51.404 69.4688 49.388ZM79.6091 53L79.7351 52.832L83.5431 47.75V53H84.7051V46H83.6831L79.7351 51.208V46H78.5731V53H79.6091ZM86.9403 53H88.1023V49.92H89.3623L91.8823 53H93.3523L90.3283 49.304L92.8903 46H91.5603L89.3623 48.926H88.1023V46H86.9403V53ZM94.859 48.184C95.335 47.4 96.147 46.868 97.239 46.868C98.247 46.868 98.947 47.204 98.947 48.394V48.954H97.281C95.419 48.954 94.327 49.402 94.327 50.942C94.327 52.37 95.251 53.112 96.637 53.112C97.743 53.112 98.639 52.58 99.003 51.81V53H100.109V48.38C100.109 46.462 99.031 45.86 97.239 45.86C96.161 45.86 95.321 46.182 94.859 46.532V48.184ZM96.931 52.034C95.993 52.034 95.517 51.558 95.517 50.872C95.517 50.074 96.063 49.878 97.323 49.878H98.947V50.634C98.877 51.11 98.359 52.034 96.931 52.034ZM103.807 53H104.969V47.036H107.293V46H101.469V47.036H103.807V53ZM108.229 49.472C108.229 51.922 109.489 53.126 111.701 53.14C113.675 53.14 115.159 51.95 115.159 49.528C115.159 47.092 113.885 45.874 111.687 45.86C109.713 45.86 108.229 47.05 108.229 49.472ZM109.405 49.472C109.405 47.75 110.217 46.868 111.687 46.868C113.157 46.882 113.983 47.708 113.983 49.486V49.528C113.983 51.25 113.171 52.132 111.701 52.132C110.217 52.132 109.405 51.306 109.405 49.514V49.472ZM116.868 55.52H118.03V51.922C118.422 52.58 119.248 53.154 120.424 53.154C122.426 53.154 123.616 52.104 123.616 49.346C123.616 46.896 122.426 45.86 120.564 45.86C119.15 45.86 118.324 46.532 117.974 47.344V46H116.868V55.52ZM118.03 49.122C118.058 47.722 118.8 46.91 120.256 46.91C121.572 46.91 122.44 47.54 122.44 49.416C122.44 51.362 121.782 52.104 120.242 52.104C118.926 52.104 118.03 51.25 118.03 49.794V49.122ZM128.534 52.286C128.898 52.72 129.794 53.14 131.096 53.14C132.65 53.14 133.924 52.454 133.924 50.872C133.924 49.948 133.42 49.458 132.496 49.276C133.182 48.954 133.574 48.562 133.574 47.68C133.574 46.574 132.972 45.86 131.194 45.86H131.166C130.088 45.86 129.136 46.182 128.604 46.532V48.184C129.15 47.4 130.074 46.868 131.166 46.868C132.062 46.896 132.398 47.232 132.398 47.89C132.398 48.674 131.768 49.01 130.886 49.01H130.046V49.934H131.096C132.188 49.934 132.762 50.2 132.762 50.942C132.762 51.726 132.062 52.118 131.096 52.132C129.822 52.132 128.926 51.6 128.534 50.928V52.286ZM135.793 48.184C136.269 47.4 137.081 46.868 138.173 46.868C139.181 46.868 139.881 47.204 139.881 48.394V48.954H138.215C136.353 48.954 135.261 49.402 135.261 50.942C135.261 52.37 136.185 53.112 137.571 53.112C138.677 53.112 139.573 52.58 139.937 51.81V53H141.043V48.38C141.043 46.462 139.965 45.86 138.173 45.86C137.095 45.86 136.255 46.182 135.793 46.532V48.184ZM137.865 52.034C136.927 52.034 136.451 51.558 136.451 50.872C136.451 50.074 136.997 49.878 138.257 49.878H139.881V50.634C139.811 51.11 139.293 52.034 137.865 52.034ZM147.471 53H148.633V46H146.015C143.803 46 142.935 46.658 142.935 48.464C142.935 49.472 143.495 50.102 144.405 50.354L142.403 53H143.747L145.651 50.48H147.471V53ZM146.029 47.036H147.471V49.57H145.609C144.545 49.57 144.111 49.122 144.097 48.464C144.097 47.316 144.685 47.036 146.029 47.036ZM150.87 53H153.936C155.84 53 156.722 52.314 156.722 50.928C156.722 49.696 156.064 49.332 155.168 49.22C155.924 49.038 156.372 48.464 156.372 47.582C156.372 46.574 155.77 46 153.992 46H150.87V53ZM152.032 51.992V49.878H154.132C155.014 49.878 155.56 50.102 155.56 50.942C155.56 51.642 155.07 51.992 153.922 51.992H152.032ZM152.032 48.884V47.022L153.852 47.008C154.734 47.008 155.196 47.162 155.196 47.848C155.196 48.618 154.622 48.884 153.754 48.884H152.032ZM158.472 53H159.634V49.92H160.894L163.414 53H164.884L161.86 49.304L164.422 46H163.092L160.894 48.926H159.634V46H158.472V53ZM167.314 53L167.44 52.832L171.248 47.75V53H172.41V46H171.388L167.44 51.208V46H166.278V53H167.314ZM179.318 53L179.444 52.832L183.252 47.75V53H184.414V46H183.392L179.444 51.208V46H178.282V53H179.318ZM195.144 53H196.306V46H195.144V48.926H191.448V46H190.286V53H191.448V49.976H195.144V53ZM198.656 48.184C199.132 47.4 199.944 46.868 201.036 46.868C202.044 46.868 202.744 47.204 202.744 48.394V48.954H201.078C199.216 48.954 198.124 49.402 198.124 50.942C198.124 52.37 199.048 53.112 200.434 53.112C201.54 53.112 202.436 52.58 202.8 51.81V53H203.906V48.38C203.906 46.462 202.828 45.86 201.036 45.86C199.958 45.86 199.118 46.182 198.656 46.532V48.184ZM200.728 52.034C199.79 52.034 199.314 51.558 199.314 50.872C199.314 50.074 199.86 49.878 201.12 49.878H202.744V50.634C202.674 51.11 202.156 52.034 200.728 52.034ZM205.616 52.286C205.98 52.72 206.876 53.14 208.178 53.14C209.732 53.14 211.006 52.454 211.006 50.872C211.006 49.948 210.502 49.458 209.578 49.276C210.264 48.954 210.656 48.562 210.656 47.68C210.656 46.574 210.054 45.86 208.276 45.86H208.248C207.17 45.86 206.218 46.182 205.686 46.532V48.184C206.232 47.4 207.156 46.868 208.248 46.868C209.144 46.896 209.48 47.232 209.48 47.89C209.48 48.674 208.85 49.01 207.968 49.01H207.128V49.934H208.178C209.27 49.934 209.844 50.2 209.844 50.942C209.844 51.726 209.144 52.118 208.178 52.132C206.904 52.132 206.008 51.6 205.616 50.928V52.286ZM217.621 53H218.783V46H217.621V48.926H213.925V46H212.763V53H213.925V49.976H217.621V53ZM221.132 48.184C221.608 47.4 222.42 46.868 223.512 46.868C224.52 46.868 225.22 47.204 225.22 48.394V48.954H223.554C221.692 48.954 220.6 49.402 220.6 50.942C220.6 52.37 221.524 53.112 222.91 53.112C224.016 53.112 224.912 52.58 225.276 51.81V53H226.382V48.38C226.382 46.462 225.304 45.86 223.512 45.86C222.434 45.86 221.594 46.182 221.132 46.532V48.184ZM223.204 52.034C222.266 52.034 221.79 51.558 221.79 50.872C221.79 50.074 222.336 49.878 223.596 49.878H225.22V50.634C225.15 51.11 224.632 52.034 223.204 52.034ZM232.769 53H233.931V46H232.769V49.43C232.293 49.64 231.649 49.766 231.033 49.766C229.885 49.766 229.325 49.248 229.325 48.254V46H228.163V48.38C228.163 50.06 229.171 50.816 230.949 50.816C231.565 50.816 232.279 50.69 232.769 50.424V53ZM237.205 53L237.331 52.832L241.139 47.75V53H242.301V46H241.279L237.331 51.208V46H236.169V53H237.205ZM249.1 53H250.262V46H245.334L245.306 46.966C245.166 51.614 244.62 51.81 243.906 51.81C243.808 51.81 243.682 51.796 243.556 51.768V53.014C243.696 53.056 243.892 53.084 244.116 53.084C245.138 53.084 246.188 52.79 246.37 47.568L246.384 47.036H249.1V53ZM252.619 48.184C253.095 47.4 253.907 46.868 254.999 46.868C256.007 46.868 256.707 47.204 256.707 48.394V48.954H255.041C253.179 48.954 252.087 49.402 252.087 50.942C252.087 52.37 253.011 53.112 254.397 53.112C255.503 53.112 256.399 52.58 256.763 51.81V53H257.869V48.38C257.869 46.462 256.791 45.86 254.999 45.86C253.921 45.86 253.081 46.182 252.619 46.532V48.184ZM254.691 52.034C253.753 52.034 253.277 51.558 253.277 50.872C253.277 50.074 253.823 49.878 255.083 49.878H256.707V50.634C256.637 51.11 256.119 52.034 254.691 52.034ZM268.494 53H269.656V46H268.494V48.926H264.798V46H263.636V53H264.798V49.976H268.494V53ZM272.005 48.184C272.481 47.4 273.293 46.868 274.385 46.868C275.393 46.868 276.093 47.204 276.093 48.394V48.954H274.427C272.565 48.954 271.473 49.402 271.473 50.942C271.473 52.37 272.397 53.112 273.783 53.112C274.889 53.112 275.785 52.58 276.149 51.81V53H277.255V48.38C277.255 46.462 276.177 45.86 274.385 45.86C273.307 45.86 272.467 46.182 272.005 46.532V48.184ZM274.077 52.034C273.139 52.034 272.663 51.558 272.663 50.872C272.663 50.074 273.209 49.878 274.469 49.878H276.093V50.634C276.023 51.11 275.505 52.034 274.077 52.034ZM287.88 53H289.042V46H287.88V48.926H284.184V46H283.022V53H284.184V49.976H287.88V53ZM294.206 45.86C292.232 45.86 290.748 47.05 290.748 49.472C290.748 51.922 292.022 53.14 294.234 53.14C295.606 53.14 296.46 52.72 296.81 52.286V50.928C296.432 51.6 295.578 52.132 294.234 52.132C292.862 52.132 292.05 51.432 291.938 49.92H297.3V49.164C297.3 47.092 296.138 45.86 294.206 45.86ZM294.206 46.868C295.312 46.868 296.138 47.568 296.138 48.912V48.926H291.952C292.106 47.568 292.89 46.868 294.206 46.868ZM302.519 43.046C302.519 43.494 302.827 43.788 303.303 43.788C303.765 43.788 304.073 43.494 304.073 43.046C304.073 42.612 303.765 42.318 303.303 42.318C302.827 42.318 302.519 42.612 302.519 43.046ZM299.607 43.046C299.607 43.494 299.915 43.788 300.391 43.788C300.853 43.788 301.161 43.494 301.161 43.046C301.161 42.612 300.853 42.318 300.391 42.318C299.915 42.318 299.607 42.612 299.607 43.046ZM301.931 45.86C299.957 45.86 298.473 47.05 298.473 49.472C298.473 51.922 299.747 53.14 301.959 53.14C303.331 53.14 304.185 52.72 304.535 52.286V50.928C304.157 51.6 303.303 52.132 301.959 52.132C300.587 52.132 299.775 51.432 299.663 49.92H305.025V49.164C305.025 47.092 303.863 45.86 301.931 45.86ZM301.931 46.868C303.037 46.868 303.863 47.568 303.863 48.912V48.926H299.677C299.831 47.568 300.615 46.868 301.931 46.868ZM316.82 53H317.982V46H316.792L314.23 49.71L311.626 46H310.366V53H311.528V47.708L313.922 51.208H314.44L316.82 47.708V53ZM320.336 48.184C320.812 47.4 321.624 46.868 322.716 46.868C323.724 46.868 324.424 47.204 324.424 48.394V48.954H322.758C320.896 48.954 319.804 49.402 319.804 50.942C319.804 52.37 320.728 53.112 322.114 53.112C323.22 53.112 324.116 52.58 324.48 51.81V53H325.586V48.38C325.586 46.462 324.508 45.86 322.716 45.86C321.638 45.86 320.798 46.182 320.336 46.532V48.184ZM322.408 52.034C321.47 52.034 320.994 51.558 320.994 50.872C320.994 50.074 321.54 49.878 322.8 49.878H324.424V50.634C324.354 51.11 323.836 52.034 322.408 52.034ZM332.952 52.286V50.928C332.602 51.6 331.832 52.132 330.67 52.132C329.186 52.132 328.36 51.306 328.36 49.514V49.472C328.36 47.75 329.172 46.868 330.642 46.868C331.594 46.868 332.406 47.4 332.882 48.184V46.532C332.42 46.182 331.58 45.86 330.642 45.86C328.668 45.86 327.184 47.05 327.184 49.472C327.184 51.922 328.458 53.14 330.67 53.14C331.86 53.14 332.63 52.72 332.952 52.286ZM336.475 53H337.637V47.036H339.961V46H334.137V47.036H336.475V53ZM344.355 45.86C342.381 45.86 340.897 47.05 340.897 49.472C340.897 51.922 342.171 53.14 344.383 53.14C345.755 53.14 346.609 52.72 346.959 52.286V50.928C346.581 51.6 345.727 52.132 344.383 52.132C343.011 52.132 342.199 51.432 342.087 49.92H347.449V49.164C347.449 47.092 346.287 45.86 344.355 45.86ZM344.355 46.868C345.461 46.868 346.287 47.568 346.287 48.912V48.926H342.101C342.255 47.568 343.039 46.868 344.355 46.868ZM349.153 55.52H350.315V51.922C350.707 52.58 351.533 53.154 352.709 53.154C354.711 53.154 355.901 52.104 355.901 49.346C355.901 46.896 354.711 45.86 352.849 45.86C351.435 45.86 350.609 46.532 350.259 47.344V46H349.153V55.52ZM350.315 49.122C350.343 47.722 351.085 46.91 352.541 46.91C353.857 46.91 354.725 47.54 354.725 49.416C354.725 51.362 354.067 52.104 352.527 52.104C351.211 52.104 350.315 51.25 350.315 49.794V49.122ZM357.714 48.184C358.19 47.4 359.002 46.868 360.094 46.868C361.102 46.868 361.802 47.204 361.802 48.394V48.954H360.136C358.274 48.954 357.182 49.402 357.182 50.942C357.182 52.37 358.106 53.112 359.492 53.112C360.598 53.112 361.494 52.58 361.858 51.81V53H362.964V48.38C362.964 46.462 361.886 45.86 360.094 45.86C359.016 45.86 358.176 46.182 357.714 46.532V48.184ZM359.786 52.034C358.848 52.034 358.372 51.558 358.372 50.872C358.372 50.074 358.918 49.878 360.178 49.878H361.802V50.634C361.732 51.11 361.214 52.034 359.786 52.034ZM25.22 75.028C24.856 76.33 24.394 76.512 23.96 76.512C23.582 76.512 23.19 76.316 22.98 76.106V77.31C23.19 77.492 23.652 77.618 24.1 77.618C24.912 77.618 25.542 77.226 26.088 75.742L28.958 68H27.712L25.822 73.46L23.554 68H22.21L25.22 75.028ZM34.6084 75H35.7704V68H34.6084V71.43C34.1324 71.64 33.4884 71.766 32.8724 71.766C31.7244 71.766 31.1644 71.248 31.1644 70.254V68H30.0024V70.38C30.0024 72.06 31.0104 72.816 32.7884 72.816C33.4044 72.816 34.1184 72.69 34.6084 72.424V75ZM38.1207 70.184C38.5967 69.4 39.4087 68.868 40.5007 68.868C41.5087 68.868 42.2087 69.204 42.2087 70.394V70.954H40.5427C38.6807 70.954 37.5887 71.402 37.5887 72.942C37.5887 74.37 38.5127 75.112 39.8987 75.112C41.0047 75.112 41.9007 74.58 42.2647 73.81V75H43.3707V70.38C43.3707 68.462 42.2927 67.86 40.5007 67.86C39.4227 67.86 38.5827 68.182 38.1207 68.532V70.184ZM40.1927 74.034C39.2547 74.034 38.7787 73.558 38.7787 72.872C38.7787 72.074 39.3247 71.878 40.5847 71.878H42.2087V72.634C42.1387 73.11 41.6207 74.034 40.1927 74.034ZM50.7369 74.286V72.928C50.3869 73.6 49.6169 74.132 48.4549 74.132C46.9709 74.132 46.1449 73.306 46.1449 71.514V71.472C46.1449 69.75 46.9569 68.868 48.4269 68.868C49.3789 68.868 50.1909 69.4 50.6669 70.184V68.532C50.2049 68.182 49.3649 67.86 48.4269 67.86C46.4529 67.86 44.9689 69.05 44.9689 71.472C44.9689 73.922 46.2429 75.14 48.4549 75.14C49.6449 75.14 50.4149 74.72 50.7369 74.286ZM54.2603 75H55.4223V69.036H57.7463V68H51.9223V69.036H54.2603V75ZM59.2138 75H60.3758V71.92H61.6358L64.1558 75H65.6258L62.6018 71.304L65.1637 68H63.8338L61.6358 70.926H60.3758V68H59.2138V75ZM67.1324 70.184C67.6084 69.4 68.4204 68.868 69.5124 68.868C70.5204 68.868 71.2204 69.204 71.2204 70.394V70.954H69.5544C67.6924 70.954 66.6004 71.402 66.6004 72.942C66.6004 74.37 67.5244 75.112 68.9104 75.112C70.0164 75.112 70.9124 74.58 71.2764 73.81V75H72.3824V70.38C72.3824 68.462 71.3044 67.86 69.5124 67.86C68.4344 67.86 67.5944 68.182 67.1324 68.532V70.184ZM69.2044 74.034C68.2664 74.034 67.7904 73.558 67.7904 72.872C67.7904 72.074 68.3364 71.878 69.5964 71.878H71.2204V72.634C71.1504 73.11 70.6324 74.034 69.2044 74.034ZM79.1853 75L79.3113 74.832L83.1193 69.75V75H84.2813V68H83.2593L79.3113 73.208V68H78.1493V75H79.1853ZM91.7212 75H92.8832V69.036H95.2072V68H89.3832V69.036H91.7212V75ZM99.6007 67.86C97.6267 67.86 96.1427 69.05 96.1427 71.472C96.1427 73.922 97.4167 75.14 99.6287 75.14C101.001 75.14 101.855 74.72 102.205 74.286V72.928C101.827 73.6 100.973 74.132 99.6287 74.132C98.2567 74.132 97.4447 73.432 97.3327 71.92H102.695V71.164C102.695 69.092 101.533 67.86 99.6007 67.86ZM99.6007 68.868C100.707 68.868 101.533 69.568 101.533 70.912V70.926H97.3467C97.5007 69.568 98.2847 68.868 99.6007 68.868ZM103.283 75H104.641L106.587 72.214L108.533 75H109.961L107.329 71.318L109.793 68H108.435L106.657 70.506L104.879 68H103.451L105.887 71.416L103.283 75ZM116.08 75H117.242V68H116.08V70.926H112.384V68H111.222V75H112.384V71.976H116.08V75ZM120.515 75L120.641 74.832L124.449 69.75V75H125.611V68H124.589L120.641 73.208V68H119.479V75H120.515ZM127.847 75H129.009V71.92H130.269L132.789 75H134.259L131.235 71.304L133.797 68H132.467L130.269 70.926H129.009V68H127.847V75ZM135.765 70.184C136.241 69.4 137.053 68.868 138.145 68.868C139.153 68.868 139.853 69.204 139.853 70.394V70.954H138.187C136.325 70.954 135.233 71.402 135.233 72.942C135.233 74.37 136.157 75.112 137.543 75.112C138.649 75.112 139.545 74.58 139.909 73.81V75H141.015V70.38C141.015 68.462 139.937 67.86 138.145 67.86C137.067 67.86 136.227 68.182 135.765 68.532V70.184ZM137.837 74.034C136.899 74.034 136.423 73.558 136.423 72.872C136.423 72.074 136.969 71.878 138.229 71.878H139.853V72.634C139.783 73.11 139.265 74.034 137.837 74.034Z" fill="#190B25"></path> <rect x="6.5" y="6.5" width="411" height="83" rx="3.5" stroke="#FFE58F"></rect> </svg> 