<?xml version="1.0" encoding="UTF-8"?> <svg xmlns="http://www.w3.org/2000/svg" width="123" height="123" viewBox="0 0 123 123" fill="none"> <path d="M45.7711 16.274C70.88 7.76987 98.128 21.2331 106.631 46.345C115.134 71.4569 101.673 98.7081 76.5636 107.212C51.4547 115.716 24.2067 102.253 15.7036 77.1412C7.20045 52.0293 20.6621 24.7781 45.7711 16.274Z" fill="white"></path> <path d="M41.9916 50.4776C41.5716 50.3456 40.8277 50.1056 39.7477 50.1056C37.1917 50.1056 35.8838 51.3656 35.8838 54.4017C35.8838 57.4498 37.1437 58.6978 39.7957 58.6978C40.9357 58.6978 41.8356 58.3858 42.2196 58.1698L42.2196 57.0778C41.8596 57.2818 40.9357 57.7258 39.8077 57.7258C38.0677 57.7258 37.0117 56.9218 37.0117 54.2937C37.0117 51.8937 37.9357 51.0656 39.7117 51.0656C40.7077 51.0656 41.5596 51.3776 41.9916 51.6777L41.9916 50.4776ZM44.094 58.6018L44.982 58.6018L47.4539 55.0737C47.8139 54.5937 48.1859 53.9817 48.3899 53.6097L48.4259 53.6217C48.3899 54.0657 48.3539 55.1097 48.3539 56.0337L48.3539 58.6018L49.3499 58.6018L49.3499 52.2417L48.4739 52.2417L46.062 55.7337C45.714 56.2137 45.366 56.6938 45.066 57.2098L45.018 57.1858C45.054 56.8738 45.09 56.0817 45.09 55.3377L45.09 52.2417L44.094 52.2417L44.094 58.6018ZM55.9364 52.4457C55.5644 52.2537 55.1084 52.1217 54.3284 52.1217C52.2644 52.1217 51.2205 53.1297 51.2205 55.3017C51.2205 57.8578 52.3724 58.7338 54.2924 58.7338C55.1444 58.7338 55.8044 58.5658 56.1404 58.3018L56.1404 57.2218C55.7204 57.5698 55.0844 57.7738 54.4364 57.7738C53.0444 57.7738 52.2524 57.1738 52.2524 55.3857C52.2524 53.6097 53.0324 53.0697 54.1964 53.0697C54.9044 53.0697 55.5524 53.2977 55.9364 53.5737L55.9364 52.4457ZM59.249 58.6018L60.245 58.6018L60.245 53.1777L62.297 53.1777L62.297 52.2417L57.1851 52.2417L57.1851 53.1777L59.249 53.1777L59.249 58.6018ZM68.7758 55.7817L68.7758 55.1337C68.7758 53.3337 68.0678 52.1217 66.0999 52.1217C64.2399 52.1217 63.2319 53.2497 63.2319 55.3257C63.2319 57.7738 64.2879 58.7338 66.3398 58.7338C67.2878 58.7338 67.9958 58.3978 68.3078 58.1698L68.3078 57.1378C67.8398 57.5098 67.1678 57.8338 66.3638 57.8338C64.9719 57.8338 64.2399 57.1498 64.2399 55.7817L68.7758 55.7817ZM66.0879 53.0217C67.2638 53.0217 67.7798 53.6217 67.7798 54.9177L64.2399 54.9177C64.2399 53.6217 64.9239 53.0217 66.0879 53.0217ZM70.6481 58.6018L71.6441 58.6018L71.6441 55.3017C71.6441 54.5697 71.5721 53.8377 71.5121 53.1177C71.8961 53.9097 72.2561 54.6537 72.5321 55.1577L73.5761 57.0658L74.26 57.0658L75.364 55.1457C75.64 54.6657 75.952 53.9097 76.324 53.1057C76.264 53.8257 76.18 54.5457 76.18 55.2537L76.18 58.6018L77.176 58.6018L77.176 52.2417L75.916 52.2417L73.9841 56.0217L71.9681 52.2417L70.6481 52.2417L70.6481 58.6018ZM80.4799 54.3417L80.4798 52.2417L79.4839 52.2417L79.4839 58.6018C80.0359 58.6618 80.6118 58.6858 81.1638 58.6858C83.4078 58.6858 84.1038 57.6538 84.1038 56.3818C84.1038 54.9537 83.3838 54.2937 81.3558 54.2937C81.0558 54.2937 80.7918 54.3057 80.4799 54.3417ZM80.4799 57.7498L80.4799 55.1697C80.7318 55.1337 80.9118 55.1097 81.1638 55.1097C82.8198 55.1097 83.1078 55.6617 83.1078 56.4178C83.1078 57.2338 82.6998 57.7858 81.2718 57.7858C80.9118 57.7858 80.7678 57.7738 80.4799 57.7498ZM85.0038 58.6018L85.9997 58.6018L85.9997 52.2417L85.0038 52.2417L85.0038 58.6018ZM38.8512 63.3499C38.3592 63.6019 36.9193 63.6739 36.2953 63.7579C34.2073 64.0459 33.4273 65.4259 33.4273 68.738C33.4273 71.5101 34.4113 72.7221 36.4513 72.7221C38.3472 72.7221 39.4032 71.7141 39.4032 69.278C39.4032 66.974 38.4072 66.326 36.8353 66.326C35.8873 66.326 34.9873 66.722 34.4353 67.538L34.3993 67.526C34.5673 65.594 34.9513 64.8979 36.6913 64.7899C38.0232 64.7059 38.6112 64.6459 38.8512 64.5139L38.8512 63.3499ZM36.4753 71.7741C35.1913 71.7741 34.4593 71.0661 34.4593 69.17C34.4593 67.934 35.2993 67.238 36.5233 67.238C37.6872 67.238 38.3472 67.706 38.3472 69.398C38.3472 71.0661 37.7352 71.7741 36.4753 71.7741ZM41.2757 72.6021L42.1637 72.6021L44.6356 69.074C44.9956 68.594 45.3676 67.982 45.5716 67.61L45.6076 67.622C45.5716 68.066 45.5356 69.11 45.5356 70.034L45.5356 72.6021L46.5316 72.6021L46.5316 66.242L45.6556 66.242L43.2437 69.734C42.8957 70.2141 42.5477 70.6941 42.2477 71.2101L42.1997 71.1861C42.2357 70.8741 42.2717 70.0821 42.2717 69.338L42.2717 66.242L41.2757 66.242L41.2757 72.6021ZM48.0422 72.6741C48.2222 72.7341 48.3302 72.7341 48.5222 72.7341C49.4701 72.7341 50.3101 72.0981 50.4541 67.586L50.4661 67.202L52.7941 67.202L52.7941 72.6021L53.79 72.6021L53.79 66.242L49.5661 66.242L49.5421 67.07C49.4221 71.3541 48.8581 71.5341 48.3542 71.5341C48.2342 71.5341 48.1502 71.5221 48.0422 71.4861L48.0422 72.6741ZM55.3194 72.6741C55.4993 72.7341 55.6073 72.7341 55.7993 72.7341C56.7473 72.7341 57.5873 72.0981 57.7313 67.586L57.7433 67.202L60.0712 67.202L60.0712 72.6021L61.0672 72.6021L61.0672 66.242L56.8433 66.242L56.8193 67.07C56.6993 71.3541 56.1353 71.5341 55.6313 71.5341C55.5113 71.5341 55.4273 71.5221 55.3194 71.4861L55.3194 72.6741ZM63.3885 72.6021L64.2765 72.6021L66.7484 69.074C67.1084 68.594 67.4804 67.982 67.6844 67.61L67.7204 67.622C67.6844 68.066 67.6484 69.11 67.6484 70.034L67.6484 72.6021L68.6444 72.6021L68.6444 66.242L67.7684 66.242L65.3565 69.734C65.0085 70.2141 64.6605 70.6941 64.3605 71.2101L64.3125 71.1861C64.3485 70.8741 64.3845 70.0821 64.3845 69.338L64.3845 66.242L63.3885 66.242L63.3885 72.6021ZM70.9469 72.6021L71.9429 72.6021L71.9429 69.854L75.1109 69.854L75.1109 72.6021L76.1068 72.6021L76.1068 66.242L75.1109 66.242L75.1109 68.906L71.9429 68.906L71.9429 66.242L70.9469 66.242L70.9469 72.6021ZM78.4116 72.6021L79.4076 72.6021L79.4076 67.178L82.4315 67.178L82.4315 66.242L78.4116 66.242L78.4116 72.6021ZM87.5547 72.6021L88.4667 72.6021L88.4667 68.282C88.4667 66.638 87.7107 66.122 86.0307 66.122C85.4187 66.122 84.5187 66.278 83.9908 66.566L83.9908 67.718C84.4227 67.358 85.2027 67.034 85.9227 67.034C86.9907 67.034 87.4707 67.274 87.4707 68.294L87.4707 68.894L86.0427 68.894C84.2188 68.894 83.5108 69.434 83.5108 70.8381C83.5108 72.0621 84.3028 72.7341 85.5747 72.7341C86.4867 72.7341 87.1707 72.2661 87.4947 71.6901L87.5547 72.6021ZM84.5307 70.6821C84.5307 69.914 84.8667 69.626 86.0787 69.626L87.4707 69.626L87.4707 70.1661C87.4707 71.0901 86.9427 71.7741 85.7667 71.7741C84.8907 71.7741 84.5307 71.3661 84.5307 70.6821Z" fill="#737688"></path> </svg> 