<?xml version="1.0" encoding="UTF-8"?> <svg xmlns="http://www.w3.org/2000/svg" width="61" height="61" viewBox="0 0 61 61" fill="none"> <path d="M44.8417 3.95512C59.2422 12.1501 64.2736 30.4687 56.0796 44.8709C47.8857 59.2731 29.5692 64.3051 15.1686 56.1102C0.768111 47.9152 -4.26326 29.5966 3.93073 15.1943C12.1247 0.792129 30.4412 -4.23984 44.8417 3.95512Z" fill="white"></path> <path d="M19.948 25.9026C19.528 25.7706 18.784 25.5306 17.704 25.5306C15.148 25.5306 13.84 26.7906 13.84 29.8266C13.84 32.8746 15.1 34.1226 17.752 34.1226C18.892 34.1226 19.792 33.8106 20.176 33.5946L20.176 32.5026C19.816 32.7066 18.892 33.1506 17.764 33.1506C16.024 33.1506 14.968 32.3466 14.968 29.7186C14.968 27.3186 15.892 26.4906 17.668 26.4906C18.664 26.4906 19.516 26.8026 19.948 27.1026L19.948 25.9026ZM21.0808 29.8266C21.0808 31.2666 21.9448 31.9146 23.4688 31.9146C24.0088 31.9146 24.6208 31.7946 25.0408 31.5666L25.0408 34.0266L26.0368 34.0266L26.0368 27.6666L25.0408 27.6666L25.0408 30.7266C24.6328 30.9066 24.0808 31.0146 23.5408 31.0146C22.5568 31.0146 22.0648 30.5706 22.0648 29.7186L22.0648 27.6666L21.0808 27.6666L21.0808 29.8266ZM33.4554 31.2066L33.4554 30.5586C33.4554 28.7586 32.7474 27.5466 30.7794 27.5466C28.9194 27.5466 27.9114 28.6746 27.9114 30.7506C27.9114 33.1986 28.9674 34.1586 31.0194 34.1586C31.9674 34.1586 32.6754 33.8226 32.9874 33.5946L32.9874 32.5626C32.5194 32.9346 31.8474 33.2586 31.0434 33.2586C29.6514 33.2586 28.9194 32.5746 28.9194 31.2066L33.4554 31.2066ZM30.7674 28.4466C31.9434 28.4466 32.4594 29.0466 32.4594 30.3426L28.9194 30.3426C28.9194 29.0466 29.6034 28.4466 30.7674 28.4466ZM36.4558 34.0266L37.4518 34.0266L37.4518 28.6026L39.5038 28.6026L39.5038 27.6666L34.3918 27.6666L34.3918 28.6026L36.4558 28.6026L36.4558 34.0266ZM44.4827 34.0266L45.3947 34.0266L45.3947 29.7066C45.3947 28.0626 44.6387 27.5466 42.9587 27.5466C42.3467 27.5466 41.4467 27.7026 40.9187 27.9906L40.9187 29.1426C41.3507 28.7826 42.1307 28.4586 42.8507 28.4586C43.9187 28.4586 44.3987 28.6986 44.3987 29.7186L44.3987 30.3186L42.9707 30.3186C41.1467 30.3186 40.4387 30.8586 40.4387 32.2626C40.4387 33.4866 41.2307 34.1586 42.5027 34.1586C43.4147 34.1586 44.0987 33.6906 44.4227 33.1146L44.4827 34.0266ZM41.4587 32.1066C41.4587 31.3386 41.7947 31.0506 43.0067 31.0506L44.3987 31.0506L44.3987 31.5906C44.3987 32.5146 43.8707 33.1986 42.6947 33.1986C41.8187 33.1986 41.4587 32.7906 41.4587 32.1066Z" fill="#737688"></path> </svg> 