<?xml version="1.0" encoding="UTF-8"?> <svg xmlns="http://www.w3.org/2000/svg" width="40" height="40" viewBox="0 0 40 40" fill="none"> <circle cx="20" cy="20" r="20" fill="#6BEAC7"></circle> <path d="M19.9846 20.0108L30.9955 9" stroke="white" stroke-width="2" stroke-linecap="round" stroke-linejoin="round"></path> <path d="M27.7705 12.2234C25.82 10.2768 23.21 9.13319 20.4567 9.01877C17.7035 8.90435 15.0076 9.8275 12.9023 11.6056C10.7971 13.3836 9.43588 15.8871 9.08803 18.6207C8.74017 21.3543 9.43099 24.1189 11.0238 26.3675C12.6166 28.6162 14.9955 30.1851 17.6896 30.7639C20.3838 31.3427 23.1971 30.8892 25.5729 29.4931C27.9487 28.097 29.714 25.86 30.5195 23.2248C31.325 20.5895 31.1121 17.7479 29.9229 15.262" stroke="white" stroke-width="2" stroke-linecap="round" stroke-linejoin="round"></path> <path d="M23.8775 16.1182C22.9673 15.2081 21.767 14.6456 20.4851 14.5287C19.2033 14.4117 17.921 14.7475 16.8611 15.4779C15.8012 16.2082 15.0307 17.2869 14.6835 18.5263C14.3363 19.7658 14.4345 21.0877 14.9608 22.2624C15.4872 23.437 16.4085 24.3901 17.5646 24.9559C18.7207 25.5218 20.0386 25.6647 21.2891 25.3597C22.5396 25.0547 23.6438 24.3212 24.4096 23.2867C25.1754 22.2521 25.5546 20.9819 25.4811 19.6969" stroke="white" stroke-width="2" stroke-linecap="round" stroke-linejoin="round"></path> </svg> 