<?xml version="1.0" encoding="UTF-8"?> <svg xmlns="http://www.w3.org/2000/svg" width="210" height="168" viewBox="0 0 210 168" fill="none"> <rect width="210" height="168" fill="white"></rect> <path d="M37.592 153.659C73.7168 172.113 132.287 172.113 168.408 153.659C204.529 135.205 204.533 105.267 168.408 86.833C132.283 68.3992 73.7168 68.3789 37.592 86.833C1.46728 105.287 1.47136 135.209 37.592 153.659Z" fill="#E7E9F8"></path> <path d="M30.6641 151.498C30.4029 151.32 30.1872 151.084 30.0342 150.807C29.8813 150.531 29.7955 150.223 29.7837 149.907V63.3706C29.8018 63.0453 29.8961 62.7288 30.0592 62.4467C30.2222 62.1647 30.4493 61.9249 30.7222 61.7469L132.528 2.96634C132.799 2.79608 133.111 2.70288 133.43 2.69676C133.75 2.69065 134.065 2.77186 134.342 2.93165C134.619 3.09144 134.847 3.32375 135.001 3.60354C135.156 3.88333 135.231 4.2 135.219 4.51943V91.0603C135.201 91.3856 135.107 91.7021 134.944 91.9842C134.781 92.2662 134.553 92.506 134.281 92.684L32.4746 151.465C32.1964 151.611 31.8877 151.69 31.5733 151.696C31.2589 151.702 30.9475 151.634 30.6641 151.498Z" fill="#737688"></path> <path d="M32.296 161.556H32.2587C32.2303 161.575 32.1995 161.589 32.1673 161.598H32.0967C32.055 161.614 32.0118 161.625 31.968 161.631C31.9401 161.643 31.9107 161.651 31.8808 161.654L31.7396 161.678C31.369 161.734 30.992 161.661 30.6599 161.466C30.3991 161.267 30.1838 161.001 30.0315 160.689C29.8793 160.378 29.7943 160.03 29.7837 159.674V74.4618L31.5444 75.6114V160.852C31.5444 161.321 31.7562 161.612 32.0635 161.612C32.1048 161.619 32.1468 161.619 32.1881 161.612C32.2264 161.6 32.2628 161.581 32.296 161.556Z" fill="#E7E9F8"></path> <path opacity="0.81" d="M32.2778 161.556H32.2481C32.2255 161.575 32.201 161.59 32.1754 161.598H32.1192C32.086 161.615 32.0516 161.626 32.0167 161.631C31.9945 161.644 31.9711 161.652 31.9473 161.655L31.8349 161.678C31.5399 161.734 31.2398 161.661 30.9754 161.467C30.7678 161.268 30.5964 161.003 30.4751 160.692C30.3539 160.381 30.2863 160.034 30.2778 159.68V74.6964L31.6795 75.8429V160.854C31.6795 161.322 31.8481 161.612 32.0927 161.612C32.1256 161.619 32.159 161.619 32.1919 161.612C32.2224 161.6 32.2514 161.581 32.2778 161.556Z" fill="#E7E9F8"></path> <path d="M31.54 75.4792L29.7793 74.4618V88.565L31.54 89.5907V75.4792Z" fill="#6BEAC7"></path> <path opacity="0.15" d="M31.54 75.4792L29.7793 74.4618L29.7798 88.5656L31.5405 89.5913L31.54 75.4792Z" fill="#353747"></path> <path d="M31.81 63.4618C31.6438 63.7414 31.551 64.0585 31.5401 64.3836V75.4795L29.7794 74.4621V63.3704C29.7773 63.3331 29.7773 63.2956 29.7794 63.2583C29.7874 63.1801 29.7999 63.1025 29.8168 63.0257C29.8685 62.8226 29.9467 62.6271 30.0493 62.4444L31.81 63.4618Z" fill="#353747"></path> <path d="M135.218 4.52335V9.53143L60.5914 52.615C60.0765 52.914 59.657 52.669 59.657 52.0752V50.1774C59.657 49.5836 59.2418 49.3469 58.7185 49.6376L35.9912 62.764C35.7183 62.9421 35.4912 63.1818 35.3282 63.4639C35.1651 63.746 35.0708 64.0624 35.0527 64.3877V66.2813C35.0351 66.6063 34.9413 66.9225 34.779 67.2045C34.6167 67.4866 34.3904 67.7265 34.1183 67.905L31.5396 69.4083V64.4251C31.5572 64.1002 31.6509 63.7839 31.8132 63.5019C31.9755 63.2199 32.2018 62.9799 32.4739 62.8014L134.284 3.98351C134.799 3.68452 135.218 3.92537 135.218 4.52335Z" fill="#353747"></path> <path d="M135.223 91.0647C135.204 91.3893 135.109 91.705 134.946 91.9863C134.783 92.2676 134.556 92.5067 134.284 92.6843L32.4739 151.465C31.959 151.76 31.5396 151.519 31.5396 150.921V69.4088L34.1183 67.9221C34.6333 67.6231 35.4721 63.0801 35.9912 62.7812L58.3365 49.8789C58.8556 49.5799 60.0765 52.9353 60.5914 52.6363L135.218 9.53194V91.0647H135.223Z" fill="white"></path> <path d="M135.218 9.53194V15.6239L31.5396 75.4799V69.4088L33.4622 68.2959C33.9771 67.9969 34.1516 67.5401 34.3966 66.6722L35.0527 64.4048C35.2562 63.6158 35.4679 63.0802 35.9912 62.7812L58.3365 49.8789C58.8556 49.5799 59.2625 49.5467 59.657 50.1987L60.4585 51.6521C60.7492 52.1629 60.8987 52.4619 61.4136 52.1629L135.218 9.53194Z" fill="#F5F6FF"></path> <path d="M130.825 7.66292C131.477 7.28918 132.004 7.59233 132.004 8.34395C131.982 8.75322 131.864 9.1515 131.659 9.50648C131.454 9.86145 131.168 10.1631 130.825 10.387C130.177 10.7608 129.65 10.4576 129.65 9.70602C129.672 9.29727 129.79 8.89947 129.994 8.54463C130.198 8.18978 130.483 7.88778 130.825 7.66292Z" fill="#6BEAC7"></path> <path d="M126.59 10.1092C127.237 9.7355 127.765 10.0386 127.765 10.7903C127.742 11.199 127.624 11.5968 127.42 11.9517C127.216 12.3065 126.932 12.6085 126.59 12.8334C125.938 13.2071 125.41 12.904 125.41 12.1523C125.432 11.7431 125.551 11.3448 125.756 10.9898C125.961 10.6348 126.246 10.3332 126.59 10.1092Z" fill="#6BEAC7"></path> <path d="M122.341 12.5547C122.989 12.1809 123.521 12.4841 123.521 13.2357C123.498 13.6447 123.379 14.0426 123.174 14.3975C122.969 14.7523 122.684 15.0541 122.341 15.2788C121.689 15.6567 121.162 15.3494 121.162 14.5978C121.184 14.1885 121.303 13.7902 121.508 13.4352C121.712 13.0803 121.998 12.7786 122.341 12.5547Z" fill="#6BEAC7"></path> <path opacity="0.5" d="M35.8342 69.8238L34.3642 70.6543L34.9248 69.5788C34.947 69.538 34.9586 69.4923 34.9586 69.4459C34.9586 69.3995 34.947 69.3538 34.9248 69.313C34.8833 69.2632 34.8085 69.313 34.7587 69.3919L33.9614 70.9284C33.9596 70.9478 33.9596 70.9672 33.9614 70.9865C33.9596 71.0128 33.9596 71.0392 33.9614 71.0654C33.9588 71.0889 33.9588 71.1126 33.9614 71.136C33.9593 71.147 33.9593 71.1583 33.9614 71.1693L34.7587 71.7839C34.7705 71.7912 34.7842 71.7951 34.7981 71.7951C34.8121 71.7951 34.8257 71.7912 34.8376 71.7839C34.8757 71.7527 34.9056 71.7128 34.9248 71.6676C34.9663 71.5679 34.9622 71.4558 34.9248 71.4184L34.3642 71.0032L35.8342 70.1726C35.8727 70.1428 35.9036 70.1043 35.9246 70.0603C35.9455 70.0163 35.9558 69.968 35.9546 69.9193C35.9546 69.8238 35.9007 69.7906 35.8342 69.8238Z" fill="#737688"></path> <path opacity="0.5" d="M37.063 69.1178L38.533 68.2872L37.9724 67.872C37.9226 67.8346 37.9184 67.7225 37.9724 67.6228C38.0264 67.5232 38.0887 67.4692 38.1385 67.5066L38.9358 68.1211C38.9463 68.1288 38.9548 68.1387 38.9608 68.1502C38.9651 68.1721 38.9651 68.1947 38.9608 68.2167C38.9651 68.2428 38.9651 68.2694 38.9608 68.2956C38.9608 68.2956 38.9608 68.2956 38.9608 68.3163C38.9542 68.3364 38.9459 68.3559 38.9358 68.3744L38.1385 69.8943C38.1213 69.9315 38.0939 69.9632 38.0596 69.9857C38.048 69.9971 38.0323 70.0035 38.016 70.0035C37.9997 70.0035 37.9841 69.9971 37.9724 69.9857C37.9491 69.9453 37.9368 69.8994 37.9368 69.8528C37.9368 69.8061 37.9491 69.7603 37.9724 69.7199L38.533 68.6402L37.063 69.4915C36.9966 69.5289 36.9467 69.4915 36.9467 69.3752C36.9441 69.3262 36.9533 69.2771 36.9735 69.2324C36.9938 69.1876 37.0244 69.1483 37.063 69.1178Z" fill="#737688"></path> <path opacity="0.5" d="M41.8762 64.882C41.8762 64.7947 41.789 64.8072 41.7516 64.9027L41.5481 65.3969C41.2035 65.3595 40.7882 65.6917 40.5058 66.2897C40.1445 67.0579 40.1445 67.9507 40.5058 68.3203C40.5945 68.4033 40.7094 68.4528 40.8306 68.4604C40.9518 68.468 41.0719 68.4331 41.1702 68.3619C41.4639 68.1649 41.6934 67.8863 41.8305 67.5604C41.8535 67.5214 41.8657 67.477 41.8657 67.4317C41.8657 67.3864 41.8535 67.3419 41.8305 67.3029C41.7807 67.2573 41.7059 67.3029 41.6603 67.3984C41.3903 67.9715 40.946 68.229 40.6761 67.9674C40.4062 67.7057 40.402 67.0247 40.6761 66.4475C40.8671 66.0322 41.1453 65.7955 41.3903 65.7831L41.2367 66.1527C41.1993 66.2482 41.2367 66.3395 41.2948 66.298L41.897 65.9077C41.92 65.8869 41.9379 65.8611 41.9494 65.8323C41.9609 65.8035 41.9657 65.7725 41.9634 65.7415L41.8762 64.882Z" fill="#737688"></path> <path opacity="0.5" d="M57.693 52.6405L58.2287 51.5027C58.2601 51.4492 58.2766 51.3882 58.2766 51.3262C58.2766 51.2641 58.2601 51.2032 58.2287 51.1497C58.1664 51.0916 58.0626 51.1497 58.0003 51.2826L57.4646 52.4162L56.9248 51.9013C56.8625 51.839 56.7587 51.9013 56.6964 52.0342C56.665 52.0877 56.6484 52.1487 56.6484 52.2107C56.6484 52.2727 56.665 52.3337 56.6964 52.3872L57.2321 52.9021L56.6964 54.0441C56.665 54.0976 56.6484 54.1585 56.6484 54.2206C56.6484 54.2826 56.665 54.3435 56.6964 54.3971C56.7127 54.4106 56.7333 54.4179 56.7545 54.4179C56.7757 54.4179 56.7963 54.4106 56.8127 54.3971C56.8642 54.365 56.9036 54.3168 56.9248 54.26L57.4646 53.1222L58.0003 53.6413C58.016 53.6545 58.0359 53.6617 58.0564 53.6617C58.0769 53.6617 58.0967 53.6545 58.1124 53.6413C58.1641 53.6084 58.2047 53.5606 58.2287 53.5042C58.2601 53.4507 58.2766 53.3898 58.2766 53.3277C58.2766 53.2657 58.2601 53.2048 58.2287 53.1513L57.693 52.6405Z" fill="#737688"></path> <path d="M43.8403 66.2774V64.3838C43.8595 64.0588 43.9548 63.7429 44.1186 63.4616C44.2823 63.1803 44.5099 62.9414 44.783 62.7642L129.019 14.1784C129.538 13.8794 129.958 14.1203 129.958 14.7183V16.587C129.94 16.9122 129.845 17.2287 129.682 17.5108C129.519 17.7929 129.292 18.0326 129.019 18.2106L44.783 66.8214C44.2597 67.1204 43.8403 66.8754 43.8403 66.2774Z" fill="white"></path> <path d="M127.736 18.3311C127.714 18.3354 127.691 18.3354 127.669 18.3311C127.626 18.3091 127.59 18.273 127.569 18.2286C127.548 18.1842 127.542 18.134 127.553 18.0861L127.645 17.3012L127.263 17.0271C127.235 17.0072 127.213 16.9809 127.199 16.9504C127.184 16.92 127.178 16.8864 127.179 16.8527C127.18 16.7956 127.192 16.7392 127.217 16.6875C127.241 16.6359 127.277 16.5902 127.321 16.5537L127.869 16.1385C127.887 16.1219 127.9 16.1002 127.906 16.0762L128.151 15.2706C128.165 15.2118 128.196 15.1583 128.239 15.1163C128.282 15.0744 128.337 15.0458 128.396 15.0339C128.433 15.0326 128.47 15.0422 128.501 15.0613C128.533 15.0805 128.559 15.1085 128.575 15.1418L128.795 15.6152L129.293 15.4242C129.328 15.4092 129.367 15.4056 129.404 15.4138C129.442 15.4219 129.475 15.4416 129.501 15.4699C129.533 15.5199 129.551 15.5783 129.551 15.6381C129.551 15.6978 129.533 15.7563 129.501 15.8063L129.086 16.5537C129.081 16.5757 129.081 16.5983 129.086 16.6202L129.181 17.2971C129.187 17.3524 129.18 17.4084 129.161 17.4609C129.143 17.5133 129.112 17.5609 129.073 17.6002C129.051 17.6266 129.023 17.6471 128.991 17.6602C128.959 17.6732 128.925 17.6783 128.89 17.675L128.396 17.6127L127.919 18.2522C127.896 18.2776 127.867 18.2978 127.836 18.3114C127.804 18.325 127.77 18.3317 127.736 18.3311ZM127.42 16.8071L127.802 17.0811C127.834 17.108 127.859 17.1429 127.873 17.1824C127.886 17.2219 127.889 17.2643 127.881 17.3054L127.836 17.9532L128.251 17.4299C128.275 17.3962 128.306 17.369 128.343 17.3509C128.38 17.3327 128.421 17.3242 128.463 17.3261L128.957 17.3884C128.957 17.3884 128.978 17.322 128.957 17.2888L128.861 16.6119C128.855 16.537 128.871 16.4618 128.907 16.3959L129.322 15.6485L128.865 15.8229C128.844 15.8324 128.82 15.8375 128.796 15.8379C128.773 15.8382 128.749 15.8338 128.727 15.8249C128.705 15.816 128.685 15.8028 128.668 15.786C128.651 15.7693 128.638 15.7493 128.629 15.7274L128.425 15.3121L128.18 16.1177C128.16 16.1918 128.116 16.2573 128.056 16.3046L127.508 16.7198C127.469 16.7373 127.438 16.7683 127.42 16.8071Z" fill="#E7E9F8"></path> <g opacity="0.5"> <path opacity="0.5" d="M131.055 13.9211C130.983 13.9218 130.913 13.8986 130.855 13.8551C130.798 13.8116 130.757 13.7502 130.739 13.6808C130.72 13.6113 130.725 13.5376 130.753 13.4713C130.781 13.4051 130.83 13.35 130.893 13.3148L133.526 11.7949C133.562 11.7734 133.603 11.7593 133.645 11.7535C133.688 11.7477 133.731 11.7502 133.772 11.761C133.813 11.7718 133.852 11.7906 133.886 11.8164C133.92 11.8422 133.948 11.8744 133.97 11.9112C133.991 11.948 134.006 11.9887 134.011 12.0309C134.017 12.0732 134.015 12.1162 134.004 12.1574C133.993 12.1987 133.974 12.2374 133.948 12.2714C133.923 12.3054 133.89 12.334 133.854 12.3555L131.217 13.8795C131.167 13.9073 131.111 13.9216 131.055 13.9211Z" fill="#737688"></path> <path opacity="0.5" d="M131.055 15.4456C130.998 15.4455 130.941 15.4305 130.892 15.4021C130.842 15.3737 130.801 15.3328 130.772 15.2836C130.751 15.2466 130.737 15.2057 130.731 15.1632C130.726 15.1208 130.729 15.0776 130.74 15.0363C130.751 14.995 130.77 14.9563 130.797 14.9225C130.823 14.8887 130.855 14.8604 130.893 14.8393L133.525 13.3153C133.6 13.2812 133.684 13.276 133.762 13.3006C133.839 13.3253 133.905 13.378 133.946 13.4486C133.987 13.5191 134 13.6024 133.983 13.6822C133.966 13.762 133.92 13.8325 133.854 13.88L131.217 15.3999C131.167 15.4289 131.112 15.4447 131.055 15.4456Z" fill="#737688"></path> <path opacity="0.5" d="M131.054 16.965C130.997 16.9649 130.941 16.9499 130.892 16.9215C130.842 16.8931 130.801 16.8523 130.772 16.803C130.751 16.7663 130.737 16.7257 130.731 16.6836C130.726 16.6415 130.729 16.5987 130.74 16.5577C130.751 16.5167 130.77 16.4784 130.797 16.4449C130.823 16.4115 130.855 16.3836 130.892 16.3629L133.525 14.8388C133.562 14.8173 133.603 14.8032 133.645 14.7974C133.687 14.7916 133.73 14.7942 133.771 14.805C133.813 14.8157 133.851 14.8346 133.885 14.8603C133.919 14.8861 133.948 14.9183 133.97 14.9551C133.991 14.9919 134.005 15.0326 134.011 15.0749C134.017 15.1171 134.014 15.1601 134.003 15.2014C133.993 15.2426 133.974 15.2813 133.948 15.3153C133.922 15.3493 133.89 15.3779 133.853 15.3994L131.216 16.9235C131.167 16.9512 131.111 16.9656 131.054 16.965Z" fill="#737688"></path> </g> <path d="M32.4824 161.588C31.9151 161.588 31.5737 161.122 31.5737 160.334V75.9616L135.001 16.3075V100.339C134.966 101.04 134.765 101.724 134.417 102.334C134.068 102.944 133.58 103.463 132.993 103.85L33.3056 161.332C33.0583 161.488 32.7744 161.576 32.4824 161.588Z" fill="white"></path> <path d="M31.5396 75.4631V89.5829L135.278 29.5877V15.4679L31.5396 75.4631Z" fill="#6BEAC7"></path> <path d="M39.4346 76.544V78.5504C39.4346 78.9617 39.7308 79.1322 40.0872 78.9266L72.0598 60.4831V56.972L40.0872 75.4154C39.8983 75.5402 39.7411 75.707 39.6278 75.9029C39.5145 76.0987 39.4484 76.3182 39.4346 76.544Z" fill="white"></path> <path d="M75.4897 54.9957C75.8512 54.785 76.1423 54.9556 76.1423 55.3719V57.3783C76.1293 57.6042 76.0635 57.824 75.9501 58.02C75.8368 58.2159 75.6791 58.3827 75.4897 58.5068L72.061 60.4831V56.972L75.4897 54.9957Z" fill="#353747"></path> <g opacity="0.1"> <path opacity="0.1" d="M102.649 39.1051C102.001 39.529 101.462 40.0996 101.075 40.7706C100.689 41.4417 100.466 42.1943 100.425 42.9674C100.425 44.3869 101.429 44.9737 102.649 44.2515C103.298 43.8292 103.839 43.2598 104.226 42.5896C104.613 41.9193 104.837 41.1671 104.878 40.3942C104.883 38.9747 103.879 38.3979 102.649 39.1051Z" fill="#44D370"></path> <path opacity="0.1" d="M92.4579 44.9885C91.8087 45.4107 91.2685 45.9801 90.8811 46.6504C90.4938 47.3206 90.2704 48.0728 90.229 48.8457C90.229 50.2652 91.233 50.852 92.4579 50.1348C93.1063 49.7109 93.6455 49.1403 94.0319 48.4693C94.4183 47.7982 94.6409 47.0456 94.6818 46.2725C94.6818 44.853 93.6878 44.2862 92.4579 44.9885Z" fill="#44D370"></path> <path opacity="0.1" d="M112.844 33.252C112.196 33.6748 111.656 34.2445 111.27 34.9147C110.884 35.585 110.661 36.3369 110.62 37.1093C110.62 38.5288 111.624 39.1156 112.844 38.3933C113.493 37.9714 114.034 37.4021 114.421 36.7317C114.809 36.0614 115.032 35.3091 115.073 34.5361C115.073 33.0915 114.079 32.5147 112.844 33.252Z" fill="#44D370"></path> <path opacity="0.1" d="M123.045 27.3325C122.396 27.7547 121.856 28.3242 121.469 28.9944C121.081 29.6647 120.858 30.4169 120.816 31.1898C120.816 32.6093 121.82 33.1961 123.045 32.4738C123.695 32.0516 124.235 31.4822 124.622 30.8119C125.009 30.1417 125.233 29.3895 125.274 28.6166C125.274 27.1971 124.275 26.6203 123.045 27.3325Z" fill="#44D370"></path> </g> <path d="M41.6288 91.0087L65.8303 77.0444C67.0301 76.3523 68.004 76.914 68.004 78.2984V101.517C67.9628 102.271 67.7445 103.004 67.3669 103.657C66.9893 104.311 66.4629 104.867 65.8303 105.279L41.6288 119.238C40.429 119.93 39.4551 119.369 39.4551 117.984V94.7706C39.4963 94.0171 39.7146 93.2838 40.0922 92.6303C40.4698 91.9767 40.9962 91.4212 41.6288 91.0087Z" fill="#E7E9F8"></path> <path d="M76.2669 71.011L126.969 41.7783C128.169 41.0811 129.143 41.6429 129.143 43.0323V66.2459C129.102 66.9995 128.883 67.7327 128.506 68.3863C128.128 69.0399 127.602 69.5954 126.969 70.0078L76.2669 99.2405C75.0671 99.9327 74.0933 99.3709 74.0933 97.9865V74.7729C74.1345 74.0194 74.3527 73.2861 74.7304 72.6325C75.108 71.979 75.6344 71.4235 76.2669 71.011Z" fill="#E7E9F8"></path> <path d="M41.6292 126.296L109.182 88.4594C110.387 87.7672 111.361 88.2587 111.361 89.5578C111.308 90.2872 111.083 90.9938 110.705 91.6203C110.328 92.2468 109.808 92.7758 109.188 93.1643L41.6292 131.001C40.4295 131.694 39.4556 131.202 39.4556 129.903C39.5092 129.173 39.7339 128.467 40.1116 127.84C40.4892 127.214 41.0091 126.685 41.6292 126.296Z" fill="#E7E9F8"></path> <path d="M41.6292 134.533L109.182 96.6963C110.387 96.0041 111.361 96.4956 111.361 97.7947C111.308 98.5241 111.083 99.2307 110.705 99.8572C110.328 100.484 109.808 101.013 109.188 101.401L41.6292 139.238C40.4295 139.93 39.4556 139.439 39.4556 138.14C39.5092 137.41 39.7339 136.704 40.1116 136.077C40.4892 135.451 41.0091 134.922 41.6292 134.533Z" fill="#E7E9F8"></path> <path d="M41.6292 142.765L109.182 104.927C110.387 104.235 111.361 104.727 111.361 106.026C111.308 106.755 111.083 107.462 110.705 108.088C110.328 108.715 109.808 109.244 109.188 109.632L41.6292 147.469C40.4295 148.162 39.4556 147.67 39.4556 146.371C39.5092 145.642 39.7339 144.935 40.1116 144.309C40.4892 143.682 41.0091 143.153 41.6292 142.765Z" fill="#E7E9F8"></path> <path d="M99.1304 60.1393V160.372C99.1304 161.555 99.9624 162.035 100.987 161.443L146.054 135.444C146.595 135.092 147.044 134.618 147.367 134.059C147.69 133.501 147.876 132.874 147.911 132.231V31.9979C147.911 30.8152 147.079 30.3352 146.054 30.9266L100.987 56.9254C100.447 57.2772 99.9965 57.7517 99.6738 58.3102C99.3511 58.8687 99.1649 59.4954 99.1304 60.1393Z" fill="white" stroke="#E7E9F8" stroke-width="1.16981" stroke-miterlimit="10"></path> <path d="M101.742 62.0031C101.757 61.8444 101.808 61.6913 101.892 61.5559C101.976 61.4205 102.091 61.3066 102.227 61.2232L107.373 58.2621C107.639 58.1078 107.854 58.2107 107.854 58.4892C107.84 58.6476 107.789 58.8007 107.706 58.9361C107.623 59.0715 107.509 59.1856 107.373 59.2691L102.227 62.2303C101.961 62.3845 101.742 62.2817 101.742 62.0031Z" fill="#353747"></path> <path d="M101.742 64.0007C101.756 63.8419 101.808 63.6887 101.892 63.5532C101.976 63.4178 102.091 63.3039 102.227 63.2208L107.373 60.2597C107.639 60.1054 107.854 60.2083 107.854 60.4825C107.841 60.6417 107.79 60.7956 107.707 60.9318C107.624 61.068 107.509 61.1827 107.373 61.2667L102.227 64.2236C101.961 64.3779 101.742 64.2793 101.742 64.0007Z" fill="#353747"></path> <path d="M101.742 65.9976C101.756 65.8388 101.808 65.6855 101.892 65.5501C101.976 65.4146 102.091 65.3008 102.227 65.2177L107.373 62.2566C107.639 62.1023 107.854 62.2009 107.854 62.4794C107.841 62.638 107.79 62.7913 107.707 62.9268C107.624 63.0623 107.509 63.1762 107.373 63.2593L102.227 66.2204C101.961 66.3919 101.742 66.2761 101.742 65.9976Z" fill="#353747"></path> <path d="M144.429 40.2938V39.4924C144.429 39.4827 144.427 39.473 144.422 39.4644C144.418 39.4558 144.411 39.4485 144.403 39.4433C144.395 39.4381 144.385 39.4352 144.375 39.4348C144.366 39.4343 144.356 39.4365 144.347 39.441L143.73 39.7196C143.72 39.7244 143.709 39.7269 143.698 39.7271C143.688 39.7273 143.677 39.725 143.667 39.7205C143.657 39.716 143.648 39.7093 143.641 39.701C143.634 39.6927 143.629 39.6829 143.627 39.6724C143.594 39.5656 143.548 39.4634 143.49 39.3682C143.478 39.3449 143.472 39.3192 143.472 39.2932C143.472 39.2671 143.478 39.2414 143.49 39.2182L143.918 38.3868C143.929 38.3658 143.931 38.3414 143.924 38.319C143.916 38.2965 143.901 38.2778 143.88 38.2668L143.451 38.0097C143.431 37.9994 143.407 37.9968 143.385 38.0023C143.363 38.0078 143.344 38.0211 143.331 38.0397L142.816 38.8111C142.801 38.8318 142.781 38.8484 142.758 38.8596C142.734 38.8708 142.709 38.8762 142.683 38.8754C142.571 38.8744 142.459 38.8859 142.349 38.9096C142.338 38.9129 142.327 38.9137 142.316 38.9121C142.305 38.9105 142.295 38.9064 142.286 38.9003C142.277 38.8941 142.269 38.8859 142.264 38.8764C142.258 38.8669 142.255 38.8563 142.254 38.8454L142.186 38.1726C142.186 38.1254 142.143 38.104 142.104 38.1297L141.409 38.5283C141.387 38.5426 141.369 38.5616 141.355 38.5837C141.341 38.6059 141.332 38.6308 141.328 38.6568L141.259 39.4282C141.25 39.4829 141.225 39.5336 141.186 39.5739C141.047 39.7069 140.918 39.8501 140.8 40.0024C140.784 40.0216 140.762 40.0355 140.738 40.0424C140.713 40.0493 140.687 40.0488 140.663 40.041L140.234 39.8867C140.211 39.8794 140.187 39.8801 140.164 39.8887C140.141 39.8972 140.122 39.9131 140.11 39.9338L139.6 40.8166C139.589 40.8376 139.586 40.8613 139.59 40.8843C139.593 40.9074 139.604 40.9287 139.621 40.9451L139.981 41.2537C139.999 41.2713 140.011 41.2933 140.017 41.3175C140.024 41.3417 140.023 41.367 140.016 41.3908C139.95 41.5671 139.895 41.7474 139.853 41.9308C139.838 41.9827 139.808 42.029 139.767 42.0636L139.132 42.4921C139.111 42.5085 139.093 42.5292 139.081 42.5528C139.068 42.5765 139.061 42.6025 139.059 42.6293V43.4263C139.057 43.4366 139.058 43.4472 139.062 43.4569C139.066 43.4665 139.073 43.4747 139.082 43.4802C139.091 43.4858 139.101 43.4886 139.112 43.4881C139.122 43.4877 139.132 43.4841 139.141 43.4777L139.758 43.1992C139.768 43.1952 139.779 43.1934 139.79 43.1938C139.801 43.1943 139.812 43.1971 139.821 43.2019C139.831 43.2068 139.84 43.2136 139.846 43.222C139.853 43.2304 139.858 43.2402 139.861 43.2506C139.894 43.3575 139.94 43.4597 139.998 43.5549C140.01 43.5782 140.016 43.6038 140.016 43.6299C140.016 43.6559 140.01 43.6816 139.998 43.7049L139.57 44.5319C139.56 44.5538 139.558 44.5785 139.565 44.6013C139.573 44.6242 139.588 44.6437 139.608 44.6562L140.037 44.9133C140.057 44.9236 140.081 44.9263 140.103 44.9207C140.125 44.9152 140.144 44.9019 140.157 44.8833L140.672 44.112C140.687 44.0913 140.707 44.0746 140.73 44.0634C140.753 44.0522 140.779 44.0468 140.805 44.0477C140.917 44.0486 141.029 44.0371 141.139 44.0134C141.15 44.0101 141.161 44.0093 141.172 44.0109C141.183 44.0125 141.193 44.0166 141.202 44.0228C141.211 44.029 141.219 44.0371 141.224 44.0466C141.23 44.0561 141.233 44.0667 141.234 44.0777L141.302 44.7505C141.302 44.7976 141.341 44.819 141.384 44.7933L142.079 44.3948C142.1 44.3793 142.119 44.3596 142.133 44.3368C142.147 44.3139 142.156 44.2885 142.16 44.262L142.229 43.4906C142.237 43.4369 142.263 43.3873 142.302 43.3492C142.441 43.2162 142.57 43.0729 142.688 42.9207C142.704 42.9014 142.726 42.8875 142.75 42.8806C142.775 42.8738 142.801 42.8743 142.825 42.8821L143.254 43.0364C143.277 43.0436 143.301 43.0429 143.324 43.0344C143.347 43.0258 143.366 43.0099 143.378 42.9892L143.888 42.1065C143.899 42.0846 143.903 42.0597 143.898 42.0357C143.893 42.0117 143.881 41.9899 143.863 41.9736L143.507 41.6694C143.489 41.6518 143.477 41.6297 143.47 41.6056C143.464 41.5814 143.465 41.556 143.472 41.5322C143.538 41.356 143.593 41.1756 143.635 40.9923C143.647 40.9393 143.678 40.8923 143.721 40.8594L144.356 40.4309C144.377 40.4142 144.394 40.3934 144.406 40.3698C144.419 40.3463 144.427 40.3204 144.429 40.2938ZM141.714 42.8221C141.066 43.1992 140.543 42.8949 140.543 42.1493C140.563 41.7423 140.68 41.3458 140.883 40.9926C141.087 40.6395 141.372 40.3397 141.714 40.1181C142.362 39.7453 142.885 40.0495 142.885 40.7952C142.864 41.2015 142.747 41.5971 142.544 41.9495C142.34 42.3018 142.056 42.6009 141.714 42.8221Z" fill="#737688"></path> <path d="M123.521 60.0485C128.787 57.0102 133.055 59.4743 133.055 65.5508C133.055 71.6273 128.787 79.0109 123.521 82.0491C118.254 85.0874 113.987 82.6234 113.987 76.5511C113.987 70.4789 118.254 63.0868 123.521 60.0485Z" fill="#E7E9F8"></path> <path d="M123.456 64.8314C125.172 63.8458 126.549 64.6429 126.549 66.6141C126.49 67.6856 126.179 68.7281 125.642 69.6573C125.105 70.5864 124.356 71.376 123.456 71.9621C121.741 72.9477 120.36 72.1507 120.36 70.1795C120.419 69.1075 120.73 68.0646 121.268 67.1354C121.806 66.2061 122.556 65.4168 123.456 64.8314Z" fill="#5AB0FF"></path> <path d="M129.559 75.3389C129.559 72.1035 127.282 70.7879 124.477 72.4077L122.697 73.4191C119.892 75.0389 117.615 78.9899 117.615 82.2167V83.1038C118.144 83.2729 118.697 83.3582 119.253 83.3566C120.758 83.3055 122.223 82.8623 123.503 82.071C125.953 80.5675 128.025 78.5224 129.559 76.0931V75.3389Z" fill="#5AB0FF"></path> <path d="M114.918 91.0882L132.133 81.1592C132.643 80.8635 133.059 81.0735 133.059 81.6306C133.036 81.9416 132.94 82.2428 132.779 82.51C132.618 82.7772 132.397 83.0029 132.133 83.169L114.922 93.098C114.407 93.398 113.991 93.1837 113.991 92.6309C114.013 92.3191 114.109 92.0169 114.27 91.7489C114.431 91.4808 114.653 91.2545 114.918 91.0882Z" fill="#5AB0FF"></path> <path d="M113.069 98.1928L133.972 86.1041C134.487 85.8084 134.903 86.0184 134.903 86.5754C134.88 86.8869 134.783 87.1884 134.622 87.4557C134.46 87.723 134.238 87.9485 133.972 88.1138L113.069 100.203C112.554 100.498 112.138 100.288 112.138 99.7312C112.161 99.4198 112.258 99.1182 112.42 98.8509C112.581 98.5837 112.804 98.3582 113.069 98.1928Z" fill="#353747"></path> <path d="M134.53 95.8479L140.384 92.4711C140.693 92.2954 140.941 92.3769 140.941 92.6554C140.918 92.8262 140.856 92.9893 140.759 93.1321C140.662 93.2748 140.534 93.3932 140.384 93.4782L134.53 96.855C134.225 97.0307 133.972 96.9493 133.972 96.675C133.996 96.5037 134.058 96.3402 134.155 96.1968C134.251 96.0534 134.38 95.9341 134.53 95.8479Z" fill="#737688"></path> <path d="M105.285 110.714L113.884 105.756C114.394 105.46 114.81 105.7 114.81 106.292V112.188C114.793 112.51 114.699 112.823 114.539 113.102C114.378 113.381 114.153 113.619 113.884 113.795L105.285 118.753C104.774 119.049 104.358 118.809 104.358 118.218V112.321C104.376 112 104.469 111.687 104.63 111.407C104.791 111.128 105.015 110.891 105.285 110.714Z" fill="#6BEAC7"></path> <path d="M106.658 111.537L112.512 108.16C112.821 107.984 113.069 108.066 113.069 108.34C113.047 108.512 112.985 108.676 112.888 108.819C112.791 108.963 112.662 109.082 112.512 109.167L106.658 112.544C106.349 112.72 106.1 112.638 106.1 112.364C106.123 112.192 106.185 112.028 106.282 111.885C106.378 111.741 106.507 111.622 106.658 111.537Z" fill="white"></path> <path d="M106.1 114.51V116.224C106.1 116.58 106.349 116.721 106.658 116.546L112.512 113.169C112.674 113.063 112.809 112.921 112.906 112.754C113.003 112.586 113.059 112.398 113.069 112.205V110.491C113.069 110.135 112.821 109.994 112.512 110.169L106.658 113.529C106.494 113.637 106.357 113.782 106.261 113.952C106.164 114.123 106.109 114.314 106.1 114.51Z" fill="white"></path> <path d="M119.224 102.675L127.801 97.7174C128.316 97.4217 128.732 97.6617 128.732 98.2531V104.15C128.715 104.472 128.621 104.785 128.459 105.065C128.298 105.344 128.072 105.581 127.801 105.757L119.224 110.715C118.709 111.01 118.297 110.77 118.297 110.179V104.282C118.314 103.961 118.407 103.647 118.568 103.368C118.729 103.089 118.953 102.851 119.224 102.675Z" fill="#6BEAC7"></path> <path d="M120.596 103.498L126.45 100.121C126.755 99.9451 127.004 100.026 127.004 100.301C126.981 100.472 126.919 100.635 126.823 100.779C126.727 100.922 126.6 101.041 126.45 101.128L120.596 104.505C120.287 104.68 120.039 104.599 120.039 104.32C120.062 104.15 120.124 103.986 120.221 103.844C120.318 103.701 120.446 103.583 120.596 103.498Z" fill="white"></path> <path d="M120.039 106.471V108.185C120.039 108.541 120.287 108.682 120.596 108.507L126.45 105.13C126.611 105.023 126.745 104.881 126.841 104.713C126.937 104.546 126.993 104.358 127.004 104.166V102.451C127.004 102.096 126.751 101.954 126.446 102.13L120.592 105.507C120.43 105.613 120.296 105.755 120.2 105.923C120.104 106.09 120.049 106.278 120.039 106.471Z" fill="white"></path> <path d="M133.162 94.6365L141.74 89.6741C142.25 89.3784 142.666 89.6184 142.666 90.2098V96.1106C142.648 96.4323 142.555 96.7452 142.394 97.0243C142.234 97.3035 142.009 97.5409 141.74 97.7176L133.162 102.676C132.647 102.971 132.231 102.731 132.231 102.14V96.2435C132.249 95.9213 132.342 95.6078 132.504 95.3286C132.666 95.0493 132.891 94.8122 133.162 94.6365Z" fill="#6BEAC7"></path> <path d="M134.53 95.459L140.384 92.1036C140.693 91.9236 140.941 92.0051 140.941 92.2836C140.919 92.4547 140.857 92.6182 140.76 92.7611C140.664 92.904 140.535 93.0222 140.384 93.1064L134.53 96.4832C134.225 96.6631 133.972 96.5817 133.972 96.3032C133.992 96.1286 134.053 95.9612 134.15 95.8145C134.247 95.6678 134.377 95.546 134.53 95.459Z" fill="white"></path> <path d="M133.972 98.4329V100.147C133.972 100.498 134.225 100.644 134.53 100.468L140.384 97.0873C140.546 96.982 140.682 96.8397 140.779 96.6721C140.876 96.5045 140.931 96.3164 140.941 96.1231V94.409C140.941 94.0533 140.693 93.9076 140.384 94.0876L134.53 97.4644C134.367 97.5707 134.232 97.7137 134.135 97.882C134.038 98.0503 133.982 98.239 133.972 98.4329Z" fill="white"></path> <path d="M106.215 124.242L140.826 104.277C141.855 103.686 142.683 104.106 142.683 105.216C142.638 105.839 142.447 106.443 142.124 106.979C141.801 107.514 141.357 107.966 140.826 108.297L106.215 128.262C105.19 128.853 104.358 128.433 104.358 127.324C104.404 126.7 104.596 126.097 104.919 125.562C105.241 125.026 105.686 124.574 106.215 124.242Z" fill="#E7E9F8"></path> <path d="M106.215 132.286L140.826 112.321C141.855 111.729 142.683 112.149 142.683 113.259C142.638 113.883 142.447 114.487 142.124 115.022C141.801 115.557 141.357 116.009 140.826 116.34L106.215 136.31C105.19 136.901 104.358 136.481 104.358 135.367C104.404 134.744 104.596 134.14 104.919 133.605C105.241 133.07 105.686 132.618 106.215 132.286Z" fill="#E7E9F8"></path> <path d="M120.419 133.486L132.497 126.518C133.011 126.222 133.427 126.462 133.427 127.053V130.94C133.41 131.262 133.316 131.576 133.155 131.855C132.993 132.134 132.768 132.371 132.497 132.547L120.419 139.515C119.905 139.811 119.489 139.571 119.489 138.979V135.093C119.506 134.77 119.6 134.457 119.761 134.178C119.923 133.898 120.149 133.661 120.419 133.486Z" fill="#6BEAC7"></path> <path d="M106.971 124.839C106.719 125.005 106.511 125.229 106.362 125.491C106.213 125.753 106.128 126.046 106.113 126.347C106.113 126.9 106.503 127.127 106.971 126.848C107.222 126.682 107.43 126.458 107.579 126.196C107.728 125.934 107.814 125.641 107.828 125.34C107.841 124.787 107.451 124.56 106.971 124.839Z" fill="white"></path> <path d="M109.732 123.245C109.481 123.411 109.272 123.634 109.123 123.896C108.974 124.158 108.889 124.452 108.875 124.753C108.875 125.306 109.261 125.533 109.732 125.255C109.983 125.088 110.192 124.864 110.341 124.602C110.49 124.34 110.575 124.047 110.59 123.746C110.603 123.193 110.213 122.958 109.732 123.245Z" fill="white"></path> <path d="M112.49 121.672C112.239 121.839 112.03 122.062 111.881 122.324C111.732 122.586 111.647 122.879 111.632 123.18C111.632 123.733 112.023 123.96 112.49 123.682C112.741 123.515 112.95 123.292 113.099 123.03C113.248 122.768 113.333 122.474 113.348 122.173C113.361 121.599 112.97 121.372 112.49 121.672Z" fill="white"></path> <path d="M115.252 120.056C115.001 120.222 114.792 120.446 114.643 120.708C114.494 120.97 114.409 121.263 114.395 121.564C114.395 122.117 114.785 122.344 115.252 122.066C115.503 121.899 115.712 121.676 115.861 121.414C116.01 121.152 116.095 120.858 116.11 120.557C116.123 120.004 115.733 119.777 115.252 120.056Z" fill="white"></path> <path d="M118.01 118.461C117.758 118.628 117.55 118.851 117.401 119.113C117.252 119.375 117.167 119.669 117.152 119.97C117.152 120.523 117.542 120.75 118.01 120.471C118.261 120.304 118.469 120.081 118.618 119.819C118.767 119.557 118.853 119.264 118.867 118.963C118.88 118.41 118.49 118.183 118.01 118.461Z" fill="white"></path> <path d="M120.767 116.867C120.516 117.034 120.308 117.257 120.159 117.519C120.01 117.781 119.924 118.075 119.91 118.376C119.91 118.929 120.3 119.156 120.767 118.877C121.019 118.711 121.228 118.488 121.377 118.225C121.526 117.963 121.611 117.67 121.625 117.369C121.638 116.816 121.252 116.589 120.767 116.867Z" fill="white"></path> <path d="M123.529 115.272C123.278 115.439 123.069 115.663 122.92 115.925C122.771 116.187 122.686 116.48 122.671 116.781C122.671 117.334 123.062 117.561 123.529 117.282C123.78 117.116 123.989 116.892 124.138 116.63C124.287 116.368 124.372 116.075 124.387 115.774C124.413 115.242 124.009 114.994 123.529 115.272Z" fill="white"></path> <path d="M106.971 132.886C106.72 133.053 106.512 133.277 106.363 133.539C106.214 133.8 106.128 134.093 106.113 134.394C106.113 134.951 106.503 135.174 106.971 134.896C107.222 134.73 107.43 134.507 107.579 134.246C107.728 133.985 107.814 133.692 107.828 133.392C107.841 132.834 107.451 132.612 106.971 132.886Z" fill="white"></path> <path d="M109.732 131.292C109.481 131.458 109.272 131.682 109.123 131.944C108.974 132.206 108.889 132.499 108.875 132.8C108.875 133.357 109.261 133.58 109.732 133.302C109.983 133.136 110.192 132.913 110.341 132.652C110.49 132.391 110.575 132.098 110.59 131.798C110.603 131.24 110.213 131.018 109.732 131.292Z" fill="white"></path> <path d="M112.49 129.698C112.239 129.865 112.031 130.089 111.882 130.351C111.733 130.613 111.648 130.906 111.632 131.207C111.632 131.764 112.023 131.987 112.49 131.708C112.741 131.542 112.95 131.32 113.099 131.058C113.248 130.797 113.333 130.504 113.348 130.204C113.361 129.647 112.97 129.42 112.49 129.698Z" fill="white"></path> <path d="M115.252 128.099C115.001 128.266 114.793 128.489 114.644 128.751C114.495 129.013 114.409 129.306 114.395 129.607C114.395 130.164 114.785 130.387 115.252 130.109C115.503 129.943 115.712 129.72 115.861 129.459C116.01 129.198 116.095 128.905 116.11 128.605C116.123 128.052 115.733 127.825 115.252 128.099Z" fill="white"></path> <path d="M118.01 126.51C117.758 126.677 117.55 126.9 117.401 127.162C117.252 127.424 117.167 127.718 117.152 128.018C117.152 128.576 117.542 128.798 118.01 128.52C118.261 128.354 118.469 128.131 118.618 127.87C118.767 127.609 118.853 127.316 118.867 127.016C118.88 126.459 118.49 126.232 118.01 126.51Z" fill="white"></path> <path d="M120.767 124.916C120.516 125.082 120.308 125.306 120.159 125.568C120.01 125.83 119.924 126.123 119.91 126.424C119.91 126.981 120.3 127.204 120.767 126.925C121.02 126.76 121.229 126.537 121.378 126.274C121.527 126.012 121.612 125.718 121.625 125.417C121.638 124.864 121.252 124.637 120.767 124.916Z" fill="white"></path> <path d="M123.529 123.321C123.278 123.488 123.069 123.711 122.92 123.973C122.771 124.235 122.686 124.529 122.671 124.829C122.671 125.387 123.062 125.609 123.529 125.331C123.781 125.164 123.989 124.941 124.138 124.679C124.287 124.417 124.372 124.123 124.387 123.822C124.413 123.27 124.009 123.043 123.529 123.321Z" fill="white"></path> <path d="M172.04 116.128C170.558 116.138 169.1 115.754 167.816 115.014C164.723 113.227 162.952 109.499 162.952 104.772C162.952 96.4672 168.236 86.9153 174.961 83.0243C178.593 80.9288 182.2 80.7017 185.121 82.3858C188.209 84.1685 189.984 87.9009 189.984 92.6233C189.984 100.928 184.701 110.484 177.954 114.375C176.17 115.466 174.131 116.07 172.04 116.128ZM180.901 87.2539C179.857 87.3276 178.847 87.6589 177.963 88.218C173.074 91.0249 168.956 98.6141 168.956 104.772C168.956 107.266 169.656 109.16 170.826 109.833C172.16 110.604 174.017 109.764 174.999 109.194C179.902 106.37 184.036 98.7812 184.036 92.6233C184.036 90.1293 183.337 88.2395 182.166 87.5624C181.78 87.3467 181.343 87.2401 180.901 87.2539Z" fill="#353747"></path> <path d="M185.087 93.9516C185.087 89.2849 182.145 87.5622 182.145 87.5622C183.316 88.2393 184.015 90.1334 184.015 92.6231C184.015 98.7811 179.88 106.37 174.978 109.194C173.996 109.764 172.143 110.604 170.805 109.833C170.805 109.833 173.288 111.375 176.719 109.503C181.686 106.799 185.087 100.109 185.087 93.9516Z" fill="#737688"></path> <path d="M180.369 35.6337C180.34 34.8336 180.001 34.0762 179.423 33.5207C178.846 32.9652 178.076 32.6548 177.275 32.6548C176.474 32.6548 175.704 32.9652 175.127 33.5207C174.55 34.0762 174.21 34.8336 174.181 35.6337V84.7901C174.203 85.0656 174.298 85.3302 174.458 85.5562C174.617 85.7823 174.834 85.9617 175.086 86.0756C175.764 86.418 176.513 86.5964 177.273 86.5964C178.033 86.5964 178.782 86.418 179.46 86.0756C179.713 85.9627 179.931 85.7836 180.091 85.5574C180.251 85.3312 180.347 85.0662 180.369 84.7901V35.6422V35.6337Z" fill="#737688"></path> <path d="M177.899 46.6211C177.865 46.0013 177.685 45.3982 177.375 44.8606C177.064 44.3231 176.631 43.8662 176.11 43.5272C175.927 43.3927 175.71 43.3112 175.483 43.2915C175.256 43.2719 175.028 43.3148 174.824 43.4157L167.198 47.8081L167.014 47.9153C166.986 47.9268 166.96 47.9427 166.937 47.9624C166.807 48.0501 166.685 48.1491 166.572 48.2581C166.142 48.6865 165.88 49.2551 165.835 49.8601C165.79 50.4652 165.964 51.0664 166.325 51.5539C166.687 52.0414 167.212 52.3827 167.804 52.5156C168.397 52.6485 169.017 52.5641 169.553 52.2777L169.699 52.192L177.38 47.7739C177.561 47.6447 177.704 47.47 177.795 47.2675C177.886 47.065 177.922 46.842 177.899 46.6211Z" fill="#353747"></path> <path d="M177.899 58.9275C177.865 58.3084 177.685 57.7061 177.374 57.1694C177.063 56.6326 176.63 56.1765 176.111 55.8378C175.928 55.7018 175.711 55.6189 175.484 55.5985C175.257 55.5781 175.028 55.6209 174.824 55.7221L165.878 60.8645L165.693 60.9716C165.665 60.9837 165.639 60.9996 165.616 61.0187C165.485 61.1053 165.363 61.2044 165.251 61.3144C164.972 61.5923 164.761 61.9314 164.636 62.3048C164.51 62.6782 164.474 63.0756 164.529 63.4656C164.584 63.8556 164.729 64.2275 164.952 64.5518C165.176 64.8761 165.472 65.1439 165.818 65.334C166.19 65.5315 166.605 65.6345 167.027 65.634C167.447 65.6359 167.862 65.5328 168.232 65.334C168.284 65.3083 168.331 65.274 168.378 65.2483L177.384 60.106C177.569 59.9741 177.714 59.795 177.804 59.5876C177.895 59.3801 177.928 59.152 177.899 58.9275Z" fill="#353747"></path> </svg> 