<?xml version="1.0" encoding="UTF-8"?> <svg xmlns="http://www.w3.org/2000/svg" width="256" height="222" viewBox="0 0 256 222" fill="none"> <path d="M0 8C0 3.58172 3.58172 0 8 0H248C252.418 0 256 3.58172 256 8V214C256 218.418 252.418 222 248 222H8C3.58172 222 0 218.418 0 214V8Z" fill="white"></path> <path d="M29.856 178H31.296V166.8H29.856V171.6H23.04V166.8H21.6V178H23.04V172.88H29.856V178ZM34.2986 172.496C34.8426 171.6 35.7706 170.992 37.0186 170.992C38.1706 170.992 38.9706 171.376 38.9706 172.736V173.376H37.0666C34.9386 173.376 33.6906 173.888 33.6906 175.648C33.6906 177.28 34.7466 178.128 36.3306 178.128C37.5946 178.128 38.6186 177.52 39.0346 176.64V178H40.2986V172.72C40.2986 170.528 39.0666 169.84 37.0186 169.84C35.7866 169.84 34.8266 170.208 34.2986 170.608V172.496ZM36.6666 176.896C35.5946 176.896 35.0506 176.352 35.0506 175.568C35.0506 174.656 35.6746 174.432 37.1146 174.432H38.9706V175.296C38.8906 175.84 38.2986 176.896 36.6666 176.896ZM48.1571 178H49.4851V170H42.7331V178H44.0611V171.184H48.1571V178ZM53.2296 178L53.3736 177.808L57.7256 172V178H59.0536V170H57.8856L53.3736 175.952V170H52.0456V178H53.2296ZM67.5921 177.184V175.632C67.1921 176.4 66.3121 177.008 64.9841 177.008C63.2881 177.008 62.3441 176.064 62.3441 174.016V173.968C62.3441 172 63.2721 170.992 64.9521 170.992C66.0401 170.992 66.9681 171.6 67.5121 172.496V170.608C66.9841 170.208 66.0241 169.84 64.9521 169.84C62.6961 169.84 61.0001 171.2 61.0001 173.968C61.0001 176.768 62.4561 178.16 64.9841 178.16C66.3441 178.16 67.2241 177.68 67.5921 177.184ZM69.7205 172.496C70.2645 171.6 71.1925 170.992 72.4405 170.992C73.5925 170.992 74.3925 171.376 74.3925 172.736V173.376H72.4885C70.3605 173.376 69.1125 173.888 69.1125 175.648C69.1125 177.28 70.1685 178.128 71.7525 178.128C73.0165 178.128 74.0405 177.52 74.4565 176.64V178H75.7205V172.72C75.7205 170.528 74.4885 169.84 72.4405 169.84C71.2085 169.84 70.2485 170.208 69.7205 170.608V172.496ZM72.0885 176.896C71.0165 176.896 70.4725 176.352 70.4725 175.568C70.4725 174.656 71.0965 174.432 72.5365 174.432H74.3925V175.296C74.3125 175.84 73.7205 176.896 72.0885 176.896ZM79.947 178H81.275V171.184H83.931V170H77.275V171.184H79.947V178ZM92.0881 175.184C92.0881 173.088 90.9521 172.576 88.7761 172.576H86.9361V170H85.6081V178H88.5681C91.0801 178 92.0721 177.248 92.0881 175.184ZM90.7601 175.168C90.7601 176.496 90.0881 176.816 88.5521 176.816H86.9361V173.76H88.6321C90.2321 173.76 90.7281 173.984 90.7601 175.168ZM98.1706 178H101.675C103.851 178 104.859 177.216 104.859 175.632C104.859 174.224 104.107 173.808 103.083 173.68C103.947 173.472 104.459 172.816 104.459 171.808C104.459 170.656 103.771 170 101.739 170H98.1706V178ZM99.4986 176.848V174.432H101.899C102.907 174.432 103.531 174.688 103.531 175.648C103.531 176.448 102.971 176.848 101.659 176.848H99.4986ZM99.4986 173.296V171.168L101.579 171.152C102.587 171.152 103.115 171.328 103.115 172.112C103.115 172.992 102.459 173.296 101.467 173.296H99.4986ZM112.806 178H114.134V171.184H116.79V170H110.134V171.184H112.806V178ZM121.812 169.84C119.556 169.84 117.86 171.2 117.86 173.968C117.86 176.768 119.316 178.16 121.844 178.16C123.412 178.16 124.388 177.68 124.788 177.184V175.632C124.356 176.4 123.38 177.008 121.844 177.008C120.276 177.008 119.348 176.208 119.22 174.48H125.348V173.616C125.348 171.248 124.02 169.84 121.812 169.84ZM121.812 170.992C123.076 170.992 124.02 171.792 124.02 173.328V173.344H119.236C119.412 171.792 120.308 170.992 121.812 170.992ZM126.019 178H127.571L129.795 174.816L132.019 178H133.651L130.643 173.792L133.459 170H131.907L129.875 172.864L127.843 170H126.211L128.995 173.904L126.019 178ZM135.253 177.136C135.253 177.696 135.493 178.16 136.293 178.16C137.109 178.16 137.349 177.696 137.349 177.136C137.349 176.56 137.109 176.096 136.293 176.096C135.493 176.096 135.253 176.56 135.253 177.136ZM149.642 178H150.97V170H144.218V178H145.546V171.184H149.642V178ZM152.922 173.968C152.922 176.768 154.362 178.144 156.89 178.16C159.146 178.16 160.842 176.8 160.842 174.032C160.842 171.248 159.386 169.856 156.874 169.84C154.618 169.84 152.922 171.2 152.922 173.968ZM154.266 173.968C154.266 172 155.194 170.992 156.874 170.992C158.554 171.008 159.498 171.952 159.498 173.984V174.032C159.498 176 158.57 177.008 156.89 177.008C155.194 177.008 154.266 176.064 154.266 174.016V173.968ZM161.599 176.736V180.08H162.863V178H169.119V180.08H170.383V176.736H169.087V170H163.455V170.912C163.455 173.92 163.103 175.552 162.559 176.736H161.599ZM164.703 171.84L164.719 171.184H167.759V176.736H163.871C164.447 175.376 164.655 173.888 164.703 171.84ZM171.49 176.736V180.08H172.754V178H179.01V180.08H180.274V176.736H178.978V170H173.346V170.912C173.346 173.92 172.994 175.552 172.45 176.736H171.49ZM174.594 171.84L174.61 171.184H177.65V176.736H173.762C174.338 175.376 174.546 173.888 174.594 171.84ZM185.28 169.84C183.024 169.84 181.328 171.2 181.328 173.968C181.328 176.768 182.784 178.16 185.312 178.16C186.88 178.16 187.856 177.68 188.256 177.184V175.632C187.824 176.4 186.848 177.008 185.312 177.008C183.744 177.008 182.816 176.208 182.688 174.48H188.816V173.616C188.816 171.248 187.488 169.84 185.28 169.84ZM185.28 170.992C186.544 170.992 187.488 171.792 187.488 173.328V173.344H182.704C182.88 171.792 183.776 170.992 185.28 170.992ZM190.764 180.88H192.092V176.768C192.54 177.52 193.484 178.176 194.828 178.176C197.116 178.176 198.476 176.976 198.476 173.824C198.476 171.024 197.116 169.84 194.988 169.84C193.372 169.84 192.428 170.608 192.028 171.536V170H190.764V180.88ZM192.092 173.568C192.124 171.968 192.972 171.04 194.636 171.04C196.14 171.04 197.132 171.76 197.132 173.904C197.132 176.128 196.38 176.976 194.62 176.976C193.116 176.976 192.092 176 192.092 174.336V173.568ZM204.282 178H205.61V174.48H207.002L209.114 178H210.682L208.074 173.792L210.426 170H209.002L206.954 173.344H205.61V170H204.282V173.344H202.938L200.97 170H199.45L201.85 173.856L199.226 178H200.762L202.954 174.48H204.282V178ZM212.28 178H213.608V174.48H215.048L217.928 178H219.608L216.152 173.776L219.08 170H217.56L215.048 173.344H213.608V170H212.28V178ZM223.602 178.032C223.186 179.52 222.658 179.728 222.162 179.728C221.73 179.728 221.282 179.504 221.042 179.264V180.64C221.282 180.848 221.81 180.992 222.322 180.992C223.25 180.992 223.97 180.544 224.594 178.848L227.874 170H226.45L224.29 176.24L221.698 170H220.162L223.602 178.032ZM26.64 196.096L24.912 194L26.64 191.92V190.32L23.52 194L26.64 197.68V196.096ZM23.76 196.096L22.032 194L23.76 191.92V190.32L20.64 194L23.76 197.68V196.096ZM27.5175 196.72V200.08H28.8615V198H37.7415V200.08H39.0855V196.72H37.6455V186.8H30.1255L30.0935 189.12C30.0455 192.576 29.5015 195.168 28.8615 196.72H27.5175ZM31.3735 189.168L31.3895 188.08H36.2055V196.72H30.2215C30.8775 194.928 31.3095 192.144 31.3735 189.168ZM40.1564 193.968C40.1564 196.768 41.5964 198.144 44.1244 198.16C46.3804 198.16 48.0764 196.8 48.0764 194.032C48.0764 191.248 46.6204 189.856 44.1084 189.84C41.8524 189.84 40.1564 191.2 40.1564 193.968ZM41.5004 193.968C41.5004 192 42.4284 190.992 44.1084 190.992C45.7884 191.008 46.7324 191.952 46.7324 193.984V194.032C46.7324 196 45.8044 197.008 44.1244 197.008C42.4284 197.008 41.5004 196.064 41.5004 194.016V193.968ZM57.406 198H58.734V190H57.374L54.446 194.24L51.47 190H50.03V198H51.358V191.952L54.094 195.952H54.686L57.406 191.952V198ZM61.4236 192.496C61.9676 191.6 62.8956 190.992 64.1436 190.992C65.2956 190.992 66.0956 191.376 66.0956 192.736V193.376H64.1916C62.0636 193.376 60.8156 193.888 60.8156 195.648C60.8156 197.28 61.8716 198.128 63.4556 198.128C64.7196 198.128 65.7436 197.52 66.1596 196.64V198H67.4236V192.72C67.4236 190.528 66.1916 189.84 64.1436 189.84C62.9116 189.84 61.9516 190.208 61.4236 190.608V192.496ZM63.7916 196.896C62.7196 196.896 62.1756 196.352 62.1756 195.568C62.1756 194.656 62.7996 194.432 64.2396 194.432H66.0956V195.296C66.0156 195.84 65.4236 196.896 63.7916 196.896ZM63.5516 188.56L66.0796 186H63.7756L62.4956 188.56H63.5516ZM69.3781 191.904L71.1061 194L69.3781 196.08V197.68L72.4981 194L69.3781 190.32V191.904ZM72.2581 191.904L73.9861 194L72.2581 196.08V197.68L75.3781 194L72.2581 190.32V191.904Z" fill="#190B25"></path> <path d="M29.856 97H31.296V85.8H29.856V90.6H23.04V85.8H21.6V97H23.04V91.88H29.856V97ZM34.2986 91.496C34.8426 90.6 35.7706 89.992 37.0186 89.992C38.1706 89.992 38.9706 90.376 38.9706 91.736V92.376H37.0666C34.9386 92.376 33.6906 92.888 33.6906 94.648C33.6906 96.28 34.7466 97.128 36.3306 97.128C37.5946 97.128 38.6186 96.52 39.0346 95.64V97H40.2986V91.72C40.2986 89.528 39.0666 88.84 37.0186 88.84C35.7866 88.84 34.8266 89.208 34.2986 89.608V91.496ZM36.6666 95.896C35.5946 95.896 35.0506 95.352 35.0506 94.568C35.0506 93.656 35.6746 93.432 37.1146 93.432H38.9706V94.296C38.8906 94.84 38.2986 95.896 36.6666 95.896ZM48.1571 97H49.4851V89H42.7331V97H44.0611V90.184H48.1571V97ZM53.2296 97L53.3736 96.808L57.7256 91V97H59.0536V89H57.8856L53.3736 94.952V89H52.0456V97H53.2296ZM67.5921 96.184V94.632C67.1921 95.4 66.3121 96.008 64.9841 96.008C63.2881 96.008 62.3441 95.064 62.3441 93.016V92.968C62.3441 91 63.2721 89.992 64.9521 89.992C66.0401 89.992 66.9681 90.6 67.5121 91.496V89.608C66.9841 89.208 66.0241 88.84 64.9521 88.84C62.6961 88.84 61.0001 90.2 61.0001 92.968C61.0001 95.768 62.4561 97.16 64.9841 97.16C66.3441 97.16 67.2241 96.68 67.5921 96.184ZM69.7205 91.496C70.2645 90.6 71.1925 89.992 72.4405 89.992C73.5925 89.992 74.3925 90.376 74.3925 91.736V92.376H72.4885C70.3605 92.376 69.1125 92.888 69.1125 94.648C69.1125 96.28 70.1685 97.128 71.7525 97.128C73.0165 97.128 74.0405 96.52 74.4565 95.64V97H75.7205V91.72C75.7205 89.528 74.4885 88.84 72.4405 88.84C71.2085 88.84 70.2485 89.208 69.7205 89.608V91.496ZM72.0885 95.896C71.0165 95.896 70.4725 95.352 70.4725 94.568C70.4725 93.656 71.0965 93.432 72.5365 93.432H74.3925V94.296C74.3125 94.84 73.7205 95.896 72.0885 95.896ZM79.947 97H81.275V90.184H83.931V89H77.275V90.184H79.947V97ZM92.0881 94.184C92.0881 92.088 90.9521 91.576 88.7761 91.576H86.9361V89H85.6081V97H88.5681C91.0801 97 92.0721 96.248 92.0881 94.184ZM90.7601 94.168C90.7601 95.496 90.0881 95.816 88.5521 95.816H86.9361V92.76H88.6321C90.2321 92.76 90.7281 92.984 90.7601 94.168ZM98.2986 91.496C98.8426 90.6 99.7706 89.992 101.019 89.992C102.171 89.992 102.971 90.376 102.971 91.736V92.376H101.067C98.9386 92.376 97.6906 92.888 97.6906 94.648C97.6906 96.28 98.7466 97.128 100.331 97.128C101.595 97.128 102.619 96.52 103.035 95.64V97H104.299V91.72C104.299 89.528 103.067 88.84 101.019 88.84C99.7866 88.84 98.8266 89.208 98.2986 89.608V91.496ZM100.667 95.896C99.5946 95.896 99.0506 95.352 99.0506 94.568C99.0506 93.656 99.6746 93.432 101.115 93.432H102.971V94.296C102.891 94.84 102.299 95.896 100.667 95.896ZM105.693 95.736V99.08H106.957V97H113.213V99.08H114.477V95.736H113.181V89H107.549V89.912C107.549 92.92 107.197 94.552 106.653 95.736H105.693ZM108.797 90.84L108.813 90.184H111.853V95.736H107.965C108.541 94.376 108.749 92.888 108.797 90.84ZM123.515 97H124.843V89H123.483L120.555 93.24L117.579 89H116.139V97H117.467V90.952L120.203 94.952H120.795L123.515 90.952V97ZM128.589 97L128.733 96.808L133.085 91V97H134.413V89H133.245L128.733 94.952V89H127.405V97H128.589ZM142.52 97H143.848V89H142.52V92.344H138.296V89H136.968V97H138.296V93.544H142.52V97ZM147.589 97L147.733 96.808L152.085 91V97H153.413V89H152.245L147.733 94.952V89H146.405V97H147.589ZM161.952 96.184V94.632C161.552 95.4 160.672 96.008 159.344 96.008C157.648 96.008 156.704 95.064 156.704 93.016V92.968C156.704 91 157.632 89.992 159.312 89.992C160.4 89.992 161.328 90.6 161.872 91.496V89.608C161.344 89.208 160.384 88.84 159.312 88.84C157.056 88.84 155.36 90.2 155.36 92.968C155.36 95.768 156.816 97.16 159.344 97.16C160.704 97.16 161.584 96.68 161.952 96.184ZM165.978 97H167.306V90.184H169.962V89H163.306V90.184H165.978V97ZM171.639 99.88H172.967V95.768C173.415 96.52 174.359 97.176 175.703 97.176C177.991 97.176 179.351 95.976 179.351 92.824C179.351 90.024 177.991 88.84 175.863 88.84C174.247 88.84 173.303 89.608 172.903 90.536V89H171.639V99.88ZM172.967 92.568C172.999 90.968 173.847 90.04 175.511 90.04C177.015 90.04 178.007 90.76 178.007 92.904C178.007 95.128 177.255 95.976 175.495 95.976C173.991 95.976 172.967 95 172.967 93.336V92.568ZM181.424 91.496C181.968 90.6 182.896 89.992 184.144 89.992C185.296 89.992 186.096 90.376 186.096 91.736V92.376H184.192C182.064 92.376 180.816 92.888 180.816 94.648C180.816 96.28 181.872 97.128 183.456 97.128C184.72 97.128 185.744 96.52 186.16 95.64V97H187.424V91.72C187.424 89.528 186.192 88.84 184.144 88.84C182.912 88.84 181.952 89.208 181.424 89.608V91.496ZM183.792 95.896C182.72 95.896 182.176 95.352 182.176 94.568C182.176 93.656 182.8 93.432 184.24 93.432H186.096V94.296C186.016 94.84 185.424 95.896 183.792 95.896ZM191.65 97H192.978V90.184H195.634V89H188.978V90.184H191.65V97ZM196.703 92.968C196.703 95.768 198.143 97.144 200.671 97.16C202.927 97.16 204.623 95.8 204.623 93.032C204.623 90.248 203.167 88.856 200.655 88.84C198.399 88.84 196.703 90.2 196.703 92.968ZM198.047 92.968C198.047 91 198.975 89.992 200.655 89.992C202.335 90.008 203.279 90.952 203.279 92.984V93.032C203.279 95 202.351 96.008 200.671 96.008C198.975 96.008 198.047 95.064 198.047 93.016V92.968ZM206.577 99.88H207.905V95.768C208.353 96.52 209.297 97.176 210.641 97.176C212.929 97.176 214.289 95.976 214.289 92.824C214.289 90.024 212.929 88.84 210.801 88.84C209.185 88.84 208.241 89.608 207.841 90.536V89H206.577V99.88ZM207.905 92.568C207.937 90.968 208.785 90.04 210.449 90.04C211.953 90.04 212.945 90.76 212.945 92.904C212.945 95.128 212.193 95.976 210.433 95.976C208.929 95.976 207.905 95 207.905 93.336V92.568ZM218.477 97.032C218.061 98.52 217.533 98.728 217.037 98.728C216.605 98.728 216.157 98.504 215.917 98.264V99.64C216.157 99.848 216.685 99.992 217.197 99.992C218.125 99.992 218.845 99.544 219.469 97.848L222.749 89H221.325L219.165 95.24L216.573 89H215.037L218.477 97.032ZM21.28 117H24.784C26.96 117 27.968 116.216 27.968 114.632C27.968 113.224 27.216 112.808 26.192 112.68C27.056 112.472 27.568 111.816 27.568 110.808C27.568 109.656 26.88 109 24.848 109H21.28V117ZM22.608 115.848V113.432H25.008C26.016 113.432 26.64 113.688 26.64 114.648C26.64 115.448 26.08 115.848 24.768 115.848H22.608ZM22.608 112.296V110.168L24.688 110.152C25.696 110.152 26.224 110.328 26.224 111.112C26.224 111.992 25.568 112.296 24.576 112.296H22.608ZM30.0955 111.496C30.6395 110.6 31.5675 109.992 32.8155 109.992C33.9675 109.992 34.7675 110.376 34.7675 111.736V112.376H32.8635C30.7355 112.376 29.4875 112.888 29.4875 114.648C29.4875 116.28 30.5435 117.128 32.1275 117.128C33.3915 117.128 34.4155 116.52 34.8315 115.64V117H36.0955V111.72C36.0955 109.528 34.8635 108.84 32.8155 108.84C31.5835 108.84 30.6235 109.208 30.0955 109.608V111.496ZM32.4635 115.896C31.3915 115.896 30.8475 115.352 30.8475 114.568C30.8475 113.656 31.4715 113.432 32.9115 113.432H34.7675V114.296C34.6875 114.84 34.0955 115.896 32.4635 115.896ZM38.53 117H48.722V109H47.394V115.736H44.29V109H42.962V115.736H39.858V109H38.53V117ZM54.624 108.84C52.368 108.84 50.672 110.2 50.672 112.968C50.672 115.768 52.128 117.16 54.656 117.16C56.224 117.16 57.2 116.68 57.6 116.184V114.632C57.168 115.4 56.192 116.008 54.656 116.008C53.088 116.008 52.16 115.208 52.032 113.48H58.16V112.616C58.16 110.248 56.832 108.84 54.624 108.84ZM54.624 109.992C55.888 109.992 56.832 110.792 56.832 112.328V112.344H52.048C52.224 110.792 53.12 109.992 54.624 109.992ZM61.2921 117L61.4361 116.808L65.7881 111V117H67.1161V109H65.9481L61.4361 114.952V109H60.1081V117H61.2921ZM64.8441 105.016C64.8441 106.008 64.3481 106.248 63.6441 106.248C62.7641 106.248 62.3481 105.8 62.3481 105.016H61.0681C61.0681 106.616 62.2361 107.288 63.6761 107.288C64.9081 107.288 66.1081 106.616 66.1081 105.016H64.8441ZM73.2189 112.968C73.2189 115.768 74.6589 117.144 77.1869 117.16C79.4429 117.16 81.1389 115.8 81.1389 113.032C81.1389 110.248 79.6829 108.856 77.1709 108.84C74.9149 108.84 73.2189 110.2 73.2189 112.968ZM74.5629 112.968C74.5629 111 75.4909 109.992 77.1709 109.992C78.8509 110.008 79.7949 110.952 79.7949 112.984V113.032C79.7949 115 78.8669 116.008 77.1869 116.008C75.4909 116.008 74.5629 115.064 74.5629 113.016V112.968ZM83.0925 119.88H84.4205V115.768C84.8685 116.52 85.8125 117.176 87.1565 117.176C89.4445 117.176 90.8045 115.976 90.8045 112.824C90.8045 110.024 89.4445 108.84 87.3165 108.84C85.7005 108.84 84.7565 109.608 84.3565 110.536V109H83.0925V119.88ZM84.4205 112.568C84.4525 110.968 85.3005 110.04 86.9645 110.04C88.4685 110.04 89.4605 110.76 89.4605 112.904C89.4605 115.128 88.7085 115.976 86.9485 115.976C85.4445 115.976 84.4205 115 84.4205 113.336V112.568ZM92.7488 117H94.0768V110.184H98.0928V109H92.7488V117ZM100.455 111.496C100.999 110.6 101.927 109.992 103.175 109.992C104.327 109.992 105.127 110.376 105.127 111.736V112.376H103.223C101.095 112.376 99.8469 112.888 99.8469 114.648C99.8469 116.28 100.903 117.128 102.487 117.128C103.751 117.128 104.775 116.52 105.191 115.64V117H106.455V111.72C106.455 109.528 105.223 108.84 103.175 108.84C101.943 108.84 100.983 109.208 100.455 109.608V111.496ZM102.823 115.896C101.751 115.896 101.207 115.352 101.207 114.568C101.207 113.656 101.831 113.432 103.271 113.432H105.127V114.296C105.047 114.84 104.455 115.896 102.823 115.896ZM114.441 117H115.769V109H114.441V112.344H110.217V109H108.889V117H110.217V113.544H114.441V117ZM119.511 117L119.655 116.808L124.007 111V117H125.335V109H124.167L119.655 114.952V109H118.327V117H119.511ZM127.409 116.184C127.825 116.68 128.849 117.16 130.337 117.16C132.113 117.16 133.569 116.376 133.569 114.568C133.569 113.512 132.993 112.952 131.937 112.744C132.721 112.376 133.169 111.928 133.169 110.92C133.169 109.656 132.481 108.84 130.449 108.84H130.417C129.185 108.84 128.097 109.208 127.489 109.608V111.496C128.113 110.6 129.169 109.992 130.417 109.992C131.441 110.024 131.825 110.408 131.825 111.16C131.825 112.056 131.105 112.44 130.097 112.44H129.137V113.496H130.337C131.585 113.496 132.241 113.8 132.241 114.648C132.241 115.544 131.441 115.992 130.337 116.008C128.881 116.008 127.857 115.4 127.409 114.632V116.184ZM135.705 111.496C136.249 110.6 137.177 109.992 138.425 109.992C139.577 109.992 140.377 110.376 140.377 111.736V112.376H138.473C136.345 112.376 135.097 112.888 135.097 114.648C135.097 116.28 136.153 117.128 137.737 117.128C139.001 117.128 140.025 116.52 140.441 115.64V117H141.705V111.72C141.705 109.528 140.473 108.84 138.425 108.84C137.193 108.84 136.233 109.208 135.705 109.608V111.496ZM138.073 115.896C137.001 115.896 136.457 115.352 136.457 114.568C136.457 113.656 137.081 113.432 138.521 113.432H140.377V114.296C140.297 114.84 139.705 115.896 138.073 115.896ZM144.139 117H150.843V119.08H152.107V115.736H150.843V109H149.515V115.736H145.467V109H144.139V117ZM154.948 117L155.092 116.808L159.444 111V117H160.772V109H159.604L155.092 114.952V109H153.764V117H154.948ZM164.511 117L164.655 116.808L169.007 111V117H170.335V109H169.167L164.655 114.952V109H163.327V117H164.511Z" fill="#190B25"></path> <path d="M20.8 30.384C20.8 33.952 23.04 36.144 26.656 36.16C30.304 36.16 32.512 33.728 32.512 30.416C32.512 26.864 30.256 24.656 26.656 24.64C23.008 24.64 20.8 27.072 20.8 30.384ZM22.304 30.4C22.304 27.728 23.952 25.936 26.64 25.92C29.488 25.936 31.008 27.872 31.008 30.4C31.008 33.088 29.344 34.88 26.672 34.88C23.824 34.864 22.304 32.928 22.304 30.4ZM38.7331 38.88H40.0611V34.768C40.5091 35.52 41.4531 36.176 42.7971 36.176C45.0851 36.176 46.4451 34.976 46.4451 31.824C46.4451 29.024 45.0851 27.84 42.9571 27.84C41.3411 27.84 40.3971 28.608 39.9971 29.536V28H38.7331V38.88ZM40.0611 31.568C40.0931 29.968 40.9411 29.04 42.6051 29.04C44.1091 29.04 45.1011 29.76 45.1011 31.904C45.1011 34.128 44.3491 34.976 42.5891 34.976C41.0851 34.976 40.0611 34 40.0611 32.336V31.568ZM48.5174 30.496C49.0614 29.6 49.9894 28.992 51.2374 28.992C52.3894 28.992 53.1894 29.376 53.1894 30.736V31.376H51.2854C49.1574 31.376 47.9094 31.888 47.9094 33.648C47.9094 35.28 48.9654 36.128 50.5494 36.128C51.8134 36.128 52.8374 35.52 53.2534 34.64V36H54.5174V30.72C54.5174 28.528 53.2854 27.84 51.2374 27.84C50.0054 27.84 49.0454 28.208 48.5174 28.608V30.496ZM50.8854 34.896C49.8134 34.896 49.2694 34.352 49.2694 33.568C49.2694 32.656 49.8934 32.432 51.3334 32.432H53.1894V33.296C53.1094 33.84 52.5174 34.896 50.8854 34.896ZM56.4719 35.184C56.8879 35.68 57.9119 36.16 59.3999 36.16C61.1759 36.16 62.6319 35.376 62.6319 33.568C62.6319 32.512 62.0559 31.952 60.9999 31.744C61.7839 31.376 62.2319 30.928 62.2319 29.92C62.2319 28.656 61.5439 27.84 59.5119 27.84H59.4799C58.2479 27.84 57.1599 28.208 56.5519 28.608V30.496C57.1759 29.6 58.2319 28.992 59.4799 28.992C60.5039 29.024 60.8879 29.408 60.8879 30.16C60.8879 31.056 60.1679 31.44 59.1599 31.44H58.1999V32.496H59.3999C60.6479 32.496 61.3039 32.8 61.3039 33.648C61.3039 34.544 60.5039 34.992 59.3999 35.008C57.9439 35.008 56.9199 34.4 56.4719 33.632V35.184ZM63.5994 34.736V38.08H64.8634V36H71.1194V38.08H72.3834V34.736H71.0874V28H65.4554V28.912C65.4554 31.92 65.1034 33.552 64.5594 34.736H63.5994ZM66.7034 29.84L66.7194 29.184H69.7594V34.736H65.8714C66.4474 33.376 66.6554 31.888 66.7034 29.84ZM77.3896 27.84C75.1336 27.84 73.4376 29.2 73.4376 31.968C73.4376 34.768 74.8936 36.16 77.4216 36.16C78.9896 36.16 79.9656 35.68 80.3656 35.184V33.632C79.9336 34.4 78.9576 35.008 77.4216 35.008C75.8536 35.008 74.9256 34.208 74.7976 32.48H80.9256V31.616C80.9256 29.248 79.5976 27.84 77.3896 27.84ZM77.3896 28.992C78.6536 28.992 79.5976 29.792 79.5976 31.328V31.344H74.8136C74.9896 29.792 75.8856 28.992 77.3896 28.992ZM87.9335 36H89.2615V28H83.6295L83.5975 29.104C83.4375 34.416 82.8135 34.64 81.9975 34.64C81.8855 34.64 81.7415 34.624 81.5975 34.592V36.016C81.7575 36.064 81.9815 36.096 82.2375 36.096C83.4055 36.096 84.6055 35.76 84.8135 29.792L84.8295 29.184H87.9335V36ZM95.1709 27.84C92.9149 27.84 91.2189 29.2 91.2189 31.968C91.2189 34.768 92.6749 36.16 95.2029 36.16C96.7709 36.16 97.7469 35.68 98.1469 35.184V33.632C97.7149 34.4 96.7389 35.008 95.2029 35.008C93.6349 35.008 92.7069 34.208 92.5789 32.48H98.7069V31.616C98.7069 29.248 97.3789 27.84 95.1709 27.84ZM95.1709 28.992C96.4349 28.992 97.3789 29.792 97.3789 31.328V31.344H92.5949C92.7709 29.792 93.6669 28.992 95.1709 28.992ZM110.171 34.096L108.443 32L110.171 29.92V28.32L107.051 32L110.171 35.68V34.096ZM107.291 34.096L105.563 32L107.291 29.92V28.32L104.171 32L107.291 35.68V34.096ZM111.049 34.72V38.08H112.393V36H121.273V38.08H122.617V34.72H121.177V24.8H113.657L113.625 27.12C113.577 30.576 113.033 33.168 112.393 34.72H111.049ZM114.905 27.168L114.921 26.08H119.737V34.72H113.753C114.409 32.928 114.841 30.144 114.905 27.168ZM125.48 36L125.624 35.808L129.976 30V36H131.304V28H130.136L125.624 33.952V28H124.296V36H125.48ZM139.842 35.184V33.632C139.442 34.4 138.562 35.008 137.234 35.008C135.538 35.008 134.594 34.064 134.594 32.016V31.968C134.594 30 135.522 28.992 137.202 28.992C138.29 28.992 139.218 29.6 139.762 30.496V28.608C139.234 28.208 138.274 27.84 137.202 27.84C134.946 27.84 133.25 29.2 133.25 31.968C133.25 34.768 134.706 36.16 137.234 36.16C138.594 36.16 139.474 35.68 139.842 35.184ZM147.267 36H148.595V28H141.843V36H143.171V29.184H147.267V36ZM154.499 27.84C152.243 27.84 150.547 29.2 150.547 31.968C150.547 34.768 152.003 36.16 154.531 36.16C156.099 36.16 157.075 35.68 157.475 35.184V33.632C157.043 34.4 156.067 35.008 154.531 35.008C152.963 35.008 152.035 34.208 151.907 32.48H158.035V31.616C158.035 29.248 156.707 27.84 154.499 27.84ZM154.499 28.992C155.763 28.992 156.707 29.792 156.707 31.328V31.344H151.923C152.099 29.792 152.995 28.992 154.499 28.992ZM161.775 36H163.103V29.184H165.759V28H159.103V29.184H161.775V36ZM172.3 36H173.628V28H172.3V31.92C171.756 32.16 171.02 32.304 170.316 32.304C169.004 32.304 168.364 31.712 168.364 30.576V28H167.036V30.72C167.036 32.64 168.188 33.504 170.22 33.504C170.924 33.504 171.74 33.36 172.3 33.056V36ZM179.53 27.84C177.274 27.84 175.578 29.2 175.578 31.968C175.578 34.768 177.034 36.16 179.562 36.16C181.13 36.16 182.106 35.68 182.506 35.184V33.632C182.074 34.4 181.098 35.008 179.562 35.008C177.994 35.008 177.066 34.208 176.938 32.48H183.066V31.616C183.066 29.248 181.738 27.84 179.53 27.84ZM179.53 28.992C180.794 28.992 181.738 29.792 181.738 31.328V31.344H176.954C177.13 29.792 178.026 28.992 179.53 28.992ZM185.014 38.88H186.342V34.768C186.79 35.52 187.734 36.176 189.078 36.176C191.366 36.176 192.726 34.976 192.726 31.824C192.726 29.024 191.366 27.84 189.238 27.84C187.622 27.84 186.678 28.608 186.278 29.536V28H185.014V38.88ZM186.342 31.568C186.374 29.968 187.222 29.04 188.886 29.04C190.39 29.04 191.382 29.76 191.382 31.904C191.382 34.128 190.63 34.976 188.87 34.976C187.366 34.976 186.342 34 186.342 32.336V31.568ZM200.655 35.184V33.632C200.255 34.4 199.375 35.008 198.047 35.008C196.351 35.008 195.407 34.064 195.407 32.016V31.968C195.407 30 196.335 28.992 198.015 28.992C199.103 28.992 200.031 29.6 200.575 30.496V28.608C200.047 28.208 199.087 27.84 198.015 27.84C195.759 27.84 194.063 29.2 194.063 31.968C194.063 34.768 195.519 36.16 198.047 36.16C199.407 36.16 200.287 35.68 200.655 35.184ZM202.655 36H203.983V32.48H205.423L208.303 36H209.983L206.527 31.776L209.455 28H207.935L205.423 31.344H203.983V28H202.655V36ZM211.705 30.496C212.249 29.6 213.177 28.992 214.425 28.992C215.577 28.992 216.377 29.376 216.377 30.736V31.376H214.473C212.345 31.376 211.097 31.888 211.097 33.648C211.097 35.28 212.153 36.128 213.737 36.128C215.001 36.128 216.025 35.52 216.441 34.64V36H217.705V30.72C217.705 28.528 216.473 27.84 214.425 27.84C213.193 27.84 212.233 28.208 211.705 28.608V30.496ZM214.073 34.896C213.001 34.896 212.457 34.352 212.457 33.568C212.457 32.656 213.081 32.432 214.521 32.432H216.377V33.296C216.297 33.84 215.705 34.896 214.073 34.896ZM225.051 36H226.379V28H223.387C220.859 28 219.867 28.752 219.867 30.816C219.867 31.968 220.507 32.688 221.547 32.976L219.259 36H220.795L222.971 33.12H225.051V36ZM223.403 29.184H225.051V32.08H222.923C221.707 32.08 221.211 31.568 221.195 30.816C221.195 29.504 221.867 29.184 223.403 29.184ZM228.456 29.904L230.184 32L228.456 34.08V35.68L231.576 32L228.456 28.32V29.904ZM231.336 29.904L233.064 32L231.336 34.08V35.68L234.456 32L231.336 28.32V29.904Z" fill="#190B25"></path> <rect y="141" width="256" height="1" fill="#F0F0F0"></rect> <rect y="60" width="256" height="1" fill="#F0F0F0"></rect> </svg> 