<?xml version="1.0" encoding="UTF-8"?> <svg xmlns="http://www.w3.org/2000/svg" width="81" height="81" viewBox="0 0 81 81" fill="none"> <path d="M59.789 5.26282C78.9897 16.1894 85.6982 40.6143 74.7729 59.8173C63.8475 79.0202 39.4256 85.7295 20.2249 74.8029C1.02418 63.8763 -5.68435 39.4515 5.24097 20.2485C16.1663 1.04555 40.5883 -5.66379 59.789 5.26282Z" fill="white"></path> <path d="M30.724 44.0249H31.804V35.6249H30.724V39.6929C30.244 40.0169 29.536 40.1609 28.78 40.1609C27.724 40.1609 27.04 39.8009 27.04 38.6369V35.6249H25.96V39.1409C25.96 40.4009 26.932 41.1089 28.564 41.1089C29.548 41.1089 30.292 40.8689 30.724 40.5809V44.0249ZM37.9085 44.0249H38.8205V39.7049C38.8205 38.0609 38.0645 37.5449 36.3845 37.5449C35.7725 37.5449 34.8725 37.7009 34.3445 37.9889V39.1409C34.7765 38.7809 35.5565 38.4569 36.2765 38.4569C37.3445 38.4569 37.8245 38.6969 37.8245 39.7169V40.3169H36.3965C34.5725 40.3169 33.8645 40.8569 33.8645 42.2609C33.8645 43.4849 34.6565 44.1569 35.9285 44.1569C36.8405 44.1569 37.5245 43.6889 37.8485 43.1129L37.9085 44.0249ZM34.8845 42.1049C34.8845 41.3369 35.2205 41.0489 36.4325 41.0489H37.8245V41.5889C37.8245 42.5129 37.2965 43.1969 36.1205 43.1969C35.2445 43.1969 34.8845 42.7889 34.8845 42.1049ZM42.1863 44.0249H43.1823V38.6009H45.2343V37.6649H40.1223V38.6009H42.1863V44.0249ZM47.5972 39.7649V37.6649H46.6012V44.0249C47.1532 44.0849 47.7292 44.1089 48.2812 44.1089C50.5252 44.1089 51.2212 43.0769 51.2212 41.8049C51.2212 40.3769 50.5012 39.7169 48.4732 39.7169C48.1732 39.7169 47.9092 39.7289 47.5972 39.7649ZM47.5972 43.1729V40.5929C47.8492 40.5569 48.0292 40.5329 48.2812 40.5329C49.9372 40.5329 50.2252 41.0849 50.2252 41.8409C50.2252 42.6569 49.8172 43.2089 48.3892 43.2089C48.0292 43.2089 47.8852 43.1969 47.5972 43.1729ZM52.1212 44.0249H53.1172V37.6649H52.1212V44.0249Z" fill="#737688"></path> </svg> 