<?xml version="1.0" encoding="UTF-8"?> <svg xmlns="http://www.w3.org/2000/svg" width="102" height="102" viewBox="0 0 102 102" fill="none"> <path d="M38.3259 13.0123C59.25 5.92557 81.9566 17.145 89.0426 38.0716C96.1285 58.9982 84.9104 81.7075 63.9863 88.7942C43.0622 95.881 20.3556 84.6616 13.2696 63.7351C6.1837 42.8085 17.4018 20.0991 38.3259 13.0123Z" fill="white"></path> <path d="M36.4438 54.6194L41.5557 54.6194L41.5557 53.6594L37.5238 53.6594L37.5238 50.8393L41.2197 50.8393L41.2197 49.8793L37.5238 49.8793L37.5238 47.1792L41.5557 47.1792L41.5557 46.2192L36.4438 46.2192L36.4438 54.6194ZM43.7444 54.6194L44.8244 54.6194L44.8244 47.1792L48.7243 47.1792L48.7243 46.2192L43.7444 46.2192L43.7444 54.6194ZM50.424 54.6194L51.504 54.6194L51.504 51.9193C51.852 51.9553 52.2599 51.9673 52.5839 51.9673C55.0799 51.9673 56.0999 51.0073 56.0999 48.8833C56.0999 47.0352 55.1519 46.1472 52.5839 46.1472C51.78 46.1472 50.94 46.2312 50.424 46.2912L50.424 54.6194ZM51.504 50.9713L51.504 47.1552C51.852 47.1192 52.2599 47.1072 52.6319 47.1072C54.3599 47.1072 54.9719 47.5752 54.9719 48.9913C54.9719 50.5153 54.3479 51.0193 52.5839 51.0193C52.2119 51.0193 51.852 51.0073 51.504 50.9713ZM58.1113 54.6194L59.1913 54.6194L59.1913 50.7793L63.8232 50.7793L63.8232 54.6194L64.9032 54.6194L64.9032 46.2192L63.8232 46.2192L63.8232 49.8193L59.1913 49.8193L59.1913 46.2192L58.1113 46.2192L58.1113 54.6194Z" fill="#737688"></path> </svg> 