<?xml version="1.0" encoding="UTF-8"?> <svg xmlns="http://www.w3.org/2000/svg" width="193" height="193" viewBox="0 0 193 193" fill="none"> <path d="M144.149 12.6372C190.441 38.9808 206.615 97.8681 180.274 144.166C153.934 190.463 95.0533 206.639 48.7613 180.295C2.46922 153.952 -13.7047 95.0645 12.6358 48.767C38.9762 2.46951 97.8565 -13.7063 144.149 12.6372Z" fill="white"></path> <path d="M50.6411 91.0088H52.8911V78.4088H41.6771V91.0088H43.9271V80.4788H50.6411V91.0088ZM55.8014 94.4828H57.9074V89.6408C58.3574 90.4868 59.3474 91.2068 60.7874 91.2068C63.2534 91.2068 64.8554 89.8568 64.8554 86.3108C64.8554 83.1608 63.2534 81.8288 60.9674 81.8288C59.0594 81.8288 58.1054 82.8728 57.7814 83.8808V82.0088H55.8014V94.4828ZM57.9074 86.1308C57.9434 84.6188 58.6994 83.7008 60.3554 83.7008C61.7954 83.7008 62.7494 84.4208 62.7494 86.4008C62.7494 88.5248 62.0114 89.3528 60.3194 89.3528C58.8434 89.3528 57.9074 88.4348 57.9074 86.8148V86.1308ZM66.8058 90.8828H67.0758V91.0088H68.8038L68.8938 90.8828L73.1238 84.8348V91.0088H75.2118V82.1528H74.9238V82.0088H73.2138L68.8938 88.1108V82.0088H66.8058V90.8828ZM83.6061 91.0088H85.6941V82.0088H78.8181L78.7461 83.9708C78.6201 88.6688 77.9901 88.9208 77.2161 88.9208C77.0721 88.9208 76.9101 88.9028 76.7481 88.8488V91.0268C76.9281 91.0808 77.2881 91.1168 77.6301 91.1168C79.0341 91.1168 80.4021 90.6128 80.6361 84.9968L80.6901 83.8628H83.6061V91.0088ZM92.2822 91.2068C95.0722 91.1888 96.9622 89.6588 96.9622 86.5448C96.9622 83.4128 95.1442 81.8288 92.3542 81.8108C89.5462 81.8108 87.6562 83.3588 87.6562 86.4728C87.6562 89.6228 89.4742 91.2068 92.2822 91.2068ZM89.7982 86.4728C89.7982 84.5828 90.6802 83.6648 92.2822 83.6468C93.8662 83.6468 94.8202 84.5108 94.8202 86.4908V86.5448C94.8202 88.4528 93.9202 89.3708 92.3182 89.3708C90.7342 89.3708 89.7982 88.5068 89.7982 86.5268V86.4728ZM103.248 91.0088H105.336V87.2828H106.578L108.576 91.0088H110.97L108.306 86.2748L110.682 82.0088H108.45L106.542 85.5188H105.336V82.0088H103.248V85.5188H102.006L100.206 82.0088H97.8662L100.278 86.3468L97.6142 91.0088H99.9722L102.024 87.2828H103.248V91.0088ZM119.679 90.1088V87.9488C119.193 88.7408 118.095 89.3708 116.439 89.3708C114.801 89.3708 113.883 88.6148 113.721 87.1208H120.399V86.2568C120.399 83.4308 118.833 81.8288 116.223 81.8108C113.505 81.8108 111.633 83.4848 111.633 86.4728C111.633 89.5688 113.397 91.2068 116.367 91.1888C118.005 91.2068 119.247 90.6128 119.679 90.1088ZM116.169 83.6468C117.447 83.6468 118.239 84.4028 118.293 85.6268H113.757C113.973 84.3308 114.819 83.6468 116.169 83.6468ZM128.509 91.0088H130.615V82.0088H128.509V85.5188H124.441V82.0088H122.335V91.0088H124.441V87.3728H128.509V91.0088ZM133.181 90.8828H133.451V91.0088H135.179L135.269 90.8828L139.499 84.8348V91.0088H141.587V82.1528H141.299V82.0088H139.589L135.269 88.1108V82.0088H133.181V90.8828ZM151.583 90.1088V87.9488C151.097 88.7408 149.999 89.3708 148.343 89.3708C146.705 89.3708 145.787 88.6148 145.625 87.1208H152.303V86.2568C152.303 83.4308 150.737 81.8288 148.127 81.8108C145.409 81.8108 143.537 83.4848 143.537 86.4728C143.537 89.5688 145.301 91.2068 148.271 91.1888C149.909 91.2068 151.151 90.6128 151.583 90.1088ZM148.073 83.6468C149.351 83.6468 150.143 84.4028 150.197 85.6268H145.661C145.877 84.3308 146.723 83.6468 148.073 83.6468ZM70.2892 113.009H72.3772V109.283H73.6192L75.6172 113.009H78.0112L75.3472 108.275L77.7232 104.009H75.4912L73.5832 107.519H72.3772V104.009H70.2892V107.519H69.0472L67.2472 104.009H64.9072L67.3192 108.347L64.6552 113.009H67.0132L69.0652 109.283H70.2892V113.009ZM79.6026 112.883H79.8726V113.009H81.6006L81.6906 112.883L85.9206 106.835V113.009H88.0086V104.153H87.7206V104.009H86.0106L81.6906 110.111V104.009H79.6026V112.883ZM92.623 113.009H94.711V105.863H97.627V104.009H89.743V105.863H92.623V113.009ZM106.794 112.109V109.949C106.308 110.741 105.21 111.371 103.554 111.371C101.916 111.371 100.998 110.615 100.836 109.121H107.514V108.257C107.514 105.431 105.948 103.829 103.338 103.811C100.62 103.811 98.748 105.485 98.748 108.473C98.748 111.569 100.512 113.207 103.482 113.189C105.12 113.207 106.362 112.613 106.794 112.109ZM103.284 105.647C104.562 105.647 105.354 106.403 105.408 107.627H100.872C101.088 106.331 101.934 105.647 103.284 105.647ZM115.106 113.009H117.194V104.009H110.318L110.246 105.971C110.12 110.669 109.49 110.921 108.716 110.921C108.572 110.921 108.41 110.903 108.248 110.849V113.027C108.428 113.081 108.788 113.117 109.13 113.117C110.534 113.117 111.902 112.613 112.136 106.997L112.19 105.863H115.106V113.009ZM125.24 113.009H127.346V104.009H123.512C120.722 104.009 119.462 105.017 119.462 107.267C119.462 108.437 120.038 109.319 121.1 109.751L119.012 113.009H121.334L123.152 110.039H125.24V113.009ZM123.566 105.863H125.24V108.419H123.17C122.072 108.419 121.586 108.005 121.568 107.267C121.568 106.223 122.162 105.863 123.566 105.863Z" fill="url(#paint0_linear)"></path> <defs> <linearGradient id="paint0_linear" x1="38.6602" y1="120.362" x2="47.6812" y2="56.6643" gradientUnits="userSpaceOnUse"> <stop stop-color="#515DAD"></stop> <stop offset="0.451216" stop-color="#5AB0FF"></stop> <stop offset="1" stop-color="#6BEAC7"></stop> </linearGradient> </defs> </svg> 